<?xml version="1.0" encoding="UTF-8" standalone="no"?>
<!-- Created with Inkscape (http://www.inkscape.org/) -->

<svg
   width="1500"
   height="1500"
   viewBox="0 0 396.87499 396.875"
   version="1.1"
   id="svg5"
   xml:space="preserve"
   inkscape:version="1.3 (0e150ed6c4, 2023-07-21)"
   sodipodi:docname="Air Conditioner.svg"
   inkscape:export-filename="Flute.png"
   inkscape:export-xdpi="96"
   inkscape:export-ydpi="96"
   xmlns:inkscape="http://www.inkscape.org/namespaces/inkscape"
   xmlns:sodipodi="http://sodipodi.sourceforge.net/DTD/sodipodi-0.dtd"
   xmlns="http://www.w3.org/2000/svg"
   xmlns:svg="http://www.w3.org/2000/svg"
   xmlns:rdf="http://www.w3.org/1999/02/22-rdf-syntax-ns#"
   xmlns:cc="http://creativecommons.org/ns#"
   xmlns:dc="http://purl.org/dc/elements/1.1/"><title
     id="title186">Election Symbols of Kerala</title><sodipodi:namedview
     id="namedview7"
     pagecolor="#ffffff"
     bordercolor="#000000"
     borderopacity="0.25"
     inkscape:showpageshadow="2"
     inkscape:pageopacity="0.0"
     inkscape:pagecheckerboard="0"
     inkscape:deskcolor="#d1d1d1"
     inkscape:document-units="mm"
     showgrid="false"
     inkscape:zoom="0.25"
     inkscape:cx="230"
     inkscape:cy="1082"
     inkscape:window-width="1920"
     inkscape:window-height="991"
     inkscape:window-x="-9"
     inkscape:window-y="-9"
     inkscape:window-maximized="1"
     inkscape:current-layer="layer1" /><defs
     id="defs2"><inkscape:path-effect
       effect="bspline"
       id="path-effect3248"
       is_visible="true"
       lpeversion="1"
       weight="33.333333"
       steps="2"
       helper_size="0"
       apply_no_weight="true"
       apply_with_weight="true"
       only_selected="false" /><inkscape:path-effect
       effect="bspline"
       id="path-effect577"
       is_visible="true"
       lpeversion="1"
       weight="33.333333"
       steps="2"
       helper_size="0"
       apply_no_weight="true"
       apply_with_weight="true"
       only_selected="false" /></defs><g
     inkscape:label="Layer 1"
     inkscape:groupmode="layer"
     id="layer1"><path
       style="fill:#000000;stroke-width:1.69379"
       d="m 348.35882,320.28456 c -7.02476,-0.33296 -25.27565,-1.12485 -40.55756,-1.75973 -15.28192,-0.63489 -34.84365,-1.44755 -43.47054,-1.80591 -8.62689,-0.35837 -20.32359,-0.86326 -25.99268,-1.12198 -13.48268,-0.61534 -37.86378,-1.66319 -52.20946,-2.24386 -6.2853,-0.25441 -16.06618,-0.65817 -21.73526,-0.89725 -5.6691,-0.23908 -15.65164,-0.6427 -22.18342,-0.89692 -6.53178,-0.25422 -21.55601,-0.86521 -33.38717,-1.35774 -30.792322,-1.2819 -51.480126,-2.11936 -65.878024,-2.6668 -6.901501,-0.26242 -13.947687,-0.68267 -15.658182,-0.93389 -5.638659,-0.82818 -9.057126,-3.44653 -11.603204,-8.88737 l -1.36071,-2.90774 0.546587,-20.19322 c 0.743526,-27.46894 2.640186,-93.98198 3.189178,-111.83983 0.246278,-8.01068 0.763834,-25.95907 1.150121,-39.88531 1.198021,-43.190784 1.252815,-44.290311 2.326528,-46.686319 1.947949,-4.346887 6.202371,-7.659966 10.75314,-8.37385 1.177932,-0.184776 5.267532,-0.184708 9.088021,1.7e-4 9.052773,0.438066 89.634545,4.262823 102.402235,4.860445 5.42261,0.253832 18.53099,0.865461 29.12974,1.359186 10.59873,0.493741 23.30378,1.098374 28.23344,1.343636 8.18992,0.407459 22.04702,1.046968 48.40018,2.233641 5.42261,0.244177 16.01015,0.748792 23.52787,1.12136 7.5177,0.372567 22.34027,1.079014 32.939,1.569876 66.07086,3.059992 69.52201,3.269515 72.01436,4.372006 4.86774,2.153219 7.97779,6.631307 8.32229,11.983071 0.11111,1.725384 -0.0242,11.607088 -0.30075,21.959338 -0.2765,10.35227 -0.90163,35.66152 -1.38917,56.2428 -0.48756,20.58128 -1.08691,44.98303 -1.3319,54.22612 -0.24497,9.2431 -0.74784,29.51068 -1.1175,45.03906 -0.89625,37.65107 -0.73449,34.88233 -2.23199,38.20364 -1.45159,3.21946 -4.19831,5.99558 -7.33635,7.41484 -2.71812,1.22934 -7.36125,1.33041 -24.27882,0.52853 z m 22.85564,-3.20168 c 2.22722,-0.90726 4.85892,-3.58115 6.0992,-6.19705 0.58434,-1.2324 1.0644,-2.46694 1.06682,-2.74342 0.005,-0.53028 -2.94576,-0.73712 -21.73089,-1.52352 -5.6691,-0.23733 -19.48331,-0.83243 -30.69827,-1.32246 -28.29511,-1.23634 -39.6684,-1.72388 -52.6576,-2.25732 -6.16206,-0.25307 -15.43877,-0.65836 -20.6149,-0.90064 -5.17612,-0.2423 -14.55366,-0.64112 -20.83896,-0.88626 -6.2853,-0.24516 -13.34366,-0.5542 -15.68525,-0.68675 -2.34158,-0.13246 -11.31578,-0.53358 -19.94267,-0.89118 -8.62688,-0.35761 -25.26443,-1.05586 -36.97234,-1.55166 -11.70792,-0.49583 -40.44553,-1.70987 -63.861365,-2.69788 -23.415829,-0.98803 -49.252345,-2.09807 -57.414487,-2.46676 -8.162125,-0.3687 -16.194438,-0.67037 -17.849563,-0.67037 h -3.009314 l 0.30512,1.4565 c 0.840173,4.01046 3.181657,7.164 6.622635,8.91947 2.153372,1.09856 6.164159,1.46708 23.588884,2.16741 6.51596,0.26188 24.161862,0.97121 39.213107,1.57628 15.051243,0.60506 31.903433,1.3051 37.449293,1.55563 5.54584,0.25055 18.35172,0.76033 28.45751,1.13286 17.51502,0.64566 41.77136,1.66517 74.61693,3.1362 14.31284,0.64101 22.67486,0.99908 47.16778,2.01971 23.08623,0.96201 32.11668,1.34364 37.08439,1.56717 2.83455,0.12754 15.33794,0.63678 27.7853,1.13162 12.44736,0.49483 23.43824,0.96323 24.42416,1.04089 2.56418,0.20193 5.57726,-0.16819 7.39448,-0.90847 z m 7.34333,-14.59986 c 0.13059,-1.29403 0.34762,-7.89864 0.48232,-14.6769 0.30961,-15.58001 0.98308,-42.56492 1.58265,-63.4132 0.25519,-8.87336 0.76666,-29.14094 1.13662,-45.03906 0.36996,-15.89811 0.97149,-41.087 1.33674,-55.97533 0.44916,-18.30806 0.51988,-27.605297 0.21849,-28.724557 -0.54564,-2.026371 -2.60052,-4.935057 -4.38322,-6.204454 -2.79031,-1.986872 -1.45707,-1.855247 -34.60592,-3.416502 -8.01068,-0.377276 -22.83323,-1.084859 -32.93902,-1.572384 -10.10577,-0.487525 -25.23083,-1.198309 -33.61124,-1.579514 -8.3804,-0.381188 -19.06877,-0.889954 -23.75194,-1.130574 -4.68316,-0.24062 -15.16986,-0.739409 -23.30379,-1.108419 -8.13392,-0.36901 -18.82229,-0.872813 -23.75194,-1.119565 -8.82242,-0.441606 -34.15239,-1.61671 -82.23549,-3.815052 -13.43329,-0.61417 -28.558341,-1.320634 -33.611235,-1.569927 -63.973419,-3.156217 -58.154778,-2.971305 -60.513929,-1.923168 -2.868542,1.274445 -4.787442,3.052167 -6.134957,5.683561 l -1.174952,2.294414 -0.580412,20.838971 c -0.31923,11.46142 -0.988838,34.65318 -1.488033,51.53722 -0.969867,32.8027 -1.318145,45.00378 -2.699214,94.55961 -0.48429,17.37701 -1.01172,34.1471 -1.172089,37.26688 l -0.29157,5.67233 2.856161,0.25565 c 1.570876,0.14058 5.780312,0.36718 9.35432,0.50351 3.573991,0.13635 16.077363,0.6429 27.785277,1.12575 11.707915,0.48287 26.328818,1.08418 32.490876,1.33628 6.162059,0.25211 22.698777,0.95517 36.748287,1.56236 14.0495,0.60719 30.48538,1.30913 36.5242,1.5599 17.24447,0.71605 52.12527,2.21372 62.96505,2.70352 5.42262,0.245 21.75767,0.9525 36.30014,1.57218 14.54246,0.61969 30.97836,1.3227 36.52422,1.56225 5.54586,0.23954 17.44422,0.73753 26.44083,1.10662 8.9966,0.36912 20.69332,0.89147 25.9927,1.16078 5.29937,0.26931 13.26522,0.64596 17.70191,0.83702 4.43668,0.19104 8.4051,0.37779 8.81871,0.41496 0.59061,0.0532 0.80298,-0.43737 0.98945,-2.28516 z m -37.36938,-8.18479 c -7.5177,-0.3328 -21.83609,-0.92427 -31.81862,-1.31437 -9.98255,-0.39011 -18.84654,-0.82403 -19.69775,-0.96426 -2.31662,-0.38164 -4.70352,-1.75226 -6.18818,-3.55341 -2.48456,-3.01419 -2.53376,-3.53097 -2.05804,-21.61165 0.36958,-14.04764 0.54838,-16.73249 1.21606,-18.26153 1.02654,-2.35088 2.77768,-4.17491 4.99263,-5.20039 2.12174,-0.98233 6.65229,-1.06743 21.95935,-0.41245 5.42261,0.23203 17.72432,0.72865 27.33713,1.10359 22.31651,0.87046 24.72446,1.05635 26.69549,2.06086 2.27912,1.16153 4.76442,4.09334 5.36704,6.33125 0.6066,2.25276 -0.19522,32.28821 -0.93333,34.96143 -0.6919,2.50579 -2.82466,5.07562 -5.14437,6.19857 -2.75832,1.33527 -4.98994,1.40331 -21.72741,0.66236 z m 18.94658,-2.03757 c 2.11195,-0.58647 4.74463,-2.85526 5.55003,-4.78287 0.43776,-1.04771 0.75199,-5.86573 1.10754,-16.98147 0.53749,-16.8038 0.45654,-17.77558 -1.69344,-20.33069 -2.32275,-2.76042 -2.20737,-2.74276 -23.66907,-3.62545 -36.65912,-1.50774 -49.75535,-1.91077 -51.46775,-1.58388 -2.1825,0.41662 -5.03195,3.20236 -5.64392,5.51771 -0.72705,2.7507 -1.18615,32.31929 -0.53257,34.29967 0.67307,2.0394 3.06987,4.19894 5.29931,4.77473 0.92754,0.23953 10.35815,0.77184 20.95688,1.18291 18.17909,0.70504 44.81911,1.79573 47.2798,1.93572 0.61622,0.0351 1.88215,-0.14787 2.81319,-0.40638 z m -18.27435,-2.0291 c -7.88744,-0.3242 -22.46581,-0.90972 -32.39639,-1.30113 -9.93057,-0.39144 -18.5128,-0.88554 -19.07162,-1.09799 -1.6709,-0.63527 -3.95921,-2.79896 -4.61166,-4.36047 -0.68141,-1.63085 -0.75381,-8.94224 -0.22827,-23.0519 0.3011,-8.08392 0.3481,-8.39633 1.53283,-10.18655 0.69369,-1.04824 2.04561,-2.26965 3.12634,-2.82455 l 1.90414,-0.97768 14.3408,0.50568 c 42.02349,1.48187 51.5481,1.9478 53.42098,2.61334 2.2469,0.79846 4.39189,3.09494 5.02188,5.37656 0.56216,2.03594 -0.21089,28.36613 -0.89537,30.49689 -0.59905,1.8648 -3.48138,4.43885 -5.64244,5.03894 -0.94175,0.26151 -1.8131,0.44911 -1.93634,0.41689 -0.12331,-0.0322 -6.67743,-0.32383 -14.56488,-0.64803 z m 16.94711,-1.5839 c 1.68865,-0.86756 3.40629,-2.7274 3.84614,-4.16455 0.23274,-0.76041 0.55582,-7.63425 0.71795,-15.27521 l 0.29478,-13.89264 -1.04522,-1.5443 c -2.2071,-3.26096 -1.51859,-3.15351 -26.25302,-4.0968 -12.26116,-0.4676 -27.03222,-1.04144 -32.82455,-1.27521 -10.36257,-0.41819 -10.56349,-0.40925 -12.52473,0.55675 -3.42193,1.68547 -3.51813,2.11572 -3.97759,17.78707 -0.39811,13.57932 -0.2972,15.27438 1.02986,17.29974 1.60136,2.44399 2.07979,2.512 23.76324,3.3778 11.0917,0.44289 24.20009,0.98252 29.12973,1.19917 13.2387,0.58182 16.755,0.58737 17.84341,0.0281 z m -8.92623,-1.70682 c -2.83963,-0.16006 -4.80258,-0.48437 -5.26575,-0.87015 -0.98846,-0.8233 -1.01573,-5.28781 -0.0408,-6.6797 0.65142,-0.93003 1.0355,-0.99602 5.79677,-0.99602 5.00061,0 7.26798,0.42379 7.94244,1.48453 0.1861,0.29269 0.33837,1.64132 0.33837,2.99697 0,1.35566 -0.15227,2.70429 -0.33837,2.99698 -0.38806,0.61031 -2.58469,1.52397 -3.3743,1.40351 -0.29207,-0.0445 -2.56831,-0.19582 -5.05834,-0.33612 z m 7.2407,-2.43383 c 0.14618,-0.5821 0.20035,-1.74169 0.1206,-2.57687 l -0.14499,-1.5185 -5.3396,-0.39657 c -6.14795,-0.45661 -6.68715,-0.19994 -6.44424,3.06761 0.16379,2.20226 0.66147,2.37667 6.95768,2.43802 4.46193,0.0435 4.59213,0.0169 4.85064,-1.01369 z m -27.49917,1.54059 c -1.33077,-0.16108 -2.56144,-0.57739 -2.79409,-0.94523 -0.22866,-0.36156 -0.41886,-1.81696 -0.42262,-3.23424 -0.005,-2.04131 0.19244,-2.77616 0.95209,-3.53581 0.887,-0.88701 1.26209,-0.93745 4.9985,-0.67223 2.22174,0.15769 4.80083,0.28674 5.73128,0.28674 2.45758,0 3.1002,0.87474 3.1002,4.21997 0,3.90269 -0.52546,4.31348 -5.41308,4.23178 -2.07569,-0.0347 -4.84422,-0.19264 -6.15228,-0.35098 z m 9.68313,-1.46816 c 0.8259,-0.82588 0.69429,-4.68407 -0.17109,-5.01614 -0.38988,-0.14956 -3.00772,-0.27202 -5.8174,-0.27202 -4.99555,0 -5.11442,0.0234 -5.37418,1.05835 -0.146,0.5821 -0.20036,1.74169 -0.12059,2.57687 l 0.14498,1.51849 3.80926,0.25263 c 6.59931,0.43764 6.97906,0.43168 7.52892,-0.11823 z m -23.58785,0.98592 c -4.80191,-0.19465 -5.61073,-0.33825 -6.16206,-1.09398 -0.85619,-1.17362 -0.81703,-5.16843 0.063,-6.42484 0.65655,-0.93734 1.01951,-0.99563 6.16206,-0.98941 7.19383,0.008 7.66237,0.24277 7.83834,3.91595 0.14414,3.00909 -0.32204,4.38459 -1.57547,4.64835 -0.43913,0.0925 -3.28579,0.0672 -6.32586,-0.0561 z m 6.55615,-4.0794 0.13246,-2.5109 -2.77505,-0.29004 c -1.52626,-0.15956 -4.1368,-0.29005 -5.80121,-0.29005 h -3.02618 l -0.18932,2.12871 c -0.32629,3.66873 -0.389,3.63509 6.59725,3.54015 l 4.92963,-0.0669 z m -27.01817,3.29741 c -3.126,-0.24072 -3.81253,-1.00008 -3.81253,-4.21711 0,-2.06888 0.19911,-2.81854 0.94727,-3.5667 0.90198,-0.90198 1.21799,-0.93181 6.61021,-0.62388 3.11461,0.17787 6.01586,0.51039 6.4472,0.73895 1.07595,0.57013 1.13812,6.24026 0.0801,7.29836 -0.70487,0.70486 -4.26253,0.83314 -10.27219,0.37038 z m 9.09419,-1.54838 c 0.78748,-0.78746 0.69772,-4.68275 -0.11501,-4.99464 -0.35907,-0.13771 -2.90374,-0.28397 -5.65484,-0.32482 -3.80643,-0.0566 -5.0948,0.0721 -5.3903,0.53869 -0.59426,0.93806 -0.47466,3.80409 0.18148,4.34863 0.32094,0.26637 2.38803,0.55208 4.59353,0.63496 2.20551,0.0828 4.42343,0.19212 4.92873,0.2428 0.50529,0.0507 1.1607,-0.1499 1.45647,-0.44562 z m 23.39342,-8.74477 c -9.35094,-0.17577 -8.51484,0.39475 -8.51484,-5.81028 v -5.21644 l 9.47703,0.29514 c 5.92357,0.18447 9.70438,0.48383 10.08336,0.79837 0.7395,0.61373 0.85249,8.05918 0.14245,9.38593 -0.3716,0.69435 -0.88438,0.8472 -2.57687,0.76813 -1.16211,-0.0544 -5.03711,-0.15363 -8.61112,-0.22085 z m -23.75193,-0.99853 c -3.08103,-0.1377 -5.85396,-0.41359 -6.16206,-0.613 -0.60697,-0.39284 -0.72418,-6.78576 -0.16176,-8.82452 0.39833,-1.44406 1.1674,-1.51808 11.5896,-1.11524 l 8.17875,0.31613 v 5.3292 5.32922 l -3.92132,-0.0857 c -2.15671,-0.0471 -6.44215,-0.19837 -9.52318,-0.33611 z m 46.39488,-0.35988 c -2.89583,-0.22338 -3.3725,-0.6809 -3.3725,-3.23709 0,-3.31551 0.79154,-3.77417 5.82569,-3.37574 3.631,0.28739 4.15505,0.44098 4.78504,1.40246 0.48649,0.74248 0.6228,1.6015 0.4364,2.75015 -0.44548,2.74524 -1.13095,2.96497 -7.67463,2.46022 z m 5.95365,-3.13965 -0.13906,-1.68055 -3.9213,-0.12941 -3.92131,-0.1294 v 1.81006 1.81003 h 4.0604 4.0604 z m -27.7003,-7.75285 c -3.57399,-0.1723 -7.05916,-0.33859 -7.74481,-0.36957 l -1.24663,-0.0562 0.12619,-5.26577 0.12636,-5.26575 8.73891,0.15905 c 5.44623,0.0991 9.16106,0.35806 9.85929,0.68722 1.1051,0.52094 1.11838,0.59203 0.97319,5.21401 -0.0925,2.94269 -0.34252,4.8101 -0.67224,5.01983 -0.28876,0.18367 -1.23086,0.3017 -2.09354,0.26225 -0.86269,-0.0395 -4.49271,-0.21269 -8.0667,-0.38498 z m -22.51891,-0.84939 c -4.46081,-0.17372 -7.70558,-0.49198 -7.9981,-0.7845 -0.77605,-0.77606 -0.35654,-9.47326 0.4819,-9.99071 0.62626,-0.38649 5.74449,-0.29296 15.14798,0.27683 l 4.15925,0.25202 -0.12585,5.2229 -0.12585,5.2229 -2.01668,0.0464 c -1.10917,0.0256 -5.39433,-0.085 -9.52257,-0.24587 z m 41.51838,-1.60184 c -0.81367,-1.24182 -0.6398,-3.82355 0.33676,-5.00022 0.72377,-0.8721 8.97844,-0.69347 9.88407,0.2139 0.73514,0.73656 0.6832,4.31082 -0.0759,5.22554 -0.44452,0.53561 -1.55985,0.68983 -4.98881,0.68983 -4.22524,0 -4.4483,-0.0488 -5.15608,-1.12905 z m 9.14608,-2.07126 0.13618,-1.63178 -3.58077,-0.31696 c -1.9694,-0.17434 -3.79528,-0.18439 -4.05748,-0.0224 -0.2622,0.1621 -0.47674,0.97519 -0.47674,1.80696 0,1.74261 0.55716,1.94261 5.15373,1.85006 l 2.6889,-0.0542 z m -118.44773,28.49916 c -6.40854,-0.31514 -16.79442,-0.8007 -23.07973,-1.07899 -6.2853,-0.27829 -17.57868,-0.79991 -25.09638,-1.15917 -7.51772,-0.35924 -24.76028,-1.15722 -38.31681,-1.77327 -13.55653,-0.61606 -31.00076,-1.41941 -38.76497,-1.78524 -18.582654,-0.87556 -49.668189,-2.33511 -62.292819,-2.92483 -17.760334,-0.8296 -18.216574,-0.87437 -19.786908,-1.94191 -0.782245,-0.53177 -1.814359,-1.72674 -2.293601,-2.65547 -0.845594,-1.63868 -0.856502,-2.20844 -0.368841,-19.27045 0.276393,-9.67001 0.904181,-34.72357 1.395077,-55.67457 1.325259,-56.55947 2.173714,-90.75896 2.504495,-100.95171 0.328495,-10.121524 0.627416,-11.265801 3.363368,-12.874499 1.893002,-1.113077 -3.854958,-1.255982 54.175444,1.347024 8.257164,0.370382 24.491395,1.072985 36.076065,1.561357 37.86918,1.596401 51.94085,2.204406 88.06143,3.804906 55.95923,2.479529 53.20815,2.316383 54.80738,3.250375 0.77205,0.450905 1.78732,1.476633 2.25617,2.279424 0.82598,1.414268 0.8366,2.158233 0.34191,23.960143 -0.2808,12.37531 -0.70699,29.76058 -0.94709,38.63395 -0.24009,8.87336 -0.7379,29.54428 -1.10623,45.93535 -1.73789,77.33635 -1.72647,77.00235 -2.69497,78.8752 -1.40175,2.71068 -2.80944,3.13987 -10.08293,3.07414 -3.574,-0.0324 -11.74152,-0.31659 -18.15006,-0.63176 z m 24.98435,-3.70116 c 0.92915,-0.79799 1.10981,-4.11973 0.22407,-4.12005 -0.3081,-1.2e-4 -6.71105,-0.29508 -14.22876,-0.65547 -15.61998,-0.74879 -39.02402,-1.83283 -53.77797,-2.49091 -16.3989,-0.73146 -57.42616,-2.63381 -72.15213,-3.34556 -7.51772,-0.36336 -18.30692,-0.87117 -23.976016,-1.12848 -5.669097,-0.25728 -22.810654,-1.06792 -38.09234,-1.8014 -15.281686,-0.73346 -28.339656,-1.33357 -29.017699,-1.33357 -1.139517,0 -1.232812,0.13567 -1.232812,1.79259 0,1.75035 1.154542,3.5852 2.255898,3.5852 0.501143,0 20.716598,0.93293 43.679456,2.01576 7.887442,0.37194 27.550013,1.27625 43.694623,2.00958 16.14459,0.73335 33.48799,1.53717 38.54089,1.78629 5.05287,0.24913 18.46376,0.87824 29.80195,1.39805 11.33819,0.5198 32.21077,1.49087 46.38352,2.15791 14.17272,0.66705 26.0711,1.12073 26.44082,1.00821 0.36972,-0.11247 1.02516,-0.5077 1.4565,-0.87815 z m 1.2324,-10.60949 c 0,-2.18506 -0.11128,-2.47991 -1.00833,-2.67033 -0.55458,-0.11772 -13.10838,-0.73165 -27.89732,-1.36427 -14.78895,-0.63261 -39.49321,-1.74921 -54.89836,-2.48134 -15.40516,-0.73212 -34.56355,-1.63075 -42.57423,-1.99697 -33.28937,-1.52184 -100.825549,-4.68828 -103.598003,-4.85719 l -2.988345,-0.18208 -0.148715,2.59645 -0.148715,2.59643 3.585204,0.26351 c 3.851011,0.28303 21.868633,1.12346 77.081764,3.59543 19.22564,0.86076 36.56903,1.67511 38.54089,1.80967 1.97187,0.13466 14.67692,0.7459 28.23344,1.35852 13.55653,0.61263 31.00076,1.40865 38.76496,1.76894 7.7642,0.36027 16.94006,0.78211 20.39081,0.93741 3.45077,0.15532 9.09746,0.43161 12.54821,0.61402 3.45075,0.1824 8.03868,0.36235 10.1954,0.39987 l 3.92131,0.0683 z m 0.13906,-9.06859 c 0.14533,-1.40902 0.21283,-2.61346 0.14973,-2.6765 -0.11026,-0.11027 -22.10976,-1.17385 -53.61864,-2.5922 -8.25715,-0.37169 -23.58387,-1.07644 -34.05938,-1.56612 -10.4755,-0.48965 -36.79309,-1.70431 -58.48355,-2.69923 -21.690452,-0.9949 -49.488806,-2.31033 -61.774135,-2.92318 -12.28533,-0.61285 -23.024106,-1.11428 -23.863974,-1.11428 h -1.52704 v 2.60319 2.60319 l 10.86764,0.53795 c 10.633473,0.52637 59.431929,2.76826 79.882709,3.66997 5.6691,0.24995 18.57581,0.85365 28.68158,1.34155 25.22322,1.21772 72.55791,3.46134 85.59662,4.05716 5.91558,0.27033 13.78061,0.6481 17.47784,0.8395 3.69725,0.19138 7.55112,0.37788 8.5642,0.41443 l 1.84193,0.0664 z m 0.30914,-9.46965 v -2.6204 l -7.7306,-0.30007 c -4.25181,-0.16515 -13.88144,-0.59464 -21.39915,-0.95464 -7.51772,-0.36 -22.64276,-1.06396 -33.61123,-1.56434 -10.96847,-0.5004 -26.2952,-1.20878 -34.0594,-1.5742 -13.84284,-0.65148 -18.7552,-0.87405 -49.52055,-2.24361 -8.38039,-0.37306 -23.707117,-1.0792 -34.059387,-1.56919 -10.352269,-0.48999 -25.477313,-1.19331 -33.611236,-1.56291 -8.133923,-0.3696 -15.722919,-0.76129 -16.864435,-0.87041 l -2.075491,-0.19839 -0.220973,2.54945 c -0.121614,1.40219 -0.166161,2.61281 -0.09909,2.69027 0.136181,0.15752 9.314211,0.6319 31.584137,1.63261 8.257164,0.37104 16.727187,0.78404 18.822292,0.91775 2.095106,0.13364 15.102652,0.74346 28.905683,1.355 13.803,0.61153 31.4489,1.41203 39.2131,1.77889 7.7642,0.36685 29.44345,1.38263 48.1761,2.25729 18.73266,0.87466 39.30275,1.85808 45.71129,2.18537 6.40854,0.32729 13.71899,0.62137 16.24543,0.6535 l 4.59354,0.0584 z m 0.0722,-8.99899 0.15194,-2.65638 -4.03335,-0.2692 c -4.04612,-0.27004 -24.01152,-1.19836 -43.69462,-2.03164 -5.79233,-0.24521 -14.6657,-0.65029 -19.7186,-0.9002 -8.62959,-0.4268 -19.89566,-0.94292 -68.56691,-3.14116 -10.96846,-0.4954 -26.19435,-1.19495 -33.835314,-1.55458 -7.640961,-0.35962 -20.749339,-0.96778 -29.129744,-1.35146 C 57.868188,232.07982 47.28065,231.57011 42.720735,231.33081 30.622943,230.6959 31.96514,230.41523 31.96514,233.58 v 2.6889 l 1.456477,0.005 c 0.80108,0.003 7.708188,0.30103 15.349132,0.6619 7.640962,0.36084 20.547676,0.96478 28.6816,1.34208 8.133906,0.37727 23.359801,1.08541 33.835311,1.57362 10.47549,0.4882 28.02056,1.29341 38.98903,1.78934 10.96848,0.49591 26.49686,1.20313 34.50754,1.57158 8.01067,0.36847 25.95908,1.19032 39.88532,1.82634 21.37291,0.97612 28.87426,1.34441 39.06128,1.91781 1.14914,0.0647 1.19814,-0.0296 1.34445,-2.58927 z m 0.37592,-9.3735 v -2.61874 l -6.83429,-0.28401 c -9.38145,-0.38988 -33.16915,-1.47981 -55.45854,-2.54105 -10.22901,-0.48702 -25.55574,-1.1905 -34.05938,-1.56331 -8.50364,-0.3728 -21.91453,-0.97969 -29.80196,-1.34863 -7.88744,-0.36896 -23.71834,-1.09497 -35.17976,-1.61337 -11.461433,-0.51841 -32.233181,-1.48971 -46.159441,-2.15846 -13.926261,-0.66874 -25.349516,-1.204 -25.385001,-1.18945 -0.03557,0.0153 -0.136351,1.23644 -0.224073,2.71534 l -0.159555,2.6889 3.137043,0.11061 c 1.725384,0.0608 13.926261,0.61405 27.113061,1.22927 13.186818,0.61522 31.034382,1.42843 39.661266,1.80716 8.62689,0.37871 26.47445,1.18767 39.66127,1.79766 13.1868,0.60998 32.74853,1.50883 43.47052,1.99742 10.72199,0.48859 28.56956,1.30224 39.66127,1.80811 11.0917,0.50588 23.39342,1.08382 27.33713,1.28432 3.94372,0.20051 8.53166,0.39433 10.19541,0.43071 l 3.02502,0.0662 z m 0.13906,-8.90614 c 0.1455,-1.40903 0.20815,-2.61815 0.1394,-2.68692 -0.16684,-0.16683 -19.13711,-1.08167 -67.50086,-3.25515 -22.06019,-0.99139 -48.88194,-2.20847 -59.60393,-2.70461 -10.72198,-0.49617 -28.46871,-1.30624 -39.437185,-1.80019 -26.193093,-1.17954 -46.331041,-2.14124 -56.018733,-2.67519 -4.313434,-0.23773 -8.498038,-0.43612 -9.299101,-0.44085 l -1.456494,-0.008 v 2.6889 2.6889 l 1.904638,0.005 c 1.047544,0.003 7.752989,0.29816 14.900988,0.65579 7.147983,0.35765 19.752203,0.95918 28.00935,1.33674 8.257164,0.37758 19.248044,0.89045 24.424177,1.13971 5.17612,0.24926 16.36867,0.75003 24.87231,1.11282 8.50365,0.36278 17.57868,0.76871 20.16674,0.90205 2.58807,0.1333 18.01563,0.84163 34.28347,1.57397 16.26783,0.73235 35.52707,1.62672 42.79831,1.9875 7.27122,0.36076 18.5646,0.87869 25.09639,1.15092 6.53178,0.27222 12.48097,0.5517 13.22041,0.62103 3.45874,0.32434 3.2135,0.48495 3.50014,-2.29237 z m 0.30914,-9.46779 v -2.61852 l -7.28244,-0.2917 c -4.00533,-0.1604 -15.85329,-0.69471 -26.3288,-1.18725 -20.81445,-0.97866 -62.46391,-2.88223 -78.42621,-3.58444 -5.54585,-0.24398 -12.20087,-0.54683 -14.78894,-0.67301 -7.7233,-0.37657 -23.20531,-1.08705 -44.366834,-2.036 -10.968472,-0.49186 -25.992701,-1.18425 -33.387164,-1.53864 -7.394481,-0.35438 -16.923261,-0.78318 -21.175092,-0.95286 l -7.73058,-0.30853 v 2.49949 2.49948 l 1.904638,0.23408 c 1.047544,0.12873 5.030485,0.35004 8.850957,0.49178 3.820473,0.14177 12.996351,0.55041 20.390814,0.90819 7.394481,0.35778 20.200364,0.95935 28.457528,1.33681 8.257143,0.37747 21.466373,0.98503 29.353803,1.35013 7.88744,0.36509 25.63417,1.16931 39.43719,1.78715 32.13215,1.43826 81.26333,3.71639 90.52626,4.19757 3.94373,0.20486 8.83415,0.40224 10.86764,0.43864 l 3.69723,0.0662 z m 0.17373,-8.87263 c 0.16345,-1.39049 0.2228,-2.60248 0.13195,-2.69334 -0.14313,-0.14313 -23.39205,-1.26909 -58.78924,-2.84734 -5.6691,-0.25278 -16.45832,-0.75485 -23.97602,-1.11575 -7.51772,-0.3609 -22.94527,-1.06513 -34.28346,-1.56495 -11.3382,-0.49984 -24.74907,-1.11108 -29.80196,-1.3583 -5.0529,-0.24725 -15.94293,-0.74388 -24.200097,-1.10366 -44.413174,-1.93513 -56.093548,-2.47391 -59.043748,-2.72349 l -3.249088,-0.27487 v 2.67955 2.67957 l 3.921321,0.2699 c 2.156725,0.14838 8.862153,0.47864 14.900971,0.73372 17.883405,0.75544 78.998451,3.51676 98.817051,4.46479 22.12308,1.05829 30.85285,1.45486 64.08542,2.91121 41.55947,1.82129 46.55215,2.05116 47.72796,2.19743 3.5211,0.43808 3.43651,0.48881 3.75892,-2.25447 z m 0.27443,-9.4759 v -2.5929 l -27.00103,-1.23616 c -14.85057,-0.67988 -33.15188,-1.52416 -40.6696,-1.87617 -7.51771,-0.352 -25.26446,-1.15368 -39.43718,-1.78148 -14.17274,-0.62781 -34.74282,-1.5388 -45.71128,-2.02442 -30.296618,-1.34139 -48.647087,-2.19382 -62.88653,-2.92127 -7.104807,-0.36297 -13.885423,-0.65992 -15.068047,-0.65992 h -2.150222 l -0.237012,2.35278 c -0.130422,1.29402 -0.105524,2.4786 0.05505,2.63238 0.160572,0.15379 7.854549,0.60687 17.097637,1.00685 9.243105,0.40001 27.897339,1.22848 41.453861,1.84107 13.556543,0.61258 31.605763,1.42305 40.109413,1.80103 8.50364,0.37799 21.8137,0.98146 29.57789,1.34105 36.07362,1.67066 56.12943,2.60627 76.40954,3.56457 12.07764,0.57073 23.42143,1.06193 25.20844,1.09159 l 3.24909,0.0539 z m 0,-7.65851 c 0,-0.70864 0.12212,-1.89876 0.27126,-2.64474 l 0.27126,-1.35631 -3.74442,-0.27453 c -2.05943,-0.15092 -13.02113,-0.67462 -24.35932,-1.16364 -31.43315,-1.35566 -79.5421,-3.47466 -101.63348,-4.47654 -10.89832,-0.49427 -24.35264,-1.10129 -29.89849,-1.34894 -5.54586,-0.24767 -14.116733,-0.64834 -19.046369,-0.89036 -4.929654,-0.24203 -14.004684,-0.65683 -20.166742,-0.92178 -6.162059,-0.26496 -16.411379,-0.72287 -22.77627,-1.01758 -6.364873,-0.29472 -11.658642,-0.44972 -11.763928,-0.34443 -0.105354,0.10535 -0.191416,1.24888 -0.191416,2.54133 v 2.3499 l 3.697232,0.27236 c 2.033485,0.14974 10.654764,0.57483 19.158409,0.9445 15.865825,0.68971 53.124434,2.35136 79.770664,3.55754 8.25716,0.37379 17.43303,0.78813 20.39083,0.92077 48.98169,2.19642 104.315,4.77286 109.01243,5.07584 0.82694,0.0534 1.00835,-0.16667 1.00835,-1.22339 z m 0.44814,-10.56008 v -2.43737 l -1.90463,-0.23127 c -1.04755,-0.1272 -4.32465,-0.33928 -7.28244,-0.4713 -2.95779,-0.13194 -19.09118,-0.84942 -35.85199,-1.59421 -91.49715,-4.06591 -101.74297,-4.53004 -168.249833,-7.62177 -15.626101,-0.72642 -19.535007,-0.79312 -19.823765,-0.33822 -0.197818,0.31166 -0.36276,1.52457 -0.366537,2.69535 -0.0068,2.04219 0.04489,2.12871 1.267822,2.12871 1.219583,0 119.193003,5.30053 139.668433,6.27528 5.42262,0.25816 19.136,0.86714 30.4742,1.35331 23.25741,0.99727 49.40754,2.16648 53.10574,2.37445 1.35566,0.0762 3.92691,0.17592 5.71392,0.2215 l 3.24908,0.0828 z m 0.10095,-8.87841 c 0.10316,-1.29404 0.0722,-2.49162 -0.0688,-2.66131 -0.14093,-0.16967 -7.21382,-0.62166 -15.71747,-1.0044 -8.50364,-0.38275 -28.87205,-1.30145 -45.26314,-2.04157 -65.78489,-2.9704 -90.1098,-4.06248 -105.09112,-4.71806 -8.626889,-0.37753 -26.373622,-1.18523 -39.437182,-1.79492 -13.063577,-0.60968 -24.60904,-1.10933 -25.656584,-1.11035 l -1.904639,-0.002 v 2.43737 2.43737 l 1.904639,0.22951 c 1.856974,0.22375 17.615124,0.95857 49.408513,2.30397 8.626885,0.36504 26.272793,1.16399 39.213123,1.7754 37.87283,1.78943 64.64001,2.99778 114.95042,5.18918 10.14977,0.44209 22.57618,1.03016 26.28556,1.24392 1.12278,0.0647 1.19963,-0.0628 1.37666,-2.28425 z m 0.34715,-9.4777 v -2.41935 l -3.02502,-0.25661 c -1.66374,-0.14109 -6.05001,-0.37112 -9.74724,-0.5111 -3.69725,-0.13991 -10.7556,-0.44623 -15.68525,-0.68055 -15.84938,-0.7534 -37.9193,-1.75846 -44.14276,-2.01024 -6.83101,-0.27636 -38.4966,-1.67989 -60.7243,-2.69151 -8.13392,-0.37018 -21.74647,-0.97363 -30.25012,-1.34096 -8.503645,-0.36735 -24.233695,-1.07199 -34.955686,-1.56588 -31.746978,-1.46236 -34.573616,-1.57445 -34.769063,-1.3789 -0.102644,0.10264 -0.186623,1.26228 -0.186623,2.57685 v 2.39013 h 1.966953 c 1.081844,0 5.468111,0.20012 9.747263,0.44471 4.279169,0.24458 14.536162,0.75077 22.793326,1.12485 8.257164,0.37409 23.684719,1.07713 34.28345,1.56232 10.59876,0.48519 28.74883,1.29382 40.33349,1.79698 22.9031,0.99475 33.67527,1.48537 102.40224,4.66403 7.02474,0.32491 14.83935,0.61859 17.3658,0.65266 l 4.59354,0.062 z m 0,-8.29961 c 0,-0.96577 0.11772,-2.06263 0.26154,-2.43749 0.3642,-0.94908 -0.76719,-1.07808 -14.15418,-1.61391 -27.06618,-1.08335 -185.109,-8.06821 -202.787795,-8.96241 -4.929654,-0.24934 -10.576341,-0.48976 -12.548206,-0.53424 l -3.585187,-0.081 -0.132794,2.48356 -0.132793,2.48357 5.958701,0.29088 c 18.022652,0.87977 105.984864,4.81242 131.216584,5.86647 8.99661,0.37582 20.69331,0.87829 25.99269,1.11657 32.20525,1.44808 42.61555,1.93467 52.43353,2.45078 6.03881,0.31744 12.44176,0.60325 14.22875,0.63513 l 3.24909,0.0579 z m 0.44816,-9.66333 c 0,-2.19038 -0.10908,-2.47752 -1.00835,-2.65242 -0.55458,-0.10789 -6.45336,-0.42299 -13.10838,-0.70025 -6.65502,-0.27724 -23.19176,-0.99879 -36.74828,-1.60341 -13.55654,-0.60463 -31.80745,-1.39616 -40.55757,-1.75895 -8.75012,-0.3628 -18.02682,-0.77156 -20.61488,-0.90839 -2.58807,-0.13686 -9.34392,-0.44277 -15.01302,-0.67992 -30.48662,-1.27529 -42.955715,-1.82323 -50.640987,-2.22539 -4.683172,-0.24506 -13.959865,-0.66566 -20.614886,-0.93468 -6.655037,-0.26903 -17.209037,-0.72591 -23.453346,-1.0153 -6.244327,-0.2894 -11.437264,-0.44215 -11.539857,-0.33944 -0.102644,0.10265 -0.186571,1.26229 -0.186571,2.57686 0,1.97584 0.136011,2.3909 0.78426,2.39458 1.442944,0.008 32.357829,1.38126 110.805067,4.92125 13.42181,0.60567 25.05013,1.1145 56.91501,2.49049 14.66571,0.63329 34.02578,1.51435 43.02239,1.95791 8.9966,0.44355 17.61788,0.83501 19.1584,0.8699 l 2.80095,0.0635 z m 0.15075,-8.83312 c 0.15159,-1.27953 0.19521,-2.40673 0.097,-2.50489 -0.22602,-0.22602 -9.57326,-0.69445 -42.14974,-2.11228 -14.29598,-0.62221 -30.22769,-1.333 -35.40383,-1.57951 -7.97408,-0.37978 -48.25337,-2.14719 -117.191189,-5.14219 -8.503627,-0.36944 -19.572084,-0.87424 -24.596539,-1.12175 -5.024456,-0.24753 -10.217393,-0.45006 -11.539857,-0.45006 h -2.404477 v 2.46483 c 0,2.04842 0.132455,2.46493 0.784261,2.46548 0.431342,3.8e-4 4.918441,0.19859 9.971335,0.44044 13.274946,0.63545 27.167483,1.26071 45.039048,2.0271 25.655488,1.10021 65.001288,2.84802 85.596618,3.80236 10.59875,0.49114 26.42963,1.1954 35.17976,1.56504 26.28271,1.11028 37.93942,1.61984 45.48721,1.98844 3.94373,0.1926 7.9994,0.38016 9.01261,0.4168 l 1.84222,0.0666 z m 0.29746,-9.06118 v -2.42459 l -3.69723,-0.25817 c -4.58182,-0.31993 -42.45725,-2.0215 -130.74776,-5.8739 -14.17274,-0.6184 -30.20531,-1.32639 -35.627922,-1.57329 -5.422616,-0.24691 -16.413479,-0.74084 -24.424162,-1.0976 -8.010683,-0.35678 -19.865755,-0.88584 -26.344604,-1.17571 -6.478849,-0.28986 -11.879716,-0.42704 -12.001923,-0.30484 -0.122292,0.12213 -0.344857,1.25788 -0.494775,2.52372 -0.21269,1.79583 -0.135842,2.30199 0.350023,2.3036 0.342434,0.001 6.874299,0.30021 14.515261,0.66459 7.640961,0.36439 20.850171,0.97082 29.353815,1.34762 8.503645,0.3768 22.116197,0.98121 30.250107,1.34314 8.13392,0.36193 22.35148,0.97028 31.59457,1.35189 9.24309,0.38163 25.77983,1.09487 36.74828,1.58502 51.21867,2.28876 60.09877,2.6828 70.35953,3.12204 6.03882,0.2585 11.988,0.52839 13.22042,0.59975 1.23241,0.0713 3.2995,0.16616 4.59354,0.21054 l 2.35278,0.0808 z m 0.36208,-8.96105 0.1328,-2.42263 -3.72063,-0.25335 c -3.88919,-0.26482 -5.53776,-0.33891 -31.05777,-1.3959 -8.62689,-0.35731 -17.60108,-0.76097 -19.94267,-0.89704 -2.34157,-0.13601 -11.41662,-0.54591 -20.16674,-0.91077 -34.44189,-1.43615 -67.64377,-2.88499 -71.47989,-3.11919 -2.21835,-0.13533 -13.51172,-0.6483 -25.096398,-1.13972 -36.971182,-1.5683 -51.855673,-2.22615 -57.027116,-2.52046 l -5.041681,-0.28692 v 2.49835 2.49835 l 2.352782,0.23833 c 1.294042,0.1311 12.738657,0.65853 25.432512,1.17211 12.693839,0.51357 26.709735,1.12476 31.14641,1.3582 4.436691,0.23342 15.225891,0.72613 23.976021,1.09489 65.97417,2.78038 120.27045,5.19007 135.78939,6.02642 3.57399,0.19261 8.31435,0.37985 10.53411,0.41609 l 4.03594,0.0659 z m 0.0861,-9.00518 v -2.46481 l -1.90464,-0.005 c -1.04754,-0.002 -5.73631,-0.19871 -10.41948,-0.43632 -4.68317,-0.23762 -15.67404,-0.74071 -24.42416,-1.11799 -8.75013,-0.37727 -20.24517,-0.88802 -25.54454,-1.13501 -5.29938,-0.24697 -16.59275,-0.75464 -25.0964,-1.12813 -8.50364,-0.3735 -19.79701,-0.87756 -25.09639,-1.12011 -5.29936,-0.24257 -18.91191,-0.840497 -30.2501,-1.328716 C 114.51426,98.649567 98.683353,97.949488 90.672687,97.582053 82.662005,97.214601 68.746957,96.611559 59.750333,96.241923 50.753726,95.872303 41.657897,95.45153 39.537351,95.306897 l -3.8555,-0.262978 -0.276411,2.333828 c -0.152102,1.283609 -0.169735,2.506427 -0.0393,2.717393 0.130423,0.21096 1.705804,0.38357 3.500955,0.38357 1.795135,0 10.00118,0.30216 18.235647,0.67146 8.234467,0.3693 24.147633,1.07322 35.362586,1.56427 11.214952,0.49105 27.247522,1.20075 35.627912,1.57711 8.3804,0.37636 28.74882,1.28237 45.26313,2.01334 16.51433,0.73099 32.34521,1.43812 35.17976,1.57139 2.83455,0.1333 14.53126,0.64145 25.9927,1.12927 11.46143,0.48781 21.94814,0.94988 23.30378,1.02679 1.35567,0.0769 4.33026,0.17717 6.61022,0.22277 l 4.14538,0.0828 z m -0.84707,-10.581759 c -1.01379,-0.820915 -0.20275,-0.766764 -32.98824,-2.202628 -11.09171,-0.485763 -26.82176,-1.186266 -34.95569,-1.556648 -8.13392,-0.370382 -24.36815,-1.077677 -36.07605,-1.571756 -11.70792,-0.49408 -30.36215,-1.301004 -41.45387,-1.79317 C 111.17563,89.67586 95.042235,88.967854 86.41535,88.594694 77.788465,88.221517 64.27676,87.617307 56.389318,87.252006 37.613232,86.382378 37.546666,86.383157 36.446648,87.483158 35.909919,88.019888 35.550343,88.977 35.550343,89.868953 v 1.489472 l 12.21209,0.545639 c 6.71664,0.300106 19.169604,0.83687 27.673249,1.192804 8.503645,0.355951 19.897852,0.850132 25.320468,1.098188 5.42262,0.248057 19.136,0.85369 30.4742,1.345822 11.33819,0.492149 27.16907,1.20378 35.17975,1.581411 16.95077,0.799065 46.37437,2.085536 76.85769,3.360421 11.83116,0.49481 22.31786,0.94859 23.3038,1.0084 1.78867,0.10857 1.79292,0.10485 1.93555,-1.677076 0.10942,-1.366181 -0.0706,-1.958806 -0.76595,-2.521823 z m 89.13259,141.356739 c -2.57506,-0.14939 -29.0644,-1.19447 -49.0724,-1.93596 -6.40856,-0.23749 -13.56331,-0.55768 -15.8995,-0.71151 -4.16722,-0.27441 -4.27957,-0.31169 -5.93798,-1.9701 l -1.69039,-1.69039 v -5.56241 c 0,-3.05931 0.19722,-11.20015 0.43827,-18.09074 0.24104,-6.89059 0.85834,-26.84675 1.37177,-44.34699 1.96448,-66.960003 1.95093,-66.638775 2.87071,-68.029634 1.57909,-2.387844 2.86199,-2.697571 9.85814,-2.380036 3.46504,0.157184 18.09762,0.782398 32.51684,1.389166 14.41922,0.606785 28.53205,1.231947 31.36184,1.389267 l 5.14509,0.286031 1.6892,1.689205 1.68921,1.689201 -4.1e-4,4.4222 c -2.2e-4,2.4322 -0.19836,10.67387 -0.4403,18.31483 -0.5236,16.53641 -1.61932,56.53397 -2.41993,88.33703 -0.56027,22.25535 -0.60453,22.95224 -1.55553,24.49099 -1.1032,1.785 -3.72792,3.06663 -6.01239,2.93578 -0.79608,-0.0456 -2.55658,-0.14719 -3.91224,-0.22593 z"
       id="path7" /></g><metadata
     id="metadata182"><rdf:RDF><cc:Work
         rdf:about=""><cc:license
           rdf:resource="http://creativecommons.org/licenses/by-sa/4.0/" /><dc:publisher><cc:Agent><dc:title>OpenDataKerala.org</dc:title></cc:Agent></dc:publisher><dc:date>April 2026</dc:date><dc:title>Election Symbols of Kerala</dc:title><dc:creator><cc:Agent><dc:title>Manoj Karingamadathil</dc:title></cc:Agent></dc:creator></cc:Work><cc:License
         rdf:about="http://creativecommons.org/licenses/by-sa/4.0/"><cc:permits
           rdf:resource="http://creativecommons.org/ns#Reproduction" /><cc:permits
           rdf:resource="http://creativecommons.org/ns#Distribution" /><cc:requires
           rdf:resource="http://creativecommons.org/ns#Notice" /><cc:requires
           rdf:resource="http://creativecommons.org/ns#Attribution" /><cc:permits
           rdf:resource="http://creativecommons.org/ns#DerivativeWorks" /><cc:requires
           rdf:resource="http://creativecommons.org/ns#ShareAlike" /></cc:License></rdf:RDF></metadata></svg>
