<?xml version="1.0" encoding="UTF-8" standalone="no"?>
<!-- Created with Inkscape (http://www.inkscape.org/) -->

<svg
   width="1500"
   height="1500"
   viewBox="0 0 396.87499 396.875"
   version="1.1"
   id="svg5"
   xml:space="preserve"
   inkscape:version="1.3 (0e150ed6c4, 2023-07-21)"
   sodipodi:docname="Almirah.svg"
   inkscape:export-filename="Baby walker.png"
   inkscape:export-xdpi="96"
   inkscape:export-ydpi="96"
   xmlns:inkscape="http://www.inkscape.org/namespaces/inkscape"
   xmlns:sodipodi="http://sodipodi.sourceforge.net/DTD/sodipodi-0.dtd"
   xmlns="http://www.w3.org/2000/svg"
   xmlns:svg="http://www.w3.org/2000/svg"
   xmlns:rdf="http://www.w3.org/1999/02/22-rdf-syntax-ns#"
   xmlns:cc="http://creativecommons.org/ns#"
   xmlns:dc="http://purl.org/dc/elements/1.1/"><title
     id="title186">Election Symbols of Kerala</title><sodipodi:namedview
     id="namedview7"
     pagecolor="#ffffff"
     bordercolor="#000000"
     borderopacity="0.25"
     inkscape:showpageshadow="2"
     inkscape:pageopacity="0.0"
     inkscape:pagecheckerboard="0"
     inkscape:deskcolor="#d1d1d1"
     inkscape:document-units="mm"
     showgrid="false"
     inkscape:zoom="0.25"
     inkscape:cx="230"
     inkscape:cy="1082"
     inkscape:window-width="1920"
     inkscape:window-height="991"
     inkscape:window-x="-9"
     inkscape:window-y="-9"
     inkscape:window-maximized="1"
     inkscape:current-layer="layer1" /><defs
     id="defs2"><inkscape:path-effect
       effect="bspline"
       id="path-effect3248"
       is_visible="true"
       lpeversion="1"
       weight="33.333333"
       steps="2"
       helper_size="0"
       apply_no_weight="true"
       apply_with_weight="true"
       only_selected="false" /><inkscape:path-effect
       effect="bspline"
       id="path-effect577"
       is_visible="true"
       lpeversion="1"
       weight="33.333333"
       steps="2"
       helper_size="0"
       apply_no_weight="true"
       apply_with_weight="true"
       only_selected="false" /></defs><g
     inkscape:label="Layer 1"
     inkscape:groupmode="layer"
     id="layer1"><path
       style="fill:#000000;stroke-width:1.82475"
       d="m 242.33446,383.03233 c -2.78817,-0.36072 -7.56789,-0.9077 -10.6216,-1.21554 -9.41486,-0.94911 -10.13878,-1.7056 -10.13878,-10.59508 0,-3.19967 -0.16295,-5.81895 -0.36209,-5.82063 -0.42233,-0.004 -13.21832,-1.288 -33.67524,-3.3803 -7.96619,-0.81475 -18.93779,-1.91096 -24.38136,-2.43601 -5.44357,-0.52506 -12.72176,-1.26724 -16.17377,-1.64929 -3.45201,-0.38204 -10.08444,-1.04259 -14.73872,-1.46786 l -8.46233,-0.77322 -4.09045,2.26716 c -2.24974,1.24695 -7.50662,4.08341 -11.68194,6.30328 -8.612759,4.57907 -8.173337,4.49787 -17.996861,3.32563 -3.186474,-0.38024 -7.097148,-0.8455 -8.690385,-1.03392 -2.374098,-0.28078 -3.179922,-0.62472 -4.465893,-1.90621 l -1.569095,-1.56363 v -6.32467 -6.32467 l -2.293297,-0.002 c -4.993336,-0.005 -8.721811,-2.32751 -9.706605,-6.04409 -0.707998,-2.67199 -0.858217,-295.421895 -0.152512,-297.218146 0.841541,-2.142004 3.398596,-4.658192 5.53642,-5.447963 1.11617,-0.412321 9.524856,-2.150088 18.685971,-3.861688 14.139557,-2.641731 43.205177,-8.179838 66.143477,-12.602856 3.31924,-0.640014 7.88171,-1.511206 10.13878,-1.935972 2.2571,-0.424766 10.94748,-2.081732 19.31198,-3.682168 8.36449,-1.600418 18.46707,-3.523908 22.45015,-4.274393 3.98309,-0.750484 15.93237,-3.046424 26.55395,-5.102081 10.62159,-2.0556567 20.5069,-3.7369657 21.96736,-3.7362367 2.17817,0.0011 8.38211,1.924202 34.52016,10.7007707 17.5256,5.8847 32.84046,11.199785 34.03303,11.811296 2.76123,1.415917 4.68974,4.44716 5.29266,8.319066 0.24654,1.583284 0.68246,34.381336 0.9687,72.884571 0.58143,78.20886 0.86291,111.06159 1.22246,142.66714 0.13449,11.81652 0.29891,34.52015 0.36554,50.45252 l 0.12116,28.96795 -1.27928,2.16553 c -0.99571,1.6855 -2.06588,2.59817 -4.82799,4.11739 l -3.54872,1.95188 -0.2414,5.29719 c -0.38832,8.52135 1.87775,6.84948 -26.33633,19.43042 -23.55912,10.50523 -30.89443,13.75214 -37.51306,16.60483 -4.02065,1.73291 -7.56435,2.01236 -14.36409,1.1327 z m 8.77658,-7.97222 c 0.0474,-2.38984 0.10183,-4.83402 0.1208,-5.43148 0.0308,-0.97272 -0.26838,-1.12277 -2.8623,-1.43519 -4.92047,-0.5926 -21.41153,-2.3065 -22.19323,-2.3065 -1.11671,0 -1.08502,9.73398 0.0347,10.66329 0.79165,0.65702 16.76506,2.68355 22.03779,2.79592 l 2.77611,0.0591 z M 98.077451,358.66444 c -0.07779,-3.043 -0.186427,-5.57548 -0.241398,-5.62776 -0.07976,-0.0759 -11.803434,-1.28103 -17.20816,-1.76895 l -1.175842,-0.1062 0.124649,5.31079 c 0.06856,2.92094 0.271794,5.45501 0.451643,5.63128 0.363255,0.35603 15.698526,2.2864 17.22497,2.16825 0.914044,-0.0708 0.958046,-0.37014 0.824146,-5.60745 z m 158.564689,4.53549 c 0.75667,-1.15485 0.78994,-8.82087 0.49187,-113.33711 -0.53072,-186.088233 -0.82078,-236.043323 -1.37908,-237.511701 -0.28775,-0.756835 -0.99869,-1.457211 -1.64343,-1.619031 -1.13034,-0.283694 -8.11962,0.919019 -32.53742,5.59909 -7.03679,1.348712 -16.70485,3.193391 -21.48454,4.099289 -4.77972,0.905899 -18.46708,3.518525 -30.41635,5.805834 -11.94929,2.28731 -26.28843,5.018746 -31.86475,6.069858 -5.57634,1.051113 -12.20275,2.332545 -14.72538,2.847618 -2.52262,0.515073 -9.25767,1.803422 -14.96677,2.862983 -26.658607,4.947634 -38.187404,7.299595 -39.275366,8.012453 -0.650165,0.426006 -1.436259,1.388107 -1.746876,2.138008 -0.428083,1.033485 -0.52753,36.947084 -0.410923,148.398369 l 0.153826,147.03493 1.105711,1.17691 c 1.282197,1.36475 1.294615,1.36654 27.862238,4.0059 58.49945,5.8116 71.5537,7.12562 88.59364,8.91778 7.30235,0.76802 22.18463,2.27534 33.07174,3.34963 10.88712,1.07427 22.72777,2.25023 26.31256,2.61321 3.58478,0.363 7.76202,0.68578 9.28275,0.71729 2.46681,0.0511 2.85247,-0.0763 3.57654,-1.18131 z m -23.72228,-7.95077 c -6.90402,-0.73576 -20.37411,-2.13438 -29.93353,-3.10803 -9.55942,-0.97367 -23.68131,-2.41267 -31.38195,-3.19781 -7.70064,-0.78513 -19.21541,-1.95841 -25.58836,-2.6073 -6.37296,-0.64888 -17.01867,-1.73749 -23.65716,-2.41914 -29.843733,-3.0644 -35.634152,-3.64467 -41.654707,-4.17433 -3.525703,-0.31017 -6.784597,-0.83758 -7.241986,-1.17202 C 72.679065,337.99794 72.621146,329.58352 72.46935,194.33618 72.313407,55.388899 72.337001,50.701182 73.193549,50.443144 c 0.486968,-0.14671 8.054966,-1.590309 16.81777,-3.208025 8.762805,-1.617717 21.037971,-3.893439 27.278151,-5.057157 6.24018,-1.163736 16.34275,-3.011553 22.45016,-4.106296 6.10741,-1.094724 14.36327,-2.62445 18.34638,-3.399405 3.98309,-0.774936 12.23894,-2.294298 18.34636,-3.37634 6.10741,-1.08206 15.5582,-2.808732 21.00177,-3.837053 20.08813,-3.794793 50.75827,-9.283887 50.92755,-9.114604 0.096,0.09598 0.3167,38.954093 0.49044,86.351276 0.17371,47.39719 0.39891,86.44301 0.50044,86.76849 0.32602,1.0453 0.32425,164.21389 -0.002,164.74148 -0.42147,0.68193 -1.8245,0.60025 -16.43092,-0.95635 z m 14.0519,-11.69169 c -0.15602,-5.37716 -0.40514,-54.53215 -0.55362,-109.2333 -0.25041,-92.25161 -0.98049,-212.14475 -1.29376,-212.458024 -0.0745,-0.07445 -1.22142,0.07062 -2.54891,0.322397 -5.73644,1.087809 -38.55286,7.107303 -60.34951,11.069845 -13.01144,2.365445 -24.15813,4.469221 -24.77044,4.675053 l -1.11328,0.374275 0.10638,110.802404 c 0.0586,60.94132 0.16368,112.43185 0.23353,114.4234 0.0699,1.99154 0.1427,21.05608 0.16204,42.36562 l 0.0348,38.74464 h 1.45205 c 0.79862,0 6.61031,0.53561 12.91487,1.19024 6.30456,0.65463 14.83037,1.52921 18.94623,1.94352 8.64049,0.86977 26.55869,2.73613 41.52071,4.32481 5.7091,0.6062 11.54173,1.13135 12.96136,1.167 l 2.58117,0.0648 z M 164.4831,205.55895 c -0.74516,-0.43401 -0.84492,-1.34573 -0.84492,-7.72219 v -7.23005 l 1.4484,-0.28968 c 1.31032,-0.26207 1.4484,-0.46805 1.4484,-2.16052 0,-1.29954 -0.21061,-1.87085 -0.6897,-1.87085 -1.81118,0 -2.2071,-1.33512 -2.2071,-7.44306 0,-5.04128 0.12664,-6.04033 0.84903,-6.69401 1.53262,-1.38702 27.93112,-2.4973 28.33676,-1.1918 0.1031,0.33192 0.32353,3.36358 0.48977,6.73704 0.39385,7.992 0.30459,8.10902 -6.18562,8.10902 -2.48183,0 -6.50114,0.14123 -8.93178,0.31369 l -4.41937,0.31371 v 1.6175 c 0,1.36596 0.17262,1.6175 1.11045,1.6175 2.06854,0 2.26915,0.73523 2.26915,8.31609 v 7.15737 l -1.23842,0.47086 c -1.62781,0.61889 -10.35188,0.58027 -11.43505,-0.0505 z m 10.74226,-7.65697 v -5.76445 l -1.81048,-0.14981 -1.8105,-0.14981 -0.13959,-3.94919 -0.1396,-3.94918 1.34667,-0.15456 c 0.96971,-0.11131 1.38988,-0.45869 1.50097,-1.24089 0.13722,-0.96633 -0.0526,-1.08631 -1.71823,-1.08631 -3.37827,0 -3.88882,0.91988 -3.95237,7.1213 l -0.036,3.5003 h -1.4484 -1.4484 v 5.79359 5.79359 h 4.82799 4.828 z m -6.27638,1.87032 c 0,-1.07962 -0.22224,-2.3782 -0.49387,-2.88574 -0.38478,-0.71899 -0.27816,-1.1385 0.48281,-1.89946 1.17542,-1.17543 1.63635,-1.2136 2.63197,-0.21798 0.86331,0.86332 0.98807,1.93936 0.27589,2.37951 -0.26554,0.16405 -0.4828,1.26324 -0.4828,2.44249 0,1.96518 -0.10072,2.1441 -1.207,2.1441 -1.08956,0 -1.207,-0.191 -1.207,-1.96292 z m -0.84997,-19.5 c 0.72342,-0.50672 2.19131,-0.74584 4.5784,-0.74584 h 3.51356 v 2.17261 2.17259 l 2.7761,-0.002 c 1.52685,-0.001 4.89438,-0.14269 7.48339,-0.31422 l 4.70728,-0.3117 v -5.54577 -5.54578 l -3.98309,0.30058 c -2.19071,0.16532 -7.83945,0.44504 -12.55277,0.62156 l -8.56969,0.32098 0.0436,5.35913 c 0.0336,4.13507 0.1458,5.00566 0.491,3.81166 0.24611,-0.85111 0.92663,-1.88309 1.51228,-2.2933 z m -14.45452,122.48864 c -0.0954,-22.77001 -0.22136,-91.47836 -0.27996,-152.68522 -0.1062,-110.963269 -0.1093,-111.284937 -1.07211,-111.18952 -1.17972,0.116966 -29.03596,5.179214 -44.90033,8.159728 -6.37295,1.19733 -15.606483,2.931028 -20.518966,3.852692 -4.912481,0.921646 -9.554435,1.801743 -10.315453,1.955752 l -1.38367,0.280027 0.240758,141.122601 c 0.132422,77.61743 0.367985,141.32846 0.523481,141.58005 0.155505,0.2516 1.864737,0.58372 3.798307,0.73806 1.933572,0.15437 14.269935,1.38771 27.414143,2.74082 13.14421,1.3531 28.24375,2.89369 33.55455,3.42349 5.31078,0.52981 9.98187,1.0412 10.38018,1.13642 0.3983,0.0953 1.17605,0.19833 1.72835,0.22913 l 1.00414,0.056 z m 114.11885,57.05592 c 3.14142,-1.47977 10.27412,-4.76651 15.85044,-7.30387 17.24373,-7.8463 27.87833,-12.70082 30.89916,-14.10492 l 2.89679,-1.34644 -9.89738,-3.20905 c -9.3633,-3.03586 -12.22774,-4.15051 -10.71158,-4.16819 0.96185,-0.011 11.6189,2.2334 18.61818,3.92141 5.75393,1.38765 6.32908,1.44593 7.72479,0.78282 1.50683,-0.71592 1.49953,-0.71923 -9.59641,-4.35143 -23.16105,-7.58167 -22.50878,-7.76106 4.82799,-1.3278 3.45201,0.81236 6.65659,1.59432 7.1213,1.73765 0.64381,0.19861 0.84489,-0.0182 0.84489,-0.90858 0,-1.04146 -0.40879,-1.28988 -3.74169,-2.27389 -4.43688,-1.30998 -20.03359,-6.46361 -23.69047,-7.82807 -5.9905,-2.23519 -1.23592,-1.449 15.44573,2.55402 6.55166,1.57217 12.03747,2.85849 12.19068,2.85849 0.15328,0 0.27855,-0.41807 0.27855,-0.92905 0,-0.78866 -1.91526,-1.55166 -12.67348,-5.04882 -12.8337,-4.17182 -19.14631,-6.51732 -17.64068,-6.55449 0.45452,-0.0109 6.86368,1.41661 14.24257,3.17297 7.3789,1.75636 13.92393,3.30612 14.54451,3.44391 0.95766,0.21264 1.10368,0.0825 0.96558,-0.86085 -0.14671,-1.00186 -1.6304,-1.59996 -15.06114,-6.07121 -8.19415,-2.72791 -15.01972,-5.08111 -15.16795,-5.22934 -0.81968,-0.81967 4.46105,0.27198 19.82275,4.09789 5.28196,1.3155 9.81702,2.39181 10.07789,2.39181 0.26086,0 0.40487,-0.45989 0.32002,-1.02199 -0.13302,-0.88101 -1.91942,-1.60448 -12.94844,-5.24397 -13.13853,-4.3356 -17.08458,-5.77836 -16.74178,-6.12114 0.24205,-0.24205 10.51523,2.04555 20.84557,4.64185 4.24863,1.06779 7.99636,1.94374 8.32828,1.94655 0.33193,0.004 0.6035,-0.40053 0.6035,-0.8963 0,-0.75092 -2.19638,-1.63182 -13.15628,-5.27658 -22.13323,-7.36051 -22.59055,-8.12745 -1.77709,-2.98021 7.54951,1.86702 13.99795,3.48964 14.32987,3.60584 0.37501,0.1312 0.6035,-0.23218 0.6035,-0.96004 0,-1.10988 -0.78188,-1.42567 -14.90914,-6.02162 -8.20004,-2.66768 -15.16052,-5.1532 -15.46775,-5.5234 -0.47767,-0.57557 -0.15383,-0.5756 2.23567,-2e-4 18.44651,4.44197 26.59363,6.44918 27.29633,6.72496 0.6709,0.26331 0.84489,0.0772 0.84489,-0.90373 0,-1.19249 -0.51301,-1.40406 -14.79484,-6.10153 -20.05855,-6.59751 -21.19884,-7.34418 -5.6029,-3.66887 4.97858,1.17324 11.6172,2.78205 14.75249,3.57511 l 5.70053,1.44194 -0.14836,-1.1989 c -0.13868,-1.12005 -1.09224,-1.51196 -14.50213,-5.95981 -7.89459,-2.6185 -14.73827,-4.99672 -15.20818,-5.28494 -1.62918,-0.99927 3.70514,0.0334 16.42392,3.17941 6.84768,1.69379 12.67448,3.07962 12.94847,3.07962 0.27397,0 0.42871,-0.46642 0.34385,-1.0365 -0.13411,-0.90095 -1.98511,-1.64974 -14.15544,-5.72625 -15.46657,-5.18062 -16.90139,-5.70613 -16.54701,-6.06052 0.31516,-0.31515 6.35551,1.03871 19.45232,4.35994 5.79026,1.46836 10.70988,2.66974 10.9325,2.66974 0.22262,0 0.40477,-0.49173 0.40477,-1.09275 0,-1.00238 -1.12819,-1.46778 -13.63908,-5.62641 -22.24055,-7.39278 -22.74972,-8.14973 -1.98256,-2.94723 7.39696,1.85305 13.93786,3.50783 14.53532,3.6773 0.92171,0.26143 1.08632,0.1228 1.08632,-0.9147 0,-1.17563 -0.58006,-1.41515 -15.03496,-6.20861 -14.23238,-4.71967 -19.01298,-6.60827 -14.8986,-5.88578 0.92938,0.16314 7.69599,1.78122 15.03686,3.59561 7.34089,1.81437 13.64141,3.36075 14.00118,3.43643 0.40183,0.0845 0.65412,-0.29439 0.65412,-0.98241 0,-1.03902 -1.06441,-1.47692 -14.72539,-6.058 -12.93799,-4.33864 -17.48412,-6.03289 -16.32603,-6.08433 0.80649,-0.0358 8.27259,1.68735 18.8335,4.34674 6.29158,1.58431 11.56013,2.88058 11.70788,2.88058 0.14781,0 0.26863,-0.51852 0.26863,-1.15226 0,-1.07436 -0.75881,-1.40468 -11.22508,-4.88634 -14.8309,-4.93361 -19.19127,-6.524 -19.19127,-6.99983 0,-0.4564 1.24875,-0.17755 18.01372,4.0234 l 12.45711,3.12144 -0.14799,-1.23227 c -0.13959,-1.1625 -0.94536,-1.49937 -14.23028,-5.94886 -7.74529,-2.59413 -14.69759,-5.06092 -15.44958,-5.48178 l -1.36723,-0.76519 1.84912,0.30723 c 1.017,0.16898 8.03374,1.86452 15.59275,3.76784 l 13.74363,3.46063 -0.14324,-1.18322 c -0.13303,-1.09991 -1.18868,-1.53323 -14.99066,-6.15378 -20.38683,-6.825 -21.24853,-7.41054 -5.28545,-3.59165 5.49678,1.31503 12.05812,2.94391 14.58073,3.61978 5.59407,1.49877 5.79574,1.50382 5.78507,0.14507 -0.007,-0.99379 -1.12807,-1.45071 -13.15627,-5.36596 -14.61724,-4.75797 -18.38492,-6.09369 -18.07184,-6.40676 0.26006,-0.26006 15.15618,3.10111 23.87636,5.38751 3.51973,0.92287 6.61568,1.67793 6.8799,1.67793 0.26421,0 0.48037,-0.4916 0.48037,-1.09244 0,-1.00345 -1.16985,-1.48051 -14.36327,-5.85718 -21.8888,-7.26122 -22.14037,-7.89178 -1.07449,-2.69341 7.56138,1.8659 14.12817,3.50999 14.59286,3.65352 0.64633,0.19965 0.8449,-0.0183 0.8449,-0.92602 0,-1.35368 -1.30204,-1.87027 -20.27757,-8.04532 -10.56258,-3.43731 -13.59328,-4.69932 -9.89737,-4.12139 1.06216,0.16605 8.06716,1.8118 15.5667,3.65713 7.49953,1.84532 13.86949,3.35512 14.15544,3.35512 0.28598,0 0.45053,-0.48883 0.36568,-1.08629 -0.11386,-0.80196 -0.72295,-1.27983 -2.32687,-1.82567 -1.19494,-0.40664 -8.25587,-2.78973 -15.69097,-5.29576 -7.4351,-2.50602 -13.16485,-4.62826 -12.73276,-4.71611 0.43208,-0.0878 3.47372,0.49174 6.75919,1.28793 13.96186,3.38355 21.97561,5.35021 22.99223,5.64256 0.91025,0.26176 1.0863,0.12572 1.0863,-0.83933 0,-1.08179 -0.95559,-1.47355 -15.74152,-6.45341 -8.65785,-2.91592 -15.42046,-5.36661 -15.02805,-5.44599 0.87247,-0.17645 12.92692,2.54726 22.98136,5.19266 4.08098,1.07372 7.51792,1.95223 7.63767,1.95223 0.1197,0 0.14835,-0.48883 0.0635,-1.08629 -0.13741,-0.96728 -1.79405,-1.64341 -15.12105,-6.17126 -14.64078,-4.9742 -18.92021,-6.66305 -15.20819,-6.00179 1.45982,0.26004 26.23029,6.40283 29.37246,7.28403 0.97641,0.27382 1.10672,0.16441 0.96561,-0.81125 -0.14799,-1.02373 -1.52493,-1.58009 -14.92305,-6.03019 -8.11798,-2.69633 -15.17891,-5.16631 -15.69098,-5.48886 -1.8621,-1.17288 3.45452,-0.10364 16.53398,3.32509 7.11946,1.86633 13.21758,3.39334 13.5514,3.39334 0.33382,0 0.60693,-0.424 0.60693,-0.94225 0,-0.80077 -1.57671,-1.45571 -10.50087,-4.36188 -13.1698,-4.28876 -21.80647,-7.43916 -20.87371,-7.61408 0.39426,-0.0739 7.50621,1.58215 15.80431,3.68022 14.53755,3.67562 15.08748,3.77707 15.08748,2.78364 0,-0.92416 -1.56349,-1.54907 -15.08748,-6.0303 -8.2981,-2.74961 -15.30473,-5.2087 -15.57027,-5.46466 -0.56209,-0.5418 -1.18178,-0.66503 11.39527,2.26571 5.20524,1.21293 11.68074,2.8232 14.39,3.57836 l 4.92594,1.37303 -0.14744,-1.23514 c -0.11897,-0.99659 -0.56708,-1.36499 -2.32002,-1.90734 -7.79371,-2.41132 -27.486,-9.05205 -28.48514,-9.60592 -1.15334,-0.63932 -1.12115,-0.6559 0.72419,-0.37303 2.14764,0.3292 27.97276,6.68564 29.37253,7.22956 0.72921,0.28337 0.85829,0.14124 0.72421,-0.7974 -0.14908,-1.04348 -1.4371,-1.56363 -14.8959,-6.01552 -8.10298,-2.6803 -15.16391,-5.12326 -15.69095,-5.42882 -0.93833,-0.54399 -0.93667,-0.55587 0.0799,-0.57023 0.57096,-0.007 7.58491,1.61476 15.58656,3.60631 8.00165,1.99154 14.66485,3.62099 14.80712,3.62099 0.14233,0 0.18927,-0.47761 0.10438,-1.06137 -0.13613,-0.93665 -1.8846,-1.63635 -14.87965,-5.95453 -8.09897,-2.69126 -15.26853,-5.14752 -15.93238,-5.45835 -1.06522,-0.49878 -0.95177,-0.53303 0.96559,-0.29145 2.30107,0.2899 21.1498,4.84371 26.70425,6.45169 l 3.2885,0.95199 -0.15036,-1.26485 c -0.10255,-0.86294 -0.53381,-1.37843 -1.35729,-1.62228 -4.75321,-1.40757 -28.48187,-9.38317 -29.45074,-9.8989 -1.16299,-0.61904 -1.16837,-0.64317 -0.14726,-0.6618 0.58286,-0.0109 7.80675,1.6916 16.05308,3.78271 14.62446,3.7085 14.99332,3.77587 14.99332,2.73856 0,-0.94816 -0.8507,-1.33917 -7.84549,-3.60604 -10.82998,-3.50977 -21.60828,-7.27449 -23.05365,-8.05235 -1.17334,-0.63145 -1.15987,-0.64174 0.48279,-0.36898 1.91439,0.31787 15.79433,3.73491 24.13997,5.94289 3.0537,0.80791 5.71512,1.47032 5.91428,1.47201 0.19915,0.002 0.3621,-0.41451 0.3621,-0.92487 0,-0.7885 -2.23104,-1.6681 -14.84608,-5.85323 -14.08994,-4.67443 -18.12275,-6.19136 -16.57618,-6.23507 1.00149,-0.0283 28.77343,6.79232 30.75887,7.55419 0.56961,0.21858 0.70939,0.011 0.58518,-0.86707 -0.14945,-1.05686 -1.42738,-1.58206 -15.14384,-6.22365 -8.23936,-2.78817 -15.6262,-5.34129 -16.41517,-5.67363 -1.42033,-0.59824 -1.4154,-0.60153 0.49668,-0.33345 1.55996,0.21871 25.44729,6.08179 29.57143,7.25822 0.90979,0.25952 1.08632,0.12244 1.08632,-0.84307 0,-1.06575 -0.64799,-1.36698 -8.5697,-3.98374 -14.5999,-4.82279 -22.61241,-7.75216 -21.60526,-7.89887 0.73624,-0.10729 22.11763,4.99302 29.08864,6.93875 0.92371,0.25782 1.08632,0.11715 1.08632,-0.9394 0,-1.18244 -0.40335,-1.37356 -8.3283,-3.94641 -9.57804,-3.10952 -21.34043,-7.26826 -22.5018,-7.95581 -1.38042,-0.81722 1.93769,-0.0763 16.41292,3.665 7.60464,1.96549 13.95947,3.57363 14.12189,3.57363 0.16241,0 0.29529,-0.49159 0.29529,-1.09244 0,-1.00316 -1.17359,-1.48278 -14.36329,-5.86983 -15.13176,-5.033 -17.7466,-5.98911 -17.38059,-6.35512 0.1239,-0.1239 7.19046,1.5183 15.70353,3.64928 8.51306,2.13099 15.60474,3.87452 15.75932,3.87452 0.15455,0 0.28103,-0.52507 0.28103,-1.1668 0,-1.10161 -0.8566,-1.45362 -15.32888,-6.2994 -14.95542,-5.00752 -19.69388,-6.75627 -17.01868,-6.28078 4.53823,0.80663 25.51725,5.97844 31.50266,7.76611 0.66456,0.19848 0.84473,-0.0379 0.84411,-1.10789 -7.7e-4,-1.35503 -0.0562,-1.3786 -14.50521,-6.15794 -14.19443,-4.69515 -18.82052,-6.43049 -17.35189,-6.50899 0.40209,-0.0215 7.24577,1.61394 15.20818,3.63431 7.9624,2.02036 14.96593,3.78377 15.56339,3.91867 0.91227,0.206 1.08632,0.0429 1.08632,-1.01799 0,-0.69481 -0.0745,-1.26328 -0.16533,-1.26328 -0.56817,0 -30.71991,-10.37248 -31.69935,-10.90487 -1.17767,-0.64015 -1.16594,-0.64946 0.4828,-0.38356 1.63587,0.26384 20.89639,5.04386 27.76095,6.88961 3.35876,0.90313 3.38059,0.90278 3.54117,-0.0573 0.0889,-0.53131 -0.025,-1.15262 -0.2531,-1.38069 -0.22807,-0.22808 -6.81857,-2.57559 -14.64555,-5.21672 -7.82699,-2.64111 -14.99128,-5.15482 -15.92068,-5.586 l -1.68979,-0.78397 1.9312,0.29542 c 1.83598,0.28087 24.67875,5.92182 28.24055,6.97392 2.36705,0.69919 2.50015,0.65496 2.32857,-0.77388 -0.14561,-1.2131 -0.82415,-1.50086 -14.63674,-6.20814 -7.9662,-2.714827 -15.35302,-5.294937 -16.41519,-5.733547 l -1.93119,-0.79751 1.93119,0.27304 c 1.06217,0.15017 8.19411,1.89051 15.84878,3.867427 7.65468,1.97694 14.22678,3.59442 14.60467,3.59442 0.3779,0 0.68711,-0.40823 0.68711,-0.90718 0,-0.76006 -2.48094,-1.74393 -15.29855,-6.066917 -14.09742,-4.754646 -18.63932,-6.475005 -17.22634,-6.524948 0.90986,-0.03212 15.83353,3.648393 24.28785,5.990008 4.36519,1.20903 8.0194,2.19824 8.12046,2.19824 0.10109,0 0.11422,-0.48883 0.0294,-1.08629 -0.13631,-0.95968 -1.44279,-1.51685 -11.20774,-4.779705 -25.98559,-8.682849 -27.85076,-9.939647 -6.67699,-4.499147 5.76867,1.482229 11.46615,2.99327 12.66107,3.357874 1.19492,0.364586 2.89657,0.808019 3.78145,0.985385 1.46391,0.293438 1.59438,0.226141 1.4484,-0.746963 -0.1416,-0.944236 -1.94156,-1.674156 -15.37234,-6.234031 -14.27161,-4.84532 -17.98427,-6.259212 -16.52819,-6.294393 0.91349,-0.02208 9.6825,2.096969 20.95179,5.063069 5.53138,1.45586 10.18236,2.647022 10.33555,2.647022 0.1531,0 0.20906,-0.468322 0.12427,-1.040711 -0.13467,-0.908198 -2.03895,-1.671711 -14.95666,-5.996667 -13.71731,-4.592684 -18.48398,-6.413495 -16.91572,-6.461668 0.57217,-0.01825 26.6809,6.560734 30.3904,7.6571 1.45196,0.429127 1.56909,0.380315 1.56909,-0.653955 0,-1.035437 -1.03943,-1.464875 -14.12187,-5.834209 -13.63127,-4.552649 -18.22567,-6.234541 -18.22567,-6.671971 0,-0.114047 0.81473,-0.0239 1.8105,0.200011 6.5122,1.464802 11.38454,2.682149 20.13723,5.031245 5.46431,1.466554 10.03968,2.666456 10.16746,2.666456 0.12774,0 0.22786,-0.488833 0.22235,-1.086311 -0.009,-0.990275 -1.08671,-1.440533 -12.19068,-5.093907 -26.86011,-8.837369 -26.79854,-9.522163 0.22222,-2.471701 6.02498,1.572079 11.18489,2.858329 11.46649,2.858329 0.28158,0 0.51197,-0.416481 0.51197,-0.925514 0,-0.769699 -1.40189,-1.390024 -8.32828,-3.68518 -12.43,-4.11885 -24.68962,-8.456452 -25.15196,-8.899082 -0.22466,-0.215084 0.86163,-0.115872 2.41401,0.220375 4.73592,1.025949 25.87926,6.474625 30.22133,7.7881 0.64056,0.193752 0.8449,-0.0239 0.8449,-0.900205 0,-1.082772 -0.77008,-1.409129 -12.19068,-5.166368 -13.27201,-4.366342 -24.16327,-8.243814 -23.89872,-8.508366 0.37331,-0.373308 15.53354,3.384168 30.3861,7.531192 2.83782,0.792363 5.282,1.440661 5.43148,1.440661 0.14945,0 0.27182,-0.519507 0.27182,-1.154485 0,-1.274553 1.05699,-0.844039 -19.55336,-7.964005 -14.53425,-5.020954 -17.27928,-6.043053 -16.72543,-6.227663 0.6496,-0.216525 11.99195,2.619305 24.93302,6.233794 5.57632,1.557481 10.42546,2.832728 10.77586,2.833877 0.37758,0.0012 0.57423,-0.418744 0.4828,-1.031131 -0.13449,-0.900899 -2.47324,-1.82249 -18.25925,-7.195165 -20.39103,-6.939972 -22.27715,-7.622029 -21.2103,-7.669965 0.86898,-0.03905 13.17854,3.06491 27.24529,6.870122 13.5805,3.673665 12.31137,3.459585 12.31137,2.076769 0,-1.369313 1.25109,-0.845116 -16.89796,-7.080132 -24.72049,-8.492619 -27.67024,-9.572088 -26.26279,-9.610882 1.05312,-0.02901 39.1787,10.347316 42.11294,11.461546 0.45787,0.173899 0.59633,-0.136126 0.48279,-1.081166 -0.15382,-1.280593 -0.66041,-1.49929 -15.12594,-6.530079 -20.68226,-7.19281 -27.44923,-9.646902 -27.94083,-10.132925 -0.64186,-0.634539 18.28701,4.424241 36.8578,9.850344 2.24893,0.657112 4.18353,1.100198 4.2991,0.984619 0.1155,-0.115507 -0.85543,-0.683608 -2.15779,-1.26231 -2.59068,-1.151181 -59.23473,-20.225688 -59.4433,-20.017118 -0.0708,0.0708 0.0801,47.692086 0.33525,105.825227 0.25512,58.13315 0.50224,136.92771 0.54916,175.09902 0.0469,38.1713 0.25353,69.40238 0.45912,69.40238 0.2056,0 2.94406,-1.21073 6.08548,-2.69049 z"
       id="path10" /></g><metadata
     id="metadata182"><rdf:RDF><cc:Work
         rdf:about=""><cc:license
           rdf:resource="http://creativecommons.org/licenses/by-sa/4.0/" /><dc:publisher><cc:Agent><dc:title>OpenDataKerala.org</dc:title></cc:Agent></dc:publisher><dc:date>April 2026</dc:date><dc:title>Election Symbols of Kerala</dc:title><dc:creator><cc:Agent><dc:title>Manoj Karingamadathil</dc:title></cc:Agent></dc:creator></cc:Work><cc:License
         rdf:about="http://creativecommons.org/licenses/by-sa/4.0/"><cc:permits
           rdf:resource="http://creativecommons.org/ns#Reproduction" /><cc:permits
           rdf:resource="http://creativecommons.org/ns#Distribution" /><cc:requires
           rdf:resource="http://creativecommons.org/ns#Notice" /><cc:requires
           rdf:resource="http://creativecommons.org/ns#Attribution" /><cc:permits
           rdf:resource="http://creativecommons.org/ns#DerivativeWorks" /><cc:requires
           rdf:resource="http://creativecommons.org/ns#ShareAlike" /></cc:License></rdf:RDF></metadata></svg>
