<?xml version="1.0" encoding="UTF-8" standalone="no"?>
<!-- Created with Inkscape (http://www.inkscape.org/) -->

<svg
   width="1500"
   height="1500"
   viewBox="0 0 396.87499 396.875"
   version="1.1"
   id="svg5"
   xml:space="preserve"
   inkscape:version="1.3 (0e150ed6c4, 2023-07-21)"
   sodipodi:docname="Balloon.svg"
   inkscape:export-filename="Bangles.png"
   inkscape:export-xdpi="96"
   inkscape:export-ydpi="96"
   xmlns:inkscape="http://www.inkscape.org/namespaces/inkscape"
   xmlns:sodipodi="http://sodipodi.sourceforge.net/DTD/sodipodi-0.dtd"
   xmlns="http://www.w3.org/2000/svg"
   xmlns:svg="http://www.w3.org/2000/svg"
   xmlns:rdf="http://www.w3.org/1999/02/22-rdf-syntax-ns#"
   xmlns:cc="http://creativecommons.org/ns#"
   xmlns:dc="http://purl.org/dc/elements/1.1/"><title
     id="title186">Election Symbols of Kerala</title><sodipodi:namedview
     id="namedview7"
     pagecolor="#ffffff"
     bordercolor="#000000"
     borderopacity="0.25"
     inkscape:showpageshadow="2"
     inkscape:pageopacity="0.0"
     inkscape:pagecheckerboard="0"
     inkscape:deskcolor="#d1d1d1"
     inkscape:document-units="mm"
     showgrid="false"
     inkscape:zoom="0.25"
     inkscape:cx="230"
     inkscape:cy="1082"
     inkscape:window-width="1920"
     inkscape:window-height="991"
     inkscape:window-x="-9"
     inkscape:window-y="-9"
     inkscape:window-maximized="1"
     inkscape:current-layer="layer1" /><defs
     id="defs2"><inkscape:path-effect
       effect="bspline"
       id="path-effect3248"
       is_visible="true"
       lpeversion="1"
       weight="33.333333"
       steps="2"
       helper_size="0"
       apply_no_weight="true"
       apply_with_weight="true"
       only_selected="false" /><inkscape:path-effect
       effect="bspline"
       id="path-effect577"
       is_visible="true"
       lpeversion="1"
       weight="33.333333"
       steps="2"
       helper_size="0"
       apply_no_weight="true"
       apply_with_weight="true"
       only_selected="false" /></defs><g
     inkscape:label="Layer 1"
     inkscape:groupmode="layer"
     id="layer1"><path
       style="fill:#000000;stroke-width:1.57662"
       d="m 344.5574,392.71424 c -5.68744,-1.37465 -7.01259,-2.00491 -9.12003,-4.33758 -1.98542,-2.19763 -2.35151,-3.20737 -2.35151,-6.48589 0,-4.29933 1.89871,-8.11206 7.4442,-14.94839 7.73173,-9.53148 9.15886,-15.34409 4.59303,-18.70714 -2.4698,-1.81917 -4.02763,-2.2093 -8.70006,-2.17875 -6.57986,0.043 -14.97155,2.35792 -29.85153,8.23473 -14.51371,5.73214 -24.89173,7.5404 -34.02158,5.92786 -9.89874,-1.74833 -16.06727,-6.81618 -16.55823,-13.60363 -0.40208,-5.55868 3.34494,-11.53531 11.6021,-18.50573 4.64221,-3.91879 12.98242,-9.81155 22.39124,-15.82045 20.3525,-12.99802 27.11638,-18.99402 28.66145,-25.40763 0.42353,-1.75805 -0.4514,-4.32624 -2.0928,-6.14308 -2.7806,-3.0778 -9.70021,-4.80661 -17.67387,-4.41569 -14.18881,0.69565 -33.56465,6.57154 -59.02629,17.90023 -4.35918,1.93954 -12.37324,5.50987 -17.80901,7.93407 -12.42129,5.53954 -19.61373,8.2293 -25.99142,9.72004 -4.48268,1.04779 -5.76856,1.16971 -12.30582,1.16684 -6.81658,-0.003 -7.52326,-0.0779 -10.66995,-1.1297 -10.72972,-3.58673 -16.25895,-12.21351 -14.27678,-22.27478 1.50447,-7.63644 4.98397,-13.47936 12.6409,-21.2271 6.22679,-6.30062 10.53586,-9.64422 22.6394,-17.56688 17.98201,-11.77054 22.35429,-14.92938 27.50882,-19.87422 4.08765,-3.92136 6.41007,-7.02549 8.79565,-11.75618 0.92559,-1.83544 2.16749,-3.98372 2.75981,-4.77394 0.5923,-0.79023 1.07693,-1.56476 1.07693,-1.72118 0,-0.1564 -0.85932,0.0208 -1.9096,0.39391 -1.88509,0.6696 -1.9199,0.66566 -2.71146,-0.30648 -1.68595,-2.07059 -0.55306,-3.87943 3.16104,-5.0471 1.64954,-0.5186 2.4461,-0.97562 2.33633,-1.3404 -0.71088,-2.36247 -0.5643,-2.79954 1.7541,-5.23022 l 2.3032,-2.41478 -3.40538,-0.0571 c -9.40127,-0.15777 -15.0143,-6.88228 -9.07948,-10.87737 1.84171,-1.23977 5.40665,-1.29023 8.48534,-0.12014 1.20698,0.45875 2.22786,0.83417 2.26863,0.8343 0.0408,1.1e-4 -1.15971,-2.58089 -2.66773,-5.73556 -5.0424,-10.5484 -9.63011,-26.22079 -12.20134,-41.68194 -1.69918,-10.2174 -1.88854,-12.7492 -1.86651,-24.95728 0.0199,-11.02392 0.12266,-12.7516 1.15885,-19.472152 3.03727,-19.700098 9.29459,-36.497857 19.06095,-51.169031 13.70079,-20.581569 33.38565,-33.677795 55.88509,-37.1800632 4.01957,-0.6256809 12.85029,-0.5174461 17.80493,0.2182513 25.43995,3.7774669 45.86144,23.5255249 52.4949,50.7638119 3.19384,13.114464 2.94603,29.208883 -0.6638,43.111813 -7.05355,27.1661 -26.40112,53.39248 -54.45977,73.82238 -10.31764,7.51241 -25.25856,16.01584 -34.78217,19.79579 -4.18439,1.66081 -14.56704,4.58145 -16.28667,4.58145 -1.15052,0 -1.01684,0.69352 0.19216,0.99696 1.45457,0.36508 5.56732,4.26606 6.57022,6.23193 0.62786,1.23069 0.80045,2.17219 0.64732,3.53093 -0.29054,2.57755 -1.68385,3.89532 -4.39398,4.15573 -3.51989,0.33822 -7.38363,-1.91165 -10.57092,-6.15546 l -1.09654,-1.46003 -1.30285,2.71845 c -1.68188,3.50924 -4.24122,6.36295 -5.54027,6.17748 -0.52338,-0.0747 -1.32964,-0.73852 -1.79222,-1.4755 -0.46247,-0.73682 -0.98165,-1.34689 -1.15372,-1.35573 -0.17208,-0.009 -0.31613,2.09575 -0.32011,4.67683 -0.003,2.5811 -0.26963,5.93073 -0.59033,7.44363 -0.76256,3.59738 -2.76788,8.29077 -3.84909,9.00867 -0.74562,0.49507 -0.98471,0.46475 -1.84811,-0.23438 -1.10606,-0.89565 -1.21788,-0.099 1.05338,-7.50509 0.73608,-2.40014 1.07559,-4.48273 1.08809,-6.67436 0.009,-1.75208 0.1725,-3.9834 0.36114,-4.95849 0.18863,-0.97508 0.22738,-1.77124 0.0861,-1.76922 -0.40098,0.006 -3.14269,4.47 -4.84931,7.89611 -4.77971,9.59538 -12.22401,16.14976 -34.61935,30.48086 -19.246,12.3158 -28.50523,20.79528 -33.47632,30.65718 -1.86672,3.70327 -2.64131,6.7106 -2.64257,10.25955 -0.002,4.37579 1.14221,7.30614 3.94611,10.11006 7.62272,7.6227 20.74594,7.9962 39.2167,1.11612 4.90818,-1.82823 17.87497,-7.44479 28.41357,-12.30733 9.75099,-4.49915 28.54677,-11.91055 36.29861,-14.31299 12.43993,-3.85533 22.19954,-5.66083 30.4449,-5.6322 7.10108,0.0246 11.16685,0.84659 14.98011,3.02831 7.74934,4.43373 8.96443,11.18942 3.41204,18.97042 -3.25518,4.56173 -10.05475,10.16184 -20.83292,17.15798 -25.7948,16.74345 -31.64017,21.27406 -36.1577,28.02498 -3.28821,4.91387 -3.25779,8.42031 0.10232,11.78037 3.61334,3.61333 8.99065,5.41589 16.17883,5.42341 8.24923,0.008 13.60991,-1.26691 27.11455,-6.45168 16.31335,-6.26312 23.4732,-8.20045 30.45172,-8.23972 8.38134,-0.0471 13.88727,3.11333 15.43462,8.85976 1.27013,4.71689 -0.88941,9.4501 -9.13527,20.02239 -7.32752,9.39486 -7.31701,14.67286 0.0345,17.36202 1.25983,0.46084 3.19826,0.651 6.45581,0.63328 3.5782,-0.0194 4.77137,0.11446 5.15664,0.57866 0.6493,0.78235 0.20645,2.52664 -0.73547,2.8968 -0.91862,0.36102 -7.9513,0.66737 -9.07655,0.39539 z M 264.45763,211.09308 c 0.36519,-0.5909 -0.75727,-2.52517 -2.35544,-4.05903 -1.27249,-1.22127 -6.3816,-3.879 -7.45682,-3.879 -0.69263,0 1.62068,3.9653 3.31221,5.67756 0.82602,0.83614 2.065,1.77055 2.75329,2.07648 1.48287,0.65911 3.39508,0.75299 3.74676,0.18399 z m -16.28984,-3.45371 c 1.15113,-2.81468 1.18307,-3.18394 0.25438,-2.9411 -0.69992,0.18305 -0.85143,0.0248 -0.85143,-0.88957 0,-0.61173 0.29929,-1.69097 0.66506,-2.39832 0.36578,-0.70734 0.50431,-1.40196 0.30784,-1.54359 -1.46043,-1.05276 -3.99282,-2.58763 -4.08786,-2.47763 -0.0639,0.0739 -0.44174,0.7914 -0.83974,1.59441 -0.398,0.80302 -1.56886,2.33219 -2.60192,3.39821 l -1.87831,1.93818 2.65317,1.28078 c 1.45924,0.70444 3.21631,1.74959 3.9046,2.32257 1.62521,1.35293 1.8136,1.33131 2.47421,-0.28394 z m -5.3618,-2.50975 c -0.89989,-0.51243 -1.71333,-1.16635 -1.80764,-1.45314 -0.30139,-0.91645 1.22785,-0.55869 2.22888,0.52142 0.53157,0.57359 1.3509,1.04287 1.82071,1.04287 0.46982,0 0.85421,0.18773 0.85421,0.41716 0,0.69171 -1.36177,0.45936 -3.09616,-0.52831 z m 2.27115,-3.02693 c 0.0164,-0.7206 1.59109,-2.49209 1.92152,-2.16166 0.1756,0.17559 -0.187,0.82553 -0.80576,1.44429 -0.61878,0.61878 -1.12087,0.94159 -1.11576,0.71737 z m -0.8308,-2.07625 c 0,-0.22943 0.18197,-0.69873 0.40437,-1.04287 0.22242,-0.34415 0.40437,-0.438 0.40437,-0.20857 0,0.22943 -0.18195,0.69872 -0.40437,1.04287 -0.2224,0.34414 -0.40437,0.438 -0.40437,0.20857 z m 6.01351,1.98144 c 0.15793,-0.51621 0.11856,-0.93857 -0.0877,-0.93857 -0.5989,0 -1.47944,1.95601 -1.13294,2.51667 0.351,0.56793 0.70342,0.11226 1.22057,-1.5781 z m 14.30762,-6.11934 c 8.18006,-2.08621 15.88635,-5.31054 26.72496,-11.18172 2.97946,-1.61394 4.51685,-2.66402 4.17146,-2.84919 -0.30084,-0.16129 -2.98728,-0.79829 -5.96988,-1.41558 -19.00106,-3.93248 -39.90058,-11.90397 -55.06339,-21.00224 -2.29431,-1.37668 -4.22413,-2.36422 -4.28847,-2.19456 -0.16159,0.42603 2.50656,9.23941 4.55346,15.04092 1.75513,4.97455 5.17215,12.2149 6.79198,14.39156 0.51221,0.6883 1.37232,2.04595 1.91134,3.017 0.53901,0.97106 1.69333,2.23759 2.56514,2.81452 l 1.5851,1.04897 -0.40586,-1.06745 c -0.2232,-0.5871 -0.53053,-2.41678 -0.68292,-4.06596 -0.25043,-2.71014 -0.21329,-2.94588 0.38621,-2.45126 0.63747,0.52598 1.46149,5.14569 1.23301,6.9127 -0.14915,1.15328 0.65363,1.91368 3.45403,3.27183 2.25845,1.09532 2.80842,1.19465 5.63148,1.01714 1.72074,-0.10816 5.05178,-0.68719 7.40235,-1.28668 z m -9.89033,7.1e-4 c 0.33594,-0.3253 2.11256,-1.16309 3.94799,-1.86178 2.78111,-1.05865 3.60335,-1.20946 4.93453,-0.90504 2.20292,0.50376 2.30261,0.75543 0.42673,1.07728 -0.88382,0.15167 -3.29638,0.72676 -5.36126,1.27804 -4.36871,1.16638 -4.77089,1.20829 -3.94799,0.4115 z m 12.18664,-3.67201 c -1.10614,-0.53348 -1.26464,-1.30512 -0.20857,-1.01542 0.4015,0.11021 1.42736,0.31778 2.27968,0.46141 0.85232,0.14363 1.66119,0.4416 1.79749,0.66215 0.33739,0.54591 -2.68777,0.46135 -3.8686,-0.10815 z m -22.95433,-3.12504 c -2.02028,-3.18796 -3.40907,-8.46309 -2.22809,-8.46309 0.39242,0 3.95463,9.99959 3.6653,10.28892 -0.0943,0.0943 -0.74105,-0.72731 -1.43721,-1.82583 z m 29.67137,0.71693 c -0.49274,-0.19881 -1.03609,-0.58833 -1.20745,-0.86559 -0.23377,-0.37822 0.0941,-0.43206 1.31304,-0.21556 2.48853,0.44199 3.11834,0.6863 2.85748,1.10839 -0.29284,0.47383 -1.75451,0.46039 -2.96307,-0.0273 z m 6.97545,-2.45448 c -0.55656,-0.15545 -1.08842,-0.51224 -1.18191,-0.79271 -0.21048,-0.63142 0.0142,-0.63386 2.05603,-0.0222 1.10469,0.33097 1.45527,0.59694 1.09126,0.8279 -0.59782,0.37932 -0.56098,0.37957 -1.96538,-0.0126 z m 3.07377,-3.14568 c -0.44498,-0.3254 -0.70946,-0.69124 -0.5877,-0.813 0.33157,-0.33156 3.74022,0.6146 3.74022,1.0382 0,0.58516 -2.2656,0.42331 -3.15252,-0.2252 z m -43.73796,10.24839 c -0.52438,-0.84848 -6.70512,-3.53848 -8.46995,-3.68632 -5.2167,-0.43704 -3.16249,3.18892 2.25357,3.97784 2.17031,0.31613 6.4674,0.11462 6.21638,-0.29152 z m 62.25438,-16.27872 c 0.39536,-0.25064 0.058,-0.55087 -1.17172,-1.04293 -1.53394,-0.61377 -1.82543,-0.62196 -2.60867,-0.0733 -0.67254,0.47106 -0.74095,0.66272 -0.28831,0.80769 0.32641,0.10453 0.87504,0.28399 1.2192,0.39877 0.99384,0.33147 2.24694,0.29182 2.8495,-0.0902 z m 4.42281,-3.10914 c 0.70242,-0.51361 0.64287,-0.62144 -0.81962,-1.48434 -1.4476,-0.8541 -1.63166,-0.87549 -2.242,-0.26053 -0.60892,0.61349 -0.57707,0.73777 0.37792,1.47505 1.24282,0.95948 1.68037,1.00347 2.6837,0.26982 z m 3.72308,-4.91596 c -1.74969,-1.39047 -1.94482,-1.43146 -2.66778,-0.56036 -0.45211,0.54477 -0.31648,0.82632 0.87879,1.82416 1.30835,1.09228 1.48369,1.13392 2.35906,0.56036 l 0.94564,-0.61961 z m 2.92267,-2.93085 c -2.32759,-2.38368 -3.22947,-1.14034 -1.10455,1.52274 1.06321,1.33248 1.18018,1.37812 1.88859,0.73701 0.72185,-0.65326 0.68723,-0.75304 -0.78404,-2.25975 z m 5.68784,-1.64276 c 0,-0.45974 -3.02779,-4.13959 -3.40606,-4.13959 -0.9102,0 -0.70724,1.28957 0.51151,3.25016 1.16796,1.87885 1.40915,2.06543 2.10676,1.62976 0.43329,-0.27059 0.78779,-0.60373 0.78779,-0.74033 z m 2.91332,-2.25434 c 0.41541,-0.50053 0.31298,-0.95827 -0.54026,-2.41422 -1.73232,-2.95598 -2.65728,-3.92344 -3.22139,-3.3694 -0.37461,0.3679 -0.12314,1.18058 1.06492,3.44146 0.85545,1.62788 1.69682,2.9598 1.86975,2.9598 0.1729,0 0.54505,-0.27793 0.82698,-0.61764 z m 4.61101,-5.37313 c -0.19003,-0.49068 -1.02742,-2.38191 -1.86087,-4.20275 -1.40219,-3.06339 -1.56624,-3.2597 -2.19697,-2.62897 -0.63071,0.63071 -0.58311,0.93083 0.63741,4.01949 0.72545,1.83583 1.31902,3.69152 1.31902,4.12375 0,1.2607 0.49556,1.41382 1.50537,0.46517 0.71309,-0.66991 0.85771,-1.10102 0.59604,-1.77669 z m 3.56831,-7.67485 c -2.16625,-5.67655 -2.6645,-6.53029 -3.43691,-5.88924 -0.7696,0.63871 -0.64472,1.38238 1.1123,6.62331 0.73071,2.17959 1.41085,4.23263 1.51142,4.5623 0.13985,0.4582 0.42845,0.35385 1.22523,-0.44293 l 1.04233,-1.04233 z m 5.38229,-4.74986 c -1.3766,-3.66807 -3.92626,-8.69906 -4.40862,-8.69906 -0.93521,0 -1.09556,1.47371 -0.34967,3.2138 0.7616,1.77675 2.53561,7.47782 3.07831,9.89265 l 0.27367,1.21774 1.27878,-1.27878 1.27878,-1.27877 z m 4.74922,-1.42974 0.84451,-1.07362 -1.0743,-2.99357 c -1.52757,-4.25655 -4.59247,-10.71077 -5.08619,-10.71077 -1.04345,0 -0.79001,1.83203 0.80261,5.80165 0.94012,2.34325 2.02304,5.56176 2.4065,7.15224 0.38345,1.59049 0.82437,2.89312 0.97978,2.89475 0.15545,0.002 0.66262,-0.48019 1.12709,-1.07068 z m -113.17562,-5.91893 c -0.51615,-0.51617 -0.71697,0.32929 -0.39048,1.6441 l 0.34405,1.38555 0.14221,-1.39583 c 0.0782,-0.7677 0.0352,-1.50293 -0.0957,-1.63382 z m 117.74441,-0.0933 0.92101,-1.24574 -1.49161,-3.8643 c -1.39584,-3.61622 -3.28881,-7.32705 -5.11824,-10.0334 -0.62607,-0.9262 -0.87917,-1.05149 -1.24168,-0.61469 -0.34165,0.41167 0.0549,1.71545 1.58845,5.22349 1.12406,2.5712 2.54221,6.27364 3.15143,8.22763 0.60924,1.95402 1.14412,3.55275 1.18866,3.55275 0.0445,0 0.49541,-0.56058 1.00198,-1.24574 z m -118.05823,-5.15339 c -0.10217,-1.15727 -0.26543,-1.4205 -0.70917,-1.14352 -0.41693,0.26024 -0.49545,0.79147 -0.28377,1.91982 0.37261,1.98622 1.18106,1.35417 0.99294,-0.7763 z m 119.85768,-9.18197 c -3.70951,-7.42779 -4.77611,-9.06636 -5.45891,-8.38616 -0.30498,0.30382 0.25191,1.9608 1.83835,5.46994 1.25174,2.76874 2.76183,6.51466 3.35576,8.32424 0.59394,1.80958 1.17133,3.55819 1.28309,3.88578 0.13796,0.40441 0.54719,0.0894 1.27454,-0.98094 l 1.07132,-1.57658 z m -120.28243,4.65186 c 0.27531,-0.27532 0.50058,-1.12665 0.50058,-1.89185 0,-1.26198 -0.0776,-1.34977 -0.8343,-0.94475 -0.58786,0.31461 -0.83428,0.87343 -0.83428,1.89183 0,1.51475 0.3306,1.78216 1.168,0.94477 z m 126.0066,-2.21102 0.86151,-1.46015 -1.41687,-3.35955 c -2.60592,-6.17888 -7.33133,-12.77082 -7.96708,-11.11407 -0.15818,0.4122 0.57627,2.12373 1.88273,4.38746 2.43462,4.21843 4.89195,9.64436 5.27649,11.65073 0.14284,0.74565 0.31425,1.35574 0.38077,1.35574 0.0665,0 0.50863,-0.65707 0.98245,-1.46016 z M 226.71233,120.9796 c 0.67046,-1.61861 0.3667,-1.92996 -1.0056,-1.0308 -0.7529,0.49333 -1.07907,1.07524 -1.07907,1.92518 0,1.05898 0.10154,1.1638 0.77708,0.80226 0.42741,-0.22873 1.01582,-0.99223 1.30759,-1.69664 z m 128.68782,-0.83093 c 0.62203,-1.20287 0.58505,-1.36351 -1.08004,-4.6929 -2.08825,-4.17548 -4.8766,-8.45116 -6.55511,-10.05167 -1.85626,-1.77002 -2.09345,-0.62364 -0.401,1.93824 1.91969,2.90585 4.99739,8.70533 6.18421,11.65324 0.53111,1.31923 1.02015,2.3986 1.08676,2.3986 0.0665,0 0.41093,-0.56049 0.76518,-1.24551 z M 227.8155,113.73469 c 0.94121,-1.67934 0.15152,-2.00667 -1.5638,-0.64817 -1.41906,1.12393 -1.62404,1.50443 -1.62404,3.01484 v 1.72858 l 1.35573,-1.62263 c 0.74565,-0.89246 1.57011,-2.00512 1.83211,-2.47262 z m 130.29916,0.16352 c 0,-2.07505 -8.51039,-15.447118 -9.83102,-15.447118 -0.91896,0 -0.71581,0.924702 0.60052,2.733568 1.64322,2.25805 7.04145,11.73017 7.66003,13.44086 0.45721,1.26434 0.55333,1.32589 1.0372,0.66417 0.2933,-0.40112 0.53327,-1.02729 0.53327,-1.39148 z m -0.17395,-8.38789 c -2.19558,-4.12725 -7.30811,-11.708502 -8.06624,-11.961218 -1.07305,-0.357672 -0.42285,1.034892 2.95726,6.333843 1.91244,2.998095 4.10969,6.647515 4.8828,8.109825 1.18679,2.24476 1.4609,2.53493 1.76042,1.86364 0.26297,-0.58932 -0.13401,-1.71405 -1.53424,-4.34609 z m -130.89018,2.0415 c 1.80329,-1.64 2.58289,-2.80477 2.58289,-3.85896 0,-1.08032 -1.04604,-0.74398 -2.83375,0.91116 -1.20348,1.11423 -1.7668,2.02696 -1.95792,3.17239 -0.3148,1.88669 -0.0873,1.86356 2.20878,-0.22459 z m 134.73299,-3.57353 c 2.94017,-9.918127 4.08096,-22.741678 2.9834,-33.536121 C 362.83277,51.420054 353.53823,33.987291 339.82819,23.667347 326.41158,13.568256 309.58564,9.7707347 293.24833,13.15452 c -14.66474,3.03737 -30.48719,12.484357 -41.16197,24.576262 -3.99045,4.520196 -8.39325,10.459869 -10.19337,13.751517 l -1.11888,2.045946 1.62544,-0.281111 c 12.6427,-2.186407 22.62664,-2.929799 31.41346,-2.338977 24.77064,1.665571 44.43088,8.947214 60.52429,22.416622 10.02586,8.391172 18.8796,18.814085 24.62122,28.984931 1.00377,1.77809 1.94569,3.23288 2.09315,3.23288 0.14741,0 0.4768,-0.70392 0.73185,-1.5643 z m -5.15797,-12.722978 c -3.13052,-5.443133 -6.53703,-10.326897 -11.47266,-16.447881 -2.51756,-3.122177 -4.4746,-5.779457 -4.34899,-5.905066 0.36861,-0.368614 4.6432,4.000921 7.9876,8.16499 6.52385,8.122801 12.02091,17.629415 10.19398,17.629415 -0.20936,0 -1.27133,-1.548649 -2.35993,-3.441458 z m 2.57895,-13.348707 c -1.03065,-1.892793 -2.00481,-3.816882 -2.16484,-4.275741 -0.25268,-0.72463 -0.1493,-0.697212 0.7861,0.208571 1.39061,1.34651 4.04323,5.777628 4.04323,6.75409 0,1.517038 -0.83259,0.677442 -2.66449,-2.68692 z m 0.75763,-7.717215 c -0.63352,-1.08979 -1.58993,-2.562304 -2.12538,-3.272256 -1.41571,-1.877121 -1.21103,-2.636022 0.31984,-1.185821 1.35792,1.286378 3.7018,5.026779 3.70849,5.918088 0.008,1.069988 -0.78667,0.460263 -1.90295,-1.460011 z M 229.81926,97.984902 c 1.01769,-1.209456 1.44024,-2.870975 0.73013,-2.870975 -0.18451,0 -1.22101,0.561576 -2.30331,1.247957 -1.98999,1.262019 -2.78412,2.530093 -2.78412,4.445736 v 1.05075 l 1.64585,-1.30352 c 0.90521,-0.716949 2.12536,-1.873414 2.71145,-2.569948 z m -0.0587,-6.262801 c 3.38071,-2.254312 4.54864,-3.699677 2.98952,-3.699677 -1.0598,0 -5.49603,2.413503 -5.77566,3.142232 -0.3233,0.842498 -0.34197,2.280673 -0.0296,2.280673 0.12724,0 1.39438,-0.775444 2.81575,-1.723228 z m 4.97648,-8.044805 c 0.62033,-0.915006 0.27856,-1.013151 -1.45362,-0.417457 -2.90262,0.998189 -5.09894,2.413866 -5.23784,3.376123 -0.11793,0.816625 0.12471,0.75375 3.12859,-0.810666 1.79102,-0.932758 3.39432,-1.899367 3.56287,-2.148 z m 1.96001,-5.04264 c 1.19017,-1.190173 -0.0736,-1.20389 -3.50738,-0.038 -2.7829,0.944868 -3.54014,1.378879 -3.73073,2.138305 -0.13149,0.524052 -0.35274,1.248839 -0.49158,1.610641 -0.27177,0.708217 6.61846,-2.599654 7.72969,-3.710886 z m -1.63956,-3.040288 c 6.25948,-2.536778 5.1275,-3.548211 -1.3514,-1.2075 -1.75685,0.634715 -2.63032,1.198356 -2.86873,1.851155 -0.18855,0.516216 -0.19457,0.938576 -0.0126,0.938576 0.18116,0 2.08626,-0.712 4.23351,-1.582231 z m 2.19336,-4.64962 c 2.7798,-0.920714 4.21777,-1.621505 4.53202,-2.208669 0.42969,-0.802877 0.3729,-0.842592 -0.85405,-0.597192 -3.02594,0.605185 -7.29456,2.1168 -8.01662,2.838875 -0.88222,0.882213 -1.03639,1.795358 -0.25451,1.507547 0.28679,-0.105634 2.35372,-0.798826 4.59316,-1.540561 z m 1.55977,-4.58766 c 3.11569,-1.058967 4.84446,-1.861083 4.93205,-2.288394 0.18707,-0.912546 -0.42155,-0.83947 -5.04475,0.605654 -3.63972,1.137719 -4.89307,1.928961 -4.89307,3.089021 0,0.31712 -0.37411,0.422218 5.00577,-1.406281 z m 2.50288,-4.785836 c 4.52998,-1.413769 5.84004,-1.993192 5.84004,-2.582973 0,-0.680358 -0.33659,-0.627195 -5.79864,0.915983 -3.94552,1.114717 -5.25493,1.826434 -5.56887,3.026934 -0.21196,0.810539 -0.18442,0.812195 1.50864,0.09081 0.94847,-0.404119 2.75695,-1.056981 4.01883,-1.450804 z m 0.30053,-4.169461 c 1.62225,-0.551754 3.99216,-1.236526 5.26644,-1.521705 1.27429,-0.285179 2.4143,-0.772306 2.53335,-1.082522 0.28398,-0.74008 -0.19171,-0.716699 -5.20999,0.25609 -4.27063,0.827867 -5.10354,1.196338 -5.84782,2.587026 -0.52626,0.983321 -0.28298,0.965489 3.25802,-0.238889 z"
       id="path10" /></g><metadata
     id="metadata182"><rdf:RDF><cc:Work
         rdf:about=""><cc:license
           rdf:resource="http://creativecommons.org/licenses/by-sa/4.0/" /><dc:publisher><cc:Agent><dc:title>OpenDataKerala.org</dc:title></cc:Agent></dc:publisher><dc:date>April 2026</dc:date><dc:title>Election Symbols of Kerala</dc:title><dc:creator><cc:Agent><dc:title>Manoj Karingamadathil</dc:title></cc:Agent></dc:creator></cc:Work><cc:License
         rdf:about="http://creativecommons.org/licenses/by-sa/4.0/"><cc:permits
           rdf:resource="http://creativecommons.org/ns#Reproduction" /><cc:permits
           rdf:resource="http://creativecommons.org/ns#Distribution" /><cc:requires
           rdf:resource="http://creativecommons.org/ns#Notice" /><cc:requires
           rdf:resource="http://creativecommons.org/ns#Attribution" /><cc:permits
           rdf:resource="http://creativecommons.org/ns#DerivativeWorks" /><cc:requires
           rdf:resource="http://creativecommons.org/ns#ShareAlike" /></cc:License></rdf:RDF></metadata></svg>
