<?xml version="1.0" encoding="UTF-8" standalone="no"?>
<!-- Created with Inkscape (http://www.inkscape.org/) -->

<svg
   width="1500"
   height="1500"
   viewBox="0 0 396.87499 396.875"
   version="1.1"
   id="svg5"
   xml:space="preserve"
   inkscape:version="1.3 (0e150ed6c4, 2023-07-21)"
   sodipodi:docname="Batsman.svg"
   inkscape:export-filename="Bead Necklace.png"
   inkscape:export-xdpi="96"
   inkscape:export-ydpi="96"
   xmlns:inkscape="http://www.inkscape.org/namespaces/inkscape"
   xmlns:sodipodi="http://sodipodi.sourceforge.net/DTD/sodipodi-0.dtd"
   xmlns="http://www.w3.org/2000/svg"
   xmlns:svg="http://www.w3.org/2000/svg"
   xmlns:rdf="http://www.w3.org/1999/02/22-rdf-syntax-ns#"
   xmlns:cc="http://creativecommons.org/ns#"
   xmlns:dc="http://purl.org/dc/elements/1.1/"><title
     id="title186">Election Symbols of Kerala</title><sodipodi:namedview
     id="namedview7"
     pagecolor="#ffffff"
     bordercolor="#000000"
     borderopacity="0.25"
     inkscape:showpageshadow="2"
     inkscape:pageopacity="0.0"
     inkscape:pagecheckerboard="0"
     inkscape:deskcolor="#d1d1d1"
     inkscape:document-units="mm"
     showgrid="false"
     inkscape:zoom="0.25"
     inkscape:cx="230"
     inkscape:cy="1082"
     inkscape:window-width="1920"
     inkscape:window-height="991"
     inkscape:window-x="-9"
     inkscape:window-y="-9"
     inkscape:window-maximized="1"
     inkscape:current-layer="layer1" /><defs
     id="defs2"><inkscape:path-effect
       effect="bspline"
       id="path-effect3248"
       is_visible="true"
       lpeversion="1"
       weight="33.333333"
       steps="2"
       helper_size="0"
       apply_no_weight="true"
       apply_with_weight="true"
       only_selected="false" /><inkscape:path-effect
       effect="bspline"
       id="path-effect577"
       is_visible="true"
       lpeversion="1"
       weight="33.333333"
       steps="2"
       helper_size="0"
       apply_no_weight="true"
       apply_with_weight="true"
       only_selected="false" /></defs><g
     inkscape:label="Layer 1"
     inkscape:groupmode="layer"
     id="layer1"><path
       style="fill:#000000;stroke-width:1.6547"
       d="m 154.78596,390.06405 c -3.81193,-0.91817 -5.06542,-1.32048 -6.80844,-2.18518 -2.15042,-1.06677 -3.04367,-2.44626 -3.03975,-4.6944 0.005,-2.96674 0.82303,-4.5712 3.58363,-7.03027 l 2.68149,-2.38859 -2.58653,0.63905 c -6.09962,1.507 -17.21962,1.21107 -21.68892,-0.57718 -2.76723,-1.10722 -3.75793,-4.10142 -2.40651,-7.27308 0.88907,-2.08654 2.17633,-3.07223 7.49983,-5.74278 4.40376,-2.20916 9.41508,-5.9983 14.84629,-11.2255 0.82142,-0.79058 0.72303,-1.05611 -5.21517,-14.07563 -13.19624,-28.93278 -23.34322,-49.86139 -25.09728,-51.76433 -0.93031,-1.00927 -2.02669,-2.71003 -2.43641,-3.77947 -0.59682,-1.55781 -1.09085,-2.09106 -2.4846,-2.68172 -1.32048,-0.55962 -1.94629,-1.19257 -2.5972,-2.62683 -0.47164,-1.03927 -0.86185,-2.30872 -0.86715,-2.82103 -0.005,-0.5123 -0.31811,-1.1875 -0.69518,-1.50043 -1.04151,-0.86437 -1.94126,-2.84754 -1.94126,-4.27876 0,-0.70485 -0.30851,-1.53758 -0.68558,-1.85051 -1.31479,-1.0912 -1.95246,-2.99987 -1.9263,-5.7659 0.0149,-1.65037 -0.60173,-5.54437 -1.54612,-9.75225 -2.871153,-12.79321 -2.918773,-13.06782 -2.617303,-15.09404 0.9049,-6.08174 6.226483,-9.97412 14.234563,-10.41163 5.97454,-0.32639 11.03077,1.28666 15.53627,4.95644 l 2.26626,1.8459 1.66233,-2.90691 c 6.99031,-12.22384 15.93409,-24.4909 25.74018,-35.30451 1.09179,-1.20398 2.20601,-2.92397 2.47606,-3.82224 0.30192,-1.0043 1.14792,-2.16112 2.19699,-3.00419 1.32409,-1.06407 1.76865,-1.77657 1.98573,-3.18266 0.46791,-3.03064 1.14483,-4.78432 2.64343,-6.84819 1.37082,-1.8879 1.42195,-2.10233 1.20063,-5.03477 -0.15885,-2.10468 -0.48148,-3.33852 -1.03136,-3.94396 -2.11616,-2.33 -2.61209,-4.60541 -3.07545,-14.11071 -0.30394,-6.23454 -0.84107,-11.42414 -1.71095,-16.53023 -0.99513,-5.84134 -2.14899,-16.76717 -2.18152,-20.65672 -0.002,-0.28471 -1.0092,0.15852 -2.23735,0.98506 -1.22817,0.82649 -2.77513,1.50272 -3.4377,1.50272 -2.85783,0 -6.15004,-4.01393 -6.15004,-7.49826 0,-1.3695 0.30192,-1.887 1.94422,-3.33263 1.06932,-0.94124 2.69468,-1.94194 3.6119,-2.22373 0.91723,-0.28182 3.61392,-1.76759 5.99267,-3.30172 l 4.32499,-2.789345 -2.57377,-0.234438 c -1.95604,-0.178161 -3.78215,0.0647 -7.60852,1.012047 -7.6945,1.904956 -15.9215,3.185876 -18.23436,2.839026 -2.31482,-0.34712 -7.61251,-2.984921 -10.6555,-5.305537 -2.97046,-2.2653 -3.66286,-3.724579 -3.43858,-7.246937 0.15505,-2.434029 0.49869,-3.408514 2.35462,-6.676016 3.34961,-5.897231 4.33508,-6.849114 9.9388,-9.600051 2.71189,-1.331321 6.80232,-3.060614 9.08986,-3.842889 2.28754,-0.782259 4.98147,-2.002071 5.98654,-2.710662 1.00504,-0.708592 2.77489,-1.465369 3.93298,-1.681737 1.1581,-0.216352 3.1093,-1.059769 4.33601,-1.874261 4.76282,-3.162329 9.86586,-5.051036 13.69308,-5.06798 l 1.46135,-0.0066 -0.31294,-1.860677 c -0.1721,-1.023365 -0.78047,-2.417581 -1.3519,-3.098225 -1.24266,-1.480211 -1.25587,-1.74493 -0.20257,-4.064305 1.47488,-3.247728 1.52712,-4.937457 0.23958,-7.7498 -0.63591,-1.38902 -1.05401,-2.791825 -0.92909,-3.117337 0.1796,-0.468048 -0.75067,-0.629166 -4.44739,-0.770229 -6.73406,-0.256959 -9.27148,-1.701494 -9.27148,-5.278176 0,-2.95473 2.86996,-4.415978 11.75065,-5.982945 l 4.17466,-0.736606 1.77854,-3.041536 c 2.57026,-4.395526 5.99704,-7.712436 9.20972,-8.914459 3.67472,-1.37489 6.44621,-1.839033 10.73774,-1.798261 2.04673,0.01952 4.45442,-0.09084 5.35039,-0.245061 1.43095,-0.246335 1.79702,-0.112519 3.01046,1.101004 0.75978,0.759788 2.51009,1.951188 3.88958,2.647535 3.04351,1.536355 7.10563,5.16324 8.52829,7.614528 0.57534,0.99133 1.49182,3.18149 2.03663,4.867049 1.6595,5.134118 1.19183,13.400994 -0.9099,16.084287 -0.42655,0.544578 -1.00404,2.060018 -1.2833,3.367661 -0.27926,1.307626 -1.49869,4.109164 -2.70985,6.225606 -2.12407,3.711755 -3.18004,6.938965 -2.27048,6.938965 0.23824,0 4.35204,-2.688704 9.14175,-5.974887 20.09419,-13.786523 38.57003,-25.872578 50.73223,-33.186778 6.21783,-3.739322 15.49255,-8.944277 17.42908,-9.781174 3.04448,-1.3157009 7.34708,0.06338 10.85942,3.480841 3.95622,3.849261 6.01927,9.097073 5.15697,13.117876 -0.25492,1.188603 -0.95967,2.750804 -1.56615,3.471542 -1.23704,1.470134 -11.01722,8.557491 -20.92847,15.166128 -9.86358,6.576833 -27.03305,16.846789 -49.78973,29.781853 l -6.44694,3.664497 1.84998,2.279166 c 4.63197,5.706561 6.61339,10.313458 7.30312,16.980092 0.54395,5.257706 -0.007,11.006726 -1.67454,17.477796 -0.71364,2.76912 -1.82398,7.38343 -2.4674,10.25402 -1.50854,6.73016 -3.30273,11.8189 -5.78298,16.40183 -2.37537,4.38913 -2.85037,7.56075 -1.70785,11.40327 0.96535,3.2466 0.8833,4.73803 -0.38242,6.95196 -0.99305,1.73702 -1.04054,2.06804 -0.59658,4.15916 0.26528,1.24957 1.22913,3.65103 2.14186,5.33659 6.12343,11.3082 7.47401,26.72169 3.2519,37.11235 -2.52789,6.22118 -8.75871,13.07424 -19.00086,20.89842 -9.35686,7.14787 -9.63782,7.41489 -11.97576,11.38144 -5.65614,9.59619 -8.11658,13.64698 -10.46656,17.23179 -2.29448,3.50013 -2.54265,4.10628 -2.54265,6.21023 0,2.62938 -0.458,4.10706 -1.96156,6.32878 -1.36607,2.01851 -1.57799,6.56209 -0.47647,10.21518 0.4235,1.40448 0.66812,2.9432 0.54358,3.41936 -0.12774,0.48879 0.42321,2.23632 1.26552,4.01348 0.82055,1.73127 1.91103,4.92086 2.42327,7.08801 0.51226,2.16712 1.27579,4.62978 1.69675,5.47257 1.52856,3.06026 1.66244,6.27258 0.70252,16.85551 -0.3713,4.09349 -0.97149,9.54336 -1.33374,12.11081 -0.58201,4.12478 -0.58325,4.81269 -0.01,5.91038 0.79622,1.52663 0.92178,9.77368 0.16034,10.53507 -0.75557,0.75557 0.2842,6.8588 1.78031,10.45019 1.36547,3.27774 3.10719,11.16895 3.23187,14.64261 l 0.0778,2.16433 3.17125,0.003 3.17125,0.003 0.1685,-65.34251 c 0.19656,-76.21565 0.12145,-68.83467 0.71091,-69.93594 0.41342,-0.77248 0.91367,-0.87914 4.12304,-0.87914 3.29616,0 3.71603,-0.0956 4.303,-0.97963 0.61866,-0.93175 0.94665,-0.98183 6.70997,-1.02494 5.8,-0.0434 6.10342,-0.001 7.08446,0.97963 0.90578,0.90578 1.43666,1.02494 4.56672,1.02494 3.16986,0 3.6434,-0.10971 4.50935,-1.04402 0.90043,-0.97159 1.22288,-1.03241 4.64718,-0.87671 2.02378,0.092 3.87661,0.18225 4.1174,0.20054 0.24079,0.0184 1.16213,-0.10309 2.04741,-0.26987 1.37504,-0.25892 1.7767,-0.13601 2.75618,0.84347 1.02747,1.02747 1.47858,1.14659 4.34238,1.14659 3.83516,0 4.66572,0.62463 4.73636,3.56205 0.0253,1.05079 0.11484,31.29096 0.19899,67.20038 l 0.15306,65.28986 6.01699,0.28189 c 10.87109,0.50932 13.35358,0.76133 12.81432,1.30081 -0.35578,0.35593 -11.75091,0.53205 -41.04529,0.63441 l -40.55276,0.14165 -1.78327,1.17174 c -0.98079,0.64445 -2.76831,1.66386 -3.97227,2.26538 -1.20397,0.60152 -3.56898,2.47531 -5.2556,4.164 -5.3162,5.32272 -9.82845,7.19784 -17.94811,7.45852 -2.64873,0.0851 -5.20989,0.0597 -5.69147,-0.0563 z m 11.99225,-3.26336 c 4.53627,-1.25708 5.48249,-1.83462 9.67913,-5.90784 2.60592,-2.52929 4.67608,-4.08888 6.90653,-5.20317 3.87203,-1.93438 4.91422,-2.91709 4.91422,-4.63372 0,-1.31562 -0.56365,-1.73455 -1.12081,-0.83304 -0.16332,0.2642 -1.70177,1.38452 -3.41884,2.48959 -1.71706,1.10508 -4.93062,3.74953 -7.14123,5.87658 -4.95488,4.76759 -8.02261,6.35971 -13.2741,6.88911 -4.36066,0.43961 -8.97722,-0.0356 -12.63176,-1.30038 -2.8683,-0.99263 -3.63506,-0.89549 -2.85442,0.36167 1.76409,2.841 12.30712,4.09962 18.94128,2.2612 z m -1.64079,-3.24229 c 4.25423,-0.90169 6.26605,-2.10602 10.66322,-6.3832 2.16712,-2.108 5.12231,-4.56978 6.56708,-5.47063 1.44475,-0.90085 3.23924,-2.21498 3.98774,-2.92031 l 1.36093,-1.28241 -0.81969,-4.02387 c -0.45082,-2.21312 -0.87697,-4.20389 -0.94702,-4.42392 -0.07,-0.22004 -0.55889,0.33141 -1.08637,1.22542 -0.97912,1.65947 -3.12318,2.89973 -4.99892,2.89171 -0.54952,-0.002 -1.98418,-0.46251 -3.18815,-1.02256 -2.11666,-0.98463 -3.56376,-1.09418 -3.02926,-0.22934 0.29161,0.47182 -2.47346,5.34928 -5.33202,9.40548 -2.94791,4.18299 -5.8874,4.98284 -11.35526,3.08982 l -1.71458,-0.59359 -3.35714,2.77742 c -3.06382,2.53477 -3.88801,3.49435 -3.88801,4.52668 0,0.48695 3.34995,1.74391 6.46545,2.42594 3.40329,0.74503 7.17943,0.74764 10.672,0.007 z m -0.95132,-10.2963 c 0.91614,-0.57939 0.53844,-0.79769 -2.80973,-1.62393 -2.9372,-0.72483 -4.11465,-0.56679 -4.50516,0.60472 -0.3317,0.99509 5.96562,1.87251 7.31489,1.01921 z m -17.93736,-0.94506 c 1.32437,-0.24696 4.01039,-0.96042 5.96896,-1.58543 2.78592,-0.88906 3.7173,-1.40097 4.27903,-2.35191 l 0.71803,-1.21553 -3.84124,1.31542 c -5.46009,1.86978 -9.57465,2.57751 -14.93435,2.56877 -4.18187,-0.007 -8.92955,-0.66611 -11.16993,-1.55116 -0.63815,-0.25211 -0.77784,-0.14363 -0.65672,0.50983 0.49376,2.66377 11.06841,3.90779 19.63622,2.31001 z m 59.10378,-63.89607 c 0,-41.72693 -0.15273,-64.67173 -0.43416,-65.19748 -0.84971,-1.58769 -4.25908,-1.48069 -5.36007,0.16818 -0.1769,0.26495 -0.32467,29.49182 -0.32834,64.94861 l -0.007,64.46691 h 3.06464 3.06463 z m 14.00979,0.0288 v -64.35746 l -1.75123,-0.0386 c -0.96317,-0.0212 -2.93329,-0.0385 -4.37806,-0.0385 -1.44475,0 -3.31638,0.0174 -4.15915,0.0385 l -1.53232,0.0386 v 64.35746 64.35745 h 5.91037 5.91039 z m 8.3183,-0.0288 c 0,-41.72693 -0.15272,-64.67173 -0.43416,-65.19748 -0.8497,-1.58769 -4.25908,-1.48069 -5.36006,0.16818 -0.17691,0.26495 -0.32467,29.49182 -0.32836,64.94861 l -0.007,64.46691 h 3.06465 3.06464 z m 14.0098,0.0288 v -64.35746 l -1.53234,-0.0386 c -0.84277,-0.0212 -2.71438,-0.0385 -4.15915,-0.0385 -1.44475,0 -3.41489,0.0174 -4.37805,0.0385 l -1.75122,0.0386 v 64.35746 64.35745 h 5.91037 5.91039 z m 8.3183,-0.38421 c 0,-53.70539 -0.10044,-64.82497 -0.58899,-65.23045 -1.22391,-1.01577 -3.09435,-1.04102 -4.34324,-0.0586 l -1.19706,0.94161 v 64.54456 64.54459 h 3.06466 3.06463 z m -83.17826,62.54357 c 0.26041,-0.48656 0.36366,-1.0623 0.22949,-1.27941 -0.1342,-0.21713 -1.64578,-0.7136 -3.35909,-1.10329 -2.90635,-0.66103 -3.17008,-0.65876 -3.93542,0.0339 -1.13976,1.03147 -1.0254,1.47902 0.38364,1.50145 0.66219,0.01 2.18903,0.37822 3.39299,0.81708 2.87506,1.04798 2.7444,1.04678 3.28839,0.0303 z m -21.92253,-1.57719 c 0.33817,-0.32339 -2.74877,-2.69684 -5.00737,-3.85 -1.20396,-0.61469 -3.23477,-1.31469 -4.5129,-1.55552 -2.15776,-0.40659 -2.50865,-0.34462 -4.90883,0.86698 -2.15964,1.09018 -3.49353,2.30622 -3.49353,3.18488 0,0.22956 5.83172,1.55497 7.88051,1.79107 1.71395,0.19748 9.74394,-0.15224 10.04212,-0.43741 z m 6.94169,-1.72644 c 6.9459,-2.33166 7.30576,-2.57041 9.49005,-6.29622 1.75196,-2.98835 1.9835,-3.68766 1.9835,-5.99032 v -2.60701 l -1.87742,-0.50214 c -2.05454,-0.54949 -4.25185,-2.05552 -4.25185,-2.91417 0,-0.68864 -3.10393,-2.45677 -4.31282,-2.45677 -0.98799,0 -2.17317,1.68215 -1.50442,2.13526 3.35467,2.27296 3.63701,2.37054 4.5276,1.56455 1.28279,-1.16089 1.51787,-0.4511 0.43233,1.30533 -1.39219,2.2526 -6.74689,6.98415 -9.66289,8.53836 -2.69327,1.4355 -4.87169,1.69036 -7.21275,0.84383 -1.15865,-0.41899 -1.57507,-0.36853 -2.62236,0.31767 l -1.24498,0.81575 1.37356,0.28092 c 2.23234,0.45656 5.98879,2.4813 8.03299,4.32982 1.04792,0.94758 2.26459,1.73096 2.70371,1.74084 0.43914,0.01 2.30472,-0.48769 4.14575,-1.1057 z m 17.30589,-0.351 c 0.63772,-0.97326 0.6193,-1.06424 -0.30015,-1.48316 -0.53874,-0.24547 -2.14174,-0.68757 -3.56224,-0.98247 -2.48602,-0.51609 -2.61336,-0.49828 -3.40202,0.47567 l -0.81935,1.01183 2.6419,0.53889 c 1.45302,0.29641 2.99391,0.74377 3.42418,0.99418 1.10976,0.64586 1.25752,0.60522 2.01768,-0.55494 z m 2.48597,-4.28362 c 0,-0.33412 -1.57073,-0.82877 -5.12282,-1.6133 -1.52376,-0.33655 -1.95561,-0.27771 -2.51739,0.34306 -0.98339,1.08664 -0.84959,1.33295 0.74478,1.37098 0.78257,0.0187 2.40793,0.39044 3.61189,0.82619 1.98715,0.71922 2.2395,0.72855 2.73629,0.10127 0.30099,-0.38004 0.54725,-0.84274 0.54725,-1.02823 z m 10.87706,-3.22962 c 1.29586,-1.64742 1.49658,-3.89834 0.75587,-8.47655 -0.36586,-2.26126 -0.71953,-4.16026 -0.78593,-4.21999 -0.0664,-0.0597 -1.40134,0.12973 -2.9665,0.42099 l -2.84573,0.5296 0.20524,2.59587 c 0.30492,3.85636 0.27258,6.83168 -0.0882,8.11438 -0.38411,1.36571 0.6916,2.06649 3.24417,2.11347 1.22206,0.0225 1.81989,-0.2372 2.48107,-1.07777 z m -39.14694,0.28259 c 0.30978,-0.50123 -2.17874,-1.53813 -2.7879,-1.16165 -0.7006,0.43298 -0.55793,1.02215 0.30193,1.24686 1.32651,0.34665 2.2384,0.31539 2.48597,-0.0852 z m 30.76065,-1.62235 c 0.78106,-1.06818 0.71787,-3.64198 -0.27315,-11.12483 -0.57793,-4.36384 -0.9301,-10.52213 -1.12663,-19.70126 -0.16497,-7.70261 -0.54506,-15.04108 -0.89835,-17.34215 -0.65884,-4.29124 -2.52079,-10.25561 -4.08498,-13.08535 -0.95514,-1.72792 -0.96508,-1.73292 -0.74721,-0.37533 0.12146,0.75672 0.44179,5.28802 0.71189,10.06952 0.3192,5.65124 0.7007,9.08565 1.09008,9.8138 0.81049,1.51558 2.39978,7.33835 2.39978,8.79221 0,1.1188 -0.84647,2.09216 -3.37288,3.87854 l -0.92876,0.6567 1.72912,4.15915 c 2.54414,6.11952 3.44833,9.09609 3.44649,11.34581 -0.002,2.84992 -1.27501,4.72784 -3.97806,5.86984 l -2.18413,0.92276 0.12675,3.0673 0.12675,3.06728 1.75121,0.54902 c 2.3299,0.73041 5.47474,0.44539 6.21211,-0.56301 z m -27.30406,0.0629 c 0.74721,-0.56638 0.69261,-0.67698 -0.85257,-1.72696 -1.53655,-1.04411 -1.70558,-1.07234 -2.44012,-0.4076 -1.04125,0.94232 -1.00485,1.1176 0.41477,1.99777 1.45491,0.90206 1.84391,0.92054 2.87792,0.13684 z m 3.30566,-2.58411 c 0.37163,-0.44779 0.30532,-0.75121 -0.27475,-1.25715 -1.58692,-1.38414 -2.56159,-1.66164 -3.44042,-0.97949 -0.79525,0.61726 -0.77676,0.68305 0.48678,1.73208 1.47062,1.22098 2.50027,1.3819 3.22839,0.50456 z m 3.14748,-2.72666 c 0.62837,-0.75714 0.52203,-0.87868 -1.92817,-2.20351 -1.13617,-0.61433 -1.3163,-0.6069 -2.08191,0.086 -0.81668,0.73911 -0.79606,0.78436 0.80597,1.76939 1.96143,1.20601 2.44825,1.25891 3.20411,0.34815 z m 14.46414,-4.43271 c 0.43764,-0.43763 -2.34482,-6.70158 -23.93112,-53.8743 l -8.2653,-18.06225 -1.03007,1.31618 c -0.72684,0.92873 -1.40735,1.31618 -2.31175,1.31618 -0.70493,0 -1.28168,0.18761 -1.28168,0.41692 0,0.22932 4.75116,10.52322 10.55814,22.87535 9.54647,20.3065 15.30795,32.68269 19.83038,42.5975 0.87866,1.92634 1.89427,3.72637 2.25691,4.00004 0.68868,0.51976 3.45756,0.13138 4.17449,-0.58562 z m -10.0294,-7.36051 c -1.90785,-4.16594 -3.38296,-6.80487 -4.10532,-7.34417 -0.72337,-0.54008 -2.12705,-0.92044 -3.91638,-1.06124 -2.40302,-0.1891 -2.9555,-0.0874 -3.99288,0.73467 -0.66218,0.52477 -1.20396,1.238 -1.20396,1.58495 0,0.58891 4.12326,10.14192 4.57047,10.58914 0.11203,0.11202 0.52238,-0.11501 0.91186,-0.50449 1.72708,-1.72708 4.73069,-1.30167 8.37599,1.18632 1.16687,0.79641 2.1703,1.41859 2.22982,1.38262 0.0596,-0.0359 -1.23179,-2.99148 -2.8696,-6.5678 z m 11.81022,3.8577 c -0.0349,-1.93282 -0.67661,-3.8505 -4.60329,-13.7551 -3.81114,-9.61314 -4.4964,-12.34536 -5.31243,-21.18098 -1.79597,-19.44596 -3.58358,-24.58242 -12.98402,-37.30779 l -2.9804,-4.03457 -1.68332,0.59392 c -0.92584,0.32666 -2.80292,0.82634 -4.17129,1.11041 -1.36836,0.28408 -2.48793,0.68213 -2.48793,0.88458 0,0.46031 4.72163,10.99437 18.94016,42.2559 10.13932,22.29279 13.75467,30.45711 14.51957,32.78864 0.40438,1.23259 0.79702,0.53525 0.76295,-1.35501 z m 7.80667,-0.98875 c 0,-0.66128 -0.12658,-2.41333 -0.28128,-3.89341 -0.23953,-2.29176 -0.40942,-2.69105 -1.14495,-2.69105 -0.79229,0 -0.84036,0.20811 -0.58155,2.51737 0.57599,5.139 0.73189,5.75905 1.38504,5.50841 0.3425,-0.13138 0.62274,-0.78002 0.62274,-1.44132 z m 5.86115,-0.12261 c 0.73986,-0.38303 0.79708,-0.77427 0.54661,-3.73734 -0.15389,-1.82024 -0.3647,-3.39447 -0.46851,-3.49828 -0.26176,-0.26174 -3.42243,0.30062 -4.123,0.73359 -0.4403,0.27212 -0.50126,1.18588 -0.26207,3.92784 l 0.31169,3.57323 1.58445,-0.28562 c 0.87144,-0.15703 1.95631,-0.47813 2.41083,-0.71342 z m -3.58117,-9.13808 2.426,-0.48721 0.72326,-4.657 c 0.82698,-5.32505 1.77231,-15.77034 1.45588,-16.08677 -0.11649,-0.11649 -1.7505,0.19105 -3.63099,0.68359 -1.88046,0.49255 -3.87447,0.89554 -4.4311,0.89554 h -1.01206 v 10.06954 10.06952 h 1.02149 c 0.56182,0 2.1132,-0.21925 3.44752,-0.48721 z m -33.83999,-3.77983 c 0.0995,-0.0594 -0.91935,-2.42352 -2.26409,-5.25367 -1.34476,-2.83015 -4.06288,-8.59345 -6.04028,-12.80734 -5.29562,-11.28506 -14.41822,-30.3492 -14.61865,-30.54965 -0.0956,-0.0956 -0.77627,0.27154 -1.51256,0.8159 -0.86018,0.63595 -1.19908,1.15836 -0.9481,1.46142 0.45874,0.55392 13.79917,28.66187 21.26626,44.80746 l 1.67413,3.61985 1.13118,-0.99301 c 0.62217,-0.54617 1.21262,-1.04159 1.31211,-1.10096 z m 2.6204,-9.77679 c -2.67055,-5.63989 -6.1936,-13.11102 -7.82901,-16.60252 -1.63542,-3.4915 -4.9657,-10.5768 -7.40066,-15.74509 -2.43494,-5.16831 -4.42716,-9.47991 -4.42716,-9.58132 0,-0.10143 -0.40833,0.33469 -0.90739,0.96914 -0.53503,0.6802 -1.34348,1.15356 -1.97013,1.15356 -0.58451,0 -1.06273,0.1812 -1.06273,0.40265 0,0.22145 1.05753,2.63486 2.35007,5.36313 1.29253,2.72825 4.94707,10.47682 8.12118,17.21903 3.17411,6.7422 7.28314,15.46002 9.13117,19.3729 l 3.36007,7.11435 1.76238,0.0308 c 0.96931,0.0169 2.15641,0.1892 2.63799,0.38285 0.48159,0.19364 0.92379,0.31221 0.98268,0.26348 0.0589,-0.0487 -2.07792,-4.70305 -4.74846,-10.34293 z m 19.47281,4.74052 1.08938,-0.98508 -0.87673,-3.27771 c -0.4822,-1.80275 -0.92723,-3.32825 -0.98896,-3.38998 -0.0617,-0.0617 -0.91797,0.27703 -1.90273,0.7528 l -1.79046,0.86506 1.15067,3.50998 c 0.63289,1.93049 1.39343,3.50998 1.69008,3.50998 0.29666,0 1.0296,-0.44327 1.62875,-0.98505 z m -3.24602,-9.27463 c 1.03272,-0.57179 1.07385,-0.75993 0.97801,-4.47199 -0.1685,-6.52694 -1.54565,-20.52981 -2.07544,-21.10313 -0.35351,-0.38257 -3.70667,1.91786 -3.5168,2.41268 0.44029,1.14733 1.53778,9.79952 1.99036,15.69098 0.66964,8.7173 0.62149,8.58018 2.62387,7.47146 z m 11.1286,-7.362 c -0.32302,-1.98655 -0.59124,-3.85816 -0.59606,-4.15915 -0.005,-0.30099 -0.42413,-0.54726 -0.93183,-0.54726 -0.73817,0 -0.87386,0.19731 -0.6774,0.98506 0.13503,0.54178 0.48086,2.41341 0.76833,4.15915 0.41219,2.50316 0.68137,3.17409 1.27347,3.17409 0.69599,0 0.70792,-0.26369 0.16349,-3.61189 z m 2.85543,1.31342 c -0.0606,-2.66551 -0.975,-6.69588 -1.49011,-6.56709 -0.53577,0.13403 -0.54418,-0.0665 0.19253,4.59697 0.63558,4.02335 1.36944,5.13758 1.29758,1.97012 z m 5.61398,-0.1342 c 0.91738,-0.60108 0.99497,-0.89929 0.76727,-2.94882 -0.52623,-4.73621 -0.66068,-5.21449 -1.38735,-4.93564 -0.37751,0.14479 -1.5586,0.48301 -2.62465,0.75145 -1.47657,0.37181 -1.87574,0.65106 -1.67572,1.17231 0.14446,0.37632 0.48893,2.14032 0.76562,3.91994 l 0.50304,3.23572 1.3156,-0.26312 c 0.72359,-0.14478 1.77487,-0.56405 2.33619,-0.93184 z m -8.14891,-8.51766 c 1.29703,-0.24364 3.38685,-0.74002 4.64406,-1.10306 2.58393,-0.74615 2.52734,-0.44756 1.15887,-6.11553 -0.55251,-2.2884 -3.10943,-8.53722 -3.49331,-8.53722 -0.22447,0 -4.75484,1.81212 -4.9048,1.96191 -0.0756,0.0756 0.5388,1.4874 1.36547,3.13744 2.40987,4.81016 2.33728,5.45584 -0.18963,1.68663 -1.29144,-1.92633 -2.46229,-3.65549 -2.6019,-3.84254 -0.21119,-0.28299 -4.70914,0.40156 -5.13822,0.78199 -0.0741,0.0657 0.46113,1.08789 1.18943,2.27153 1.26507,2.05598 2.69276,5.00682 4.14158,8.56008 0.752,1.84423 0.61715,1.80202 3.82845,1.19877 z m -15.95215,-13.39315 c -0.33655,-2.07394 -2.5028,-6.74072 -3.12892,-6.74072 -1.25251,0 -1.22027,0.12708 1.97743,7.79574 0.61026,1.4635 1.43723,0.70579 1.15149,-1.05502 z m 3.87552,-1.06983 c 0.34476,-0.55783 -1.27155,-6.00853 -2.12878,-7.1789 -0.59227,-0.8086 -0.67995,-0.81431 -1.74899,-0.11384 l -1.12544,0.73743 1.07238,2.42483 c 0.5898,1.33366 1.07237,2.60339 1.07237,2.82164 0,0.21826 0.19514,0.91011 0.43367,1.53747 0.36565,0.96174 0.56781,1.06883 1.28902,0.68284 0.47045,-0.25178 0.98156,-0.66193 1.13577,-0.91146 z m 7.53097,-1.47164 c 1.70505,-0.57992 3.82975,-1.40065 4.72155,-1.82383 1.54173,-0.73161 1.61014,-0.85374 1.39145,-2.4842 -0.12642,-0.94311 -0.3062,-1.79096 -0.39933,-1.88409 -0.0932,-0.0932 -2.12906,0.50189 -4.52432,1.32227 -2.39525,0.82037 -4.90463,1.60811 -5.57641,1.75053 -1.14268,0.24224 -1.20246,0.36393 -0.92755,1.88797 0.16166,0.89599 0.37811,1.77682 0.48108,1.95741 0.32059,0.56217 1.61976,0.36702 4.83353,-0.72606 z m -50.59378,-4.84307 c 0.39052,-0.85712 0.33564,-1.49324 -0.26449,-3.06464 -0.84405,-2.21007 -0.94424,-2.25228 -3.15465,-1.32869 -1.1293,0.47184 -1.49166,0.84812 -1.29937,1.34923 0.14661,0.38218 0.26667,0.86067 0.26667,1.06331 0,0.78834 2.31158,3.06241 3.11294,3.06241 0.47495,0 1.06226,-0.47447 1.3389,-1.08162 z m 52.01793,-2.6323 c 3.21071,-1.14082 3.94742,-1.80039 3.94742,-3.53414 v -1.53642 l -2.29848,1.71122 c -2.51787,1.87455 -4.26861,2.87971 -4.26861,2.45078 0,-0.15141 1.85732,-2.24409 4.12735,-4.65045 4.26527,-4.52142 5.50439,-6.42641 5.50439,-8.46228 0,-1.11485 -0.22731,-0.97973 -3.83081,2.27733 -4.48641,4.0551 -7.98995,6.92046 -7.98995,6.53455 0,-0.14991 2.68543,-3.17814 5.96761,-6.72928 5.94664,-6.43388 9.46129,-11.2744 14.80269,-20.38677 1.38579,-2.36415 2.42976,-4.38834 2.31992,-4.49818 -0.10987,-0.10987 -1.14974,0.91227 -2.31084,2.27137 -4.29652,5.02913 -20.77293,19.8604 -24.28183,21.85732 -0.36119,0.20556 3.67757,-3.9125 8.97502,-9.15126 5.29745,-5.23875 9.33907,-9.37255 8.98138,-9.18622 -0.35768,0.18634 -2.11037,1.30568 -3.89487,2.48741 -4.86653,3.22276 -7.04392,4.44416 -10.90657,6.11807 -2.43677,1.05598 -4.08975,2.12707 -5.41142,3.50643 -1.04662,1.0923 -2.44466,2.10062 -3.10678,2.24069 -0.66212,0.14015 -1.67554,0.35172 -2.25207,0.47032 -0.86802,0.17855 -1.08004,0.53602 -1.23339,2.07957 -0.16051,1.61489 0.0318,2.15646 1.43897,4.05299 0.89329,1.20396 2.33147,3.60565 3.19594,5.33711 0.86448,1.73145 1.85035,3.30755 2.19082,3.50244 0.34047,0.19491 1.04378,1.07774 1.56293,1.96186 l 0.94389,1.60751 2.93218,-0.81724 c 1.61268,-0.44948 3.81548,-1.1311 4.89511,-1.51473 z m -15.48971,0.38073 c 1.60569,-0.94099 1.90301,-1.31029 1.67428,-2.07958 -0.72357,-2.43369 -5.23941,-9.11449 -6.6491,-9.83675 -0.41903,-0.2147 -1.30941,-0.52131 -1.97863,-0.68137 l -1.21674,-0.29102 1.04309,1.65333 c 3.31526,5.2547 4.09699,8.2826 0.99201,3.84234 -3.6069,-5.15802 -4.60274,-6.34818 -5.31175,-6.34818 -0.69408,0 -0.90616,1.97164 -0.25535,2.37388 0.63903,0.39492 6.39969,8.21182 7.68783,10.43193 0.66363,1.14378 1.39906,2.07958 1.63429,2.07958 0.23524,0 1.30627,-0.51488 2.38007,-1.14416 z m -30.73846,0.0132 c 0.42966,-1.11969 0.27645,-3.39285 -0.29704,-4.40696 l -0.53174,-0.94032 -2.27618,0.85315 c -2.52145,0.94506 -2.57462,1.23033 -0.70143,3.76376 1.16602,1.57703 3.32268,1.99083 3.80639,0.73037 z m 6.87977,-2.2098 c 0.65319,-0.78704 0.72577,-3.59105 0.1203,-4.64759 -0.34383,-0.59999 -0.6864,-0.58123 -3.12507,0.17116 l -2.7389,0.84501 0.71211,1.40619 c 0.39167,0.77341 1.01442,1.75096 1.38389,2.17234 0.84476,0.96347 2.8676,0.99279 3.64766,0.053 z m -13.58784,-3.4752 c 2.93979,-1.0997 8.02643,-2.73222 11.30365,-3.62783 l 5.95858,-1.62839 0.1347,-1.60729 c 0.17084,-2.0375 -0.54625,-3.39592 -1.79194,-3.3945 -3.80302,0.005 -23.6188,6.71151 -24.62141,8.33376 -0.40463,0.6547 0.0938,2.41245 0.91778,3.23637 1.05561,1.05562 2.31393,0.85176 8.09856,-1.31212 z m -7.63889,-5.07817 c 3.53707,-1.57094 12.75065,-4.5328 18.27794,-5.87574 2.85866,-0.69456 5.28521,-1.49127 5.39235,-1.77045 0.33177,-0.86458 -0.74825,-4.13276 -1.45541,-4.40411 -1.17447,-0.45071 -18.42964,4.71298 -23.79458,7.12062 -1.41653,0.6357 -2.68149,1.43197 -2.81101,1.7695 -0.31522,0.82147 0.48054,2.88154 1.37567,3.56126 0.87959,0.66793 0.49201,0.71949 3.01504,-0.40108 z m 29.60755,-1.31667 c 0.56968,-0.29195 0.76224,-0.92194 0.75089,-2.45681 -0.0344,-4.64218 -2.18144,-13.10578 -3.90408,-15.38955 -0.65485,-0.86813 -0.97854,-0.94466 -2.82481,-0.6678 -1.6571,0.2485 -2.03667,0.45867 -1.84876,1.02366 0.13006,0.39103 0.46509,1.59752 0.74453,2.68108 0.27943,1.08358 0.67952,2.26565 0.88911,2.62684 1.50895,2.60054 1.83395,3.45721 1.90396,5.01875 0.0435,0.97198 0.31229,2.19757 0.59715,2.72352 0.28485,0.52596 0.51792,1.95805 0.51792,3.18243 0,2.20642 0.01,2.2236 1.20396,1.93835 0.66217,-0.15836 1.54873,-0.46449 1.97013,-0.68047 z m 11.19177,-3.92876 c -0.12857,-1.29153 -0.37047,-1.46888 -3.85852,-2.82886 -2.04675,-0.79801 -3.93162,-1.45854 -4.18859,-1.46782 -0.2977,-0.0116 -0.37713,0.65492 -0.21892,1.83445 l 0.24834,1.85133 3.28355,0.9463 c 4.65914,1.34274 4.89953,1.3257 4.73414,-0.3354 z m -43.40679,-1.27988 c 3.67605,-1.57612 10.65153,-3.89518 17.22017,-5.72501 3.4915,-0.97263 6.49201,-1.9036 6.66783,-2.06882 0.46381,-0.43585 -0.43501,-3.36442 -1.23683,-4.02986 -0.5667,-0.47031 -1.55523,-0.35572 -5.79343,0.67158 -6.0045,1.45544 -15.60186,4.51741 -18.60818,5.93681 -2.56991,1.21336 -3.18387,2.45369 -2.28244,4.6111 0.73559,1.76052 1.18046,1.82717 4.03288,0.6042 z m 49.14312,-2.4865 c 0.8225,-0.42102 1.80308,-1.24 2.17906,-1.81995 l 0.6836,-1.05446 -3.3516,0.30372 c -3.01002,0.27276 -9.37123,-0.0455 -8.96803,-0.44876 0.0884,-0.0884 2.60534,-0.4624 5.59338,-0.83128 8.29749,-1.02438 13.36062,-2.20704 16.12615,-3.76679 8.20412,-4.62712 31.85066,-21.89444 41.76775,-30.49988 7.42707,-6.44476 11.3517,-12.43404 12.81907,-19.56283 0.98677,-4.79391 0.6413,-14.30851 -0.69942,-19.26346 -1.14343,-4.22579 -3.25397,-9.41104 -4.44883,-10.93005 -1.04444,-1.3278 -3.29306,-1.60547 -2.78126,-0.34345 1.32167,3.25911 1.97332,5.88438 2.17867,8.77712 l 0.23939,3.372 -0.89564,-3.50204 c -0.49261,-1.92614 -1.50871,-4.83207 -2.25797,-6.45765 -1.27508,-2.76629 -1.45377,-2.95559 -2.7902,-2.95559 h -1.42789 l 0.65282,2.29848 c 0.35907,1.26417 0.75524,4.85965 0.8804,7.98996 0.37459,9.36864 -1.11172,13.5484 -8.13582,22.87928 -4.34968,5.77817 -9.87903,11.26749 -21.68152,21.52456 -4.31581,3.75069 -8.45307,7.35763 -9.19392,8.01541 l -1.34703,1.19598 2.40794,-0.69165 c 1.32437,-0.3804 6.00341,-1.82771 10.39789,-3.21627 4.39447,-1.38854 7.98995,-2.44781 7.98995,-2.35394 0,0.27423 -6.38429,3.10589 -9.7889,4.3417 -1.7195,0.62415 -5.78604,1.9658 -9.03674,2.98145 l -5.91039,1.84663 -7.09744,5.64878 c -3.9036,3.10684 -7.0236,5.72264 -6.93333,5.81291 0.56476,0.56476 16.07388,-3.94077 23.63338,-6.86571 1.91034,-0.73914 3.56722,-1.25001 3.68199,-1.13526 0.36582,0.36582 -9.62378,4.8675 -13.98844,6.30371 -2.31347,0.76126 -7.2203,2.05411 -10.90407,2.873 l -6.6978,1.4889 -2.55844,2.53176 c -1.40716,1.39246 -2.55845,2.6497 -2.55845,2.79386 0,0.14412 1.13283,0.61685 2.51738,1.05043 1.38455,0.43358 3.20692,1.1504 4.04971,1.59293 1.9474,1.02254 3.75847,1.04703 5.6546,0.0764 z m 32.6534,-35.3479 c 5.00355,-1.33165 15.08338,-4.78719 17.37595,-5.95677 2.64292,-1.34831 2.52443,-0.65363 -0.15124,0.88674 -4.90355,2.82292 -15.50236,6.18399 -19.36039,6.1395 -1.55102,-0.0179 -1.25096,-0.16814 2.1357,-1.06947 z m -44.27665,29.76655 2.07885,-2.40793 -2.10481,-0.045 c -2.09435,-0.0448 -2.08775,-0.0491 1.32938,-0.87526 2.98366,-0.72135 3.93132,-1.21398 7.22379,-3.7552 6.02416,-4.64964 10.96726,-8.65082 10.84202,-8.77606 -0.0634,-0.0634 -1.8669,0.26741 -4.00766,0.73523 -2.14077,0.46782 -3.95518,0.78772 -4.03201,0.71089 -0.17424,-0.17424 4.79138,-2.00736 8.86776,-3.27367 2.64281,-0.82096 3.78781,-1.55702 8.31833,-5.34739 16.50314,-13.80705 28.14828,-25.16925 30.31201,-29.57557 0.75288,-1.53317 0.93145,-0.74845 -2.0256,-8.90176 -1.65615,-4.56644 -1.80622,-8.53708 -0.48438,-12.81668 1.16213,-3.76252 1.78607,-7.1564 1.46802,-7.98521 -0.18367,-0.47862 -0.65126,-0.60749 -1.62965,-0.4491 -7.9364,1.28479 -9.72653,1.66329 -10.92687,2.31031 -0.76468,0.41218 -1.71112,0.77564 -2.10319,0.80769 -0.39208,0.0321 -2.43401,1.18018 -4.53763,2.5514 -2.10362,1.37121 -3.90593,2.41195 -4.00513,2.31275 -0.1895,-0.18949 2.06521,-2.30432 4.65865,-4.36963 1.43877,-1.14578 1.46225,-1.20386 0.38454,-0.95147 -0.63128,0.14777 -3.29096,0.50192 -5.91039,0.78681 l -4.76258,0.51802 -0.91861,1.81448 c -0.58363,1.15281 -1.02921,3.14064 -1.2219,5.45116 -0.22772,2.73048 -0.63083,4.30202 -1.61783,6.30688 -1.18495,2.40698 -1.30187,3.01942 -1.18604,6.2125 l 0.12857,3.5423 3.46148,-3.02179 c 3.80146,-3.31857 7.62209,-5.35247 11.78077,-6.27145 2.79399,-0.6174 7.55322,-1.22881 7.25468,-0.932 -0.0928,0.0923 -2.35466,0.87424 -5.02622,1.7376 -4.52778,1.46323 -8.14386,3.39744 -11.12252,5.94935 l -1.09452,0.9377 1.75124,-0.2904 c 0.96316,-0.15968 2.55909,-0.65806 3.5465,-1.10744 4.39006,-1.998 11.049,-1.98274 15.81232,0.0362 1.41255,0.5987 1.66638,0.80332 0.78024,0.62897 -0.72238,-0.14214 -3.57907,-0.36308 -6.34819,-0.49097 -6.32515,-0.29214 -10.21427,0.46196 -15.32321,2.97113 -3.50311,1.72049 -4.31329,2.42059 -13.81559,11.9385 -5.55185,5.56095 -13.7585,14.22199 -18.23701,19.24675 l -8.14272,9.13594 1.21546,2.70903 c 0.6685,1.48995 1.36163,3.16962 1.54031,3.73257 0.17867,0.56296 0.90186,1.93116 1.60708,3.04044 0.70521,1.1093 1.68724,3.34673 2.18228,4.97207 0.49502,1.62537 1.1388,2.9552 1.43062,2.9552 0.29181,0 1.46605,-1.08356 2.60941,-2.40794 z m 31.58028,-66.346 c 1.68103,-1.77895 6.63448,-5.14306 10.28647,-6.98595 2.9952,-1.51148 7.47138,-3.18438 7.75677,-2.89899 0.0927,0.0927 -2.88009,1.78432 -6.60606,3.75931 -3.72597,1.97496 -8.11911,4.47392 -9.76254,5.55322 -2.74046,1.79975 -2.87923,1.84717 -1.67464,0.57241 z m -71.79797,67.27415 c 0.80446,-0.58823 0.79477,-0.72386 -0.36783,-5.14421 -1.67349,-6.36278 -4.75873,-15.7041 -5.18675,-15.7041 -0.68293,0 -0.35144,3.03649 0.91699,8.39986 0.70124,2.96508 1.61475,7.11488 2.03005,9.22182 0.77092,3.91127 1.10534,4.32507 2.60754,3.22663 z m 4.7357,-1.8449 c 1.12647,-0.38384 2.04812,-0.8917 2.04812,-1.12862 0,-1.02794 -6.76565,-23.40594 -7.23393,-23.9269 -0.27599,-0.30703 -2.81883,1.28317 -3.41661,2.13661 -0.57074,0.81486 -0.48377,1.32613 0.86996,5.11368 1.30355,3.64714 3.28267,10.30453 4.9475,16.6424 0.26882,1.02339 0.54458,1.86068 0.6128,1.86068 0.0682,0 1.04569,-0.31403 2.17216,-0.69785 z m 6.67653,-2.21131 c 1.18666,-0.39607 2.20559,-0.75602 2.26429,-0.7999 0.0985,-0.0736 -4.77373,-17.18405 -6.17445,-21.68367 l -0.6133,-1.97014 -2.28295,0.0634 c -1.25562,0.0349 -2.49606,0.27643 -2.75653,0.5369 -0.33956,0.33958 0.0376,2.11803 1.33283,6.28486 0.99351,3.1962 2.225,7.28887 2.73664,9.09482 2.1606,7.62643 2.67116,9.19391 2.99462,9.19391 0.18771,0 1.31219,-0.32406 2.49885,-0.72013 z m 7.18855,-1.98873 c 1.70567,-0.39372 2.20224,-0.68581 2.0468,-1.20396 -0.11285,-0.37628 -1.32224,-4.8214 -2.68745,-9.87806 -1.68613,-6.24531 -2.75062,-9.42503 -3.31911,-9.91456 -0.86579,-0.74552 -5.10918,-1.95443 -5.49744,-1.56617 -0.12096,0.12096 1.17034,5.12235 2.86938,11.11436 1.69903,5.99202 3.08916,11.13615 3.08916,11.43139 0,0.6704 0.6542,0.67358 3.49866,0.017 z m 8.3221,-1.83695 c 3.43256,-0.66529 3.42574,-0.52217 0.31408,-6.5908 -1.69559,-3.30687 -3.02531,-5.17118 -5.54272,-7.77105 -1.82155,-1.88124 -3.54171,-3.42042 -3.82257,-3.42042 -0.34096,0 -0.0837,1.56374 0.77399,4.70641 0.70654,2.58853 1.8209,6.72579 2.47634,9.19392 1.34469,5.06349 0.9764,4.81703 5.80088,3.88194 z m 75.95931,-7.06204 c 0,-2.50369 -0.049,-2.62083 -1.09452,-2.62083 -1.01589,0 -1.1042,0.17002 -1.22921,2.36649 -0.13817,2.42707 0.30829,3.2278 1.66701,2.99009 0.49782,-0.087 0.65672,-0.74905 0.65672,-2.73575 z m 4.5092,-0.13469 0.13122,-2.76745 -1.22567,0.14064 c -1.13322,0.13006 -1.23589,0.30156 -1.3613,2.27404 -0.17429,2.74146 0.1102,3.43473 1.33764,3.26042 0.88857,-0.12609 1.0001,-0.41619 1.11818,-2.90762 z m 4.37724,0.0311 0.13039,-2.73627 h -1.3343 -1.33431 v 2.55386 c 0,2.82588 0.20301,3.23433 1.51431,3.04662 0.77392,-0.11087 0.91108,-0.49448 1.02396,-2.86421 z m 13.87945,0.10938 c 0,-2.5101 -0.0486,-2.62683 -1.09451,-2.62683 -0.99919,0 -1.10634,0.1858 -1.23016,2.1334 -0.17429,2.74145 0.11021,3.43472 1.33765,3.26042 0.89891,-0.12758 0.98702,-0.37464 0.98702,-2.76699 z m 4.37806,0 c 0,-2.54019 -0.0397,-2.6314 -1.20396,-2.76537 -1.19302,-0.13734 -1.20398,-0.115 -1.20398,2.44441 0,2.85523 0.20111,3.26369 1.51432,3.0757 0.78611,-0.11252 0.89362,-0.4439 0.89362,-2.75474 z m 4.37805,0 c 0,-2.54019 -0.0397,-2.6314 -1.20396,-2.76537 -1.19302,-0.13734 -1.20396,-0.115 -1.20396,2.44441 0,2.85523 0.2011,3.26369 1.5143,3.0757 0.78613,-0.11252 0.89362,-0.4439 0.89362,-2.75474 z m -35.68117,0.22724 c 0,-1.05974 -1.23775,-1.42643 -4.18422,-1.23958 -1.70773,0.10821 -2.18892,0.30946 -2.314,0.9674 -0.13701,0.72029 0.0415,0.79829 1.34322,0.58705 0.82563,-0.13403 2.1755,-0.0847 2.99972,0.10954 2.18134,0.5141 2.15528,0.51923 2.15528,-0.42446 z m 18.82566,0.23035 c 0.60198,0 1.7348,0.13833 2.51738,0.30751 1.30486,0.28201 1.42287,0.21764 1.42287,-0.77605 0,-1.07263 -0.0397,-1.08357 -3.94025,-1.08357 -3.90046,0 -3.94025,0.0116 -3.94025,1.08357 0,0.99369 0.11798,1.05806 1.42286,0.77605 0.78259,-0.16913 1.91539,-0.30751 2.51739,-0.30751 z m 23.06169,0.13817 c 2.0279,0.0242 2.36739,-0.0849 2.24594,-0.72145 -0.11649,-0.61101 -0.73038,-0.77382 -3.31254,-0.87863 -3.15771,-0.12807 -3.16945,-0.12443 -3.16945,1.01458 0,0.96371 0.14496,1.09718 0.92352,0.85008 0.50793,-0.16116 1.99857,-0.28027 3.31253,-0.26458 z m -102.75533,-14.6216 c 3.48435,-3.8439 9.87656,-10.58521 14.20489,-14.9807 l 7.86969,-7.9918 -2.38414,0.70581 c -3.15718,0.93467 -7.23962,2.47859 -9.63723,3.64464 l -1.94083,0.94391 1.31342,-1.12929 c 2.01743,-1.73462 7.97166,-4.52267 11.38296,-5.33006 1.68556,-0.39895 3.13832,-0.78332 3.22836,-0.85416 0.17069,-0.13436 -0.45065,-1.23591 -3.18044,-5.63877 l -1.62864,-2.62683 2.76048,2.88953 2.76049,2.88952 -0.14892,-2.82945 c -0.17626,-3.34716 0.44451,-6.12408 1.86511,-8.34326 0.75909,-1.18579 1.10074,-2.50737 1.29392,-5.0051 0.14446,-1.86663 0.56048,-4.10708 0.9247,-4.97879 0.92947,-2.22456 0.87204,-2.3536 -1.04774,-2.3536 -1.54928,0 -1.83652,0.19107 -3.05661,2.03307 -0.74066,1.11818 -1.47527,2.71865 -1.63246,3.55661 -0.30331,1.61674 0.13965,10.6021 0.58386,11.84362 0.14495,0.40534 0.0922,0.57961 -0.11765,0.38811 -0.20945,-0.19115 -0.7187,-1.96426 -1.13168,-3.94025 -0.41298,-1.97599 -0.76553,-3.36591 -0.78347,-3.0887 -0.0179,0.2772 -0.69611,0.89551 -1.5071,1.374 -1.06253,0.6269 -1.67161,1.44842 -2.17992,2.94025 -0.48884,1.43469 -1.6839,3.09619 -3.89263,5.41199 -4.62728,4.85161 -9.83771,11.42747 -14.51483,18.31856 -4.46796,6.58289 -9.22773,14.17184 -10.70611,17.06971 l -0.93765,1.83795 1.20128,1.98477 1.20126,1.98478 1.75122,-1.86858 c 0.96318,-1.02772 4.60207,-5.01359 8.08643,-8.85749 z m 66.58131,-33.43412 c 1.49795,-3.97343 1.84302,-6.49768 1.61632,-11.82404 -0.23476,-5.51613 -1.03868,-9.63592 -1.94844,-9.98503 -0.31686,-0.12162 -1.41098,-0.0956 -2.4314,0.0578 l -1.85529,0.27878 -0.0255,2.72533 c -0.0132,1.49892 -0.39611,4.10439 -0.84907,5.78995 -1.33543,4.96925 -1.14318,7.96635 0.87677,13.6703 l 1.7403,4.91417 0.99219,-1.63064 c 0.5457,-0.89684 1.39356,-2.69528 1.88412,-3.99652 z m -26.29019,-20.42333 c 2.28754,-0.33077 7.31135,-1.09847 11.16404,-1.70599 8.90473,-1.40418 14.36398,-1.9746 18.98982,-1.98417 l 3.66663,-0.008 -0.27364,-1.36814 c -0.15041,-0.75247 -0.27362,-1.63903 -0.27362,-1.97012 0,-1.26217 -13.67319,-0.49009 -28.89518,1.63164 -5.17706,0.72159 -11.44176,1.43101 -13.92158,1.57648 l -4.50876,0.26448 0.13072,2.01242 c 0.12527,1.92764 0.19526,2.02292 1.66303,2.26181 2.02113,0.32897 7.10703,0.0341 12.25855,-0.71081 z m 8.5372,-3.69729 c 2.09148,-0.67505 11.47554,-2.12293 15.54211,-2.39802 2.04675,-0.1385 4.70641,-0.0839 5.91039,0.12129 2.18675,0.37259 2.18493,0.37328 -1.75124,0.66515 -2.16714,0.16068 -6.99395,0.60872 -10.72624,0.99562 -11.07958,1.14849 -10.50209,1.10886 -8.97502,0.61598 z m -18.86474,-2.47091 2.05323,-0.28143 -1.09329,-1.14145 c -1.0505,-1.09675 -1.99686,-2.98099 -2.66223,-5.30059 -0.20093,-0.70045 0.14958,-0.37916 0.97366,0.89239 0.70818,1.0928 2.15569,2.73749 3.2167,3.65485 l 1.92908,1.66796 3.039,-0.2727 c 3.40594,-0.30564 3.91618,-0.54147 2.64883,-1.22429 -1.33336,-0.71839 -4.47224,-4.08971 -5.30187,-5.69449 -0.67201,-1.29986 -0.50007,-1.20999 1.86771,0.97628 1.43429,1.32437 3.64485,2.96907 4.91232,3.65491 2.17619,1.17755 2.4979,1.22987 5.77811,0.93951 1.9105,-0.16913 3.47363,-0.43919 3.47363,-0.60018 0,-0.161 -0.69676,-0.6679 -1.54834,-1.1265 -2.13287,-1.14863 -7.30394,-6.69397 -10.64517,-11.41567 -4.1827,-5.9108 -7.28571,-11.39727 -10.37778,-18.34904 -2.5586,-5.75238 -5.80996,-15.35443 -5.3537,-15.81072 0.10557,-0.10557 0.93921,1.82629 1.85264,4.29294 3.32988,8.99218 9.28868,20.73463 14.60618,28.78302 3.21019,4.85886 8.29371,9.90617 11.68507,11.60186 2.53394,1.26697 2.81845,1.31041 8.04569,1.22807 4.83079,-0.0761 5.66824,-0.20735 7.71694,-1.20969 1.43227,-0.70074 2.89579,-1.89152 3.88452,-3.1606 0.87254,-1.11994 1.58643,-1.79712 1.58643,-1.50485 0,0.79089 -1.29027,3.19633 -2.31657,4.31871 l -0.9007,0.98506 h 2.4153 c 2.3001,0 2.45374,-0.0713 3.22089,-1.49588 0.7825,-1.45302 0.78236,-1.5976 -0.005,-5.04619 l -0.81087,-3.55032 -1.78644,1.80658 c -2.12159,2.1455 -3.48395,2.9082 -5.87883,3.29115 -2.82631,0.45195 -4.6801,-0.14396 -7.73676,-2.48668 -1.57018,-1.20348 -4.01015,-2.86523 -5.42214,-3.69278 -1.41199,-0.82754 -3.09491,-2.14887 -3.73985,-2.93629 -2.13999,-2.61282 -8.74391,-13.19585 -11.17013,-17.90057 -1.48925,-2.8878 -2.80969,-4.87906 -3.50245,-5.28175 -0.62587,-0.36382 -1.91657,-2.16862 -2.95258,-4.12864 -1.01233,-1.91525 -2.34572,-3.9568 -2.96309,-4.5368 -1.26261,-1.18616 -2.42009,-4.57993 -2.42009,-7.09579 0,-0.91947 -0.14214,-1.67176 -0.31597,-1.67176 -0.17376,0 -1.94688,1.11927 -3.94025,2.48726 l -3.62429,2.48726 0.005,3.09478 c 0.0132,8.67449 1.98171,22.14487 4.81257,32.92288 0.95988,3.65454 1.87618,7.0083 2.03626,7.4528 0.71418,1.98317 -0.47525,-0.0693 -1.85047,-3.19316 l -1.51499,-3.44136 0.21557,2.84574 c 0.11865,1.56515 0.32972,4.40171 0.46921,6.30346 0.27369,3.73135 1.28471,6.31044 2.92377,7.45849 1.09468,0.76674 1.53235,0.80635 4.46632,0.40421 z m 30.4666,-6.01002 c -4.93838,-1.07999 -11.35605,-5.54767 -15.5735,-10.84157 -4.38277,-5.50143 -4.2488,-5.77265 0.47917,-0.9701 5.25089,5.33367 10.85939,9.35074 15.45459,11.06923 1.48741,0.55626 2.70437,1.08584 2.70437,1.17688 0,0.21809 -0.22967,0.18553 -3.06463,-0.43444 z m -32.163,-9.77904 c -3.54994,-8.95074 -6.36316,-18.62858 -6.97322,-23.98875 l -0.24913,-2.18902 0.60766,1.97012 c 0.33421,1.08358 1.41662,4.82681 2.40532,8.31832 0.98871,3.4915 2.47151,8.61043 3.29508,11.3754 0.82358,2.76497 1.43626,5.08836 1.36152,5.16309 -0.0748,0.0748 -0.27599,-0.21738 -0.44723,-0.64916 z m 39.5834,3.60455 c 1.80397,-0.93287 4.83044,-4.56258 6.71766,-8.05665 1.95981,-3.62844 3.37417,-8.84959 3.37417,-12.45584 0,-3.48995 0.4461,-2.9001 0.82989,1.09728 l 0.30769,3.20487 1.1367,-3.50245 c 1.86519,-5.74709 2.23058,-9.28417 2.0297,-19.64835 -0.1006,-5.18689 -0.13039,-9.37824 -0.0662,-9.31411 0.30966,0.30966 1.39815,6.58991 1.68102,9.69901 l 0.31868,3.50244 0.60453,-1.97012 c 2.70692,-8.82175 2.30757,-19.876001 -0.95031,-26.305135 -0.83194,-1.641727 -4.33133,-6.642426 -5.88223,-8.405789 -0.166,-0.188752 -2.1468,0.747063 -4.40179,2.079576 -2.25498,1.332513 -4.46271,2.422744 -4.90605,2.422744 -0.44335,0 -1.57844,-0.394017 -2.52243,-0.875617 -2.37785,-1.213093 -5.21506,-1.131764 -7.89505,0.22628 -2.48941,1.261477 -2.77101,2.276635 -1.30051,4.688458 1.04705,1.717296 1.10511,3.006423 0.21314,4.731331 -0.98835,1.911227 -2.99715,2.769701 -6.27869,2.683193 -2.47524,-0.0652 -2.75143,0.0099 -2.49285,0.684384 0.25711,0.670004 0.72527,3.474385 1.41758,8.491565 0.13668,0.99098 -0.0455,2.09604 -0.48631,2.94843 -0.67555,1.30636 -0.65699,1.45527 0.44379,3.56046 1.03228,1.97421 5.01183,6.13475 5.86786,6.13475 0.832,0 0.7087,-1.98951 -0.30367,-4.9006 -0.80907,-2.32648 -1.1418,-4.31776 -1.26266,-7.55689 l -0.16414,-4.39804 0.63532,2.84575 c 1.09304,4.89594 2.06058,8.31835 2.35141,8.31757 0.15389,-4e-4 0.33173,-1.99213 0.39529,-4.42606 0.15736,-6.02832 1.12631,-10.360119 3.39194,-15.165001 1.05025,-2.227341 1.97898,-4.04971 2.06387,-4.04971 0.0849,0 -0.66989,2.511916 -1.67725,5.582028 -1.00737,3.070112 -1.94535,6.567083 -2.08439,7.771043 l -0.25284,2.18903 1.4517,-3.06465 c 3.54167,-7.476719 9.35535,-12.175452 16.168,-13.067302 2.42721,-0.317752 2.4349,0.339379 0.01,0.794421 -5.75122,1.07893 -11.49632,6.622288 -14.53451,14.024121 -2.31596,5.64229 -2.19446,5.90115 1.1205,2.38712 3.17861,-3.36948 5.74864,-5.33151 8.35221,-6.376252 l 1.63692,-0.656849 -1.53231,1.182861 c -0.84277,0.65058 -3.05929,2.74777 -4.92561,4.66044 -2.65512,2.72107 -3.81908,4.35006 -5.35069,7.48831 -1.07656,2.2059 -2.08937,4.78131 -2.2507,5.72313 -0.26742,1.56119 -0.22019,1.68195 0.53481,1.36767 0.45548,-0.18958 2.30574,-0.43922 4.11168,-0.55475 3.73259,-0.23876 6.97269,0.65365 9.9072,2.72875 0.93206,0.65908 1.30064,1.04618 0.81904,0.86019 -4.23197,-1.63439 -6.00111,-2.04895 -8.7561,-2.05176 -1.68556,-0.002 -3.52095,0.17623 -4.07865,0.39547 -0.90933,0.35748 -0.75114,0.48109 1.53231,1.19721 7.15817,2.24488 11.30696,6.29995 12.57904,12.29486 0.21149,0.99668 -0.0455,0.73351 -1.066,-1.09124 -1.60223,-2.86511 -3.03931,-4.43297 -5.64877,-6.16278 -2.53124,-1.67794 -3.0304,-1.62668 -1.36021,0.13966 3.29979,3.48979 4.84819,10.30962 3.3548,14.77595 l -0.65875,1.97012 0.23702,-2.22393 c 0.29341,-2.75336 -0.50385,-6.77366 -1.85976,-9.37791 -1.84465,-3.54298 -1.95553,-3.54298 -1.72073,0 l 0.21761,3.28353 -0.80906,-2.84573 c -1.13379,-3.98788 -1.96099,-5.74689 -3.27007,-6.95373 l -1.13175,-1.04333 0.46868,1.6974 c 0.66769,2.41813 0.21299,7.83727 -0.9013,10.74211 -1.6106,4.19867 -5.69686,8.10366 -8.72096,8.33409 -0.76568,0.0582 -1.39214,0.22491 -1.39214,0.37014 0,0.47219 3.43866,2.21167 6.46098,3.26835 2.17742,0.76127 2.6292,1.04057 1.72203,1.06461 -1.53622,0.0407 -1.2805,0.46789 1.30544,2.18073 2.31633,1.53429 5.01154,1.80248 7.12587,0.70912 z m -14.49978,-10.24467 c 0.43891,-0.27824 -0.15389,-1.29351 -2.40792,-4.12446 -1.64459,-2.06544 -3.44714,-4.60526 -4.00566,-5.64403 l -1.01551,-1.88865 2.10337,2.40793 c 1.15687,1.32436 3.27389,3.64287 4.70451,5.15224 l 2.60114,2.74433 1.19591,-1.14576 c 1.89419,-1.81474 3.58143,-6.06679 3.80796,-9.59643 0.26782,-4.17326 -0.44912,-5.754 -3.69456,-8.1459 -1.40692,-1.03692 -3.52361,-2.78051 -4.70376,-3.87466 -1.54124,-1.42891 -2.2063,-1.8134 -2.36075,-1.36476 -0.82827,2.40593 -7.41659,7.03702 -10.01106,7.03702 -0.56352,0 -1.02459,0.067 -1.02459,0.14909 0,0.43346 5.64239,10.51416 7.14557,12.76625 3.39675,5.08913 4.18983,5.91097 5.69705,5.90369 0.76234,-0.003 1.64808,-0.1728 1.9683,-0.37582 z m -12.56748,-21.30682 c 2.82557,-0.99508 5.11296,-2.74351 6.34937,-4.85328 0.84169,-1.43621 0.99048,-2.05054 0.64369,-2.65756 -1.19775,-2.09656 -1.1842,-2.09368 -3.01595,-0.6429 -0.95794,0.75869 -2.8972,1.98992 -4.30947,2.73606 -2.20179,1.16325 -2.9224,1.33162 -5.0558,1.18127 -2.79462,-0.19694 -2.77187,-0.34507 -0.50212,3.26929 0.85853,1.36713 1.27721,1.64178 2.50278,1.64178 0.80948,0 2.33386,-0.30361 3.3875,-0.67466 z m -1.42909,-7.31531 c 3.07469,-1.65717 7.09991,-4.81516 7.75696,-6.08574 0.70871,-1.37049 0.8235,-2.99873 0.21142,-2.99873 -0.22616,0 -1.95003,1.1044 -3.83081,2.45422 -4.43153,3.1805 -6.30528,4.11287 -8.26547,4.11287 -1.52302,0 -1.58321,0.0558 -1.29566,1.20151 0.64727,2.57899 2.32485,2.98599 5.42356,1.31587 z m -29.27459,-0.4378 c -0.005,-1.54725 -2.3836,-4.64052 -3.60902,-4.6925 -1.17717,-0.05 0.3605,3.87703 1.95559,4.99429 1.31814,0.92325 1.65682,0.86143 1.65343,-0.30179 z m 22.56154,0.4378 c -0.0988,-0.30099 -0.68827,-2.61381 -1.3098,-5.13963 -1.13452,-4.61062 -2.91587,-8.2748 -4.95337,-10.188939 -0.90666,-0.851756 -0.87532,-0.693269 0.32937,1.666349 1.01784,1.99363 1.42651,3.55245 1.73563,6.62027 0.41604,4.12895 1.20535,6.33622 2.54473,7.11633 1.06003,0.61742 1.86871,0.58105 1.65344,-0.0745 z m -19.19388,-1.28028 c 1.57046,-1.47536 1.25873,-3.60749 -0.86898,-5.94351 -1.09843,-1.20598 -2.91762,-1.27399 -4.29274,-0.16051 l -1.01834,0.82461 1.36581,1.14925 c 0.7512,0.63208 1.72941,2.0334 2.17379,3.11401 0.44441,1.08063 0.99231,1.96551 1.21758,1.9664 0.22527,9.1e-4 0.86558,-0.42671 1.42288,-0.95028 z m 4.07792,-5.82096 c 0,-1.30022 -0.1915,-2.86768 -0.42554,-3.48326 -0.38726,-1.01858 -0.52767,-1.07268 -1.56152,-0.60162 -0.86129,0.39243 -1.0717,0.73558 -0.87014,1.41907 0.14627,0.49582 0.48769,2.02369 0.75881,3.39527 0.43888,2.22027 0.58097,2.44667 1.29566,2.06417 0.62627,-0.33518 0.80273,-0.94922 0.80273,-2.79363 z m 21.86958,1.09385 c 1.99183,-1.19712 4.50952,-2.90424 5.59487,-3.79361 1.94756,-1.59589 1.97008,-1.64485 1.72145,-3.74422 -0.34009,-2.871429 -0.54202,-3.10087 -2.04506,-2.323625 -0.69675,0.360311 -1.56847,0.655096 -1.93717,0.655096 -0.83602,0 -4.14226,2.308389 -6.45295,4.505379 -0.96004,0.9128 -2.33179,1.77688 -3.04832,1.92019 -0.90565,0.18114 -1.2282,0.45501 -1.05805,0.89842 0.1347,0.35083 0.36961,1.16134 0.52218,1.80116 0.69704,2.92303 1.94946,2.9382 6.70305,0.0812 z m -19.34017,-0.69398 c 0.78528,-0.55002 0.97303,-1.10464 0.97303,-2.87451 0,-3.41214 -1.01779,-4.65339 -2.73818,-3.33938 -0.65095,0.49717 -0.65742,0.7676 -0.0707,2.95518 0.35523,1.32437 0.55993,2.75271 0.45491,3.17409 -0.23563,0.94543 0.12079,0.96727 1.3809,0.0846 z m -5.59406,-1.4238 c 0,-0.19477 -0.26545,-0.71715 -0.58988,-1.16084 -0.42478,-0.58093 -0.6804,-0.66026 -0.9133,-0.28341 -0.17788,0.28781 -0.0854,0.8102 0.20568,1.16083 0.57493,0.69274 1.2975,0.85057 1.2975,0.28342 z m 9.05625,-1.03561 c 1.17457,-1.10345 1.30121,-2.76518 0.37891,-4.97252 -0.69908,-1.673113 -1.00085,-1.800839 -2.19385,-0.928482 -0.69926,0.511302 -0.7395,0.782082 -0.30258,2.035442 0.27718,0.79513 0.50397,2.20436 0.50397,3.13158 0,1.94371 0.21955,2.04359 1.61355,0.73398 z m 2.32671,-2.11272 c 0,-0.48158 -0.15505,-0.8756 -0.34465,-0.8756 -0.18954,0 -0.37432,0.39402 -0.41059,0.8756 -0.0362,0.48158 0.11881,0.87562 0.34464,0.87562 0.22583,0 0.4106,-0.39404 0.4106,-0.87562 z m 8.72433,-0.27794 c 0.49906,-0.63446 0.90739,-1.29346 0.90739,-1.46444 0,-0.171 -0.79226,-1.536668 -1.76057,-3.034833 -2.04648,-3.166299 -3.21918,-3.433269 -4.43026,-1.008555 -0.70836,1.418242 -0.69691,1.473956 0.8319,4.049708 1.77295,2.98706 2.94651,3.37147 4.45154,1.45812 z m 4.57013,-3.357348 1.25481,-1.004105 -1.35321,-2.605605 c -1.64257,-3.162825 -2.38408,-4.137939 -3.14658,-4.137939 -0.80993,0 -2.6068,1.766789 -2.6068,2.563179 0,0.918027 3.49474,6.193428 4.10114,6.190758 0.27271,-0.001 1.0605,-0.45402 1.75064,-1.006288 z m -49.17852,-1.88591 c -1.74839,-1.991298 -2.20505,-3.195026 -2.20505,-5.812263 0,-3.084674 1.14204,-5.893277 3.43329,-8.443367 2.18291,-2.429529 5.44708,-4.740283 6.69612,-4.740283 0.42022,0 0.90297,-0.224774 1.07275,-0.499487 0.22493,-0.363918 -0.58339,-0.442235 -2.97816,-0.288547 -2.45132,0.157362 -4.05348,0.563706 -6.30268,1.598688 l -3.01584,1.387746 1.80914,-1.72365 c 2.77183,-2.64085 8.45994,-3.919552 11.79505,-2.65154 2.19759,0.835524 1.64623,0.01489 -0.73473,-1.093144 -2.82525,-1.315171 -5.09126,-1.392661 -8.61896,-0.294718 -3.42523,1.066056 -5.38133,2.614987 -7.45803,5.905638 -2.84402,4.50649 -3.65953,6.413431 -3.72316,8.705884 -0.0564,2.034453 0.0586,2.271456 1.98703,4.093511 2.23155,2.108434 3.33799,2.55747 2.51567,1.020933 -0.9021,-1.685576 -0.14065,-1.293131 1.25102,0.644836 1.18735,1.653359 4.2688,3.769239 5.49094,3.770364 0.20553,1.99e-4 -0.25094,-0.711074 -1.0144,-1.580601 z M 151.7213,96.89962 c 3.13032,-0.734124 5.82739,-1.412551 5.99351,-1.507597 0.16611,-0.09498 0.0184,-0.851739 -0.32836,-1.681521 -1.22792,-2.938845 -0.67189,-7.689188 1.21763,-10.402382 0.46114,-0.662177 0.73965,-1.203976 0.61889,-1.203976 -0.1208,0 -2.94161,-0.503971 -6.26855,-1.11995 -7.72781,-1.430785 -9.32724,-1.163054 -13.56805,2.271207 -2.09523,1.696729 -4.52057,6.132232 -4.52057,8.267258 v 1.398154 l 3.34959,0.283136 c 1.84227,0.155707 4.84673,0.307807 6.67654,0.337955 3.09305,0.05097 3.18844,0.07943 1.35681,0.405352 -1.08357,0.192806 -3.891,0.365159 -6.23873,0.382997 -4.77672,0.0364 -5.15052,0.337128 -2.99051,2.406544 2.42594,2.324207 5.34779,2.356573 14.7018,0.162823 z m 22.55617,-1.666299 1.23985,-1.099498 -2.21224,-1.636778 c -2.45706,-1.817935 -3.03533,-1.953737 -4.04026,-0.948805 -1.18822,1.188223 -0.81656,2.626306 1.16633,4.513027 1.61383,1.53556 1.90311,1.667589 2.23041,1.017987 0.20683,-0.410531 0.93401,-1.24119 1.61591,-1.845933 z m 14.93311,1.725785 c 1.09475,-0.585879 0.82932,-2.144821 -0.97702,-5.738595 -1.47872,-2.94194 -1.74263,-3.151408 -3.15792,-2.506555 -2.04516,0.931827 -2.08425,2.047541 -0.19412,5.539304 1.78438,3.296425 2.44916,3.711936 4.32906,2.705846 z m -23.82237,-1.888657 c 0.0703,-0.07032 -0.19565,-0.77612 -0.59094,-1.568506 -1.0787,-2.162294 -1.21546,-4.789361 -0.42928,-8.245911 0.38852,-1.708196 0.70641,-3.200949 0.70641,-3.317192 0,-0.348926 -2.6623,0.525334 -3.35798,1.102691 -1.96695,1.632411 -3.13783,6.145156 -2.35181,9.064194 0.75232,2.79391 1.89132,3.732852 4.09981,3.37969 0.98779,-0.158024 1.8535,-0.344691 1.92379,-0.414966 z m 28.82863,-3.553483 c -0.30983,-2.044612 -1.99024,-6.445483 -2.38469,-6.245297 -1.20793,0.613016 -3.11124,1.91816 -3.11348,2.134992 -0.002,0.147268 0.80303,1.987293 1.7879,4.08896 l 1.79069,3.821213 1.09248,-1.024325 c 0.9309,-0.872804 1.05323,-1.283318 0.8271,-2.775543 z m 5.40921,2.226282 c 0.69251,-0.737135 0.90423,-1.337758 0.69924,-1.98362 -0.25369,-0.799319 -0.51452,-0.886604 -1.90201,-0.636463 -2.1489,0.387431 -2.14184,0.380994 -2.3473,2.140982 -0.17128,1.467122 -0.11765,1.536371 1.18873,1.536371 0.88037,0 1.72218,-0.376907 2.36134,-1.05727 z m -20.08209,-2.761875 c 1.20659,-0.315534 1.07779,-0.67007 -0.78815,-2.169244 -1.92036,-1.542908 -4.1734,-2.767732 -5.09119,-2.767732 -0.83844,0 -2.02315,1.190655 -2.02315,2.033294 0,0.361535 1.22557,1.805674 2.72348,3.209173 l 2.72349,2.551844 0.80095,-1.317058 c 0.44052,-0.724378 1.18508,-1.417498 1.65457,-1.540277 z m -12.71835,0.574512 c 0,-0.339776 0.59105,-1.115102 1.31342,-1.722956 0.72238,-0.607837 1.31342,-1.42635 1.31342,-1.818911 0,-0.392577 0.20394,-1.094832 0.4532,-1.560596 0.57023,-1.065478 -0.13039,-1.11995 -2.36986,-0.184234 -1.57214,0.656865 -1.58579,0.685144 -1.58579,3.283535 0,1.45544 0.19469,2.62096 0.43781,2.62096 0.24079,0 0.4378,-0.278006 0.4378,-0.617798 z m 17.47353,-3.966876 c 0.50288,-0.159679 0.91432,-0.461529 0.91432,-0.670931 0,-0.738575 -3.30665,-3.592104 -5.13902,-4.434792 -2.09246,-0.962307 -3.33741,-0.636662 -3.85991,1.009631 -0.23461,0.739154 -0.021,1.150396 0.9554,1.840174 0.69165,0.48855 2.14409,1.784279 3.22766,2.879375 l 1.97013,1.9911 0.50854,-1.162195 c 0.27971,-0.639194 0.92,-1.29275 1.42288,-1.452362 z m 13.79832,1.269865 c 0.37838,-0.378396 0.68782,-1.215691 0.68762,-1.860676 -3.8e-4,-1.285337 -2.24602,-6.358462 -3.02874,-6.842197 -0.40275,-0.248916 -3.538,1.271322 -3.538,1.715526 0,0.07363 0.90268,1.830627 2.00595,3.904544 2.03756,3.830247 2.64346,4.312493 3.87317,3.082803 z m -8.3374,-3.829519 c 1.09926,-0.879622 1.19724,-1.133701 0.7554,-1.95928 -0.473,-0.883775 -7.16812,-6.2196 -7.80406,-6.2196 -0.59767,0 -2.31332,1.933019 -2.30203,2.593708 0.007,0.379405 0.78886,1.169144 1.73864,1.754973 0.94978,0.585813 2.56159,1.915646 3.58183,2.955177 1.02022,1.039548 2.0602,1.889087 2.31105,1.887896 0.25085,-0.0012 1.02449,-0.456995 1.71917,-1.012874 z m -21.73049,-0.574313 c 0.73919,-0.198101 0.98506,-0.58626 0.98506,-1.55512 0,-0.71013 0.20396,-1.672222 0.45322,-2.13797 0.7124,-1.331123 -0.27138,-1.018434 -1.28811,0.409405 -1.05449,1.48089 -1.90532,3.56217 -1.45275,3.553649 0.17464,-0.0033 0.7608,-0.124765 1.30258,-0.269964 z m 6.23873,-1.604628 c 0,-1.07021 1.94153,-2.935288 3.05558,-2.935288 0.54726,0 1.06058,-0.405666 1.29563,-1.023894 0.38072,-1.001341 2.83065,-3.354175 3.49263,-3.354175 0.18365,0 0.55834,-0.492521 0.83263,-1.0945 0.4805,-1.05459 0.4425,-1.094518 -1.04169,-1.094518 -4.12442,0 -11.57503,6.043557 -11.57503,9.389077 0,0.774036 0.27455,0.899363 1.97013,0.899363 1.60344,0 1.97012,-0.146276 1.97012,-0.786065 z m 25.8033,-0.855711 c -0.69264,-2.439805 -1.38949,-3.869332 -1.81676,-3.726912 -0.22587,0.07529 -0.42007,0.292881 -0.43153,0.483519 -0.0243,0.403035 2.25179,4.666252 2.49121,4.666252 0.0885,0 -0.0207,-0.640286 -0.24292,-1.422859 z m 2.41458,0.914783 c 1.32083,-0.601814 1.34891,-0.911044 0.29173,-3.21326 -1.02926,-2.241405 -2.51568,-3.622053 -3.18209,-2.95564 -0.35124,0.351243 -0.22944,1.004733 0.44816,2.40446 0.51176,1.057187 0.93049,2.450973 0.93049,3.097332 0,1.344393 0.0132,1.350052 1.51171,0.667108 z m 19.06515,-4.310706 c 2.76912,-1.623193 9.66457,-5.607576 15.32321,-8.854179 28.2404,-16.202714 46.11353,-27.417421 59.19325,-37.141492 3.44153,-2.558595 5.87916,-5.224679 4.77698,-5.224679 -0.24019,0 -0.54975,0.18291 -0.68792,0.406477 -0.13817,0.22355 -4.04079,2.758532 -8.67251,5.633274 -4.6317,2.874758 -13.6857,8.496665 -20.12,12.493127 -6.4343,3.996479 -21.01324,13.239496 -32.39764,20.540045 -11.38439,7.300549 -21.73323,13.928065 -22.99738,14.727798 -1.26418,0.799749 -2.2985,1.537116 -2.2985,1.638582 0,0.281465 2.34149,-0.972086 7.88051,-4.218953 z m 3.94025,-5.431715 c 6.38103,-4.206245 11.99589,-7.931734 12.47747,-8.278873 0.76625,-0.552322 0.89389,-1.230534 1.022,-5.430276 0.11731,-3.845785 0.0149,-4.930904 -0.51698,-5.462493 -0.60607,-0.60605 -6.2962,-2.584309 -9.11943,-3.170502 -0.9477,-0.196761 -2.07761,0.378413 -5.91037,3.008706 -2.60627,1.788581 -8.32734,5.679688 -12.71348,8.646911 l -7.97481,5.394932 -0.01,2.407918 c -0.01,2.250606 0.0852,2.469406 1.4435,3.34873 l 1.4532,0.940779 3.24778,-1.98918 c 3.3853,-2.073387 15.25568,-9.187667 17.91427,-10.736548 3.44464,-2.006819 -0.22933,0.79917 -9.63172,7.35623 -5.41785,3.77829 -9.92673,6.940056 -10.01972,7.026117 -0.093,0.08604 0.20252,1.172718 0.65672,2.414785 0.73917,2.021413 1.03245,2.334433 2.79591,2.9842 1.85639,0.683987 2.00804,0.681455 2.62683,-0.04385 0.36119,-0.423388 5.87755,-4.211276 12.25856,-8.417537 z m -18.83526,7.90099 c -0.0215,-1.107557 -1.69765,-4.106269 -3.05272,-5.461318 -1.27243,-1.272447 -1.51969,-1.366765 -2.08942,-0.797036 -0.56973,0.569746 -0.48264,0.849721 0.73588,2.366005 0.76013,0.945892 1.57376,2.414107 1.80807,3.262719 0.36796,1.332595 0.57473,1.514496 1.51691,1.334382 0.6,-0.11467 1.08658,-0.431843 1.08128,-0.704752 z m -13.74446,-1.12652 1.4658,-1.286991 -1.33696,-1.124997 c -3.36942,-2.835178 -6.89214,-4.178463 -8.01449,-3.056114 -1.03098,1.030977 -0.84322,1.656735 0.75542,2.517658 0.79407,0.427641 2.32093,1.547607 3.39299,2.488816 1.07207,0.94121 2.02172,1.719696 2.11033,1.729972 0.0887,0.0099 0.82071,-0.560496 1.62691,-1.268344 z m -34.18565,-2.085003 c -1.20398,-1.113116 -3.07559,-2.602064 -4.15915,-3.30877 -1.26914,-0.827746 -1.5807,-1.171907 -0.87562,-0.967254 1.87079,0.543006 4.11032,1.812094 6.81334,3.860976 1.42972,1.083728 2.66466,1.789573 2.74433,1.568555 0.0796,-0.221002 -0.86415,-2.324174 -2.09736,-4.673697 l -2.24222,-4.271854 1.52696,1.532317 c 0.83981,0.842788 2.22691,2.702819 3.08242,4.133405 l 1.55549,2.601088 -0.001,-1.50657 c -6.7e-4,-0.828607 -0.21304,-3.233613 -0.47193,-5.34443 -0.6661,-5.431037 -0.27586,-5.665988 0.89716,-0.540193 0.55103,2.407934 1.09159,4.673581 1.20121,5.034769 0.10954,0.361188 0.65995,-1.151654 1.22292,-3.361869 0.93855,-3.684617 2.5443,-8.021087 2.97014,-8.021087 0.0968,0 -0.0937,1.058809 -0.42322,2.352916 -0.66096,2.595097 -1.83204,10.028022 -1.62128,10.290325 0.0733,0.09117 1.13537,-0.477331 2.36026,-1.263329 1.44131,-0.924895 2.54862,-2.064635 3.13846,-3.23042 0.50127,-0.990718 1.28318,-2.329171 1.73761,-2.974321 0.82202,-1.167076 0.82063,-1.179056 -0.27607,-2.362414 -0.78471,-0.84671 -1.10229,-1.67957 -1.10229,-2.890743 0,-0.935749 -0.29499,-2.407339 -0.65551,-3.270215 l -0.65551,-1.568853 -2.51858,0.306119 c -4.49557,0.546398 -9.81925,3.156454 -15.02651,7.367101 -1.428,1.154699 -2.59637,1.917614 -2.59637,1.695371 0,-0.222242 0.29551,-0.649337 0.6567,-0.949085 1.9893,-1.650976 -0.98398,-1.19974 -3.39124,0.514661 -0.78353,0.558014 -3.19774,1.63289 -5.36488,2.388591 l -3.94025,1.373996 1.97013,0.534104 c 2.7291,0.739849 4.03209,1.474419 6.49415,3.661071 1.90775,1.694362 2.47991,1.943659 5.58669,2.434096 1.9037,0.300526 3.75678,0.606314 4.11797,0.679535 1.50357,0.304795 1.43264,0.107721 -0.6567,-1.823892 z m 39.55082,-2.950296 c 2.00466,-2.174804 2.47188,-3.46206 2.14396,-5.906928 -0.12311,-0.917944 -0.0981,-1.851459 0.0554,-2.074463 0.15355,-0.222987 1.91366,-1.548649 3.91129,-2.945877 l 3.63207,-2.540427 -0.28984,-1.932755 c -0.15935,-1.062995 -0.61335,-2.56988 -1.00875,-3.348614 -0.61021,-1.201758 -0.92528,-1.395755 -2.08337,-1.282789 -0.82723,0.08075 -1.6446,-0.147103 -2.07605,-0.578533 -1.11644,-1.116442 -0.84779,-1.459626 0.95354,-1.218024 1.56738,0.21023 1.79478,0.08158 3.87247,-2.191797 2.5787,-2.821527 3.58607,-5.579877 2.95788,-8.099339 -0.97864,-3.925078 -4.93528,-3.193569 -7.38413,1.365193 -1.19522,2.225024 -1.47474,2.477118 -2.75316,2.483207 l -1.42286,0.0066 -0.0187,-3.174077 c -0.0179,-3.029589 -0.0925,-3.257292 -1.64178,-5.001378 l -1.62311,-1.827267 -3.40532,0.686253 -3.40532,0.686253 1.27797,0.777179 c 1.57791,0.959577 2.35697,2.032749 1.11699,1.538655 -1.68382,-0.67093 -5.72423,-0.721531 -8.49958,-0.106397 -2.26565,0.502119 -3.01934,0.521545 -3.69736,0.09531 -1.49685,-0.94106 -1.24623,-1.48218 0.83078,-1.793644 2.70876,-0.406196 2.84577,-0.905782 0.34085,-1.242977 -1.13918,-0.153391 -3.08931,-0.75269 -4.33361,-1.331851 -1.24432,-0.579161 -2.37714,-0.93828 -2.51739,-0.798028 -0.4451,0.445114 -0.27453,2.735912 0.20371,2.735912 0.90282,0 2.60593,2.325614 2.60593,3.558431 0,0.682861 -0.78805,2.947284 -1.75123,5.032072 -1.96117,4.244949 -2.08431,4.901914 -0.98506,5.255159 3.1714,1.019096 4.22501,1.915347 2.25165,1.915347 -0.6613,0 -0.84722,0.196066 -0.65672,0.692509 0.14611,0.380895 0.26575,1.092349 0.26575,1.581048 0,0.76783 0.19598,0.851756 1.44268,0.617881 0.83389,-0.156369 2.40837,0.01655 3.73105,0.408926 1.2586,0.373763 2.4674,0.568919 2.68622,0.43368 0.21882,-0.135189 0.5216,-0.04567 0.67285,0.19906 0.17894,0.28954 -1.18672,0.444949 -3.91,0.444949 -2.30176,0 -4.185,0.180908 -4.185,0.401993 0,1.423818 0.60171,1.787041 2.96044,1.787041 h 2.42895 l -0.82894,0.915959 c -0.63087,0.697092 -1.17012,0.860593 -2.25688,0.684235 -1.34649,-0.218503 -1.42795,-0.1567 -1.42795,1.082951 0,1.364829 0.68117,3.015308 1.45138,3.516732 1.01039,0.657792 4.46211,0.840107 6.58177,0.347652 1.24041,-0.288166 4.19072,-1.318663 6.55626,-2.289971 4.941,-2.028843 7.56345,-4.166963 9.24927,-7.541109 1.25385,-2.5095 1.45471,-1.82381 0.39399,1.344889 -0.94671,2.828047 -1.72258,3.920959 -6.58369,9.27396 -2.24235,2.469274 -4.07701,4.677355 -4.07701,4.906861 0,0.229507 0.85761,0.919897 1.90582,1.534171 1.04818,0.614291 2.26079,1.509152 2.69469,1.988584 1.13474,1.253882 1.63964,1.105406 3.6472,-1.072542 z m -0.21981,-8.075941 c 1.47852,-3.363672 2.74959,-6.054411 2.8246,-5.979404 0.25454,0.254559 -1.72099,5.698073 -3.06339,8.441133 -2.58354,5.279152 -2.41924,3.585353 0.23879,-2.461729 z M 177.11405,52.452979 c -2.5039,-0.356488 -2.3317,-1.085185 0.2189,-0.926317 2.3878,0.148757 2.40724,0.139987 2.3255,-1.053977 -0.0978,-1.428883 0.10259,-1.517889 0.73914,-0.328359 0.33294,0.622118 0.33294,1.129101 0,1.751218 -0.46501,0.868882 -0.75282,0.917729 -3.28354,0.557435 z m 26.06337,-2.637011 c 0.008,-0.180594 0.30885,-0.718537 0.66932,-1.195438 0.3673,-0.485935 0.56056,-1.351971 0.43967,-1.970134 -0.11864,-0.606662 0.12195,-1.787108 0.53464,-2.623194 1.46543,-2.968828 4.50048,-3.190856 4.44397,-0.325099 -0.0253,1.282077 -0.063,1.319705 -0.4237,0.422395 -0.47775,-1.18857 -1.35048,-1.262833 -2.31506,-0.197009 -0.66176,0.731245 -0.65087,0.841398 0.15108,1.528032 0.90747,0.776997 1.13328,1.844014 0.4762,2.25011 -0.21342,0.131879 -0.49568,-0.171808 -0.62724,-0.674919 -0.13155,-0.503111 -0.44088,-0.790102 -0.68737,-0.637754 -0.24648,0.152398 -0.3502,0.532201 -0.2305,0.844161 0.39281,1.02363 -0.61692,2.907207 -1.55847,2.907207 -0.48754,0 -0.88017,-0.147764 -0.87253,-0.328358 z m -20.02615,-6.676529 c -0.26286,-1.005246 -0.60828,-1.094666 -1.3527,-0.35025 -0.40863,0.408628 -0.52537,0.366929 -0.52537,-0.187627 0,-1.116739 1.25028,-2.088958 2.68639,-2.088958 1.53755,0 5.63192,1.664661 5.63192,2.289773 0,0.236903 -0.31381,0.310322 -0.69737,0.163153 -2.06499,-0.792419 -2.6871,-0.76232 -2.92343,0.141477 -0.32554,1.244863 -2.49585,1.269899 -2.81944,0.0326 z m -0.52168,28.089642 c 2.06806,0.143297 2.1466,0.106397 2.14633,-1.012129 -2.8e-4,-1.159862 -0.003,-1.160838 -3.14029,-1.034816 l -3.14002,0.126088 -1.05964,1.794273 -1.05963,1.794273 2.05333,-0.908281 c 1.4199,-0.628091 2.71551,-0.862363 4.19992,-0.759457 z m 73.28949,-17.728115 c 15.53981,-9.81172 24.59156,-15.319618 35.90009,-21.844857 4.57508,-2.639907 8.56457,-5.114014 8.86556,-5.498036 0.82978,-1.058677 0.66822,-2.243871 -0.70022,-5.136434 -2.27627,-4.811534 -7.58638,-8.972755 -10.6645,-8.357124 -2.63635,0.52727 -18.85935,10.085407 -35.37105,20.839644 -16.26413,10.593003 -23.61762,15.511133 -23.63031,15.804346 -0.007,0.142304 1.03421,0.492637 2.31191,0.778569 1.27771,0.285948 3.52718,1.089321 4.99882,1.785304 l 2.6757,1.265398 0.31179,2.495485 c 0.17149,1.372523 0.18837,3.676377 0.0376,5.119705 l -0.27428,2.624204 1.2024,-0.791707 c 0.66134,-0.435434 7.11279,-4.523451 14.3366,-9.084497 z m -40.549,-14.495644 c 1.43064,-5.681608 -0.41437,-14.260445 -3.73854,-17.383342 l -1.01488,-0.953438 0.85737,1.774566 c 0.47155,0.975991 1.05541,2.633487 1.29748,3.683294 0.63133,2.738047 0.56121,8.557376 -0.13552,11.243151 -0.56746,2.187644 -0.55182,2.333076 0.31631,2.941145 1.44753,1.0139 1.8945,0.772579 2.41773,-1.305376 z m -3.51092,-2.287092 c 0.7875,-3.921223 0.62086,-8.850605 -0.41227,-12.195496 -1.13686,-3.680729 -3.75082,-6.630015 -7.56972,-8.540763 l -2.6838,-1.342838 -0.33407,3.284379 c -0.34188,3.360992 -1.09204,6.08519 -3.12343,11.342615 l -1.15228,2.982198 7.12075,3.461912 c 3.91641,1.904062 7.24131,3.468001 7.38866,3.475431 0.14727,0.0066 0.49212,-1.102907 0.76616,-2.467438 z m -17.92699,-1.893902 c 1.98372,-0.455622 2.23925,-0.617931 1.566,-0.994689 -0.55644,-0.311415 -1.82733,-0.29457 -4.12174,0.0546 -3.79465,0.577506 -8.93244,0.591604 -10.54104,0.02896 -0.76816,-0.268707 -0.37656,-0.317835 1.31342,-0.164808 2.26255,0.204918 8.3803,-0.361254 10.22293,-0.946074 0.61457,-0.195056 -0.18392,-0.724792 -3.0536,-2.025782 -6.23234,-2.825482 -9.61321,-3.836073 -12.82804,-3.834517 -2.4757,0.0012 -10.49031,1.116293 -10.88905,1.515026 -0.075,0.07496 0.7833,0.449664 1.90729,0.832644 1.12397,0.38298 3.64656,1.622482 5.60574,2.754462 5.49572,3.175285 7.46539,3.687977 13.41279,3.4912 2.76913,-0.09167 6.10151,-0.411573 7.4053,-0.711024 z m 3.01292,-7.336456 c 1.64108,-4.470037 2.70034,-8.838757 2.70949,-11.174878 0.005,-1.374046 -0.18283,-1.724577 -1.11656,-2.079576 -3.79596,-1.443229 -11.69171,0.596171 -14.71805,3.801538 -1.11595,1.181985 -4.298,6.149822 -4.298,6.710087 0,0.145117 1.62536,0.799683 3.61191,1.454563 1.98653,0.65488 5.385,2.058065 7.55215,3.118181 2.16714,1.060116 4.14555,1.944007 4.39645,1.964194 0.25092,0.02019 1.08909,-1.687164 1.86261,-3.794109 z M 179.6634,22.384085 c 1.78767,-3.421388 3.91864,-5.714024 6.51266,-7.006675 1.26087,-0.628305 1.89432,-1.131251 1.42184,-1.128885 -1.2176,0.0066 -4.98522,1.842044 -6.62969,3.230601 -1.37995,1.16519 -4.94867,6.129966 -4.94867,6.884558 0,0.21334 0.54178,0.387448 1.20395,0.386869 1.01197,-8.77e-4 1.40107,-0.378264 2.43991,-2.366468 z"
       id="path10" /></g><metadata
     id="metadata182"><rdf:RDF><cc:Work
         rdf:about=""><cc:license
           rdf:resource="http://creativecommons.org/licenses/by-sa/4.0/" /><dc:publisher><cc:Agent><dc:title>OpenDataKerala.org</dc:title></cc:Agent></dc:publisher><dc:date>April 2026</dc:date><dc:title>Election Symbols of Kerala</dc:title><dc:creator><cc:Agent><dc:title>Manoj Karingamadathil</dc:title></cc:Agent></dc:creator></cc:Work><cc:License
         rdf:about="http://creativecommons.org/licenses/by-sa/4.0/"><cc:permits
           rdf:resource="http://creativecommons.org/ns#Reproduction" /><cc:permits
           rdf:resource="http://creativecommons.org/ns#Distribution" /><cc:requires
           rdf:resource="http://creativecommons.org/ns#Notice" /><cc:requires
           rdf:resource="http://creativecommons.org/ns#Attribution" /><cc:permits
           rdf:resource="http://creativecommons.org/ns#DerivativeWorks" /><cc:requires
           rdf:resource="http://creativecommons.org/ns#ShareAlike" /></cc:License></rdf:RDF></metadata></svg>
