<?xml version="1.0" encoding="UTF-8" standalone="no"?>
<!-- Created with Inkscape (http://www.inkscape.org/) -->

<svg
   width="1500"
   height="1500"
   viewBox="0 0 396.87499 396.875"
   version="1.1"
   id="svg5"
   xml:space="preserve"
   inkscape:version="1.3 (0e150ed6c4, 2023-07-21)"
   sodipodi:docname="Bench.svg"
   inkscape:export-filename="Bicycle pump.png"
   inkscape:export-xdpi="96"
   inkscape:export-ydpi="96"
   xmlns:inkscape="http://www.inkscape.org/namespaces/inkscape"
   xmlns:sodipodi="http://sodipodi.sourceforge.net/DTD/sodipodi-0.dtd"
   xmlns="http://www.w3.org/2000/svg"
   xmlns:svg="http://www.w3.org/2000/svg"
   xmlns:rdf="http://www.w3.org/1999/02/22-rdf-syntax-ns#"
   xmlns:cc="http://creativecommons.org/ns#"
   xmlns:dc="http://purl.org/dc/elements/1.1/"><title
     id="title186">Election Symbols of Kerala</title><sodipodi:namedview
     id="namedview7"
     pagecolor="#ffffff"
     bordercolor="#000000"
     borderopacity="0.25"
     inkscape:showpageshadow="2"
     inkscape:pageopacity="0.0"
     inkscape:pagecheckerboard="0"
     inkscape:deskcolor="#d1d1d1"
     inkscape:document-units="mm"
     showgrid="false"
     inkscape:zoom="0.25"
     inkscape:cx="230"
     inkscape:cy="1082"
     inkscape:window-width="1920"
     inkscape:window-height="991"
     inkscape:window-x="-9"
     inkscape:window-y="-9"
     inkscape:window-maximized="1"
     inkscape:current-layer="layer1" /><defs
     id="defs2"><inkscape:path-effect
       effect="bspline"
       id="path-effect3248"
       is_visible="true"
       lpeversion="1"
       weight="33.333333"
       steps="2"
       helper_size="0"
       apply_no_weight="true"
       apply_with_weight="true"
       only_selected="false" /><inkscape:path-effect
       effect="bspline"
       id="path-effect577"
       is_visible="true"
       lpeversion="1"
       weight="33.333333"
       steps="2"
       helper_size="0"
       apply_no_weight="true"
       apply_with_weight="true"
       only_selected="false" /></defs><g
     inkscape:label="Layer 1"
     inkscape:groupmode="layer"
     id="layer1"><path
       style="fill:#000000;stroke-width:1.53256"
       d="m 255.08309,323.92853 c -4.88321,-1.0719 -7.50157,-2.7329 -7.50157,-4.75873 0,-1.36117 2.11108,-2.97531 5.67948,-4.34256 3.68112,-1.41042 5.83403,-3.0266 5.53828,-4.15755 -0.0989,-0.37832 0.0812,-1.06055 0.40023,-1.51606 0.80993,-1.15634 1.69819,-4.20245 2.17359,-7.45385 0.22159,-1.5155 0.7507,-3.43725 1.17581,-4.27052 0.91925,-1.80188 1.5002,-4.73233 1.88961,-9.53177 l 0.28576,-3.5217 -1.74586,-2.48888 c -1.68258,-2.39868 -1.72987,-2.54881 -1.30468,-4.1418 0.24265,-0.90909 0.34713,-1.8051 0.23216,-1.99113 -0.11495,-0.18602 -1.21715,-0.81555 -2.44929,-1.39894 -2.85248,-1.35058 -4.42678,-3.43437 -4.7898,-6.33997 -0.52633,-4.21255 1.57873,-7.94442 5.27823,-9.35726 1.27278,-0.48608 1.82866,-0.93036 1.82866,-1.46155 0,-0.97504 -0.76445,-1.36901 -4.70366,-2.42408 -5.08235,-1.36126 -34.1836,-11.69237 -70.31219,-24.96124 -3.23378,-1.18766 -14.27329,-5.19316 -24.5322,-8.9011 -20.10664,-7.26726 -30.22552,-10.95458 -55.55229,-20.24325 -4.68342,-1.71767 -9.997892,-3.6366 -11.809938,-4.26427 -1.812047,-0.62768 -5.735173,-2.05818 -8.718059,-3.17888 -8.640816,-3.24642 -16.226813,-6.03512 -24.076018,-8.85058 -4.01436,-1.43992 -12.418815,-4.52514 -18.676565,-6.85602 -6.25775,-2.33088 -11.640645,-4.23676 -11.961987,-4.23529 -0.892219,0.005 -2.403996,1.11841 -6.851902,5.05053 l -4.072381,3.60013 3.16e-4,3.88453 c 1.73e-4,2.13649 -0.263469,5.3443 -0.585872,7.12846 -0.322402,1.78415 -0.799683,5.43357 -1.060623,8.10981 -0.260943,2.67625 -0.552557,5.50455 -0.648036,6.28511 -0.252139,2.06132 1.007145,3.87972 3.126502,4.51469 3.157922,0.94615 3.507355,3.19765 0.702326,4.52532 -2.408712,1.14007 -8.347487,2.01989 -12.077379,1.78922 -7.252195,-0.44851 -8.3435053,-2.25727 -3.2344462,-5.36085 1.9485622,-1.18369 2.6601522,-1.91232 3.4950412,-3.57871 0.576582,-1.15082 1.290422,-2.36853 1.586315,-2.70602 0.696604,-0.79454 1.802604,-9.79047 1.802176,-14.65846 -3.61e-4,-4.12231 -0.902735,-9.31424 -1.879611,-10.8146 -0.338845,-0.52042 -1.282043,-1.22448 -2.095998,-1.56457 -5.5737262,-2.32885 -7.3908851,-5.77331 -5.2198232,-9.89428 0.77789,-1.47654 1.3240194,-1.94099 3.1425562,-2.67256 1.210574,-0.48701 2.182797,-1.08005 2.160495,-1.31786 -0.0223,-0.23781 -0.06792,-0.59751 -0.101379,-0.79934 -0.03346,-0.20184 -0.849835,-0.82936 -1.814182,-1.39449 -3.2066813,-1.87925 -6.0152656,-4.75673 -7.2062616,-7.38306 -1.5327287,-3.3799 -2.1100305,-6.84166 -1.6319515,-9.78594 1.3287826,-8.18342 6.3239721,-13.73851 14.2852921,-15.88649 6.729776,-1.81573 7.742837,-1.87957 29.962038,-1.88855 18.347119,-0.008 21.652426,-0.10023 23.923973,-0.67211 9.277056,-2.33535 12.805278,-5.59898 15.574208,-14.40622 0.826919,-2.63021 1.96793,-6.24197 2.53558,-8.02612 2.608526,-8.198763 6.240214,-11.951692 11.573354,-11.959723 2.04698,-0.0031 3.50944,0.737424 4.23772,2.145775 1.33973,2.590739 -1.41436,5.090688 -5.013587,4.550948 -1.554249,-0.23307 -1.967004,-0.138694 -2.795176,0.63937 -0.534408,0.50206 -0.971652,1.15125 -0.971652,1.44265 0,0.61833 0.468546,0.72625 5.879625,1.35441 2.2302,0.25889 7.24815,1.01379 11.151,1.67753 3.90285,0.66373 9.92439,1.64177 13.38121,2.17343 3.45681,0.53165 9.66082,1.51317 13.78669,2.18115 4.12587,0.66798 11.97213,1.8752 17.43611,2.68271 5.46401,0.80749 12.1242,1.81984 14.80044,2.24967 2.67624,0.42982 8.88025,1.42399 13.78669,2.20928 8.20017,1.31245 17.03634,2.74894 62.64837,10.18471 17.24005,2.8105 21.6967,3.5205 27.37065,4.36043 2.00717,0.29713 7.84624,1.29537 12.97571,2.21832 10.78502,1.94057 33.02709,5.67356 44.19852,7.41803 4.23739,0.66168 13.08723,2.12433 19.66633,3.25031 6.57909,1.12599 12.81583,2.14372 13.85942,2.26163 l 1.89743,0.2144 1.89655,-2.98866 c 3.67079,-5.78457 6.82744,-8.06226 11.13646,-8.03553 4.0357,0.025 6.57809,1.40748 7.2829,3.96009 0.87248,3.15984 -1.95095,5.72235 -6.32563,5.74103 -2.67515,0.0107 -3.40064,0.62848 -5.2549,4.46931 -3.61204,7.48182 -10.89729,29.33475 -13.1126,39.33263 -0.91419,4.12588 -2.37662,10.60361 -3.24983,14.39494 -1.84703,8.01945 -2.72925,12.49342 -3.07842,15.61141 -0.13731,1.2266 -0.5122,4.09992 -0.83298,6.38514 -0.96994,6.90983 -0.80545,15.86988 0.42621,23.21571 0.5796,3.4568 1.30518,8.86056 1.61241,12.00835 0.62604,6.41422 1.05821,7.58947 3.51748,9.56567 1.64987,1.32579 1.66061,1.35206 1.37546,3.36369 -0.50983,3.59671 -0.37822,4.81815 0.79973,7.42204 1.29727,2.86761 2.61605,4.13444 4.30399,4.13444 0.82362,0 1.43687,0.3877 2.20381,1.39321 0.58446,0.76627 1.57442,1.50562 2.19992,1.643 1.51697,0.33318 2.96263,1.92072 2.7931,3.06717 -0.20144,1.36215 -1.83157,2.34483 -5.00066,3.01451 -5.32082,1.1244 -14.11218,0.46351 -17.55474,-1.31966 -2.85825,-1.4805 -2.71935,-4.27517 0.27819,-5.59768 1.22319,-0.53967 1.79087,-1.11292 2.25782,-2.27993 0.90218,-2.25476 0.77614,-4.03918 -0.56381,-7.98231 -0.65318,-1.92214 -1.40967,-4.64983 -1.6811,-6.06153 -0.35761,-1.85994 -0.8676,-3.0145 -1.85203,-4.19279 -1.14633,-1.37206 -1.34961,-1.92121 -1.30136,-3.51563 0.1436,-4.74734 -2.23186,-10.37764 -5.95507,-14.11468 -5.00712,-5.02566 -12.17054,-6.43613 -22.48958,-4.42814 -8.95954,1.74343 -16.88497,5.61502 -24.32946,11.88502 -5.99293,5.04743 -15.00319,16.04404 -15.00319,18.3107 0,0.27254 -0.89678,1.44372 -1.99285,2.60266 -1.8194,1.92376 -1.94294,2.17545 -1.41922,2.89168 1.07058,1.46409 0.72299,3.70578 -0.84347,5.43967 -1.90408,2.10758 -2.38547,3.43129 -3.41198,9.38201 -0.48089,2.78775 -1.13412,6.5284 -1.4516,8.31257 -1.78067,10.00656 -1.65917,11.22921 1.21206,12.19622 2.70672,0.91163 3.86473,3.31024 2.47917,5.13517 -2.09191,2.75526 -12.60311,4.37995 -19.10431,2.95288 z m 12.38773,-4.48059 c 1.82426,-0.94337 1.06662,-1.45509 -1.14542,-0.77364 -1.05381,0.32463 -2.32657,0.69927 -2.82836,0.83251 -0.5018,0.13318 -0.91237,0.42976 -0.91237,0.65891 0,0.57264 3.33938,0.0821 4.88615,-0.71778 z m -9.42054,-2.67555 c 0.96292,-0.90861 1.64229,-1.76047 1.50972,-1.89304 -0.13257,-0.13257 -0.75323,0.3198 -1.37926,1.00523 -0.62606,0.68543 -1.53352,1.37169 -2.01658,1.525 -0.48308,0.15332 -0.87832,0.44894 -0.87832,0.65694 0,0.79954 1.08293,0.29258 2.76444,-1.29413 z m 8.9948,-0.37529 c 0,-0.2341 -0.29519,-0.99646 -0.65597,-1.69415 l -0.65599,-1.26852 -0.55439,1.59277 c -0.30491,0.87603 -0.55713,1.63839 -0.56049,1.69414 -0.003,0.0558 0.54131,0.1013 1.21036,0.1013 0.66906,0 1.21648,-0.19154 1.21648,-0.42562 z m -3.83286,-1.92043 c -0.32534,-0.32535 -1.01829,0.70305 -1.02683,1.52392 -0.005,0.3848 0.22475,0.26734 0.64339,-0.33034 0.35728,-0.51009 0.52983,-1.04721 0.38344,-1.19358 z m 2.91333,-12.94092 c 0.2421,-0.8475 0.66241,-2.5445 0.93401,-3.77112 0.79306,-3.58145 1.26691,-3.80349 0.96942,-0.45422 -0.44918,5.05696 0.85969,2.58438 1.62664,-3.07287 0.16769,-1.23702 0.0729,-1.79123 -0.3465,-2.02744 -0.31752,-0.17881 -0.63749,-0.96373 -0.71107,-1.74431 -0.12444,-1.32091 -0.19517,-1.22262 -1.02051,1.41923 -0.48771,1.56114 -1.0161,4.02449 -1.17416,5.47413 -0.15807,1.44963 -0.53453,3.3429 -0.83659,4.20725 -0.64176,1.83655 -0.6613,1.99226 -0.21529,1.71663 0.18363,-0.11356 0.53195,-0.89977 0.77405,-1.74728 z m 101.31173,-11.06996 c 0.31629,0 0.57508,-0.19459 0.57508,-0.43241 0,-0.63427 -2.13482,-0.27569 -2.35563,0.39566 -0.13195,0.40103 0.0198,0.49173 0.50875,0.30412 0.3832,-0.14712 0.95551,-0.26737 1.2718,-0.26737 z m -7.53475,-0.22939 c 0,-0.12613 -0.18607,-0.57707 -0.41347,-1.00199 -0.3185,-0.59511 -0.69109,-0.71707 -1.62197,-0.5309 -0.98278,0.19655 -1.20848,0.10544 -1.20848,-0.48791 0,-0.64307 -0.1203,-0.61667 -1.01373,0.22275 -1.25062,1.17488 -1.27048,1.5161 -0.1013,1.74128 1.42072,0.27364 4.35903,0.31191 4.35903,0.0567 z m -0.40548,-2.62918 c 0,-0.66637 -1.2515,-2.91843 -1.48953,-2.68041 -0.31859,0.31859 0.68246,3.10604 1.11547,3.10604 0.20573,0 0.37406,-0.19153 0.37406,-0.42563 z m -91.64099,-5.26551 c 0,-0.23086 -0.28363,-0.85262 -0.63026,-1.38167 -0.41901,-0.63947 -0.48698,-1.05048 -0.20276,-1.22614 0.76649,-0.47371 0.45059,-1.02734 -0.58619,-1.02734 -1.21599,0 -1.20526,-0.1085 -0.21717,2.19658 0.72278,1.68614 1.63638,2.48931 1.63638,1.43857 z m 6.08237,-2.50879 c 0,-0.39649 -0.26464,-0.72087 -0.58809,-0.72087 -0.75687,0 -1.38696,1.12659 -1.14581,2.04871 0.17415,0.66593 0.24267,0.66986 0.96071,0.055 0.42525,-0.3641 0.77319,-0.9864 0.77319,-1.38288 z m 1.8828,-3.76721 c 0.1295,-0.33738 0.044,-0.84409 -0.19005,-1.12604 -0.31324,-0.37742 0.008,-1.08055 1.21666,-2.66606 1.17069,-1.53524 1.51702,-2.27853 1.20638,-2.58917 -0.31063,-0.31063 -0.96977,0.0566 -2.29602,1.27905 -1.02317,0.94313 -2.07928,1.64273 -2.34691,1.55467 -0.26762,-0.0881 -0.54221,-1.01258 -0.61018,-2.0545 -0.068,-1.04191 -0.31707,-1.89439 -0.55354,-1.89439 -0.23649,0 -1.01494,0.63865 -1.72992,1.41924 -0.71497,0.78056 -1.60848,1.41921 -1.98556,1.41921 -0.57649,0 -0.64481,0.2743 -0.42928,1.72334 0.14099,0.94783 0.57944,2.06334 0.97436,2.47889 0.69736,0.73381 0.73399,0.72215 1.27193,-0.40548 0.44743,-0.93787 0.85721,-1.18595 2.13171,-1.2905 1.76438,-0.14467 2.3662,0.41038 2.00502,1.84941 -0.16861,0.67178 -0.0527,0.91572 0.4351,0.91572 0.3657,0 0.77083,-0.27603 0.9003,-0.61339 z m 79.62091,-0.3764 c 0,-0.64581 -0.73571,-1.24811 -1.0908,-0.89301 -0.33358,0.33358 0.18714,1.47731 0.67258,1.47731 0.23002,0 0.41822,-0.26294 0.41822,-0.5843 z m 0.20447,-4.9912 c -0.93891,-2.31526 -1.85072,-5.2981 -2.26815,-7.41983 -0.63264,-3.21568 -1.398,-3.72147 -1.04151,-0.68828 0.30156,2.56579 2.55912,8.81772 3.18406,8.81772 0.23299,0 0.28781,-0.30965 0.12567,-0.70961 z m -93.04076,-1.0896 c -0.27494,-0.33128 -0.84837,-0.71294 -1.27427,-0.84811 -0.96723,-0.30699 -1.02061,-1.87129 -0.11126,-3.25923 0.36475,-0.55666 0.54168,-1.13359 0.39321,-1.28207 -0.34619,-0.34619 -2.18786,1.52114 -2.29082,2.32273 -0.15689,1.22154 0.0285,2.02744 0.4663,2.02744 0.24659,0 0.99939,0.46368 1.67289,1.03041 1.26565,1.06496 2.02527,1.07083 1.14389,0.009 z m 89.51545,-2.12299 c -0.0693,-0.81908 -0.3312,-1.55659 -0.58219,-1.63891 -0.61043,-0.20021 -1.00271,1.97932 -0.47178,2.6213 0.76127,0.92047 1.18167,0.52863 1.05397,-0.98239 z m -74.53345,-1.37312 c 0,-0.20985 -0.45618,-0.38156 -1.01373,-0.38156 -1.15402,0 -1.37696,0.66904 -0.30412,0.91266 0.83869,0.19045 1.31785,-0.003 1.31785,-0.5311 z m -3.64942,-1.3519 c 0,-0.0877 -0.28319,-0.26803 -0.6293,-0.40084 -0.36086,-0.13855 -0.52362,-0.0705 -0.38156,0.15935 0.23813,0.3853 1.01086,0.5699 1.01086,0.24149 z m -2.19522,-2.06591 c 0.38161,-1.52045 1.25038,-2.07104 2.10144,-1.33183 0.38612,0.33535 1.24943,0.73416 1.91848,0.8862 0.66907,0.15203 1.55073,0.37606 1.95925,0.49781 0.59321,0.17677 0.71569,0.03 0.60824,-0.72887 -0.0952,-0.6718 -0.77192,-1.29177 -2.30996,-2.11597 -2.15471,-1.15466 -2.17339,-1.18098 -1.96116,-2.76326 0.25553,-1.90505 0.0447,-2.0213 -2.95952,-1.63163 l -2.23019,0.28927 -0.23609,2.23021 c -0.12981,1.2266 -0.36576,2.51907 -0.52427,2.87213 -0.23746,0.52892 -0.0631,0.6089 0.99022,0.45431 l 1.2784,-0.18763 -0.2891,1.71117 c -0.27793,1.64506 -0.25634,1.69364 0.55893,1.25733 0.46642,-0.24962 0.95932,-0.89728 1.09533,-1.43924 z m -0.87002,-3.89601 c -0.15111,-0.24442 0.0207,-0.7397 0.38157,-1.10062 0.60462,-0.60462 0.65621,-0.56968 0.65621,0.4444 0,1.11985 -0.54015,1.46139 -1.03778,0.65622 z m -7.48927,4.92065 c 0.32807,-0.20748 0.47279,-0.50094 0.32161,-0.65212 -0.37107,-0.37107 -1.52635,0.10084 -1.52635,0.62355 0,0.51502 0.4198,0.52497 1.20474,0.0285 z m 20.67241,-4.98311 c 1.33318,-1.6169 3.58306,-3.97055 4.99975,-5.23033 2.27054,-2.01908 4.19081,-3.44835 11.12251,-8.27857 1.9167,-1.33563 2.14197,-1.79838 0.87543,-1.79838 -2.6536,0 -9.88854,3.53929 -13.12616,6.42126 -2.79593,2.48879 -5.75436,4.40237 -8.56953,5.54296 -2.91722,1.18193 -3.27305,2.1453 -1.23626,3.34705 0.76331,0.45036 1.73086,1.28942 2.15014,1.86458 0.41927,0.57517 0.89683,1.05149 1.06124,1.05849 0.16442,0.008 1.38972,-1.31017 2.72288,-2.92706 z m -19.03871,1.72334 c 0,-0.22302 -0.27371,-0.4055 -0.60823,-0.4055 -0.33453,0 -0.60825,0.18248 -0.60825,0.4055 0,0.22302 0.27372,0.40549 0.60825,0.40549 0.33452,0 0.60823,-0.18247 0.60823,-0.40549 z m 27.16769,-5.8578 c 1.1e-4,-0.211 -0.68406,0.24317 -1.52038,1.00929 -3.91041,3.58215 -4.96727,4.63742 -4.96727,4.95981 0,0.19137 1.45968,-0.98707 3.24372,-2.61874 1.78404,-1.63168 3.24381,-3.13934 3.24393,-3.35036 z m 58.20033,-2.96163 c -0.34525,-2.83398 -0.83804,-3.48665 -1.43902,-1.90595 -0.35344,0.92963 -0.30292,1.47721 0.24926,2.70173 1.02,2.26196 1.52141,1.92659 1.18976,-0.79578 z m -82.17581,1.21892 c -0.64135,-0.81495 -7.26966,-7.40265 -7.44828,-7.40265 -0.47055,0 0.73681,3.13843 1.53834,3.9988 0.54818,0.58841 1.2093,1.48307 1.46918,1.98815 0.51578,1.00245 2.51438,2.03749 4.03527,2.08979 0.8585,0.0296 0.90213,-0.0431 0.40549,-0.67409 z m 10.59051,-1.51825 c 0.40738,-0.49086 0.36997,-0.65364 -0.20055,-0.87256 -0.86144,-0.33058 -2.70949,0.27889 -2.93868,0.96914 -0.24507,0.73809 2.51705,0.65311 3.13923,-0.0966 z m 1.92162,0.35847 c -0.13471,-0.13471 -0.48449,-0.14912 -0.77719,-0.032 -0.32348,0.1295 -0.22739,0.22552 0.24498,0.24498 0.42746,0.0176 0.66695,-0.0782 0.53221,-0.21297 z m 4.07112,-1.91663 c 1.09148,-0.98789 3.52237,-4.68207 3.25613,-4.94831 -0.10222,-0.10207 -0.6136,0.26973 -1.13658,0.8264 -0.52295,0.55668 -1.10513,1.01212 -1.2937,1.01212 -0.73374,0 -3.59426,2.08285 -3.50011,2.54857 0.0547,0.27094 -0.12276,0.89426 -0.39465,1.38516 -0.48132,0.86924 -0.45971,0.88101 0.82727,0.4507 0.72684,-0.24302 1.73557,-0.8166 2.24164,-1.27464 z m -28.69626,0.32417 c 0,-0.64743 -1.07764,-1.275 -1.48681,-0.86584 -0.1295,0.12951 -0.12735,0.51692 0.005,0.86108 0.31097,0.81038 1.48204,0.81414 1.48204,0.005 z m 43.02874,-0.53089 c 0.53187,-0.4105 1.84202,-1.25378 2.91143,-1.87398 1.06943,-0.62018 1.86308,-1.20895 1.76366,-1.30835 -0.26705,-0.26705 -3.92539,1.72647 -5.33001,2.90446 -1.39037,1.16603 -0.81317,1.41094 0.65492,0.27787 z m -20.61943,-1.98687 c 4.71831,-2.56802 8.00712,-8.82877 8.00027,-15.22971 -0.003,-3.10762 -0.64829,-4.92517 -2.24524,-6.32731 -2.67275,-2.3467 -5.3398,-2.17712 -8.19558,0.52112 -1.73719,1.64134 -1.82271,1.82928 -1.87236,4.11516 -0.061,2.80573 0.728,3.40637 1.85517,1.41235 1.26481,-2.23747 3.16142,-1.24199 3.16142,1.65934 0,1.02624 -0.39785,1.69385 -1.82343,3.0598 -1.9445,1.86315 -3.25347,2.40723 -4.83592,2.01006 -1.42844,-0.35851 -3.27789,-2.04747 -4.07009,-3.71688 -0.63638,-1.34109 -0.64118,-1.68671 -0.0627,-4.5232 0.75069,-3.68117 2.67455,-7.10658 4.78278,-8.51568 0.82072,-0.54855 2.54654,-1.32358 3.83518,-1.72229 1.28864,-0.39872 2.39755,-0.8886 2.46421,-1.08865 0.12552,-0.37649 -3.75785,-3.9479 -5.58698,-5.1382 -1.00481,-0.65388 -1.09462,-0.63567 -2.70468,0.54839 -1.74745,1.28508 -5.83593,6.56201 -8.35835,10.78795 -1.83404,3.07264 -2.62096,5.25509 -3.09062,8.57147 -0.47802,3.37546 0.18538,5.57815 2.80233,9.30455 2.58101,3.67523 3.82882,4.57123 6.37087,4.57469 1.23454,0.002 2.39195,0.28426 3.1139,0.76024 1.39817,0.92186 3.42581,0.58813 6.45985,-1.0632 z m 68.85918,-0.51069 c 0.17301,0 0.6013,-0.28675 0.95177,-0.63721 0.47776,-0.47777 0.63719,-1.48638 0.63719,-4.03097 0,-1.86659 0.18247,-3.50655 0.4055,-3.64439 0.22302,-0.13778 0.4057,-1.28904 0.40596,-2.55825 2.6e-4,-1.26921 0.24584,-3.59417 0.54574,-5.1666 0.35652,-1.86944 0.41685,-3.20272 0.17431,-3.85216 -0.36644,-0.98118 -0.37851,-0.98339 -0.99775,-0.18224 -0.36829,0.4765 -0.69728,0.62565 -0.79765,0.36162 -0.094,-0.24714 -0.41375,-0.78154 -0.71062,-1.18754 -0.51959,-0.71058 -0.62513,-0.71134 -2.82306,-0.0201 -2.74003,0.86184 -3.26751,1.45416 -1.29499,1.45416 1.43651,0 2.51867,0.72723 3.40142,2.28582 0.41629,0.735 0.44319,0.73457 0.9976,-0.0156 0.95694,-1.29502 1.2271,-0.0685 0.91674,4.16207 -0.56776,7.73955 -2.0435,10.58524 -5.69732,10.98636 -0.22302,0.0245 -0.0267,0.36126 0.43617,0.7484 0.46292,0.38713 1.18395,1.22627 1.60229,1.86473 0.7458,1.13824 0.76816,1.14402 1.14639,0.29637 0.21216,-0.47548 0.5273,-0.8645 0.70031,-0.8645 z m -98.16183,0.86527 c 0,-0.4486 -4.95915,-2.67405 -7.32131,-3.28548 -0.99123,-0.25657 -2.12157,-0.55918 -2.51186,-0.67243 -0.39028,-0.11326 -0.70961,-0.025 -0.70961,0.19612 0,0.31836 4.35577,2.18853 8.92082,3.83023 0.95396,0.34307 1.62196,0.31488 1.62196,-0.0685 z m 4.46039,-4.37853 c 0,-1.58287 -1.00657,-4.2999 -1.77816,-4.79974 -0.47164,-0.30554 -4.78065,-1.8318 -9.57559,-3.39169 -4.79493,-1.55991 -15.74318,-5.23481 -24.32946,-8.16646 -8.58627,-2.93164 -18.25723,-6.21246 -21.49102,-7.2907 -9.54155,-3.1814 -26.72519,-9.17016 -30.00634,-10.45764 -3.57077,-1.40111 -7.97579,-2.93061 -23.11299,-8.02524 -6.13306,-2.06415 -15.98649,-5.4209 -21.89652,-7.45942 -5.91003,-2.03853 -13.75629,-4.72558 -17.43612,-5.97123 -3.67983,-1.24565 -9.518901,-3.25489 -12.975712,-4.46497 -3.456812,-1.21009 -12.124183,-4.17837 -19.260827,-6.59618 -16.609963,-5.62725 -31.895814,-10.92836 -36.291451,-12.5858 -7.695968,-2.90187 -7.91956,-2.94403 -9.328179,-1.75876 -0.668023,0.56212 -1.214588,1.16126 -1.214588,1.33143 0,0.49593 5.031358,2.64904 10.948258,4.68519 3.010771,1.03608 7.207605,2.50446 9.326296,3.26306 3.423757,1.2259 14.201762,5.0218 38.11616,13.42413 4.125872,1.44964 11.333476,3.97114 16.016893,5.60335 4.68343,1.63221 12.98586,4.55751 18.44985,6.50067 5.46399,1.94315 12.76283,4.49858 16.21964,5.6787 3.45681,1.18014 10.48194,3.64162 15.6114,5.46997 14.52073,5.17578 29.40261,10.40541 36.29146,12.75315 3.4568,1.17809 11.75924,4.06728 18.44984,6.42045 6.69061,2.35314 16.54404,5.76327 21.89652,7.57804 5.35248,1.81478 12.56009,4.31843 16.01689,5.56365 3.45683,1.24521 7.18274,2.58673 8.27985,2.98112 2.11959,0.76197 3.0739,0.67347 3.0739,-0.28508 z m -16.88315,-0.55638 c -0.23111,-0.23112 -1.13434,-0.51566 -2.00717,-0.63232 -1.56737,-0.20948 -1.57445,-0.20447 -0.57324,0.40584 1.17094,0.71379 3.25022,0.89627 2.58041,0.22648 z m 102.84727,-0.14406 c 0,-0.31031 -0.73358,-0.85773 -1.63018,-1.21647 -3.09847,-1.23977 -3.94155,-0.56406 -1.10689,0.88717 2.00605,1.027 2.73707,1.11496 2.73707,0.3293 z m -45.10886,-1.15912 c -0.0918,-0.27878 -0.60881,-0.55786 -1.1489,-0.62016 -0.95092,-0.10973 -0.95708,-0.0936 -0.19485,0.50687 0.9531,0.75094 1.5709,0.80303 1.34375,0.11326 z m 49.353,-0.2892 c 0.63337,-0.69986 0.68518,-1.27558 0.42879,-4.76451 -0.43078,-5.86189 -1.18739,-6.3967 -5.61023,-3.96561 -2.63982,1.45104 -7.85714,3.44382 -9.01628,3.44382 -0.35338,0 -1.04107,0.2169 -1.52821,0.482 l -0.8857,0.48202 1.01373,0.28856 c 0.55754,0.15869 1.75727,0.30672 2.66605,0.32896 2.10767,0.0515 6.69879,1.60886 9.53099,3.2329 1.20884,0.69316 2.30646,1.26202 2.43916,1.26412 0.13272,0.002 0.56547,-0.35442 0.9617,-0.79226 z m -112.51026,-0.21761 c -1.17596,-0.67223 -2.02745,-0.76987 -2.02745,-0.23247 0,0.40398 0.92345,0.72666 2.23019,0.77931 0.70515,0.0284 0.67868,-0.0429 -0.20274,-0.54684 z m 76.13645,0.21763 c 2.78255,-1.54369 4.4443,-2.05844 5.87412,-1.81959 1.81492,0.30319 2.05707,-0.36188 0.34861,-0.95745 -0.81531,-0.28423 -1.30642,-0.27413 -1.61371,0.0331 -0.24296,0.24296 -1.33123,0.40115 -2.4184,0.35154 -1.22466,-0.0559 -2.77304,0.2237 -4.06988,0.73487 -1.37007,0.54003 -2.58118,0.74751 -3.50571,0.60058 -0.86702,-0.13778 -1.41251,-0.0582 -1.41251,0.20601 0,0.23678 0.7755,0.4333 1.72334,0.43672 0.94783,0.003 1.99704,0.18309 2.33157,0.39927 0.78032,0.50429 1.84993,0.51009 2.74257,0.0153 z m 11.04412,-0.0153 c 0.46667,-0.30158 0.3251,-0.39307 -0.60823,-0.39307 -0.66906,0 -1.49019,0.17689 -1.82472,0.39307 -0.46666,0.30159 -0.32508,0.39307 0.60825,0.39307 0.66905,0 1.49017,-0.17687 1.8247,-0.39307 z m 6.79197,-1.0337 c 1.18014,-0.36628 0.35122,-0.95485 -1.70692,-1.212 -2.42554,-0.30305 -3.92452,-1.10165 -3.26033,-1.73702 0.22302,-0.21333 1.40907,-0.67936 2.63569,-1.03559 2.7153,-0.78859 9.05013,-3.92604 9.23474,-4.57372 0.16851,-0.59111 -2.55406,-1.51946 -3.24582,-1.10679 -0.28314,0.16891 -1.15344,0.81031 -1.93402,1.42533 -1.56073,1.22973 -7.03513,3.47048 -9.42766,3.85889 -0.83632,0.13579 -1.5206,0.3865 -1.5206,0.55715 0,0.3903 1.04713,0.80255 2.0385,0.80255 0.69787,0 1.62185,1.20585 2.25831,2.94724 0.22113,0.60501 0.58699,0.67909 2.34167,0.47416 1.14376,-0.13364 2.30767,-0.31367 2.58644,-0.4002 z M 225.2795,238.96798 c -0.78057,-0.42734 -1.65732,-0.78462 -1.94832,-0.79397 -0.29102,-0.009 -1.35799,-0.39459 -2.37105,-0.85611 -2.12146,-0.96643 -2.94517,-0.75569 -0.89446,0.22886 0.74892,0.35956 2.00032,1.00861 2.78088,1.44234 0.78058,0.43373 1.96664,0.78124 2.63569,0.77225 l 1.21647,-0.0164 z m 31.22282,-0.60822 c 0,-0.55757 -0.18248,-1.01373 -0.4055,-1.01373 -0.22302,0 -0.40549,0.45616 -0.40549,1.01373 0,0.55754 0.18247,1.01373 0.40549,1.01373 0.22302,0 0.4055,-0.45619 0.4055,-1.01373 z m 46.74915,-0.43925 1.88414,-0.64199 -0.71304,-1.08135 c -0.39218,-0.59474 -0.90661,-1.44628 -1.14319,-1.89234 -0.64846,-1.22257 -2.23282,-1.23124 -3.37221,-0.0184 -0.53331,0.5677 -1.21157,1.03217 -1.50721,1.03217 -0.29567,0 -0.53757,0.27718 -0.53757,0.61597 0,0.44965 0.2658,0.54926 0.9844,0.36889 0.80872,-0.20298 1.10003,-0.0234 1.63238,1.006 0.35638,0.6892 0.70202,1.25307 0.76808,1.25307 0.066,0 0.96797,-0.2889 2.00422,-0.64199 z m 44.07464,-1.91626 c -0.003,-0.71166 -0.1831,-1.56763 -0.39928,-1.90216 -0.28111,-0.43496 -0.39485,0.005 -0.3993,1.54452 -0.005,1.33332 0.1482,2.05738 0.3993,1.90216 0.22302,-0.13778 0.40269,-0.83287 0.39928,-1.54452 z m -57.16331,0.22667 0.5404,-1.1151 0.27197,1.21648 c 0.21579,0.96517 0.3341,1.07477 0.5727,0.53054 0.38244,-0.87223 0.15458,-2.11056 -0.37607,-2.04392 -0.22302,0.028 -0.66751,-0.44117 -0.98774,-1.04258 l -0.58224,-1.09346 -0.2897,1.01373 c -0.41338,1.44657 -0.43157,3.64942 -0.0302,3.64942 0.18724,0 0.58359,-0.5018 0.88081,-1.11511 z m 24.96193,-0.33308 c -0.35045,-0.35046 -0.6372,-0.77603 -0.6372,-0.9457 0,-0.16967 -0.63865,-0.5045 -1.41921,-0.74406 -1.50234,-0.46108 -1.74017,-0.25779 -0.91235,0.77983 0.66556,0.83426 1.94562,1.5194 2.86739,1.53481 0.67144,0.0107 0.68065,-0.0457 0.10131,-0.62488 z m -41.40789,-0.69523 c -0.40218,-0.22506 -1.14973,-0.88407 -1.66123,-1.46447 -0.88065,-0.99928 -0.93068,-1.01019 -0.9428,-0.20575 -0.0138,0.86615 0.91986,1.92512 2.01463,2.28679 0.95055,0.31402 1.40422,-0.16055 0.5894,-0.61657 z m -61.23058,-0.24351 c -0.62633,-0.58519 -2.20993,-0.94931 -2.20993,-0.50812 0,0.39229 0.81491,0.72561 2.00719,0.82099 0.3604,0.0288 0.43886,-0.0923 0.20274,-0.31287 z m 95.10792,-0.0455 c 0,-0.22301 -0.31932,-0.40269 -0.70961,-0.39927 -0.60642,0.005 -0.62116,0.0633 -0.1013,0.39927 0.76524,0.49455 0.81097,0.49455 0.81097,0 z m -9.99559,-1.63967 c 0.81416,-0.48035 1.48028,-1.00424 1.48028,-1.1642 0,-0.31888 -3.99685,-2.06202 -4.728,-2.06202 -0.48783,0 -0.83238,2.02621 -0.6108,3.59193 0.11448,0.80882 0.30825,0.92167 1.2568,0.73197 0.61679,-0.12337 1.78758,-0.61731 2.60172,-1.09768 z m 8.12073,0.64145 c -0.12506,-0.326 0.0631,-1.17515 0.41822,-1.88701 1.03079,-2.06628 0.88392,-2.38599 -0.87493,-1.90457 -2.07769,0.56869 -2.35137,0.78566 -1.64433,1.30365 0.33404,0.24473 0.91379,1.03801 1.28832,1.76282 0.68853,1.33252 1.2318,1.8172 0.81272,0.72511 z m -48.81152,-1.84021 c 0.27714,-0.66907 0.74468,-1.21647 1.03899,-1.21647 0.66261,0 0.81769,-0.25684 1.18308,-1.95948 0.26858,-1.25149 0.21971,-1.34128 -0.66193,-1.21647 -1.0169,0.14391 -2.08228,1.92295 -2.56976,4.29104 -0.34302,1.6663 0.33329,1.73421 1.00962,0.10131 z m -45.11932,0.56599 c -0.13471,-0.13471 -0.48449,-0.14911 -0.77719,-0.032 -0.32348,0.1295 -0.22739,0.22554 0.24498,0.24498 0.42745,0.0176 0.66694,-0.0782 0.53221,-0.21296 z m 35.37305,-0.30439 c -0.83849,-0.77585 -3.85541,-1.88357 -5.12993,-1.88357 -1.49114,0 -0.94592,0.39684 2.00585,1.45993 3.0822,1.11009 4.00057,1.23462 3.12408,0.42364 z m 70.60113,-0.63591 c 0.69676,-0.69677 1.18528,-1.61594 1.18528,-2.23019 0,-0.57471 0.16854,-1.04492 0.37453,-1.04492 0.20598,0 0.34331,0.80639 0.30516,1.79197 -0.0823,2.12622 0.30494,2.66855 1.23867,1.73483 0.53313,-0.53313 0.5754,-0.78974 0.19309,-1.17206 -0.26921,-0.26922 -0.48949,-1.26334 -0.48949,-2.20916 0,-0.94584 -0.18037,-1.83115 -0.40081,-1.9674 -0.61755,-0.38167 -3.93555,1.23788 -4.4304,2.16251 -0.74676,1.39531 -0.45221,4.1197 0.44538,4.1197 0.21632,0 0.92668,-0.53337 1.57859,-1.18528 z m 17.40492,-0.66915 c 0,-0.37761 -0.27589,-0.58447 -0.67601,-0.50687 -1.01729,0.19729 -1.15697,1.14483 -0.16877,1.14483 0.49808,0 0.84478,-0.26182 0.84478,-0.63796 z M 199.93816,230.0507 c -0.29249,-0.47326 -4.25584,-1.76378 -4.54101,-1.47862 -0.12597,0.12598 0.75263,0.66627 1.95235,1.20075 2.0789,0.92616 3.05402,1.03083 2.58866,0.27787 z m 91.43638,-0.15609 c 0,-0.98049 -1.03269,-2.19332 -1.4836,-1.74239 -0.32516,0.32516 0.6667,2.70648 1.12731,2.70648 0.19595,0 0.35629,-0.43384 0.35629,-0.96409 z m -38.20797,-0.35376 c 0.22714,-0.27878 0.60099,-1.19573 0.83077,-2.03769 0.3815,-1.39783 0.3337,-1.58589 -0.55024,-2.16508 -0.53241,-0.34884 -4.9439,-1.78168 -9.80329,-3.18407 -4.8594,-1.40239 -10.11257,-2.95583 -11.6737,-3.45211 -2.99508,-0.9521 -32.60971,-10.56763 -48.0507,-15.6015 -5.01794,-1.63589 -12.22555,-3.92447 -16.0169,-5.08571 -3.79133,-1.16126 -10.81647,-3.35367 -15.61141,-4.87206 -4.79492,-1.51837 -10.9077,-3.42773 -13.58394,-4.24303 -2.67624,-0.81529 -8.42408,-2.63523 -12.77297,-4.0443 -4.34889,-1.40908 -11.8302,-3.78833 -16.62513,-5.28721 -8.92428,-2.78972 -18.330475,-5.78872 -22.302013,-7.11061 -1.226611,-0.40827 -6.335797,-2.04697 -11.35375,-3.64155 -5.017952,-1.59459 -9.853433,-3.14952 -10.745513,-3.45539 -0.892082,-0.30587 -3.264204,-1.02709 -5.271384,-1.60271 -2.007182,-0.57563 -7.044319,-2.1605 -11.19364,-3.52192 -6.409128,-2.10288 -7.812347,-2.43477 -9.326294,-2.20588 -1.975035,0.2986 -3.129263,0.85845 -2.685251,1.30246 0.533726,0.53372 26.631626,9.44445 42.668756,14.56858 5.352482,1.7102 20.862519,6.7602 34.466739,11.2222 13.60423,4.462 25.46484,8.34992 26.35692,8.63981 0.89208,0.28987 7.3698,2.38695 14.39493,4.66016 7.02514,2.2732 16.51363,5.38339 21.08553,6.91154 4.57192,1.52814 19.71702,6.51041 33.65577,11.07173 13.93875,4.56132 28.90138,9.47057 33.25026,10.90947 8.13279,2.69083 10.1414,3.10247 10.85645,2.22487 z m 74.13495,-2.84391 c 0.31049,-2.64176 -0.0696,-2.94261 -1.68142,-1.33082 -1.09281,1.09283 -1.43565,3.8706 -0.47772,3.8706 0.35613,0 0.47105,-0.488 0.3684,-1.56435 -0.11402,-1.19592 0.0153,-1.62738 0.54845,-1.83204 0.61785,-0.23709 0.675,-0.0323 0.49981,1.79096 -0.27027,2.81273 0.40143,1.96746 0.74248,-0.93435 z m -91.68199,2.1343 c -0.13778,-0.22302 -0.52432,-0.40549 -0.85885,-0.40549 -0.33453,0 -0.49546,0.18247 -0.35762,0.40549 0.13777,0.22302 0.5243,0.40548 0.85883,0.40548 0.33454,0 0.49546,-0.18246 0.35764,-0.40548 z m 104.61669,0 c 0.31716,-0.5132 -0.21964,-0.5132 -1.01373,0 -0.52417,0.33874 -0.51347,0.39393 0.0774,0.39928 0.37713,0.003 0.79845,-0.17626 0.93629,-0.39928 z m -145.99706,-0.77346 c -0.42982,-0.41056 -7.28794,-2.87596 -8.0002,-2.87596 -1.11779,0 0.64486,0.94821 3.81143,2.05036 3.48929,1.21448 4.88358,1.48928 4.18877,0.8256 z m 109.90191,-0.68801 c 1.45077,-0.58078 2.54024,-1.21379 2.42102,-1.4067 -0.26851,-0.43445 -5.33875,-2.05106 -10.6764,-3.40408 -2.21034,-0.56029 -4.31205,-1.13125 -4.67046,-1.26878 -0.41765,-0.16026 -0.65168,-0.0346 -0.65168,0.35 0,0.88374 1.56557,4.2693 2.14038,4.62864 0.71375,0.44619 6.81687,2.09099 7.89127,2.12671 0.49945,0.0166 2.0951,-0.44501 3.54587,-1.02579 z m 26.46169,-0.66736 c 0.22021,-0.27877 0.49889,-1.28237 0.61931,-2.2302 0.18922,-1.48961 0.11632,-1.72334 -0.5372,-1.72334 -0.52841,0 -0.89972,0.4793 -1.23296,1.59152 -0.6729,2.24598 0.0578,3.74575 1.15085,2.36202 z m -14.72468,-0.99638 c 0.71072,-0.97414 0.71696,-1.04718 0.0682,-0.79823 -0.39277,0.15065 -0.88166,0.27402 -1.08644,0.27402 -0.20478,0 -0.37232,0.36493 -0.37232,0.81099 0,1.09435 0.45071,1.0014 1.39054,-0.28678 z m 19.53126,-0.63325 c -0.13302,-0.66485 -0.25995,-1.50532 -0.28217,-1.86772 -0.0585,-0.95441 -0.6819,1.15512 -0.73015,2.47089 -0.0313,0.851 0.10713,1.04574 0.60684,0.854 0.47613,-0.18271 0.58332,-0.56793 0.40548,-1.45717 z m -108.92785,0.74685 c -0.63828,-0.62207 -4.06783,-1.39809 -3.50446,-0.79298 0.39904,0.42861 2.66992,1.29743 3.50446,1.34079 0.52135,0.0271 0.52135,-0.0397 0,-0.54781 z M 339.845,225.33791 c 0.5497,-0.36019 0.99946,-0.85286 0.99946,-1.09482 0,-0.29038 -0.16544,-0.27452 -0.48659,0.0466 -0.70072,0.7007 -1.54087,0.59852 -1.54087,-0.1874 0,-0.3707 0.47365,-1.48222 1.05258,-2.47009 0.79519,-1.35687 1.24139,-1.74671 1.8247,-1.59417 0.55979,0.14636 0.77214,-0.0107 0.77214,-0.57111 0,-0.94717 -0.5558,-0.95863 -2.56093,-0.0527 -1.52584,0.68932 -1.54946,0.73474 -1.71149,3.29115 -0.21927,3.45914 -0.042,3.74184 1.651,2.63257 z m -64.48735,-0.9671 c 0.64099,-0.66906 1.47391,-1.21647 1.85092,-1.21647 0.37701,0 0.91263,-0.2737 1.19025,-0.60823 0.76685,-0.92398 -0.62222,-0.76697 -2.83843,0.32083 -1.23467,0.60602 -1.8666,1.19066 -1.95428,1.80799 -0.17605,1.23959 0.36208,1.14616 1.75154,-0.30412 z m 12.77296,0.59197 c 0,-0.12046 -0.7755,-0.93931 -1.72334,-1.81966 -1.65545,-1.53759 -1.6834,-1.60273 -0.70961,-1.6537 0.55756,-0.0291 1.15059,-0.0314 1.31785,-0.005 0.44713,0.0707 0.36719,-0.72895 -0.28911,-2.89179 -0.51867,-1.70932 -0.28604,-2.61523 0.39049,-1.5206 0.13778,0.22302 0.46793,0.39942 0.73353,0.392 0.8296,-0.0231 -1.38637,-1.60847 -2.24836,-1.60847 -0.69493,0 -0.77971,0.18521 -0.56841,1.2417 0.14436,0.72147 0.006,1.82206 -0.33049,2.627 -0.48697,1.16548 -0.84007,1.42711 -2.22511,1.64858 -0.90546,0.14482 -1.64628,0.40112 -1.64628,0.56962 0,0.36461 1.46111,0.79315 2.73068,0.80092 0.49826,0.003 1.50186,0.5476 2.2302,1.21011 1.19508,1.08711 2.33796,1.58052 2.33796,1.00935 z m 29.60086,-0.98172 c 0,-0.18804 -0.58152,-0.54461 -1.29226,-0.79238 -1.85502,-0.64665 -2.46968,0.15311 -0.6906,0.89848 1.3709,0.57442 1.98286,0.54167 1.98286,-0.10605 z m -136.86391,0.002 c 0.28108,-0.45482 -1.84746,-1.645 -2.909,-1.62659 -0.47192,0.008 -0.15669,0.36562 0.89221,1.01166 1.88437,1.1606 1.71201,1.10806 2.01679,0.61493 z m 168.49221,-1.25769 c 0,-0.43287 -0.18248,-0.78705 -0.4055,-0.78705 -0.22302,0 -0.40548,0.46696 -0.40548,1.03767 0,0.58851 0.17551,0.92918 0.40548,0.78705 0.22302,-0.13778 0.4055,-0.60478 0.4055,-1.03767 z m -2.24914,-0.34492 c 0.33555,-0.64891 0.82524,-1.25155 1.08818,-1.3392 0.69499,-0.23166 0.0711,-2.34684 -0.69217,-2.34684 -0.71204,0 -1.79629,2.31731 -1.79629,3.83913 0,1.37085 0.64889,1.29991 1.40028,-0.1531 z m -34.65056,-0.202 c -2.17725,-1.15635 -6.53579,-1.77485 -5.54826,-0.78734 0.41918,0.41918 4.0105,1.30239 5.34552,1.3146 l 1.21647,0.0107 z m -97.82452,-0.74699 c -0.20449,-0.61416 -1.32152,-0.87284 -2.24271,-0.51934 -0.58117,0.22302 -0.59193,0.31111 -0.0777,0.63632 0.89197,0.56409 2.51985,0.48202 2.32042,-0.11693 z m 111.74927,-0.65347 c 3.49705,-1.47539 3.97555,-1.92719 2.59644,-2.45152 -3.71639,-1.41297 -41.30817,-10.98582 -43.14038,-10.98582 -1.19681,0 -2.12283,0.4174 -4.1296,1.86142 -0.0739,0.0532 0.0613,0.46191 0.30026,0.90843 0.23895,0.44651 1.30295,1.09212 2.36442,1.43471 2.98309,0.96275 37.90287,10.27345 38.84132,10.35629 0.22946,0.0202 1.65485,-0.48532 3.16754,-1.12351 z m -62.85637,-0.8829 c 1.23235,-1.74174 1.32247,-2.68608 0.17563,-1.84041 -0.76484,0.56399 -2.13797,3.48366 -1.6317,3.4695 0.17025,-0.005 0.82548,-0.73785 1.45607,-1.62909 z m -93.5746,-0.19986 c -0.75749,-0.57293 -2.25408,-0.82492 -2.25408,-0.37952 0,0.287 1.66629,0.94591 2.43294,0.96205 0.45536,0.009 0.4104,-0.13686 -0.17886,-0.58253 z m 79.50131,0.33217 c -0.30966,-0.30965 -2.73008,-1.30173 -6.33405,-2.59618 -2.62315,-0.94217 -15.09567,-4.41369 -15.85754,-4.41369 -0.89316,0 0.13165,0.6643 2.07085,1.34237 5.49736,1.92222 18.79179,5.85929 20.03801,5.93414 0.20443,0.0123 0.24165,-0.10774 0.0828,-0.26664 z m -43.50765,-0.95813 c -0.88007,-0.88007 -17.87614,-6.83348 -19.56136,-6.85197 -1.78041,-0.0196 -0.46319,0.57216 6.37849,2.8653 3.7214,1.24729 7.95224,2.73932 9.40187,3.31559 2.82569,1.12333 4.53697,1.42705 3.781,0.67108 z m 146.26506,-2.85062 c 0.20616,-1.42608 0.37269,-3.23153 0.37008,-4.01211 -0.005,-1.24964 -0.0677,-1.3364 -0.53137,-0.72608 -0.85925,1.13092 -1.60922,4.95236 -1.29776,6.61258 0.39408,2.10061 0.99627,1.327 1.45905,-1.87439 z m -84.18917,-4.52059 c 3.22467,-3.15996 3.66458,-4.05633 1.56365,-3.18609 -2.02404,0.83837 -5.24621,4.18761 -6.54937,6.80759 -0.68521,1.37762 -1.4324,2.62007 -1.6604,2.76099 -0.22801,0.14085 -0.40507,0.47353 -0.39344,0.73916 0.0123,0.26561 0.87835,-0.52066 1.92609,-1.74728 1.04772,-1.2266 3.34879,-3.64507 5.11347,-5.37437 z m 27.00056,7.02027 c 0,-0.53004 -0.38277,-0.71784 -2.13192,-1.04598 -2.01223,-0.37748 -2.00965,0.40528 0.003,0.93986 2.04016,0.54186 2.12882,0.54629 2.12882,0.10606 z m -129.35164,-0.40029 c 0,-0.4396 -4.46462,-2.18754 -4.78054,-1.87162 -0.1174,0.1174 -0.45836,0.0107 -0.75766,-0.23814 -0.29963,-0.24866 -0.54416,-0.27787 -0.54416,-0.065 0,0.49453 1.33624,1.19292 3.64942,1.90735 2.30102,0.7107 2.43294,0.7252 2.43294,0.2674 z m 93.86259,-2.33073 c 0.79628,-1.04286 1.38391,-2.08775 1.30582,-2.32198 -0.078,-0.23424 -2.86525,-1.18285 -6.19372,-2.10803 -3.32849,-0.92517 -10.88725,-3.09227 -16.79728,-4.8158 -5.91004,-1.7235 -11.65786,-3.37552 -12.77297,-3.67113 -1.1151,-0.29562 -8.3227,-2.29531 -16.0169,-4.44375 -7.6942,-2.14846 -15.99662,-4.45327 -18.44984,-5.12182 -8.37194,-2.28149 -17.43144,-4.8682 -21.08553,-6.02043 -2.00719,-0.63292 -10.40086,-3.06691 -18.6526,-5.40887 -26.06453,-7.39747 -38.44509,-10.92081 -40.9546,-11.65514 -22.017119,-6.44252 -37.13527,-10.95498 -44.40127,-13.25288 -4.456384,-1.40933 -6.460396,-1.84794 -8.278899,-1.81191 -3.089493,0.0611 -4.780182,0.44036 -4.584272,1.02809 0.08553,0.25659 5.97988,2.22585 13.098567,4.37617 7.118685,2.15031 15.680129,4.76601 19.025431,5.81269 3.345301,1.04667 9.458079,2.90391 13.583953,4.12718 4.12587,1.22328 10.96853,3.28808 15.20591,4.58843 4.23738,1.30033 10.4414,3.12621 13.7867,4.05749 3.3453,0.93128 7.17719,2.03039 8.51531,2.44247 1.33812,0.41206 6.90349,2.0572 12.36748,3.65588 5.46399,1.59867 11.57678,3.42887 13.58394,4.06711 2.00719,0.63825 11.13075,3.37641 20.27456,6.08477 9.14382,2.70838 20.09208,5.9927 24.32947,7.29847 4.23737,1.30579 11.7187,3.5585 16.62513,5.00603 18.23319,5.37926 24.44186,7.22635 28.78987,8.56503 2.45322,0.75531 4.8626,1.38336 5.35418,1.39566 0.60201,0.0153 1.36641,-0.59661 2.34156,-1.87373 z m 75.83541,1.49062 c -0.13777,-0.22302 -0.50277,-0.4055 -0.81098,-0.4055 -0.3082,0 -0.67315,0.18248 -0.81098,0.4055 -0.14268,0.23088 0.20652,0.40549 0.81098,0.40549 0.60447,0 0.95368,-0.17461 0.81098,-0.40549 z m 3.61626,0.15936 c 0.89575,-0.34374 0.8017,-0.97034 -0.1456,-0.97034 -0.43287,0 -0.89688,-0.17774 -1.03114,-0.39496 -0.44991,-0.72797 -10.80982,-3.24927 -13.36744,-3.25324 -1.44435,-0.002 -0.0736,0.67042 2.41267,1.18391 3.97471,0.8209 10.91402,2.49763 11.09796,2.68157 0.0939,0.094 -0.26627,0.34561 -0.80044,0.55928 l -0.97122,0.38851 1.08193,0.0257 c 0.59507,0.0138 1.37057,-0.085 1.72334,-0.22043 z m -57.12441,-2.15984 c -0.14697,-0.23786 -0.46131,-0.43246 -0.69848,-0.43246 -0.26889,0 -0.23813,0.23265 0.0817,0.61802 0.55615,0.67013 1.05321,0.52058 0.61678,-0.18556 z m -12.95385,-1.69704 c 1.36546,-1.51859 5.5252,-4.24504 9.81442,-6.43276 2.29686,-1.17151 4.10611,-2.2 4.02058,-2.28553 -0.37906,-0.37905 -6.47904,1.52403 -8.06465,2.51603 -2.78565,1.74275 -5.46578,4.12077 -6.36832,5.65047 -0.92603,1.56952 -0.59326,1.8766 0.59797,0.55179 z m 76.98159,-0.0624 c 0.33206,-0.50679 0.88878,-2.28588 1.23716,-3.95354 0.34838,-1.66766 1.63192,-6.81674 2.85229,-11.44239 2.29137,-8.68517 2.49396,-9.82167 1.82458,-10.23537 -0.21684,-0.13395 -1.81347,0.74141 -3.54804,1.94537 -4.85436,3.36941 -7.95739,4.92861 -13.73862,6.90337 -7.05285,2.40911 -14.87487,3.94934 -26.11211,5.14173 -5.13924,0.54532 -7.93228,1.11573 -7.51357,1.53442 0.14989,0.14989 6.60045,1.86392 14.33449,3.80884 7.73403,1.94493 16.89017,4.34827 20.34698,5.34076 7.37485,2.11741 9.4314,2.30813 10.31684,0.95681 z m -332.682239,-0.0684 c 0,-0.0984 -0.18247,-0.29159 -0.405491,-0.42943 -0.22302,-0.13777 -0.40549,-0.0573 -0.40549,0.17882 0,0.23619 0.18247,0.42943 0.40549,0.42943 0.223021,0 0.405491,-0.0805 0.405491,-0.17882 z m 2.175051,-1.93788 c -0.151234,-0.24469 -0.385813,-0.18687 -0.597564,0.14728 -0.554211,0.87465 -0.416531,1.30376 0.242758,0.75659 0.332075,-0.27558 0.491738,-0.68236 0.354806,-0.90392 z m 210.112058,0.67629 c -0.43916,-0.332 -1.53398,-0.79167 -2.43295,-1.02147 -0.89897,-0.22981 -2.28311,-0.66652 -3.07586,-0.97045 -2.899,-1.11147 -10.20744,-3.09664 -10.86157,-2.9503 -0.37003,0.0828 0.42205,0.48139 1.76018,0.88581 1.33811,0.40441 3.80146,1.24734 5.47412,1.87318 1.67266,0.62582 3.66254,1.26169 4.42199,1.41307 0.75944,0.15141 1.94549,0.52104 2.63568,0.82151 0.6902,0.30048 1.61983,0.54766 2.06587,0.5493 0.80538,0.003 0.80546,-0.001 0.0123,-0.60065 z m 96.69708,0.26731 c 0,-0.19916 -0.31933,-0.48555 -0.70961,-0.63643 -1.36398,-0.52731 -8.34052,-1.84572 -8.56723,-1.61902 -0.39217,0.39217 0.8733,0.95578 3.19447,1.42277 1.22662,0.24678 2.77762,0.60009 3.44668,0.78517 1.66849,0.46151 2.63569,0.47895 2.63569,0.0475 z m 28.188,-1.69435 c 0.29611,-1.34815 0.0953,-1.82894 -0.58763,-1.40689 -0.52843,0.32659 -0.58033,2.65236 -0.0591,2.65236 0.20528,0 0.49636,-0.56046 0.64681,-1.24547 z M 179.8645,210.21115 c 0,-0.48682 -3.83346,-1.75708 -4.75907,-1.57697 -0.43183,0.084 0.1683,0.48732 1.51514,1.0182 2.48471,0.9794 3.24393,1.11018 3.24393,0.55877 z m 81.9092,-0.38257 c 0,-0.36159 -1.51537,-0.86136 -8.10983,-2.6746 -6.04891,-1.66325 -5.60283,-1.58101 -4.71529,-0.86924 0.72777,0.58365 4.86196,1.97673 9.58118,3.22855 2.70429,0.71734 3.24394,0.76979 3.24394,0.31529 z m 48.2558,-0.73837 c -1.82594,-0.79481 -4.41754,-1.21041 -3.85454,-0.61816 0.50558,0.53184 2.90823,1.22672 4.25767,1.23138 0.90259,0.003 0.85839,-0.0641 -0.40313,-0.61322 z m -6.64871,-1.27298 c -0.37436,-0.60573 -3.41621,-1.40391 -4.1704,-1.09432 -0.61882,0.25404 -0.50774,0.39056 0.67946,0.8351 1.60572,0.60124 3.80316,0.76441 3.49094,0.25922 z m -34.00766,-1.9457 c 1.1728,-0.80772 2.13235,-1.685 2.13235,-1.94949 0,-0.51728 -3.1054,-1.43124 -16.42239,-4.83332 -4.68341,-1.19647 -14.81056,-3.83155 -22.50475,-5.85573 -7.6942,-2.02418 -18.00381,-4.71042 -22.91024,-5.96942 -4.90644,-1.259 -12.93516,-3.34502 -17.84161,-4.63559 -4.90644,-1.29059 -16.67582,-4.30755 -26.15417,-6.70435 -9.47836,-2.3968 -18.87561,-4.79128 -20.88279,-5.32108 -2.00719,-0.52979 -5.74784,-1.51235 -8.31257,-2.18346 -2.56473,-0.67112 -6.67033,-1.7654 -9.12355,-2.43176 -2.45322,-0.66636 -10.84689,-2.86984 -18.65259,-4.89662 -7.8057,-2.02679 -18.20655,-4.7893 -23.112992,-6.13892 -4.906442,-1.34961 -9.352417,-2.54768 -9.879942,-2.66236 -1.062103,-0.23089 -6.47528,0.68366 -6.758453,1.14184 -0.326933,0.52899 3.347788,1.67849 14.002704,4.38024 5.473975,1.38803 17.311323,4.59789 27.776133,7.53188 18.12123,5.08062 46.57988,12.74585 62.64838,16.8741 1.89567,0.48702 5.72756,1.51381 8.51531,2.28173 15.23855,4.1977 37.78384,10.30279 52.10559,14.10979 9.72745,2.58574 16.63529,4.4416 24.73496,6.64531 4.01437,1.09221 7.57097,2.00832 7.90357,2.03581 0.3326,0.0274 1.56427,-0.61086 2.73705,-1.4186 z m 85.02192,0.55624 c 0.1016,-0.50179 0.29422,-2.0043 0.42792,-3.33892 0.13364,-1.33462 0.87511,-5.31628 1.6476,-8.84817 1.48206,-6.77617 1.63777,-7.98609 1.0278,-7.98609 -0.4876,0 -1.46638,3.46988 -2.02291,7.17142 -0.24095,1.60258 -0.983,5.14528 -1.64901,7.87267 -0.90359,3.70033 -1.0969,5.09627 -0.7617,5.50017 0.65768,0.79246 1.12073,0.66328 1.3303,-0.37108 z m -220.06254,-0.1508 c -0.21237,-0.21237 -2.12539,-0.8152 -6.57361,-2.07149 -0.46788,-0.13211 -0.66966,-0.0751 -0.47693,0.13502 0.18373,0.20018 1.82597,0.84806 3.64942,1.4397 3.05991,0.99283 4.04033,1.13605 3.40112,0.49683 z m 72.69989,0.5022 c 0,-0.0855 -0.3652,-0.25095 -0.81154,-0.36767 -0.44634,-0.11678 -0.70929,-0.0468 -0.58431,0.15544 0.21826,0.35315 1.39585,0.53219 1.39585,0.21223 z m -39.09495,-0.59901 c -0.28069,-0.45415 -5.1077,-1.80952 -5.40074,-1.51648 -0.12337,0.12337 0.0299,0.31777 0.34051,0.43188 4.01706,1.47546 5.49797,1.79287 5.06023,1.0846 z M 15.394489,205.48224 c 0.35323,-0.9205 0.303301,-1.46925 -0.110421,-1.21356 -0.481132,0.29735 -0.867273,1.85496 -0.459859,1.85496 0.178282,0 0.434905,-0.28863 0.570275,-0.6414 z m 264.039921,-1.18331 c 2.56687,-1.0036 4.77001,-1.82471 4.89588,-1.82471 0.12583,0 1.2149,-0.28666 2.42007,-0.63702 2.66605,-0.77503 2.95903,-1.60591 0.44476,-1.26128 -3.98736,0.54653 -12.8512,4.11986 -12.8512,5.18076 0,0.53289 -0.003,0.53385 5.09049,-1.45775 z m -78.88986,0.65162 c 0,-0.43925 -1.00121,-0.85436 -2.06063,-0.85436 -0.97316,0 -1.0232,0.68739 -0.0682,0.93695 1.24377,0.32503 2.12884,0.2907 2.12884,-0.0826 z m 84.54488,-0.44887 c 0.13778,-0.22302 -0.11433,-0.40549 -0.56038,-0.40549 -0.44604,0 -0.92375,0.18247 -1.06158,0.40549 -0.13777,0.22301 0.11433,0.40548 0.56037,0.40548 0.44604,0 0.92375,-0.18247 1.06159,-0.40548 z m -90.79195,-1.82725 c -1.3899,-1.05191 -8.66289,-2.85666 -7.74237,-1.92122 0.58924,0.5988 6.31089,2.51258 7.50158,2.50914 0.97015,-0.003 0.98049,-0.028 0.24079,-0.58792 z m -72.52802,-0.4452 c -0.13474,-0.13471 -0.48448,-0.14911 -0.77719,-0.032 -0.32348,0.12951 -0.22739,0.22554 0.24498,0.245 0.42746,0.0176 0.66695,-0.0782 0.53221,-0.21298 z m 152.16897,-2.46764 c -0.78058,-0.34046 -3.4264,-1.05506 -5.87962,-1.58801 -6.54128,-1.42107 -13.04374,-2.99601 -15.81416,-3.83031 -4.06531,-1.22424 -4.25765,-1.26331 -4.25765,-0.86487 0,0.50326 5.80337,2.3411 10.38016,3.28723 3.81823,0.78931 5.55723,1.21037 11.11086,2.6902 1.89568,0.50512 3.9941,0.91983 4.66315,0.92159 l 1.21648,0.003 z m 22.302,0.29094 c 0.78057,-0.21434 3.34261,-0.57002 5.69339,-0.7904 5.283,-0.49525 7.50405,-1.1929 3.83566,-1.2048 -1.33813,-0.005 -3.71025,0.16912 -5.27138,0.38549 -1.56115,0.21637 -3.56833,0.49094 -4.46041,0.61016 -2.68688,0.35909 -3.44667,0.57866 -3.44667,0.99601 0,0.5061 1.81287,0.50785 3.64941,0.003 z M 148.2362,199.41997 c 0,-0.3477 -1.79194,-0.92486 -2.17212,-0.69962 -0.19108,0.11326 -0.0999,0.3627 0.20274,0.55442 0.60753,0.38494 1.96938,0.48535 1.96938,0.14514 z m -37.30518,-0.5189 c 0,-0.64256 -2.34564,-2.05056 -3.89823,-2.33995 l -1.5759,-0.29375 1.26911,1.07102 c 1.77833,1.50075 4.20502,2.40256 4.20502,1.56268 z m 72.15239,-0.0661 c -0.78409,-0.45885 -6.42385,-2.03862 -7.26566,-2.0352 -0.80676,0.003 1.37135,1.1735 3.43852,1.84741 1.92093,0.62624 4.81941,0.76846 3.82714,0.18779 z m 38.94042,-0.43157 c -0.65553,-0.41458 -3.11356,-0.54138 -2.71211,-0.13993 0.32737,0.32738 2.87117,0.87784 3.11761,0.67464 0.10498,-0.0866 -0.0774,-0.32725 -0.4055,-0.53473 z m 62.86286,-0.39254 c 3.95029,-1.21048 12.60067,-2.33897 21.69378,-2.83005 10.06565,-0.5436 13.65366,-0.9826 18.04434,-2.20778 1.89567,-0.52896 4.35902,-1.17247 5.47413,-1.43001 8.02319,-1.85294 17.61938,-8.03706 22.523,-14.51461 3.385,-4.47147 3.50529,-6.30191 0.44787,-6.81492 -4.69975,-0.78858 -25.25272,-4.62765 -36.75757,-6.8659 -20.10083,-3.9106 -32.97113,-6.32047 -45.61774,-8.54158 -4.34889,-0.76379 -11.19156,-2.02158 -15.20591,-2.79508 -4.01437,-0.7735 -10.85703,-2.05814 -15.20591,-2.85477 -15.59258,-2.85622 -23.41774,-4.30824 -29.8036,-5.53026 -6.44839,-1.23397 -11.09628,-2.08859 -37.10243,-6.82206 -7.47118,-1.35986 -16.41225,-3.00894 -19.86908,-3.66465 -3.4568,-0.65571 -11.48552,-2.12055 -17.84159,-3.25522 -6.35608,-1.13466 -14.29356,-2.59268 -17.63887,-3.24005 -3.3453,-0.64736 -10.00549,-1.92394 -14.80042,-2.83683 -4.79493,-0.9129 -10.395227,-2.01422 -12.445101,-2.44737 -3.89778,-0.82363 -4.834905,-0.75852 -5.149669,0.35778 -0.653028,2.31594 -1.947476,8.05077 -2.439874,10.80943 -0.318458,1.78416 -1.050129,5.88514 -1.625936,9.1133 -0.575806,3.22817 -1.04692,6.10504 -1.04692,6.39305 0,0.28802 0.593031,0.79602 1.317847,1.12887 1.260111,0.5787 29.659683,7.74316 49.774033,12.55669 5.24097,1.2542 14.27328,3.44755 20.0718,4.87409 5.79852,1.42654 17.2942,4.24498 25.54594,6.2632 52.81411,12.91725 98.91821,24.38725 102.58924,25.52264 1.77697,0.54959 2.16684,0.5213 5.06864,-0.36791 z m 36.26154,-0.77465 c 2.85794,-0.49914 3.94359,-1.24993 1.80744,-1.24993 -1.36557,0 -5.45157,0.62613 -6.95343,1.06553 -0.39353,0.1151 -0.59796,0.39951 -0.45429,0.63197 0.26049,0.42149 0.9312,0.36789 5.60028,-0.44757 z M 17.07687,194.06025 c 0.141088,-0.83632 0.327663,-1.7943 0.414607,-2.12882 0.197381,-0.75945 -0.484367,-1.90716 -0.8912,-1.50032 -0.508629,0.50862 -0.703104,5.14974 -0.215788,5.14974 0.239721,0 0.551291,-0.68428 0.692381,-1.5206 z m 313.52048,0.46463 c -0.13471,-0.13471 -0.48448,-0.14912 -0.77718,-0.032 -0.32348,0.1295 -0.2274,0.22553 0.24498,0.24498 0.42745,0.0176 0.66694,-0.0782 0.5322,-0.21297 z m -163.30307,-0.31953 c 0,-0.0875 -1.27892,-0.47249 -2.84205,-0.85555 -1.56312,-0.38306 -2.939,-0.85336 -3.05751,-1.0451 -0.31549,-0.51048 -5.79336,-2.07293 -6.5949,-1.88107 -0.9227,0.22086 0.60893,0.86761 6.00661,2.53641 3.80724,1.17707 6.48785,1.69161 6.48785,1.24531 z m -70.14996,-0.46986 c 0,-0.34831 -2.728309,-1.40235 -3.535019,-1.3657 -0.417302,0.019 -0.03732,0.35711 0.899331,0.80035 1.622952,0.76798 2.635688,0.98522 2.635688,0.56535 z m -6.243473,-2.81766 c -0.774802,-0.58648 -1.460853,-0.48007 -1.460853,0.22659 0,0.20986 0.501795,0.37576 1.1151,0.36866 1.056563,-0.0123 1.074713,-0.0435 0.345753,-0.59525 z m 145.529653,-0.5748 c -1.20323,-0.4756 -4.41178,-0.83342 -4.00263,-0.44637 0.47969,0.45377 1.69171,0.71999 3.3944,0.74559 1.09678,0.0165 1.23497,-0.0515 0.60823,-0.29922 z m -45.61774,-0.24631 c 0,-0.37375 -2.0643,-1.01884 -9.02184,-2.81925 -3.73541,-0.96662 -6.88051,-1.61371 -6.98909,-1.438 -0.10866,0.1757 1.67034,0.8192 3.9532,1.42997 2.28286,0.61079 4.88055,1.38156 5.77262,1.71284 2.19275,0.8143 6.28511,1.53992 6.28511,1.11444 z M 345.5076,189.1158 c 2.49768,-1.46118 5.18557,-3.92964 4.97309,-4.56708 -0.32636,-0.97907 -1.07466,-0.70942 -2.79491,1.00718 -0.97498,0.97291 -2.54206,2.32497 -3.4824,3.00457 -0.94033,0.6796 -1.59419,1.35116 -1.45301,1.49234 0.39678,0.39678 0.58891,0.33149 2.75723,-0.93701 z M 84.625316,188.86774 c -1.198443,-0.54426 -3.054434,-1.24953 -4.124424,-1.5673 -1.069993,-0.31774 -2.340346,-0.78907 -2.823009,-1.04738 -0.482665,-0.25831 -0.971321,-0.37591 -1.085907,-0.26133 -0.339861,0.33986 3.937728,2.37952 6.562905,3.12936 3.457022,0.98744 3.997555,0.89431 1.470435,-0.25335 z m 63.813624,-0.3976 c -0.66906,-0.30636 -1.58141,-0.55877 -2.02745,-0.56093 -0.71514,-0.003 -0.69118,0.0645 0.20275,0.57559 0.55755,0.31872 1.4699,0.57114 2.02745,0.56093 0.98843,-0.0181 0.98338,-0.0325 -0.20275,-0.57559 z m -7.09609,-2.21555 c -0.80119,-0.51777 -2.14471,-0.51777 -1.82471,0 0.13784,0.22302 0.74163,0.4027 1.34178,0.39928 0.85346,-0.005 0.95867,-0.0918 0.48293,-0.39928 z m 218.14495,-4.63628 c 0.45113,-1.31122 0.82022,-2.62916 0.82022,-2.92878 0,-0.6371 -1.24228,-0.72599 -1.94636,-0.13931 -0.35387,0.2949 -0.376,0.27278 -0.0811,-0.0811 0.48758,-0.58512 0.50695,-1.15864 0.0627,-1.85871 -0.49477,-0.77979 -1.6847,-0.13364 -1.6847,0.91479 0,1.01805 -0.9446,2.40324 -3.395,4.97855 -1.56792,1.64786 -1.59649,1.72334 -0.65185,1.72334 0.63513,0 1.51735,-0.57919 2.47053,-1.62196 0.81544,-0.89208 1.68617,-1.62196 1.93495,-1.62196 0.25413,0 0.45234,0.68113 0.45234,1.55437 0,2.99405 0.79669,2.63117 2.01822,-0.91928 z m -224.83378,2.20047 c 0.35216,-0.56981 -0.68664,-0.89323 -2.29474,-0.71447 l -1.35645,0.15081 1.01373,0.4603 c 1.2891,0.58537 2.31473,0.62557 2.63746,0.10345 z m 73.18937,-0.36903 c 0,-0.31862 -3.33842,-1.25006 -4.48036,-1.25006 -0.81646,0 -0.33294,0.7626 0.72956,1.15066 1.42807,0.52158 3.7508,0.58314 3.7508,0.0995 z M 16.046109,182.60517 c 0,-0.44604 -0.161189,-0.81099 -0.358198,-0.81099 -0.197008,0 -0.453633,0.36495 -0.570275,0.81099 -0.137839,0.52708 -0.01241,0.81099 0.358198,0.81099 0.313652,0 0.570275,-0.36495 0.570275,-0.81099 z m 185.557581,-0.46928 c -1.14405,-0.66445 -4.70856,-1.53485 -4.70856,-1.14977 0,0.43599 3.15356,1.54934 4.4604,1.57472 0.92823,0.0181 0.94917,-0.0178 0.24816,-0.42495 z M 18.638418,179.93632 c 0.380645,-0.99195 0.298116,-1.12302 -0.362108,-0.57508 -0.674079,0.55945 -0.807016,1.21647 -0.246128,1.21647 0.199159,0 0.472865,-0.28863 0.608236,-0.64139 z m 174.789752,-0.1295 c -0.37816,-0.35878 -6.94973,-2.23022 -9.27089,-2.64015 -2.93402,-0.51816 1.46052,1.27779 6.24999,2.55423 1.89591,0.50529 3.51137,0.55123 3.0209,0.086 z m -171.423679,-3.08207 1.137712,-1.0146 -1.534615,0.13655 c -1.670864,0.14866 -2.566093,0.75696 -2.136641,1.45183 0.439344,0.71088 1.315516,0.51246 2.533544,-0.57376 z m -10.013293,-0.35543 c 0,-0.64109 -2.129939,-1.63965 -2.919205,-1.36858 -0.31651,0.10866 0.04014,0.52979 0.891751,1.05287 1.660162,1.01971 2.027454,1.0769 2.027454,0.31571 z m 3.118442,-1.32078 c 0.299931,-0.78161 -0.409559,-2.01894 -1.069679,-1.8655 -0.791706,0.18403 -2.048763,-0.71131 -2.048763,-1.45923 0,-1.69344 -2.183764,-2.27332 -3.41937,-0.90798 -1.136429,1.25573 -0.672667,2.24004 1.125243,2.38825 1.222302,0.10069 1.694557,0.3797 2.226829,1.31528 0.771787,1.35658 2.74261,1.68395 3.18574,0.52918 z m 87.71156,-0.49667 c 0,-0.19196 -1.32292,-0.75406 -2.93981,-1.24909 -4.322932,-1.32354 -4.35903,-1.33082 -4.35903,-0.87914 0,0.22869 1.41415,0.87108 3.14256,1.42752 3.43731,1.10659 4.15628,1.22782 4.15628,0.70071 z m 256.2644,-1.7711 c 0.27784,-0.72959 0.91197,-2.23889 1.40919,-3.354 1.01373,-2.27341 1.57764,-4.66315 1.10037,-4.66315 -0.52302,0 -2.07128,3.53667 -2.3527,5.37423 -0.14498,0.94703 -0.51202,2.2146 -0.81554,2.81684 -0.63783,1.26556 -0.69787,1.67883 -0.19914,1.3706 0.19397,-0.11984 0.57999,-0.81491 0.85782,-1.54452 z M 18.768965,172.16071 c 1.814971,-0.25569 2.348271,-1.00329 1.356174,-1.90113 -0.835594,-0.7562 -1.646083,-0.55551 -1.646083,0.4076 0,0.95709 -0.74905,0.66474 -1.35999,-0.5308 -0.623109,-1.21936 -0.329653,-2.55584 0.84657,-3.85557 0.61427,-0.67875 0.59788,-0.77344 -0.234859,-1.3567 -0.492367,-0.34487 -0.844752,-0.91135 -0.783077,-1.25885 0.08665,-0.48821 -0.648129,-0.78522 -3.233164,-1.30688 -1.839916,-0.37129 -3.345302,-0.61039 -3.345302,-0.53134 0,0.0791 0.797013,0.49631 1.771142,0.9272 2.283908,1.01029 3.031936,1.84598 1.957565,2.18697 -0.586517,0.18615 -0.726416,0.51415 -0.57664,1.35194 0.23064,1.29014 1.198838,2.52539 1.979418,2.52539 0.496076,0 0.701177,1.00694 0.68497,3.36286 -0.0035,0.51265 0.184494,0.64396 0.637319,0.44507 0.353276,-0.15515 1.228956,-0.36475 1.945957,-0.46576 z m 6.783608,-0.24657 1.193899,-0.95526 -0.9463,-0.50646 c -0.520464,-0.27854 -1.487684,-0.66171 -2.149378,-0.85147 -1.115488,-0.31993 -1.182794,-0.27979 -0.924471,0.55137 0.153241,0.49302 0.376384,1.30698 0.495888,1.80878 0.27631,1.16022 0.835727,1.14894 2.330362,-0.0469 z m 64.698402,-1.47364 c 0,-0.22302 -0.501794,-0.39266 -1.1151,-0.37699 -0.988118,0.0253 -1.02275,0.0682 -0.304118,0.37699 1.10755,0.47594 1.419218,0.47594 1.419218,0 z m 61.634645,-0.74847 c 0,-0.27941 -5.41457,-2.08996 -6.25011,-2.08996 -0.63297,0 -0.129,0.75079 0.67461,1.00501 4.51433,1.42807 5.5755,1.63457 5.5755,1.08495 z M 25.599021,166.98094 c -0.875887,-0.6625 -2.254073,-0.79924 -2.254073,-0.22365 0,0.47928 0.751643,0.77581 2.027456,0.79986 0.977768,0.0184 0.985807,-0.002 0.226617,-0.57621 z m 326.330389,-0.20606 c -0.49376,-0.48024 -6.74543,-2.01126 -8.21271,-2.01126 -1.65333,0 -1.60547,0.71203 0.0676,1.00507 1.99999,0.3503 4.80319,0.93949 6.38649,1.34234 1.49402,0.38014 2.33069,0.22022 1.75866,-0.33615 z m 6.23856,-2.51811 c 0.73393,-0.94852 0.86889,-1.84588 0.37849,-2.51656 -0.46186,-0.6316 -17.98666,-4.01157 -45.07266,-8.69305 -16.00604,-2.76645 -45.5913,-8.04733 -53.52482,-9.55404 -2.89926,-0.5506 -10.01562,-1.82229 -15.81414,-2.82595 -5.79852,-1.00367 -18.48026,-3.22106 -28.18163,-4.92755 -9.70138,-1.7065 -20.5584,-3.614 -24.12672,-4.23892 -3.56832,-0.62492 -11.59704,-2.05175 -17.84161,-3.17073 -6.24456,-1.11897 -14.8207,-2.60718 -19.05807,-3.30713 -9.01562,-1.48923 -22.76304,-3.93139 -25.26236,-4.48771 -0.95913,-0.21349 -5.97709,-1.12581 -11.15101,-2.02737 -5.17392,-0.90157 -13.62936,-2.44973 -18.78986,-3.44036 -5.160495,-0.99064 -9.707901,-1.80115 -10.105344,-1.80115 -0.967144,0 -2.205698,1.16574 -2.205698,2.07604 0,0.40363 0.352832,0.9227 0.784071,1.15349 0.431237,0.23079 4.85616,1.13745 9.833161,2.0148 4.977,0.87733 13.51962,2.41578 18.98362,3.41877 10.78388,1.97952 17.68708,3.20356 28.99261,5.14081 4.01436,0.68788 10.12713,1.77402 13.58396,2.41365 3.4568,0.63963 9.11341,1.64176 12.57022,2.22694 3.4568,0.58519 12.30664,2.15793 19.66631,3.49498 7.35967,1.33704 16.93939,3.04886 21.28828,3.80401 4.34889,0.75516 10.37043,1.83252 13.3812,2.39413 3.01077,0.56162 11.31321,2.04124 18.44984,3.28806 7.13665,1.24681 14.89166,2.61238 17.23337,3.03458 2.34172,0.42221 7.90709,1.41559 12.36748,2.20751 4.46041,0.79192 11.21183,2.00254 15.00318,2.69028 3.79133,0.68772 10.72522,1.8794 15.40865,2.64813 4.68343,0.76875 10.7962,1.84801 13.58395,2.39837 2.78775,0.55035 10.36031,1.99767 16.82788,3.21627 6.46758,1.21861 13.58395,2.56771 15.81416,2.99802 4.93493,0.95215 6.47107,1.03392 6.98349,0.37168 z m -24.01412,-0.67764 c -1.43775,-0.57106 -4.09006,-0.94055 -3.64942,-0.50838 0.50349,0.49381 1.65612,0.7813 3.24393,0.80915 1.00186,0.0176 1.0734,-0.0354 0.40549,-0.30077 z M 23.344948,162.33067 c 0,-0.22302 -0.273706,-0.40548 -0.608237,-0.40548 -0.33453,0 -0.608237,0.18246 -0.608237,0.40548 0,0.22304 0.273707,0.40551 0.608237,0.40551 0.334531,0 0.608237,-0.18247 0.608237,-0.40551 z M 324.90237,161.7468 c -0.675,-0.51173 -6.82445,-1.85183 -8.48875,-1.84989 -1.53381,0.002 -0.59387,0.77694 1.41921,1.17039 1.17087,0.22885 2.94996,0.58719 3.95354,0.79631 1.00359,0.20912 2.28089,0.39396 2.83844,0.41076 0.94553,0.0285 0.96419,-0.008 0.27756,-0.52757 z M 31.860261,159.89773 c -1.062664,-0.83122 -2.838438,-1.09215 -2.838438,-0.41707 0,0.21664 0.593031,0.56511 1.317847,0.7744 2.164999,0.62512 2.635292,0.5146 1.520591,-0.35733 z M 20.29001,158.71828 c 3.495651,-1.7209 4.790385,-3.55979 4.98421,-7.07901 0.120444,-2.18695 -0.01557,-2.74819 -1.127292,-4.65124 -1.970495,-3.37311 -5.53089,-4.5533 -7.796701,-2.58439 -0.984665,0.85563 -0.941533,2.51838 0.06533,2.51838 0.917371,0 2.874483,2.18705 2.874483,3.2122 0,1.02295 -1.181495,1.94646 -2.89748,2.26481 -1.317021,0.24432 -1.657909,0.11187 -3.125242,-1.2137 -2.002502,-1.80915 -2.291994,-2.60999 -1.65336,-4.57379 1.088694,-3.34773 4.43019,-6.58287 6.799296,-6.58287 0.983327,0 1.664764,-0.82881 1.333538,-1.62196 -0.139708,-0.33453 -0.773139,-1.47497 -1.407636,-2.53433 -1.367373,-2.28294 -2.123684,-2.4161 -5.257965,-0.92577 -7.215167,3.43075 -10.9424335,11.42113 -8.4311177,18.07432 1.0687785,2.83149 3.2501457,4.99105 6.3638187,6.3002 3.171825,1.33361 5.672797,1.17106 9.276121,-0.60285 z m 295.00851,1.19782 c 0,-0.2129 -0.68427,-0.50294 -1.52059,-0.64452 -0.83632,-0.14161 -2.84642,-0.61636 -4.46686,-1.05509 -2.56,-0.69312 -7.43092,-0.93295 -5.7718,-0.2842 0.82089,0.32098 8.86398,1.95503 11.45513,2.32725 0.16726,0.0241 0.30412,-0.13058 0.30412,-0.34344 z m 53.43707,-7.08241 c -0.17699,-1.18444 -2.76122,4.28124 -2.71736,5.74727 0.0264,0.88262 0.32518,0.48897 1.43833,-1.89511 0.77276,-1.65501 1.34832,-3.38848 1.27903,-3.85216 z M 5.0897186,158.46872 c -0.2821084,-0.33993 -0.5964298,-0.53453 -0.6984909,-0.43248 -0.2812073,0.28121 0.2901451,1.05052 0.7802042,1.05052 0.2688777,0 0.2381161,-0.23268 -0.081716,-0.61804 z m 21.4991584,-0.56527 c 0,-1.83959 -0.388449,-2.57956 -1.061082,-2.02132 -0.576693,0.47861 -0.772167,2.45269 -0.290554,2.9343 0.66415,0.66415 1.351636,0.19978 1.351636,-0.91298 z m 332.502663,-0.0331 c 0,-0.22302 -0.2737,-0.4055 -0.60822,-0.4055 -0.33453,0 -0.60825,0.18248 -0.60825,0.4055 0,0.22302 0.27372,0.40549 0.60825,0.40549 0.33452,0 0.60822,-0.18247 0.60822,-0.40549 z m -5.27137,-0.76585 c 0,-0.38057 -1.21047,-0.65411 -4.8659,-1.09965 -2.7217,-0.33172 -2.46284,0.12705 0.47605,0.8437 2.61952,0.63877 4.38985,0.74199 4.38985,0.25595 z m 13.00191,-4.31014 c 2.13642,-4.62428 2.02425,-5.57357 -0.20799,-1.76024 -1.97232,3.36933 -2.63164,5.21426 -1.86343,5.21426 0.26161,0 1.19375,-1.55431 2.07142,-3.45402 z m -327.257489,0.3973 c 5.017953,-0.79528 11.221966,-1.73754 13.786697,-2.09393 4.251733,-0.59077 20.37855,-3.94145 21.091738,-4.38221 0.761798,-0.47082 1.648776,-3.26007 2.204046,-6.93099 0.333894,-2.2074 0.992354,-5.5291 1.463245,-7.38156 1.28817,-5.06758 0.887237,-5.41649 -3.617352,-3.14801 -6.342332,3.19394 -10.994873,3.69969 -32.991249,3.58627 l -17.729192,-0.0914 -1.079362,0.92843 c -1.299424,1.11772 -1.239508,1.26829 2.16577,5.44289 4.173727,5.11665 5.142196,8.05217 4.169192,12.63718 -0.544015,2.5635 -0.336777,3.4327 0.737433,3.09296 0.371517,-0.11755 4.781083,-0.86432 9.799034,-1.6596 z m 245.322099,1.42472 c 0,-0.54578 -1.35667,-1.02576 -3.82012,-1.35154 -2.49216,-0.32956 -2.21241,-0.009 0.84598,0.96754 2.81783,0.90032 2.97414,0.92049 2.97414,0.384 z m 76.6378,-0.39545 c 0.95126,-0.95126 1.0326,-1.74424 0.24589,-2.39714 -0.50529,-0.41936 -18.14643,-3.54722 -35.72636,-6.33446 -3.56831,-0.56575 -10.49825,-1.76202 -15.39985,-2.6584 -4.9016,-0.8964 -14.75504,-2.62224 -21.89652,-3.83522 -7.14148,-1.21297 -17.72876,-3.02909 -23.52728,-4.03581 -5.79852,-1.00671 -16.92926,-2.84738 -24.73495,-4.09038 -7.8057,-1.243 -16.56431,-2.69505 -19.46357,-3.22678 -2.89926,-0.53174 -8.28216,-1.42403 -11.96199,-1.98285 -3.67983,-0.55882 -10.24878,-1.67013 -14.59768,-2.46957 -18.62999,-3.42463 -32.68283,-5.82328 -38.92714,-6.64435 -3.67983,-0.48387 -12.16473,-1.78163 -18.85534,-2.88393 -6.6906,-1.10229 -16.27033,-2.64718 -21.28828,-3.43308 -5.01795,-0.7859 -12.55887,-2.10712 -16.7576,-2.93606 l -7.634048,-1.50714 -0.760543,1.00322 c -0.614224,0.81021 -0.661747,1.10294 -0.247017,1.52161 0.282438,0.28512 4.333712,1.14248 9.002828,1.90528 4.66912,0.76279 11.50008,1.93749 15.17991,2.61045 6.28553,1.14947 17.04834,2.98957 45.41501,7.76453 6.57908,1.10746 12.23569,2.09656 12.57022,2.198 0.33452,0.10146 10.5529,1.83338 22.70749,3.84872 12.1546,2.01534 28.8507,4.8478 37.10244,6.29434 8.25174,1.44655 20.29482,3.53754 26.7624,4.64664 6.46759,1.1091 14.77001,2.57667 18.44984,3.26128 11.21373,2.08624 34.21396,5.96705 54.13307,9.13381 6.46757,1.02823 15.31741,2.56673 19.66631,3.4189 9.45184,1.85209 9.51418,1.85697 10.54276,0.82839 z M 82.141154,152.19334 c -0.33453,-0.21618 -0.881943,-0.38303 -1.216473,-0.37077 -0.401052,0.0153 -0.331992,0.14099 0.202746,0.37077 1.114729,0.47902 1.754951,0.47902 1.013727,0 z m 186.931386,-0.68979 c -0.78057,-0.34301 -2.60529,-0.79462 -4.05492,-1.0036 -1.44963,-0.20897 -3.45681,-0.56598 -4.4604,-0.79336 -2.10833,-0.47767 -8.46522,-1.55062 -9.24886,-1.56108 -0.29193,-0.005 -0.42677,0.16123 -0.29964,0.36693 0.32432,0.52475 5.50388,1.653 7.60109,1.65571 0.95957,0.001 2.47455,0.21289 3.36663,0.47031 1.66237,0.47971 6.81731,1.43856 7.90707,1.47076 0.33454,0.009 -0.0303,-0.26267 -0.81097,-0.60567 z m 55.95777,0.2843 c 0,-0.22301 -0.45619,-0.4055 -1.01373,-0.4055 -0.55755,0 -1.01373,0.18249 -1.01373,0.4055 0,0.22302 0.45618,0.40549 1.01373,0.40549 0.55754,0 1.01373,-0.18247 1.01373,-0.40549 z m -4.8659,-0.35736 c 0,-0.43925 -2.72998,-1.14945 -5.80976,-1.51143 -1.55769,-0.18306 -2.30006,-0.12736 -2.30006,0.17263 0,0.45626 1.39596,0.80098 5.27138,1.30168 1.22662,0.15848 2.36706,0.31208 2.53432,0.34132 0.16727,0.0293 0.30412,-0.10759 0.30412,-0.3042 z M 79.099971,150.97687 c -0.137839,-0.22302 -0.61555,-0.40549 -1.061589,-0.40549 -0.446041,0 -0.698209,0.18247 -0.560375,0.40549 0.137839,0.22302 0.615549,0.40548 1.061589,0.40548 0.44604,0 0.698209,-0.18246 0.560375,-0.40548 z m 228.088719,-1.96349 c 0,-0.46085 -6.46564,-2.01957 -9.7348,-2.34685 -3.38895,-0.33928 -2.99178,0.0561 1.05379,1.04904 6.49873,1.59508 8.68101,1.92131 8.68101,1.29781 z M 27.80535,147.78259 c 0,-0.64175 -0.307871,-1.41726 -0.684157,-1.72334 -0.602256,-0.48988 -0.650797,-0.46759 -0.40549,0.18627 0.153265,0.40852 0.278664,1.18403 0.278664,1.72334 0,0.53931 0.182472,0.98055 0.405493,0.98055 0.223018,0 0.40549,-0.52506 0.40549,-1.16682 z m 330.47792,0.27748 c -1.30254,-0.48183 -2.07359,-0.11233 -0.81368,0.38998 0.55754,0.22228 1.18177,0.30428 1.38717,0.18224 0.20539,-0.12199 -0.0527,-0.37956 -0.57349,-0.57222 z m -112.37151,-0.73511 c -0.36081,-0.21083 -1.72935,-0.48036 -3.04118,-0.59898 -2.31497,-0.20932 -2.34936,-0.19821 -1.16868,0.37736 1.36712,0.66647 5.32803,0.87497 4.20986,0.22162 z M 25.943353,144.28627 c -0.365322,-0.55756 -0.857513,-1.01373 -1.093759,-1.01373 -0.236245,0 -9.81e-4,0.45617 0.52281,1.01373 0.52379,0.55755 1.015983,1.01373 1.093757,1.01373 0.07778,0 -0.157488,-0.45618 -0.522808,-1.01373 z m 347.172017,-0.70961 c 2.53626,-2.76874 2.76876,-3.13731 2.28453,-3.62154 -0.57227,-0.57226 -1.37632,0.0354 -2.99475,2.26315 -1.92332,2.64749 -1.39546,3.65709 0.71022,1.35839 z M 23.297499,141.24508 c -0.781986,-1.50027 -1.574515,-2.12927 -1.574515,-1.24964 0,0.20478 -0.107939,0.65363 -0.23987,0.99743 -0.204159,0.53203 0.726554,1.20009 2.564936,1.8411 0.05217,0.0182 -0.285573,-0.6968 -0.750551,-1.58889 z m 193.263941,0.81099 c -1.13175,-0.48633 -2.32802,-0.48633 -2.02744,0 0.13777,0.22302 0.83285,0.39266 1.54452,0.37699 1.09069,-0.0241 1.16654,-0.0832 0.48292,-0.37699 z m 99.14257,-0.9791 c -2.02035,-0.73523 -4.40665,-1.0579 -4.67017,-0.6315 -0.30843,0.49904 2.05296,1.13026 4.26468,1.13996 l 1.8247,0.008 z m 65.61444,-0.74424 c 0.19481,-1.02726 -1.40542,-0.92058 -1.96832,0.13119 -0.4108,0.76758 -0.35052,0.82941 0.69188,0.70961 0.69795,-0.0802 1.19419,-0.4071 1.27644,-0.84083 z M 80.514272,136.39969 c 0.651468,-2.71561 0.01539,-3.6793 -0.673793,-1.02082 -0.287165,1.10772 -0.525639,2.34415 -0.529941,2.74759 -0.01441,1.35226 0.716684,0.30348 1.203734,-1.72677 z m 219.781068,1.62766 c -1.01551,-0.59209 -4.46039,-0.98185 -4.46039,-0.50465 0,0.4464 1.27581,0.72986 3.64942,0.81086 0.98774,0.0337 1.2343,-0.0593 0.81097,-0.30621 z m -110.09081,-1.05127 c -1.91596,-0.63145 -3.78609,-0.76532 -3.22366,-0.23076 0.51649,0.49091 1.70731,0.75531 3.4264,0.76079 l 1.41922,0.005 z m 42.15079,-1.36765 c -0.48893,-0.4636 -6.34313,-1.66619 -8.03154,-1.64985 -1.1675,0.0107 -1.20641,0.0523 -0.4635,0.4883 1.67686,0.98417 9.42531,2.04365 8.49504,1.16155 z m 36.30764,-2.92229 c -1.36015,-0.37858 -4.25808,-0.43395 -3.89862,-0.0745 0.3781,0.3781 3.99137,0.82947 4.50685,0.56301 0.22078,-0.11418 -0.0529,-0.33397 -0.60823,-0.48852 z M 20.81063,131.66321 c 1.745939,-0.46789 0.957066,-1.06837 -1.13897,-0.86697 -2.621275,0.25188 -3.696167,1.12504 -1.375076,1.11701 0.880929,-0.003 2.01225,-0.11556 2.514046,-0.25004 z m 239.34109,-0.56991 c -3.80942,-0.92843 -8.10981,-1.42019 -8.10981,-0.92736 0,0.203 1.14044,0.60611 2.53431,0.89581 1.39388,0.28972 2.71679,0.58666 2.93981,0.65988 0.22302,0.0733 1.59156,0.12858 3.04119,0.12307 l 2.63569,-0.0107 z m -57.68305,-0.83006 c -0.78806,-0.45895 -6.89397,-1.60754 -7.16171,-1.34718 -0.32021,0.31137 0.30867,0.63784 2.26345,1.17501 2.43955,0.67039 5.96662,0.79438 4.89826,0.17217 z m 47.29717,-0.37724 c -0.60357,-0.60355 -5.53017,-1.55405 -9.48316,-1.82957 -4.60738,-0.32115 -3.50706,0.33714 2.02744,1.21296 2.34172,0.37057 4.53137,0.73217 4.8659,0.80355 1.49354,0.31875 2.98764,0.2109 2.58982,-0.18694 z M 82.546645,125.86035 c 0,-0.43287 -0.18247,-0.89983 -0.405491,-1.03765 -0.229976,-0.14222 -0.40549,0.19853 -0.40549,0.78705 0,0.57071 0.18247,1.03765 0.40549,1.03765 0.223021,0 0.405491,-0.35417 0.405491,-0.78705 z m 130.162635,-2.00409 c 0,-0.41991 -1.40441,-0.84486 -2.81816,-0.85273 -1.33914,-0.008 -0.58056,0.69213 0.99346,0.91622 0.66905,0.0953 1.35331,0.20054 1.52058,0.23395 0.16726,0.0334 0.30412,-0.10038 0.30412,-0.29744 z M 83.946489,120.66641 c 0.149211,-0.6133 0.647408,-1.40637 1.10711,-1.76236 0.6918,-0.53574 0.730521,-0.68767 0.224717,-0.88177 -0.939465,-0.36051 -2.875375,1.85668 -2.541003,2.91018 0.372761,1.17448 0.886201,1.0615 1.209176,-0.26605 z m 65.303441,0.30412 c -0.13778,-0.22302 -0.78725,-0.4055 -1.44315,-0.4055 -0.6559,0 -1.19254,0.18248 -1.19254,0.4055 0,0.22302 0.64941,0.40549 1.44314,0.40549 0.85885,0 1.34168,-0.16418 1.19255,-0.40549 z m -17.06261,-2.3812 c 0.21979,-0.35562 -1.96102,-0.84995 -3.78639,-0.85827 -1.8381,-0.008 0.01,0.64778 3.28758,1.16758 0.1541,0.0244 0.37857,-0.11479 0.49881,-0.30931 z m 30.42453,-3.08351 c -2.53978,-0.80258 -5.04935,-1.14908 -5.04935,-0.69717 0,0.46175 3.20654,1.19654 5.27138,1.20795 l 1.41921,0.008 z m -53.70829,-1.42865 c 0,-0.22301 -0.50179,-0.39267 -1.1151,-0.37699 -0.98811,0.0253 -1.02274,0.0682 -0.30411,0.37699 1.10755,0.47593 1.41921,0.47593 1.41921,0 z m -21.491022,-3.42273 c 0,-0.42799 -0.778183,-0.6078 -1.00964,-0.23331 -0.140076,0.22667 0.02978,0.41211 0.377472,0.41211 0.347693,0 0.632168,-0.0805 0.632168,-0.1788 z m 32.898582,-2.10504 c -0.75097,-0.32765 -1.66333,-0.52304 -2.02745,-0.43418 -0.90548,0.22095 0.99004,1.04739 2.37914,1.03729 0.92548,-0.006 0.89486,-0.0592 -0.35169,-0.60311 z M 91.774925,99.24673 c 0.949683,-1.210098 1.521247,-2.200181 1.270142,-2.200181 -0.701741,0 -3.605073,3.063901 -3.605073,3.804451 0,1.07074 0.511274,0.71945 2.334931,-1.60427 z"
       id="path10" /></g><metadata
     id="metadata182"><rdf:RDF><cc:Work
         rdf:about=""><cc:license
           rdf:resource="http://creativecommons.org/licenses/by-sa/4.0/" /><dc:publisher><cc:Agent><dc:title>OpenDataKerala.org</dc:title></cc:Agent></dc:publisher><dc:date>April 2026</dc:date><dc:title>Election Symbols of Kerala</dc:title><dc:creator><cc:Agent><dc:title>Manoj Karingamadathil</dc:title></cc:Agent></dc:creator></cc:Work><cc:License
         rdf:about="http://creativecommons.org/licenses/by-sa/4.0/"><cc:permits
           rdf:resource="http://creativecommons.org/ns#Reproduction" /><cc:permits
           rdf:resource="http://creativecommons.org/ns#Distribution" /><cc:requires
           rdf:resource="http://creativecommons.org/ns#Notice" /><cc:requires
           rdf:resource="http://creativecommons.org/ns#Attribution" /><cc:permits
           rdf:resource="http://creativecommons.org/ns#DerivativeWorks" /><cc:requires
           rdf:resource="http://creativecommons.org/ns#ShareAlike" /></cc:License></rdf:RDF></metadata></svg>
