<?xml version="1.0" encoding="UTF-8" standalone="no"?>
<!-- Created with Inkscape (http://www.inkscape.org/) -->

<svg
   width="1500"
   height="1500"
   viewBox="0 0 396.87499 396.875"
   version="1.1"
   id="svg5"
   xml:space="preserve"
   inkscape:version="1.3 (0e150ed6c4, 2023-07-21)"
   sodipodi:docname="Bicycle pump.svg"
   inkscape:export-filename="Binoculars.png"
   inkscape:export-xdpi="96"
   inkscape:export-ydpi="96"
   xmlns:inkscape="http://www.inkscape.org/namespaces/inkscape"
   xmlns:sodipodi="http://sodipodi.sourceforge.net/DTD/sodipodi-0.dtd"
   xmlns="http://www.w3.org/2000/svg"
   xmlns:svg="http://www.w3.org/2000/svg"
   xmlns:rdf="http://www.w3.org/1999/02/22-rdf-syntax-ns#"
   xmlns:cc="http://creativecommons.org/ns#"
   xmlns:dc="http://purl.org/dc/elements/1.1/"><title
     id="title186">Election Symbols of Kerala</title><sodipodi:namedview
     id="namedview7"
     pagecolor="#ffffff"
     bordercolor="#000000"
     borderopacity="0.25"
     inkscape:showpageshadow="2"
     inkscape:pageopacity="0.0"
     inkscape:pagecheckerboard="0"
     inkscape:deskcolor="#d1d1d1"
     inkscape:document-units="mm"
     showgrid="false"
     inkscape:zoom="0.25"
     inkscape:cx="230"
     inkscape:cy="1082"
     inkscape:window-width="1920"
     inkscape:window-height="991"
     inkscape:window-x="-9"
     inkscape:window-y="-9"
     inkscape:window-maximized="1"
     inkscape:current-layer="layer1" /><defs
     id="defs2"><inkscape:path-effect
       effect="bspline"
       id="path-effect3248"
       is_visible="true"
       lpeversion="1"
       weight="33.333333"
       steps="2"
       helper_size="0"
       apply_no_weight="true"
       apply_with_weight="true"
       only_selected="false" /><inkscape:path-effect
       effect="bspline"
       id="path-effect577"
       is_visible="true"
       lpeversion="1"
       weight="33.333333"
       steps="2"
       helper_size="0"
       apply_no_weight="true"
       apply_with_weight="true"
       only_selected="false" /></defs><g
     inkscape:label="Layer 1"
     inkscape:groupmode="layer"
     id="layer1"><path
       style="fill:#000000;stroke-width:1.67951"
       d="m 236.44391,387.8379 c -20.57635,-0.29698 -23.04313,-0.41192 -26.79309,-1.24837 -5.74666,-1.28185 -9.12597,-3.4033 -10.28222,-6.45499 -0.8144,-2.14942 -0.58954,-7.66749 0.39073,-9.589 0.60582,-1.18748 0.72453,-1.83512 0.39649,-2.16314 -0.81996,-0.81996 -0.94221,-5.91246 -0.19941,-8.30595 0.37572,-1.21061 0.57436,-2.31043 0.44144,-2.44404 -0.13285,-0.13352 -2.609,-0.30928 -5.50239,-0.3904 -4.50663,-0.1263 -5.37131,-0.26966 -6.03209,-0.99983 -0.57592,-0.63638 -1.3693,-0.85235 -3.13124,-0.85235 -2.9436,0 -11.50588,-1.16346 -15.05499,-2.04571 -10.88184,-2.70503 -20.36409,-7.52161 -29.5254,-14.99768 -12.30918,-10.04485 -26.92202,-27.86538 -37.93151,-46.25789 -15.152167,-25.31329 -25.289685,-51.61462 -32.520727,-84.37356 -9.15927,-41.4944 -8.368221,-85.47847 2.181766,-121.30893 1.194735,-4.05766 1.449349,-5.503986 1.120971,-6.367691 -0.327538,-0.861487 -0.09926,-2.186065 0.9961,-5.78097 l 1.420999,-4.663442 -1.41853,-1.110173 c -1.736982,-1.359377 -1.881571,-3.329777 -0.512821,-6.988084 1.108022,-2.961444 2.309661,-3.854389 4.746947,-3.527472 1.084644,0.145445 1.906629,0.04501 2.092433,-0.255555 0.481364,-0.778855 1.956628,-0.583914 6.101405,0.806232 4.7782,1.602621 5.573,2.023859 5.92783,3.141857 0.15518,0.489057 0.55929,0.8892 0.89793,0.8892 1.24801,0 2.96366,1.095913 3.57923,2.286298 1.25152,2.420173 0.44161,6.639922 -1.54093,8.028557 -0.86133,0.603297 -0.96793,1.281298 -1.35404,8.612203 -0.58658,11.137412 -1.41151,14.400698 -3.64033,14.400698 -1.64327,0 -2.24794,-1.864104 -2.193,-6.760494 0.0282,-2.514023 -0.003,-6.953402 -0.0705,-9.865301 -0.17373,-7.548335 -1.02558,-7.402503 -3.67116,0.628472 -0.635221,1.928328 -1.264987,3.030187 -1.894601,3.314931 -1.925036,0.87059 -6.778431,24.754584 -8.401441,41.344264 -1.105184,11.29673 -1.106713,40.06074 -0.0034,50.19739 1.80265,16.55087 3.655317,26.67156 8.096845,44.23124 3.554397,14.05237 6.719147,23.66872 11.845627,35.99398 9.223007,22.17419 21.895517,43.49775 35.230147,59.28045 6.83416,8.08882 16.47401,17.12973 22.89054,21.46831 2.42181,1.63754 8.93999,4.94991 12.83877,6.52437 4.29292,1.73361 11.08313,3.20771 19.56443,4.24729 3.33794,0.40915 3.83813,0.3748 4.6019,-0.31603 0.73287,-0.6629 1.79878,-0.77508 7.36426,-0.77508 h 6.50735 l -0.0227,-148.64178 c -0.0117,-81.75299 -0.17092,-149.641627 -0.35206,-150.863638 -0.58238,-3.929144 1.17314,-5.71201 6.37379,-6.473029 l 3.33277,-0.487679 -0.14041,-4.400297 -0.14041,-4.400297 -1.50185,-0.712683 c -0.82603,-0.39198 -2.16258,-1.392783 -2.97014,-2.224039 l -1.46828,-1.511356 -6.98632,-0.005 c -11.5781,-0.0084 -42.45306,0.868021 -47.57298,1.349569 -6.4144,0.60328 -8.07081,0.176198 -9.23145,-2.380267 -1.09237,-2.406081 -1.20609,-9.657428 -0.19123,-12.193822 1.15348,-2.8828105 0.92876,-2.8502952 15.8862,-2.298761 18.11729,0.668058 47.83,0.240757 49.67712,-0.7144298 3.50212,-1.8110145 20.57496,-1.9381365 23.47457,-0.1747865 1.44179,0.8768213 0.49525,0.8487903 50.04263,1.4816293 1.71083,0.02183 6.23467,-0.130162 10.053,-0.337682 l 6.94242,-0.377419 1.50061,1.339946 1.50062,1.339962 0.15418,4.794209 c 0.26409,8.213235 -0.93488,9.939821 -6.90458,9.942928 -1.7575,9.24e-4 -3.29899,-0.165936 -3.42552,-0.370601 -0.27153,-0.439326 -21.91183,-1.044755 -42.92627,-1.200932 l -14.88639,-0.11068 -2.0335,1.898382 c -1.11842,1.044101 -2.46819,2.036338 -2.99951,2.204977 -0.9054,0.287364 -0.966,0.580455 -0.966,4.672814 0,4.8323 0.0398,4.896777 3.03585,4.916259 4.96676,0.03225 7.18467,1.720875 7.18467,5.469942 0,1.276209 -0.27571,2.714809 -0.61267,3.196895 -0.51689,0.739488 -0.63846,24.185215 -0.77765,149.962686 l -0.16492,149.08615 2.3395,0.28553 c 2.86291,0.34942 4.94666,1.83014 6.6388,4.71757 1.34413,2.29357 1.73515,5.42285 1.99653,15.97771 0.10547,4.26155 0.28772,5.58114 0.84789,6.14114 0.63581,0.63563 2.66761,0.69928 18.66356,0.58462 25.42927,-0.18226 24.97177,-0.1961 26.69653,0.8083 1.86394,1.08545 2.68752,2.78178 2.68752,5.53557 0,3.81224 -1.73297,5.43888 -6.56104,6.15846 -4.35607,0.64925 -27.13495,0.84417 -53.75367,0.46 z m 46.51781,-6.61818 c 1.67901,-0.0455 2.13659,-0.23216 2.36965,-0.96649 0.15889,-0.50052 0.0741,-1.16882 -0.18837,-1.48509 -0.26247,-0.31626 -0.34566,-0.7066 -0.18485,-0.86741 0.1609,-0.1609 -7.52782,-0.29239 -17.08588,-0.29239 -11.10617,0 -17.47739,0.1604 -17.65289,0.44437 -0.15099,0.2444 0.0254,0.44436 0.39191,0.44436 0.3666,0 0.79014,0.19998 0.9412,0.44438 0.17539,0.28377 -1.14002,0.43929 -3.63984,0.43033 l -3.91446,-0.0134 1.15602,-1.01881 c 1.116,-0.98352 1.12917,-1.05197 0.38033,-1.97675 -0.6735,-0.83174 -0.8476,-0.87129 -1.32153,-0.30026 -0.44376,0.53471 -0.411,0.65768 0.17514,0.65768 0.39654,0 0.72097,0.19996 0.72097,0.44437 0,0.64189 -1.32411,0.54757 -1.55956,-0.11102 -0.10917,-0.3055 -0.27487,-1.51062 -0.36815,-2.67801 -0.0932,-1.16739 -0.27428,-2.22723 -0.40224,-2.35519 -0.12798,-0.12798 -0.0831,-0.89579 0.0998,-1.7063 0.18569,-0.82326 0.14007,-1.81723 -0.10329,-2.25212 -0.2396,-0.42814 -0.33152,-1.55469 -0.20428,-2.50343 0.2303,-1.71694 0.2242,-1.72497 -1.31158,-1.72497 -1.34994,0 -1.50702,0.1132 -1.25575,0.90494 0.15804,0.4977 0.26432,2.49736 0.23634,4.44369 -0.0888,6.17594 -0.13335,6.41183 -1.24131,6.56918 -1.48352,0.2107 -1.21254,1.14726 0.57917,2.00166 3.21137,1.53141 1.57432,1.77223 -9.97501,1.46745 -6.01375,-0.15871 -12.0339,-0.47083 -13.37811,-0.69364 -6.00636,-0.99557 -10.25391,-2.26757 -11.66745,-3.494 -0.4292,-0.37238 -0.90168,-0.55576 -1.04995,-0.40749 -0.37065,0.37066 2.24935,1.92486 4.97913,2.95365 3.43068,1.29295 8.25609,2.20187 14.40382,2.71314 7.71339,0.64149 47.80146,1.26096 60.0711,0.92828 z m -24.29932,-1.8339 c 0.15099,-0.24441 0.5746,-0.44437 0.9412,-0.44437 0.3666,0 0.54297,0.19996 0.39191,0.44437 -0.15099,0.2444 -0.57457,0.44436 -0.94118,0.44436 -0.3666,0 -0.54297,-0.19996 -0.39193,-0.44436 z m -16.55279,-0.55547 c 0.10178,-0.3055 0.45179,-0.55546 0.77767,-0.55546 0.32586,0 0.6758,0.24996 0.77764,0.55546 0.11018,0.33043 -0.20491,0.55547 -0.77764,0.55547 -0.57275,0 -0.88781,-0.22504 -0.77767,-0.55547 z m 21.77192,0 c 0.28145,-0.8546 2.11299,-0.97769 2.11299,-0.14192 0,0.45372 -0.40119,0.69747 -1.14796,0.69747 -0.71969,0 -1.07971,-0.20723 -0.96503,-0.55546 z m 11.88912,0.11119 c 0,-0.24441 0.19996,-0.44439 0.44437,-0.44439 0.24442,0 0.44438,0.19998 0.44438,0.44439 0,0.2444 -0.19996,0.44436 -0.44438,0.44436 -0.24441,0 -0.44437,-0.19996 -0.44437,-0.44436 z m -6.22118,-0.44439 c 0,-0.2444 0.19997,-0.44436 0.44438,-0.44436 0.2444,0 0.44436,0.19996 0.44436,0.44436 0,0.24441 -0.19996,0.44439 -0.44436,0.44439 -0.24441,0 -0.44438,-0.19998 -0.44438,-0.44439 z m -29.77279,-2.22183 c 0,-0.24441 0.29996,-0.44439 0.66656,-0.44439 0.3666,0 0.66655,0.19998 0.66655,0.44439 0,0.2444 -0.29995,0.44436 -0.66655,0.44436 -0.3666,0 -0.66656,-0.19996 -0.66656,-0.44436 z m 49.62861,4.41275 c 3.6141,-1.37407 3.26268,-3.07964 -0.63453,-3.07964 -2.11262,0 -2.36967,0.0897 -1.89565,0.66078 0.31454,0.37898 0.42888,1.137 0.26814,1.77748 -0.31785,1.26641 0.21827,1.41843 2.26204,0.64138 z m -61.29332,-5.576 c 1.47398,-0.93574 1.2449,-1.51122 -0.41237,-1.03592 l -1.4122,0.40501 1.4122,-1.45702 c 1.78269,-1.83928 1.79526,-2.30219 0.0378,-1.39336 -1.81596,0.93907 -2.02335,0.6103 -0.64689,-1.02554 l 1.12582,-1.33796 -0.99647,-0.26706 c -2.10078,-0.56304 -2.86937,-0.28768 -4.08221,1.46245 -0.73744,1.0641 -1.13755,2.14453 -1.02852,2.7773 l 0.17847,1.03567 0.48764,-1.15612 c 0.42794,-1.01454 4.11472,-4.4115 4.11472,-3.79124 0,0.13066 -1.36993,1.64049 -3.04428,3.35519 -1.67435,1.71469 -2.82416,3.21565 -2.55514,3.33547 0.88551,0.39438 5.80108,-0.25912 6.82145,-0.90687 z m -10.77599,-0.56697 c -1.6938,-1.05011 -3.77713,-1.55922 -3.77713,-0.92302 0,0.61206 2.56275,1.7268 3.99933,1.73962 1.10346,0.0101 1.10196,0.005 -0.2222,-0.8166 z m 22.01172,0.0638 c 0.25721,-5.57388 0.0455,-10.3316 -0.45975,-10.3316 -0.27156,0 -0.44438,2.07373 -0.44438,5.33244 0,3.25872 0.17282,5.33245 0.44438,5.33245 0.2444,0 0.45128,-0.14998 0.45975,-0.33329 z m -26.96862,-2.5743 c -0.14477,-0.37713 -0.35844,-0.59041 -0.47493,-0.47392 -0.11656,0.11639 -0.0799,0.42505 0.0811,0.68571 0.43818,0.70899 0.69428,0.57125 0.39381,-0.21179 z m 2.95725,0.0453 c 0,-0.35218 -0.19997,-0.76391 -0.44437,-0.91496 -0.2444,-0.15099 -0.44438,0.13704 -0.44438,0.64033 0,0.50323 0.19998,0.91496 0.44438,0.91496 0.2444,0 0.44437,-0.28815 0.44437,-0.64033 z m 29.29023,-3.47008 c -0.0307,-2.23226 -0.11169,-2.5327 -0.41247,-1.53089 -0.3359,1.11863 -0.12378,4.30819 0.28662,4.30819 0.0902,0 0.14679,-1.24979 0.1258,-2.7773 z m -31.95645,-1.16765 c 0,-0.92722 -1.02865,-1.98824 -1.48509,-1.5318 -0.1609,0.1609 -0.29239,0.75899 -0.29239,1.32927 0,0.74061 0.25393,1.03686 0.88873,1.03686 0.57318,0 0.88875,-0.29625 0.88875,-0.83433 z m 9.99831,-2.27627 c -0.15098,-0.2444 -1.31265,-0.44547 -2.58133,-0.44683 -1.2687,-10e-4 -3.07018,-0.2145 -4.00328,-0.47359 -1.36709,-0.37962 -1.59807,-0.58978 -1.1894,-1.08219 0.54215,-0.65327 0.19147,-0.75352 -4.66834,-1.33451 -3.0929,-0.36974 -5.03,-1.0425 -5.52132,-1.91754 -0.38254,-0.68136 -0.4451,-0.67372 -0.73934,0.0902 -0.88095,2.28715 7.78308,5.43359 15.28538,5.55104 2.36211,0.0369 3.59335,-0.10228 3.41763,-0.38657 z m 8.19388,-0.0358 c 2.44061,-0.52341 4.34099,-1.76182 3.87088,-2.52248 -0.20662,-0.33431 -0.67609,-0.29111 -1.5445,0.14208 -0.68621,0.34232 -2.8216,0.92355 -4.74535,1.29163 -1.92374,0.36806 -3.70012,0.87163 -3.94753,1.11904 -0.61257,0.61257 3.45928,0.5932 6.3665,-0.0302 z m 13.80245,-0.853 c 0,-0.2444 -0.21177,-0.44438 -0.4706,-0.44438 -0.25883,0 -0.347,0.19998 -0.19596,0.44438 0.15099,0.2444 0.36282,0.44436 0.4706,0.44436 0.10782,0 0.19596,-0.19996 0.19596,-0.44436 z m -6.06606,-4.20811 c -0.15637,-1.14074 -0.65407,-2.51028 -1.10605,-3.04339 -0.80907,-0.95435 -0.8115,-0.94382 -0.15753,0.68282 0.36529,0.90865 0.67024,2.60838 0.67766,3.77713 0.0101,1.5793 0.12361,1.93659 0.4419,1.39129 0.2356,-0.40357 0.30043,-1.6671 0.1441,-2.80785 z m 2.69986,2.31959 c 1.6069,-1.01463 1.60881,-1.02246 0.8947,-3.68078 -0.18325,-0.68217 -0.0191,-0.92031 0.67003,-0.97222 0.72921,-0.0549 0.91273,0.19375 0.91273,1.23674 0,0.71802 0.22572,1.3055 0.50162,1.3055 0.74051,0 0.0925,-4.13487 -1.01844,-6.49826 -1.58848,-3.37932 -4.55693,-5.05214 -6.5931,-3.71544 -0.55603,0.36502 -0.50078,0.48301 0.33328,0.71157 0.54991,0.15066 0.99983,0.45065 0.99983,0.66655 0,0.56798 -0.56151,0.48325 -1.59513,-0.24074 -0.60494,-0.42372 -1.11556,-0.49455 -1.54308,-0.21405 -0.54064,0.35473 -0.5185,0.49018 0.14393,0.88045 1.29289,0.76172 3.04554,2.76984 3.65555,4.18841 0.91508,2.12792 1.2904,5.92028 0.66099,6.67868 -0.81152,0.97781 0.14545,0.81015 1.97714,-0.34641 z m 0.92756,-6.9901 c -0.18033,-0.2918 -0.12798,-0.73051 0.11655,-0.97491 0.57911,-0.57911 1.03942,0.1656 0.5709,0.92375 -0.27312,0.44193 -0.43827,0.45422 -0.68739,0.0512 z m 2.21646,7.54556 c 0.16342,-0.26446 -0.3657,-0.44438 -1.30689,-0.44438 -0.86984,0 -1.58151,0.19998 -1.58151,0.44438 0,0.2444 0.58809,0.44436 1.30687,0.44436 0.71878,0 1.43048,-0.19996 1.58153,-0.44436 z m -16.2018,-1.78651 c 0.96786,-0.49378 1.75977,-1.18327 1.75977,-1.53218 0,-0.97234 -2.44407,0.025 -3.31371,1.35227 -0.85772,1.30906 -0.69608,1.32779 1.55394,0.17991 z m -3.90595,-3.14334 c 1.32113,-1.41122 1.49956,-2.41785 0.72857,-4.11001 -0.83418,-1.83081 -3.61735,-2.8341 -5.1238,-1.84705 -1.45141,0.951 -1.4064,2.10632 0.0677,1.73636 0.87757,-0.22027 1.06094,-0.13672 0.85844,0.39095 -0.14158,0.36907 -0.0435,0.80328 0.218,0.96491 0.2631,0.16258 0.66138,-0.195 0.89162,-0.80062 0.88992,-2.34065 2.22841,-1.82117 2.24163,0.86999 0.007,1.51231 -1.45973,3.72599 -2.46949,3.72599 -0.34886,0 -0.6343,0.21343 -0.6343,0.47431 0,0.816 1.93083,-0.0259 3.22169,-1.40483 z m -5.26891,0.94016 c -0.51497,-0.20811 -1.55395,-1.12767 -2.30884,-2.04348 -1.3366,-1.62155 -1.35539,-1.70681 -0.71819,-3.2595 1.02109,-2.48806 2.14311,-3.76304 3.90006,-4.43174 1.42489,-0.54231 1.85611,-0.52547 3.60061,0.14074 2.59266,0.99014 3.88624,3.01269 3.86279,6.03958 -0.0101,1.21639 0.14024,2.21161 0.33268,2.21161 0.46722,0 2.70988,-1.94241 2.70988,-2.34709 0,-0.17553 -0.43479,-0.31913 -0.96618,-0.31913 h -0.96621 l 0.96621,-1.02848 c 1.27918,-1.36163 1.26364,-2.224 -0.0336,-1.86638 l -0.99985,0.27562 1.04907,-0.91223 1.04906,-0.91224 h -1.27546 c -0.80918,0 -1.48576,-0.33676 -1.85076,-0.92123 -0.79186,-1.26796 -3.93027,-2.6122 -6.12625,-2.62396 -1.32678,-0.007 -2.31873,0.35014 -3.65011,1.31459 -3.02765,2.19322 -3.91139,4.98399 -2.58414,8.16053 0.59386,1.4213 2.84635,2.95798 4.27902,2.9192 0.39991,-0.0101 0.292,-0.16941 -0.26976,-0.39644 z m -7.72891,-0.42779 c 0,-0.74495 -0.78811,-0.92942 -1.05042,-0.24586 -0.15485,0.40333 0.001,0.66401 0.39781,0.66401 0.35893,0 0.65261,-0.18817 0.65261,-0.41815 z m 0.44436,-2.93027 c 0,-0.92766 -0.77504,-0.80494 -1.31747,0.20861 -0.66776,1.24772 -0.57171,1.45338 0.42874,0.91795 0.48881,-0.2616 0.88873,-0.76854 0.88873,-1.12656 z m 24.19506,-1.73475 c -0.70731,-1.0795 -1.54861,-1.52548 -1.51804,-0.80474 0.0267,0.62918 1.18469,1.87472 1.474,1.58543 0.15905,-0.15922 0.30513,0.0939 0.32441,0.56236 0.0193,0.46843 0.13185,0.61395 0.2502,0.32334 0.11824,-0.2906 -0.12042,-1.04047 -0.53057,-1.66639 z m -25.08379,-0.30172 c 0,-0.24441 -0.19998,-0.32079 -0.44438,-0.16973 -0.2444,0.15098 -0.44436,0.47459 -0.44436,0.71899 0,0.24441 0.19996,0.32079 0.44436,0.16973 0.2444,-0.15098 0.44438,-0.47459 0.44438,-0.71899 z m 1.11286,-1.2838 c 0.15216,-0.24614 -0.0605,-0.57683 -0.47231,-0.73489 -0.65612,-0.25177 -0.61831,-0.38679 0.30512,-1.09003 1.03704,-0.78976 1.03815,-0.79861 0.0687,-0.55021 -1.11814,0.28649 -2.34026,1.48952 -1.51317,1.48952 0.27433,0 0.49878,0.29996 0.49878,0.66656 0,0.75624 0.69617,0.89327 1.11286,0.21905 z m -18.26592,-1.59265 c 0.72998,-0.1764 1.18172,-0.13873 1.04236,0.0868 -0.13521,0.21896 1.13469,0.42695 2.82212,0.46222 2.0374,0.0427 3.07282,-0.10665 3.08219,-0.44436 0.008,-0.27968 0.29442,-0.13856 0.637,0.31364 0.39613,0.52289 0.83581,0.68963 1.20787,0.45809 0.32178,-0.20025 1.04981,-0.30399 1.61787,-0.23056 0.89592,0.11588 1.01374,-0.0333 0.88875,-1.12464 -0.12714,-1.11003 -0.31412,-1.25042 -1.5883,-1.19262 -0.79432,0.0361 -1.44421,-0.11387 -1.44421,-0.33328 0,-0.60588 -1.22758,-0.47632 -1.48443,0.1567 -0.17193,0.42371 -0.33078,0.40414 -0.66972,-0.0825 -0.35607,-0.51125 -0.5756,-0.52903 -1.10518,-0.0895 -0.36348,0.30166 -0.76867,0.37404 -0.90041,0.1609 -0.13167,-0.21318 -1.69929,-0.37285 -3.48343,-0.35487 -3.22308,0.0326 -3.24481,0.0408 -3.38813,1.29228 -0.0793,0.69277 -0.0239,1.57332 0.12328,1.9568 0.24192,0.63042 0.31959,0.62916 0.81078,-0.0134 0.29879,-0.39075 1.12297,-0.85053 1.83154,-1.02176 z m -1.51048,-0.7958 c 0,-0.3666 0.19996,-0.79014 0.44436,-0.9412 0.2444,-0.15098 0.44437,0.0254 0.44437,0.39193 0,0.36661 -0.19997,0.79015 -0.44437,0.94118 -0.2444,0.15099 -0.44436,-0.0254 -0.44436,-0.39191 z m -3.64993,0.12428 c 0.10951,-0.57805 -0.46062,-0.76731 -3.03059,-1.00617 -1.74099,-0.16174 -5.61715,-0.77362 -8.6137,-1.35957 -15.37731,-3.00694 -26.31867,-9.12586 -39.26087,-21.9565 -13.92865,-13.80864 -24.72716,-29.1849 -36.90993,-52.55701 -14.358637,-27.54642 -24.209497,-61.92037 -28.3208,-98.82365 -0.960999,-8.62586 -1.335731,-30.69249 -0.676104,-39.81357 1.121073,-15.50214 3.967521,-34.503392 6.90421,-46.088578 1.324696,-5.225876 1.341021,-5.415895 0.465526,-5.415895 -0.366603,0 -0.666546,0.09691 -0.666546,0.215464 0,0.118573 -0.510034,1.9682 -1.1334,4.11043 -1.864339,6.406806 -4.47354,19.021189 -5.723112,27.668749 -2.879921,19.93033 -2.880156,49.98064 -5.37e-4,70.7696 2.695964,19.46319 8.77666,43.40811 15.769266,62.09704 11.22148,29.99141 27.935757,57.56805 46.763517,77.1545 15.58601,16.21404 29.31234,23.41563 48.52904,25.46098 4.64984,0.49492 5.73993,0.41076 5.90403,-0.4558 z m 26.09178,-2.98749 c -1.47308,-0.17841 -1.58757,-0.0705 -1.25879,1.18686 l 0.26244,1.00352 1.09484,-1.02294 1.09485,-1.02292 z m 16.21835,0.35824 c 0,-0.7536 -0.19562,-0.85029 -1.22203,-0.60404 -1.67417,0.40162 -1.73719,0.52784 -0.50889,1.01916 1.55138,0.62057 1.73092,0.57752 1.73092,-0.41512 z M 211.337,346.6983 c 0,-0.35218 -0.29995,-0.64033 -0.66657,-0.64033 -0.66932,0 -0.91347,0.93806 -0.38237,1.46915 0.4147,0.41471 1.04894,-0.0865 1.04894,-0.82882 z m 17.95433,-2.57118 c 0.8669,-0.56801 1.10687,-0.95982 0.78501,-1.2817 -0.32188,-0.32186 -0.95546,-0.17337 -2.07259,0.48575 -1.87688,1.10738 -2.00333,1.13229 -2.00016,0.39386 0.001,-0.3055 1.10112,-1.34928 2.44403,-2.3195 1.37326,-0.99217 2.44167,-2.10778 2.44167,-2.54961 0,-0.65787 -0.39328,-0.534 -2.4192,0.76197 -1.33056,0.85114 -2.52442,1.37728 -2.65304,1.16918 -0.24163,-0.39098 2.31132,-2.62272 4.07239,-3.56001 0.5499,-0.29267 0.99985,-0.72506 0.99985,-0.96086 0,-0.67735 -2.14529,-0.4994 -3.32888,0.27613 -2.07298,1.35827 -1.99369,0.12848 0.10917,-1.69181 1.66725,-1.4433 2.13892,-1.67069 2.25253,-1.08588 0.32753,1.68631 0.82564,0.55607 0.84902,-1.9265 0.0134,-1.46643 -0.15384,-2.66622 -0.3727,-2.66622 -0.2188,0 -0.39782,0.28313 -0.39782,0.62921 0,0.68294 -3.15128,3.37012 -3.95219,3.37012 -1.18938,0 -0.29017,-1.42592 2.14947,-3.40846 2.03345,-1.65247 2.64679,-2.42728 2.66622,-3.36819 0.0134,-0.67211 -0.10044,-1.22201 -0.25418,-1.22201 -0.15367,0 -1.05411,0.69987 -2.00095,1.55529 -1.68653,1.52367 -2.6077,1.93728 -2.6077,1.17085 0,-0.72188 1.78961,-2.66116 3.34007,-3.61939 1.0773,-0.66582 1.548,-1.2835 1.548,-2.03142 0,-1.23564 -0.52478,-1.3821 -1.35743,-0.37881 -0.53979,0.65041 -2.74136,1.97037 -3.28639,1.97037 -0.73638,0 -0.0326,-1.35945 1.45667,-2.81367 1.14838,-1.12135 1.94233,-1.56827 2.44404,-1.37575 0.8611,0.33044 0.84294,0.45951 0.97329,-6.91985 0.0497,-2.81064 -0.003,-5.27663 -0.11874,-5.47996 -0.11488,-0.20334 -0.73694,0.13234 -1.38224,0.74595 -1.17599,1.11825 -3.61731,2.03577 -3.61731,1.35948 0,-0.78961 2.90102,-3.29102 3.81677,-3.29102 1.08624,0 1.51567,-0.7657 1.51567,-2.70256 0,-1.53578 -0.44354,-1.6365 -1.59647,-0.36252 -0.77044,0.85134 -2.8963,2.17635 -3.49172,2.17635 -0.13436,0 -0.24425,-0.27668 -0.24425,-0.61485 0,-0.7872 3.34787,-3.82886 4.21433,-3.82886 0.7132,0 1.3761,-1.88928 0.92117,-2.62536 -0.16543,-0.26774 -1.1082,0.1777 -2.29772,1.08567 -2.18772,1.66994 -2.83778,1.88048 -2.83778,0.91918 0,-0.75057 2.69212,-3.18611 3.97013,-3.59173 0.65277,-0.20718 0.91793,-0.66781 0.91793,-1.59451 0,-0.71675 -0.12126,-1.30316 -0.26932,-1.30316 -0.14814,0 -1.02677,0.5999 -1.95252,1.33311 -3.06149,2.42474 -3.66495,1.40506 -0.9266,-1.56569 1.1575,-1.25575 1.88802,-1.73885 2.18313,-1.44374 0.73843,0.73843 1.40969,-0.0628 1.40969,-1.68268 0,-1.74624 -0.40472,-1.91169 -1.55828,-0.63703 -1.17923,1.30303 -3.25249,2.25874 -3.61778,1.66771 -0.40494,-0.65521 3.14646,-3.89287 4.27012,-3.89287 0.73912,0 0.90594,-0.28639 0.90594,-1.55529 0,-1.78673 -0.40053,-1.94256 -1.59647,-0.62107 -1.10369,1.21958 -3.17516,2.2799 -3.48251,1.7826 -0.39561,-0.6401 1.48273,-2.67769 3.3435,-3.627 1.39659,-0.71248 1.73548,-1.12945 1.73548,-2.13538 0,-0.68751 -0.1011,-1.35122 -0.22488,-1.47489 -0.12361,-0.12362 -1.03196,0.54286 -2.01837,1.48122 -1.68913,1.60682 -3.08919,2.19954 -3.08919,1.30779 0,-0.58002 3.0298,-3.14793 4.27088,-3.61977 0.98834,-0.37577 1.06156,-0.63247 1.06156,-3.72115 0,-3.40143 -0.48677,-4.50705 -1.30838,-2.97184 -0.65429,1.22253 -3.16176,2.42089 -3.7728,1.80305 -0.50787,-0.51351 1.5345,-2.51414 3.85916,-3.7803 1.11482,-0.6072 1.60403,-1.89012 0.96459,-2.52955 -0.14158,-0.14158 -1.15683,0.34958 -2.25612,1.09147 -1.45277,0.98046 -2.1321,1.21547 -2.48717,0.86043 -0.69511,-0.69514 0.76415,-2.20379 3.11215,-3.21751 1.91325,-0.82601 2.10323,-1.1036 1.619,-2.3655 -0.22781,-0.59366 -0.48607,-0.52021 -1.6664,0.47381 l -1.39681,1.17634 -0.2807,-1.28781 c -0.22597,-1.03671 -0.29096,-1.09286 -0.33328,-0.28797 -0.0621,1.18068 -0.94131,1.36745 -0.94131,0.19996 0,-1.04648 0.83666,-1.85844 1.60944,-1.56191 0.33682,0.12932 0.61241,-0.002 0.61241,-0.29222 0,-0.35713 0.43951,-0.43067 1.36242,-0.22797 1.341,0.29453 1.36022,0.27397 1.22203,-1.3071 -0.17109,-1.95728 -0.78472,-2.12046 -1.70823,-0.45426 -0.90134,1.62626 -1.76693,1.90685 -1.75816,0.56993 0.0101,-1.46939 0.54265,-2.13392 2.03074,-2.53188 1.31185,-0.35083 1.81077,-1.32108 1.32724,-2.58113 -0.20511,-0.53451 -0.66344,-0.25121 -2.01903,1.24797 -0.96452,1.06669 -1.76187,2.18939 -1.77189,2.4949 -0.0101,0.3055 -0.21819,0.55546 -0.46261,0.55546 -1.33768,0 0.9718,-4.28114 2.9965,-5.55462 1.01795,-0.64028 1.41775,-1.23038 1.4301,-2.11076 0.0101,-0.67211 -0.1651,-1.22203 -0.38777,-1.22203 -0.22267,0 -0.88234,0.54992 -1.46594,1.22203 -1.73302,1.99584 -2.9055,2.87327 -3.20087,2.39533 -0.31407,-0.50817 3.07138,-4.59732 4.13559,-4.99519 0.52479,-0.19622 0.71904,-0.87308 0.73329,-2.55514 0.0101,-1.25851 -0.11421,-2.2882 -0.27731,-2.2882 -0.16325,0 -1.22172,0.51701 -2.35232,1.14892 -1.64496,0.91938 -2.05563,1.01268 -2.05563,0.46699 0,-0.72009 2.62284,-2.94902 3.47018,-2.94902 0.68885,0 1.53971,-1.70781 1.24,-2.48885 -0.19402,-0.50561 -0.64004,-0.35671 -2.10056,0.70128 -1.01982,0.73875 -2.13121,1.34319 -2.46974,1.34319 -1.05703,0 0.0689,-1.43899 2.25978,-2.8884 2.14731,-1.42051 2.60749,-2.06101 2.21522,-3.08323 -0.19023,-0.49577 -0.72742,-0.29282 -2.39407,0.90455 -1.39169,0.99983 -2.25511,1.37176 -2.45052,1.05557 -0.38095,-0.61638 0.80339,-1.94252 3.22921,-3.61584 1.35415,-0.9341 1.88857,-1.61106 1.88857,-2.39231 0,-0.59927 -0.11823,-1.08959 -0.26264,-1.08959 -0.14444,0 -1.08029,0.69989 -2.07965,1.5553 -2.0733,1.77467 -2.54578,1.9054 -2.54578,0.7044 0,-0.51731 0.91461,-1.50823 2.33294,-2.52761 1.28312,-0.9222 2.40764,-1.73047 2.49894,-1.79617 0.0914,-0.0657 0.0412,-0.44497 -0.11169,-0.84286 -0.24452,-0.63721 -0.52251,-0.58653 -2.33272,0.42522 -2.39817,1.34036 -2.38754,1.33803 -2.38754,0.52157 0,-0.73353 2.26366,-2.74025 3.55256,-3.14933 0.56061,-0.17795 0.89114,-0.67217 0.89114,-1.33254 v -1.04969 l -2.02281,1.13056 c -1.11254,0.6218 -2.1323,1.02106 -2.26614,0.88723 -0.37676,-0.37676 0.76812,-3.49052 1.80399,-4.9063 0.51131,-0.69886 1.37959,-1.44379 1.92949,-1.65539 0.67127,-0.25831 0.99983,-0.75344 0.99983,-1.50667 0,-0.61705 -0.13419,-1.12193 -0.29835,-1.12193 -0.16409,0 -1.14591,0.88455 -2.1818,1.96567 -1.80989,1.88891 -2.40791,2.10353 -2.40791,0.86414 0,-0.84424 2.66545,-3.74025 3.86074,-4.19469 0.69911,-0.26582 1.02732,-0.74903 1.02732,-1.51252 0,-0.61705 -0.11824,-1.12193 -0.26263,-1.12193 -0.14443,0 -1.08029,0.69989 -2.07965,1.55529 -1.98183,1.69639 -2.54578,1.898 -2.54578,0.91015 0,-0.79864 3.03015,-3.79855 3.83684,-3.79855 0.7283,0 1.31841,-2.1324 0.74797,-2.70285 -0.25833,-0.25832 -1.13263,0.19754 -2.30741,1.2031 -1.32895,1.13753 -2.03118,1.47936 -2.36117,1.14937 -0.48814,-0.48815 -0.0754,-0.98357 3.32692,-3.993 1.20249,-1.06365 1.64491,-1.81064 1.64491,-2.77732 0,-0.72727 -0.19996,-1.32232 -0.44436,-1.32232 -0.24441,0 -0.44437,0.19329 -0.44437,0.42955 0,0.5591 -3.01067,3.56978 -3.56978,3.56978 -1.1818,0 -0.1661,-1.89464 2.01449,-3.75754 2.2252,-1.90105 2.92191,-3.17074 2.15867,-3.93399 -0.15703,-0.15687 -1.08033,0.50961 -2.05194,1.48124 -1.92551,1.92551 -2.55077,2.17347 -2.55077,1.01158 0,-0.41525 1.04057,-1.73196 2.3124,-2.926 2.18758,-2.05379 2.81156,-3.1321 2.2956,-3.96694 -0.12462,-0.20165 -1.15184,0.42426 -2.2827,1.39089 -2.07267,1.77165 -3.13966,2.00187 -2.3383,0.50452 0.23857,-0.44577 1.43892,-1.65206 2.66741,-2.68063 3.32667,-2.78524 2.92467,-4.44633 -0.43257,-1.78735 -1.88785,1.4952 -2.22184,1.60318 -2.22184,0.71826 0,-0.51322 1.81803,-2.32304 4.3326,-4.31304 0.66852,-0.52907 0.74541,-2.6264 0.0962,-2.6264 -0.25255,0 -1.15906,0.69988 -2.01447,1.55529 -0.85541,0.85542 -1.7486,1.55531 -1.98486,1.55531 -1.01689,0 -0.27089,-1.3599 1.81775,-3.31359 1.49362,-1.3971 2.20152,-2.39565 2.11076,-2.9774 -0.12664,-0.81127 -0.26661,-0.77662 -1.91402,0.47362 -1.77146,1.34437 -2.88841,1.72459 -2.88841,0.98327 0,-0.21471 1.09981,-1.32999 2.44404,-2.4784 1.7385,-1.48524 2.44402,-2.40465 2.44402,-3.18492 v -1.09692 l -2.05395,1.56832 c -1.99685,1.5247 -3.03348,1.73086 -2.56505,0.51012 0.27398,-0.71397 3.18124,-3.08678 4.28574,-3.49788 0.74975,-0.27905 1.08532,-2.08338 0.4969,-2.67181 -0.15435,-0.15435 -1.09025,0.41217 -2.07965,1.25906 -1.74713,1.49547 -2.97205,1.96251 -2.97205,1.13318 0,-0.60074 4.02481,-4.03709 4.72844,-4.03709 0.34802,0 0.60401,-0.47083 0.60401,-1.11092 0,-0.61101 -0.23109,-1.11093 -0.51353,-1.11093 -0.28243,0 -1.16894,0.49992 -1.97001,1.11093 -1.70751,1.30237 -2.52857,1.42022 -2.32172,0.33328 0.0815,-0.42772 1.14587,-1.44584 2.36552,-2.26252 1.21966,-0.81668 2.19255,-1.76651 2.162,-2.11075 -0.0306,-0.34425 -0.0806,-0.83548 -0.11102,-1.09162 -0.0306,-0.25614 -0.94143,0.14377 -2.02418,0.88875 -2.24024,1.54132 -2.47506,1.60794 -2.47506,0.70228 0,-0.35867 1.09981,-1.48252 2.44402,-2.49741 1.76092,-1.3295 2.44404,-2.14085 2.44404,-2.90281 0,-1.35642 -0.32528,-1.31311 -2.20506,0.29364 -0.84618,0.72328 -1.78422,1.31504 -2.08454,1.31504 -1.34621,0 -0.82425,-0.92522 1.63453,-2.89734 1.51385,-1.21421 2.65507,-2.48172 2.65507,-2.94888 0,-1.16312 -0.87099,-0.98827 -2.64942,0.53185 -1.70101,1.45394 -2.23864,1.62211 -2.23864,0.70021 0,-0.79139 3.35,-3.82886 4.22279,-3.82886 0.44296,0 0.66527,-0.44551 0.66527,-1.33311 0,-1.67444 -0.43079,-1.67041 -2.77251,0.0259 -1.14321,0.82815 -1.94234,1.16029 -2.04568,0.85025 -0.23288,-0.69866 2.57457,-3.51998 3.81163,-3.83047 0.79834,-0.20037 1.00656,-0.56442 1.00656,-1.75976 0,-0.8289 -0.11823,-1.50712 -0.26264,-1.50712 -0.14444,0 -1.08244,0.70173 -2.08444,1.55941 -1.21771,1.04232 -1.96952,1.41166 -2.26733,1.11385 -0.52608,-0.52608 1.56411,-2.88651 3.28098,-3.70522 0.70985,-0.33849 1.16204,-0.97012 1.25186,-1.74864 0.0773,-0.67029 0.0255,-1.21873 -0.11488,-1.21873 -0.14057,0 -1.08369,0.5999 -2.09586,1.33311 -2.02764,1.46883 -2.5957,1.63097 -2.5957,0.74093 0,-0.74985 3.27211,-3.40715 4.19547,-3.40715 0.47332,0 0.69261,-0.42208 0.69261,-1.33311 0,-1.60128 -0.16325,-1.61535 -2.44404,-0.21058 -2.05385,1.26501 -2.44404,1.33929 -2.44404,0.46538 0,-0.34867 1.09983,-1.2632 2.44404,-2.03228 1.34423,-0.76908 2.44404,-1.6718 2.44404,-2.00605 0,-0.9439 -0.96877,-1.31462 -1.51161,-0.57846 -0.26843,0.36403 -0.93799,0.90153 -1.48789,1.19445 -0.8801,0.46882 -0.99983,0.42686 -0.99983,-0.35043 0,-0.54648 0.76213,-1.40739 1.99966,-2.25884 1.80127,-1.23931 2.47238,-2.48975 1.73305,-3.22909 -0.30105,-0.30105 -2.88713,2.16343 -3.65023,3.4786 -0.41277,0.71139 -0.49608,0.43575 -0.47826,-1.58262 0.0118,-1.34421 0.12261,-2.19371 0.24598,-1.88775 0.15553,0.38562 0.83096,0.12076 2.20139,-0.86347 1.21443,-0.87213 1.88563,-1.65776 1.74017,-2.03682 -0.13016,-0.3394 -0.23679,-0.79278 -0.23679,-1.00751 0,-0.21474 -0.8293,0.42243 -1.84288,1.41595 -1.01357,0.99349 -1.69076,1.43551 -1.50487,0.98222 0.4169,-1.01659 0.79207,-2.81336 0.42723,-2.04614 -0.30416,0.63959 -1.5232,0.75759 -1.5232,0.14746 0,-0.93337 0.57015,-1.78854 1.01083,-1.51619 0.29613,0.18303 0.36787,0.0178 0.19162,-0.4416 -0.30391,-0.79195 0.55538,-0.85176 1.12369,-0.0783 0.20722,0.28202 0.32897,0.25664 0.33328,-0.0695 0.003,-0.29417 0.38678,-0.41451 0.89555,-0.28146 0.80323,0.21006 0.88875,0.0134 0.88875,-2.04126 0,-1.25052 -0.19998,-2.27368 -0.44439,-2.27368 -0.40897,0 -0.62561,0.62955 -0.49698,1.44421 0.0289,0.1833 -0.15922,0.33328 -0.41798,0.33328 -0.25883,0 -0.35852,0.1813 -0.22156,0.40291 0.13705,0.22162 -0.17166,0.29293 -0.68583,0.15855 -0.54797,-0.14326 -1.09709,0.0118 -1.32691,0.37473 -0.30192,0.4768 -0.39089,0.41481 -0.38686,-0.26956 0.005,-0.95448 2.50732,-3.90215 3.70033,-4.35995 0.44932,-0.17242 0.72454,-0.78973 0.72454,-1.6251 0,-1.61348 -0.71984,-1.75957 -1.39278,-0.28262 -0.26674,0.58544 -1.04387,1.47763 -1.72694,1.98264 -1.06691,0.7888 -1.27883,0.82214 -1.50356,0.23649 -0.47623,-1.24102 1.61417,-3.76403 3.62345,-4.37336 0.74065,-0.2246 0.99983,-0.64103 0.99983,-1.60636 0,-0.71675 -0.11824,-1.30317 -0.26264,-1.30317 -0.14444,0 -1.08438,0.70338 -2.08874,1.56307 -1.54988,1.32665 -1.88515,1.45756 -2.2165,0.86547 -0.48501,-0.86668 0.11404,-1.62874 2.65374,-3.37613 1.73457,-1.19341 2.37585,-2.44191 1.63491,-3.18286 -0.15368,-0.15367 -1.12403,0.41298 -2.15654,1.25905 -2.1769,1.7838 -2.45231,1.85649 -2.45231,0.64721 0,-0.55496 0.92123,-1.60254 2.44235,-2.7773 1.6751,-1.29369 2.44288,-2.20034 2.44403,-2.88609 0.002,-1.167 -0.53883,-1.28826 -1.35573,-0.30397 -0.53979,0.65041 -2.74134,1.97037 -3.2864,1.97037 -0.13436,0 -0.24425,-0.27744 -0.24425,-0.61654 0,-0.33909 1.09036,-1.4889 2.42301,-2.55513 1.60859,-1.28699 2.43009,-2.27466 2.44404,-2.93842 0.0277,-1.31877 -0.33242,-1.26472 -2.57818,0.38681 -1.90854,1.40357 -2.86549,1.42078 -2.01502,0.0363 0.25553,-0.41598 1.39826,-1.45585 2.53942,-2.310804 1.39572,-1.045679 2.07481,-1.881991 2.07481,-2.555121 0,-0.550375 -0.093,-1.000668 -0.20675,-1.000668 -0.1137,0 -1.16165,0.60558 -2.32874,1.345723 -1.25724,0.79733 -2.18838,1.14655 -2.2849,0.856986 -0.20776,-0.623266 1.4927,-2.44041 3.36861,-3.599792 0.99193,-0.613038 1.45178,-1.237647 1.45178,-1.971928 0,-0.59107 -0.10178,-1.074685 -0.22603,-1.074685 -0.12428,0 -1.05997,0.604103 -2.07921,1.342432 -1.23219,0.892592 -2.00169,1.193929 -2.29638,0.899243 -0.54401,-0.54401 0.42913,-1.692861 2.86217,-3.378954 1.58109,-1.095695 2.1686,-2.284787 1.47269,-2.980675 -0.14679,-0.146789 -1.07656,0.319879 -2.06633,1.036862 -2.00821,1.45474 -2.55499,1.59906 -2.55499,0.67439 0,-0.65773 2.76775,-3.017507 4.11043,-3.504514 0.75931,-0.275423 1.14827,-2.53181 0.43644,-2.53181 -0.18767,0 -1.10705,0.520379 -2.04305,1.15641 -1.26671,0.860765 -1.83042,1.027825 -2.20478,0.653463 -0.54156,-0.541541 0.98821,-2.079081 3.36703,-3.384144 1.16054,-0.636685 1.55002,-1.504554 0.94618,-2.108388 -0.15166,-0.15166 -0.99415,0.212307 -1.87213,0.808902 -2.16947,1.474189 -2.834,0.682804 -0.90178,-1.073928 0.82194,-0.747281 1.73092,-1.364568 2.01997,-1.371739 0.67032,-0.0168 0.90372,-0.968405 0.97794,-3.988045 l 0.0595,-2.419736 -1.22584,1.086626 c -0.67421,0.597636 -1.67577,1.338266 -2.22567,1.645852 -0.87672,0.490366 -0.99983,0.458858 -0.99983,-0.255823 0,-0.892071 1.60423,-2.581389 3.20502,-3.375024 0.91236,-0.452325 1.77052,-2.927384 1.01498,-2.927384 -0.15552,0 -1.18266,0.619168 -2.28259,1.375938 -1.09992,0.75677 -2.12122,1.25461 -2.26952,1.106292 -0.37103,-0.371037 2.06009,-2.864033 3.55379,-3.644232 0.97615,-0.509882 1.22201,-0.948939 1.22201,-2.182186 0,-0.849126 -0.19996,-1.543889 -0.44436,-1.543889 -0.2444,0 -0.44529,0.149981 -0.44643,0.333282 -0.003,0.501636 -2.64664,3.221685 -3.13106,3.221685 -1.07413,0 -0.21881,-1.68925 1.80001,-3.554967 1.22201,-1.129335 2.22184,-2.3912 2.22184,-2.804158 0,-1.055538 -0.28267,-0.958446 -2.34227,0.804501 -1.91463,1.638849 -2.54579,1.894419 -2.54579,1.030883 0,-0.583613 3.90283,-4.363667 4.50539,-4.363667 0.21047,0 0.38267,-0.399924 0.38267,-0.888729 0,-1.014457 -0.67222,-1.178108 -1.19992,-0.292133 -0.55051,0.924217 -2.70572,2.177298 -3.34063,1.942285 -0.35243,-0.130498 0.40475,-1.123894 1.98543,-2.604952 1.40531,-1.316735 2.55512,-2.640407 2.55512,-2.941476 0,-0.60338 -0.72769,-0.752806 -0.96279,-0.197695 -0.0815,0.192355 -0.9979,1.025626 -2.03652,1.851709 -2.04657,1.627781 -3.08543,1.545048 -1.52019,-0.121092 0.5305,-0.564701 0.96477,-1.113817 0.96504,-1.220264 6.1e-4,-0.229421 -9.47843,0.03745 -9.72108,0.273743 -0.0917,0.08918 -0.16661,0.65657 -0.16661,1.260774 0,0.791032 -0.35763,1.246666 -1.27757,1.627713 -0.70265,0.291059 -1.29134,0.654907 -1.30818,0.808549 -0.0168,0.153675 -0.10313,0.829274 -0.19187,1.501397 -0.16123,1.221943 0.73557,1.744976 1.33341,0.777646 0.40236,-0.651045 1.11093,-0.541927 1.11093,0.171075 0,0.338488 -0.47428,0.926199 -1.05394,1.30602 -0.92951,0.60904 -1.84061,2.878225 -1.35359,3.371211 0.0991,0.100267 0.58612,-0.18488 1.0822,-0.63383 0.61164,-0.553533 1.04749,-0.670745 1.3541,-0.364118 0.30663,0.306612 0.0193,0.875293 -0.89254,1.766827 -2.33156,2.27953 -2.28292,5.535813 0.0511,3.423528 0.7611,-0.688783 0.81264,-0.68 0.81264,0.138559 0,0.480726 -0.5999,1.317575 -1.33311,1.859654 -0.85542,0.632435 -1.33311,1.378927 -1.33311,2.083246 0,1.251654 0.12496,1.304609 1.31892,0.558974 1.50902,-0.942389 1.60096,0.0954 0.11169,1.260874 -1.46589,1.147239 -1.93614,2.832727 -0.79031,2.832727 0.35217,0 0.76391,-0.199962 0.91496,-0.444364 0.41125,-0.665421 1.11093,-0.535327 1.11093,0.206546 0,0.358004 -0.39536,0.862512 -0.87857,1.121106 -1.07546,0.575568 -1.93133,2.079702 -1.54191,2.709804 0.1848,0.299003 0.57166,0.206378 1.08737,-0.260324 0.61011,-0.552156 0.88088,-0.594379 1.13849,-0.177575 0.20853,0.337414 -0.11488,0.908027 -0.84463,1.489842 -0.67172,0.535612 -1.18261,1.389777 -1.18261,1.977219 0,0.995193 0.0411,1.007336 1.08775,0.321525 0.78185,-0.512284 1.17585,-0.570176 1.401,-0.205874 0.28841,0.466652 0.0302,0.74283 -2.1319,2.279933 -0.53086,0.37742 -0.67889,0.903392 -0.50008,1.776887 0.23885,1.166705 0.30208,1.197255 1.05936,0.511931 0.44639,-0.403989 1.04583,-0.58022 1.34488,-0.39539 0.37696,0.232982 0.13234,0.681243 -0.81156,1.487726 -0.74308,0.634871 -1.47699,1.704198 -1.6309,2.376321 -0.30643,1.338098 0.20176,1.601865 1.0702,0.555447 0.70104,-0.844709 1.16922,-0.845801 1.49246,-0.0034 0.16594,0.43239 -0.20399,0.900116 -1.0634,1.344514 -1.0294,0.532337 -1.31781,0.981925 -1.31781,2.054275 0,1.354389 0.0151,1.363257 1.08775,0.660097 1.87951,-1.2315 1.93984,0.139567 0.0751,1.705122 -1.16692,0.979691 -1.56519,1.608297 -1.35914,2.145241 0.35711,0.93061 0.52237,0.94129 1.37484,0.0889 0.78358,-0.78358 1.56158,-0.48325 1.19858,0.46268 -0.13772,0.35878 -0.72884,0.65233 -1.31369,0.65233 -0.92037,0 -1.06338,0.21054 -1.06338,1.56553 v 1.56563 l 1.15948,-0.7597 c 1.11467,-0.73037 1.1532,-0.72648 0.99722,0.10093 -0.0892,0.47331 -0.61933,1.06053 -1.178,1.30493 -1.01063,0.44211 -1.79819,2.21705 -1.23406,2.78118 0.16275,0.16275 0.71018,0.0369 1.21669,-0.27935 1.70252,-1.06325 1.84729,0.17247 0.17008,1.45173 -1.49395,1.1395 -2.04345,2.59269 -1.18176,3.12525 0.2167,0.13386 0.64113,-0.0542 0.94314,-0.41815 0.54737,-0.65954 1.77343,-0.91913 1.77343,-0.37548 0,0.15737 -0.73499,0.92154 -1.63331,1.69806 -1.21482,1.05013 -1.55267,1.62207 -1.31855,2.23217 0.2399,0.62518 0.43812,0.69691 0.83344,0.30159 0.28528,-0.28526 0.77864,-0.51867 1.09637,-0.51867 0.97027,0 0.64365,0.87773 -0.52471,1.41007 -1.21538,0.55377 -1.88747,1.999 -1.23365,2.65282 0.26171,0.26172 0.63154,0.16173 0.9873,-0.26691 0.62749,-0.7561 1.79311,-0.92748 1.79311,-0.26363 0,0.23195 -0.69989,0.95557 -1.5553,1.60803 -1.56812,1.19606 -2.10022,2.85829 -0.91496,2.85829 0.35218,0 0.76391,-0.19998 0.91496,-0.44439 0.3962,-0.64106 1.11092,-0.54644 1.11092,0.14713 0,0.32532 -0.49991,0.85902 -1.11092,1.18602 -0.78337,0.41925 -1.11092,0.96548 -1.11092,1.85256 0,1.33471 0.74331,1.70969 1.17241,0.59148 0.14074,-0.36661 0.53434,-0.66655 0.87479,-0.66655 1.05077,0 0.68403,1.27124 -0.60301,2.09025 -1.55077,0.98683 -1.87332,1.44737 -1.88176,2.68673 -0.008,1.16974 0.53844,1.27985 1.51334,0.30493 0.38219,-0.38219 0.92032,-0.55557 1.19585,-0.38528 0.3209,0.19833 -0.0771,0.83922 -1.10752,1.78317 -1.04294,0.95544 -1.60847,1.87211 -1.60847,2.60712 0,1.30754 0.31614,1.39614 1.64943,0.46226 0.70459,-0.4935 1.04299,-0.5345 1.27769,-0.15485 0.17818,0.28831 -0.0544,0.78501 -0.52629,1.12413 -1.86293,1.33864 -2.40083,1.95122 -2.40083,2.73414 0,1.25187 0.50854,1.49119 1.41863,0.66756 0.54781,-0.49574 0.97279,-0.59732 1.26723,-0.30289 0.29445,0.29446 -0.0816,0.92046 -1.12143,1.86664 -1.5345,1.39636 -1.95297,2.4426 -1.17041,2.92623 0.2167,0.13386 0.64113,-0.0542 0.94314,-0.41813 0.70197,-0.84582 1.32905,-0.84836 1.32905,-0.005 0,0.36098 -0.49991,0.98387 -1.11092,1.38422 -0.67099,0.43964 -1.11092,1.14761 -1.11092,1.78772 0,1.21773 0.52736,1.36413 1.34873,0.37443 0.41979,-0.5058 0.69602,-0.55444 1.05424,-0.18564 0.35397,0.36442 0.11421,0.82079 -0.88507,1.68522 -1.46402,1.26638 -2.13314,2.54916 -1.69741,3.25418 0.15754,0.25499 0.5971,0.1352 1.06825,-0.29122 0.6039,-0.54653 0.88255,-0.59171 1.13456,-0.18394 0.20507,0.33182 -0.12109,0.87203 -0.84462,1.39911 -1.43315,1.04398 -1.71811,2.90638 -0.31016,2.0271 1.5099,-0.94294 1.58537,0.0595 0.10615,1.41049 -0.78051,0.71286 -1.41909,1.70734 -1.41909,2.20993 0,1.19247 0.66384,1.16291 1.52597,-0.068 0.4973,-0.70998 0.82204,-0.84733 1.17317,-0.4962 0.35115,0.35114 0.20609,0.74589 -0.52404,1.42611 -0.55526,0.5173 -1.15594,0.94056 -1.33484,0.94056 -0.41227,0 -1.01043,2.64418 -0.67424,2.98039 0.13789,0.13788 0.74634,-0.0742 1.35224,-0.47122 1.73378,-1.13602 1.76087,-0.0741 0.0395,1.54951 -1.44001,1.35825 -1.98014,2.92512 -1.25747,3.64779 0.1651,0.1651 0.74398,-0.11639 1.28624,-0.6259 0.73972,-0.69494 1.07148,-0.78779 1.32856,-0.37181 0.21944,0.35507 -0.24304,1.04615 -1.28625,1.92198 -0.98779,0.82934 -1.62889,1.7611 -1.62888,2.36742 2e-5,1.1939 0.31889,1.25115 1.41974,0.2549 0.58664,-0.53089 0.96028,-0.60778 1.30045,-0.2676 0.34018,0.34017 0.0818,0.76972 -0.89924,1.49505 -1.07875,0.79755 -1.37655,1.35102 -1.37655,2.55833 0,1.46437 0.0401,1.5042 0.81263,0.80517 0.88351,-0.79956 1.85359,-0.97445 1.85359,-0.33415 0,0.22069 -0.67067,0.97057 -1.49038,1.66638 -1.38173,1.1729 -1.47565,1.419 -1.28836,3.37588 0.11101,1.16092 0.39364,2.11075 0.62786,2.11075 0.23421,0 0.31503,-0.1793 0.17958,-0.39844 -0.13537,-0.21916 0.0287,-1.05235 0.3647,-1.85153 0.57579,-1.36939 0.62896,-1.39639 0.92331,-0.46895 0.17178,0.54125 0.1043,1.23486 -0.15015,1.54135 -0.25436,0.30649 -0.34755,0.99679 -0.20706,1.53398 0.20367,0.77886 0.0648,0.9767 -0.68516,0.9767 -0.77869,0 -0.94057,0.26768 -0.94057,1.55529 0,1.6802 0.57212,2.02309 1.29752,0.77767 0.40743,-0.69952 0.45429,-0.6802 0.46645,0.19223 0.008,0.58724 -0.33711,1.08117 -0.87523,1.25196 -0.68124,0.21622 -0.88502,0.66415 -0.87275,1.91852 l 0.0168,1.63645 1.09274,-1.33311 c 0.60099,-0.73321 1.09373,-1.05957 1.09494,-0.72523 10e-4,0.33434 -0.59769,1.29114 -1.3309,2.12622 -1.81707,2.06953 -1.82401,2.96776 -0.0134,1.8375 1.52227,-0.95067 1.62027,0.13839 0.12529,1.392 -0.81631,0.68451 -1.44421,1.63167 -1.44421,2.1785 0,1.1518 0.32583,1.21251 1.38121,0.25739 0.72179,-0.65321 1.73354,-0.54722 1.72635,0.18085 -0.002,0.16887 -0.70156,0.78275 -1.55531,1.36416 -0.98429,0.67033 -1.55225,1.41554 -1.55225,2.03671 0,1.39122 0.471,1.68572 1.38014,0.86295 1.56651,-1.41766 1.73696,-0.12613 0.17747,1.34471 -1.56141,1.4726 -2.09295,3.36374 -0.94546,3.36374 0.33667,0 0.86893,-0.30941 1.18279,-0.68759 0.44813,-0.53998 0.64572,-0.56611 0.92034,-0.12176 0.22579,0.36534 -0.19331,1.06323 -1.18278,1.96954 -1.42459,1.30488 -1.93756,2.73033 -1.23528,3.4326 0.16342,0.16341 0.66811,-0.0385 1.12143,-0.44868 0.59903,-0.54212 0.95764,-0.61245 1.31262,-0.25747 0.35498,0.35498 0.0485,0.87459 -1.12143,1.90189 -1.00915,0.88604 -1.60984,1.81081 -1.60984,2.47835 0,1.22645 0.7037,1.37009 1.80947,0.36939 0.48037,-0.43474 0.87299,-0.52646 1.04717,-0.24462 0.15334,0.24798 -0.3268,0.89851 -1.0668,1.44562 -0.96468,0.71322 -1.34548,1.36284 -1.34548,2.2954 0,1.28521 0.0134,1.29202 1.11093,0.57273 1.69108,-1.10804 1.49115,0.31798 -0.22218,1.5847 -1.2931,0.95603 -1.74271,2.29037 -0.9391,2.78703 0.21673,0.13386 0.64114,-0.0542 0.94317,-0.41815 0.30202,-0.36391 0.7246,-0.66166 0.93908,-0.66166 0.76068,0 0.37419,0.99542 -0.72097,1.85687 -0.81353,0.63994 -1.11093,1.29761 -1.11093,2.45684 v 1.58295 l 0.92434,-1.17509 c 0.50837,-0.64629 1.10827,-1.06138 1.33311,-0.92243 0.64802,0.40051 0.49589,0.79548 -0.8914,2.31438 -1.13859,1.2466 -1.58462,2.45766 -1.41522,3.84258 0.027,0.22119 0.45384,0.0359 0.94842,-0.41165 0.63551,-0.57511 1.0379,-0.67514 1.37201,-0.34102 0.3341,0.3341 0.005,0.84582 -1.12141,1.74476 -1.13449,0.9052 -1.59419,1.62437 -1.59419,2.494 -2e-5,1.33644 0.44278,1.50805 1.76328,0.68339 1.52147,-0.95018 1.61533,0.12026 0.11841,1.35048 -1.1179,0.91871 -1.44447,1.53064 -1.44136,2.7009 0.003,1.49075 0.0173,1.50106 0.90324,0.69926 0.64087,-0.57998 1.03638,-0.67665 1.37656,-0.33647 0.34018,0.34017 0.0925,0.76183 -0.86208,1.46757 -1.32692,0.98104 -2.04253,2.44199 -1.57035,3.20598 0.13469,0.21792 0.62966,0.048 1.09999,-0.37767 0.60657,-0.54894 0.99311,-0.63588 1.32989,-0.29912 0.33676,0.33678 0.0101,0.89694 -1.12143,1.92726 -0.94069,0.85601 -1.59619,1.86862 -1.59619,2.4658 0,1.44196 0.71069,1.69237 1.52077,0.53581 0.54577,-0.77917 0.80811,-0.87389 1.23579,-0.44621 0.42769,0.42769 0.19275,0.83165 -1.10679,1.90284 -0.90737,0.74791 -1.64977,1.63345 -1.64977,1.96784 0,1.02983 0.99083,1.28535 1.62437,0.41892 0.4305,-0.58873 0.73696,-0.68551 1.0811,-0.34136 0.34415,0.34415 0.0287,0.82469 -1.11259,1.69525 -1.89452,1.44503 -2.14962,2.59924 -0.48195,2.18069 0.82501,-0.20707 1.11091,-0.10262 1.11091,0.40595 0,0.37663 -0.37834,0.80488 -0.84074,0.95163 -0.93225,0.29588 -1.53665,1.8663 -0.87555,2.2749 0.23216,0.14343 0.71814,0.0151 1.07994,-0.28507 0.36182,-0.30028 0.80298,-0.39796 0.98038,-0.21709 0.17739,0.18087 -0.32735,0.87381 -1.12167,1.53989 -0.95324,0.79935 -1.4442,1.60653 -1.4442,2.37446 0,1.54328 0.59138,1.83662 1.5553,0.77151 0.43193,-0.47728 0.98249,-0.74593 1.22348,-0.597 0.24098,0.14898 -0.28565,0.9339 -1.17031,1.74436 -0.88467,0.81045 -1.60847,1.88367 -1.60847,2.38494 0,0.98992 0.85964,1.20713 1.64989,0.41687 0.48185,-0.48184 1.46621,-0.20474 1.45521,0.40966 -0.003,0.16888 -0.70291,0.75882 -1.55531,1.31098 -1.2009,0.77791 -1.54979,1.30309 -1.54979,2.33294 0,1.30554 0.57018,1.7596 1.11093,0.88464 0.3917,-0.63378 1.55553,-0.55057 1.55402,0.11102 -7.1e-4,0.3055 -0.60004,0.95539 -1.33184,1.44421 -0.93893,0.62714 -1.33092,1.24841 -1.33183,2.11076 -10e-4,1.35833 0.49401,1.56496 1.33183,0.55546 0.74445,-0.89701 1.33311,-0.8412 1.33311,0.1263 0,0.43612 -0.5999,1.1473 -1.33311,1.58042 -1.00093,0.59127 -1.33311,1.11339 -1.33311,2.09547 0,1.50071 0.26673,1.6065 1.41971,0.56305 0.58029,-0.52514 0.96224,-0.60583 1.2946,-0.27345 0.33237,0.33235 0.002,0.82989 -1.12143,1.68641 -1.20118,0.91619 -1.59288,1.54149 -1.59288,2.54286 0,1.36967 -0.0482,1.35879 2.11076,0.47609 1.07327,-0.43881 0.54062,0.70393 -0.82704,1.77428 -1.28383,1.00475 -1.35978,1.21652 -1.064,2.96714 0.29935,1.77188 0.34905,1.8244 0.82704,0.8739 0.59564,-1.18446 1.61946,-1.65707 1.61946,-0.74757 0,0.34659 -0.5999,1.16466 -1.33311,1.81795 -1.34238,1.19607 -1.73565,2.65721 -0.86074,3.19792 0.2598,0.16057 0.83985,-0.0406 1.289,-0.4471 0.62095,-0.56194 0.8976,-0.608 1.1546,-0.19215 0.31509,0.5098 -1.75957,2.61395 -2.58268,2.61941 -0.18332,0.001 -0.33329,0.60211 -0.33329,1.33531 0,1.49557 0.0999,1.55577 1.31894,0.79448 1.509,-0.94241 1.60096,0.0954 0.11169,1.26087 -0.94048,0.73603 -1.43066,1.50555 -1.43066,2.24593 0,0.72586 0.19746,1.04552 0.55546,0.89915 2.19675,-0.89813 2.20318,-0.89828 2.0393,-0.0474 -0.0889,0.46151 -0.70906,1.10151 -1.37817,1.42221 -0.66914,0.3207 -1.21659,0.77214 -1.21659,1.0032 0,0.57834 0.60446,0.52666 1.23682,-0.10564 0.28922,-0.28921 0.67915,-0.37127 0.86653,-0.18236 0.18738,0.18893 -0.20923,0.78301 -0.88134,1.32018 -0.67211,0.53719 -1.22201,1.41912 -1.22201,1.95984 0,1.07127 0.84271,1.2958 1.6886,0.4499 0.38412,-0.38412 0.66841,-0.39809 1.01652,-0.05 0.34809,0.3481 0.0375,0.83902 -1.11091,1.75526 -1.16051,0.92596 -1.59419,1.61737 -1.59419,2.54157 -2e-5,0.95213 0.1666,1.2021 0.66653,0.99982 0.3666,-0.1483 0.9665,-0.3911 1.33311,-0.53945 1.15867,-0.46887 0.72172,0.60652 -0.69787,1.7175 -1.17474,0.91938 -1.34462,1.30995 -1.22201,2.80953 l 0.14242,1.74168 1.04427,-1.04427 c 0.71861,-0.71861 1.18746,-0.90107 1.50344,-0.58509 0.31597,0.31597 0.0596,0.81047 -0.82208,1.5857 -0.70469,0.61958 -1.43123,1.13282 -1.61453,1.14055 -0.18332,0.008 -0.33328,0.61394 -0.33328,1.34715 0,1.31867 0.95302,1.86325 1.55529,0.88875 0.35523,-0.57478 1.55529,-0.57794 1.55529,-0.003 0,0.24215 -0.6974,0.89204 -1.5498,1.44419 -1.14704,0.74303 -1.55121,1.32149 -1.55529,2.22594 -0.007,1.41478 0.27369,1.50926 1.41421,0.4771 0.58172,-0.52646 0.96181,-0.60629 1.29591,-0.27217 0.33411,0.33411 0.005,0.84582 -1.12141,1.74476 -1.16238,0.92746 -1.59419,1.61683 -1.59419,2.54511 -1e-5,1.25102 0.019,1.26067 1.09528,0.55546 0.6024,-0.3947 1.30229,-0.71765 1.55529,-0.71765 0.96659,0 0.39616,0.95638 -1.09529,1.83636 -1.09091,0.64365 -1.55529,1.23625 -1.55529,1.98467 0,1.14009 0.81874,1.40365 1.68119,0.54119 0.28921,-0.28919 0.66548,-0.38618 0.83616,-0.21551 0.17067,0.17067 -0.32593,0.96672 -1.10353,1.76901 -0.77761,0.80228 -1.41382,1.79912 -1.41382,2.21519 0,0.93473 0.59849,0.9751 1.33311,0.09 0.62315,-0.75084 1.77747,-0.8978 1.77747,-0.22627 0,0.24216 -0.6974,0.89204 -1.5498,1.4442 -2.71244,1.75707 -2.27993,1.89311 6.01444,1.89175 4.66569,-7.6e-4 5.77931,-0.13436 6.82415,-0.81902 z m -3.50119,-25.15773 c -0.32893,-0.5322 2.76753,-4.01732 3.56933,-4.01732 1.42305,0 1.14538,1.13432 -0.67263,2.74766 -1.99838,1.77341 -2.46024,1.97586 -2.8967,1.26966 z m 0.40769,-4.94742 c -0.47623,-0.77055 2.9887,-4.02553 3.76757,-3.53927 0.54121,0.33788 0.53286,0.54244 -0.0584,1.43194 -0.94636,1.42361 -3.30388,2.76302 -3.70913,2.10733 z m -0.0317,-35.60102 c -0.31629,-0.51176 3.00091,-3.90655 3.81727,-3.90655 0.57924,0 0.59077,0.70576 0.0287,1.75603 -0.63172,1.18035 -3.46606,2.76522 -3.84596,2.15052 z m 0.27952,-27.8581 c 0,-0.38571 3.0153,-3.5994 3.3772,-3.5994 0.6315,0 -0.0373,1.47978 -1.18954,2.63204 -1.36232,1.36232 -2.18766,1.72727 -2.18766,0.96736 z m 0.88874,-173.540683 c 0,-0.571436 2.18865,-2.474303 2.84591,-2.474303 0.69151,0 0.15166,1.806245 -0.72294,2.418845 -1.23375,0.864158 -2.12297,0.887386 -2.12297,0.05542 z M 211.33703,343.19587 c 0,-0.35217 -0.18616,-0.75537 -0.41366,-0.89598 -0.52831,-0.32651 -1.05966,0.5056 -0.69727,1.09195 0.40863,0.66117 1.11093,0.53729 1.11093,-0.19597 z m 0.0771,-79.01298 c 0.14998,-149.88993 0.0747,-208.540396 -0.26991,-210.187054 -0.19182,-0.916508 -0.49721,-1.666375 -0.67864,-1.666375 -0.18144,0 -0.45833,1.649714 -0.61528,3.666049 -0.37422,4.807275 -0.37743,277.34889 -0.003,281.77466 0.20459,2.42039 0.46062,3.39983 0.88872,3.39983 0.50295,0 0.61397,-12.59848 0.67843,-76.98711 z m 19.70271,-41.17854 c 0.48166,-1.23299 -0.57361,-1.4886 -1.33679,-0.32381 -0.41123,0.6276 -1.12972,1.26235 -1.59668,1.41055 -0.46694,0.14814 -0.84897,0.44111 -0.84897,0.6509 0,0.58631 3.5033,-1.02309 3.78244,-1.73764 z M 92.307783,90.434194 c 0.28341,-6.606903 0.21607,-17.663715 -0.10766,-17.663715 -0.45061,0 -0.55392,2.107901 -0.59334,12.108101 -0.0151,3.84883 0.12244,6.998296 0.30569,6.998833 0.1833,5.37e-4 0.36116,-0.648912 0.39524,-1.443219 z M 80.692195,79.932225 c 0,-0.215901 -0.420986,-0.502627 -0.935554,-0.637189 -1.191192,-0.311516 -0.84916,-1.459225 0.382038,-1.281953 0.505532,0.07289 1.068134,-0.108664 1.250193,-0.403267 0.233468,-0.377738 0.04871,-0.461797 -0.626743,-0.285164 -1.01664,0.26585 -1.726921,-0.302227 -0.965919,-0.77254 0.677649,-0.418819 0.543422,-1.115412 -0.214926,-1.115412 -0.36662,0 -0.666564,0.388134 -0.666564,0.862511 0,0.474395 -0.199962,0.986107 -0.444364,1.137162 -0.715287,0.442064 -0.511243,1.916538 0.333264,2.408433 0.968288,0.563979 1.888575,0.606572 1.888575,0.0875 z m 0,-5.828636 c 0,-0.556757 -0.471573,-0.556757 -1.333111,0 -0.538988,0.348331 -0.475217,0.432071 0.333282,0.437563 0.549905,0.0034 0.999829,-0.19316 0.999829,-0.437563 z m -0.666547,-1.777474 c 0.150988,-0.244402 0.06281,-0.444382 -0.195965,-0.444382 -0.258829,0 -0.470599,0.19998 -0.470599,0.444382 0,0.244402 0.08817,0.444364 0.195966,0.444364 0.107824,0 0.319543,-0.199962 0.470598,-0.444364 z m 15.775145,-4.689928 c 0,-2.449648 -2.97754,-3.884873 -4.01971,-1.937566 -0.5993,1.119779 -0.55528,1.172163 1.1313,1.346127 2.09912,0.216539 2.59238,0.76725 1.78749,1.995676 -0.97885,1.493906 -0.80366,2.362817 0.22695,1.125691 0.48434,-0.581362 0.87397,-1.709253 0.87397,-2.529928 z m -5.88791,-1.964505 c 0.54991,-0.811623 0.99983,-1.620508 0.99983,-1.797528 0,-0.177021 -0.75104,-0.441946 -1.66896,-0.588735 -0.91794,-0.146789 -2.54231,-0.688834 -3.60972,-1.204544 -1.067396,-0.51571 -2.615987,-1.047241 -3.441281,-1.181165 -0.825311,-0.133857 -1.500557,-0.429115 -1.500557,-0.655966 0,-0.718343 -0.86918,0.09069 -1.585406,1.475717 -0.667975,1.291744 -0.661626,1.319624 0.196133,0.860564 1.214604,-0.650037 1.340315,-0.605379 1.081536,0.384204 -0.178229,0.681528 -0.04249,0.811035 0.658015,0.627851 0.485395,-0.126971 1.011484,-0.02217 1.169106,0.232881 0.157538,0.255017 0.614818,0.337699 1.016036,0.183755 0.563526,-0.216254 0.65956,-0.09775 0.422161,0.520916 -0.265933,0.692999 -0.126802,0.764731 1.033772,0.532623 1.143725,-0.228749 1.341085,-0.133857 1.341085,0.644713 0,0.797666 0.18126,0.873143 1.4355,0.597654 1.34204,-0.294754 1.39266,-0.263431 0.77764,0.48133 -0.5818,0.704537 -0.58079,0.771466 0.008,0.578994 0.3666,-0.119749 1.11649,-0.881658 1.66639,-1.693264 z M 78.753017,60.018287 c -0.182042,-0.182042 -0.51702,-0.03678 -0.744392,0.3227 -0.684182,1.081856 -0.478962,1.562632 0.324179,0.759491 0.413159,-0.413159 0.602255,-0.900149 0.420213,-1.082191 z m 137.992523,-6.20241 c 1.08034,-0.977693 1.02485,-1.353097 -0.1872,-1.266249 -0.65721,0.04703 -1.04849,0.402326 -1.14183,1.03666 -0.16987,1.154461 0.23061,1.22364 1.32903,0.229589 z m 12.25517,-5.094858 c 0.59325,-0.21889 0.99983,-0.740596 0.99983,-1.28296 0,-0.541205 -0.40784,-1.066119 -0.99983,-1.28684 -0.84308,-0.314353 -0.6014,-0.455936 1.5414,-0.903055 1.39769,-0.29163 2.99742,-0.90371 3.55497,-1.360184 l 1.01372,-0.829929 -1.65212,-0.696745 c -2.27686,-0.960192 -4.86137,-0.903156 -5.74321,0.126803 -0.41758,0.487696 -1.59041,0.937553 -2.87608,1.103169 -2.41931,0.311667 -10.26123,-0.729595 -10.99102,-1.459393 -0.257,-0.256998 -1.03033,-0.467272 -1.71851,-0.467272 -1.76943,0 -4.82201,1.019713 -4.64801,1.552672 0.32927,1.008444 5.89323,2.49963 10.29542,2.759232 3.94919,0.232914 7.68006,0.909941 5.4685,0.992371 -0.41568,0.01512 -1.79836,0.251759 -3.07263,0.525031 -1.89777,0.407013 -2.17362,0.577029 -1.52501,0.940022 0.43552,0.24373 1.77068,0.443138 2.96701,0.443138 1.19633,0 2.28473,0.177323 2.41869,0.394063 0.25542,0.413277 3.2567,0.08078 4.96688,-0.550089 z m -13.19879,-3.923333 c -0.35495,-0.224533 -0.80974,-0.306645 -1.01068,-0.182462 -0.20093,0.124116 -0.99391,0.08767 -1.76219,-0.08095 -0.9985,-0.21931 -1.21717,-0.406508 -0.76681,-0.656436 0.81511,-0.452326 8.90642,0.448042 8.5924,0.956128 -0.316,0.511292 -4.23161,0.483211 -5.05272,-0.03628 z m 5.75559,-0.0225 c 0,-0.244402 0.94983,-0.441308 2.11076,-0.437563 1.52662,0.005 1.9263,0.125963 1.44419,0.437563 -0.87855,0.567758 -3.55495,0.567758 -3.55495,0 z m -3.64853,3.821958 c -0.31514,-0.341949 -0.643,-0.555213 -0.72859,-0.473924 -0.26356,0.250381 0.40445,1.095661 0.86591,1.095661 0.23961,0 0.17781,-0.279773 -0.13739,-0.621737 z m 5.17766,-8.035023 c -0.74737,-0.57021 -0.77355,-0.718595 -0.19602,-1.110928 0.57564,-0.391057 0.57954,-0.508808 0.0286,-0.863318 -0.54205,-0.348767 -0.54635,-0.520917 -0.0286,-1.144787 0.51759,-0.623686 0.51385,-0.79335 -0.0248,-1.126296 -0.49532,-0.306124 -0.51679,-0.509479 -0.0979,-0.928281 0.41879,-0.418803 0.37299,-0.655697 -0.20913,-1.081352 -0.62961,-0.46037 -0.65328,-0.656067 -0.15233,-1.259699 0.52293,-0.630085 0.43247,-0.714631 -0.76448,-0.714631 -1.67225,0 -1.8684,0.550039 -1.66392,4.665877 0.085,1.710832 -0.0492,3.360547 -0.29828,3.666066 -0.35176,0.431483 0.0742,0.555447 1.90837,0.555447 2.17742,0 2.29406,-0.05122 1.49861,-0.658098 z m -5.52846,-4.674343 c 0,-2.369971 -0.18105,-3.99933 -0.44438,-3.99933 -0.26333,0 -0.44436,1.629359 -0.44436,3.99933 0,2.369989 0.18103,3.999331 0.44436,3.999331 0.26333,0 0.44438,-1.629342 0.44438,-3.999331 z m 7.10992,-7.998661 c 0.45721,-0.295459 -0.61299,-0.432893 -3.40752,-0.437563 -2.24075,-0.0034 -4.44039,-0.144269 -4.88808,-0.312187 -0.71655,-0.268822 -0.74098,-0.215632 -0.20411,0.444382 0.48242,0.593068 1.36457,0.748322 4.22151,0.742947 1.98641,-0.0034 3.9116,-0.200651 4.2782,-0.437579 z m 5.59532,-16.771291 c -0.81801,-0.818005 -16.55296,-0.503567 -16.04358,0.320602 0.11975,0.193781 -0.19136,0.459312 -0.69139,0.590078 -0.74563,0.194991 -0.81486,0.124116 -0.38496,-0.393845 0.5865,-0.706703 0.30136,-0.764327 -1.75095,-0.353872 l -1.38865,0.27774 v 4.699216 c 0,3.303292 0.13956,4.559615 0.46994,4.229255 0.25848,-0.258459 0.5864,-1.598237 0.72872,-2.977265 0.14226,-1.379045 0.46502,-2.507339 0.71708,-2.507339 0.25207,0 0.82523,-0.332056 1.27368,-0.737893 1.02021,-0.923292 1.48794,-0.529045 0.83028,0.699835 -0.57651,1.077187 -0.16123,1.173187 1.06439,0.246115 0.47443,-0.358844 1.37427,-0.64656 1.99967,-0.639406 l 1.13708,0.01344 -1.48662,1.351719 c -2.08279,1.893797 -1.54545,1.999673 0.78586,0.15485 1.82944,-1.447686 4.03354,-2.04858 4.03354,-1.099658 0,0.238138 -0.6499,0.766192 -1.44421,1.173456 -2.30084,1.179704 -3.97617,2.730495 -3.36068,3.110887 0.292,0.180464 0.60938,0.09271 0.70526,-0.194923 0.0959,-0.287667 0.44548,-0.523033 0.77686,-0.523033 0.33137,0 1.52667,-0.799866 2.65621,-1.777492 1.12955,-0.977608 2.49148,-1.770286 3.02653,-1.761485 0.92337,0.01511 0.90982,0.066 -0.26693,0.999828 -0.68186,0.541121 -2.00587,1.633742 -2.94226,2.428049 -0.9364,0.794307 -1.92826,1.44421 -2.20414,1.44421 -0.27588,0 -0.5016,0.199962 -0.5016,0.444365 0,0.57073 1.21034,0.575047 1.90733,0.0067 1.37433,-1.120485 6.64555,-4.488774 6.79338,-4.340943 0.3929,0.392904 -1.32661,2.165525 -3.41063,3.515917 -1.23936,0.803074 -2.05172,1.527363 -1.80527,1.609524 0.69198,0.230647 3.72329,-1.460702 4.92459,-2.747727 1.38235,-1.481008 2.08274,-1.461122 2.38979,0.06785 0.13503,0.672106 0.5099,1.821915 0.83319,2.555121 0.53376,1.210574 0.59931,0.827192 0.71305,-4.170321 0.0689,-3.026895 0.0309,-5.597854 -0.0845,-5.713236 z m 40.94318,9.83727 c -0.14763,-0.147629 -0.53092,-0.163416 -0.85171,-0.0351 -0.35448,0.141919 -0.24919,0.247157 0.26847,0.268487 0.46845,0.01931 0.73091,-0.08582 0.58324,-0.233402 z M 162.10444,18.87381 c -1.0285,-1.047963 -1.87,-2.14779 -1.87,-2.444038 0,-0.718578 1.29405,-0.656487 2.66622,0.127978 1.4119,0.807122 2.02878,0.838243 1.39138,0.0702 -0.80048,-0.964492 -0.0941,-1.159332 1.31723,-0.363345 1.11075,0.626457 1.36711,0.643185 1.70251,0.111183 0.51075,-0.810195 2.59395,-0.01511 4.06548,1.550842 0.55555,0.591372 1.47515,1.075205 2.04356,1.075205 0.62238,0 1.03345,0.265127 1.03345,0.666547 0,0.366603 0.29996,0.666563 0.66657,0.666563 1.48037,0 0.53417,-1.216871 -1.40758,-1.810225 -2.30436,-0.704168 -3.45618,-1.952429 -2.40597,-2.607421 0.40747,-0.254126 1.02365,-0.1352 1.74359,0.336523 0.82605,0.541239 1.1604,0.588601 1.29543,0.18347 0.32321,-0.969581 2.08387,-0.581883 3.80673,0.83826 1.85735,1.530973 2.5806,1.544543 1.16195,0.02183 -0.91864,-0.986039 -0.82731,-1.850483 0.19551,-1.850483 0.30804,0 1.63215,0.799867 2.94244,1.777492 1.3103,0.977608 2.45641,1.777475 2.5469,1.777475 0.0905,0 -0.36927,-0.699885 -1.02173,-1.555293 l -1.18628,-1.555292 h 1.18271 c 0.79219,0 1.90266,0.673449 3.36325,2.039646 1.1993,1.121811 2.39682,1.905974 2.66116,1.742608 0.2859,-0.176701 -0.10883,-0.694276 -0.9745,-1.277619 -0.8003,-0.539341 -1.51876,-1.311143 -1.59656,-1.715149 -0.11404,-0.591859 0.22029,-0.729545 1.72089,-0.708836 1.47117,0.02032 2.2116,0.341226 3.52503,1.527815 0.91445,0.826168 1.78839,1.50212 1.94208,1.50212 0.63672,0 0.21466,-1.159768 -0.60933,-1.674353 -0.4888,-0.305268 -0.88874,-0.853292 -0.88874,-1.217829 0,-0.912612 1.72752,-0.841938 2.80725,0.114878 0.64323,0.570009 0.92944,0.629329 1.07186,0.222183 0.33147,-0.947646 1.38084,-0.618631 3.16345,0.99185 1.95964,1.770404 2.88906,1.571467 1.14807,-0.245728 -1.85606,-1.937314 -0.48699,-1.916068 1.9758,0.03057 2.59186,2.048749 3.89885,2.37113 2.13066,0.525535 -1.38919,-1.450004 -1.13314,-2.133581 0.41839,-1.116975 l 1.06,0.694528 V 15.340694 13.35486 l -5.56164,-0.309114 c -3.05891,-0.169949 -5.73128,-0.204161 -5.93861,-0.07608 -0.20732,0.128147 -6.35315,0.254211 -13.65737,0.280142 -10.52986,0.03745 -13.48059,0.175375 -14.24704,0.666161 -0.6937,0.444213 -1.0147,0.474763 -1.13689,0.10816 -0.21849,-0.655495 -12.68316,-0.990893 -13.44133,-0.361682 -0.53225,0.441728 -0.38148,3.117303 0.17566,3.117303 0.16779,0 0.54369,-0.238642 0.83537,-0.530305 0.41084,-0.410842 0.83131,-0.24195 1.86636,0.749682 0.73482,0.704 1.33603,1.542545 1.33603,1.863432 0,0.320871 0.19998,0.583411 0.44438,0.583411 0.70081,0 0.51764,-1.332875 -0.22218,-1.616779 -0.97106,-0.372633 -0.84587,-1.93817 0.15502,-1.93817 0.78661,0 4.95526,3.819657 4.95526,4.540435 0,0.191195 0.34157,0.347625 0.75907,0.347625 0.54313,0 0.22708,-0.542045 -1.11093,-1.905386 z m -11.20177,-2.475663 c 0,-1.891917 -0.20465,-3.644501 -0.45476,-3.894613 -0.63714,-0.637139 -3.10021,-0.200467 -3.10021,0.549619 0,0.338874 0.20378,0.616128 0.45285,0.616128 0.27153,0 0.33098,0.489241 0.14847,1.22201 -0.27128,1.089145 -0.226,1.157467 0.41643,0.628305 1.14617,-0.944103 1.64847,-0.205606 1.64847,2.423649 0,1.516193 0.16869,2.339774 0.44437,2.169404 0.2444,-0.150987 0.44436,-1.822586 0.44436,-3.714502 z m 95.30313,1.255601 c -1.05501,-1.101204 -1.18279,-1.434771 -0.67078,-1.751208 0.39685,-0.245275 1.0975,-0.150484 1.88077,0.254631 0.76626,0.396246 1.24829,0.464132 1.24829,0.175794 0,-1.16568 1.47226,-0.87924 3.33776,0.649382 1.09707,0.898974 1.99468,1.445637 1.99468,1.214789 0,-0.230832 -0.29996,-0.668646 -0.66656,-0.972889 -0.3666,-0.30426 -0.66655,-0.82867 -0.66655,-1.165344 0,-1.13026 1.31875,-0.626491 3.14762,1.20236 1.8964,1.896401 3.08612,2.090569 1.32534,0.216304 -0.55611,-0.59196 -0.87837,-1.291038 -0.71615,-1.553546 0.38009,-0.614986 2.32376,-0.61994 2.70264,-0.0067 0.16459,0.266337 0.83821,0.350127 1.55287,0.193161 0.84558,-0.185721 1.67494,-0.01344 2.51281,0.521773 0.98678,0.630403 1.13429,0.651347 0.69907,0.09926 -1.081,-1.37137 0.79501,-1.794405 2.24793,-0.50691 0.64322,0.570009 0.92944,0.629329 1.07185,0.222182 0.30418,-0.869582 1.20374,-0.656234 2.34208,0.555464 1.18605,1.262487 2.30942,1.546526 1.1798,0.298298 -0.80418,-0.888611 -0.97343,-1.85359 -0.32509,-1.85359 0.22568,0 1.34514,0.713556 2.48769,1.585692 2.105,1.606769 3.18452,1.897106 1.54839,0.416434 -0.4903,-0.44371 -0.89146,-0.975728 -0.89146,-1.182257 0,-1.174766 3.80528,0.526375 6.1101,2.731503 1.95245,1.868017 1.85,0.764899 -0.11118,-1.196213 -0.85541,-0.855408 -1.5553,-1.635271 -1.5553,-1.733035 0,-0.66475 2.65155,0.04921 4.29044,1.155367 2.30053,1.552606 2.83723,1.691535 1.70608,0.441644 -0.44371,-0.490316 -0.67551,-1.022703 -0.5151,-1.183113 0.51781,-0.517826 2.5152,0.695165 3.03949,1.845847 0.28002,0.6146 0.79152,1.117462 1.13662,1.117462 0.46613,0 0.39066,-0.301069 -0.29351,-1.170853 -0.50654,-0.643958 -0.92099,-1.550288 -0.92099,-2.014051 0,-0.709626 0.37603,-0.559326 2.37333,0.948654 2.72329,2.056106 3.60325,2.324021 2.03674,0.620092 l -1.07729,-1.171777 1.22202,0.221427 c 1.16035,0.210241 1.22201,0.134864 1.22201,-1.494444 0,-1.055941 -0.21362,-1.730633 -0.55547,-1.754297 -0.3055,-0.02116 -3.255,-0.08011 -6.55445,-0.131002 -3.29945,-0.05089 -16.11658,-0.265833 -28.48252,-0.477552 l -22.48354,-0.384977 -0.2984,1.866069 c -0.31984,2.000177 0.62911,4.011876 1.90576,4.040042 0.43046,0.01008 0.2883,-0.36091 -0.44438,-1.157921 -0.81295,-0.884329 -0.92736,-1.225067 -0.46629,-1.388651 0.33606,-0.119246 1.02068,-0.626424 1.52135,-1.127119 0.79572,-0.795717 0.87132,-0.808599 0.60031,-0.102282 -0.19208,0.500544 -0.0262,1.12166 0.43609,1.632432 0.8986,0.992943 1.56728,1.079958 1.21346,0.157874 -0.47932,-1.249101 1.08605,-0.69451 3.1973,1.132745 2.46709,2.135261 3.22188,1.95997 1.07925,-0.250667 -1.30355,-1.344934 -1.38405,-1.548625 -0.61191,-1.548625 1.3719,0 4.24512,2.835331 3.89226,3.84092 -0.27543,0.784935 -0.24976,0.787522 0.52921,0.05341 0.79216,-0.746457 0.77644,-0.815586 -0.48457,-2.131784 z m 39.11881,-3.095722 c -0.15099,-0.244419 0.0371,-0.444381 0.41814,-0.444381 0.38103,0 0.69278,0.199962 0.69278,0.444381 0,0.244402 -0.18815,0.444365 -0.41814,0.444365 -0.22998,0 -0.54173,-0.199963 -0.69278,-0.444365 z m 9.81506,3.169234 c 0.12462,-0.578742 0.34306,-0.935722 0.4855,-0.793283 0.14242,0.142423 0.63264,0.05895 1.08931,-0.185384 0.64324,-0.344249 0.8303,-0.290656 0.8303,0.237818 0,0.37522 0.22136,0.6822 0.49191,0.6822 0.27055,0 0.37055,-0.316302 0.2222,-0.702908 -0.1483,-0.386589 -0.26973,-1.486399 -0.26973,-2.444021 0,-1.735084 -0.007,-1.741147 -1.77749,-1.741147 h -1.77747 l 0.0516,3.888248 c 0.0284,2.138519 0.13604,3.488306 0.23949,2.999485 0.10329,-0.488804 0.28987,-1.36225 0.41444,-1.941008 z m -127.35095,1.300679 c 0,-0.229976 -0.19996,-0.541726 -0.44436,-0.692781 -0.2444,-0.150988 -0.44437,0.03712 -0.44437,0.418147 0,0.381031 0.19997,0.692781 0.44437,0.692781 0.2444,0 0.44436,-0.188155 0.44436,-0.418147 z m 129.74941,-0.483044 c -0.26526,-0.49564 -0.70252,-0.765067 -0.9717,-0.598711 -0.32253,0.199341 -0.21022,0.50659 0.32942,0.901174 1.10359,0.806987 1.20937,0.757173 0.64228,-0.302463 z"
       id="path10" /></g><metadata
     id="metadata182"><rdf:RDF><cc:Work
         rdf:about=""><cc:license
           rdf:resource="http://creativecommons.org/licenses/by-sa/4.0/" /><dc:publisher><cc:Agent><dc:title>OpenDataKerala.org</dc:title></cc:Agent></dc:publisher><dc:date>April 2026</dc:date><dc:title>Election Symbols of Kerala</dc:title><dc:creator><cc:Agent><dc:title>Manoj Karingamadathil</dc:title></cc:Agent></dc:creator></cc:Work><cc:License
         rdf:about="http://creativecommons.org/licenses/by-sa/4.0/"><cc:permits
           rdf:resource="http://creativecommons.org/ns#Reproduction" /><cc:permits
           rdf:resource="http://creativecommons.org/ns#Distribution" /><cc:requires
           rdf:resource="http://creativecommons.org/ns#Notice" /><cc:requires
           rdf:resource="http://creativecommons.org/ns#Attribution" /><cc:permits
           rdf:resource="http://creativecommons.org/ns#DerivativeWorks" /><cc:requires
           rdf:resource="http://creativecommons.org/ns#ShareAlike" /></cc:License></rdf:RDF></metadata></svg>
