<?xml version="1.0" encoding="UTF-8" standalone="no"?>
<!-- Created with Inkscape (http://www.inkscape.org/) -->

<svg
   width="1500"
   height="1500"
   viewBox="0 0 396.87499 396.875"
   version="1.1"
   id="svg5"
   xml:space="preserve"
   inkscape:version="1.2.2 (b0a8486541, 2022-12-01)"
   sodipodi:docname="bsp.svg"
   inkscape:export-filename="bsp.png"
   inkscape:export-xdpi="96"
   inkscape:export-ydpi="96"
   xmlns:inkscape="http://www.inkscape.org/namespaces/inkscape"
   xmlns:sodipodi="http://sodipodi.sourceforge.net/DTD/sodipodi-0.dtd"
   xmlns="http://www.w3.org/2000/svg"
   xmlns:svg="http://www.w3.org/2000/svg"
   xmlns:rdf="http://www.w3.org/1999/02/22-rdf-syntax-ns#"
   xmlns:cc="http://creativecommons.org/ns#"
   xmlns:dc="http://purl.org/dc/elements/1.1/"><title
     id="title186">Election Symbols of Kerala</title><sodipodi:namedview
     id="namedview7"
     pagecolor="#ffffff"
     bordercolor="#000000"
     borderopacity="0.25"
     inkscape:showpageshadow="2"
     inkscape:pageopacity="0.0"
     inkscape:pagecheckerboard="0"
     inkscape:deskcolor="#d1d1d1"
     inkscape:document-units="mm"
     showgrid="false"
     inkscape:zoom="0.20783333"
     inkscape:cx="1469.9278"
     inkscape:cy="1142.7426"
     inkscape:window-width="1854"
     inkscape:window-height="1011"
     inkscape:window-x="0"
     inkscape:window-y="0"
     inkscape:window-maximized="1"
     inkscape:current-layer="layer1" /><defs
     id="defs2"><inkscape:path-effect
       effect="bspline"
       id="path-effect3248"
       is_visible="true"
       lpeversion="1"
       weight="33.333333"
       steps="2"
       helper_size="0"
       apply_no_weight="true"
       apply_with_weight="true"
       only_selected="false" /><inkscape:path-effect
       effect="bspline"
       id="path-effect577"
       is_visible="true"
       lpeversion="1"
       weight="33.333333"
       steps="2"
       helper_size="0"
       apply_no_weight="true"
       apply_with_weight="true"
       only_selected="false" /></defs><g
     inkscape:label="Layer 1"
     inkscape:groupmode="layer"
     id="layer1"><path
       style="fill:#000000;stroke-width:1.03389"
       d="m 30.644246,307.40355 c 0,-1.0615 1.933877,-1.64315 6.978603,-2.09866 16.134528,-1.4568 18.409149,-1.82505 16.283799,-2.63651 -3.955285,-1.51001 -5.990759,-4.79948 -5.252612,-8.48838 0.375131,-1.87054 1.07811,-6.0849 1.563827,-9.3653 0.485716,-3.2804 1.394235,-6.57999 2.018672,-7.33236 0.624436,-0.75241 0.849905,-1.65319 0.501346,-2.00179 -0.347777,-0.34856 -0.06252,-3.66194 0.635769,-7.36303 1.08866,-5.76848 1.032781,-7.42503 -0.391152,-11.6034 -2.310962,-6.78307 -2.085883,-11.32586 1.053882,-21.25319 2.631777,-8.32126 2.711492,-9.33857 2.611066,-33.36491 -0.109413,-26.03118 0.34387,-29.75024 4.767286,-39.06068 0.203196,-0.42647 -0.152396,-0.77542 -0.785039,-0.77542 -0.634205,0 -2.150749,2.20995 -3.370315,4.91097 -1.925671,4.26445 -2.250393,7.08875 -2.466875,21.45317 -0.308701,20.39887 -1.065605,30.12687 -3.006125,38.57653 -0.824115,3.5893 -1.498569,10.27307 -1.498569,14.85287 0,7.92593 -0.17975,8.57006 -3.70637,13.37642 -2.038991,2.77722 -4.074075,5.04949 -4.523451,5.04949 -0.998004,0 -2.108938,-5.22823 -2.108938,-9.92428 0,-1.90437 1.426279,-7.05288 3.169464,-11.44117 3.913864,-9.85218 4.959541,-18.34538 5.707457,-46.35427 0.575201,-21.54771 1.588835,-28.60919 5.06192,-35.26854 0.856158,-1.64194 1.559528,-3.4521 1.563045,-4.02254 0,-1.57496 6.464361,-10.32203 11.924467,-16.1591 2.674369,-2.85936 8.182148,-7.32373 12.23942,-9.9208 4.056883,-2.59712 11.098399,-7.61148 15.647249,-11.1431 6.952038,-5.39696 36.195038,-21.188441 39.237108,-21.188441 0.4314,0 3.06435,-1.145204 5.85126,-2.544949 6.85981,-3.445536 18.41267,-6.925812 20.64157,-6.218338 0.99878,0.316907 2.11519,0.09222 2.48094,-0.499628 0.81357,-1.316318 32.21435,-1.491535 33.02244,-0.184439 0.3048,0.490444 6.02984,1.217338 12.72631,1.615289 13.53597,0.804499 27.67253,2.721339 41.97322,5.691554 17.38535,3.61075 19.53376,3.6281 25.9399,0.209448 6.11697,-3.264028 9.4572,-3.368479 17.45725,-0.545776 5.27645,1.861625 8.42598,1.827668 10.0324,-0.108241 1.79907,-2.167435 5.79616,-1.932549 11.1406,0.654642 7.90588,3.827271 15.43937,13.384779 17.41271,22.090899 0.38685,1.70591 2.06674,4.84411 3.73411,6.97376 2.27775,2.90992 3.40353,5.99295 4.52971,12.40666 0.8245,4.69402 1.3747,9.51672 1.2223,10.7171 -0.1524,1.20038 0.25009,2.82876 0.89132,3.6186 1.7385,2.13645 5.47301,15.36465 4.81887,17.06896 -0.31261,0.81196 -0.24227,5.37535 0.15631,10.14087 0.64084,7.69229 0.97338,8.73559 2.96353,9.29703 2.09839,0.592 2.12613,0.72111 0.43218,2.02172 -2.59661,1.99402 -2.2457,2.71224 1.32507,2.71224 6.35065,0 4.71688,4.83012 -2.10034,6.20927 -2.31252,0.46778 -2.65522,1.17588 -3.2527,6.72027 -0.36731,3.40857 -1.64823,10.61725 -2.8463,16.01933 -1.19807,5.40208 -2.62435,11.9156 -3.16985,14.47446 -2.61224,12.25521 -8.97149,23.77371 -16.11031,29.18001 -7.9895,6.05033 -16.36859,6.41112 -24.46438,1.05341 -3.36601,-2.22734 -4.25773,-3.69492 -6.36159,-10.46712 -2.5208,-8.11451 -3.43166,-17.14078 -1.82954,-18.13101 0.50017,-0.30909 4.67076,-0.0117 9.26846,0.65656 l 8.35916,1.21839 -0.21492,7.77521 c -0.18365,6.67612 0.0391,7.82711 1.59197,8.14233 2.14332,0.43527 3.91034,-1.22941 5.80631,-5.4703 1.63456,-3.65565 3.16048,-36.13564 2.27267,-48.37268 -0.63225,-8.71545 -0.96596,-9.21203 -7.55771,-11.24219 -3.33984,-1.02857 -4.15692,-0.93736 -5.92316,0.66116 -1.97334,1.7857 -2.0722,1.78219 -2.66421,-0.0957 -1.88776,-5.9865 -3.15344,-7.13897 -13.11316,-11.94041 -3.66299,-1.76577 -12.08976,-0.97487 -15.56402,1.46078 -4.4664,3.13109 -4.75243,3.65823 -3.70168,6.82843 2.49111,7.51715 9.59632,38.44613 10.60878,46.18121 0.29698,2.262 1.03864,7.94949 1.64979,12.6389 0.6682,5.12456 2.28713,11.10551 4.05767,14.99135 1.63611,3.59094 3.25855,9.38036 3.64892,13.02222 0.38686,3.60629 1.45129,8.25881 2.36606,10.33887 0.91477,2.08007 2.56222,5.771 3.66143,8.20212 1.54195,3.4106 1.72482,4.74974 0.80067,5.8631 -0.99253,1.19631 -0.2579,1.52596 4.28939,1.92844 3.01746,0.26689 7.11498,0.49326 9.10512,0.5028 6.81097,0.0313 18.66158,1.52377 19.21412,2.41763 0.30479,0.49119 -2.23945,0.89313 -5.65158,0.89313 -3.41173,0 -6.44404,0.38959 -6.73828,0.86596 -0.29307,0.47626 -2.92641,0.89407 -5.84892,0.92841 -2.9225,0.0352 -5.82624,0.57516 -6.45263,1.20179 -1.8018,1.8018 -5.19713,1.43722 -4.46172,-0.47907 0.45407,-1.18327 0.13677,-1.47087 -1.18166,-1.06967 -2.89515,0.88132 -9.77215,0.9644 -13.7587,0.16607 -2.60872,-0.52225 -4.03031,-0.3216 -4.86732,0.68653 -1.49192,1.79789 -14.23816,1.43151 -23.36673,-0.67164 -5.93098,-1.36649 -10.44466,-1.29682 -14.08929,0.21726 -0.85303,0.35442 0.97183,0.89821 4.05532,1.20851 3.38751,0.34074 5.78874,1.11859 6.06735,1.96502 0.33996,1.03415 -0.1524,1.20593 -1.88542,0.65617 -1.2903,-0.4096 -11.5173,-0.85687 -22.72628,-0.99394 -11.20937,-0.13716 -20.79279,-0.50331 -21.29726,-0.81376 -0.50409,-0.31066 -3.30037,-0.86636 -6.2135,-1.23536 -4.1573,-0.52651 -5.42298,-0.34309 -5.88173,0.85276 -0.37513,0.97847 -1.38486,1.31433 -2.82169,0.93865 -1.33797,-0.34973 -2.59231,-0.008 -3.12179,0.84705 -0.70493,1.14044 -1.14649,1.1706 -2.16872,0.1481 -1.02224,-1.02239 -0.99605,-1.28373 0.12895,-1.28373 3.43401,0 -0.5541,-1.53295 -4.93414,-1.89664 -13.96542,-1.15958 -29.14219,-0.44124 -29.15,1.3797 -0.003,0.64105 -6.58355,1.09933 -17.31971,1.20613 -9.52324,0.0946 -19.99056,0.42155 -23.26006,0.72627 -3.98576,0.37122 -5.94504,0.1774 -5.94504,-0.58869 0,-1.33026 -19.596673,-0.42264 -26.364265,1.22109 -5.474173,1.32968 -18.093023,1.34356 -18.093023,0.0195 0,-0.56863 -1.628302,-1.03391 -3.618448,-1.03391 -1.990147,0 -3.618839,0.46528 -3.618839,1.03391 0,0.63409 -4.997054,1.03388 -12.923253,1.03388 -10.476697,0 -12.923643,-0.27823 -12.923643,-1.46856 z m 70.691824,-6.80046 4.26516,0.002 -0.58497,-14.73501 c -0.51737,-13.04377 -2.40358,-24.27137 -4.41561,-26.28328 -1.160564,-1.16053 -3.787647,1.93911 -3.787647,4.46882 0,1.36911 -1.104291,5.15045 -2.454371,8.40295 -4.303061,10.36775 -5.343658,16.07286 -3.790774,20.7781 0.745963,2.2609 1.090615,5.1276 0.765501,6.37038 -0.535342,2.04747 -0.29307,2.20022 2.573553,1.62674 1.740451,-0.34817 5.083804,-0.63194 7.429158,-0.63081 z m 67.84903,-1.5607 c 3.12765,0.28682 9.31692,0.78786 13.75401,1.11356 7.93714,0.58262 8.04577,0.558 6.74375,-1.52718 -1.0785,-1.72646 -1.07146,-2.74631 0.0391,-5.50148 3.11476,-7.74501 3.49419,-11.36533 3.17337,-30.26323 0,-1.13727 0.14849,-7.18551 0.37122,-13.44054 0.26181,-7.29141 -0.0821,-13.36872 -0.95853,-16.93453 -0.75183,-3.059 -1.06795,-6.04586 -0.7022,-6.63751 0.4271,-0.69106 -0.043,-0.80141 -1.31413,-0.3087 -1.08827,0.42194 -4.53752,0.9717 -7.66517,1.22175 -11.97058,0.95698 -17.87263,2.58192 -23.45817,6.45835 -3.00652,2.08662 -5.47222,4.25914 -5.47965,4.82777 0,0.56864 -2.80449,4.4485 -6.21584,8.62187 -4.51172,5.51989 -6.22873,8.47862 -6.30063,10.85585 -0.31651,10.48141 0.16412,19.67681 1.08749,20.78934 0.58341,0.70333 0.81708,1.52288 0.51854,1.82126 -0.29698,0.29854 0.63616,4.15328 2.0769,8.56642 1.44034,4.41314 2.61927,8.80073 2.61927,9.7502 0,1.53538 0.88585,1.63443 8.01256,0.89578 4.407,-0.45676 10.57165,-0.59583 13.69891,-0.30909 z m 71.88364,0.16451 c 3.25035,-2.22151 7.98637,-2.72325 10.8276,-1.14708 2.72907,1.51401 6.72578,2.13641 4.4578,0.69419 -0.82372,-0.5235 -1.2223,-4.35566 -1.20941,-11.61541 0,-5.95876 -0.51424,-13.16041 -1.16681,-16.00359 -0.65218,-2.84317 -1.66699,-8.36895 -2.25508,-12.27949 -0.67055,-4.46124 -2.18553,-9.004 -4.06626,-12.1937 -1.64862,-2.79598 -2.99753,-5.52838 -2.99753,-6.072 0,-0.54363 -0.59747,-0.98839 -1.32781,-0.98839 -2.31565,0 -4.91499,5.87743 -6.44326,14.56968 -0.81356,4.62837 -1.98077,9.01928 -2.59348,9.75762 -0.61271,0.73834 -1.39189,6.25017 -1.73185,12.24859 -0.49471,8.74093 -0.26181,12.03528 1.1715,16.59324 0.98355,3.12785 1.49075,6.16926 1.12617,6.75864 -0.97143,1.5718 3.79976,1.3241 6.20842,-0.32237 z m -99.79845,-1.82825 c 0,-1.46469 -3.8615,-1.05134 -4.44764,0.47606 -0.38295,0.99516 0.17193,1.25435 1.95732,0.91337 1.36962,-0.26181 2.49032,-0.88707 2.49032,-1.38943 z m 77.54147,0.061 c 0,-1.64604 -2.30861,-2.25778 -3.2015,-0.8483 -1.40987,2.22601 -1.10586,2.827 1.13399,2.24132 1.13711,-0.29737 2.06751,-0.92426 2.06751,-1.39302 z M 61.660912,296.98218 c -0.708059,-0.85295 -1.695513,-1.55081 -2.194515,-1.55081 -0.499002,0 -0.907347,0.69786 -0.907347,1.55081 0,0.89141 0.933138,1.55086 2.194515,1.55086 1.83306,0 1.982331,-0.25517 0.907347,-1.55086 z m 9.563488,0.86613 c -0.710794,-0.28682 -1.87409,-0.28682 -2.584885,0 -0.710794,0.28681 -0.128951,0.52147 1.292247,0.52147 1.421589,0 2.003433,-0.23485 1.292638,-0.52147 z m 58.01319,-0.86613 c -0.32824,-0.85295 -0.99605,-1.55081 -1.48607,-1.55081 -0.49001,0 -0.62326,0.69786 -0.29698,1.55081 0.32824,0.85296 0.99605,1.55086 1.48607,1.55086 0.49001,0 0.62287,-0.6979 0.29698,-1.55086 z m 78.1659,-0.58368 c -0.93196,-1.74111 -1.42393,-1.90085 -2.67007,-0.86667 -1.22816,1.01911 -1.2645,1.43476 -0.18757,2.11871 2.6564,1.685 4.09166,1.05588 2.85647,-1.25204 z m 21.51023,0.9068 c -0.63889,-1.91707 -2.86467,-2.23503 -2.86467,-0.40924 0,0.90031 0.73658,1.63698 1.6369,1.63698 0.90031,0 1.45285,-0.5525 1.22777,-1.22774 z m 44.43579,-2.47719 c -0.9855,-0.98526 -2.96079,0.61061 -2.22655,1.79868 0.43648,0.70614 1.0148,0.68828 1.75725,-0.0543 0.60881,-0.60869 0.81982,-1.39369 0.4693,-1.74444 z m -144.02088,-3.36 c 3.52506,0 5.2491,-0.52229 6.25218,-1.89382 0.76159,-1.04161 1.30632,-1.97049 1.21097,-2.06423 -0.0938,-0.0938 -2.15153,0.19186 -4.568,0.63498 -4.91577,0.90094 -6.18809,-0.83744 -2.06791,-2.82461 1.27936,-0.61706 1.74475,-1.15338 1.03396,-1.19187 -2.09096,-0.11332 -1.48216,-2.78702 1.03395,-4.54212 2.30354,-1.60685 2.28986,-1.62327 -1.3786,-1.67696 -2.03782,-0.0313 -4.05376,0.29464 -4.47969,0.72119 -0.42632,0.42648 -2.71384,1.56359 -5.08341,2.52698 l -4.30814,1.75151 4.39372,0.0578 c 3.19095,0.0418 4.3941,0.48243 4.3941,1.60861 0,0.85295 -0.67015,1.55081 -1.48958,1.55081 -2.17067,0 -3.14562,2.14024 -1.48606,3.26282 1.14806,0.77644 0.9726,1.28107 -0.90149,2.59524 -1.27935,0.89726 -2.3262,2.25137 -2.3262,3.00913 0,0.8458 0.94643,0.4312 2.45164,-1.07385 1.88503,-1.88515 3.57624,-2.45156 7.31856,-2.45156 z m 152.3523,3.88569 c -0.20319,-0.61126 -0.81239,-1.1114 -1.35281,-1.1114 -0.54003,0 -1.14884,0.50014 -1.35243,1.1114 -0.20319,0.61131 0.40483,1.11145 1.35243,1.11145 0.94798,0 1.5564,-0.50014 1.35281,-1.11145 z m 11.38327,-0.42421 c 0.3126,-0.31143 0.0391,-1.09741 -0.61272,-1.74619 -0.8839,-0.88359 -1.57985,-0.84748 -2.7744,0.1438 -0.87726,0.72787 -1.5947,1.70501 -1.5947,2.17134 0,0.88082 3.98772,0.42538 4.98182,-0.56899 z M 69.679331,292.59202 c 1.282868,-0.27822 2.997528,0.0465 3.811093,0.72166 1.096476,0.9102 2.030004,0.93224 3.612587,0.0852 2.831455,-1.51541 2.692344,-1.9232 -0.450939,-1.32233 -1.831106,0.35012 -2.584494,0.0403 -2.584494,-1.06217 0,-0.97846 1.43214,-1.82505 3.857985,-2.28009 2.121833,-0.39807 4.72821,-1.18959 5.792253,-1.75893 1.686525,-0.90262 1.258641,-1.34821 -3.341008,-3.4793 -5.334671,-2.4716 -7.136862,-5.64091 -3.207759,-5.64091 1.148838,0 2.067908,-0.68926 2.067908,-1.55081 0,-0.99875 1.012072,-1.55648 2.843179,-1.56668 2.04876,-0.0117 2.439912,-0.27119 1.400097,-0.92955 -2.278919,-1.44308 -0.510725,-4.22135 2.702895,-4.24706 l 2.875611,-0.0234 -2.584494,-1.99851 c -1.421589,-1.09917 -3.478947,-2.13561 -4.571515,-2.30324 -1.092959,-0.16764 -2.178493,-0.88633 -2.412559,-1.59712 -0.300886,-0.91302 1.041378,-1.29702 4.571514,-1.30819 2.748223,-0.008 5.680886,-0.44828 6.516724,-0.97687 1.258642,-0.79606 1.03708,-1.37567 -1.292247,-3.37719 -3.261683,-2.80254 -3.538342,-3.88811 -1.002693,-3.93391 2.189434,-0.0395 7.49558,-4.52478 7.49558,-6.33596 0,-0.71407 1.71466,-3.05411 3.809917,-5.20005 4.197564,-4.29857 4.237814,-6.20505 0.0625,-2.92024 -3.40705,2.6798 -3.872056,2.62303 -3.872056,-0.4729 0,-2.0105 0.716265,-2.74533 3.360156,-3.44729 2.073774,-0.55054 3.616494,-0.50533 4.029534,0.11801 0.86241,1.30182 6.4499,-7.33638 6.74219,-10.42328 0.12114,-1.29256 -0.21492,-2.07928 -0.75143,-1.74831 -0.53574,0.33098 -0.97378,1.29972 -0.97378,2.15267 0,0.85295 -0.42398,1.28892 -0.94173,0.96877 -1.06952,-0.66093 -0.94916,-2.52072 0.29307,-4.50762 1.13125,-1.81173 5.8196,-16.66608 5.8196,-18.43865 0,-0.77387 0.39076,-1.40705 0.86866,-1.40705 0.47751,0 1.49076,-1.97733 2.25118,-4.39404 0.76081,-2.4167 1.96279,-5.09189 2.67163,-5.94484 0.70845,-0.85295 2.26407,-4.10971 3.45746,-7.23725 2.3219,-6.08618 4.83801,-10.03717 5.78756,-9.08762 0.32043,0.32082 -0.57207,3.42733 -1.98467,6.90327 -1.41222,3.47593 -2.14411,6.31993 -1.62635,6.31993 0.51815,0 1.24574,-1.27947 1.61736,-2.84321 0.37122,-1.56375 1.40322,-3.67968 2.29259,-4.70207 0.88938,-1.02243 1.72521,-2.59528 1.85729,-3.49528 0.37122,-2.53964 2.26251,-4.03629 3.5149,-2.7839 0.72877,0.72881 0.42788,1.87151 -0.9558,3.63064 -2.64155,3.35828 -6.37723,14.34386 -4.85834,14.28697 0.62249,-0.0234 2.21406,-2.34953 3.53639,-5.16942 2.75917,-5.88256 4.85169,-6.82121 3.93926,-1.76694 -0.33214,1.8481 -0.2071,5.68639 0.28135,8.52957 0.48806,2.84322 0.94174,4.12265 1.00856,2.84322 0.13676,-2.62154 1.66698,-3.07193 2.91351,-0.85772 0.45485,0.80766 2.14763,1.79898 3.76225,2.20295 2.74197,0.6861 2.92172,0.53831 2.73337,-2.24391 -0.38685,-5.69874 0,-7.6309 1.56852,-7.6309 1.1715,0 1.55054,1.26365 1.55054,5.16942 0,2.84322 0.42437,5.16946 0.9433,5.16946 0.51854,0 1.26137,1.8848 1.65057,4.18845 0.79208,4.68902 2.89906,5.04684 3.42581,0.58173 0.18365,-1.55351 0.99722,-3.07944 1.80922,-3.39103 0.812,-0.31144 1.47629,-1.2146 1.47629,-2.00671 0,-0.79212 0.6979,-1.44023 1.55094,-1.44023 0.86162,0 1.55054,0.91903 1.55054,2.06779 0,1.13727 0.43257,1.95146 0.96127,1.8093 0.52831,-0.14224 1.59821,0.59607 2.37778,1.64049 1.28795,1.72611 1.4169,1.55508 1.4169,-1.87897 0,-4.41341 1.79242,-5.95629 5.91261,-5.08982 2.36762,0.49787 3.02097,0.20632 3.4809,-1.55265 0.31261,-1.19108 0.97729,-2.16556 1.47981,-2.16556 1.63729,0 0.96518,-5.54689 -1.68379,-13.8932 -2.47039,-7.78373 -2.60638,-11.95405 -0.39076,-11.95405 0.55488,0 0.93392,0.58157 0.8417,1.29237 -0.44117,3.39692 0.21101,4.91097 2.1191,4.91097 1.73302,0 1.95419,0.5083 1.46379,3.36015 -0.42515,2.46926 -0.29698,2.95959 0.48024,1.84939 0.8843,-1.26204 1.51655,-1.01629 3.84197,1.49299 2.23906,2.41576 3.0366,4.73536 4.07524,11.84967 1.46614,10.04241 4.28704,22.28175 5.77702,25.06557 1.05857,1.97831 4.03148,2.59731 4.03148,0.83947 0,-0.56863 -0.6979,-1.03391 -1.55093,-1.03391 -0.85303,0 -1.60408,-0.34895 -1.66894,-0.77539 -0.0625,-0.42652 -0.26572,-2.02977 -0.45055,-3.56284 -0.18366,-1.53308 -0.86554,-3.78288 -1.51654,-4.99952 -1.24536,-2.32694 -0.80145,-3.69699 0.86436,-2.66745 0.54159,0.33449 2.30393,3.63666 3.91621,7.33779 2.45163,5.62731 3.25816,6.62559 4.92711,6.09599 1.53647,-0.48775 1.8479,-0.2493 1.35437,1.03685 -0.41069,1.07037 -0.0938,1.67015 0.87765,1.67015 0.83506,0 1.51811,0.43777 1.51811,0.97284 0,1.91738 -1.91082,2.08889 -5.68831,0.51053 -2.11206,-0.8825 -4.10807,-1.33656 -4.43553,-1.00903 -0.32824,0.32746 0.85538,1.1431 2.62826,1.81239 3.53365,1.33371 4.61372,3.41115 4.90835,9.4415 0.21883,4.48109 1.18049,5.35862 6.86528,6.26769 4.30697,0.68867 4.29916,0.68148 3.36563,3.11421 -0.43257,1.12695 -1.95928,1.63565 -4.91109,1.63615 -3.85954,6.3e-4 -4.29837,0.26103 -4.43553,2.63186 -0.12113,2.13054 0.42203,2.74588 2.86506,3.23444 1.65918,0.33176 3.2992,1.06053 3.64463,1.61932 0.90501,1.46488 -1.8272,2.969 -4.54807,2.50341 -2.65717,-0.45465 -2.74587,-0.29424 -1.20276,2.17619 0.95111,1.52287 2.23398,1.71649 8.35916,1.26138 3.97991,-0.29581 7.43931,-0.20867 7.68745,0.19303 0.25008,0.40182 1.80883,0.25751 3.46761,-0.32081 3.62392,-1.2633 3.20268,-3.37532 -1.11914,-5.6102 -4.26633,-2.20612 -3.69816,-3.26055 2.19413,-4.07087 2.84356,-0.39111 4.93687,-1.08898 4.65123,-1.55082 -0.28526,-0.4618 -1.44895,-0.59645 -2.58567,-0.29932 -1.15509,0.30206 -2.06674,0.0313 -2.06674,-0.614 0,-0.63495 -0.6979,-1.15447 -1.55093,-1.15447 -0.85264,0 -1.55054,-0.46524 -1.55054,-1.03387 0,-0.56868 0.6979,-1.03392 1.55054,-1.03392 0.85303,0 1.55093,-0.46524 1.55093,-1.03387 0,-0.56864 -0.96283,-1.03388 -2.1398,-1.03388 -3.47778,0 -2.191,-4.3963 1.62283,-5.54521 5.03222,-1.5158 7.90001,-3.07314 11.01985,-5.98392 3.44691,-3.2162 3.75873,-5.01312 0.86984,-5.01312 -2.6732,0 -2.66031,-2.56929 0.0391,-4.44854 1.8483,-1.29459 1.9077,-1.61564 0.51385,-2.77257 -1.36805,-1.13543 -1.13203,-1.55902 1.78656,-3.20396 1.84987,-1.04259 4.19639,-2.20671 5.21393,-2.58696 1.01793,-0.38021 2.58137,-2.1037 3.47387,-3.82993 1.54819,-2.99413 1.51537,-3.21991 -0.71979,-4.90573 -1.73029,-1.3053 -2.12261,-2.27458 -1.50013,-3.70875 0.46344,-1.06788 0.78504,-2.24055 0.71509,-2.60599 -0.0703,-0.36536 1.11328,-1.99378 2.62905,-3.6186 2.03742,-2.18409 2.80644,-4.16712 2.95024,-7.60672 0.23837,-5.72527 2.08354,-10.71268 3.61298,-9.7675 0.61897,0.38255 0.89328,1.58422 0.60959,2.67003 -0.55019,2.10405 1.97842,8.13135 3.41134,8.13135 0.47087,0 1.80844,-1.61427 2.97252,-3.58731 l 2.11675,-3.5873 -3.80093,-3.13297 c -4.49219,-3.70281 -5.22643,-3.76342 -12.90332,-1.06521 -3.2355,1.13731 -6.82504,2.06779 -7.97661,2.06779 -2.38052,0 -2.77636,-1.55746 -0.70923,-2.79183 0.76159,-0.45473 1.89089,-2.3121 2.51025,-4.1275 0.91751,-2.69035 0.65999,-5.17586 -1.39228,-13.44058 -1.38525,-5.5769 -2.42507,-11.57161 -2.31097,-13.32163 0.21492,-3.32182 -1.94677,-9.74179 -3.28239,-9.74179 -0.42476,0 -1.53843,-2.73181 -2.47547,-6.07067 -2.2715,-8.09568 -10.45716,-19.40985 -16.19431,-22.38354 -2.95025,-1.52913 -3.46527,-5.26129 -1.1168,-8.090439 0.78035,-0.940093 0.95385,-1.709229 0.38685,-1.709229 -0.56894,0 -1.61306,0.697861 -2.32112,1.550814 -0.70767,0.852954 -2.74197,1.553901 -4.52071,1.557652 -1.77836,0.0039 -4.62935,0.931184 -6.33502,2.060953 -1.70607,1.129807 -3.68332,2.057239 -4.39411,2.060989 -1.98624,0.0117 -1.53218,-2.894874 0.51697,-3.308064 1.7217,-0.346996 1.7217,-0.39928 0.002,-1.076587 -1.24067,-0.48849 -2.79199,0.250478 -4.94665,2.356798 -3.40861,3.332333 -7.20329,4.082943 -7.20329,1.42495 0,-0.903948 1.04685,-2.556907 2.3262,-3.673233 l 2.3262,-2.029692 -2.4825,0.690905 c -2.03899,0.567424 -2.36332,0.380211 -1.81587,-1.046849 0.52714,-1.373135 0.23446,-1.600597 -1.39267,-1.084089 -1.13243,0.359501 -3.45785,0.693406 -5.16704,0.742017 -1.70918,0.04845 -3.62782,0.715366 -4.26398,1.481727 -0.63577,0.766361 -2.06048,1.393376 -3.16556,1.393376 -1.10468,0 -3.0112,0.536437 -4.23624,1.192095 -1.22543,0.655619 -4.31205,1.36571 -6.85942,1.577933 -2.54776,0.212183 -5.41478,1.094131 -6.37097,1.959783 -2.07338,1.87612 -7.1521,0.98437 -7.1521,-1.255749 0,-1.879366 3.08467,-3.106942 4.01702,-1.598604 0.46501,0.752606 1.75335,0.255949 3.77241,-1.454843 2.73259,-2.314869 2.78535,-2.460349 0.48494,-1.336051 -1.42003,0.693913 -4.90953,1.205615 -7.75427,1.137193 -2.84474,-0.06838 -4.59105,0.125043 -3.88026,0.429993 2.20741,0.947049 1.41729,2.723684 -0.93782,2.107883 -1.23481,-0.323159 -4.08971,0.315345 -6.39715,1.430228 -2.29221,1.10741 -4.73915,2.01347 -5.43823,2.01347 -0.69868,0 -1.45324,0.54894 -1.67675,1.21988 -0.23446,0.70165 -1.17697,0.92438 -2.21953,0.52424 -1.11249,-0.4269 -1.51107,-1.19772 -1.032,-1.9953 0.53886,-0.89684 0.23837,-0.85987 -0.9683,0.11918 -0.96206,0.78043 -1.74944,2.23824 -1.74944,3.23953 0,1.00136 -0.81395,2.1078 -1.80922,2.45883 -0.99527,0.3509 -2.39068,0.9093 -3.10147,1.24062 -0.74362,0.34661 -1.29264,-0.093 -1.29264,-1.03458 0,-0.90031 0.54276,-1.63697 1.20628,-1.63697 0.66351,0 0.93704,-0.26885 0.60841,-0.59787 -0.32824,-0.32863 -1.91864,0.11762 -3.53248,0.9925 -1.61423,0.87472 -2.35316,1.60899 -1.64237,1.63174 1.81626,0.0582 1.62244,3.14308 -0.19929,3.14308 -0.81942,0 -1.77718,-0.46524 -2.12886,-1.03391 -0.88703,-1.43527 -1.86511,-1.29694 -4.19639,0.59364 -1.1039,0.89512 -1.42549,1.33293 -0.7147,0.97288 0.7612,-0.38568 1.29264,0.008 1.29264,0.95721 0,0.88652 -0.19538,1.61185 -0.43257,1.61185 -0.23837,0 -1.17346,0.28447 -2.07924,0.63206 -1.23872,0.47532 -1.47747,0.18913 -0.96206,-1.15416 0.57481,-1.49731 0.36732,-1.61278 -1.28052,-0.71392 -3.90957,2.13223 -17.291186,12.60877 -16.105617,12.60877 2.256646,0 1.192994,1.53569 -3.200334,4.62103 -2.404744,1.68859 -6.844181,5.0709 -9.865546,7.51625 -3.021366,2.44534 -5.887599,4.20244 -6.369407,3.90464 -1.189868,-0.73553 -7.427979,7.88716 -6.830896,9.44262 0.26181,0.68184 -0.596692,2.32183 -1.906914,3.6444 -1.310613,1.32257 -2.733765,3.52814 -3.162821,4.90124 -0.483371,1.54675 1.638852,-0.31417 5.578506,-4.89155 3.497313,-4.06349 7.365066,-7.92675 8.595182,-8.5851 1.230117,-0.65835 5.054105,-3.5816 8.497883,-6.49617 9.554501,-8.0861 12.853306,-10.1923 14.796171,-9.44673 1.45832,0.55965 1.200809,1.09093 -1.587663,3.27313 -1.830716,1.43277 -3.328503,3.26915 -3.328503,4.08092 0,0.81173 -0.581453,1.48645 -1.292247,1.49939 -0.710795,0.0117 -2.04329,1.52494 -2.960797,3.36011 -1.085926,2.17185 -2.294941,3.2223 -3.463707,3.00906 -1.043332,-0.1903 -1.515372,0.12583 -1.127346,0.75405 1.02184,1.65343 -1.31921,5.26234 -2.996357,4.6188 -1.755299,-0.67352 -5.735592,7.33298 -5.735592,11.53707 0,1.82286 -0.658041,2.91034 -1.969045,3.25308 -3.734504,0.97663 -5.71918,15.23492 -2.560267,18.39387 0.920633,0.92067 1.321945,2.0007 0.892108,2.4001 -0.429838,0.39939 -0.989017,0.14458 -1.243012,-0.56618 -0.253994,-0.71079 -1.062479,-1.29236 -1.79711,-1.29236 -1.498178,0 -2.981117,-5.76779 -1.954587,-7.60187 0.451719,-0.80688 0.304793,-0.85557 -0.455628,-0.1524 -1.123829,1.03771 -1.698248,8.12401 -1.407522,17.35675 0.14849,4.7467 0.273533,4.9379 2.988151,4.65252 2.740799,-0.28799 2.834191,-0.13168 2.901011,4.87182 0.03908,2.84321 -0.422413,5.55381 -1.022622,6.02358 -0.746745,0.58427 -0.683441,1.01981 0.199288,1.37853 1.636117,0.66374 1.707626,5.52153 0.08206,5.52153 -0.666248,0 -2.017109,-0.72943 -3.002218,-1.62095 -1.677538,-1.51807 -1.79164,-1.27205 -1.80219,3.87709 0,3.0239 -0.907348,8.79244 -2.003433,12.81896 l -1.9921,7.32095 2.353945,-0.45 c 2.076505,-0.39694 2.232418,-0.76988 1.322336,-3.16388 -0.709623,-1.86608 -0.688521,-2.82829 0.06643,-3.08006 0.604117,-0.20124 1.09843,-1.62107 1.09843,-3.15496 0,-2.16076 0.711966,-3.05748 3.160085,-3.98163 3.851733,-1.45386 4.867712,0.11137 3.369143,5.19158 -0.809657,2.74451 -1.446989,3.26864 -3.775144,3.10417 -1.540771,-0.10903 -2.530569,0.23992 -2.199594,0.77542 0.332147,0.53531 1.271927,0.97331 2.091353,0.97331 0.819426,0 1.489973,0.46524 1.489973,1.03388 0,0.56863 -0.714312,1.03387 -1.587272,1.03387 -1.286777,0 -1.369618,0.40678 -0.437262,2.14856 0.632252,1.18174 0.910474,2.77159 0.618575,3.53307 -0.293071,0.76148 0.242272,1.68062 1.183616,2.04263 1.477858,0.56703 1.50443,0.79019 0.191472,1.61278 -0.83701,0.52507 -2.394193,0.68282 -3.46058,0.35052 -1.263331,-0.39373 -1.692387,-0.20554 -1.231289,0.54054 0.390762,0.62955 2.215225,1.14465 4.058446,1.14465 1.842829,0 3.918162,0.56758 4.612153,1.2613 0.992143,0.9925 0.320425,1.48829 -3.153442,2.32624 -2.609894,0.62964 -4.414819,1.66175 -4.414819,2.52494 0,2.6367 6.077898,9.2975 8.529534,9.34799 3.928712,0.0809 2.57707,2.05105 -1.897927,2.76665 -4.816522,0.77023 -6.241628,2.89374 -3.401185,5.06805 1.869401,1.4307 1.854552,1.50795 -0.409127,2.14438 -1.855334,0.52175 -2.09995,0.95901 -1.16564,2.08475 0.650226,0.78352 1.823291,1.42456 2.606767,1.42456 0.783085,0 1.423934,0.46524 1.423934,1.03392 0,0.56863 -0.465006,1.03387 -1.033954,1.03387 -1.650575,0 -5.305755,4.1119 -4.628957,5.20713 0.339962,0.54793 2.216397,0.99621 4.173329,0.99621 4.556666,0 4.561355,1.75381 0,3.65568 -1.951461,0.81533 -3.799761,1.88984 -4.107681,2.38779 -0.85733,1.38728 0.633424,2.37423 2.432097,1.6099 0.882339,-0.37513 2.65405,-0.90962 3.936919,-1.18772 z m -2.187872,-48.53857 c -1.164468,-1.16436 -0.709232,-2.38427 0.889763,-2.38427 0.852641,0 1.55054,0.43777 1.55054,0.97284 0,1.30373 -1.614234,2.23746 -2.440303,1.41143 z M 205.75448,231.87186 c -0.87531,-2.28181 -0.23055,-2.66663 3.00925,-1.79977 3.52662,0.94318 3.66886,2.70985 0.254,3.13672 -1.67989,0.20984 -2.85217,-0.27041 -3.26169,-1.33695 z m 0.65062,-6.74493 c 0,-0.56864 0.6979,-1.03388 1.55093,-1.03388 0.85303,0 1.55093,0.46524 1.55093,1.03388 0,0.56864 -0.6979,1.03391 -1.55093,1.03391 -0.85303,0 -1.55093,-0.46527 -1.55093,-1.03391 z M 64.327466,221.96802 c -2.282045,-2.30092 -1.364929,-4.03317 1.259814,-2.38009 1.843611,1.16095 3.046374,4.54975 1.577112,4.4437 -0.468132,-0.0352 -1.744749,-0.96245 -2.836926,-2.06361 z m 136.391274,-8.21384 c -0.35168,-0.56864 -0.14458,-1.03392 0.45602,-1.03392 0.60216,0 1.09491,0.46528 1.09491,1.03392 0,0.56863 -0.2071,1.03387 -0.45602,1.03387 -0.25008,0 -0.74322,-0.46524 -1.09491,-1.03387 z m -3.01589,-5.0307 c -0.44547,-0.72064 -0.53066,-1.58942 -0.18757,-1.93071 0.92532,-0.92528 1.93388,0.43558 1.43448,1.93489 -0.35168,1.0506 -0.59395,1.04978 -1.24535,-0.004 z m -6.0951,-7.00983 c -1.31803,-1.31788 -0.72369,-4.50172 0.84014,-4.50172 0.85264,0 1.55054,0.6979 1.55054,1.55085 0,0.85296 0.0391,1.88812 0.0782,2.30041 0.10942,1.05189 -1.61345,1.50568 -2.46844,0.65046 z M 65.129308,195.64256 c -0.692429,-1.8036 1.501304,-7.73563 2.860371,-7.73563 1.034345,0 1.225037,5.20838 0.281348,7.66963 -0.795198,2.07251 -2.358634,2.10534 -3.140938,0.066 z m 77.691912,0.53549 c -1.97334,-0.84783 -1.96123,-0.89187 0.25791,-0.96123 1.27935,-0.0399 2.3262,0.3926 2.3262,0.96123 0,0.56864 -0.11723,1.00117 -0.2579,0.96124 -0.14068,-0.0399 -1.18909,-0.47251 -2.32621,-0.96124 z m 47.68068,-1.11949 c -1.36845,-4.33401 -1.47083,-9.21938 -0.19147,-9.21938 1.61501,0 2.98189,8.3388 1.59626,9.73636 -0.56895,0.57356 -1.12344,0.36927 -1.40323,-0.51698 z m -48.71463,-3.01605 c -0.84326,-1.36426 0.39311,-3.30025 1.62205,-2.54057 1.25591,0.77609 1.2477,3.57445 0,3.57445 -0.53534,0 -1.2606,-0.46524 -1.61189,-1.03388 z m 46.50995,-9.35216 c -0.39076,-1.22582 -0.20319,-2.73248 0.41187,-3.34816 1.38993,-1.38998 1.8862,-0.91063 2.34535,2.26532 0.4564,3.1613 -1.81431,4.05325 -2.75722,1.08284 z M 68.897808,170.33085 c 0,-0.56864 0.465397,-1.03392 1.033954,-1.03392 0.568558,0 1.033954,0.46528 1.033954,1.03392 0,0.56863 -0.465396,1.03387 -1.033954,1.03387 -0.568557,0 -1.033954,-0.46524 -1.033954,-1.03387 z m 22.745816,-46.525 c 0,-0.56864 0.465006,-1.03392 1.033954,-1.03392 0.568557,0 1.033563,0.46528 1.033563,1.03392 0,0.56863 -0.465006,1.03387 -1.033563,1.03387 -0.568948,0 -1.033954,-0.46524 -1.033954,-1.03387 z m 34.635116,-15.50834 c -0.35168,-0.56863 0.086,-1.03391 0.973,-1.03391 0.88663,0 1.61189,0.46528 1.61189,1.03391 0,0.56864 -0.43805,1.03388 -0.973,1.03388 -0.53495,0 -1.2602,-0.46524 -1.61189,-1.03388 z m 13.9576,-4.53193 c 0,-1.44792 4.09049,-3.09506 5.12249,-2.06282 0.61037,0.61005 -2.92759,3.49309 -4.28626,3.49309 -0.45993,0 -0.83623,-0.64362 -0.83623,-1.43027 z M 84.406337,292.3297 c 0,-0.56863 -0.465397,-1.03387 -1.033954,-1.03387 -0.568558,0 -1.033954,0.46524 -1.033954,1.03387 0,0.56864 0.465396,1.03388 1.033954,1.03388 0.568557,0 1.033954,-0.46524 1.033954,-1.03388 z m 138.386893,-4.13554 c 0.19929,-1.42163 0.89719,-2.92657 1.55093,-3.34433 0.75378,-0.48189 0.50095,-0.76538 -0.69087,-0.77542 -1.36102,-0.0117 -1.71036,-0.54773 -1.26684,-1.94514 0.52127,-1.64162 0.18365,-1.84802 -2.25665,-1.38419 -2.64194,0.50209 -2.74979,0.40096 -1.36024,-1.28005 0.82959,-1.00383 2.54542,-2.21949 3.81266,-2.70141 1.90457,-0.72405 2.29494,-1.64796 2.24922,-5.32022 -0.0391,-2.44417 -0.58341,-4.78581 -1.22816,-5.20357 -2.20859,-1.43036 -10.80181,-0.80573 -14.00606,1.01805 -3.85954,2.1967 -3.97873,2.93856 -0.60724,3.78472 2.03391,0.51049 2.5845,1.30549 2.5845,3.73067 0,2.90234 -0.23837,3.08198 -4.103,3.08198 -3.22221,0 -3.97521,0.33292 -3.50786,1.55085 0.39076,1.0175 -0.0664,1.59208 -1.32507,1.67074 -1.41612,0.0883 -1.50248,0.23289 -0.32824,0.5507 1.0531,0.28525 1.64628,1.81704 1.75452,4.53259 0.13676,3.43131 -0.16412,4.10178 -1.84947,4.10178 -1.10742,0 -2.01399,0.34895 -2.01555,0.77543 -7.8e-4,0.42648 5.00018,0.54281 11.11442,0.25829 10.90849,-0.50728 11.12341,-0.56539 11.47939,-3.10166 z m 60.11977,0.20085 4.6524,-2.03817 -2.91038,-1.14919 c -1.60095,-0.63205 -3.81071,-1.14919 -4.91109,-1.14919 -3.07998,0 -2.38364,-1.34273 1.87956,-3.62403 2.13082,-1.14028 3.88026,-2.85213 3.88729,-3.80414 0,-0.95197 0.37513,-2.09483 0.82216,-2.53968 0.44469,-0.44484 -0.2579,-1.6374 -1.56421,-2.6501 -1.85612,-1.44042 -2.0726,-2.03669 -0.99371,-2.73888 1.08866,-0.70845 0.97964,-1.06713 -0.51698,-1.702 -1.04255,-0.44242 -2.72673,-0.89586 -3.74192,-1.0077 -3.70403,-0.40794 -4.39411,-2.40531 -1.7893,-5.17815 2.83732,-3.02012 2.57121,-3.51967 -2.29455,-4.30928 -2.93305,-0.47591 -4.42537,0.0117 -8.03756,2.62897 l -4.43593,3.21334 h 4.29056 c 5.15023,0 5.49801,1.39052 0.93744,3.74871 -3.05927,1.582 -3.17259,1.80462 -1.29225,2.53862 1.1336,0.4425 3.22417,0.85206 4.64576,0.91009 2.49775,0.10198 2.51728,0.15669 0.57755,1.62349 -1.74983,1.32366 -1.78305,1.51799 -0.25791,1.51799 3.00652,0 1.91473,1.78019 -2.06478,3.3675 l -3.81305,1.52092 2.5208,1.38044 c 1.38642,0.75925 3.56765,1.25443 4.84701,1.10043 2.76385,-0.33254 3.07372,1.39759 0.51697,2.88678 -1.00425,0.58482 -1.23402,1.0678 -0.51697,1.08526 2.36644,0.0575 1.33366,1.70755 -2.00656,3.20499 -1.81431,0.81341 -3.50513,2.13207 -3.75756,2.93032 -0.64984,2.05458 9.19422,0.9195 15.3276,-1.76734 z m -164.38852,-0.20085 c 0,-0.56867 -0.43765,-1.03391 -0.97261,-1.03391 -0.53534,0 -1.26059,0.46524 -1.61189,1.03391 -0.35168,0.56864 0.086,1.03388 0.973,1.03388 0.88625,0 1.6115,-0.46524 1.6115,-1.03388 z m 11.65797,-16.7479 c 2.27383,-0.8725 2.73259,-1.55543 2.20975,-3.29084 -1.07694,-3.57603 -1.73615,-3.74043 -7.67533,-1.91391 -4.79386,1.4743 -5.23346,1.79985 -2.83224,2.09577 3.43948,0.42378 3.70598,1.80317 0.51698,2.67707 -1.93778,0.53112 -2.06713,0.80614 -0.77527,1.64784 1.5732,1.02485 3.38712,0.76702 8.55611,-1.21593 z m 93.71116,-9.09933 c 0.42749,0 0.77683,-0.69982 0.77683,-1.55511 0,-1.57321 0,-1.58075 -4.82472,2.48426 -0.28526,0.23876 0.33605,0.12739 1.37704,-0.24735 1.04138,-0.37513 2.24336,-0.68168 2.67085,-0.68168 z m 95.38949,-1.71751 c 1.04411,-0.94463 2.9139,-2.22406 4.15535,-2.84318 2.20311,-1.09874 7.03331,-11.52206 7.03331,-15.17759 0,-0.94612 0.64632,-2.25645 1.43605,-2.91192 0.89289,-0.74112 1.59352,-3.9817 1.85299,-8.57095 0.30479,-5.36832 0.87647,-7.66912 2.10268,-8.44275 1.55445,-0.98038 1.55093,-1.17385 -0.043,-2.47637 -1.11211,-0.90852 -1.31843,-1.5884 -0.57755,-1.90437 0.63382,-0.27041 0.99488,-1.84197 0.80263,-3.49267 -0.26181,-2.26215 0.15239,-3.16071 1.69121,-3.64885 2.43327,-0.77226 2.53096,-1.52256 0.54511,-4.18774 -1.34187,-1.80153 -1.26255,-2.18975 0.77566,-3.79324 1.90575,-1.49943 1.98585,-1.79 0.49744,-1.8093 -0.97495,-0.0117 -2.23828,-0.89281 -2.80723,-1.95592 -0.56894,-1.0631 -2.91156,-2.40939 -5.20572,-2.99174 -3.98381,-1.01118 -4.17137,-0.95026 -4.17137,1.35496 0,1.32757 -0.47282,2.70602 -1.05076,3.06318 -0.57793,0.35715 -0.77058,1.10288 -0.42788,1.65714 0.34387,0.55425 0.17975,1.56894 -0.3595,2.25481 -0.77136,0.97803 -2.54855,30.64157 -2.4235,40.45061 0,1.09097 -1.34735,3.71681 -3.02527,5.8352 -1.67793,2.11836 -3.05068,4.30806 -3.05068,4.86595 0,1.31824 -5.26003,2.35981 -8.12861,1.60963 -1.33953,-0.35052 -2.46101,-1.67191 -2.80332,-3.30354 -0.31261,-1.49583 -0.78504,-3.77604 -1.04763,-5.06711 -0.26181,-1.29112 0.0391,-3.30713 0.66429,-4.48004 1.42081,-2.65514 -1.24535,-6.09611 -4.72352,-6.09611 -1.98663,0 -2.24609,0.49553 -2.03117,3.87705 0.44234,6.96106 1.69668,11.46345 3.69816,13.27475 1.08084,0.97827 1.96514,2.31139 1.96514,2.96247 0,2.40659 2.61732,3.66515 7.62101,3.66515 3.33945,0 5.80476,-0.60158 7.03761,-1.71751 z m -189.38552,-1.38416 c 1.19221,-2.22792 4.13543,-2.8411 4.13543,-0.86155 0,2.13215 1.48137,-0.19342 2.65483,-4.16782 l 1.13946,-3.85829 -4.22335,0.14497 c -9.10278,0.31222 -9.9859,0.50162 -10.64238,2.28095 -0.36731,0.99511 -1.16681,2.1511 -1.77679,2.56886 -0.74557,0.51061 -0.68579,0.7648 0.18366,0.77543 2.63529,0.0313 1.1883,2.08799 -1.55054,2.20354 -1.74944,0.0738 -2.14724,0.30167 -1.03396,0.59275 0.99488,0.26024 1.80923,0.90394 1.80923,1.43088 0,0.52699 1.84478,0.95811 4.09908,0.95811 3.0413,0 4.38512,-0.53378 5.20611,-2.06779 z m 143.19364,-7.62195 c 2.58371,-1.10417 3.10147,-1.91586 3.10147,-4.86431 0,-2.27982 0.45993,-3.44702 1.29225,-3.28052 0.71079,0.14224 1.29264,-0.65746 1.29264,-1.77687 0,-1.38443 -0.49627,-1.84502 -1.55093,-1.44023 -2.1148,0.81146 -1.96006,-0.64976 0.23836,-2.25762 1.5904,-1.16279 1.50013,-1.25329 -0.80809,-0.812 -2.06674,0.39506 -2.63061,0.0586 -2.75917,-1.64667 -0.0899,-1.17877 0.6854,-2.59641 1.72052,-3.15028 2.4872,-1.33116 3.84705,-4.65158 1.54273,-3.76732 -0.90149,0.34582 -2.41491,-0.14654 -3.3625,-1.09418 -1.25395,-1.25379 -1.37353,-1.83978 -0.44,-2.15098 0.70572,-0.23524 1.28287,-1.11425 1.28287,-1.95341 0,-0.83912 0.4654,-1.23813 1.03395,-0.88672 0.56856,0.3513 1.03396,-0.3466 1.03396,-1.55081 0,-1.20773 -0.46735,-1.90106 -1.04177,-1.54593 -0.57325,0.35403 -1.76976,-0.084 -2.65952,-0.97382 -1.07381,-1.07381 -2.51181,-1.3933 -4.27688,-0.95029 -2.43249,0.61049 -2.61458,0.43437 -2.13629,-2.06685 0.28916,-1.50381 0.15239,-2.73424 -0.30089,-2.73424 -1.68457,0 -1.4634,5.78448 0.32433,8.45455 1.8018,2.69231 1.79555,2.78628 -0.23055,3.42979 -2.32346,0.73744 -2.70016,2.08764 -0.89406,3.20385 0.82295,0.50881 0.59474,1.17131 -0.74049,2.14762 -1.73889,1.27154 -1.60017,1.34575 1.39424,0.74686 4.87005,-0.97401 4.20224,1.31542 -0.82295,2.82095 -2.28126,0.68352 -4.66451,1.8653 -5.29598,2.62623 -0.93119,1.12191 -0.23446,1.38349 3.69191,1.38349 3.20619,0 4.60707,0.37747 4.1491,1.11804 -0.42945,0.6952 0.11723,0.98847 1.44308,0.77543 4.06548,-0.65277 2.72087,1.73705 -2.42467,4.30986 -6.21779,3.10874 -7.11068,5.16946 -2.24024,5.16946 4.09323,0 5.228,0.85311 3.65518,2.74806 -1.49778,1.80485 0.52206,1.79172 4.78839,-0.0313 z M 138.9355,246.08818 c 0.23054,-0.69274 -0.41929,-0.94435 -1.62518,-0.62897 -1.10546,0.28916 -2.31409,0.0352 -2.68609,-0.56801 -0.66273,-1.07213 1.4251,-1.83103 6.64606,-2.41565 2.15857,-0.24188 2.59036,-0.84318 2.61967,-3.64959 0.0391,-2.06435 -0.47673,-3.36012 -1.29225,-3.36012 -0.73033,0 -1.32742,0.8775 -1.32742,1.94998 0,2.6535 -5.80163,5.25777 -12.04599,5.40716 -2.75721,0.066 -4.17958,0.33644 -3.16087,0.60103 1.33172,0.34582 1.66386,1.07475 1.18166,2.59426 -0.41616,1.31116 -0.27353,1.86706 0.37904,1.46473 0.57716,-0.35677 2.12574,-0.25009 3.44183,0.2368 2.74744,1.01625 7.30254,0.0719 7.87032,-1.63154 z m 106.72468,-23.44774 c 0,-0.5146 -0.88664,-0.10355 -2.01047,0.9136 -1.12383,1.01711 -1.77718,2.28017 -1.45167,2.80684 0.60489,0.97862 3.40274,-2.02794 3.46214,-3.72044 z M 62.639378,207.18255 c -0.995269,-0.91754 -1.132817,-0.75811 -0.613886,0.71131 0.367316,1.04161 0.723299,2.43737 0.788947,3.10166 0.06643,0.6643 0.34387,0.34426 0.613886,-0.7113 0.273532,-1.05552 -0.08206,-2.45128 -0.788947,-3.10167 z M 341.67605,191.09331 c -8.40136,-2.26688 -28.40755,-12.09605 -29.28754,-14.38942 -0.55293,-1.44074 -0.76629,-1.45954 -1.60017,-0.14068 -1.18283,1.86983 -1.28209,3.37251 -0.17584,2.69016 0.44898,-0.27744 2.60872,1.51615 4.79893,3.98588 2.35082,2.6503 4.57386,4.26352 5.42533,3.93676 0.79364,-0.3044 2.23985,0.16568 3.21362,1.04494 2.49579,2.25289 12.33789,4.49965 20.38093,4.65252 3.70559,0.0703 3.41955,-0.1145 -2.7533,-1.78008 z m -83.0594,-2.15246 c 0.35168,-0.56864 0.14458,-1.03392 -0.45602,-1.03392 -0.60216,0 -1.09491,0.46528 -1.09491,1.03392 0,0.56863 0.2071,1.03387 0.45601,1.03387 0.25009,0 0.74323,-0.46524 1.09492,-1.03387 z m 76.80019,-4.95603 c -1.83345,-0.36341 -3.33749,-5.42466 -2.7025,-9.09281 0.24227,-1.3944 -0.34387,-2.07374 -1.9839,-2.30682 -3.13429,-0.44516 -2.95923,-3.09007 0.25791,-3.89757 3.04989,-0.76546 2.9522,-0.32668 1.07498,-4.81949 -0.83037,-1.98745 -1.218,-3.90527 -0.86163,-4.2618 0.35559,-0.35638 -0.3595,-0.64827 -1.59196,-0.64827 -1.23207,0 -2.23984,-0.45637 -2.23984,-1.01419 0,-1.0048 2.32268,-1.75623 7.15601,-2.31498 4.69851,-0.54316 3.71614,-2.87417 -1.21136,-2.87417 -5.16743,0 -6.44561,-0.73549 -4.7751,-2.74806 0.89953,-1.08398 0.68774,-1.38748 -0.96714,-1.38748 -1.31452,0 -2.6982,-1.16119 -3.64463,-3.05864 -1.66581,-3.33949 -1.1293,-4.29052 3.81071,-6.75349 1.57828,-0.78668 2.216,-2.06345 2.216,-4.4344 0,-2.77721 -0.39115,-3.32959 -2.35863,-3.32959 -2.42702,0 -4.57347,-3.20339 -2.58958,-3.86467 0.61076,-0.20359 0.88117,-1.24602 0.60099,-2.31671 -0.32042,-1.22863 -1.08748,-1.72466 -2.07728,-1.34484 -1.20042,0.46063 -1.40909,0.10043 -0.88976,-1.53538 0.37122,-1.17545 0.18756,-2.44108 -0.4146,-2.81254 -1.61541,-0.99847 -0.22664,-2.60032 2.25664,-2.60032 1.8061,0 1.58454,-0.39748 -1.35359,-2.4278 -1.93193,-1.33531 -3.37423,-3.03109 -3.20464,-3.76842 0.16803,-0.73729 -0.88351,-2.58485 -2.34065,-4.10565 -1.45715,-1.5208 -2.33519,-3.07893 -1.95186,-3.4625 0.93431,-0.93399 -2.68218,-4.84563 -4.47968,-4.84563 -0.7827,0 -1.69083,-0.69786 -2.01789,-1.550813 -0.68227,-1.777495 -4.50978,-2.129571 -4.50978,-0.414793 0,0.624788 1.37978,2.424594 3.06552,3.999518 1.68614,1.574928 2.77167,3.157308 2.41256,3.516458 -0.3595,0.35911 -2.78534,0.63819 -5.39172,0.6201 -4.62427,-0.0313 -8.35721,-1.73611 -8.35721,-3.81481 0,-0.569256 -1.21253,-0.803205 -2.69469,-0.519903 -1.5986,0.305573 -3.03348,-0.03126 -3.52779,-0.832634 -0.45797,-0.741235 -2.26954,-1.347735 -4.02562,-1.347735 -1.75569,0 -3.19252,-0.387635 -3.19252,-0.861589 0,-1.992843 -2.98619,-0.66277 -3.28825,1.46469 -0.24618,1.721576 0.47594,2.730521 2.77127,3.881471 3.82165,1.91617 3.67472,4.57538 -0.46422,8.41797 -1.62088,1.50478 -3.25778,3.71469 -3.6372,4.91097 -0.72174,2.27356 -3.07217,2.91684 -4.16982,1.1411 -0.35168,-0.56864 -0.22664,-1.03388 0.27354,-1.03388 0.50291,0 0.92727,-1.51205 0.94329,-3.36011 0,-1.84811 0.36732,-4.3387 0.77879,-5.5347 0.53886,-1.56278 0.0391,-3.01664 -1.82524,-5.16782 -2.56535,-2.982602 -2.62045,-2.993856 -15.33074,-3.143869 l -12.756,-0.150443 11.37271,0.719704 c 11.84905,0.749832 15.46593,1.873858 16.49872,5.126908 0.84599,2.66647 -0.98003,7.01982 -3.51334,8.37573 -1.15782,0.61963 -2.3938,2.2763 -2.74627,3.68147 -0.35168,1.40518 -0.97612,2.55488 -1.38564,2.55488 -1.19807,0 -3.16711,10.01228 -3.16711,16.10416 0,3.08412 -0.4654,5.6075 -1.03396,5.6075 -0.56856,0 -1.03395,-0.85932 -1.03395,-1.90957 0,-1.05029 -0.87687,-2.92086 -1.94873,-4.15684 -1.5904,-1.83357 -2.05775,-1.96392 -2.53956,-0.70821 -0.32433,0.84643 -0.21491,1.76987 0.23837,2.05216 0.4568,0.28213 0.8714,1.95611 0.9218,3.71969 0.0508,1.76359 0.39077,4.57167 0.7573,6.24018 0.51776,2.35645 0.30089,3.03372 -0.96674,3.03372 -0.89797,0 -1.68653,-0.81419 -1.75179,-1.8093 -1.18322,-18.00085 -1.37821,-34.48073 -0.44273,-37.47849 0.44352,-1.42159 1.56539,-3.4537 2.49306,-4.51583 1.63846,-1.87527 1.33562,-1.91528 -10.46107,-1.38314 -6.68162,0.30128 -12.14798,0.16685 -12.14798,-0.29932 0,-0.46603 -2.3684,-0.7816 -5.26316,-0.70126 -5.08302,0.14106 -5.18032,0.19928 -2.84318,1.69652 1.33093,0.85276 4.63872,3.93446 7.35061,6.84821 4.07056,4.3736 5.40149,5.20771 7.63039,4.78163 1.99015,-0.3806 2.57551,-0.13794 2.22578,0.92255 -0.26181,0.79129 -1.51186,1.59094 -2.78027,1.77698 -1.8651,0.27354 -2.07221,0.61924 -1.08475,1.8093 0.92063,1.1091 0.92884,1.82287 0.0391,2.90113 -0.91946,1.10793 -0.80731,1.57571 0.49783,2.07647 0.92611,0.35559 1.4552,1.24356 1.17502,1.97338 -0.28135,0.72983 0.12114,2.19018 0.89367,3.24523 0.77136,1.0551 1.1379,2.34637 0.81474,2.86948 -0.32433,0.52315 0.41577,1.21363 1.64237,1.5344 1.47981,0.38685 2.02492,1.11855 1.62009,2.174 -0.33605,0.87495 -0.086,1.91457 0.55371,2.3103 0.84952,0.52499 0.80849,1.28861 -0.15239,2.82442 -1.09687,1.75659 -1.02341,2.54944 0.44546,4.79108 0.96792,1.47739 2.19803,2.68613 2.73377,2.68613 2.20936,0 3.08428,3.87815 1.56265,6.92793 -0.82763,1.65878 -1.63103,4.15164 -1.78578,5.5397 -0.23836,2.13656 0.11723,2.48157 2.30354,2.24859 3.73294,-0.39736 7.40297,-3.41509 10.16409,-8.35763 1.94091,-3.47418 2.51142,-6.375 2.92954,-14.8998 0.46266,-9.43634 2.61301,-18.33991 4.42888,-18.33991 1.17971,0 3.3543,6.36362 2.84318,8.3193 -0.28916,1.11078 -0.10551,2.01961 0.41264,2.01961 0.51776,0 0.82295,1.50006 0.67876,3.33347 -0.18366,2.34734 0.19538,3.37125 1.28834,3.46117 3.61024,0.29698 4.13542,0.50002 4.13542,1.597 0,0.66222 -1.0617,0.95142 -2.49032,0.67832 -2.18162,-0.4171 -2.54151,-0.0399 -2.9014,3.04391 -0.22664,1.93599 -0.0391,3.75651 0.4396,4.04559 0.46775,0.28917 0.60256,0.92658 0.30089,1.41663 -0.30089,0.49005 0,1.22683 0.65687,1.63721 0.84912,0.52479 0.64202,1.15955 -0.6979,2.13922 -1.8104,1.3239 -1.79242,1.39303 0.3595,1.39303 3.22534,0 2.80137,1.65733 -0.83623,3.26739 -3.4215,1.51451 -4.08228,2.78577 -1.33171,2.56261 1.00074,-0.0813 1.95068,0.74049 2.1867,1.89124 0.36341,1.76738 0.19929,1.85268 -1.25239,0.64882 -3.02762,-2.51259 -1.7385,-0.26767 1.68183,2.92899 2.23672,2.09049 5.23269,3.52318 9.00509,4.30631 3.1089,0.64546 6.67889,1.84568 7.93246,2.66718 1.25356,0.82149 3.59852,1.63424 5.2108,1.80613 1.61228,0.17194 2.93149,0.73733 2.93149,1.25649 0,0.51921 0.97065,2.17811 2.15739,3.68641 l 2.157,2.74244 -0.12114,-3.50912 c -0.0938,-2.70059 -1.06013,-4.34374 -4.19364,-7.13166 l -4.07174,-3.62255 2.3602,-2.19897 c 2.25704,-2.10269 2.44812,-2.11961 4.36285,-0.38686 1.10116,0.99672 2.00226,2.42468 2.00226,3.17326 0,1.59489 6.30337,3.57507 7.61945,2.39361 1.52592,-1.3699 -1.74201,-7.08822 -4.62544,-8.09337 -1.64901,-0.57485 -2.98385,-2.00464 -3.39298,-3.63416 -0.37122,-1.47758 -1.15001,-2.68648 -1.73146,-2.68648 -0.58184,0 -2.05619,-0.93052 -3.27692,-2.06779 -1.41495,-1.31788 -3.64893,-2.06779 -6.16035,-2.06779 -4.58168,0 -4.88374,-0.81661 -1.27388,-3.44569 1.98233,-1.44383 2.93696,-1.61647 4.01116,-0.72522 1.05388,0.87472 1.60251,0.85682 2.17615,-0.0711 0.57324,-0.92766 1.05271,-0.85315 1.90105,0.29542 0.62405,0.8449 2.41412,1.85475 3.97795,2.2441 1.59118,0.39623 2.84318,1.42143 2.84318,2.32855 0,0.89132 2.71813,4.48816 6.04038,7.9929 4.38786,4.62856 6.40497,7.7162 7.37171,11.2833 0.73229,2.70102 1.80102,4.91097 2.37505,4.91097 0.57442,0 1.5607,0.65687 2.19178,1.45969 1.77366,2.25508 9.09887,5.77971 10.36025,4.9849 0.70024,-0.44113 0.45484,-0.84291 -0.64867,-1.0617 z m -41.13113,-16.27114 c 0,-1.64702 2.74666,-3.25187 3.78648,-2.21229 0.59865,0.5988 -2.09253,3.79554 -3.19564,3.79554 -0.32434,0 -0.59084,-0.71247 -0.59084,-1.58325 z m 9.82218,-2.55229 c -0.35169,-0.56864 -0.14458,-1.03388 0.45562,-1.03388 0.60217,0 1.09492,0.46524 1.09492,1.03388 0,0.56863 -0.20711,1.03387 -0.45563,1.03387 -0.25009,0 -0.74362,-0.46524 -1.09491,-1.03387 z m -4.6528,-4.13554 c 0,-0.56864 0.4654,-1.03392 1.03396,-1.03392 0.56856,0 1.03395,0.46528 1.03395,1.03392 0,0.56863 -0.46539,1.03387 -1.03395,1.03387 -0.56856,0 -1.03396,-0.46524 -1.03396,-1.03387 z m -42.70589,-8.9323 c -0.82607,-0.82599 0.10941,-2.44049 1.41143,-2.44049 0.53495,0 0.97299,0.69786 0.97299,1.55085 0,1.5988 -1.21995,2.054 -2.38442,0.88964 z m 47.82955,-17.53251 c -2.05696,-4.51501 -1.98115,-7.75751 0.10551,-4.52193 0.74401,1.15329 0.91751,0.89617 0.71939,-1.06384 -0.19538,-1.91442 0.2071,-2.54745 1.54781,-2.44113 2.25781,0.17936 2.27931,-0.49505 0.0938,-2.91172 -2.5251,-2.79023 -1.34227,-3.09482 4.05766,-1.04497 4.33081,1.64397 4.61137,1.94302 2.85178,3.04188 -1.85807,1.16044 -1.80649,1.37372 1.08045,4.46441 3.95294,4.23139 3.94982,6.23154 0,5.92991 -1.70489,-0.13012 -3.89784,0.5441 -4.99236,1.53441 -1.07264,0.97135 -2.25157,1.76612 -2.61927,1.76612 -0.36732,0 -1.64237,-2.13891 -2.83341,-4.75314 z m -52.68241,-26.78027 c 0,-0.85299 0.46539,-1.55085 1.03395,-1.55085 0.56856,0 1.03395,0.69786 1.03395,1.55085 0,0.85296 -0.46539,1.55082 -1.03395,1.55082 -0.56856,0 -1.03395,-0.69786 -1.03395,-1.55082 z m 15.72852,61.3232 c -1.19416,-1.19444 -5.38977,-0.16959 -5.38977,1.31644 0,0.54116 1.1633,0.692 2.58489,0.33527 1.79086,-0.44953 2.60989,-0.21726 2.66616,0.75569 0.0664,1.15842 0.17975,1.16221 0.63343,0.0234 0.30479,-0.76054 0.0821,-1.85358 -0.49471,-2.42893 z m -9.27237,-49.95045 c 0.27354,-1.42159 0.0938,-2.58473 -0.39623,-2.58473 -0.48962,0 -0.89054,1.16314 -0.89054,2.58473 0,1.42159 0.17975,2.58473 0.39662,2.58473 0.21882,0 0.61857,-1.16314 0.89015,-2.58473 z M 134.57734,98.158475 c -0.32043,-0.318471 -1.15275,-6.65e-4 -1.85377,0.705949 -1.01364,1.021059 -0.89485,1.139806 0.57871,0.578756 1.0195,-0.388417 1.59314,-0.966352 1.27506,-1.284705 z m 97.41675,0.164119 c 2.98502,-0.358718 5.42767,-1.101282 5.42767,-1.650418 0,-0.578796 -1.84673,-0.748269 -4.39411,-0.403149 -2.41646,0.327458 -6.67381,0.83408 -9.46071,1.1259 -2.78652,0.291899 -5.30654,0.77066 -5.6,1.064082 -0.73424,0.734006 7.44243,0.654486 14.02715,-0.136376 z M 339.77696,300.60083 c 0,-0.56864 0.465,-1.03388 1.03395,-1.03388 0.56856,0 1.03356,0.46524 1.03356,1.03388 0,0.56867 -0.465,1.03391 -1.03356,1.03391 -0.56895,0 -1.03395,-0.46524 -1.03395,-1.03391 z"
       id="path4304-6"
       sodipodi:nodetypes="csscsssssssssscsscssssscssssssscsssssssssscccssssssssssscccssssssssscsssssssccscsssssssssssssssscssssssssssssccccssssssssccsscccssssscssscsssccssscssssssssssssscssssssssssssssscscsccscccssssssssssscsssscsscssssssssssssssscsssscsssssssssssscssscssssssssscssscsssssssssscsssscsssscssssssssssssscssssssssssssccsssssssssssssscssssscsssssssssssssscsssssssscsssscsssssscsssssssscssssscsssssssssssssssssssssssssssssssssssssssssssssssssssscsssssssssssccscscsscscssssssscssssccsscsssssssssssscscssccsssscssccssssssscsssssscccccssscsssssssssssscsscccssccccscssssssssssssssssssssssssssssssscssssssssssssssccssscccsssssscssssssscssssssscsssssssssssssscssscssscssscssscsssscccssscscssssscccsscssscssssccssssssscsssssssssscsssssssssssssssscscscssssssscccssccssccsssssssssssssssscssssssssssssssscsccsscssssssscssssscssssscccscsssssssssscssscsssssssscsscscccssscsssssssscscsssscscssssccsssssscsscsssssssssssssssssssssssssssssssssssssssscscscssssssccssssscsssccccsssccsscssssssssssss" /></g><metadata
     id="metadata182"><rdf:RDF><cc:Work
         rdf:about=""><cc:license
           rdf:resource="http://creativecommons.org/licenses/by-sa/4.0/" /><dc:creator><cc:Agent><dc:title>Jameela P</dc:title></cc:Agent></dc:creator><dc:publisher><cc:Agent><dc:title>OpenDataKerala.org</dc:title></cc:Agent></dc:publisher><dc:date>April 2026</dc:date><dc:title>Election Symbols of Kerala</dc:title></cc:Work><cc:License
         rdf:about="http://creativecommons.org/licenses/by-sa/4.0/"><cc:permits
           rdf:resource="http://creativecommons.org/ns#Reproduction" /><cc:permits
           rdf:resource="http://creativecommons.org/ns#Distribution" /><cc:requires
           rdf:resource="http://creativecommons.org/ns#Notice" /><cc:requires
           rdf:resource="http://creativecommons.org/ns#Attribution" /><cc:permits
           rdf:resource="http://creativecommons.org/ns#DerivativeWorks" /><cc:requires
           rdf:resource="http://creativecommons.org/ns#ShareAlike" /></cc:License></rdf:RDF></metadata></svg>
