<?xml version="1.0" encoding="UTF-8" standalone="no"?>
<!-- Created with Inkscape (http://www.inkscape.org/) -->

<svg
   width="1500"
   height="1500"
   viewBox="0 0 396.87499 396.875"
   version="1.1"
   id="svg5"
   xml:space="preserve"
   inkscape:version="1.2.2 (b0a8486541, 2022-12-01)"
   sodipodi:docname="cpi.svg"
   xmlns:inkscape="http://www.inkscape.org/namespaces/inkscape"
   xmlns:sodipodi="http://sodipodi.sourceforge.net/DTD/sodipodi-0.dtd"
   xmlns="http://www.w3.org/2000/svg"
   xmlns:svg="http://www.w3.org/2000/svg"
   xmlns:rdf="http://www.w3.org/1999/02/22-rdf-syntax-ns#"
   xmlns:cc="http://creativecommons.org/ns#"
   xmlns:dc="http://purl.org/dc/elements/1.1/"><title
     id="title186">Election Symbols of Kerala</title><sodipodi:namedview
     id="namedview7"
     pagecolor="#ffffff"
     bordercolor="#000000"
     borderopacity="0.25"
     inkscape:showpageshadow="2"
     inkscape:pageopacity="0.0"
     inkscape:pagecheckerboard="0"
     inkscape:deskcolor="#d1d1d1"
     inkscape:document-units="mm"
     showgrid="false"
     inkscape:zoom="0.1748299"
     inkscape:cx="2593.9499"
     inkscape:cy="1089.6306"
     inkscape:window-width="1854"
     inkscape:window-height="1011"
     inkscape:window-x="0"
     inkscape:window-y="0"
     inkscape:window-maximized="1"
     inkscape:current-layer="layer1" /><defs
     id="defs2"><inkscape:path-effect
       effect="bspline"
       id="path-effect3248"
       is_visible="true"
       lpeversion="1"
       weight="33.333333"
       steps="2"
       helper_size="0"
       apply_no_weight="true"
       apply_with_weight="true"
       only_selected="false" /><inkscape:path-effect
       effect="bspline"
       id="path-effect577"
       is_visible="true"
       lpeversion="1"
       weight="33.333333"
       steps="2"
       helper_size="0"
       apply_no_weight="true"
       apply_with_weight="true"
       only_selected="false" /></defs><g
     inkscape:label="Layer 1"
     inkscape:groupmode="layer"
     id="layer1"><path
       style="fill:#000000;stroke-width:1.11911"
       d="m 239.36615,324.88136 c -1.53877,-0.83414 -4.29298,-1.96046 -6.12047,-2.50301 -7.29637,-2.16607 -10.28242,-12.30722 -6.87213,-23.33906 1.35194,-4.37334 1.28854,-4.58614 -2.75274,-9.24131 -2.27507,-2.62069 -6.02817,-8.96503 -8.34017,-14.0985 l -4.2037,-9.33365 -7.95781,-2.55035 c -25.81356,-8.27275 -45.63701,-20.39251 -68.38975,-41.81238 -4.30859,-4.05621 -10.85537,-8.96669 -14.54841,-10.91222 -6.52564,-3.43774 -6.83022,-3.48888 -10.81773,-1.81573 -3.90059,1.63664 -4.07473,1.93348 -3.52813,6.01447 0.50799,3.79282 0.0609,4.87952 -3.83757,9.32887 -3.904952,4.45672 -4.290652,5.39694 -3.353052,8.17362 2.852982,8.44892 -2.26501,15.91647 -29.027305,42.35311 -15.863769,15.67072 -19.63819,18.84118 -23.747815,19.9478 -2.687429,0.72366 -6.201216,0.98569 -7.808377,0.5823 -7.444453,-1.86843 -19.159472,-15.52509 -19.159472,-22.33488 0,-3.80297 3.252983,-9.20993 11.13373,-18.50598 2.869898,-3.38529 8.454338,-10.4357 12.409833,-15.66751 3.955537,-5.23185 8.873459,-11.3758 10.928716,-13.6532 4.399994,-4.87554 14.235627,-11.62907 18.492151,-12.69741 1.648697,-0.41366 4.321914,-2.33408 5.940411,-4.26731 4.493091,-5.36665 8.304987,-7.50333 12.15863,-6.81528 2.982925,0.53261 3.62804,0.11886 5.785188,-3.71081 3.67545,-6.525 10.407412,-10.66837 18.255972,-11.23608 8.52979,-0.61699 15.27448,1.70765 25.19966,8.6854 17.61651,12.38496 47.89182,28.84986 51.08898,27.78414 1.63254,-0.54419 -16.32684,-27.06564 -29.76948,-43.96184 -15.26645,-19.18869 -22.80578,-34.53077 -25.12099,-51.11977 -1.01974,-7.30656 0.54977,-18.67948 2.4825,-17.98881 0.42517,0.15185 3.32412,5.13837 6.44218,11.08103 7.25944,13.83558 14.54444,24.5446 23.86773,35.08579 4.08297,4.61635 9.93228,12.10978 12.99848,16.65211 4.41661,6.54284 5.4328,7.54825 4.89098,4.83908 -0.39802,-1.99042 -0.0478,-4.74057 0.83828,-6.58012 1.67877,-3.48549 1.92824,-20.63174 0.47381,-32.56146 -0.65687,-5.3878 -0.47728,-7.59829 0.77285,-9.51244 1.02943,-1.57625 1.30567,-3.31698 0.7509,-4.73178 -1.43979,-3.67202 -1.1465,-13.39121 0.54915,-18.19729 1.03264,-2.92679 1.37326,-6.814823 0.9785,-11.16863 -0.7597,-8.377822 1.19912,-15.216623 4.09516,-14.297423 2.66852,0.846914 5.6269,-2.531353 3.41426,-3.898859 -2.18177,-1.348389 0.55523,-4.476426 3.91688,-4.476426 2.78792,0 4.36911,1.515758 5.52903,5.300161 0.4217,1.376304 2.30159,4.036959 4.17721,5.91258 2.65228,2.65228 3.27583,4.085897 2.80565,6.450514 -0.33245,1.67213 -0.0888,5.130804 0.54119,7.685885 0.91848,3.723878 0.78499,5.405908 -0.67277,8.477898 -1.64092,3.45795 -1.65183,4.15205 -0.11209,7.10506 2.13549,4.09503 2.15575,6.88825 0.0791,10.86975 -1.23617,2.36991 -1.34593,3.85052 -0.45625,6.15512 0.64431,1.669 1.09185,6.05613 0.99457,9.74917 -0.32907,12.49494 -0.004,32.40979 0.66762,41.01797 0.38828,4.96728 0.20006,9.40204 -0.44793,10.55988 -0.74511,1.33143 -0.74071,2.82219 0.0127,4.47685 0.74536,1.63584 0.76452,4.60365 0.0563,8.71421 -0.99935,5.80054 -0.89208,6.40437 1.54427,8.69319 3.06899,2.88322 3.75869,2.4759 4.36286,-2.5767 0.86586,-7.24058 2.82815,-16.91929 3.79747,-18.73049 0.62498,-1.16778 0.42255,-2.83919 -0.55819,-4.61114 -1.91094,-3.45225 -2.06465,-12.32486 -0.28128,-16.23895 1.02592,-2.25164 1.03082,-3.42289 0.0212,-5.03978 -2.31302,-3.70374 -2.72258,-10.32873 -0.94521,-15.2892 1.26125,-3.52001 1.40684,-5.68498 0.58293,-8.66891 -0.69959,-2.53368 -0.71824,-6.06752 -0.0516,-9.73628 0.57571,-3.1675 0.66094,-7.1043 0.18949,-8.74851 -0.47157,-1.64417 -0.85892,-11.26676 -0.86083,-21.38354 -0.002,-14.44449 0.34388,-18.790767 1.61359,-20.241429 1.05405,-1.204071 1.21266,-2.097301 0.45554,-2.565233 -0.63889,-0.394632 -1.68871,-2.675374 -2.33293,-5.067865 -0.90931,-3.376914 -0.7946,-5.431536 0.51285,-9.185401 0.9263,-2.659512 1.6915,-6.243258 1.70047,-7.963861 0.0212,-3.988317 4.7632,-8.900487 8.12636,-8.4172 1.72839,0.248283 2.97759,1.736252 4.17282,4.970032 1.61985,4.382568 1.82766,4.534668 4.11584,3.012862 2.26746,-1.508017 2.4828,-1.381591 3.64495,2.139766 1.45853,4.419325 1.5408,6.965735 0.98599,30.519787 -0.23179,9.848196 0.002,19.546492 0.52042,21.551792 0.54864,2.12293 0.47005,6.20033 -0.18822,9.76052 -0.9203,4.9784 -0.79425,6.90009 0.67849,10.34286 1.12324,2.62575 1.73718,6.87932 1.61985,11.22276 -0.24913,9.21306 -0.2504,9.15012 0.50321,22.10246 0.99592,17.11733 0.99728,19.98397 0.008,22.10242 -1.90062,4.08035 1.16913,1.6967 5.08931,-3.95182 3.97939,-5.73383 4.03848,-5.96866 2.32025,-9.21941 -2.05958,-3.89644 -2.37596,-15.64175 -0.51421,-19.08815 0.95422,-1.76641 0.87999,-3.37561 -0.30961,-6.71466 -2.05513,-5.76818 -2.05171,-12.57243 0.008,-16.52225 1.17624,-2.25528 1.33668,-3.77717 0.55266,-5.24222 -1.60158,-2.99251 -1.35452,-11.75765 0.45334,-16.08447 1.2143,-2.90632 1.29628,-4.87355 0.37137,-8.91546 -0.85428,-3.733141 -0.83512,-6.332211 0.0681,-9.275833 0.81807,-2.665519 0.88363,-4.78363 0.18823,-6.082995 -1.71422,-3.20303 -1.28605,-4.599214 1.17133,-3.819299 1.79809,0.570672 2.23904,0.200488 2.24238,-1.883023 0.004,-3.461 4.00443,-9.867652 6.15913,-9.867652 0.94584,0 3.13074,2.224868 4.85524,4.944147 2.34753,3.70167 3.53658,4.690321 4.73156,3.93405 2.48546,-1.572986 2.96917,-1.293021 4.28439,2.479919 1.62155,4.651536 1.48078,12.841559 -0.30665,17.842172 -1.06918,2.991204 -1.15721,5.712604 -0.34387,10.631534 0.86078,5.20626 0.72129,7.87944 -0.6565,12.57864 -1.53627,5.23976 -1.5537,6.43626 -0.14296,9.81254 1.42025,3.39912 1.98563,14.53577 1.41462,27.86535 -0.2339,5.46521 -0.0744,8.63 0.73534,14.58039 0.53878,3.95875 0.26985,6.81512 -0.90757,9.63265 -1.29323,3.09513 -1.43565,5.3137 -0.62667,9.76445 0.67633,3.72108 0.64735,7.20581 -0.0816,9.84676 -0.62075,2.24809 -0.86599,4.51242 -0.54495,5.03178 1.07557,1.74036 2.68975,0.96768 2.68975,-1.28752 0,-3.69516 9.47366,-31.20572 14.41451,-41.8584 10.74189,-23.15744 28.49536,-45.43852 36.20633,-45.43852 3.45211,0 2.24157,4.40224 -3.80094,13.82197 -6.89062,10.7418 -15.01783,27.69628 -19.92882,41.57399 -3.95769,11.18394 -11.44338,37.64228 -10.82487,38.26079 0.9631,0.96306 15.13752,-9.67913 23.75018,-17.83173 12.26336,-11.60826 19.43757,-21.17522 26.2295,-34.97747 7.16948,-14.56948 10.12427,-27.23821 10.1834,-43.66174 0.0541,-15.06676 -1.45811,-24.059417 -5.97002,-35.498067 -2.80079,-7.10062 -3.16137,-8.960591 -2.00679,-10.351784 5.99434,-7.222689 14.59752,8.726139 20.81756,38.592061 3.22689,15.49413 3.67228,38.88458 1.02909,54.04177 -4.85731,27.85385 -17.32078,52.323 -36.3382,71.34179 -14.39577,14.39678 -30.74261,24.16444 -49.11557,29.34786 -8.60115,2.42663 -8.68748,2.48851 -12.44282,8.91783 -2.07987,3.56082 -6.99598,9.56087 -10.9247,13.33343 l -7.14313,6.85919 -0.49005,8.90357 c -0.70433,12.79724 -5.6846,23.28086 -11.0274,23.21297 -1.28951,-0.0169 -3.60358,-0.71219 -5.14235,-1.54634 z m 6.60312,-14.02553 c -0.0613,-2.19053 -0.43904,-5.13812 -0.83934,-6.55025 -0.64858,-2.28815 -0.95629,-2.40028 -2.8279,-1.03053 -1.73845,1.2723 -1.87896,1.95028 -0.81591,3.93663 0.70632,1.31975 1.39961,4.4291 1.54059,6.90956 0.22163,3.89941 0.44572,4.25327 1.65521,2.61367 0.76938,-1.04296 1.34868,-3.68856 1.28735,-5.87908 z m -7.92236,1.46935 -0.37518,-3.2139 -1.47722,2.60546 c -0.81249,1.43298 -1.17015,3.40572 -0.79481,4.3838 1.07891,2.81161 3.08244,-0.0457 2.64712,-3.77536 z m -1.94876,-7.98873 c 1.95692,-2.62618 8.22061,-8.26404 13.91938,-12.52864 10.41353,-7.79281 16.5881,-14.27979 20.01353,-21.02604 2.32845,-4.58572 0.93878,-4.65826 -3.31711,-0.173 -1.80782,1.90519 -8.07112,6.25476 -13.91848,9.66573 -11.10607,6.47855 -19.21437,13.29807 -21.91238,18.42955 -0.8739,1.66206 -1.5729,5.69086 -1.55331,8.95285 0.0338,5.43052 0.16961,5.74208 1.62298,3.6927 0.87309,-1.23101 3.18852,-4.38688 5.14539,-7.01306 z m 15.07616,-4.34733 c -0.57939,-2.30849 -1.01027,-2.68388 -1.73494,-1.51132 -0.55904,0.90452 -0.48862,2.44854 0.16749,3.6746 1.5518,2.89951 2.50716,1.58094 1.56741,-2.16328 z m -15.16549,-14.5235 c 0,-0.30327 -1.63668,-3.99221 -3.63708,-8.19751 l -3.63713,-7.64596 -5.59556,-0.55659 c -3.07753,-0.30623 -5.70735,-0.45795 -5.84402,-0.33753 -0.57955,0.51112 6.80349,14.9507 9.35891,18.3038 l 2.78936,3.66022 3.28276,-2.3375 c 1.80554,-1.28566 3.28276,-2.58575 3.28276,-2.88906 z m -186.219952,-2.471 c 6.673546,-4.85448 27.274544,-26.86891 32.658157,-34.8988 7.576801,-11.30106 7.605436,-15.25981 0.164113,-22.70096 -3.843239,-3.84328 -4.868773,-4.31908 -7.97139,-3.69859 -5.631812,1.12638 -12.771346,7.47148 -26.964042,23.96366 -19.012193,22.09256 -21.888774,27.50764 -17.545627,33.0291 2.748548,3.49421 9.479027,7.35813 12.94396,7.43105 1.292556,0.0254 4.314174,-1.37927 6.714659,-3.12546 z m 191.255972,-7.27061 v -6.34067 l -3.63713,-2.1e-4 c -2.0004,-1.3e-4 -3.63708,0.20683 -3.63708,0.45973 0,2.2947 5.09794,12.94852 6.04472,12.6324 0.70027,-0.23391 1.22949,-3.1398 1.22949,-6.75125 z m 7.61668,0.64731 c 0.25675,-0.45833 0.80762,-2.25574 1.2237,-3.99423 0.6765,-2.82655 0.4857,-3.1225 -1.80372,-2.79779 -2.07674,0.29439 -2.6782,1.24713 -3.18501,5.04393 -0.56136,4.20598 -0.4258,4.57426 1.33659,3.63107 1.0787,-0.57731 2.17153,-1.42465 2.42844,-1.88298 z m 12.52235,-6.98045 c 0.87973,-1.42342 -0.71457,-1.43637 -4.39865,-0.0338 -1.57886,0.60028 -2.87061,1.8722 -2.87061,2.8265 0,1.55928 0.33288,1.56292 3.28635,0.0338 1.80748,-0.93468 3.59982,-2.20664 3.98291,-2.8265 z m 7.89923,-6.20494 c 47.74911,-8.32673 86.59638,-43.88155 95.00474,-86.9527 0.80935,-4.14579 1.02782,-7.26355 0.48553,-6.92839 -0.54234,0.335 -0.98603,1.22336 -0.98603,1.9738 0,0.75043 -1.73757,4.99016 -3.8613,9.42162 -13.81329,28.82351 -42.82949,57.3885 -69.62714,68.54435 -17.25238,7.18221 -23.29646,8.21963 -47.93497,8.22783 -20.70234,0.008 -23.18213,-0.21275 -33.04027,-2.92446 -26.299,-7.23466 -46.54788,-18.80257 -68.79871,-39.30379 -5.53961,-5.10398 -11.17201,-9.86697 -12.51643,-10.58441 -2.99822,-1.59985 -5.94891,-1.69176 -5.94891,-0.18526 0,0.6155 0.71381,1.11913 1.58627,1.11913 0.87242,0 6.2861,4.35 12.03043,9.66666 28.60901,26.47919 45.23333,36.49767 74.14502,44.68292 17.593,4.98082 41.89503,6.30611 59.46177,3.2427 z m -3.40331,-11.58182 c 41.58144,-8.58229 81.89426,-44.76032 95.53798,-85.73886 5.5709,-16.73213 7.02406,-36.56366 3.53405,-48.2297 -0.92868,-3.10427 -0.97639,-3.04353 -1.0683,1.36027 -0.0529,2.53529 -0.83532,8.83028 -1.73875,13.98887 -8.18617,46.74291 -44.44397,85.78154 -91.01321,97.99346 -14.88285,3.9028 -42.78953,4.8895 -59.45804,2.10234 -25.59138,-4.2792 -42.82658,-11.27771 -66.72278,-27.09339 -20.7715,-13.74756 -27.43455,-16.02022 -35.6036,-12.14374 -4.57506,2.17098 -9.669702,6.91164 -9.669702,8.99781 0,2.65148 3.671642,1.87638 7.995802,-1.68795 8.95446,-7.38105 16.91476,-5.45928 32.29216,7.79586 28.37786,24.46141 51.00485,36.8764 77.24303,42.38175 14.23372,2.98655 34.96161,3.10295 48.67136,0.27323 z m -21.12138,-22.85197 c 1.03471,-1.03467 0.70708,-8.75397 -0.41959,-9.88038 -0.64921,-0.64926 -2.60338,1.29835 -5.14789,5.13068 -2.25578,3.39747 -4.10142,6.36909 -4.10142,6.60367 0,0.60903 8.91521,-1.10044 9.66869,-1.85397 z m -2.35933,-16.55008 c 10.74599,-16.43896 15.72436,-25.3548 14.71892,-26.36025 -0.21064,-0.21064 -7.69896,9.41706 -16.64031,21.39534 -8.94134,11.97827 -15.69995,22.00847 -15.01913,22.28941 4.03852,1.66646 5.5102,0.16158 16.94052,-17.3245 z m -22.97691,15.09109 c 0,-2.4375 -6.45648,-14.40431 -9.0264,-16.73006 -1.80922,-1.63732 -1.86365,-2.07306 -0.43693,-3.49974 0.89627,-0.89627 1.59126,-3.48211 1.54443,-5.74631 l -0.085,-4.11673 -1.41784,3.91688 c -1.19887,3.3119 -1.87715,3.8613 -4.39133,3.55701 -3.46269,-0.41916 -3.70327,0.80758 -1.42503,7.26486 2.54912,7.22493 8.39267,15.84913 11.09393,16.37294 1.35613,0.26309 2.84338,0.54673 3.30501,0.63052 0.46163,0.0838 0.83934,-0.65839 0.83934,-1.64937 z m 36.6123,-2.19924 c -0.87902,-2.86414 -0.88676,-4.90498 -0.0254,-7.18229 0.84747,-2.24517 0.85098,-3.53109 0.0127,-4.37005 -0.65383,-0.65383 -1.48048,-3.3391 -1.83704,-5.96727 l -0.64825,-4.77843 -2.85002,5.06842 c -2.37011,4.21498 -2.68218,5.71598 -1.85337,8.9144 0.54813,2.11532 0.81485,5.75185 0.59271,8.08115 -0.4014,4.20721 -0.37687,4.23512 3.71757,4.23512 h 4.12151 l -1.22797,-4.00105 z m -48.92248,1.09626 c 0,-0.36672 -1.01665,-2.0943 -2.25917,-3.83926 -1.24256,-1.74501 -3.50736,-6.48884 -5.03293,-10.54191 -1.52557,-4.05304 -4.10556,-9.50166 -5.73336,-12.10805 -11.29434,-18.08428 -21.24252,-31.56702 -31.15852,-42.22905 -7.95392,-8.5523 -14.08543,-16.77789 -18.57091,-24.91335 -3.73906,-6.7817 -3.91379,-6.44172 -1.50531,2.9292 2.70333,10.51797 10.88591,24.93314 23.76808,41.87219 13.9502,18.34339 24.1504,33.45355 27.73596,41.08712 1.97468,4.20411 3.52487,5.90703 6.28949,6.90931 4.16846,1.51119 6.46667,1.80752 6.46667,0.8338 z m 62.55343,-0.35657 c 0.8591,-0.54398 1.25259,-1.79525 0.87445,-2.78065 -1.02477,-2.67051 -2.6634,-2.16624 -3.26986,1.00617 -0.57131,2.98849 -0.0876,3.34675 2.39541,1.77448 z m -7.71706,-3.45313 c 0,-1.84656 -0.50359,-3.35733 -1.11909,-3.35733 -1.24481,0 -1.54461,4.79704 -0.37306,5.96858 1.26434,1.2643 1.49215,0.86565 1.49215,-2.61125 z M 96.650898,220.19782 c 2.57991,-4.98894 2.1843,-8.43192 -1.14304,-9.94794 -4.174684,-1.90214 -7.729668,-1.59053 -9.959062,0.87289 -1.896431,2.09552 -1.79458,2.34448 2.904116,7.10087 2.678166,2.71103 5.234186,5.00717 5.679997,5.10255 0.445812,0.0952 1.578949,-1.31239 2.517989,-3.12837 z m 181.884112,-3.39988 c 0,-1.82356 -3.01899,-5.37194 -3.71732,-4.36916 -1.8337,2.63295 -2.54311,6.4385 -1.64645,8.83255 l 1.04778,2.79779 2.15799,-2.64196 c 1.1869,-1.45312 2.158,-3.53172 2.158,-4.61922 z m 15.94659,-9.25545 c 3.99923,-19.42878 11.0216,-39.06388 21.602,-60.40084 4.37588,-8.82465 5.39875,-11.60323 3.40665,-9.25397 -3.77172,4.44788 -11.95722,16.62237 -15.5174,23.0794 -4.33714,7.86607 -12.52141,29.05998 -17.01708,44.06715 -2.21265,7.38613 -4.30077,14.34125 -4.6402,15.45577 -0.54927,1.80334 -0.0211,1.72429 4.79813,-0.71769 l 5.41538,-2.74419 z m -65.18744,5.82714 c 0,-1.07536 -2.18164,-2.6099 -2.81296,-1.97857 -0.23433,0.23432 -0.70531,2.17314 -1.0469,4.30872 l -0.62109,3.88291 2.24048,-2.642 c 1.23228,-1.45308 2.24047,-3.06007 2.24047,-3.57106 z m 38.58698,1.14096 c 1.42029,2.29809 2.82012,-0.14169 2.82012,-4.91504 0,-3.25129 -0.79058,-5.82405 -2.43014,-7.90841 -2.29449,-2.91698 -2.51312,-2.97594 -3.91688,-1.05612 -1.61917,2.21434 -1.88074,6.07056 -0.78372,11.55552 0.53958,2.69788 1.03679,3.23818 2.13858,2.32376 1.01513,-0.84252 1.65124,-0.84239 2.17204,2.9e-4 z m -7.18208,-19.94336 c -1.30233,-2.32714 -3.4443,4.65653 -3.34744,10.91379 l 0.0795,5.14878 2.07057,-7.25095 c 1.14418,-4.00684 1.67979,-7.94922 1.19714,-8.81162 z m -20.21377,4.81781 c 0,-2.04397 -4.24003,-5.31252 -6.01029,-4.63322 -1.09731,0.42127 -1.74027,2.78957 -2.0001,7.36806 l -0.38279,6.74752 4.19668,-4.10213 c 2.30815,-2.25617 4.19667,-4.6773 4.19667,-5.38023 z m 35.59607,1.53953 c -0.37433,-5.0762 -2.47721,-6.94624 -3.48367,-3.09767 -0.67976,2.59949 1.19903,7.76692 2.82396,7.76692 0.5521,0 0.84899,-2.10119 0.65971,-4.66925 z m -46.86587,-4.56344 c 0.0431,-1.69264 -0.42492,-3.07753 -1.04042,-3.07753 -0.61551,0 -1.08374,2.39211 -1.04047,5.31577 0.0592,3.99965 0.31681,4.76163 1.04047,3.07753 0.52901,-1.23101 0.99719,-3.62308 1.04042,-5.31577 z m -21.37178,0.97263 c 0.3904,-2.01398 -1.62805,-5.16926 -3.30699,-5.16926 -1.15543,0 -1.33456,5.98914 -0.21276,7.11099 1.21164,1.21164 3.11146,0.16369 3.51967,-1.94173 z m 37.93468,-3.70244 c 0.47275,-1.41822 -2.79821,-2.8767 -4.32932,-1.93039 -0.65256,0.40351 -0.54724,1.29568 0.26901,2.27913 1.44631,1.74269 3.41976,1.57316 4.06039,-0.34852 z m 21.25871,-7.15975 c -0.63395,-6.99103 -1.49368,-9.25815 -3.12786,-8.24814 -1.18407,0.73178 -1.37707,7.50845 -0.35868,12.59958 0.49018,2.4509 1.16135,3.23116 2.37789,2.76433 1.34285,-0.51531 1.5732,-1.99372 1.10878,-7.11577 z m -67.99913,5.41314 c -0.0212,-0.76938 -1.19455,-2.80937 -2.60537,-4.53327 -2.15043,-2.62767 -2.48529,-4.09694 -2.07137,-9.08837 0.55388,-6.67909 -1.28871,-9.37215 -3.11891,-4.55836 -2.31995,6.10199 -1.14713,12.7318 3.11713,17.62045 1.97976,2.26958 4.73719,2.59941 4.67852,0.55955 z m 76.04843,-5.72762 c 4.41024,-7.13589 2.16367,-16.14868 -3.19161,-12.80425 -1.28655,0.80348 -2.08076,2.13423 -1.76493,2.95724 0.31596,0.82302 0.89471,4.22337 1.28643,7.55629 0.39167,3.33297 0.8536,6.0599 1.02642,6.0599 0.173,0 1.36247,-1.69615 2.64369,-3.76918 z m -38.80633,1.35457 c 2.07298,2.07293 2.75198,1.54972 3.43271,-2.64513 0.63961,-3.94141 -0.94463,-10.60781 -2.52087,-10.60781 -2.14649,0 -4.86238,4.89487 -5.40789,9.74681 -0.55642,4.9485 -0.45643,5.23993 1.29886,3.78592 1.44043,-1.1932 2.21594,-1.26104 3.19719,-0.27958 z m -31.43975,-9.58435 c -0.7594,-1.41898 -0.61191,-2.66463 0.49484,-4.17814 3.05427,-4.17701 0.95278,-16.2771 -2.82697,-16.2771 -1.70914,0 -3.3355,9.05576 -2.17466,12.10889 0.59973,1.57743 0.79781,5.41555 0.44023,8.52912 -0.6743,5.87066 -0.0753,7.73803 2.7809,8.67229 2.03961,0.66715 2.96621,-5.71488 1.28566,-8.85506 z m 6.54446,-0.32484 c -1.79606,-6.66995 -3.32053,-3.68572 -1.86856,3.65772 0.95177,4.81358 1.30385,5.38053 2.15571,3.47145 0.64563,-1.44694 0.5406,-4.05515 -0.28719,-7.12917 z m 35.43428,0.33838 c -1.32419,-8.16008 -4.14113,-5.76112 -3.27967,2.79304 0.56522,5.61282 0.68081,5.79402 2.25896,3.54094 1.09245,-1.5597 1.44271,-3.73331 1.02071,-6.33398 z m -18.64399,3.51861 c 0,-1.57925 0.55024,-3.8995 1.22276,-5.15614 1.56207,-2.91871 -0.65548,-5.8683 -2.37134,-3.15427 -1.41014,2.2305 -1.38658,11.18174 0.0296,11.18174 0.6155,0 1.11909,-1.29209 1.11909,-2.87133 z m 40.70098,-12.91719 c 1.3928,-3.9604 -0.0127,-11.15289 -2.03038,-10.37924 -4.20323,1.61296 -4.97541,14.42927 -0.82116,13.62922 1.00798,-0.19414 2.29119,-1.65661 2.85154,-3.24998 z m -29.5099,-3.72489 c 0,-6.22871 -2.37908,-8.57738 -5.67085,-5.5984 -2.83187,2.56282 -2.65956,9.05754 0.22798,8.58512 1.00709,-0.16453 2.13664,0.49665 2.51008,1.46982 1.20508,3.14039 2.933,0.51489 2.933,-4.45654 z m 6.08778,-5.66654 c -0.82983,-6.23019 -1.21266,-7.04153 -2.60517,-5.52095 -0.52609,0.57448 -0.70247,4.28177 -0.39209,8.23841 0.51336,6.54124 0.70873,6.99813 2.15351,5.03602 1.1479,-1.55895 1.38206,-3.71111 0.84362,-7.75348 z m -35.00582,-0.69583 c -0.22756,-2.38712 -0.92334,-4.34019 -1.546,-4.34019 -0.62786,0 -0.83152,1.12147 -0.45727,2.51803 0.37094,1.38489 0.73186,4.53239 0.80161,6.99442 0.0998,3.51674 0.28635,3.9074 0.87119,1.82215 0.40944,-1.45984 0.55811,-4.60733 0.33034,-6.99441 z m 51.09613,-3.70603 c -1.48306,-1.76497 -2.33857,0.17427 -2.79487,6.33568 l -0.43688,5.89994 2.0547,-5.59553 c 1.1301,-3.07757 1.65974,-6.06561 1.17705,-6.64009 z m 15.85455,5.20182 c -0.008,-1.67098 -0.42424,-3.67959 -0.92174,-4.46352 -1.62142,-2.55483 -4.48383,2.02429 -3.84751,6.15503 0.48303,3.1359 0.83426,3.46176 2.67127,2.4786 1.28553,-0.68796 2.10838,-2.32354 2.09798,-4.17011 z m -81.00375,-4.55805 c -1.70237,-2.25182 -3.41075,2.2016 -2.38019,6.20481 l 0.81059,3.14884 1.3593,-3.91692 c 0.9403,-2.70942 1.00514,-4.3854 0.21021,-5.43673 z m 32.83534,-2.90848 c -0.78529,-0.78524 -1.4823,-0.62054 -2.20389,0.52081 -1.44229,2.28125 -1.35063,5.25773 0.25167,8.17775 1.24886,2.27588 1.40202,2.09984 2.22097,-2.55279 0.54915,-3.11971 0.44814,-5.42879 -0.26901,-6.14577 z m 9.41558,-10.89856 c 0.1916,-7.59871 -1.75313,-10.65623 -4.48725,-7.05527 -1.9529,2.57204 -1.48366,12.08896 0.80715,16.36934 l 1.37681,2.57259 1.0713,-2.75633 c 0.58924,-1.51597 1.14363,-5.62462 1.23199,-9.13033 z m -31.81264,2.82845 c 0.10828,-4.87203 -0.91582,-7.08598 -3.27709,-7.08598 -3.87069,0 -3.6856,8.43077 0.29016,13.22138 1.06762,1.28643 1.41716,1.19921 2.0948,-0.52287 0.44738,-1.13682 0.84877,-3.66246 0.89204,-5.61253 z m 61.56579,-5.00197 c -1.63503,-3.94741 -2.5599,-4.02448 -4.23288,-0.35275 -2.02806,4.451 -1.55484,7.10768 1.77881,9.9871 l 3.07753,2.6582 0.35149,-4.54478 c 0.1933,-2.49963 -0.24532,-5.98618 -0.97512,-7.74785 z m 8.3167,1.5617 c -0.008,-2.9284 -0.6559,-6.5162 -1.44359,-7.97292 -1.24489,-2.30227 -1.64236,-2.43838 -3.03977,-1.04093 -1.39745,1.39746 -1.38408,2.0364 0.10236,4.8868 0.94048,1.8035 1.71307,5.26835 1.71688,7.69963 0.004,3.42229 0.30835,4.11918 1.3412,3.08612 0.7339,-0.73386 1.32918,-3.73027 1.32292,-6.6587 z m -31.98119,0.67489 c 0.39675,-5.98795 -1.28993,-11.03526 -3.68788,-11.03526 -1.54135,0 -1.53225,0.30496 0.0821,2.76914 1.24142,1.89466 1.69133,4.5455 1.42469,8.39411 -0.23644,3.416 0.0499,5.48043 0.72941,5.25693 0.61551,-0.2026 1.2687,-2.62563 1.45155,-5.38492 z m -48.64873,-0.34092 c 1.35757,-3.98429 1.41365,-5.20621 0.28212,-6.14538 -0.77687,-0.64478 -1.74387,-0.84091 -2.14886,-0.43591 -0.78525,0.78524 -1.04808,11.55441 -0.28212,11.55441 0.24997,0 1.21688,-2.23789 2.14886,-4.97312 z m 16.31009,-4.04563 c 0.14254,-2.23028 -2.81665,-6.33187 -3.83423,-5.31428 -0.42429,0.42428 -0.099,3.39577 0.72328,6.60333 1.27771,4.98547 1.60386,5.44173 2.24703,3.14369 0.41366,-1.4785 0.80254,-3.47323 0.86392,-4.43274 z m 16.00292,2.08026 c -1.04452,-1.04448 -1.34293,-0.74608 -1.34293,1.34293 0,2.08901 0.29862,2.38746 1.34293,1.34293 1.04449,-1.04448 1.04449,-1.64133 0,-2.68586 z m 34.60315,-6.09344 c 0.69223,-0.83406 0.98632,-1.51648 0.65353,-1.51648 -0.33288,0 -1.39466,-0.30285 -2.35967,-0.67333 -2.35531,-0.9038 -4.19198,4.03011 -3.25121,8.73388 l 0.71702,3.58506 1.49089,-4.30631 c 0.81997,-2.36846 2.05725,-4.98877 2.74944,-5.82282 z m -31.74911,-1.23614 c 0.61187,-1.83772 -2.89456,-3.14952 -4.39852,-1.64556 -0.64359,0.64359 -0.81459,1.74556 -0.37982,2.44879 0.98878,1.59988 4.1556,1.06757 4.77851,-0.80323 z m -29.93651,-4.0754 c 0,-0.64046 0.58112,-0.54792 1.34293,0.21402 1.76688,1.76688 3.13349,1.70555 3.13349,-0.14085 0,-0.81599 1.25902,-2.66636 2.79779,-4.11199 2.78737,-2.61861 3.62401,-7.03747 1.85891,-9.81863 -0.6905,-1.08801 -1.39305,-0.88562 -2.96841,0.85512 -1.24759,1.37859 -2.85014,2.03093 -4.05197,1.6495 -3.60621,-1.14456 -6.23142,5.42819 -5.60326,14.02867 0.19752,2.70642 0.25801,2.72685 1.84745,0.62544 0.90367,-1.19476 1.64307,-2.6804 1.64307,-3.30137 z m 67.79124,-2.30062 c 0.80081,-3.19073 -1.47562,-11.00113 -2.94222,-10.09475 -0.54894,0.33922 -1.61355,2.6711 -2.36576,5.18186 -1.2284,4.09998 -1.15277,4.72221 0.74256,6.10812 2.95416,2.16015 3.77734,1.9446 4.56542,-1.19523 z m -31.97971,-8.23579 c 0,-5.20123 -1.97726,-9.05779 -3.74008,-7.29498 -0.93375,0.93375 -0.97198,14.30314 -0.0436,15.23151 1.66663,1.66664 3.78368,-2.77405 3.78368,-7.93653 z m 39.16882,-2.66907 c 0,-5.66231 -0.58396,-6.2785 -3.75357,-3.96079 -1.81167,1.32471 -1.82144,1.71223 -0.14423,5.72618 0.98937,2.36792 1.51453,5.12784 1.16697,6.13312 -0.45609,1.3192 -0.16411,1.22336 1.04952,-0.34472 0.96154,-1.24227 1.68139,-4.47634 1.68139,-7.55396 z m -79.47365,-3.35716 c 0.0211,-2.55965 -2.23883,-3.7979 -3.44844,-1.8881 -1.15425,1.82228 -1.3442,10.34857 -0.25505,11.43793 0.82847,0.82847 3.67629,-6.51532 3.70332,-9.54983 z m 32.35949,0.49348 c 0.0613,-2.0004 -0.39209,-3.63709 -1.00755,-3.63709 -0.62926,0 -1.07029,2.81665 -1.00756,6.43487 0.085,4.91098 0.32357,5.77232 1.00756,3.63712 0.4928,-1.53877 0.94618,-4.43447 1.00755,-6.4349 z m 12.72,0.40732 c -0.89792,-4.69718 -2.92294,-3.4915 -2.13566,1.27153 0.38152,2.30815 0.74252,4.95206 0.8022,5.87532 0.0596,0.92326 0.50994,0.35106 1.00058,-1.27154 0.49065,-1.6226 0.64042,-4.2665 0.33288,-5.87531 z m 20.50909,-0.94957 c -2.38247,-1.60179 -2.90124,-0.79637 -2.87223,4.45929 l 0.0296,5.31581 2.03288,-4.47647 c 1.41395,-3.11352 1.66059,-4.72678 0.80999,-5.29863 z m -56.65443,-3.93401 c -0.0423,-6.05483 -2.15376,-9.952967 -4.25597,-7.85076 -1.85519,1.85515 -1.61334,7.75047 0.43811,10.67929 2.69196,3.84332 3.85673,2.98034 3.81786,-2.82853 z m 63.26529,-2.51799 c 0.74037,-3.37086 3.31985,-4.57286 4.20281,-1.95844 0.2597,0.76939 1.30896,-0.21275 2.33145,-2.18265 1.99748,-3.848232 2.51845,-12.105973 0.82957,-13.149738 -1.1926,-0.737069 -5.68514,4.583014 -5.68514,6.732382 0,0.797427 -1.09922,1.610799 -2.44266,1.807481 -2.74419,0.401822 -4.68888,5.434365 -3.70586,9.590265 0.8558,3.61809 3.60418,3.10199 4.46983,-0.8393 z m -29.81436,-2.33129 c 2.12031,-1.97535 2.4515,-3.299336 2.16946,-8.673094 l -0.33288,-6.341811 h -3.76959 c -4.66008,0 -6.86194,2.796767 -6.86194,8.715903 0,8.232402 3.79908,10.953332 8.79491,6.299002 z m -28.16236,-2.42493 c -1.90489,-11.794155 -2.28848,-13.149565 -3.72167,-13.149565 -0.84222,0 -1.53133,-0.788502 -1.53133,-1.752198 0,-0.963739 -0.59863,-2.852261 -1.33028,-4.196673 l -1.33033,-2.444432 -0.70564,2.797782 c -0.42843,1.69865 -1.44457,2.736705 -2.58659,2.64234 -2.68802,-0.22206 -2.40341,0.510483 2.42362,6.238521 2.36753,2.809414 4.9867,6.996485 5.82037,9.304678 1.86264,5.156817 3.76233,5.515707 2.96185,0.559547 z m 50.70251,-5.315767 c 0,-2.517606 -1.8491,-3.959725 -2.52006,-1.965418 -0.69925,2.078435 0.38195,5.392918 1.5282,4.684569 0.5455,-0.337108 0.99186,-1.560804 0.99186,-2.719151 z M 198.5642,93.96277 c -0.4162,-1.692644 -1.60386,-4.33655 -2.63934,-5.875317 l -1.88264,-2.797782 -0.36122,3.149905 c -0.37855,3.30374 2.34656,8.600728 4.42508,8.600728 0.76241,0 0.93295,-1.145785 0.45799,-3.077534 z m 29.9352,-5.075733 c 0.12943,-1.603947 -0.26816,-2.817704 -0.88388,-2.697284 -0.61551,0.120547 -1.13551,1.846944 -1.15556,3.836598 -0.0423,4.180726 1.68825,3.214112 2.03944,-1.139314 z m 41.17526,-8.765898 c -1.66033,-5.541593 -3.01387,-5.499295 -4.70554,0.147194 -1.24502,4.155475 -1.14554,4.70373 1.3318,7.34074 l 2.67728,2.84985 0.99897,-2.996832 c 0.64059,-1.921767 0.53206,-4.555183 -0.30242,-7.340783 z m -32.13731,-0.439255 c 0.90402,-2.35582 -0.38321,-8.085254 -2.14488,-9.547336 -2.98008,-2.473279 -5.39444,7.018014 -2.51714,9.895314 1.83797,1.837977 3.88173,1.685411 4.66202,-0.348105 z M 242.261,64.869747 c -0.3316,-0.331609 -1.34318,0.01269 -2.24847,0.76342 -1.44271,1.197388 -1.41153,1.861282 0.25294,5.378157 l 1.89867,4.012172 0.3498,-4.775592 c 0.19245,-2.626606 0.0787,-5.046759 -0.25251,-5.378157 z m -13.83135,2.240814 c -0.26901,-0.765873 -0.93997,-1.113851 -1.49097,-0.773275 -1.21245,0.749335 -1.33113,5.380314 -0.16792,6.543695 0.99229,0.992331 2.36128,-3.770234 1.65868,-5.77042 z m 4.76802,-6.721088 c -0.20641,-1.077137 -0.41366,-3.203453 -0.46053,-4.725133 l -0.0859,-2.766693 -2.44739,2.447435 c -2.38437,2.38437 -2.39431,2.506059 -0.38618,4.725132 2.53026,2.795879 3.87818,2.923193 3.37971,0.319343 z"
       id="path2703"
       sodipodi:nodetypes="csssscsssssssssssssssssssssssssssssssssssssssssssssssssssssssssssssssssssssssssssscssssssssssscssssssssssssssscssssssssssssssscssccsssssssccssscsssssscsssssssssscssscssssssssscssscssssssssssscscssssssscsssssssssssssssssssssssssssssssssssssscsssssssccsscsssscccsssssssssssssssssssssssssssscssssssssscsssscssssssssssscsssssscsssssssssssssssssssssssssssscsssscsssssssssssssssssssssssssssssssssssscssssssssssssssssssssssscsscssscsscsssssssssssscssssssssssscssscssscscssssssssssssssssssssssssscsssssssssssssssssssssssssssssssssssssssssssssssssssscssscsscsssssssssscsssssssscssssssssssscssssssssssscssssssssscscsssssssssscssss" /></g><metadata
     id="metadata182"><rdf:RDF><cc:Work
         rdf:about=""><cc:license
           rdf:resource="http://creativecommons.org/licenses/by-sa/4.0/" /><dc:creator><cc:Agent><dc:title>Jameela P</dc:title></cc:Agent></dc:creator><dc:publisher><cc:Agent><dc:title>OpenDataKerala.org</dc:title></cc:Agent></dc:publisher><dc:date>April 2026</dc:date><dc:title>Election Symbols of Kerala</dc:title></cc:Work><cc:License
         rdf:about="http://creativecommons.org/licenses/by-sa/4.0/"><cc:permits
           rdf:resource="http://creativecommons.org/ns#Reproduction" /><cc:permits
           rdf:resource="http://creativecommons.org/ns#Distribution" /><cc:requires
           rdf:resource="http://creativecommons.org/ns#Notice" /><cc:requires
           rdf:resource="http://creativecommons.org/ns#Attribution" /><cc:permits
           rdf:resource="http://creativecommons.org/ns#DerivativeWorks" /><cc:requires
           rdf:resource="http://creativecommons.org/ns#ShareAlike" /></cc:License></rdf:RDF></metadata></svg>
