<?xml version="1.0" encoding="UTF-8" standalone="no"?>
<!-- Created with Inkscape (http://www.inkscape.org/) -->

<svg
   width="1500"
   height="1500"
   viewBox="0 0 396.87499 396.875"
   version="1.1"
   id="svg5"
   xml:space="preserve"
   inkscape:version="1.2.2 (b0a8486541, 2022-12-01)"
   sodipodi:docname="cpim.svg"
   inkscape:export-filename="cpim.png"
   inkscape:export-xdpi="96"
   inkscape:export-ydpi="96"
   xmlns:inkscape="http://www.inkscape.org/namespaces/inkscape"
   xmlns:sodipodi="http://sodipodi.sourceforge.net/DTD/sodipodi-0.dtd"
   xmlns="http://www.w3.org/2000/svg"
   xmlns:svg="http://www.w3.org/2000/svg"
   xmlns:rdf="http://www.w3.org/1999/02/22-rdf-syntax-ns#"
   xmlns:cc="http://creativecommons.org/ns#"
   xmlns:dc="http://purl.org/dc/elements/1.1/"><title
     id="title186">Election Symbols of Kerala</title><sodipodi:namedview
     id="namedview7"
     pagecolor="#ffffff"
     bordercolor="#000000"
     borderopacity="0.25"
     inkscape:showpageshadow="2"
     inkscape:pageopacity="0.0"
     inkscape:pagecheckerboard="0"
     inkscape:deskcolor="#d1d1d1"
     inkscape:document-units="mm"
     showgrid="false"
     inkscape:zoom="0.1748299"
     inkscape:cx="-191.61482"
     inkscape:cy="1101.0702"
     inkscape:window-width="1854"
     inkscape:window-height="1011"
     inkscape:window-x="0"
     inkscape:window-y="0"
     inkscape:window-maximized="1"
     inkscape:current-layer="layer1" /><defs
     id="defs2"><inkscape:path-effect
       effect="bspline"
       id="path-effect3248"
       is_visible="true"
       lpeversion="1"
       weight="33.333333"
       steps="2"
       helper_size="0"
       apply_no_weight="true"
       apply_with_weight="true"
       only_selected="false" /><inkscape:path-effect
       effect="bspline"
       id="path-effect577"
       is_visible="true"
       lpeversion="1"
       weight="33.333333"
       steps="2"
       helper_size="0"
       apply_no_weight="true"
       apply_with_weight="true"
       only_selected="false" /></defs><g
     inkscape:label="Layer 1"
     inkscape:groupmode="layer"
     id="layer1"><g
       id="g3253"
       transform="translate(-466.08427,-297.89265)"><g
         id="g3257"
         transform="matrix(4.6635044,0,0,4.6635044,-1976.2515,-1346.8098)"><path
           style="fill:#000000;stroke-width:0.264583"
           d="m 590.72308,418.80649 -5.61478,-5.61478 -0.86673,0.80613 c -3.63059,3.37675 -8.36997,5.58031 -13.7359,6.38645 -2.65404,0.39873 -3.092,0.39889 -5.73329,0.002 -4.73669,-0.71161 -8.61499,-2.28195 -13.35549,-5.40769 -1.43956,-0.9492 -3.48745,-2.48464 -4.55087,-3.4121 -1.91735,-1.67221 -1.93491,-1.6806 -2.10444,-1.00513 -0.2318,0.92354 -8.01374,12.47977 -8.62367,12.8062 -1.2346,0.66073 -3.31363,0.078 -4.59916,-1.28919 -0.60096,-0.63912 -0.79592,-1.12882 -0.88199,-2.2154 l -0.1105,-1.39496 4.01954,-5.15937 c 4.90519,-6.29615 5.15483,-6.56617 6.2629,-6.77405 0.64523,-0.12104 1.11096,-0.4805 1.7183,-1.32621 0.45824,-0.63809 0.93568,-1.16016 1.06098,-1.16016 0.12529,0 0.57952,0.40058 1.00939,0.89017 1.07387,1.22307 4.11255,3.28135 7.45971,5.0529 5.56905,2.94754 9.79868,3.98549 13.6225,3.34298 4.28136,-0.7194 8.49128,-2.69578 11.23432,-5.27405 l 1.5956,-1.49975 -6.67345,-6.48165 c -3.67039,-3.5649 -6.85205,-6.58546 -7.07035,-6.71234 -0.30166,-0.17535 -1.09309,0.50721 -3.29798,2.84427 -1.59558,1.69123 -3.01537,3.07497 -3.15508,3.07497 -0.24248,0 -6.7647,-5.65779 -7.16431,-6.21478 -0.10764,-0.15004 2.62193,-3.08511 6.21568,-6.68365 l 6.40761,-6.41615 h 6.13797 c 3.67775,0 6.20151,0.10282 6.2965,0.25651 0.0872,0.14108 -1.3777,1.89725 -3.25533,3.9026 -1.87762,2.00536 -3.78842,4.0797 -4.24623,4.60966 l -0.83237,0.96356 1.40371,1.2854 c 0.77205,0.70697 3.87436,3.57735 6.89405,6.37862 3.01968,2.80128 5.58746,5.09323 5.70618,5.09323 0.32812,0 1.49685,-2.79862 2.09936,-5.02708 1.19512,-4.42036 1.53798,-9.21005 0.96601,-13.49495 -0.89683,-6.71863 -2.93726,-12.92646 -6.23523,-18.97019 -0.57197,-1.04817 -1.03995,-1.97963 -1.03995,-2.06992 0,-0.51047 0.96543,0.28324 2.99257,2.46031 7.63184,8.19629 11.24311,15.73692 12.10285,25.27175 0.57696,6.39875 -0.26632,11.55967 -2.67127,16.34819 l -1.00676,2.00456 6.05868,5.77042 c 3.33227,3.17373 5.99901,5.86697 5.92608,5.98498 -0.12549,0.20303 -4.55488,3.68235 -4.68787,3.68235 -0.0345,0 -2.58936,-2.52665 -5.67749,-5.61478 z m 7.58499,2.39154 0.61149,-0.44511 -3.80361,-3.6624 c -2.09199,-2.01432 -4.57752,-4.38335 -5.52341,-5.26452 l -1.71979,-1.60212 -0.82478,0.94713 -0.82478,0.94713 5.04969,5.21496 5.04969,5.21496 0.687,-0.45246 c 0.37786,-0.24885 0.96218,-0.65276 1.2985,-0.89757 z m -58.94725,-5.1036 c 2.21241,-3.27293 3.92964,-6.07674 3.92964,-6.41615 0,-0.82945 -0.90514,-1.66118 -1.80781,-1.66118 -0.54836,0 -0.96272,0.26623 -1.54425,0.99219 -8.42748,10.52061 -8.53479,10.70959 -6.97003,12.27434 0.6061,0.60611 0.98539,0.77102 1.62661,0.70726 0.76809,-0.0764 1.15623,-0.55661 4.76584,-5.89646 z m 34.35672,2.10718 c 5.75773,-1.84763 10.56411,-5.44617 13.70637,-10.26196 2.18338,-3.34623 2.99341,-6.04069 3.48471,-11.59149 0.68322,-7.71918 -0.0346,-11.52537 -3.5732,-18.94721 -1.39426,-2.92431 -4.15306,-7.48385 -4.52818,-7.48385 -0.0575,0 0.14377,0.48689 0.44736,1.08198 0.91615,1.7958 2.35129,6.54433 2.90556,9.61378 1.27719,7.07287 0.26036,16.56114 -2.32723,21.7157 -2.0485,4.08069 -7.92322,9.40693 -12.29579,11.14781 -2.32682,0.92639 -5.84075,1.67201 -7.91161,1.67876 -5.27426,0.0172 -13.00541,-3.20163 -18.61528,-7.75034 l -1.32292,-1.07267 1.19063,1.26214 c 3.3307,3.53075 9.31826,7.69897 13.62604,9.48571 4.10355,1.70204 5.89098,2.05014 9.92187,1.93228 2.41595,-0.0706 3.50597,-0.23762 5.29167,-0.81064 z m 6.49197,-13.54369 0.4674,-0.71336 -1.43653,-1.33717 c -0.79009,-0.73544 -3.92967,-3.68506 -6.97685,-6.55471 l -5.54032,-5.21754 -0.6117,0.57466 -0.61171,0.57467 4.17502,3.97071 c 2.29626,2.18389 5.42517,5.19449 6.95314,6.69022 1.52797,1.49573 2.85373,2.72094 2.94613,2.72269 0.0924,0.002 0.37834,-0.31783 0.63542,-0.71017 z m -20.06089,-9.40696 c 2.82597,-2.95963 10.97817,-11.59705 11.92413,-12.63386 l 0.8449,-0.92604 -4.42038,-0.0728 -4.42039,-0.0728 -5.36234,5.36447 c -2.94929,2.95046 -5.36405,5.46764 -5.36613,5.59372 -0.004,0.24878 4.51672,4.63399 4.79752,4.6536 0.0941,0.007 0.99531,-0.85126 2.00269,-1.90628 z"
           id="path2701"
           sodipodi:nodetypes="ccsscsssssscsssssssscsssssscsssscsssssssssscsssccscsscccccsssssssssssssssssssscssssscsscccsscssscccsscss" /><path
           sodipodi:type="star"
           style="opacity:1;fill:none;fill-opacity:1;stroke:#000000;stroke-width:0.582999;stroke-linejoin:round;stroke-opacity:1;paint-order:stroke markers fill"
           id="path3173"
           inkscape:flatsided="false"
           sodipodi:sides="5"
           sodipodi:cx="573.34106"
           sodipodi:cy="370.4549"
           sodipodi:r1="2.5481741"
           sodipodi:r2="0.78993398"
           sodipodi:arg1="0.60895605"
           sodipodi:arg2="1.2372746"
           inkscape:rounded="0"
           inkscape:randomized="0"
           d="m 575.43119,371.91248 -1.83152,-0.71118 -0.99897,1.69184 0.1104,-1.96165 -1.91773,-0.42726 1.89975,-0.50119 -0.18626,-1.9559 1.06372,1.6519 1.80262,-0.78156 -1.24235,1.52212 z"
           inkscape:transform-center-x="0.30819463"
           inkscape:transform-center-y="0.020540214"
           transform="matrix(1.3471456,0,0,1.3471456,-199.03281,-128.60178)" /></g><path
         style="opacity:1;fill:none;fill-opacity:1;stroke:#000000;stroke-width:0.582999;stroke-linejoin:round;stroke-opacity:1;paint-order:stroke markers fill"
         d="m 533.67114,421.54535 c 3.10233,-4.52997 6.2047,-9.05999 9.30711,-13.59008"
         id="path3246"
         inkscape:path-effect="#path-effect3248"
         inkscape:original-d="m 533.67114,421.54535 c 3.10263,-4.52977 6.20501,-9.05978 9.30711,-13.59008" /></g></g><metadata
     id="metadata182"><rdf:RDF><cc:Work
         rdf:about=""><cc:license
           rdf:resource="http://creativecommons.org/licenses/by-sa/4.0/" /><dc:creator><cc:Agent><dc:title>Jameela P</dc:title></cc:Agent></dc:creator><dc:publisher><cc:Agent><dc:title>OpenDataKerala.org</dc:title></cc:Agent></dc:publisher><dc:date>April 2026</dc:date><dc:title>Election Symbols of Kerala</dc:title></cc:Work><cc:License
         rdf:about="http://creativecommons.org/licenses/by-sa/4.0/"><cc:permits
           rdf:resource="http://creativecommons.org/ns#Reproduction" /><cc:permits
           rdf:resource="http://creativecommons.org/ns#Distribution" /><cc:requires
           rdf:resource="http://creativecommons.org/ns#Notice" /><cc:requires
           rdf:resource="http://creativecommons.org/ns#Attribution" /><cc:permits
           rdf:resource="http://creativecommons.org/ns#DerivativeWorks" /><cc:requires
           rdf:resource="http://creativecommons.org/ns#ShareAlike" /></cc:License></rdf:RDF></metadata></svg>
