<?xml version="1.0" encoding="UTF-8" standalone="no"?>
<!-- Created with Inkscape (http://www.inkscape.org/) -->

<svg
   width="1500"
   height="1500"
   viewBox="0 0 396.87499 396.875"
   version="1.1"
   id="svg5"
   xml:space="preserve"
   inkscape:version="1.3 (0e150ed6c4, 2023-07-21)"
   sodipodi:docname="Dish Antenna.svg"
   inkscape:export-filename="Gas Cylinder.png"
   inkscape:export-xdpi="96"
   inkscape:export-ydpi="96"
   xmlns:inkscape="http://www.inkscape.org/namespaces/inkscape"
   xmlns:sodipodi="http://sodipodi.sourceforge.net/DTD/sodipodi-0.dtd"
   xmlns="http://www.w3.org/2000/svg"
   xmlns:svg="http://www.w3.org/2000/svg"
   xmlns:rdf="http://www.w3.org/1999/02/22-rdf-syntax-ns#"
   xmlns:cc="http://creativecommons.org/ns#"
   xmlns:dc="http://purl.org/dc/elements/1.1/"><title
     id="title186">Election Symbols of Kerala</title><sodipodi:namedview
     id="namedview7"
     pagecolor="#ffffff"
     bordercolor="#000000"
     borderopacity="0.25"
     inkscape:showpageshadow="2"
     inkscape:pageopacity="0.0"
     inkscape:pagecheckerboard="0"
     inkscape:deskcolor="#d1d1d1"
     inkscape:document-units="mm"
     showgrid="false"
     inkscape:zoom="0.25"
     inkscape:cx="230"
     inkscape:cy="1082"
     inkscape:window-width="1920"
     inkscape:window-height="991"
     inkscape:window-x="-9"
     inkscape:window-y="-9"
     inkscape:window-maximized="1"
     inkscape:current-layer="layer1" /><defs
     id="defs2"><inkscape:path-effect
       effect="bspline"
       id="path-effect3248"
       is_visible="true"
       lpeversion="1"
       weight="33.333333"
       steps="2"
       helper_size="0"
       apply_no_weight="true"
       apply_with_weight="true"
       only_selected="false" /><inkscape:path-effect
       effect="bspline"
       id="path-effect577"
       is_visible="true"
       lpeversion="1"
       weight="33.333333"
       steps="2"
       helper_size="0"
       apply_no_weight="true"
       apply_with_weight="true"
       only_selected="false" /></defs><g
     inkscape:label="Layer 1"
     inkscape:groupmode="layer"
     id="layer1"><path
       style="fill:#000000;stroke-width:2.36704"
       d="m 84.044297,385.66292 c -0.830783,-1.29171 -3.825845,-6.43503 -6.655711,-11.4296 -2.829866,-4.99457 -5.981484,-10.40927 -7.003572,-12.03265 -1.022087,-1.62339 -1.765195,-3.31435 -1.651365,-3.75768 0.20688,-0.80576 5.624701,-6.12481 35.587031,-34.93827 19.59767,-18.8462 37.68019,-36.30688 41.02598,-39.61513 l 2.5051,-2.47698 -3.02687,0.42502 c -4.75126,0.66715 -27.84561,0.47663 -34.98325,-0.28861 -8.08183,-0.86646 -19.896456,-2.81877 -26.642968,-4.4026 -12.788733,-3.00233 -19.832189,-9.59297 -22.80171,-21.33575 -3.230488,-12.77491 0.671789,-31.55926 10.982185,-52.86467 10.922607,-22.57053 28.605052,-48.08529 50.998403,-73.58782 l 6.32413,-7.20219 -11.33156,-11.36211 C 106.26346,99.657238 105.99989,99.442831 104.09011,99.99054 100.62223,100.98512 93.280294,100.64046 89.479753,99.304691 78.948678,95.603305 71.758347,84.609047 72.540984,73.404739 73.543497,59.052292 84.32775,49.015786 98.68886,49.069873 c 16.1455,0.06083 28.12014,15.816342 24.37011,32.064834 l -0.65044,2.818244 10.84279,10.462147 c 5.96352,5.754182 11.09166,10.474742 11.3959,10.490172 0.30421,0.0166 4.39346,-3.70614 9.08723,-8.270149 47.66299,-46.345347 96.12196,-77.89019 128.14103,-83.414622 17.0722,-2.945568 30.03136,1.623362 35.86239,12.643752 7.19682,13.601693 12.03034,41.434403 11.17551,64.351507 -1.14698,30.748502 -8.45083,57.578652 -22.91181,84.164812 l -4.36304,8.02135 2.16726,13.04733 2.16728,13.04736 -1.57794,2.69253 c -0.86785,1.48091 -4.0606,6.00944 -7.09498,10.06342 -11.80279,15.76871 -25.51148,28.50767 -40.53192,37.6648 -3.58779,2.18728 -3.29724,2.21514 -14.81804,-1.42165 -2.6695,-0.84269 -4.85366,-1.36838 -4.85366,-1.1682 0,0.43101 19.71773,39.27202 35.21547,69.36918 6.03049,11.71142 11.32333,22.30423 11.76189,23.53959 0.71009,2.00022 0.47658,4.09102 -2.13346,19.1015 -1.61195,9.27049 -3.1959,17.48954 -3.51988,18.26455 l -0.58904,1.40912 H 181.69316 85.554776 Z m 118.714373,-11.4296 c 0.57581,-4.99457 1.06901,-9.99698 1.09601,-11.11644 l 0.049,-2.03542 h -64.2458 c -35.33518,0 -64.151848,0.22132 -64.037046,0.49159 0.841719,1.98206 12.142673,21.2117 12.680512,21.57707 0.374063,0.25413 26.044414,0.39504 57.045234,0.31314 l 56.36513,-0.14889 z m 71.50368,8.92447 c 0.15906,-0.25834 1.31311,-6.24713 2.56445,-13.30841 1.25136,-7.06131 2.52338,-14.08623 2.82674,-15.61093 0.6125,-3.07858 1.2519,-1.73102 -24.0917,-50.77467 -5.25094,-10.16137 -12.95248,-25.28644 -17.11449,-33.61122 -4.16204,-8.32481 -7.80183,-15.28097 -8.08848,-15.45812 -0.28662,-0.17705 -2.4812,0.82551 -4.87681,2.22812 -10.12996,5.93107 -25.8622,12.77081 -37.38599,16.25396 -2.6663,0.80591 -4.85044,1.63167 -4.85368,1.83505 -0.007,0.40204 10.39159,34.23749 19.13252,62.25814 3.00862,9.64469 5.76251,18.56859 6.11976,19.83087 0.49052,1.73328 0.33113,5.18249 -0.65119,14.09129 -0.71542,6.48791 -1.17332,12.00758 -1.01757,12.26592 0.15575,0.25834 15.32755,0.46972 33.71516,0.46972 18.3876,0 33.56219,-0.21138 33.72128,-0.46972 z M 203.0231,354.97523 c -9.56277,-30.93656 -12.00281,-38.80062 -13.16521,-42.4304 -0.77218,-2.41116 -3.62475,-11.64789 -6.33905,-20.52607 -3.60713,-11.79843 -5.15835,-16.05643 -5.7647,-15.82375 -1.59311,0.61132 -19.0095,4.09645 -20.47143,4.09645 -1.47793,0 -4.75682,3.05627 -37.61767,35.06352 -6.5469,6.37685 -18.71289,18.14671 -27.035516,26.15526 L 77.49747,356.07122 h 62.93221 c 59.64697,0 62.91451,-0.0573 62.59342,-1.09599 z M 152.862,276.2161 c 52.82778,-7.04544 100.75243,-35.90585 133.97269,-80.67887 18.9462,-25.53497 30.82872,-53.62403 35.54637,-84.02799 2.41407,-15.558123 2.1456,-43.361955 -0.54878,-56.833887 -0.47189,-2.359488 -1.12536,-1.260922 -1.7272,2.903765 -0.5827,4.032204 -3.93648,14.868059 -6.90297,22.303023 -17.98952,45.087509 -66.97899,105.891559 -118.80128,147.452099 -31.13067,24.96625 -59.85829,41.07175 -86.31778,48.3921 -1.94415,0.53786 -1.48388,0.65832 4.07081,1.06533 3.44453,0.2524 6.54462,0.57891 6.88907,0.72557 1.42245,0.6057 26.85936,-0.37295 33.81907,-1.30114 z m -47.79385,-4.7163 c 23.47913,-4.78473 58.45114,-24.57741 90.69396,-51.32891 37.796,-31.35893 73.95145,-72.42787 96.34059,-109.43309 6.30709,-10.42451 15.47916,-28.861097 18.62194,-37.431577 9.69561,-26.440229 7.96071,-46.262098 -4.64981,-53.125612 -4.64498,-2.528116 -11.20154,-3.754289 -17.31027,-3.237281 -31.9578,2.704697 -79.35915,32.711841 -133.39745,84.44639 l -7.51535,7.19497 2.02472,2.06581 2.0247,2.06581 7.36946,-7.20131 c 30.23425,-29.544225 62.6727,-54.393969 88.62345,-67.890708 15.96898,-8.305324 27.21803,-11.822839 37.73906,-11.800802 10.44598,0.0213 16.09838,3.064937 19.85068,10.686945 1.85706,3.772208 2.08039,4.8276 2.28469,10.795994 0.26996,7.887258 -0.83289,14.506257 -4.02165,24.136816 C 283.69242,132.011 202.45356,219.90138 136.48617,252.39858 c -10.81048,5.3255 -16.46716,7.53222 -25.23991,9.84627 -16.610007,4.38129 -30.334431,1.71394 -35.839975,-6.96551 -2.720532,-4.28891 -3.647418,-8.21616 -3.647418,-15.45424 0,-14.51925 7.191183,-32.82375 22.206709,-56.52517 8.765024,-13.83528 22.258834,-31.53559 35.631774,-46.73953 l 6.61029,-7.51535 -1.88807,-1.87884 -1.8881,-1.87884 -3.6774,3.88621 c -5.56408,5.87996 -16.17431,18.80447 -24.05894,29.30659 -33.233066,44.26562 -47.361638,82.1195 -37.911092,101.57296 5.650406,11.63106 18.510766,15.47623 38.284112,11.44667 z m 2.06647,-12.89814 c 17.71883,-3.64957 44.19496,-17.81592 70.4032,-37.66998 8.51794,-6.45276 19.63088,-15.57734 25.04243,-20.56171 l 3.37357,-3.10728 -33.12184,-32.41338 -33.12184,-32.41338 -3.67248,3.94107 c -6.00837,6.44779 -18.97672,22.12282 -24.72716,29.88803 -23.916251,32.29586 -35.921589,58.24656 -35.041784,75.74622 0.767418,15.2649 10.888829,20.70513 30.865904,16.59041 z m 150.15301,-5.63745 c 14.69713,-9.38143 29.3442,-24.0144 40.50685,-40.46795 l 3.29321,-4.85415 -1.32944,-7.98457 c -2.16414,-12.99772 -1.54012,-12.1801 -5.17369,-6.77887 -7.0025,10.40908 -21.18765,26.83815 -30.55357,35.38679 -6.96781,6.35976 -17.41385,14.73311 -23.52247,18.85517 l -4.87735,3.2912 8.09146,2.6637 c 4.45032,1.46503 8.29995,2.69236 8.55476,2.72737 0.25484,0.035 2.50943,-1.24239 5.01024,-2.83869 z m -42.87638,-63.65617 4.52649,-4.55693 -14.2495,-14.09262 c -7.83722,-7.75094 -25.80435,-25.34694 -39.92694,-39.10225 -14.12258,-13.75529 -29.83104,-29.09131 -34.90765,-34.080063 l -9.23022,-9.070423 -3.29537,3.458741 c -1.81244,1.902319 -4.08399,4.006971 -5.04785,4.677009 l -1.75249,1.218244 14.27808,13.860842 c 7.85293,7.62347 29.91937,29.22881 49.03655,48.01183 19.11716,18.78305 35.04738,34.16933 35.40045,34.19176 0.35307,0.0213 2.67887,-2.00985 5.16845,-4.51614 z m 26.08409,-27.07019 c 7.14609,-8.06105 20.75407,-25.07076 26.84931,-33.56111 30.46806,-42.440424 43.49435,-80.528852 31.9218,-93.338273 -2.88097,-3.188899 -4.85428,-4.193565 -9.47905,-4.826038 -23.7018,-3.241423 -70.90188,25.175236 -122.36441,73.669101 -6.45852,6.08594 -11.74274,11.2476 -11.74274,11.47036 0,0.33051 25.22119,25.19626 60.74907,59.89295 l 5.94967,5.81045 6.28219,-6.42732 c 3.45522,-3.53503 8.78058,-9.24558 11.83416,-12.69012 z M 106.31423,94.443952 c 13.85539,-6.143152 16.97586,-24.897132 5.84912,-35.153394 -4.48022,-4.129725 -7.77071,-5.386765 -14.100761,-5.386765 -6.330078,0 -9.62057,1.25704 -14.100783,5.386765 -11.878702,10.949402 -7.410963,30.957699 8.040997,36.010831 3.623274,1.184868 10.655367,0.763559 14.311427,-0.857437 z"
       id="path2" /></g><metadata
     id="metadata182"><rdf:RDF><cc:Work
         rdf:about=""><cc:license
           rdf:resource="http://creativecommons.org/licenses/by-sa/4.0/" /><dc:publisher><cc:Agent><dc:title>OpenDataKerala.org</dc:title></cc:Agent></dc:publisher><dc:date>April 2026</dc:date><dc:title>Election Symbols of Kerala</dc:title><dc:creator><cc:Agent><dc:title>Manoj Karingamadathil</dc:title></cc:Agent></dc:creator></cc:Work><cc:License
         rdf:about="http://creativecommons.org/licenses/by-sa/4.0/"><cc:permits
           rdf:resource="http://creativecommons.org/ns#Reproduction" /><cc:permits
           rdf:resource="http://creativecommons.org/ns#Distribution" /><cc:requires
           rdf:resource="http://creativecommons.org/ns#Notice" /><cc:requires
           rdf:resource="http://creativecommons.org/ns#Attribution" /><cc:permits
           rdf:resource="http://creativecommons.org/ns#DerivativeWorks" /><cc:requires
           rdf:resource="http://creativecommons.org/ns#ShareAlike" /></cc:License></rdf:RDF></metadata></svg>
