<?xml version="1.0" encoding="UTF-8" standalone="no"?>
<!-- Created with Inkscape (http://www.inkscape.org/) -->

<svg
   width="1500"
   height="1500"
   viewBox="0 0 396.87499 396.875"
   version="1.1"
   id="svg5"
   xml:space="preserve"
   inkscape:version="1.3 (0e150ed6c4, 2023-07-21)"
   sodipodi:docname="Flag with three stars.svg"
   inkscape:export-filename="Flag with three stars.png"
   inkscape:export-xdpi="96"
   inkscape:export-ydpi="96"
   xmlns:inkscape="http://www.inkscape.org/namespaces/inkscape"
   xmlns:sodipodi="http://sodipodi.sourceforge.net/DTD/sodipodi-0.dtd"
   xmlns="http://www.w3.org/2000/svg"
   xmlns:svg="http://www.w3.org/2000/svg"
   xmlns:rdf="http://www.w3.org/1999/02/22-rdf-syntax-ns#"
   xmlns:cc="http://creativecommons.org/ns#"
   xmlns:dc="http://purl.org/dc/elements/1.1/"><title
     id="title186">Election Symbols of Kerala</title><sodipodi:namedview
     id="namedview7"
     pagecolor="#ffffff"
     bordercolor="#000000"
     borderopacity="0.25"
     inkscape:showpageshadow="2"
     inkscape:pageopacity="0.0"
     inkscape:pagecheckerboard="0"
     inkscape:deskcolor="#d1d1d1"
     inkscape:document-units="mm"
     showgrid="false"
     inkscape:zoom="0.25"
     inkscape:cx="230"
     inkscape:cy="1082"
     inkscape:window-width="1920"
     inkscape:window-height="991"
     inkscape:window-x="-9"
     inkscape:window-y="-9"
     inkscape:window-maximized="1"
     inkscape:current-layer="layer1" /><defs
     id="defs2"><inkscape:path-effect
       effect="bspline"
       id="path-effect3248"
       is_visible="true"
       lpeversion="1"
       weight="33.333333"
       steps="2"
       helper_size="0"
       apply_no_weight="true"
       apply_with_weight="true"
       only_selected="false" /><inkscape:path-effect
       effect="bspline"
       id="path-effect577"
       is_visible="true"
       lpeversion="1"
       weight="33.333333"
       steps="2"
       helper_size="0"
       apply_no_weight="true"
       apply_with_weight="true"
       only_selected="false" /></defs><g
     inkscape:label="Layer 1"
     inkscape:groupmode="layer"
     id="layer1"><path
       style="fill:#000000;stroke-width:1.56332"
       d="m 355.34943,369.29327 c -17.86078,-18.36309 -42.29074,-31.07434 -66.7511,-34.73151 -3.47832,-0.52006 -8.15431,-0.70165 -19.85417,-0.77103 l -15.30425,-0.0908 -4.34311,-1.15794 c -7.85087,-2.09317 -14.30252,-5.37665 -21.04487,-10.71048 -1.73382,-1.37161 -8.08767,-7.43931 -14.11966,-13.48378 -6.032,-6.04447 -12.91892,-12.67851 -15.30425,-14.74235 -15.04206,-13.01456 -28.19032,-20.93628 -42.39082,-25.54009 -8.77445,-2.84466 -15.17953,-3.85765 -27.73241,-4.38593 -10.77408,-0.45341 -15.2141,-1.18107 -23.06373,-3.77984 -5.946203,-1.9686 -11.358356,-4.5243 -17.659382,-8.339 -7.979298,-4.83074 -17.837801,-12.19875 -23.877612,-17.84554 l -2.594612,-2.42579 v 66.16593 66.16594 l -1.210213,1.67066 c -1.569105,2.16607 -4.200111,3.2212 -7.929787,3.18015 -3.377961,-0.0372 -5.652436,-1.09115 -6.691059,-3.10057 -0.62783,-1.21467 -0.717299,-2.3587 -0.620435,-7.93452 0.06222,-3.58338 0.04815,-6.51497 -0.03111,-6.51465 -0.07942,3.1e-4 -1.661513,1.14785 -3.515846,2.55007 -6.2815,4.74999 -13.392514,7.24244 -19.564363,6.85739 -5.392862,-0.33645 -7.727306,-2.06067 -8.609956,-6.35927 -0.208547,-1.01566 -0.05096,-1.54544 0.729351,-2.45266 l 0.995351,-1.15717 3.990876,0.9613 c 8.223363,1.98084 14.673327,-0.10381 22.986487,-7.42926 l 3.340519,-2.94361 -0.130381,-32.96353 -0.130381,-32.96353 -1.762269,-4.75673 C 35.13606,248.61701 27.677317,213.67976 25.097744,185.67806 c -0.905538,-9.82981 -1.238087,-31.25374 -0.63563,-40.94922 1.73183,-27.87119 8.194535,-61.627763 16.620255,-86.812451 0.904193,-2.7027 1.584253,-4.973767 1.511199,-5.046806 -0.07301,-0.07301 -1.894604,0.980906 -4.047953,2.342089 -5.919247,3.741745 -11.425888,5.037175 -15.023088,3.534168 -2.243256,-0.937289 -4.40314,-3.082681 -4.40314,-4.373593 0,-1.829069 1.087728,-2.418957 5.387953,-2.921971 4.111846,-0.480971 6.178525,-1.292804 12.604898,-4.95149 2.529156,-1.439912 3.226756,-1.649225 5.515051,-1.654837 1.440803,-0.0031 2.557592,-0.148359 2.481771,-0.321747 -0.07582,-0.173451 -0.654343,-1.348052 -1.285565,-2.610245 -2.094209,-4.187542 -1.935469,-7.808318 0.511472,-11.666765 4.104451,-6.472037 14.003272,-6.448744 18.168849,0.04284 2.52434,3.933846 2.561266,8.656403 0.09802,12.540505 -1.02421,1.615003 -1.131313,2.105917 -0.964037,4.418584 l 0.188192,2.601725 4.069558,3.081915 c 12.283979,9.302742 26.036823,16.649989 37.985971,20.293386 9.11849,2.780319 17.12242,4.158949 32.14443,5.536688 27.1601,2.490979 38.98525,5.626906 53.17209,14.10076 9.17541,5.480533 15.25328,10.484275 30.53349,25.137395 18.56587,17.80392 27.66257,24.89362 39.08558,30.46216 6.9627,3.39421 9.34997,4.07156 13.50248,3.83119 3.11801,-0.1805 3.35274,-0.26888 6.65319,-2.50485 4.65846,-3.15595 7.7264,-4.06479 14.58913,-4.32178 17.68144,-0.66216 44.5928,7.81183 62.59775,19.71109 13.69295,9.04952 21.45906,18.2818 23.4068,27.82581 1.20629,5.91092 1.13808,6.74725 -4.69922,57.61521 -0.67875,5.91489 -1.98943,18.57192 -2.91262,28.12675 -0.92319,9.55481 -2.04636,20.81585 -2.49592,25.02453 -1.02188,9.56647 -2.89851,29.35295 -4.5507,47.9809 -1.45283,16.38021 -1.76516,18.35274 -3.12051,19.70809 -1.76953,1.76954 -3.02043,1.34891 -6.43802,-2.1648 z m 3.51871,-9.47752 c 0.15321,-1.81997 0.92553,-10.10288 1.71614,-18.40648 0.7906,-8.30359 1.81109,-19.0993 2.26775,-23.99045 0.45666,-4.89116 1.38368,-14.38394 2.06003,-21.09505 0.67637,-6.71114 1.79574,-17.87911 2.48748,-24.81772 1.34125,-13.45365 3.79307,-35.80789 5.78427,-52.73765 1.92253,-16.3458 2.107,-18.90575 1.61655,-22.43194 -0.57825,-4.15753 -1.66002,-6.92828 -4.21029,-10.78395 -8.19866,-12.39528 -30.54342,-25.65906 -53.08741,-31.51251 -10.09827,-2.62197 -13.42625,-3.09822 -21.66582,-3.10056 -6.47279,-0.002 -7.90634,0.11225 -9.30157,0.73968 -2.43133,1.09353 -5.78268,3.32595 -5.25636,3.50139 0.25101,0.0836 2.62718,-0.42719 5.28039,-1.13527 5.31736,-1.41906 6.84782,-1.45265 3.75722,-0.0825 -4.59867,2.03877 -11.08044,3.38443 -16.27442,3.37866 -11.87626,-0.0125 -26.32801,-7.14842 -42.3177,-20.8935 -2.16121,-1.85782 -7.93132,-7.24985 -12.82248,-11.98231 C 204.87975,110.89839 197.74444,104.84127 189.05127,99.125519 175.43247,90.171178 161.92638,86.24049 138.24435,84.339117 112.64377,82.283694 97.775626,78.321724 80.678137,68.99919 75.748346,66.311186 67.001473,60.608286 64.02033,58.138427 c -1.1252,-0.932239 -2.107887,-1.63292 -2.183724,-1.557083 -0.07582,0.07582 -0.250647,37.715734 -0.388454,83.644216 l -0.250569,83.50631 4.29563,4.15085 c 12.300472,11.88592 29.358269,22.98758 41.205287,26.81746 7.36546,2.3811 11.83729,3.1289 21.41196,3.58063 11.08957,0.5232 15.31625,1.00417 21.7155,2.47105 22.69975,5.20342 44.52989,19.23295 67.06843,43.10273 13.44905,14.24343 22.13583,20.41494 32.8374,23.32934 4.07139,1.10879 4.33143,1.12594 21.28733,1.40399 14.98735,0.24577 17.71946,0.39102 21.53037,1.14454 22.3693,4.42307 40.87128,13.33029 58.29994,28.06676 1.93372,1.63502 4.34833,3.83057 5.36582,4.879 2.17344,2.23957 2.22821,2.18047 2.65289,-2.86255 z m -4.53302,-2.31731 c -1.46152,-1.53864 -6.89557,-5.80474 -10.31055,-8.0945 -6.94377,-4.65582 -20.81818,-12.11144 -26.0586,-14.00296 -2.23119,-0.80534 -3.63024,-1.73671 -1.86134,-1.23912 2.31306,0.65067 12.55761,4.87697 17.18649,7.09013 8.29103,3.9641 13.36586,7.14917 18.90261,11.86371 l 2.37836,2.02517 v -1.83634 c 0,-4.39837 3.58841,-39.50267 6.62799,-64.83972 1.13261,-9.44106 2.62161,-22.00503 3.30888,-27.91992 0.68728,-5.91488 1.81586,-15.50073 2.50797,-21.30187 1.62573,-13.62652 2.31749,-19.69301 2.71197,-23.78364 0.17552,-1.81997 0.38763,-2.88168 0.47136,-2.35934 0.27468,1.71349 -1.16325,20.29269 -2.63157,34.00192 -0.79188,7.39362 -1.61184,15.21119 -1.82213,17.3724 -1.01001,10.38006 -2.98489,29.26985 -3.52436,33.71073 -0.96152,7.91487 -3.78561,34.03902 -5.16165,47.74768 -0.69504,6.92409 -1.32016,12.64574 -1.3892,12.71477 -0.0691,0.0691 -0.67032,-0.44808 -1.33623,-1.1491 z m -97.05466,-31.38448 c -8.685,-1.83132 -16.68645,-5.68933 -24.62722,-11.87437 -3.66452,-2.85426 -8.14179,-7.21164 -21.81949,-21.23521 -11.12202,-11.40326 -18.13807,-17.07584 -28.42409,-22.98131 -5.20556,-2.98865 -12.04639,-5.98519 -17.48626,-7.65965 -2.04746,-0.63023 -3.30492,-1.15762 -2.79434,-1.17199 1.4255,-0.04 11.37969,3.36174 16.21198,5.5404 14.85806,6.69884 26.03179,15.37071 41.80153,32.44199 3.86477,4.18373 8.65664,9.09947 10.64864,10.92386 8.94945,8.19652 17.44453,13.09844 26.78498,15.45569 6.1686,1.55679 5.99443,1.88693 -0.29573,0.56059 z m -147.7092,-73.20839 c -8.44598,-3.01733 -21.681338,-10.31954 -28.40765,-15.67309 -4.474083,-3.56096 -9.764,-8.72043 -13.337704,-13.00878 -5.450814,-6.54082 -5.522023,-6.6992 -1.24395,-2.7667 11.59615,10.65939 15.849867,14.25379 22.854231,19.31186 7.427789,5.36384 15.602233,9.86974 22.335943,12.31196 2.16121,0.78383 3.55721,1.42484 3.10222,1.42445 -0.455,-3.9e-4 -2.84138,-0.72027 -5.30309,-1.5997 z m 119.77946,-13.35232 c -1.11956,-1.42186 -4.2911,-5.2227 -7.04786,-8.44631 l -5.01228,-5.86111 -10.20986,4.12484 c -5.61543,2.26866 -10.6023,4.06856 -11.08193,3.99979 -0.47962,-0.0688 -0.93353,-0.44763 -1.00867,-0.8419 -0.0752,-0.39463 2.57224,-4.87065 5.88998,-9.95813 3.31463,-5.0827 6.02659,-9.3707 6.02659,-9.52889 0,-0.15818 -2.97813,-4.11874 -6.61805,-8.80125 -3.63993,-4.6825 -6.61805,-8.75084 -6.61805,-9.04076 0,-1.59216 1.03379,-1.48179 11.77272,1.25689 5.85737,1.49377 10.68031,2.65787 10.71761,2.58688 0.0374,-0.071 1.27109,-1.89733 2.74172,-4.05854 1.47065,-2.1612 4.17829,-6.16306 6.017,-8.89301 2.70244,-4.01234 3.55314,-4.98835 4.43907,-5.09303 1.39568,-0.1649 1.32391,-0.56714 2.11921,11.87589 0.35476,5.55054 0.72899,10.17585 0.83162,10.27849 0.10271,0.10271 4.34056,1.1831 9.4176,2.40107 12.68503,3.04306 12.33321,2.92668 12.33321,4.08008 0,1.08702 0.77886,0.70005 -12.05774,5.99081 -4.47055,1.8426 -8.33279,3.35017 -8.58279,3.35017 -0.54301,0 -0.54881,1.37499 -0.0558,13.22922 0.25478,6.12586 0.23452,9.04888 -0.0652,9.41005 -0.86817,1.04608 -1.94338,0.48473 -3.9481,-2.06125 z m -105.6407,-29.36764 c -3.91846,-4.60679 -7.23031,-8.37597 -7.35964,-8.37597 -0.34781,0 -4.69569,1.6271 -12.95276,4.84731 -4.03724,1.57451 -7.75799,2.80317 -8.268351,2.73037 -0.510346,-0.0728 -0.993319,-0.4754 -1.073267,-0.89467 -0.08802,-0.46176 2.318592,-4.41014 6.104468,-10.01502 l 6.24983,-9.25274 -3.59629,-4.66877 c -1.97796,-2.56784 -4.959545,-6.36527 -6.625732,-8.43872 -2.957303,-3.68018 -3.647274,-5.32559 -2.42915,-5.79304 0.330142,-0.12662 3.727065,0.61372 7.548712,1.64534 10.53709,2.84438 13.77634,3.62148 14.1453,3.39345 0.18492,-0.11428 2.96402,-4.10039 6.17577,-8.85799 3.21175,-4.75759 6.12361,-8.75918 6.47077,-8.89241 1.82445,-0.7001 1.96183,0.073 2.54464,14.3214 0.16111,3.93906 0.47933,7.18925 0.73627,7.52007 0.24888,0.32045 5.14516,1.72906 10.88059,3.13027 8.57742,2.09552 10.47236,2.68719 10.67764,3.33397 0.13726,0.43249 0.16224,0.92759 0.0555,1.10026 -0.10677,0.17265 -4.86502,2.17525 -10.57397,4.45021 l -10.3799,4.13628 0.002,2.8954 c 0.001,1.59247 0.19759,6.49356 0.43614,10.89134 0.44418,8.18866 0.32731,9.16964 -1.09243,9.16964 -0.30365,0 -3.7581,-3.76918 -7.67656,-8.37598 z m 55.51262,-35.86954 -8.35036,-9.50074 -2.56082,0.97156 c -1.40844,0.53434 -6.70994,2.58825 -11.78112,4.56422 -5.07118,1.97598 -9.53836,3.53208 -9.92708,3.458 -1.485,-0.28296 -1.01349,-1.96551 1.69202,-6.03785 1.46724,-2.2085 4.60916,-6.99358 6.98203,-10.63351 l 4.31433,-6.61805 -7.58259,-9.51346 c -5.8804,-7.37783 -7.55688,-9.74481 -7.46802,-10.54399 0.0653,-0.58839 0.42174,-1.08878 0.8305,-1.16629 0.39375,-0.0747 5.95077,1.20048 12.34889,2.83365 9.7476,2.48813 11.7186,2.87826 12.1613,2.40717 0.54778,-0.58292 6.95118,-9.86509 11.15258,-16.16639 1.32344,-1.98492 2.77438,-3.72579 3.2243,-3.86858 1.80265,-0.57215 2.08727,0.48621 2.64748,9.84421 0.28979,4.8407 0.58089,10.29034 0.64689,12.1103 l 0.12006,3.30903 11.98512,3.00347 c 6.59182,1.65192 12.2657,3.28407 12.60865,3.62702 1.40543,1.4054 1.16868,1.5292 -17.35527,9.07534 -3.52617,1.43647 -6.38518,2.77136 -6.35333,2.96643 0.27211,1.66648 1.04283,24.19523 0.84533,24.70988 -0.63757,1.66149 -1.98804,0.49002 -10.18082,-8.83142 z m 88.69428,-14.70363 c -4.82147,-0.88268 -11.12994,-2.95286 -14.68382,-4.81862 -3.36686,-1.76758 -3.26659,-1.75048 2.27494,0.38778 5.57996,2.15309 10.21727,3.00757 17.78604,3.27729 7.32686,0.26109 11.16963,-0.11491 17.43812,-1.70618 6.33056,-1.60703 6.49424,-1.58505 1.26264,0.16962 -2.68185,0.89949 -6.21838,1.93262 -7.85896,2.29585 -4.26808,0.94496 -12.16257,1.13687 -16.21896,0.39426 z M 54.718589,362.07615 c 0.78882,-0.42217 0.80006,-2.61803 0.80006,-156.3516 V 49.801145 h -0.969243 -0.969243 l -0.268829,8.375974 c -0.487631,15.193178 -0.335316,304.327211 0.160319,304.327211 0.24577,0 0.806892,-0.19268 1.246936,-0.42818 z m -24.48307,-6.58544 c 3.047178,-1.20779 5.551883,-2.5148 5.300673,-2.76601 -0.114592,-0.11459 -0.795011,0.0949 -1.511903,0.46557 -3.53842,1.82979 -10.482424,2.76136 -14.1811,1.90244 -1.235992,-0.28703 -1.551111,-0.2403 -1.551111,0.23001 0,1.02926 1.744338,1.39689 5.790805,1.22048 2.705905,-0.11803 4.621707,-0.44568 6.152636,-1.05249 z M 45.140202,160.96383 c -0.03752,-97.517977 -0.04268,-98.117823 -0.835126,-95.651622 -1.099499,3.421999 -4.630978,17.028829 -6.172725,23.78364 -3.261211,14.288202 -5.677183,28.619632 -7.464402,44.278602 -1.10089,9.64558 -1.536338,32.57187 -0.833328,43.87494 1.486718,23.90323 5.832405,48.77298 13.326198,76.26381 1.510918,5.5428 1.524175,5.58399 1.797318,5.58399 0.120845,0 0.202826,-44.16002 0.182065,-98.13336 z M 30.752337,54.954412 c 0.99546,-0.350637 3.282379,-1.603607 5.082043,-2.784383 1.799647,-1.180776 4.49858,-2.573601 5.997601,-3.095156 l 2.725509,-0.948311 -2.169233,0.197088 c -1.523002,0.138354 -2.878464,0.634364 -4.549919,1.664921 -4.461545,2.750819 -7.452224,4.018344 -10.033423,4.252404 -2.358425,0.213847 -3.098095,0.61945 -1.964109,1.077034 1.031635,0.416265 3.140758,0.260137 4.911531,-0.363597 z M 55.963351,37.275726 c 0.358345,-0.27713 0.985393,-1.016846 1.393466,-1.6438 0.63846,-0.980921 0.669258,-1.315378 0.220882,-2.397868 -0.596657,-1.440459 -2.285325,-2.459822 -4.07492,-2.459822 -1.477557,0 -3.774935,1.796974 -3.774935,2.952706 0,1.112162 1.08643,3.120638 1.964734,3.632203 0.99249,0.578085 3.478232,0.529528 4.270773,-0.08348 z"
       id="path10" /></g><metadata
     id="metadata182"><rdf:RDF><cc:Work
         rdf:about=""><cc:license
           rdf:resource="http://creativecommons.org/licenses/by-sa/4.0/" /><dc:publisher><cc:Agent><dc:title>OpenDataKerala.org</dc:title></cc:Agent></dc:publisher><dc:date>April 2026</dc:date><dc:title>Election Symbols of Kerala</dc:title><dc:creator><cc:Agent><dc:title>Manoj Karingamadathil</dc:title></cc:Agent></dc:creator></cc:Work><cc:License
         rdf:about="http://creativecommons.org/licenses/by-sa/4.0/"><cc:permits
           rdf:resource="http://creativecommons.org/ns#Reproduction" /><cc:permits
           rdf:resource="http://creativecommons.org/ns#Distribution" /><cc:requires
           rdf:resource="http://creativecommons.org/ns#Notice" /><cc:requires
           rdf:resource="http://creativecommons.org/ns#Attribution" /><cc:permits
           rdf:resource="http://creativecommons.org/ns#DerivativeWorks" /><cc:requires
           rdf:resource="http://creativecommons.org/ns#ShareAlike" /></cc:License></rdf:RDF></metadata></svg>
