<?xml version="1.0" encoding="UTF-8" standalone="no"?>
<!-- Created with Inkscape (http://www.inkscape.org/) -->

<svg
   width="1500"
   height="1500"
   viewBox="0 0 396.87499 396.875"
   version="1.1"
   id="svg5"
   xml:space="preserve"
   inkscape:version="1.2.2 (b0a8486541, 2022-12-01)"
   sodipodi:docname="indi02.svg"
   inkscape:export-filename="rjd.png"
   inkscape:export-xdpi="96"
   inkscape:export-ydpi="96"
   xmlns:inkscape="http://www.inkscape.org/namespaces/inkscape"
   xmlns:sodipodi="http://sodipodi.sourceforge.net/DTD/sodipodi-0.dtd"
   xmlns="http://www.w3.org/2000/svg"
   xmlns:svg="http://www.w3.org/2000/svg"
   xmlns:rdf="http://www.w3.org/1999/02/22-rdf-syntax-ns#"
   xmlns:cc="http://creativecommons.org/ns#"
   xmlns:dc="http://purl.org/dc/elements/1.1/"><title
     id="title186">Election Symbols of Kerala</title><sodipodi:namedview
     id="namedview7"
     pagecolor="#ffffff"
     bordercolor="#000000"
     borderopacity="0.25"
     inkscape:showpageshadow="2"
     inkscape:pageopacity="0.0"
     inkscape:pagecheckerboard="0"
     inkscape:deskcolor="#d1d1d1"
     inkscape:document-units="mm"
     showgrid="false"
     inkscape:zoom="0.35355339"
     inkscape:cx="-165.46299"
     inkscape:cy="974.39314"
     inkscape:window-width="1854"
     inkscape:window-height="1011"
     inkscape:window-x="0"
     inkscape:window-y="0"
     inkscape:window-maximized="1"
     inkscape:current-layer="layer1" /><defs
     id="defs2"><inkscape:path-effect
       effect="bspline"
       id="path-effect3248"
       is_visible="true"
       lpeversion="1"
       weight="33.333333"
       steps="2"
       helper_size="0"
       apply_no_weight="true"
       apply_with_weight="true"
       only_selected="false" /><inkscape:path-effect
       effect="bspline"
       id="path-effect577"
       is_visible="true"
       lpeversion="1"
       weight="33.333333"
       steps="2"
       helper_size="0"
       apply_no_weight="true"
       apply_with_weight="true"
       only_selected="false" /></defs><g
     inkscape:label="Layer 1"
     inkscape:groupmode="layer"
     id="layer1"><path
       style="fill:#000000;stroke-width:0.461082"
       d="m 192.69417,387.46966 c -31.12886,-1.75154 -56.90328,-8.9989 -72.0535,-20.26035 -4.27231,-3.17568 -9.90026,-9.08905 -12.01152,-12.62069 -2.92881,-4.89922 -3.58111,-7.78113 -6.76271,-29.87761 -2.778593,-19.29764 -3.975882,-27.3648 -4.62698,-31.17576 -0.170608,-0.99886 -1.449854,-2.77298 -3.989474,-5.53299 C 66.579269,259.01693 49.598179,221.03214 44.462513,178.87012 41.47872,154.37419 42.156813,120.2619 46.104288,96.278774 49.473282,75.810241 54.823454,59.512072 60.559072,52.245339 c 0.700556,-0.88758 1.411864,-2.339996 1.580642,-3.227576 0.464371,-2.441908 2.230103,-5.901799 4.635414,-9.082968 C 76.95227,26.474888 99.397555,17.594872 139.90017,11.00435 c 14.32442,-2.3308472 37.35421,-3.9502116 55.98767,-3.9368453 45.64135,0.032762 91.2564,7.0562353 120.37661,18.5347903 12.63815,4.981684 22.14972,10.6802 28.63034,17.15283 4.59317,4.58749 6.68999,8.108777 7.61966,12.795931 0.45307,2.28423 0.39649,3.015753 -0.44846,5.79757 -0.53183,1.750901 -1.68404,4.122614 -2.56047,5.270427 -1.58208,2.07199 -1.60685,2.179234 -3.45447,14.951168 -1.02352,7.075318 -2.49298,17.117716 -3.26546,22.316429 -0.77248,5.1987 -2.11699,14.32814 -2.98782,20.28764 -0.87081,5.9595 -2.33001,15.81515 -3.24265,21.90145 -0.91264,6.0863 -2.46735,16.56442 -3.45492,23.28471 -0.98758,6.72028 -2.1206,14.29356 -2.51782,16.82952 -0.39723,2.53596 -1.2442,8.13811 -1.88218,12.44925 -0.63798,4.31112 -1.76855,11.78066 -2.5124,16.59899 -0.74384,4.81831 -2.72269,17.78627 -4.39743,28.81769 -1.67475,11.0314 -3.64322,23.89563 -4.3744,28.58714 -0.73117,4.69153 -2.39482,15.37711 -3.69698,23.74578 -7.79837,50.11811 -9.54082,59.49175 -11.94361,64.25166 -1.68335,3.3347 -6.17134,8.26654 -9.70339,10.66307 -11.71289,7.94729 -33.05672,13.59732 -59.26357,15.68799 -8.3386,0.66522 -31.81583,0.94504 -40.11425,0.47812 z m 41.26694,-3.44506 c 27.03502,-2.45055 46.1132,-7.68808 57.53777,-15.79584 4.72263,-3.35153 8.07679,-8.22461 9.48233,-13.7764 1.51613,-5.98851 7.47347,-41.86249 12.28385,-73.9709 0.77885,-5.19872 1.92585,-12.66826 2.54889,-16.59899 0.62302,-3.93073 2.28322,-14.72007 3.6893,-23.97632 1.40607,-9.25624 3.47524,-22.84667 4.59813,-30.20094 1.80963,-11.85182 4.33458,-28.75412 11.57167,-77.46196 1.13039,-7.60788 2.56168,-17.35977 3.18066,-21.67091 2.77265,-19.31155 5.31518,-36.510108 5.53577,-37.445768 0.20262,-0.859557 -0.42826,-0.57287 -4.00674,1.820731 -16.27076,10.883326 -46.01014,17.76606 -89.59208,20.734727 -13.17605,0.897513 -54.64292,0.737326 -68.47084,-0.264504 C 140.96071,92.421082 109.1388,85.545823 87.106164,74.846245 80.663909,71.717723 73.48363,67.229565 69.249728,63.684735 68.01905,62.654343 66.915692,61.907746 66.797835,62.025621 c -0.117805,0.117804 -0.0035,1.327082 0.254675,2.687171 0.257916,1.360072 1.498632,9.641286 2.757123,18.402678 4.297561,29.9189 10.552601,73.0969 11.25828,77.71493 0.387519,2.53595 1.536239,10.52422 2.552724,17.7517 1.804594,12.83118 6.731418,46.82581 8.119181,56.0216 1.119704,7.41949 3.911698,26.60627 4.99857,34.35067 l 1.003015,7.1468 3.904047,3.14142 c 17.5832,14.14851 37.10321,22.34092 56.23696,23.60227 5.78539,0.3814 15.48439,-0.36306 21.8476,-1.67693 20.48348,-4.22939 45.25341,-19.01343 60.97106,-36.39084 15.84573,-17.51904 31.55,-44.94456 45.00017,-78.58712 7.61357,-19.04371 13.04511,-34.87787 20.32401,-59.24918 2.85192,-9.54887 2.82054,-9.34975 1.75032,-11.10527 -1.2683,-2.08043 -1.30977,-6.23814 -0.0861,-8.6244 2.24587,-4.37936 7.31105,-6.34221 12.20138,-4.72825 2.44632,0.80735 5.16001,4.03344 5.76474,6.85325 0.99025,4.61738 -0.68867,8.17179 -5.15758,10.91896 -0.48873,0.30046 -1.48629,3.34146 -2.86326,8.72858 -16.2169,63.44529 -40.14135,114.49547 -67.8656,144.81209 -10.99494,12.02304 -24.35341,22.39151 -37.9401,29.44804 -10.46184,5.43358 -19.56032,8.39565 -30.79538,10.02565 -5.86362,0.8507 -8.15764,0.95201 -16.9267,0.74743 -11.35552,-0.26488 -17.2462,-1.09241 -26.97337,-3.78922 -9.50898,-2.63632 -18.63674,-6.29943 -29.73985,-11.93508 -3.55033,-1.80207 -6.5802,-3.3378 -6.73304,-3.41279 -0.15283,-0.0749 0.41162,4.48739 1.25431,10.13858 0.84269,5.65116 1.94507,13.28342 2.44973,16.96057 1.72428,12.56337 3.29729,22.82221 3.78238,24.66793 0.26659,1.0144 1.19715,3.20632 2.06789,4.87096 9.51486,18.18995 39.37169,30.29045 81.78747,33.14718 8.4839,0.57139 32.66074,0.20239 41.95855,-0.6404 z m -54.33482,-73.38637 c 15.02467,-1.94269 27.5593,-6.93655 42.80775,-17.05488 22.73889,-15.08872 41.26587,-37.73241 58.06559,-70.96782 11.09732,-21.9542 20.20314,-45.25787 28.55775,-73.08521 2.20965,-7.35986 7.43761,-27.11047 7.43761,-28.09842 0,-0.26686 -0.52539,-0.48518 -1.16753,-0.48518 -0.64212,0 -1.88242,-0.29872 -2.7562,-0.66381 l -1.58871,-0.6638 -0.50063,1.93178 c -1.11654,4.30838 -6.19529,21.28604 -8.37093,27.98297 -14.23354,43.81287 -32.70995,82.82659 -50.33269,106.27965 -18.13387,24.13326 -44.41731,41.96469 -70.61119,47.90464 -25.69832,5.82757 -53.08718,-1.00366 -77.46196,-19.32029 -6.861748,-5.15632 -8.841306,-6.96452 -12.833115,-11.72225 C 81.648799,261.68272 72.055698,246.0088 65.877162,231.8372 55.251647,207.46559 50.070497,185.74284 48.541142,159.15322 c -1.02689,-17.85351 0.723123,-41.31009 4.452537,-59.680678 2.621682,-12.914084 6.477458,-26.20016 9.886707,-34.067315 0.959256,-2.21353 0.967656,-2.389836 0.263772,-5.532997 -1.120924,-5.005349 -1.247112,-5.011535 -3.607566,-0.176794 -7.003711,14.34517 -11.582471,35.596269 -13.42678,62.316704 -1.152153,16.69253 -0.670669,41.18221 1.103236,56.1124 5.048516,42.49132 23.383508,82.74606 50.096014,109.98656 3.986498,4.06528 4.296188,4.27277 12.159628,8.14712 18.30737,9.02009 29.81475,12.62485 47.26101,14.80478 3.9894,0.4985 17.72722,0.24363 22.89659,-0.42477 z M 92.422511,259.48667 C 91.440984,252.64811 89.887946,241.9695 88.971315,235.75641 87.211875,223.83059 85.025252,208.72872 79.057301,167.28556 77.048797,153.3378 73.623706,129.68423 71.446023,114.72209 69.268323,99.759944 66.95966,83.78342 66.315654,79.218707 65.671648,74.653975 64.99298,70.423472 64.807507,69.817579 64.538124,68.937527 64.035206,70.050365 62.307046,75.350575 56.6793,92.61058 53.381547,109.56676 51.825058,129.24621 c -0.694718,8.78368 -0.716693,27.55947 -0.04217,35.96448 2.970444,37.00964 16.218007,72.64512 37.502931,100.88167 2.541101,3.37099 4.687904,6.06135 4.770681,5.97858 0.08278,-0.0828 -0.652545,-5.74571 -1.634073,-12.58427 z M 319.6775,117.28105 c 2.10339,-1.07307 3.27391,-3.25213 3.2696,-6.08677 -0.0104,-6.66301 -8.84978,-8.82181 -12.47608,-3.04684 -0.71395,1.13701 -0.89693,2.04412 -0.75179,3.72724 0.43613,5.05745 5.3805,7.74177 9.95827,5.40637 z M 251.98364,92.61654 c 32.21626,-2.33055 51.31258,-5.575675 69.23297,-11.765085 10.76667,-3.718627 18.45534,-8.04205 23.33041,-13.118936 7.22011,-7.518985 6.87935,-14.014863 -1.17756,-22.447934 -15.21139,-15.921595 -53.46763,-28.139201 -103.7542,-33.13521 -14.68004,-1.45848 -24.85231,-1.907272 -43.46295,-1.917606 -27.0808,-0.01568 -48.66134,1.909154 -70.31517,6.269452 -33.107761,6.666695 -52.787193,16.32729 -59.267334,29.094187 -1.695763,3.340937 -2.316139,7.662582 -1.4295,9.95821 1.082725,2.803338 12.697383,11.335585 21.519646,15.808564 22.830538,11.575308 59.758818,19.337083 102.115028,21.463061 5.1987,0.260931 10.59338,0.551906 11.98815,0.646603 5.79605,0.393496 42.40919,-0.217887 51.22051,-0.855306 z M 195.69123,83.566631 C 148.30133,81.712825 113.11663,75.27449 91.443197,64.490653 85.311173,61.439611 81.719935,59.008037 78.921947,56.012708 76.514074,53.435029 76.411535,53.000771 77.425912,49.677802 78.828417,45.083497 83.032606,41.194018 91.101615,37.025868 104.10133,30.310692 119.86412,26.440313 150.27455,22.496619 c 13.10004,-1.698865 53.26653,-2.618301 72.15949,-1.651795 38.22637,1.955526 68.18897,6.893225 89.98704,14.829442 17.52134,6.379153 27.81677,15.330444 25.10294,21.82559 -1.7087,4.089468 -5.91902,7.693863 -13.33643,11.417055 -14.8912,7.474704 -39.47576,12.190804 -74.08857,14.212535 -11.74225,0.685865 -41.86349,0.927905 -54.40779,0.437185 z"
       id="path5973" /></g><metadata
     id="metadata182"><rdf:RDF><cc:Work
         rdf:about=""><cc:license
           rdf:resource="http://creativecommons.org/licenses/by-sa/4.0/" /><dc:creator><cc:Agent><dc:title>Jameela P</dc:title></cc:Agent></dc:creator><dc:publisher><cc:Agent><dc:title>OpenDataKerala.org</dc:title></cc:Agent></dc:publisher><dc:date>April 2026</dc:date><dc:title>Election Symbols of Kerala</dc:title></cc:Work><cc:License
         rdf:about="http://creativecommons.org/licenses/by-sa/4.0/"><cc:permits
           rdf:resource="http://creativecommons.org/ns#Reproduction" /><cc:permits
           rdf:resource="http://creativecommons.org/ns#Distribution" /><cc:requires
           rdf:resource="http://creativecommons.org/ns#Notice" /><cc:requires
           rdf:resource="http://creativecommons.org/ns#Attribution" /><cc:permits
           rdf:resource="http://creativecommons.org/ns#DerivativeWorks" /><cc:requires
           rdf:resource="http://creativecommons.org/ns#ShareAlike" /></cc:License></rdf:RDF></metadata></svg>
