<?xml version="1.0" encoding="UTF-8" standalone="no"?>
<!-- Created with Inkscape (http://www.inkscape.org/) -->

<svg
   width="1500"
   height="1500"
   viewBox="0 0 396.87499 396.875"
   version="1.1"
   id="svg5"
   xml:space="preserve"
   inkscape:version="1.2.2 (b0a8486541, 2022-12-01)"
   sodipodi:docname="indi07.svg"
   inkscape:export-filename="indi06.png"
   inkscape:export-xdpi="96"
   inkscape:export-ydpi="96"
   xmlns:inkscape="http://www.inkscape.org/namespaces/inkscape"
   xmlns:sodipodi="http://sodipodi.sourceforge.net/DTD/sodipodi-0.dtd"
   xmlns="http://www.w3.org/2000/svg"
   xmlns:svg="http://www.w3.org/2000/svg"
   xmlns:rdf="http://www.w3.org/1999/02/22-rdf-syntax-ns#"
   xmlns:cc="http://creativecommons.org/ns#"
   xmlns:dc="http://purl.org/dc/elements/1.1/"><title
     id="title186">Election Symbols of Kerala</title><sodipodi:namedview
     id="namedview7"
     pagecolor="#ffffff"
     bordercolor="#000000"
     borderopacity="0.25"
     inkscape:showpageshadow="2"
     inkscape:pageopacity="0.0"
     inkscape:pagecheckerboard="0"
     inkscape:deskcolor="#d1d1d1"
     inkscape:document-units="mm"
     showgrid="false"
     inkscape:zoom="0.35355339"
     inkscape:cx="-134.35029"
     inkscape:cy="974.39314"
     inkscape:window-width="1854"
     inkscape:window-height="1011"
     inkscape:window-x="0"
     inkscape:window-y="0"
     inkscape:window-maximized="1"
     inkscape:current-layer="layer1" /><defs
     id="defs2"><inkscape:path-effect
       effect="bspline"
       id="path-effect3248"
       is_visible="true"
       lpeversion="1"
       weight="33.333333"
       steps="2"
       helper_size="0"
       apply_no_weight="true"
       apply_with_weight="true"
       only_selected="false" /><inkscape:path-effect
       effect="bspline"
       id="path-effect577"
       is_visible="true"
       lpeversion="1"
       weight="33.333333"
       steps="2"
       helper_size="0"
       apply_no_weight="true"
       apply_with_weight="true"
       only_selected="false" /></defs><g
     inkscape:label="Layer 1"
     inkscape:groupmode="layer"
     id="layer1"><path
       style="fill:#000000;stroke-width:0.359864"
       d="m 105.07749,390.64815 c -0.39586,-0.18371 -1.93428,-0.24643 -3.41873,-0.13937 -2.762088,0.19921 -7.674213,-0.56065 -8.415328,-1.30175 -0.200958,-0.20094 -1.321723,-0.36537 -2.49061,-0.36537 -2.636917,0 -6.06892,-0.85508 -8.051049,-2.00595 -0.826939,-0.48014 -1.976838,-0.87297 -2.55531,-0.87297 -1.653048,0 -3.316651,-0.69586 -5.72957,-2.39663 -1.227209,-0.865 -2.765626,-1.67481 -3.418728,-1.79961 -1.736128,-0.33168 -4.121723,-1.61856 -6.669322,-3.59764 -1.233696,-0.95839 -2.924854,-2.22835 -3.758145,-2.82212 -0.833277,-0.59379 -2.180176,-1.95018 -2.993106,-3.0142 -0.812943,-1.06405 -2.036683,-2.22357 -2.719436,-2.57671 -1.70529,-0.88209 -3.078697,-2.4074 -4.422835,-4.91201 -0.625301,-1.16515 -1.667425,-2.92015 -2.315834,-3.90001 -0.648424,-0.97986 -1.273779,-2.37466 -1.389702,-3.09959 -0.118603,-0.74169 -0.689091,-1.84174 -1.30464,-2.51568 -1.153694,-1.26314 -2.774766,-4.40912 -2.78071,-5.3965 -0.0014,-0.32122 -0.31824,-1.29551 -0.702909,-2.16513 -0.384669,-0.86961 -0.872952,-2.66744 -1.085049,-3.99518 -0.21211,-1.32775 -0.554806,-2.85897 -0.761531,-3.40272 -0.206738,-0.54374 -0.388762,-1.9648 -0.404513,-3.15789 -0.01578,-1.19309 -0.257525,-2.81701 -0.537288,-3.60871 -0.279749,-0.7917 -0.476436,-2.33013 -0.437074,-3.41872 0.03944,-1.0886 -0.136733,-2.89664 -0.391333,-4.0179 -0.346994,-1.52817 -0.36609,-2.42927 -0.0763,-3.59864 0.245053,-0.98875 0.271983,-2.16197 0.07358,-3.20383 -0.18246,-0.95791 -0.176176,-2.23426 0.0151,-3.05884 0.180488,-0.77828 0.332032,-2.56494 0.336752,-3.97037 0.0041,-1.40542 0.191627,-3.08041 0.415353,-3.72218 0.696082,-1.99679 -0.06039,-3.62625 -2.664283,-5.73891 -5.682581,-4.61054 -10.328177,-11.50703 -12.877979,-19.11769 l -1.077745,-3.21686 0.09956,-11.61372 0.09956,-11.61369 3.374401,-12.05548 c 2.05854,-7.35441 3.385622,-12.75712 3.403195,-13.85479 0.02217,-1.38751 -0.319955,-2.56778 -1.49503,-5.15689 -2.7715,-6.10662 -4.236389,-12.62725 -4.621915,-20.57345 -0.385227,-7.9399 0.6713,-15.25205 3.500252,-24.22508 1.62994,-5.1699 1.696954,-5.33651 13.197183,-32.81351 4.556195,-10.8859 11.801944,-28.21339 16.101663,-38.50553 4.299717,-10.29214 8.873458,-21.223039 10.163871,-24.290883 1.290414,-3.067844 3.357563,-8.006994 4.593643,-10.975876 2.672432,-6.418743 6.958262,-16.475886 8.208986,-19.263233 1.67866,-3.741062 6.009918,-11.566141 8.22849,-14.866048 5.15881,-7.673235 11.844327,-14.739871 18.209723,-19.247836 12.66004,-8.965811 25.83055,-13.16756 39.28411,-12.5327104 8.45386,0.398923 14.24919,1.9210194 21.69642,5.6984104 7.84625,3.97979 14.48506,8.969796 20.33264,15.282871 l 3.51942,3.799588 10.07621,-0.227534 c 5.54191,-0.125131 18.33511,-0.385785 28.42932,-0.579207 22.95385,-0.439849 65.31114,-1.334712 83.94346,-1.773446 9.2436,-0.21766 14.90571,-0.209214 16.37385,0.02448 3.46517,0.551433 7.86193,2.206236 10.91065,4.106418 3.72151,2.31952 9.42008,7.864182 12.38306,12.048643 4.04808,5.71688 4.76176,7.189182 11.33858,23.391208 1.64702,4.05748 4.72262,11.587658 6.83465,16.733723 2.11202,5.146066 4.63955,11.321362 5.6167,13.722872 2.453,6.02865 3.28727,10.04323 3.13092,15.06631 -0.12118,3.89208 -0.17931,4.12765 -3.46629,14.03473 -1.83869,5.54193 -7.71355,23.35523 -13.05522,39.58514 -12.11999,36.82479 -11.34889,34.58237 -12.59565,36.6291 -0.57699,0.94721 -2.44672,3.44684 -4.15494,5.55473 -4.87996,6.02165 -7.98773,11.08674 -9.22479,15.03469 -0.85106,2.71605 -9.94283,30.70738 -13.55884,41.74431 -1.75083,5.34399 -4.91179,15.06035 -7.02434,21.5919 -4.65244,14.38432 -4.93495,15.17147 -6.58697,18.3531 -1.59088,3.06389 -5.27053,6.89773 -7.89838,8.22937 -3.97727,2.01543 -5.06236,2.14855 -17.00746,2.08646 -28.87516,-0.1501 -122.33961,-1.15722 -123.59157,-1.33176 -3.42946,-0.47811 -7.50711,-3.67167 -9.36206,-7.33221 l -0.92822,-1.83179 -7.46115,10e-4 c -4.10363,3.7e-4 -10.73248,0.1069 -14.7308,0.23648 -6.90974,0.22388 -7.25211,0.26831 -6.91536,0.89755 0.19487,0.3641 1.03712,1.00594 1.87169,1.4263 0.83457,0.42036 2.18231,1.30328 2.99497,1.96204 0.81267,0.65876 2.3511,1.58927 3.41871,2.0678 1.06763,0.47853 2.55947,1.36857 3.31521,1.97785 0.75572,0.60929 1.97027,1.29958 2.69898,1.53399 0.72871,0.23442 2.37753,1.11306 3.66405,1.95252 1.28651,0.83947 2.95108,1.72329 3.69904,1.96405 0.74794,0.24077 2.18039,0.98991 3.18319,1.66475 1.00281,0.67484 3.18646,1.86577 4.85253,2.64652 1.66608,0.78076 3.47243,1.72396 4.0141,2.09601 0.54168,0.37206 1.76247,0.96495 2.71288,1.31754 0.95039,0.35257 2.56893,1.20695 3.59674,1.89861 1.02781,0.69168 2.63773,1.54978 3.57759,1.90689 0.93987,0.35713 2.50997,1.22487 3.48914,1.92832 0.97915,0.70346 2.73006,1.75846 3.8909,2.34445 1.16084,0.58598 2.99231,1.77912 4.06993,2.65141 1.07761,0.87228 2.8252,2.05372 3.88352,2.62542 2.36381,1.27691 8.76526,8.10008 9.89763,10.54968 0.67203,1.45378 0.7681,2.2727 0.73276,6.24692 -0.0371,4.18078 -0.12322,4.74252 -1.00121,6.5371 -1.01885,2.08248 -4.72881,5.86752 -6.79254,6.93001 -0.63922,0.3291 -1.80997,1.12209 -2.60167,1.76226 -1.88466,1.52385 -4.72278,2.93118 -6.49743,3.22183 -0.78078,0.12785 -2.80789,0.87422 -4.50469,1.65859 -1.69682,0.78432 -4.1259,1.59146 -5.39798,1.7936 -1.27207,0.20213 -2.96629,0.68115 -3.7649,1.06451 -1.5529,0.74536 -4.60894,1.42741 -6.39592,1.42741 -0.60071,0 -2.15752,0.42647 -3.45956,0.94774 -1.35838,0.54379 -3.59436,1.07035 -5.24628,1.23541 -1.5834,0.15824 -4.01249,0.6131 -5.39798,1.01079 -1.38547,0.3977 -3.49069,0.73477 -4.67824,0.74905 -1.18756,0.0144 -2.88577,0.27898 -3.77384,0.58813 -1.05357,0.36681 -2.61668,0.53351 -4.49831,0.4797 -1.92397,-0.0549 -3.58576,0.12786 -4.99332,0.54952 -1.60532,0.48086 -2.76673,0.57859 -4.85817,0.40884 -3.1431,-0.25515 -2.94287,-0.25424 -7.96655,-0.035 -2.07823,0.0907 -4.10246,0.0148 -4.49831,-0.16913 z m 6.3506,-2.17507 c 1.53393,-0.42604 2.16189,-1.27021 3.16916,-4.26026 1.03849,-3.08271 0.94611,-4.96415 -0.40133,-8.17418 -1.33938,-3.19077 -2.32738,-4.11282 -4.39876,-4.10512 -2.42572,0.01 -2.5186,0.203 -1.63672,3.41749 1.04934,3.82486 0.84839,5.70955 -1.01583,9.52767 -0.81751,1.67435 -1.41641,3.11424 -1.3309,3.19978 0.18584,0.18583 2.56671,0.66424 3.58216,0.7198 0.39585,0.0216 1.31034,-0.12472 2.03222,-0.32518 z m 10.84832,-0.71663 c 1.23487,-0.97134 1.7406,-2.66821 1.80549,-6.05796 0.0494,-2.57753 -0.0593,-3.04853 -1.26517,-5.48534 -1.9429,-3.9262 -2.42697,-4.34228 -4.90051,-4.21222 -2.52377,0.13274 -2.67962,0.56746 -1.30295,3.63509 1.45044,3.23203 1.56726,6.19367 0.37357,9.47061 -0.51342,1.40941 -0.93348,2.74541 -0.93348,2.96888 0,0.26504 0.92148,0.40629 2.65045,0.40629 2.1124,0 2.83766,-0.14726 3.5726,-0.72535 z m -19.88928,0 c 0.82829,-0.44328 2.99863,-4.27789 3.61883,-6.39382 0.35088,-1.19713 0.35945,-2.03892 0.0385,-3.77858 -0.86689,-4.69699 -1.86123,-6.0159 -4.53627,-6.0159 h -1.19637 l -0.16539,3.86855 c -0.191576,4.48096 -0.725314,5.84985 -3.566835,9.14812 -0.967004,1.12246 -1.758199,2.20601 -1.758199,2.40792 0,0.85047 6.229084,1.4801 7.565804,0.76472 z m 28.9472,-0.8663 c 1.50063,-0.62703 1.98762,-2.07398 1.99053,-5.91427 0.003,-3.01041 -0.77756,-4.95228 -3.30881,-8.23917 -1.4079,-1.82823 -1.51247,-1.8893 -3.23416,-1.8893 -1.47965,0 -2.81417,0.35644 -3.48323,0.9304 -0.0725,0.0622 0.3376,0.89049 0.91145,1.84053 2.45678,4.06744 2.82968,6.03906 2.14743,11.35377 l -0.3118,2.42909 h 2.03272 c 1.11802,0 2.58315,-0.22999 3.25587,-0.51105 z m -37.646194,-2.63677 c 2.762021,-2.92098 3.868968,-5.18057 4.18695,-8.54678 0.309468,-3.27614 -0.07086,-4.23457 -1.983992,-5.00007 -2.195736,-0.87854 -2.751467,-0.55708 -3.230283,1.86856 -1.01367,5.1353 -2.032222,6.91462 -5.904142,10.31397 -2.710377,2.37958 -2.697334,2.44418 0.659141,3.26622 3.481838,0.85277 3.74226,0.77377 6.272326,-1.9019 z m 47.390404,1.30535 c 1.32426,-0.64128 1.74187,-2.22613 1.48987,-5.65421 -0.22242,-3.02584 -1.39,-5.34331 -4.22177,-8.37966 -1.43886,-1.54281 -1.8147,-1.75604 -3.09511,-1.75604 -1.4215,0 -3.72398,0.60383 -3.72398,0.97661 0,0.10255 0.56774,0.9599 1.26163,1.9052 0.69391,0.94528 1.68561,2.64475 2.20379,3.7766 0.87853,1.91898 0.93111,2.32544 0.77884,6.021 l -0.16328,3.96309 2.22324,-0.17846 c 1.22279,-0.0982 2.68383,-0.40151 3.24677,-0.67413 z m 8.95879,-1.77961 c 1.34224,-0.65484 1.73134,-1.99653 1.45403,-5.01367 -0.2843,-3.09311 -1.44622,-5.39419 -4.22481,-8.36687 -2.11327,-2.26088 -2.37628,-2.42907 -3.79826,-2.42907 -1.9506,0 -4.17853,0.89155 -3.80311,1.52186 0.14983,0.25158 1.04555,1.35302 1.9905,2.4477 2.94415,3.41065 3.42242,5.10255 3.54452,12.5388 0.005,0.3268 3.88334,-0.23341 4.83713,-0.69875 z m -66.708623,-1.06995 c 2.018756,-1.29544 4.682931,-4.05715 5.572422,-5.77644 0.837996,-1.61975 1.592237,-4.50847 1.597555,-6.11849 0.0041,-1.34342 -0.659699,-2.22243 -1.974989,-2.61403 -0.995117,-0.29626 -1.494798,0.10296 -2.179223,1.74099 -1.638767,3.92214 -4.564914,6.94255 -9.307011,9.60692 -1.171348,0.65812 -2.194076,1.3903 -2.272691,1.6271 -0.07861,0.23678 0.555881,0.78748 1.410009,1.22382 3.354598,1.71371 4.864656,1.77917 7.153928,0.31013 z m 74.922223,-0.72481 c 2.03493,-0.56513 2.57525,-1.64955 2.2762,-4.56845 -0.33885,-3.30733 -1.16391,-4.95929 -3.95414,-7.91706 -2.88247,-3.05559 -4.24768,-3.8087 -6.01805,-3.31989 -0.68603,0.18943 -1.54278,0.56047 -1.90392,0.82452 -0.61211,0.44759 -0.49993,0.67417 1.65581,3.34433 2.82135,3.49461 3.46029,5.01579 3.76346,8.95995 l 0.23493,3.05634 1.2964,-0.004 c 0.71303,0 1.90522,-0.17108 2.64931,-0.37771 z m 9.62298,-2.96942 c 1.45277,-0.70807 1.63107,-0.93137 1.73296,-2.17024 0.15497,-1.88439 -0.86141,-4.92839 -2.17947,-6.5274 -0.59969,-0.72754 -2.48365,-2.44408 -4.18659,-3.81455 -2.68392,-2.15992 -3.28978,-2.49176 -4.54947,-2.49176 -0.79928,0 -1.81809,0.25555 -2.264,0.56787 l -0.81077,0.56789 2.6736,2.84206 c 3.16819,3.36781 4.1229,5.17786 4.58872,8.69986 0.19033,1.43913 0.42215,2.83671 0.51514,3.10574 0.22286,0.64465 2.2992,0.28339 4.47988,-0.77947 z m -92.678648,-0.968 c 3.772345,-1.87583 5.9887,-3.82241 7.716976,-6.77766 1.96204,-3.35498 2.029747,-3.73032 0.912477,-5.05812 -1.235546,-1.46836 -2.010583,-1.41387 -3.256112,0.22892 -1.385377,1.82722 -4.299609,4.61135 -6.207911,5.93074 -1.296465,0.89639 -4.808284,2.47713 -8.107634,3.64939 -0.650613,0.23118 -0.652326,0.27037 -0.04148,0.94541 0.87015,0.96148 4.076948,2.51955 5.185758,2.51955 0.498035,0 2.207092,-0.64721 3.797888,-1.43823 z m 101.310918,-2.22141 c 2.02107,-0.86843 3.24327,-1.99523 3.24327,-2.99012 0,-1.05922 -1.75036,-3.7074 -3.47544,-5.2581 -0.79044,-0.71052 -3.30731,-2.28943 -5.59306,-3.50868 -3.51954,-1.87737 -4.43512,-2.21683 -5.9793,-2.21683 -2.55554,0 -2.70177,0.57529 -0.58968,2.31988 5.41172,4.47016 7.34364,6.93811 7.91829,10.11532 0.52971,2.92873 0.92463,3.06447 4.47592,1.53853 z M 68.296937,372.8687 c 3.35856,-1.26417 4.915801,-2.13292 6.798628,-3.79286 2.102037,-1.8532 4.251583,-4.7435 4.251583,-5.71672 0,-0.68166 -1.520042,-2.22706 -2.190527,-2.22706 -0.161772,0 -1.394965,0.98049 -2.740422,2.17886 -3.100827,2.76182 -7.571788,5.02423 -11.622849,5.8814 -4.661128,0.98625 -4.525606,0.88189 -3.212628,2.47418 0.615821,0.74687 1.69834,1.65476 2.405588,2.01761 1.464114,0.75112 2.506537,0.61642 6.310627,-0.81541 z m 117.427053,-3.88032 c 2.09566,-2.21269 2.66222,-3.17302 2.66222,-4.51256 0,-0.96083 -0.24537,-1.33418 -1.3495,-2.05344 -1.88232,-1.22619 -5.02829,-2.05158 -8.09971,-2.12508 -3.1381,-0.0751 -8.9039,0.43882 -8.9039,0.79362 0,0.13977 1.39684,0.96899 3.10412,1.84272 3.73555,1.91174 6.15677,4.00955 7.9145,6.85728 l 1.30886,2.12054 0.9436,-0.6822 c 0.51896,-0.37519 1.60789,-1.38361 2.41981,-2.24088 z m -66.43184,-0.31667 c 7.63481,-0.53454 11.7635,-0.95036 12.21657,-1.23037 0.2388,-0.14758 2.00059,-0.48971 3.91512,-0.76026 1.91452,-0.27057 4.36642,-0.73912 5.44865,-1.04121 1.08225,-0.30211 2.45873,-0.55284 3.05886,-0.55719 0.60012,-0.004 1.79607,-0.32779 2.65768,-0.71876 0.8616,-0.39096 2.61625,-0.87854 3.89922,-1.08349 1.28299,-0.20496 2.68325,-0.59034 3.11171,-0.85638 0.42845,-0.26605 1.87226,-0.77063 3.20844,-1.12129 4.07971,-1.07065 3.99973,-1.92223 -0.40805,-4.34505 -1.30566,-0.71768 -2.85219,-1.70732 -3.43677,-2.19921 -0.58457,-0.49188 -1.88174,-1.25781 -2.88259,-1.70204 -1.00084,-0.44424 -2.34077,-1.24801 -2.97762,-1.78619 -0.63683,-0.53815 -2.16992,-1.37509 -3.40685,-1.85985 -1.23693,-0.48475 -2.86041,-1.28599 -3.60774,-1.78055 -0.74732,-0.49455 -2.24598,-1.29155 -3.33036,-1.77113 -1.0844,-0.47956 -2.68741,-1.3644 -3.56225,-1.96632 -0.87486,-0.60191 -2.46813,-1.42269 -3.54061,-1.82396 -1.07247,-0.40127 -2.91184,-1.31101 -4.08746,-2.02164 -1.17563,-0.71064 -3.19012,-1.77013 -4.47664,-2.35444 -1.28651,-0.58429 -2.91998,-1.52758 -3.62995,-2.09616 -0.70997,-0.56858 -2.33426,-1.5069 -3.60957,-2.08516 -1.2753,-0.57825 -2.88059,-1.54165 -3.56733,-2.14092 -0.68674,-0.59926 -2.2134,-1.54387 -3.3926,-2.09917 -1.17918,-0.55528 -2.79858,-1.60026 -3.59864,-2.32217 -0.80007,-0.72193 -2.62574,-2.08117 -4.057036,-3.02057 -1.431307,-0.93939 -3.047945,-2.32787 -3.592537,-3.08548 -0.544578,-0.75763 -1.672783,-1.80937 -2.507108,-2.33719 -1.795357,-1.13584 -3.618406,-3.12814 -4.272841,-4.66955 -0.258205,-0.60818 -1.357073,-1.97663 -2.441931,-3.04102 l -1.972445,-1.93525 -7.679233,0.18452 -7.679251,0.18451 -0.294262,2.6504 c -0.404091,3.6396 -0.344559,15.29895 0.09711,19.02424 0.800335,6.75003 1.032793,8.15559 1.577239,9.53643 0.312161,0.79171 0.574664,1.94392 0.583355,2.56049 0.0082,0.61657 0.345443,1.54011 0.748351,2.05232 0.402908,0.51222 0.897543,1.46522 1.099181,2.11776 0.643581,2.08283 3.343322,7.09899 4.645827,8.63204 2.087144,2.45658 6.608833,6.73604 7.377232,6.98205 0.395849,0.12676 1.263945,0.63838 1.929084,1.13699 2.131742,1.59801 9.747907,3.91992 15.344425,4.67801 3.24476,0.43952 11.35769,0.47378 17.09359,0.0722 z M 60.809481,367.4244 c 5.767966,-1.22179 9.052096,-2.86495 12.913152,-6.46088 1.645881,-1.53286 1.721054,-1.68008 1.233152,-2.41489 -1.198632,-1.80524 -1.725651,-1.83343 -4.251283,-0.22742 -1.283291,0.81602 -3.385845,1.96471 -4.672368,2.55265 -2.48185,1.13422 -7.858157,2.40152 -10.256142,2.41758 -3.441088,0.023 -3.938171,1.00449 -1.661726,3.28094 1.613347,1.61334 2.542662,1.73161 6.695215,0.85202 z m -4.133824,-6.46956 c 4.898088,-0.34748 8.493305,-1.64626 13.190708,-4.76516 2.214496,-1.47035 2.445825,-2.35428 0.995638,-3.80448 l -0.927986,-0.92798 -1.743945,1.07305 c -4.313291,2.65401 -10.320924,4.26324 -15.961774,4.27563 l -3.547694,0.008 0.235178,0.98963 c 0.495328,2.08429 2.458211,3.81904 3.976227,3.51411 0.398637,-0.0801 2.101275,-0.24324 3.783648,-0.36259 z m 132.430273,-1.89437 c 0,-2.78417 -1.3818,-5.5909 -3.3146,-6.73264 -2.60865,-1.54096 -13.03263,1.67177 -16.85147,5.19373 l -1.60575,1.48092 1.43946,-0.1429 c 0.7917,-0.0786 3.33911,-0.35767 5.66092,-0.62019 4.90963,-0.55512 8.26117,-0.20108 11.68289,1.23409 2.84697,1.19412 2.98855,1.17454 2.98855,-0.41301 z m -22.10592,-2.80381 c 4.47212,-3.58103 7.80832,-5.0868 13.29972,-6.00278 1.54677,-0.258 2.86929,-0.64007 2.93896,-0.84906 0.2046,-0.6138 -2.4116,-3.06854 -4.03632,-3.78723 -1.81784,-0.80413 -2.50367,-0.64777 -7.218,1.64562 -4.97095,2.41824 -10.28313,7.67657 -9.67877,9.58071 0.19553,0.61607 1.17299,1.29521 1.99541,1.38642 0.11316,0.0122 1.32768,-0.87561 2.699,-1.97368 z M 60.260387,353.57894 c 1.47679,-0.42264 4.108308,-1.5035 5.847805,-2.40193 3.48419,-1.79951 3.910143,-2.53234 2.333053,-4.01393 l -0.829672,-0.77943 -3.127268,1.27498 c -4.513311,1.84005 -7.18332,2.30419 -13.296593,2.31138 l -5.308002,0.007 v 0.91754 c 0,1.14043 0.872734,2.87586 1.709344,3.39901 1.060525,0.66316 9.526207,0.18622 12.671333,-0.71386 z M 161.5709,352.8625 c 2.22329,-3.02873 5.47734,-5.69269 9.06007,-7.41711 1.81327,-0.87276 3.45331,-1.58684 3.64455,-1.58684 0.19123,0 0.54132,-0.2333 0.77797,-0.51845 0.35201,-0.42414 0.15591,-0.71721 -1.07802,-1.61105 -2.48168,-1.79772 -3.37043,-1.78177 -7.21693,0.12948 -1.84251,0.91556 -4.19799,2.30485 -5.23439,3.08734 -1.79049,1.35184 -4.97586,5.31382 -5.20161,6.46979 -0.18457,0.94513 0.35959,1.97027 1.38245,2.60441 1.66668,1.03328 2.42413,0.80647 3.86591,-1.15763 z m -6.13249,-4.68799 c 2.35959,-3.36739 4.89153,-5.48047 9.30744,-7.7677 1.74328,-0.90294 3.10873,-1.83167 3.03436,-2.06386 -0.203,-0.63368 -3.55513,-2.3834 -4.58455,-2.39299 -0.49481,-0.004 -2.27613,0.7585 -3.95851,1.69581 -3.699,2.06087 -7.66073,5.87021 -9.07033,8.72146 -0.9229,1.86677 -0.94156,2.00475 -0.35988,2.66055 0.74272,0.83733 2.61339,2.02487 3.19258,2.02672 0.23094,7.3e-4 1.32843,-1.29525 2.43889,-2.87999 z m -99.757286,-0.509 c 2.601581,-0.1935 8.319903,-1.94312 10.250552,-3.13634 1.345416,-0.83151 1.541613,-1.95434 0.550291,-3.14941 l -0.629763,-0.75921 -3.958504,1.341 c -3.889996,1.31778 -4.055073,1.34113 -9.536422,1.3491 -3.067858,0.004 -6.22566,-0.0729 -7.017372,-0.17182 -1.398896,-0.17487 -1.442583,-0.14763 -1.550509,0.9667 -0.168858,1.7434 0.785211,3.28121 2.181169,3.51572 1.468208,0.24663 4.78558,0.40929 6.206782,0.30431 0.593774,-0.0438 2.170478,-0.16087 3.503776,-0.26005 z m 92.165416,-1.86463 c 1.71647,-3.59946 5.02704,-6.93867 9.48426,-9.5663 1.44435,-0.85148 2.62607,-1.74827 2.62607,-1.99288 0,-0.63068 -2.64011,-1.89882 -3.95316,-1.89882 -2.56326,0 -8.81382,4.03311 -11.24049,7.25282 -2.15696,2.86187 -3.03357,4.80684 -2.47163,5.48392 0.64343,0.7753 3.95849,2.36725 4.49822,2.16013 0.24948,-0.0958 0.725,-0.74322 1.05673,-1.43887 z m -6.71251,-5.05826 c 1.92012,-3.16671 5.04249,-6.11132 8.78778,-8.28749 1.56077,-0.90687 2.83778,-1.77573 2.83778,-1.9308 0,-0.48773 -2.43586,-1.81185 -3.71497,-2.01942 -0.95079,-0.15429 -1.82108,0.0992 -3.88331,1.13083 -3.97258,1.98741 -6.328,3.96514 -8.28099,6.95312 -2.17586,3.32897 -2.35277,3.89032 -1.51703,4.81379 0.83254,0.91996 3.01635,2.09887 3.69517,1.99482 0.28244,-0.0433 1.21645,-1.23797 2.07557,-2.65485 z m -80.139995,-0.78401 c 1.880283,-0.61521 3.783076,-1.37507 4.228407,-1.68856 0.969112,-0.68222 1.04517,-1.95969 0.17993,-3.02197 l -0.629763,-0.77318 -2.104961,0.72623 c -5.119475,1.76625 -10.694468,2.20267 -16.900868,1.32304 -2.986414,-0.42328 -3.192853,-0.41014 -3.532638,0.22475 -0.457775,0.85535 -0.09575,2.55133 0.697075,3.26567 0.960353,0.86528 4.514154,1.29095 9.785921,1.17211 4.288116,-0.0967 5.259337,-0.24076 8.276897,-1.22809 z m 71.953885,-1.58799 c 2.40317,-4.07303 3.30984,-5.23189 5.41706,-6.92387 1.28652,-1.03299 3.31076,-2.40086 4.49832,-3.03971 1.18755,-0.63885 2.29218,-1.2893 2.45474,-1.44546 0.43081,-0.41383 -1.42663,-1.75367 -3.02943,-2.18526 -1.25297,-0.33739 -1.62231,-0.25059 -4.0015,0.94046 -5.36778,2.68717 -9.03364,6.02866 -10.5221,9.59107 -0.69796,1.67045 -0.4678,2.22903 1.37323,3.33259 2.04695,1.22699 2.96488,1.16198 3.80968,-0.26982 z m -6.60447,-5.21805 c 1.77422,-3.17964 4.28906,-5.58037 8.35501,-7.97592 1.81866,-1.07151 3.30666,-2.17252 3.30666,-2.4467 0,-0.55226 -2.65062,-1.88244 -3.77582,-1.89485 -1.18234,-0.0136 -7.07319,3.09933 -9.34169,4.93558 -2.45881,1.99027 -4.85351,5.25181 -4.86663,6.62825 -0.007,0.74373 0.36378,1.20272 1.67198,2.06922 2.54149,1.68342 3.05872,1.5371 4.65049,-1.31558 z m -66.689037,0.67048 c 4.365819,-1.14814 5.298127,-1.69303 5.298127,-3.09651 0,-1.97666 -0.609443,-2.15162 -4.209175,-1.20849 -4.031094,1.05616 -12.538898,1.16536 -16.284612,0.20902 -3.150499,-0.80437 -3.827607,-0.20718 -2.872286,2.53325 0.466045,1.33686 0.764876,1.47082 4.653104,2.08587 4.038139,0.63875 9.859993,0.41172 13.414842,-0.52314 z m 58.924527,-4.42527 c 1.90501,-3.09603 4.85329,-5.72215 9.1045,-8.10966 l 3.89299,-2.18632 -1.22405,-0.93365 c -1.9234,-1.46705 -2.96217,-1.50295 -5.99995,-0.2074 -5.32893,2.27269 -8.80687,5.03277 -10.95017,8.69006 -1.14953,1.96151 -1.00068,2.52454 0.98152,3.71273 2.24017,1.34282 2.8629,1.19945 4.19516,-0.96576 z m -58.418427,-2.08195 c 1.817718,-0.42877 3.457763,-0.97102 3.644576,-1.20501 0.736695,-0.92279 0.800253,-1.94915 0.166152,-2.6831 -0.637842,-0.73831 -0.639311,-0.73832 -3.87687,-0.0562 -4.374933,0.92177 -9.244309,0.89606 -13.725222,-0.0725 -5.334891,-1.1531 -5.325955,-1.15427 -5.460076,0.71374 -0.0763,1.06316 0.07385,1.77202 0.467432,2.20698 0.513459,0.56736 3.991488,1.46709 7.562059,1.95621 2.338535,0.32035 8.084304,-0.12009 11.221949,-0.86016 z m 51.681927,-2.62771 c 2.90786,-3.93204 5.97829,-6.26629 10.79108,-8.20382 1.40457,-0.56546 2.04766,-1.01563 1.97676,-1.38377 -0.14701,-0.76337 -2.37018,-2.19035 -3.41247,-2.19035 -1.03808,0 -6.39692,2.16666 -8.94398,3.61617 -3.3469,1.90472 -6.90822,6.07581 -6.50599,7.61995 0.18886,0.72509 3.18529,3.15847 3.88926,3.15847 0.14862,0 1.14103,-1.1775 2.20534,-2.61665 z m -52.804365,-3.33525 c 4.377122,-0.76329 4.987625,-1.09952 5.129322,-2.8248 0.06297,-0.76689 -0.03087,-1.53971 -0.208492,-1.71737 -0.190771,-0.19077 -1.710922,-0.0813 -3.713167,0.26732 -4.775337,0.83155 -10.878288,0.53597 -15.407553,-0.74624 -3.773297,-1.06819 -3.981313,-1.00092 -3.991079,1.29083 -0.0027,0.78529 0.241992,1.513 0.624254,1.85168 0.542415,0.48057 5.214017,1.76111 8.006994,2.1948 2.191112,0.34023 6.639096,0.19309 9.559721,-0.31622 z m 45.911795,-1.45279 c 1.92687,-2.55213 4.98705,-4.73272 9.81089,-6.99093 4.07127,-1.90591 4.53766,-2.48398 2.74993,-3.40845 -2.44736,-1.26558 -7.60783,-0.01 -12.79308,3.11496 -2.47506,1.49119 -5.937759,4.93726 -5.937759,5.90925 0,1.03508 2.614709,3.38189 3.767949,3.38189 0.65555,0 1.2823,-0.5236 2.40207,-2.00672 z m -6.024663,-5.82439 c 1.218963,-1.14029 3.385313,-2.68754 4.814063,-3.43834 1.42875,-0.75078 2.59774,-1.43721 2.59774,-1.52537 0,-0.0881 -2.45685,-0.16032 -5.45966,-0.16032 h -5.459659 l -1.547911,1.6155 c -1.072182,1.11898 -1.479796,1.81023 -1.326279,2.24914 0.370986,1.06075 2.739661,3.33266 3.474574,3.33266 0.379935,0 1.688139,-0.93297 2.907132,-2.07327 z m -38.799118,0.79815 c 3.736873,-0.65166 4.46659,-1.16373 4.46659,-3.13437 v -1.41901 l -2.249161,0.30522 c -1.237028,0.16788 -4.678239,0.29318 -7.647121,0.27842 -4.967005,-0.0246 -5.679572,-0.11452 -8.925047,-1.12547 -3.972718,-1.23747 -4.569892,-1.09252 -4.569892,1.10921 0,1.90189 0.600819,2.31321 5.038113,3.44919 4.854918,1.24289 8.933467,1.40055 13.886518,0.53681 z m 31.0966,-5.20245 c 0.419134,-0.27086 0.313834,-0.35008 -0.471077,-0.35435 -0.583369,-0.003 -0.916802,0.14668 -0.788448,0.35435 0.276145,0.44682 0.568122,0.44682 1.259525,0 z m -28.327574,-1.4447 c 1.925439,-0.49893 2.516383,-1.24874 2.348885,-2.98027 -0.127852,-1.32198 0.353073,-1.27463 -6.088152,-0.59946 -4.826588,0.50593 -7.022745,0.24843 -12.675822,-1.48627 -4.106948,-1.26025 -4.558834,-1.13032 -4.558834,1.31087 v 1.54947 l 2.069217,0.77517 c 1.13808,0.42634 2.959892,0.9943 4.048491,1.26213 1.088585,0.26783 2.30313,0.57037 2.698979,0.67234 1.287163,0.33153 10.389026,-0.0458 12.157236,-0.50398 z m 1.054976,-6.29583 c 0.735172,-0.13849 1.482054,-0.43726 1.65974,-0.66397 0.602111,-0.76819 0.77146,-2.26858 0.324592,-2.87583 -0.387076,-0.52602 -0.777893,-0.55703 -3.141073,-0.24923 -5.655756,0.73664 -10.175623,0.26326 -15.626885,-1.63669 -1.370497,-0.47766 -2.714771,-0.86848 -2.987244,-0.86848 -0.775594,0 -1.636672,2.38257 -1.173715,3.2476 0.664555,1.24174 6.296319,3.09382 10.745799,3.53392 2.393307,0.23671 7.70143,-0.0169 10.198786,-0.48732 z m -1.657346,-5.93238 c 4.129771,-0.43519 4.337352,-0.52185 4.830531,-2.01617 0.704528,-2.13473 0.737457,-2.12399 -6.519255,-2.12671 l -6.627358,-0.003 -4.318378,-1.52484 -4.318379,-1.52483 -0.629762,0.75749 c -0.807571,0.97137 -0.807571,2.56763 0,3.28413 0.794065,0.70449 5.298249,2.29377 8.366855,2.95221 2.838745,0.6091 4.91494,0.65443 9.215746,0.20121 z m 2.616366,-6.43 c 2.96204,-0.29652 4.001947,-1.06055 4.001947,-2.94027 v -1.01168 l -6.74747,-0.1201 -6.747456,-0.1201 -4.422401,-1.53983 c -2.432314,-0.84689 -4.572013,-1.44734 -4.754881,-1.33432 -0.581492,0.35939 -1.076643,2.75002 -0.711071,3.43311 0.185983,0.34751 1.677245,1.11485 3.313931,1.70518 2.580472,0.93077 3.842187,1.26265 7.654016,2.01328 1.215648,0.23938 5.616599,0.19486 8.413385,-0.0851 z m 215.876269,-5.82113 c 1.22923,-0.61426 2.78854,-1.766 3.47208,-2.56458 2.21659,-2.58958 1.63678,-0.74378 17.10742,-54.46023 1.82412,-6.33361 4.26423,-14.67348 5.42248,-18.53304 1.15824,-3.85954 3.58583,-12.11845 5.39466,-18.35311 1.80882,-6.23465 4.02674,-13.8458 4.9287,-16.91364 0.90196,-3.06786 2.49287,-8.49281 3.53534,-12.05548 1.04247,-3.56266 3.13198,-10.68798 4.64336,-15.83405 6.08769,-20.72796 8.56346,-29.18941 11.00327,-37.60588 1.40571,-4.84918 3.61206,-12.460324 4.90301,-16.913654 1.29095,-4.453316 3.47052,-11.902526 4.84349,-16.55378 3.06012,-10.366856 3.32026,-11.810935 3.12795,-17.363785 -0.18,-5.197532 -0.85742,-7.326812 -3.41234,-10.725601 -4.16185,-5.536488 -11.33847,-9.766649 -17.98761,-10.602564 -1.0263,-0.129076 -9.77102,-0.05971 -19.43271,0.154142 -16.33712,0.361506 -35.56595,0.77505 -92.16313,1.982129 -12.3288,0.262938 -22.5091,0.571182 -22.62289,0.68497 -0.11384,0.113842 0.36374,1.227371 1.06116,2.474641 1.40502,2.512671 3.81166,8.384999 4.69021,11.444315 3.91164,13.621295 1.09109,26.802306 -9.07316,42.400928 -2.59718,3.985762 -2.89662,4.645809 -3.97171,8.754489 -0.63952,2.44404 -2.59552,9.70672 -4.34667,16.13931 -1.75116,6.43259 -4.48323,16.55378 -6.07129,22.49156 -1.58806,5.93776 -3.68503,13.71084 -4.65993,17.27351 -3.41308,12.47281 -4.83093,17.70762 -7.31014,26.98987 -1.37448,5.14606 -3.44702,12.83818 -4.60563,17.09357 -1.15864,4.2554 -2.94669,10.89492 -3.97346,14.75446 -1.02678,3.85956 -2.16037,8.06997 -2.51907,9.35649 -0.35872,1.28651 -1.08554,4.34323 -1.61516,6.7927 -1.70262,7.87446 -3.84304,13.01045 -7.64079,18.33431 -12.30607,17.25121 -37.36811,24.22167 -63.625882,17.69616 -2.375108,-0.59026 -4.501573,-1.07446 -4.725489,-1.07602 -0.223916,-0.001 -0.842444,0.56792 -1.374509,1.26548 -0.878338,1.15156 -0.929383,1.38345 -0.554602,2.51905 l 0.412782,1.25075 h 42.57201 c 33.63588,0 42.6436,0.0944 42.91298,0.44983 0.18752,0.24741 0.36674,1.24095 0.39826,2.20787 0.066,2.02283 1.32077,4.46118 2.85898,5.55548 0.54353,0.38668 1.87891,0.99014 2.9675,1.34101 1.8212,0.58701 4.56573,0.64847 34.36709,0.7697 17.81332,0.0725 32.71173,0.18078 33.10758,0.24067 0.39585,0.0599 10.84581,0.14133 23.22213,0.18097 l 22.50241,0.0721 z M 168.2607,263.82107 c -0.32981,-0.3974 0.40269,-3.8482 3.3802,-15.92402 5.1348,-20.82514 5.26891,-21.32595 5.91992,-22.1081 0.55042,-0.66131 1.77058,-0.69034 36.91559,-0.8782 19.99049,-0.1069 44.07936,-0.24628 53.5308,-0.30985 13.00223,-0.0875 17.32892,-0.01 17.77809,0.3185 0.47015,0.34378 0.54218,0.76367 0.34627,2.01828 -0.62839,4.02391 -8.61159,36.19423 -9.12241,36.76098 -0.53577,0.59444 -3.58945,0.62976 -54.44749,0.62976 -45.92265,0 -53.94209,-0.0749 -54.30097,-0.50735 z m 104.5236,-2.38739 c 0.28572,-0.46229 -0.37199,-1.45508 -2.41555,-3.64622 l -1.56944,-1.68281 -7.90868,0.1475 c -4.34977,0.0811 -24.36424,0.15015 -44.47658,0.15339 l -36.56789,0.005 -2.99752,2.24914 c -1.64861,1.23705 -3.06035,2.45159 -3.13718,2.699 -0.18457,0.59434 98.70559,0.66835 99.07284,0.0741 z m 4.83909,-9.52059 c 0.83008,-3.56267 2.30533,-9.74715 3.27833,-13.7433 1.84315,-7.56989 2.00537,-8.52751 1.41092,-8.32842 -0.197,0.066 -1.88043,1.22778 -3.74098,2.5818 -2.96858,2.16038 -3.43195,2.64511 -3.78399,3.95851 -0.67341,2.51243 -3.56832,14.72739 -3.82004,16.11853 -0.21874,1.20883 -0.0804,1.49231 1.84387,3.77859 2.40001,2.85152 2.74517,3.13796 3.06712,2.54535 0.12949,-0.23842 0.91468,-3.34841 1.74477,-6.91106 z m -101.80697,4.47997 c 2.65373,-1.90781 3.62069,-2.82302 3.89723,-3.68861 1.12736,-3.52875 4.36778,-17.42095 4.20948,-18.04666 -0.27484,-1.08626 -4.45151,-5.10329 -4.86792,-4.68186 -0.34542,0.34959 -7.2228,27.39865 -7.2228,28.4076 0,0.3008 0.10229,0.54692 0.22729,0.54692 0.125,0 1.81553,-1.14182 3.75672,-2.53739 z m 91.85345,-3.22045 c 0.65762,-0.71175 3.87797,-13.74724 3.96061,-16.03193 l 0.0645,-1.78138 -7.1973,-0.0875 c -3.9585,-0.0482 -22.93792,0.0328 -42.17645,0.17993 -26.69841,0.20413 -35.08278,0.37112 -35.41681,0.7054 -0.47086,0.47117 -3.74832,13.1826 -4.13968,16.05549 l -0.23689,1.73896 42.32166,-0.11955 c 37.05396,-0.10473 42.38375,-0.18677 42.82042,-0.65937 z m 6.72405,-20.84886 c 1.57615,-0.87093 6.11769,-4.33452 6.11769,-4.66561 0,-0.17534 -0.22016,-0.40329 -0.48926,-0.50655 -0.94447,-0.36242 -97.17224,0.46479 -97.546,0.83855 -0.23932,0.23932 0.41745,1.14928 1.96553,2.72318 l 2.32493,2.36375 43.36373,-0.12812 c 36.03897,-0.1065 43.51568,-0.21207 44.26338,-0.62524 z m -93.29497,-22.53366 c -0.65988,-0.68722 -0.98187,0.72837 10.02291,-44.06464 2.84465,-11.57866 6.30237,-25.66737 7.68383,-31.30825 1.38144,-5.64087 4.86839,-19.87875 7.74876,-31.63971 2.88038,-11.760968 5.39385,-21.572501 5.58549,-21.803408 0.24652,-0.297036 4.11273,-0.489833 13.21799,-0.659155 12.82111,-0.238401 59.1326,-1.404323 76.9255,-1.936646 5.14608,-0.153966 11.62365,-0.279926 14.39461,-0.279926 h 5.0381 l -0.0662,1.510521 c -0.0365,0.830774 -0.7985,4.555379 -1.69346,8.276883 -2.23455,9.291926 -6.10704,25.477321 -7.60291,31.776981 -0.68146,2.86994 -3.10994,13.05048 -5.3966,22.62345 -4.00093,16.74959 -10.01844,42.14967 -13.82273,58.34615 -1.1213,4.77381 -2.0278,7.89154 -2.36688,8.14037 -0.36662,0.26903 -4.77025,0.4779 -13.22968,0.62751 -21.75055,0.38466 -96.15486,0.68545 -96.43868,0.38987 z m 94.64181,-4.34338 12.32274,-0.21952 0.32513,-1.3078 c 0.17883,-0.71928 1.33689,-5.59919 2.57349,-10.84422 3.29551,-13.97805 6.33113,-26.75448 10.26027,-43.18378 1.91706,-8.01599 4.34356,-18.21816 5.39219,-22.67149 1.04866,-4.45332 2.90735,-12.22639 4.13044,-17.27351 1.2231,-5.0471 3.17984,-13.124131 4.34832,-17.948963 1.16848,-4.824819 2.12449,-9.075722 2.12449,-9.44645 0,-0.805136 1.03117,-0.782599 -14.75445,-0.322498 -6.43259,0.187479 -21.89778,0.591135 -34.3671,0.897012 -12.46933,0.305878 -28.80922,0.716878 -36.31087,0.91332 -7.50164,0.196442 -14.32072,0.357181 -15.15348,0.357181 h -1.51412 l -1.81631,7.107331 c -0.99898,3.909037 -3.37115,13.503927 -5.27151,21.321987 -4.68175,19.26073 -8.88116,36.443 -13.32475,54.51952 -7.27445,29.5924 -9.19796,37.57434 -9.19796,38.16865 0,0.56063 2.68627,0.58665 38.95538,0.37746 21.42546,-0.12364 44.5006,-0.32349 51.2781,-0.44423 z m -82.49642,-7.10903 c -0.43629,-0.31902 -0.58216,-0.75321 -0.44952,-1.33796 1.93893,-8.54812 4.7664,-19.67326 5.07987,-19.98757 0.28316,-0.28394 4.14735,-0.44892 12.6432,-0.5398 l 12.23542,-0.13084 0.12173,0.86083 c 0.1849,1.30793 -4.28628,19.91598 -4.94933,20.59796 -0.49535,0.50951 -2.11289,0.61444 -12.3029,0.79817 -9.37744,0.16908 -11.8622,0.1167 -12.37843,-0.26075 z m 24.71903,-10.66048 c 1.12613,-4.45333 2.05728,-8.21841 2.06922,-8.36685 0.0122,-0.14845 -4.41178,-0.26991 -9.83049,-0.26991 -7.46016,0 -9.93495,0.10922 -10.19294,0.44984 -0.49629,0.65522 -4.06579,14.81809 -4.06579,16.132 0,0.21175 3.82505,0.30656 9.98625,0.24755 l 9.98624,-0.0956 z m 7.21954,10.36518 c -0.34555,-0.41636 -0.0669,-2.09412 1.36724,-8.233 0.99067,-4.24054 2.06648,-8.89283 2.39069,-10.33842 0.35105,-1.56529 0.82002,-2.74617 1.15948,-2.9197 0.3135,-0.16023 5.94308,-0.39602 12.51016,-0.52397 11.49688,-0.224 11.94814,-0.2074 12.15575,0.4467 0.26864,0.84638 -4.34284,20.57998 -4.94417,21.15733 -0.30538,0.2932 -4.05131,0.4992 -12.32195,0.67763 -10.17267,0.21947 -11.94567,0.18109 -12.3172,-0.26657 z m 24.76401,-10.99494 2.02667,-8.36686 h -9.99761 c -9.21029,0 -10.01237,0.0496 -10.18491,0.62977 -0.38894,1.30783 -3.81972,15.78963 -3.81972,16.12357 0,0.0944 4.48849,0.12867 9.97443,0.076 l 9.97445,-0.0956 z m 8.47309,10.62216 c -0.78706,-0.60135 -0.95476,0.36785 2.17408,-12.56517 1.08452,-4.48287 2.1804,-8.43587 2.43527,-8.78441 0.42581,-0.58235 1.45247,-0.63636 12.66143,-0.66601 l 12.19805,-0.0322 0.10895,0.93851 c 0.06,0.51618 -0.87122,5.01078 -2.06922,9.988 -1.19799,4.97723 -2.17816,9.26651 -2.17816,9.53177 0,0.26525 -0.28339,0.73859 -0.62976,1.0519 -0.92347,0.83529 -23.66323,1.33029 -24.70062,0.53769 z m 22.71878,-2.59089 c 0.1722,-0.15584 4.02704,-16.90198 3.91621,-17.01282 -0.0623,-0.0623 -4.5925,-0.004 -10.0671,0.12853 l -9.95383,0.24181 -0.3466,1.29173 c -0.97296,3.62623 -3.60252,14.67802 -3.60532,15.15288 -0.003,0.47845 1.23449,0.52946 9.98301,0.41153 5.49244,-0.074 10.02556,-0.17019 10.07363,-0.21367 z m -81.14694,-24.36637 c -0.24741,-0.24893 -0.44439,-0.7036 -0.43776,-1.01039 0.0313,-1.4454 4.64405,-19.93959 5.07526,-20.34849 0.36963,-0.35051 3.48424,-0.52775 12.63366,-0.71894 10.65057,-0.22256 12.16869,-0.18699 12.35146,0.28929 0.41376,1.07824 -4.46013,21.06639 -5.23373,21.46387 -0.30132,0.15481 -5.81086,0.39303 -12.24345,0.52937 -9.18264,0.19462 -11.79226,0.15063 -12.14544,-0.20471 z m 23.06309,-4.35713 c 0.51426,-1.82404 1.63187,-6.4331 2.96574,-12.23069 0.35232,-1.53134 0.57098,-2.83083 0.48593,-2.88777 -0.085,-0.057 -4.60158,-0.0185 -10.03673,0.0853 l -9.88207,0.18879 -1.88553,7.55716 c -1.03704,4.15644 -1.89361,7.92152 -1.9035,8.36685 l -0.0179,0.8097 h 9.87075 9.87075 z m 8.75496,3.80857 c -0.13193,-0.13194 -0.23991,-0.57459 -0.23991,-0.98363 0,-1.01432 4.61924,-19.6934 5.037,-20.36836 0.2824,-0.45626 2.18782,-0.56763 12.31305,-0.71972 6.58842,-0.099 12.18137,-0.12213 12.42877,-0.0514 0.6991,0.19965 0.58144,0.9509 -1.48796,9.49974 -1.06577,4.40284 -2.13598,8.86138 -2.37822,9.90787 -0.24225,1.04648 -0.67732,2.13956 -0.96684,2.42908 -0.44086,0.44085 -2.47166,0.52639 -12.49619,0.52639 -6.58339,0 -12.07775,-0.10799 -12.2097,-0.23991 z m 22.94494,-2.87984 c 0.35505,-0.92522 3.80502,-15.5758 3.80502,-16.1583 0,-0.59172 -4.70361,-0.68272 -14.43238,-0.2792 l -5.61567,0.23292 -1.55413,6.51335 c -0.85476,3.58234 -1.7543,7.36352 -1.99898,8.40264 l -0.44486,1.88929 h 10.00525 c 9.01235,0 10.02813,-0.0596 10.23575,-0.6007 z m 10.08351,2.29995 c -0.27788,-0.72411 0.1269,-2.73423 2.61213,-12.97076 1.71564,-7.06668 2.10067,-8.25281 2.75929,-8.50038 0.42098,-0.15825 5.99147,-0.36145 12.37888,-0.45158 9.03325,-0.12744 11.69663,-0.0637 11.9879,0.28737 0.26582,0.32028 -0.003,2.05112 -0.92706,5.96524 -0.71585,3.03271 -1.78972,7.61924 -2.38639,10.19227 -0.59667,2.57305 -1.28503,4.88382 -1.52968,5.13506 -0.3328,0.34181 -3.49515,0.51496 -12.55947,0.68768 -10.90727,0.20782 -12.1367,0.17345 -12.3356,-0.3449 z m 22.73515,-2.59737 c 0.22242,-0.0681 0.51725,-0.74421 0.6552,-1.50223 0.13794,-0.75803 0.96808,-4.33419 1.84475,-7.94702 0.8767,-3.61284 1.59398,-6.73017 1.59398,-6.9274 0,-0.43536 -19.66052,-0.50354 -19.92901,-0.0691 -0.26295,0.42546 -3.82207,15.60677 -3.82207,16.3029 0,0.53978 0.86104,0.57822 9.62638,0.42984 5.29451,-0.0896 9.80836,-0.21876 10.03077,-0.28697 z m -81.05492,-24.4489 c -0.25915,-0.67537 0.43788,-4.08267 2.94288,-14.38545 0.86185,-3.54473 1.73754,-6.61548 1.94595,-6.82389 0.52575,-0.52576 24.13148,-0.98357 24.76686,-0.48033 0.55829,0.44218 0.63769,0.0109 -2.16492,11.76993 -1.20287,5.0471 -2.37169,9.37962 -2.59739,9.62782 -0.3049,0.33531 -3.5246,0.51204 -12.53052,0.68778 -11.35593,0.22162 -12.13549,0.19665 -12.36286,-0.39586 z m 22.8357,-2.54595 c 0.20109,-0.20111 4.01504,-15.62652 4.01504,-16.23876 0,-0.39595 -1.17205,-0.4912 -6.02775,-0.48988 -3.31525,7.2e-4 -7.83341,0.10568 -10.04037,0.23287 l -4.01264,0.23123 -1.98569,8.12596 c -1.09213,4.46929 -1.89323,8.27557 -1.78023,8.45841 0.19594,0.31703 19.50619,0.005 19.83164,-0.31983 z m 9.48867,2.13088 c -0.542,-0.39631 -0.38285,-1.32326 1.82397,-10.62397 1.32977,-5.60436 2.63465,-10.40662 2.89971,-10.6717 0.37441,-0.37441 3.18232,-0.53061 12.58519,-0.70008 10.52829,-0.18976 12.13004,-0.14835 12.30907,0.3182 0.11316,0.295 -0.43574,3.19506 -1.21988,6.44459 -0.78412,3.24953 -1.8612,7.77052 -2.39348,10.04666 -0.5323,2.27615 -1.19037,4.3728 -1.46238,4.65923 -0.37816,0.3982 -1.74533,0.54577 -5.80875,0.62697 -16.83862,0.3365 -18.1462,0.32952 -18.73345,-0.1 z m 21.96784,-2.63371 c 0.67961,-0.25839 0.95261,-0.76412 1.31122,-2.42909 0.24911,-1.15651 1.08795,-4.73263 1.8641,-7.94693 0.77615,-3.2143 1.41118,-6.01968 1.41118,-6.23418 0,-0.42204 -19.39968,-0.094 -19.85123,0.33566 -0.19999,0.19029 -1.52018,5.4133 -3.71855,14.71159 l -0.44668,1.88929 h 9.28582 c 5.1072,0 9.67205,-0.14685 10.14414,-0.32634 z m 10.78532,1.90915 c -0.27194,-0.51433 0.23834,-3.15689 2.06488,-10.69343 1.33435,-5.50564 2.65238,-10.23021 2.92899,-10.49902 0.771,-0.74928 24.69831,-1.21036 24.97807,-0.48132 0.30694,0.79987 -4.50957,20.96156 -5.16392,21.6159 -0.20554,0.20555 -5.33656,0.43144 -12.39874,0.54584 -11.57329,0.18749 -12.0623,0.16827 -12.40928,-0.48797 z m 17.96217,-2.30255 c 4.86828,0 4.97798,-0.0173 5.14446,-0.80969 0.0936,-0.44533 0.98731,-4.13642 1.98612,-8.20243 0.9988,-4.06601 1.81612,-7.54769 1.81629,-7.73709 2.4e-4,-0.29221 -19.7434,-0.33384 -20.035,-0.0423 -0.28155,0.28156 -3.95847,16.6677 -3.79998,16.93462 0.10922,0.184 2.2845,0.22274 5.0528,0.0899 2.67352,-0.12826 7.09942,-0.23314 9.83531,-0.23314 z M 213.27544,114.7146 c -0.45349,-0.87435 4.29289,-20.552884 5.09955,-21.142727 0.59241,-0.433184 23.75614,-1.086599 24.40059,-0.688288 0.17055,0.105409 0.30495,0.708377 0.29868,1.339962 -0.0174,1.758662 -4.50961,20.081503 -4.99718,20.382843 -0.47489,0.2935 -12.3022,0.73557 -19.71946,0.73703 -4.16534,7.3e-4 -4.79608,-0.0772 -5.08218,-0.62882 z m 22.88327,-2.41919 c 0.0498,-0.0389 0.89583,-3.45779 1.88023,-7.59749 0.98438,-4.1397 1.87794,-7.891085 1.98566,-8.336428 l 0.19586,-0.809693 -7.65399,0.0027 c -4.20969,0.0014 -8.74993,0.10609 -10.08942,0.232567 -2.08516,0.196932 -2.45958,0.338887 -2.60328,0.987066 -0.0924,0.416387 -0.98011,4.138138 -1.97291,8.270548 -0.99278,4.13245 -1.80505,7.57757 -1.80505,7.65586 0,0.13816 19.8817,-0.26313 20.0629,-0.40495 z m 9.23711,1.8437 c -0.30307,-0.78978 -0.11955,-1.70773 2.44358,-12.22633 1.87952,-7.713008 2.28112,-8.971675 2.93998,-9.214402 0.41972,-0.154619 5.96726,-0.383799 12.32792,-0.509297 9.33913,-0.184269 11.64045,-0.137005 11.95795,0.245556 0.2921,0.351958 -0.25492,3.147207 -2.12791,10.873613 -1.38659,5.71992 -2.6548,10.5336 -2.81826,10.69706 -0.16345,0.16345 -5.7413,0.39531 -12.3952,0.51523 -11.07937,0.19969 -12.11739,0.16758 -12.32806,-0.38143 z m 22.57781,-2.70925 c 0.25008,-0.23611 4.33811,-16.660252 4.17562,-16.776107 -0.15566,-0.110986 -19.77769,0.488677 -19.89511,0.607987 -0.25792,0.262109 -4.03196,16.32971 -3.89148,16.56763 0.18523,0.31368 19.26726,-0.0751 19.61097,-0.39951 z m 10.37169,1.48542 c -0.004,-0.5443 1.06772,-5.40696 2.38139,-10.80591 1.69071,-6.948456 2.56014,-9.90696 2.976,-10.126646 0.32311,-0.170695 5.93148,-0.368633 12.46303,-0.439863 l 11.87554,-0.129483 0.11548,0.813868 c 0.0991,0.698095 -2.03776,10.274114 -4.15473,18.618834 l -0.63907,2.51906 -2.33912,0.22784 c -1.28651,0.12526 -6.91389,0.24676 -12.5053,0.2699 l -10.16619,0.042 -0.007,-0.98963 z m 17.3014,-1.76404 5.59869,-0.23222 1.87536,-7.77358 c 1.03144,-4.27547 1.96692,-8.117981 2.07881,-8.538924 l 0.20347,-0.765353 -8.93704,0.151763 c -4.91537,0.08351 -9.45102,0.230485 -10.07923,0.3267 -1.11738,0.17113 -1.15902,0.247052 -1.9156,3.492501 -0.42538,1.824663 -1.24576,5.260843 -1.82309,7.635953 -0.57732,2.37511 -1.13536,4.68274 -1.24006,5.12807 -0.18955,0.80609 -0.17069,0.80969 4.2248,0.80851 2.42837,-7.2e-4 6.93462,-0.10568 10.01389,-0.23342 z M 213.70586,75.683721 c -0.379,-0.604505 -0.40126,-0.48038 1.89081,-10.540502 2.18446,-9.587888 2.8607,-11.978978 3.613,-12.775205 0.54638,-0.578296 1.06474,-0.596331 56.0839,-1.951513 12.86518,-0.316881 28.00649,-0.735811 33.64738,-0.930961 5.64087,-0.19515 12.42413,-0.355154 15.0739,-0.355562 l 4.81776,-7.21e-4 -0.23458,1.889287 c -0.12908,1.039104 -1.26305,6.247857 -2.52007,11.574982 -1.6825,7.130235 -2.45887,9.812471 -2.94261,10.166184 -0.43359,0.317057 -1.76597,0.480448 -3.91707,0.480353 -1.79299,-8.1e-5 -9.08979,0.163555 -16.21511,0.363615 -19.42998,0.545557 -66.08415,1.759586 -76.11142,1.980564 -4.84919,0.106906 -9.73426,0.277424 -10.85575,0.379038 -1.44272,0.130708 -2.12418,0.04896 -2.33014,-0.279531 z m 32.43865,-4.610382 c 6.9274,-0.194892 19.15381,-0.512262 27.16981,-0.70529 31.91532,-0.768522 44.8547,-1.133782 45.94323,-1.296928 l 1.14005,-0.170858 1.86634,-7.74879 c 1.0265,-4.261825 1.80899,-7.803779 1.73887,-7.87101 -0.0702,-0.06719 -8.14347,0.09616 -17.94079,0.363084 -9.79732,0.26691 -24.77669,0.653728 -33.2875,0.859568 -23.94781,0.579221 -42.42507,1.10288 -46.85915,1.328007 -3.3276,0.168954 -4.0666,0.30925 -4.21405,0.799981 -0.14095,0.469092 -2.29616,9.895806 -3.29233,14.400331 l -0.188,0.850115 7.66413,-0.226936 c 4.21526,-0.124859 13.33199,-0.386383 20.25939,-0.581274 z M 69.091423,282.68116 c 0.826409,-0.68584 1.304155,-2.03391 1.062325,-2.99748 -0.194891,-0.7765 -0.25761,-0.78365 -4.049079,-0.46144 -5.015412,0.42621 -8.446381,-0.0428 -13.905981,-1.90127 -3.982361,-1.35555 -4.3083,-1.41298 -4.746258,-0.83643 -0.258627,0.34049 -0.475389,1.20424 -0.481687,1.91943 -0.01088,1.23979 0.08501,1.34318 2.057779,2.21981 1.767611,0.78543 5.220954,1.91411 7.827065,2.55816 0.395849,0.0978 3.172627,0.13991 6.170616,0.0934 4.074713,-0.0631 5.605976,-0.21311 6.06522,-0.59426 z m 0.626526,-6.13548 c 1.4954,-0.4153 1.972299,-1.37516 1.422144,-2.86237 l -0.327136,-0.88434 -5.539239,-0.0336 c -6.172778,-0.0374 -8.061318,-0.41532 -12.474116,-2.49645 -1.439087,-0.6787 -2.833291,-1.15081 -3.098229,-1.04914 -0.642506,0.24655 -1.259987,1.51729 -1.382765,2.84566 -0.09113,0.98654 0.07345,1.16366 1.910546,2.05485 4.213853,2.04427 7.601162,2.76344 13.104001,2.78216 2.770957,0.01 5.644113,-0.15115 6.384794,-0.35685 z M 45.87971,272.41383 c 0,-1.8636 0.636604,-3.59413 1.96083,-5.33028 0.504944,-0.66203 0.921644,-1.59323 0.925982,-2.06937 0.0095,-1.04212 1.03754,-3.38288 2.304709,-5.24767 1.591394,-2.34196 1.365002,-2.89751 -2.582499,-6.33738 -4.505164,-3.92579 -6.697703,-6.25102 -11.015551,-11.68222 -1.927575,-2.42459 -3.647677,-4.40836 -3.822466,-4.40836 -0.420154,0 -0.326129,-0.35263 -3.262613,12.23541 -2.891627,12.39574 -3.018336,14.12818 -1.283694,17.55133 2.076861,4.09849 7.535672,6.8627 13.626477,6.90013 l 3.148825,0.0193 z m 25.272257,-2.3814 c 1.127362,-0.58504 1.475879,-1.69154 0.838976,-2.66357 -0.801301,-1.22294 -1.93598,-1.39528 -4.839036,-0.735 -1.386751,0.31541 -3.224299,0.57348 -4.083445,0.57348 -1.9458,0 -4.58386,-1.28719 -5.298386,-2.58524 -0.48223,-0.87606 -0.457734,-1.19396 0.263537,-3.41873 0.43736,-1.34906 1.191397,-2.93867 1.675613,-3.53245 l 0.880418,-1.07959 1.731623,1.01149 c 9.965516,5.82115 22.014975,9.406 34.164254,10.16427 8.967849,0.5597 20.002849,-1.65191 27.781959,-5.56802 6.19595,-3.11912 12.56976,-8.6599 16.24323,-14.12033 2.81285,-4.18116 3.70841,-6.5977 3.71348,-10.02045 0.005,-3.39924 -0.52567,-5.31456 -2.01288,-7.26443 -2.06458,-2.70684 -3.71246,-3.43513 -10.5402,-4.65824 -8.1514,-1.46025 -11.12253,-2.47947 -15.34586,-5.26429 -6.6074,-4.35685 -11.47307,-10.25115 -13.58786,-16.4604 -0.40446,-1.18757 -0.925,-4.04946 -1.15675,-6.35977 -0.79634,-7.93853 0.65525,-16.55204 4.42513,-26.25822 1.96748,-5.06563 17.00594,-50.11445 23.76937,-71.20303 5.64616,-17.604797 8.71256,-23.636993 15.11425,-29.732517 3.65963,-3.484612 8.70113,-6.423313 12.87505,-7.50488 3.31582,-0.859214 9.81979,-0.783034 12.46302,0.145996 7.39952,2.600724 12.54462,10.271579 14.19767,21.167385 0.33635,2.217008 0.58876,2.968882 0.99671,2.968882 1.01256,0 5.60603,-5.098665 6.97049,-7.737092 6.66328,-12.884668 4.24081,-29.393251 -6.33675,-43.183786 -6.91813,-9.019508 -18.00179,-17.044034 -28.2579,-20.458573 -6.21491,-2.069108 -13.67643,-2.983585 -19.55978,-2.397196 -14.99119,1.494145 -27.76664,7.976147 -39.466713,20.024627 -8.830179,9.093131 -11.963758,14.565449 -21.403584,37.378171 -1.228514,2.968881 -4.213146,10.175174 -6.632499,16.013975 -2.419357,5.838815 -5.861791,14.178688 -7.649872,18.533048 -1.788067,4.35436 -4.300711,10.42709 -5.583657,13.49493 -1.282946,3.06785 -5.80624,13.91777 -10.05177,24.11094 -4.245531,10.19318 -9.392453,22.41958 -11.437596,27.1698 -2.045144,4.75021 -4.210195,10.17519 -4.811218,12.05548 -5.142692,16.08881 -4.449644,32.33267 1.911348,44.79882 4.505218,8.8292 12.984922,18.37785 23.209578,26.13533 l 1.239531,0.94043 -1.072658,1.51182 c -2.369614,3.33976 -4.932432,7.80465 -5.110839,8.904 -0.153557,0.94629 0.0054,1.35964 0.849136,2.20301 1.258342,1.25836 6.128793,2.97133 9.486669,3.33655 2.736016,0.29758 8.540913,0.029 9.438211,-0.43663 z m 8.914902,-17.35637 C 68.15981,249.06798 57.671182,240.3294 52.184665,229.44608 c -6.018296,-11.93819 -7.160701,-26.9912 -3.178068,-41.8761 1.008257,-3.7683 1.635843,-4.57644 2.990807,-3.85128 0.886091,0.47422 0.887247,0.74096 0.02244,5.21803 -3.705563,19.1832 0.42618,36.73831 11.231348,47.72019 5.782601,5.87715 11.716601,9.39067 19.505215,11.549 3.118441,0.86417 3.428194,1.1195 3.428194,2.82587 0,2.64854 -1.485712,3.04786 -6.117707,1.64427 z m -3.957281,-16.09772 c -8.53361,-6.18171 -13.627242,-19.15672 -13.797489,-35.14636 -0.06365,-5.98295 1.5e-4,-6.18083 1.998016,-6.19211 1.39691,-0.008 1.722019,0.88888 1.722019,4.7498 0,6.51051 1.52804,15.43428 3.566124,20.82612 1.550404,4.10171 5.202651,9.26214 8.041709,11.36253 1.807952,1.33755 2.786776,2.4887 2.786776,3.27741 0,0.63013 -1.631314,2.24268 -2.268775,2.24268 -0.276185,0 -1.197965,-0.50403 -2.04838,-1.12007 z m 1.959415,-16.0276 c -1.713696,-1.84911 -3.392341,-8.7163 -3.397387,-13.89838 -0.0027,-2.63388 0.04951,-2.82049 0.895489,-3.20591 1.424711,-0.64914 2.338711,0.41352 2.347715,2.72961 0.01224,3.14948 0.68803,6.737 1.959755,10.40372 1.211322,3.4925 1.217239,3.53991 0.528746,4.22842 -0.919808,0.91979 -1.280117,0.88005 -2.334318,-0.25746 z M 168.92626,48.910332 c -1.08628,-1.168723 -4.5016,-3.623439 -7.34999,-5.282744 -2.63283,-1.533724 -7.63002,-3.329925 -10.79986,-3.881929 -1.67688,-0.292018 -2.50012,-0.626485 -2.88124,-1.170601 -0.71571,-1.021816 -0.67264,-1.542171 0.19989,-2.414687 0.82209,-0.822084 1.33095,-0.787319 6.22333,0.425173 4.09295,1.014363 8.70328,3.117434 12.77217,5.826207 5.26555,3.505421 6.72012,5.432778 5.16336,6.841644 -0.96456,0.872911 -2.32811,0.732329 -3.32766,-0.343063 z m 6.85238,-6.461437 c -11.89922,-12.111712 -31.9236,-16.445718 -47.22108,-10.220357 -3.1981,1.301471 -5.78068,2.880202 -8.95646,5.475065 -2.6591,2.172681 -3.50936,2.372129 -4.53737,1.064361 -0.72478,-0.922011 -0.52754,-1.741048 0.71973,-2.98859 9.21817,-9.22018 24.94727,-12.50499 40.93247,-8.548213 6.02919,1.492391 11.64161,4.066498 16.04105,7.357143 3.33644,2.49556 6.95175,5.861162 7.56046,7.038291 0.50617,0.978809 0.50494,1.161569 -0.0136,1.952152 -0.97404,1.486555 -2.27411,1.16199 -4.52573,-1.129852 z M 64.95254,264.71031 c 0.851271,-0.25177 0.822233,-0.28845 -0.539791,-0.68185 -1.7576,-0.50764 -3.778588,-0.54519 -3.778588,-0.0702 0,0.3553 1.895163,1.02779 2.878924,1.02156 0.296887,-0.001 0.944643,-0.12309 1.439455,-0.26951 z m 76.50159,-44.20095 c 0.21459,-0.14541 0.71873,-1.5599 1.12032,-3.1433 0.40157,-1.58341 2.13775,-7.98001 3.85815,-14.21467 6.94981,-25.18578 12.80341,-46.53534 15.73742,-57.39845 1.17607,-4.35435 2.44756,-8.96962 2.82554,-10.25614 0.59064,-2.01041 6.384,-22.91424 8.27793,-29.86879 0.91087,-3.34475 0.80545,-3.44609 -3.85349,-3.70479 -5.90888,-0.32808 -9.90923,-1.81906 -14.47986,-5.396828 -1.50252,-1.176135 -2.66538,-1.814276 -3.30611,-1.814276 -1.4647,0 -3.3801,1.662623 -4.38473,3.806035 -0.48768,1.040509 -7.82157,22.620049 -16.29752,47.954529 -14.60594,43.65693 -15.4099,46.19489 -15.39327,48.5938 0.0365,5.25006 2.51248,10.48863 6.89361,14.58463 2.20662,2.063 3.55564,2.9141 8.54694,5.39221 3.25973,1.6184 6.77688,3.5651 7.81591,4.32599 2.07307,1.51814 2.07805,1.52029 2.63916,1.14005 z"
       id="path6565" /></g><metadata
     id="metadata182"><rdf:RDF><cc:Work
         rdf:about=""><cc:license
           rdf:resource="http://creativecommons.org/licenses/by-sa/4.0/" /><dc:creator><cc:Agent><dc:title>Jameela P</dc:title></cc:Agent></dc:creator><dc:publisher><cc:Agent><dc:title>OpenDataKerala.org</dc:title></cc:Agent></dc:publisher><dc:date>April 2026</dc:date><dc:title>Election Symbols of Kerala</dc:title></cc:Work><cc:License
         rdf:about="http://creativecommons.org/licenses/by-sa/4.0/"><cc:permits
           rdf:resource="http://creativecommons.org/ns#Reproduction" /><cc:permits
           rdf:resource="http://creativecommons.org/ns#Distribution" /><cc:requires
           rdf:resource="http://creativecommons.org/ns#Notice" /><cc:requires
           rdf:resource="http://creativecommons.org/ns#Attribution" /><cc:permits
           rdf:resource="http://creativecommons.org/ns#DerivativeWorks" /><cc:requires
           rdf:resource="http://creativecommons.org/ns#ShareAlike" /></cc:License></rdf:RDF></metadata></svg>
