<?xml version="1.0" encoding="UTF-8" standalone="no"?>
<!-- Created with Inkscape (http://www.inkscape.org/) -->

<svg
   width="1500"
   height="1500"
   viewBox="0 0 396.87499 396.875"
   version="1.1"
   id="svg5"
   xml:space="preserve"
   inkscape:version="1.2.2 (b0a8486541, 2022-12-01)"
   sodipodi:docname="indi03.svg"
   inkscape:export-filename="indi03.png"
   inkscape:export-xdpi="96"
   inkscape:export-ydpi="96"
   xmlns:inkscape="http://www.inkscape.org/namespaces/inkscape"
   xmlns:sodipodi="http://sodipodi.sourceforge.net/DTD/sodipodi-0.dtd"
   xmlns="http://www.w3.org/2000/svg"
   xmlns:svg="http://www.w3.org/2000/svg"
   xmlns:rdf="http://www.w3.org/1999/02/22-rdf-syntax-ns#"
   xmlns:cc="http://creativecommons.org/ns#"
   xmlns:dc="http://purl.org/dc/elements/1.1/"><title
     id="title186">Election Symbols of Kerala</title><sodipodi:namedview
     id="namedview7"
     pagecolor="#ffffff"
     bordercolor="#000000"
     borderopacity="0.25"
     inkscape:showpageshadow="2"
     inkscape:pageopacity="0.0"
     inkscape:pagecheckerboard="0"
     inkscape:deskcolor="#d1d1d1"
     inkscape:document-units="mm"
     showgrid="false"
     inkscape:zoom="0.35355339"
     inkscape:cx="-134.35029"
     inkscape:cy="974.39314"
     inkscape:window-width="1854"
     inkscape:window-height="1011"
     inkscape:window-x="0"
     inkscape:window-y="0"
     inkscape:window-maximized="1"
     inkscape:current-layer="layer1" /><defs
     id="defs2"><inkscape:path-effect
       effect="bspline"
       id="path-effect3248"
       is_visible="true"
       lpeversion="1"
       weight="33.333333"
       steps="2"
       helper_size="0"
       apply_no_weight="true"
       apply_with_weight="true"
       only_selected="false" /><inkscape:path-effect
       effect="bspline"
       id="path-effect577"
       is_visible="true"
       lpeversion="1"
       weight="33.333333"
       steps="2"
       helper_size="0"
       apply_no_weight="true"
       apply_with_weight="true"
       only_selected="false" /></defs><g
     inkscape:label="Layer 1"
     inkscape:groupmode="layer"
     id="layer1"><path
       style="fill:#000000;stroke-width:0.340334"
       d="m 227.08718,311.89541 c -1.49693,-0.24568 -2.67611,-0.83705 -3.16818,-1.58883 -0.60438,-0.92335 -2.27718,-6.69529 -2.27718,-7.8573 0,-0.53684 -0.19063,-0.87188 -0.49605,-0.87188 -0.27283,0 -4.59932,-0.46254 -9.61444,-1.02786 -10.95845,-1.23527 -30.02584,-3.33277 -55.57398,-6.11341 -10.3887,-1.1307 -21.56867,-2.35733 -24.84439,-2.72589 -6.35445,-0.71492 -22.67575,-2.46679 -28.58805,-3.06853 -1.96544,-0.20005 -6.942823,-0.74482 -11.060865,-1.21061 -16.011559,-1.81104 -32.012178,-3.54869 -32.691526,-3.55024 -0.197872,-3.5e-4 -1.065071,0.95636 -1.927099,2.12626 -0.862016,1.1699 -2.050507,2.58653 -2.641087,3.14809 l -1.073766,1.021 h -4.714683 c -4.538962,0 -4.747844,-0.0311 -5.604599,-0.83639 -0.599416,-0.56335 -1.225613,-1.9169 -1.918236,-4.14629 -1.172503,-3.77405 -0.667063,-3.44054 -6.094627,-4.0214 -13.926227,-1.49035 -15.434558,-1.72181 -16.929318,-2.59779 -1.840775,-1.07878 -3.604861,-3.47257 -4.363446,-5.92103 -0.536426,-1.73141 -0.606594,-7.70519 -0.909583,-77.43032 -0.367509,-84.57255 -0.551977,-77.53989 2.11337,-80.56788 1.903096,-2.16203 3.65684,-2.78722 10.729778,-3.82504 3.369314,-0.49437 13.400657,-1.96055 22.291885,-3.25819 8.891229,-1.29763 23.976542,-3.50201 33.52291,-4.8986 9.546365,-1.39661 22.181282,-3.242134 28.077552,-4.101156 5.8963,-0.859029 16.76997,-2.466568 24.16373,-3.572344 7.39375,-1.105766 15.66388,-2.318758 18.37803,-2.695544 4.79874,-0.666161 11.184,-1.609489 25.52506,-3.770918 3.83728,-0.578351 11.64794,-1.725278 17.35704,-2.548744 12.53428,-1.807923 35.20695,-5.127148 46.62577,-6.825916 12.81357,-1.906261 11.5628,-1.934496 20.07971,0.453189 4.02446,1.128242 9.61444,2.694417 12.42219,3.480386 17.18377,4.8102 23.12318,6.48511 25.69524,7.246015 1.59105,0.470699 6.26214,1.794087 10.38018,2.940863 4.11804,1.146775 8.28077,2.448012 9.2505,2.89163 3.20563,1.466485 4.85788,4.797329 4.8917,9.861399 l 0.0183,2.74599 3.95412,2.89284 c 4.6602,3.40941 9.74587,8.15392 13.31548,12.42219 6.03059,7.21101 12.15456,18.36856 15.31728,27.90741 6.39572,19.28965 7.1447,42.93923 1.93327,61.0451 -4.45432,15.47562 -14.07704,30.32887 -26.06742,40.23677 -1.86142,1.5381 -3.38438,2.84855 -3.38438,2.91211 0,0.0636 2.64184,0.10818 5.87075,0.0992 12.4889,-0.035 21.83741,2.59815 30.67647,8.64025 5.63599,3.85257 9.59916,8.3602 14.31718,16.28413 4.13492,6.94464 7.25303,9.82947 12.604,11.66115 1.96259,0.67181 2.05017,0.75131 2.15008,1.95222 0.1141,1.37155 -1.02313,3.53528 -2.03156,3.86521 -0.31134,0.10187 -1.53654,-0.13828 -2.72266,-0.53364 -6.25031,-2.08335 -10.77886,-6.26997 -15.26545,-14.11282 -5.19615,-9.08321 -10.53341,-14.09837 -19.06432,-17.91377 -6.16972,-2.75937 -12.67585,-4.0344 -20.57864,-4.03281 -2.62058,6.8e-4 -5.54044,0.0941 -6.48861,0.20812 l -1.72392,0.20717 0.0222,7.02198 c 0.0214,6.74163 -0.0103,7.08311 -0.78096,8.55347 -1.0239,1.95233 -2.2831,3.3045 -3.79131,4.07122 -1.29574,0.65872 -5.36568,2.16405 -29.09855,10.76259 -8.61046,3.11962 -18.33551,6.66325 -21.61122,7.87475 -8.43615,3.12004 -11.62104,4.13841 -13.68391,4.37544 -1.03049,0.11847 -4.56837,-0.096 -8.26765,-0.50085 -3.55648,-0.38932 -7.29051,-0.74836 -8.29781,-0.79789 l -1.83149,-0.0901 -1.46902,3.54245 c -0.80797,1.94835 -1.66847,3.67074 -1.91221,3.82755 -1.31391,0.84523 -6.10193,1.23147 -9.12168,0.73584 z m 5.67101,-2.70736 1.75717,-0.2111 0.9655,-2.58347 c 0.53103,-1.42089 1.01141,-2.68749 1.06752,-2.81467 0.11885,-0.26948 -3.29712,-0.79159 -3.54665,-0.54207 -0.0924,0.0924 -0.29139,1.44812 -0.44233,3.01287 l -0.27447,2.84497 -0.0463,-2.97144 c -0.0435,-2.78756 -0.0938,-2.98174 -0.81213,-3.13786 -1.33556,-0.29027 -6.54055,-0.82169 -6.68021,-0.68204 -0.15063,0.15062 0.45488,3.38879 1.00293,5.36372 0.22222,0.80078 0.64358,1.40955 1.10396,1.59502 0.89392,0.36013 3.49479,0.41566 5.90508,0.12606 z m 24.04187,-7.22358 c 2.7016,-1.78131 2.65162,-1.11163 2.27603,-30.49892 -0.18187,-14.23021 -0.48834,-38.35487 -0.68108,-53.61033 -0.19273,-15.25548 -0.65239,-51.46807 -1.02148,-80.47242 l -0.67108,-52.735144 -0.76886,-1.548129 c -0.49208,-0.990826 -1.19938,-1.778634 -1.96483,-2.188463 l -1.19598,-0.640347 -14.4594,2.101804 c -38.39255,5.580714 -47.39449,6.894385 -54.95914,8.020277 -4.49241,0.668649 -14.90663,2.198749 -23.14272,3.400216 -8.23608,1.201467 -20.18181,2.957904 -26.54606,3.903191 -14.20058,2.109229 -39.536263,5.827335 -56.835781,8.340885 -7.11298,1.03349 -15.076798,2.1978 -17.697381,2.58738 -8.959261,1.33191 -23.137359,3.39812 -31.436335,4.58131 -9.176414,1.30829 -9.94035,1.57369 -11.553745,4.01395 l -0.913018,1.38091 0.09995,66.04841 c 0.119755,79.20468 0.191081,86.13507 0.903524,87.84017 0.738775,1.76815 2.398954,3.75347 3.499912,4.18536 0.51811,0.20325 4.005031,0.67995 7.748697,1.05935 3.74368,0.3794 13.621875,1.4573 21.951555,2.39536 8.32968,0.93808 20.964576,2.32397 28.077556,3.07981 7.112993,0.75581 20.513634,2.20997 29.779226,3.23145 9.2656,1.02149 19.7564,2.1717 23.31289,2.55603 3.55649,0.38434 8.53388,0.92217 11.06086,1.19519 4.40098,0.4755 24.37847,2.68915 27.56706,3.05465 0.84232,0.0966 7.27464,0.78718 14.29403,1.53473 7.01939,0.74756 14.67691,1.58582 17.01671,1.86281 4.24936,0.50306 9.98771,1.13202 31.14056,3.41326 6.17706,0.66618 13.68143,1.49458 16.67637,1.84091 7.01866,0.81162 7.30822,0.81389 8.44201,0.0664 z m -21.8852,-9.76072 c -7.20658,-0.62468 -16.16588,-1.38091 -19.90955,-1.68051 -12.07516,-0.96637 -12.74734,-1.05372 -13.72718,-1.78403 -2.18184,-1.6262 -2.01286,1.46254 -2.40704,-43.9976 -0.19722,-22.74283 -0.43696,-45.02622 -0.53277,-49.51862 -0.23928,-11.21752 -0.69005,-66.17228 -0.69005,-84.12278 0,-14.310696 0.0184,-14.71918 0.70169,-15.634349 1.38009,-1.848201 2.17392,-2.16775 7.13892,-2.873765 6.05611,-0.861177 30.15924,-4.224377 36.37703,-5.075836 5.32636,-0.729396 6.26983,-0.648731 7.66584,0.655335 1.82373,1.703609 1.64374,-4.108036 2.40901,77.782675 0.35842,38.35246 0.85537,82.1432 1.2226,107.73258 0.25107,17.49457 0.21473,17.90408 -1.69231,19.06693 -1.31964,0.80467 -0.6839,0.82579 -16.55619,-0.55003 z m 15.65537,-4.89589 v -2.01752 l -1.78677,-0.19435 c -0.98271,-0.10689 -7.07043,-0.58498 -13.52827,-1.06241 -6.45784,-0.47744 -16.32239,-1.24332 -21.92121,-1.70197 -5.59882,-0.45866 -10.46898,-0.83393 -10.82258,-0.83393 -0.56745,0 -0.63093,0.22907 -0.54085,1.95142 l 0.102,1.9514 13.78354,1.08296 c 7.58093,0.59562 17.15284,1.34337 21.27087,1.66166 6.21984,0.48074 9.81606,0.79427 13.01779,1.13498 0.29757,0.0316 0.42541,-0.56097 0.42541,-1.97224 z m 0,-7.48281 v -2.01296 l -2.46742,-0.19816 c -1.3571,-0.10895 -5.68358,-0.4245 -9.61445,-0.70113 -3.93085,-0.27662 -10.36317,-0.73096 -14.29403,-1.00964 -3.93085,-0.27867 -9.59742,-0.66822 -12.59237,-0.86567 -2.99493,-0.19744 -6.40252,-0.45059 -7.57241,-0.56255 l -2.1271,-0.20356 v 1.90501 c 0,1.70427 0.0806,1.92077 0.76575,2.05479 0.42116,0.0823 5.43683,0.48786 11.14595,0.90106 5.7091,0.4132 15.81702,1.17303 22.46205,1.6885 6.64502,0.51546 12.57959,0.95523 13.18794,0.97725 l 1.10609,0.04 z m 0,-7.32537 v -1.85098 l -1.44642,-0.17671 c -0.79555,-0.0972 -4.35628,-0.34039 -7.91278,-0.54045 -3.55649,-0.20007 -8.7636,-0.51277 -11.57135,-0.6949 -2.80776,-0.18213 -8.8572,-0.55806 -13.4432,-0.8354 -4.586,-0.27734 -9.75482,-0.59797 -11.48628,-0.71251 l -3.14808,-0.20826 v 1.90359 c 0,1.88292 0.0115,1.90361 1.00834,1.90361 2.2376,0 43.04139,2.66243 43.91576,2.86549 0.28077,0.0652 1.31453,0.13633 2.29724,0.15803 l 1.78677,0.0395 z m -0.068,-7.25294 -0.10213,-1.95693 -6.97684,-0.38914 c -3.83727,-0.21403 -10.11643,-0.56406 -13.9537,-0.77785 -3.83727,-0.21378 -9.50383,-0.53731 -12.59236,-0.71898 -3.08854,-0.18164 -7.79791,-0.42977 -10.46528,-0.55138 l -4.84975,-0.22111 v 1.90033 1.90032 l 1.78675,0.18432 c 0.98271,0.10136 3.62456,0.26801 5.87076,0.37029 4.94395,0.22514 27.16619,1.46123 33.13951,1.84336 2.36348,0.15119 5.1855,0.29712 6.27114,0.32429 l 1.97391,0.0494 z M 250.23,257.90987 v -2.14677 l -9.10393,-0.41416 c -5.00716,-0.22779 -13.5453,-0.63052 -18.97363,-0.89497 -5.42833,-0.26444 -12.2818,-0.58551 -15.22996,-0.71348 l -5.36025,-0.23266 v 2.03071 2.03072 l 4.16909,0.212 c 9.19665,0.46764 31.00942,1.62548 35.65,1.89235 2.71417,0.15608 5.81545,0.30609 6.89176,0.3334 l 1.95692,0.0497 z m -0.068,-7.29751 -0.102,-1.95691 -6.46634,-0.23055 c -3.5565,-0.12683 -11.90319,-0.46794 -18.54821,-0.7581 -6.64503,-0.29017 -14.64713,-0.63133 -17.78245,-0.75816 l -5.7006,-0.23059 v 1.92462 c 0,1.87314 0.0251,1.92457 0.93592,1.92278 0.51474,-9.4e-4 5.98987,0.23699 12.16693,0.5289 6.17706,0.29192 15.44266,0.73006 20.59022,0.97367 5.14755,0.24358 10.63032,0.46503 12.18393,0.49208 l 2.82474,0.0491 z m 0.068,-6.89176 v -2.042 h -1.19478 c -2.42626,0 -31.73982,-1.00365 -34.37014,-1.17678 -1.49745,-0.0985 -5.09649,-0.19634 -7.99784,-0.21727 l -5.27518,-0.038 -0.10136,1.69528 -0.10136,1.69528 3.50475,0.21577 c 1.92763,0.11872 10.24338,0.45581 18.47947,0.7492 13.8412,0.49307 25.61002,0.98284 26.63114,1.1083 0.29888,0.0367 0.42542,-0.55515 0.42542,-1.98974 z m -0.0672,-6.7254 c 0.0715,-1.24459 -0.0322,-1.83443 -0.34033,-1.93441 -0.37772,-0.12258 -35.51198,-1.15071 -45.19726,-1.32266 l -3.23319,-0.0573 -0.10175,1.75615 -0.10187,1.75615 2.48415,0.18375 c 1.36628,0.1011 11.74974,0.43915 23.07435,0.75132 11.32462,0.31216 20.66131,0.63341 20.74822,0.71388 0.087,0.0805 0.6995,0.10071 1.36133,0.045 1.19723,-0.10072 1.20387,-0.11037 1.30634,-1.89185 z m -0.27316,-7.00282 v -2.15685 l -15.22995,-0.22693 c -8.37648,-0.12477 -19.32673,-0.32733 -24.33389,-0.45006 l -9.10394,-0.22315 v 1.88954 1.88955 l 3.31825,0.20473 c 1.82505,0.11255 9.52085,0.36533 17.10179,0.56161 7.58095,0.19628 14.85559,0.39696 16.16587,0.44599 1.3103,0.049 4.56473,0.11911 7.2321,0.15578 l 4.84977,0.0666 z m 0,-6.82662 v -2.17677 l -4.84977,-0.20128 c -2.66737,-0.11074 -13.61761,-0.29701 -24.33388,-0.41402 l -19.48413,-0.21276 v 2.08032 2.08031 l 3.82877,0.0344 c 2.10581,0.0189 11.94572,0.22494 21.86644,0.45773 9.92075,0.2328 19.14806,0.44702 20.50514,0.47603 l 2.46743,0.0527 z m 0,-7.35255 v -2.38234 H 225.33796 200.7863 l 0.19688,1.90767 c 0.10831,1.04921 0.26997,1.98074 0.35928,2.07005 0.0892,0.0892 9.24944,0.27756 20.35584,0.41832 11.10642,0.14077 21.99301,0.2813 24.19242,0.31229 l 3.99892,0.0563 z m 0,-7.48735 v -2.38234 l -22.71731,0.003 c -12.4945,9.5e-4 -23.52133,0.0996 -24.50406,0.21759 l -1.78674,0.2146 v 2.16477 2.16477 h 24.50405 24.50406 v -2.38235 z m -7.77174,-4.76467 h 7.4314 v -8.73352 -8.73351 l -11.31611,0.22776 c -6.22386,0.12528 -17.17411,0.32796 -24.33389,0.45045 l -13.01777,0.22269 v 8.50882 8.50883 l 16.90248,-0.22576 c 9.29636,-0.12414 20.24661,-0.22576 24.33389,-0.22576 z m -22.66643,-5.44652 c -1.99872,-0.35796 -3.13097,-1.13261 -3.98613,-2.72715 -1.29109,-2.40736 -0.48766,-5.38723 1.8342,-6.80288 0.92695,-0.56517 1.71768,-0.6765 4.8127,-0.67756 3.12058,-9.4e-4 3.87821,0.10677 4.81352,0.68477 2.89327,1.78812 2.93684,6.86708 0.0764,8.90389 -1.1745,0.83631 -4.71606,1.12662 -7.5507,0.61893 z m 1.00877,-2.1071 c 1.76403,-0.80375 2.42898,-3.5829 1.21572,-5.0812 -0.51912,-0.64109 -0.99621,-0.80578 -2.41973,-0.83529 -1.63395,-0.0338 -1.82351,0.0459 -2.41512,1.01608 -0.3531,0.57905 -0.64258,1.45334 -0.64328,1.94286 -9.5e-4,1.03055 1.13055,2.60946 2.17282,3.03058 0.97762,0.39501 1.0694,0.3918 2.08959,-0.073 z m 5.77618,0.0662 c 0.12952,-0.20955 -0.44355,-0.34033 -1.49134,-0.34033 -0.93591,0 -1.79632,0.15314 -1.91201,0.34033 -0.12951,0.20956 0.44355,0.34033 1.49133,0.34033 0.93593,0 1.79632,-0.15315 1.91202,-0.34033 z m 1.19116,-1.36134 c 0,-0.18718 -0.84232,-0.34033 -1.87184,-0.34033 -1.0295,0 -1.87184,0.15315 -1.87184,0.34033 0,0.18719 0.84234,0.34033 1.87184,0.34033 1.02952,0 1.87184,-0.15314 1.87184,-0.34033 z m 0,-1.53151 c 0,-0.38571 -0.41596,-0.51049 -1.70167,-0.51049 -1.58143,0 -2.02828,0.2406 -1.47477,0.79411 0.12477,0.12477 0.89054,0.22689 1.70166,0.22689 1.08403,0 1.47478,-0.13527 1.47478,-0.51051 z m 0,-1.49508 c 0,-0.4485 -0.90273,-0.71709 -2.41016,-0.71709 -1.6095,0 -1.78035,0.5821 -0.22743,0.7748 2.08063,0.25822 2.63759,0.24602 2.63759,-0.0577 z m -1.36133,-1.73809 c -0.68448,-0.44234 -3.16622,-0.44234 -2.89284,0 0.11564,0.18719 0.92876,0.33799 1.80684,0.33512 1.15624,-0.004 1.45571,-0.0962 1.086,-0.33512 z m 9.97521,7.81164 c -1.98058,-0.39142 -3.01878,-1.16137 -3.83249,-2.84227 -0.89204,-1.84274 -0.87843,-2.76628 0.0684,-4.63421 1.20033,-2.36813 2.42048,-2.88766 6.78174,-2.88766 4.04472,0 4.78496,0.30114 6.35126,2.5838 0.65702,0.95751 0.77277,1.49033 0.66349,3.05397 -0.24639,3.52525 -2.21792,5.11037 -6.27549,5.04546 -1.28199,-0.0206 -2.97259,-0.16411 -3.75687,-0.31909 z m 7.04149,-1.68562 c 0,-0.18719 -0.68013,-0.34033 -1.51142,-0.34033 -0.83128,0 -1.60606,0.15314 -1.72176,0.34033 -0.12963,0.20976 0.45025,0.34033 1.51142,0.34033 0.94697,0 1.72176,-0.15315 1.72176,-0.34033 z m -4.7385,-0.99483 c 1.24098,-1.24097 1.36465,-3.20791 0.28776,-4.57693 -0.96282,-1.22405 -1.97961,-1.7474 -2.46055,-1.26646 -0.26893,0.26893 -0.15769,0.37187 0.40183,0.37187 0.91875,0 0.8873,0.91047 -0.0517,1.49503 -0.71532,0.44532 -1.36663,-0.26322 -1.13423,-1.23387 0.11616,-0.48496 0.0262,-0.52817 -0.50608,-0.24328 -2.80623,1.50185 -1.70169,6.44847 1.4399,6.44847 0.68267,0 1.36254,-0.33433 2.02303,-0.99483 z m 5.7595,-0.19635 c 0.36807,-0.44347 0.17248,-0.51049 -1.48983,-0.51049 -2.14398,0 -2.61105,0.56661 -0.63725,0.77307 0.70193,0.0734 1.37236,0.15926 1.48983,0.19072 0.11745,0.0315 0.40424,-0.17252 0.63725,-0.4533 z m 0.46342,-1.70167 c 0.15941,-0.41542 -0.15074,-0.51049 -1.66526,-0.51049 -1.42747,0 -1.86117,0.11898 -1.86117,0.51049 0,0.38423 0.41193,0.51051 1.66526,0.51051 1.16628,0 1.72397,-0.15297 1.86117,-0.51051 z m -0.12311,-1.70166 c 0,-0.38571 -0.41596,-0.51051 -1.70167,-0.51051 -2.16409,0 -2.23051,0.60168 -0.0851,0.77084 0.88913,0.0701 1.65488,0.15508 1.70168,0.18882 0.0468,0.0337 0.0851,-0.16837 0.0851,-0.44915 z m -1.17114,-1.71249 c -0.91516,-0.6922 -3.30244,-0.68368 -3.03594,0.0103 0.13983,0.36438 0.69695,0.50742 1.94624,0.49969 1.61307,-0.0103 1.69853,-0.0501 1.0897,-0.5105 z m -35.54742,6.52238 c -0.22593,-0.27224 -0.49934,-1.08296 -0.60756,-1.8016 -0.12955,-0.86029 -0.61801,-1.74976 -1.42995,-2.60388 -1.10904,-1.16664 -1.17322,-1.33109 -0.63759,-1.63348 0.32757,-0.18495 0.59558,-0.62956 0.59558,-0.98804 0,-0.83548 0.81557,-1.26217 2.69363,-1.40929 l 1.4974,-0.11731 0.3982,1.70168 c 0.219,0.93591 0.81862,2.49621 1.33245,3.46733 0.55449,1.04792 0.88968,2.15469 0.82455,2.72267 -0.10547,0.91947 -0.19104,0.96092 -2.18281,1.05694 -1.49522,0.072 -2.18762,-0.038 -2.4839,-0.39505 z m 3.36583,-1.41853 c 0,-0.47455 -0.25724,-1.25539 -0.57164,-1.73524 -0.3144,-0.47983 -0.75156,-1.58478 -0.97147,-2.45544 -0.35958,-1.42368 -0.50759,-1.59376 -1.47037,-1.68968 -1.01725,-0.10136 -1.07054,-0.0472 -1.07054,1.08681 0,0.80618 0.22007,1.34756 0.67824,1.66846 0.37302,0.26129 0.77692,0.99744 0.89754,1.63589 0.26426,1.39864 1.02642,2.35202 1.88031,2.35202 0.44522,0 0.62793,-0.25105 0.62793,-0.86282 z m 9.41157,-10.24112 4.81706,-0.19458 -0.1516,-8.72986 c -0.0834,-4.80142 -0.28958,-22.7981 -0.45818,-39.99262 -0.16863,-17.19451 -0.37859,-31.33475 -0.46659,-31.42275 -0.13915,-0.13915 -19.19731,1.96312 -22.82001,2.51722 l -1.32957,0.20336 0.22687,31.85431 c 0.12478,17.51985 0.32497,35.09878 0.44487,39.06425 l 0.21799,7.20998 7.35105,-0.15737 c 4.04308,-0.0866 9.51871,-0.24492 12.16811,-0.35194 z m 24.72098,-0.46744 h 4.41401 l -0.21256,-9.95476 c -0.11692,-5.47512 -0.29169,-21.82393 -0.3884,-36.33066 -0.1896,-28.4323 -0.39451,-36.75609 -0.90492,-36.75609 -0.17841,0 -1.3492,0.15634 -2.60175,0.34742 -1.25255,0.19109 -6.00732,0.79422 -10.56616,1.3403 -4.55884,0.54609 -8.3514,1.05549 -8.4279,1.132 -0.0765,0.0765 0.0103,12.3763 0.19339,27.33285 0.18288,14.95656 0.37248,32.09454 0.42134,38.08442 0.0489,5.98988 0.14585,11.87166 0.21553,13.07061 l 0.1267,2.17992 6.65836,-0.22301 c 3.66208,-0.12258 8.64467,-0.223 11.07238,-0.223 z m -10.97763,-3.14807 c -3.58796,-1.83982 -3.74515,-7.32764 -0.27057,-9.44612 0.9222,-0.56227 1.71748,-0.6765 4.71746,-0.67756 3.18117,-9.4e-4 3.74296,0.0895 4.74627,0.76565 2.46677,1.66234 3.20979,4.95623 1.7171,7.61211 -1.19274,2.12221 -2.13133,2.51166 -6.0531,2.51166 -2.81903,0 -3.60566,-0.124 -4.85716,-0.76574 z m 8.75448,-1.70168 c 1.14934,-1.22693 1.5023,-2.51606 1.09898,-4.01384 -0.46213,-1.7162 -1.74305,-2.70775 -3.49797,-2.70775 -1.35014,0 -1.35999,0.009 -0.74742,0.68594 0.97963,1.08246 1.09739,4.10705 0.21796,5.59756 l -0.71028,1.20384 h 1.46071 c 1.07537,0 1.64994,-0.202 2.17802,-0.76575 z m -4.99684,-0.56941 c 0.79493,-0.79492 0.99482,-1.29261 0.99482,-2.47677 0,-1.43203 -0.72045,-2.99475 -1.38063,-2.99475 -0.17656,0 -0.32103,0.27567 -0.32103,0.61261 0,0.61714 -0.60506,1.4294 -1.06476,1.4294 -0.62868,0 -1.32717,-1.13533 -1.11322,-1.80943 0.21728,-0.68456 0.1911,-0.69276 -0.58403,-0.18298 -1.69334,1.11369 -1.89784,4.04641 -0.38748,5.55679 1.18055,1.18054 2.59022,1.13125 3.85633,-0.13487 z m -2.00011,-10.30427 c -0.63289,-0.63288 -0.52045,-3.83958 0.15426,-4.39968 0.38446,-0.31915 1.81761,-0.50475 4.5248,-0.58596 4.53048,-0.13593 4.75351,-0.0269 5.034,2.46162 0.13597,1.20633 0.0304,1.62929 -0.55233,2.21197 -0.6523,0.6523 -1.10032,0.72045 -4.7364,0.72045 -2.66973,0 -4.15283,-0.1369 -4.42433,-0.4084 z m 8.09995,-2.31426 v -1.02101 h -3.41402 c -2.72073,0 -3.45381,0.10368 -3.60993,0.5105 -0.49562,1.2916 0.0698,1.53151 3.60993,1.53151 h 3.41402 z m -7.91277,-4.42499 c -0.87337,-0.54773 -0.8577,-4.25947 0.02,-4.72919 0.33856,-0.18117 2.41089,-0.378 4.6052,-0.43738 3.25871,-0.0883 4.04909,-0.0144 4.31409,0.40254 0.49431,0.7778 0.4078,3.94014 -0.11976,4.37798 -0.64515,0.53542 -8.06351,0.86016 -8.81946,0.38605 z m 7.37443,-1.56728 c 0.31924,-0.12246 0.53834,-0.6073 0.53834,-1.19116 0,-0.93512 -0.0745,-0.98459 -1.48158,-0.98459 -0.81487,0 -2.42295,0.0984 -3.57352,0.21864 -2.02329,0.21148 -2.09192,0.25056 -2.09192,1.19117 v 0.97252 h 3.03517 c 1.66935,0 3.27743,-0.093 3.57351,-0.20658 z m -7.4309,-5.42893 c -0.35866,-0.35865 -0.53911,-1.15355 -0.53911,-2.37467 0,-2.33126 0.26006,-2.47927 4.84976,-2.76009 4.6572,-0.28496 5.01993,-0.097 5.01993,2.60226 0,1.5785 -0.12972,2.0847 -0.59558,2.32401 -0.32759,0.16827 -2.30567,0.40533 -4.39573,0.52678 -3.21436,0.18678 -3.88327,0.13771 -4.33927,-0.31829 z m 6.48766,-1.5115 c 1.41931,0 1.48158,-0.043 1.48158,-1.021 v -1.02101 h -3.03518 c -3.74521,0 -4.11184,0.12895 -4.11184,1.44623 v 1.03309 l 2.09192,-0.21867 c 1.15057,-0.12026 2.75865,-0.21864 3.57352,-0.21864 z m -6.80364,-5.81334 c -0.76233,-1.08838 -0.72908,-3.21008 0.0627,-4.00188 0.94006,-0.94004 8.03241,-1.35301 8.95153,-0.52119 0.76389,0.69131 0.89838,3.90623 0.18807,4.49573 -0.24433,0.20279 -2.28803,0.47291 -4.54154,0.60026 -4.04318,0.22848 -4.10474,0.22092 -4.66077,-0.57292 z m 7.88137,-2.26959 c 0.10097,-1.04721 0.0465,-1.10596 -1.02101,-1.10367 -0.62021,9.5e-4 -2.16141,0.10007 -3.4249,0.21937 -2.25646,0.21312 -2.29726,0.23445 -2.29726,1.20109 v 0.9841 l 3.31826,-0.0974 3.31826,-0.0974 z m -7.0835,-4.08258 c -0.87564,-0.2827 -1.36134,-1.18675 -1.36134,-2.5339 0,-1.63516 0.94785,-2.65687 2.46743,-2.65967 0.60835,-9.5e-4 2.33835,-0.098 3.84443,-0.21525 3.3654,-0.26205 3.89817,0.0909 3.89817,2.58226 0,2.42131 0.008,2.41812 -6.63652,2.8745 -0.93592,0.0643 -1.93139,0.0427 -2.21217,-0.048 z m 7.0858,-1.98452 c 0.24711,-0.0776 0.40026,-0.48624 0.34033,-0.90824 -0.0939,-0.66125 -0.34407,-0.78253 -1.81062,-0.87768 -0.93592,-0.0607 -2.50571,-0.0115 -3.48842,0.1096 -1.70409,0.2098 -1.78676,0.26666 -1.78676,1.22872 v 1.00874 l 3.1481,-0.21007 c 1.73144,-0.11551 3.35026,-0.27352 3.59737,-0.35105 z m -8.27697,-6.40634 c -2.22642,-0.54792 -3.03138,-1.08897 -3.88818,-2.61344 -1.49182,-2.65434 -0.50969,-6.48835 2.01634,-7.87144 1.74693,-0.9565 7.46256,-0.761 9.2032,0.31477 3.59361,2.22098 3.58472,7.90251 -0.0156,9.92597 -1.48213,0.83301 -4.5121,0.93411 -7.31581,0.24414 z m 4.76467,-1.22501 c -0.37436,-0.16088 -0.91039,-0.29249 -1.19117,-0.29249 -0.32177,0 -0.25887,0.10817 0.17017,0.29249 0.37438,0.16086 0.91039,0.29249 1.19118,0.29249 0.32176,0 0.25887,-0.10818 -0.17018,-0.29249 z m -2.46741,-1.97375 c 0.77393,-0.72462 0.93591,-1.1643 0.93591,-2.54045 0,-1.40018 -0.16413,-1.82831 -1.03464,-2.69882 -0.86509,-0.8651 -1.21364,-1.00029 -2.12709,-0.82502 -1.22602,0.23525 -2.50918,1.50643 -2.83632,2.80984 -0.37882,1.50937 0.45452,3.51643 1.68006,4.04628 1.30815,0.56557 2.1404,0.37071 3.38208,-0.79183 z m 4.93654,0.69749 c 0.0965,-0.29306 -0.28599,-0.42541 -1.22951,-0.42541 -1.51562,0 -2.20043,0.54404 -0.98941,0.78602 1.21023,0.24181 2.06635,0.10264 2.21892,-0.36061 z m 0.99449,-1.65092 c 0.26594,-0.69302 -0.44334,-1.14495 -1.80734,-1.15162 -0.77255,-0.004 -1.11406,0.1771 -1.2394,0.6564 -0.13388,0.51198 0.0304,0.69288 0.72606,0.79985 1.78599,0.27457 2.11498,0.23139 2.32068,-0.30463 z m 0.10986,-2.16587 c 0,-0.47697 -1.17865,-1.03296 -2.18981,-1.03296 -0.99747,0 -1.21475,0.88184 -0.27762,1.12672 1.10476,0.28871 2.46743,0.23693 2.46743,-0.0938 z m -1.51147,-2.23496 c -0.36335,-0.27482 -1.10957,-0.49967 -1.65826,-0.49967 -0.84819,0 -0.93417,0.0764 -0.57396,0.51048 0.23815,0.28697 0.96432,0.50577 1.65827,0.4997 1.15933,-0.0103 1.19431,-0.0413 0.57395,-0.51051 z m -6.61782,-5.87264 c -0.81552,-1.5238 -0.21704,-4.45168 0.92149,-4.50819 0.12696,-0.007 1.83315,-0.15582 3.7914,-0.33227 4.59834,-0.41434 5.11807,-0.1552 5.11807,2.55177 0,2.3949 -0.27247,2.53545 -5.41652,2.79409 -3.84582,0.19337 -4.05317,0.16964 -4.41444,-0.5054 z m 7.38614,-1.41268 c 0.65536,-0.0175 0.77018,-0.17894 0.68067,-0.95696 -0.10561,-0.91751 -0.14785,-0.93403 -2.1497,-0.8398 -3.81547,0.17959 -4.59451,0.38957 -4.59451,1.23842 0,0.42029 0.0704,0.83451 0.15626,0.92045 0.0859,0.0859 1.27284,0.0444 2.63759,-0.0924 1.36473,-0.13675 2.83609,-0.25812 3.26969,-0.2697 z m -7.09796,-6.16047 c -0.85357,-0.85357 -0.89269,-3.04793 -0.0716,-4.01885 0.4958,-0.5863 1.22282,-0.76058 4.33925,-1.04011 4.88155,-0.43786 5.35447,-0.19984 5.20653,2.62058 -0.1276,2.43223 -0.49969,2.63618 -5.30502,2.90774 -3.17625,0.17949 -3.56389,0.13585 -4.1691,-0.46936 z m 7.43828,-1.66119 c 0.2836,-0.0171 0.40851,-0.37057 0.34035,-0.96299 -0.0806,-0.70052 -0.27888,-0.91973 -0.78836,-0.87158 -0.37437,0.0354 -1.86758,0.1633 -3.31826,0.28429 -2.44246,0.20368 -2.63759,0.27655 -2.63759,0.98504 0,0.42078 0.0669,0.83198 0.14872,0.91378 0.0819,0.0819 1.42185,0.043 2.97792,-0.0865 1.55606,-0.1293 3.03083,-0.24727 3.27722,-0.26215 z m -30.53361,-5.64403 c 5.72777,-0.65434 10.66688,-1.18972 10.97577,-1.18972 0.49542,0 0.56162,-0.5663 0.56162,-4.803881 v -4.80391 l -1.95691,0.235449 c -1.07632,0.12949 -6.24075,0.836187 -11.47653,1.570437 -8.01135,1.123451 -9.629,1.444259 -10.21002,2.024748 -0.59703,0.596471 -0.69958,1.180224 -0.7581,4.315137 -0.0372,1.99395 0.013,3.7559 0.11165,3.91547 0.0987,0.15956 0.66511,0.20819 1.25885,0.10805 0.59376,-0.10021 5.76592,-0.71744 11.49371,-1.37178 z m 24.29991,-2.89033 c 4.67961,-0.556678 9.15925,-1.100331 9.95478,-1.208125 l 1.44643,-0.195981 v -4.180579 c 0,-5.152281 -0.21403,-5.489979 -3.30614,-5.216435 -2.05075,0.1814 -16.24531,2.162556 -17.87967,2.495475 l -0.93591,0.190654 v 4.716243 4.716238 l 1.10609,-0.15266 c 0.60834,-0.084 4.93483,-0.60813 9.61442,-1.16483 z m 2.42825,-2.748437 c -0.69992,-0.550551 -0.89674,-1.002136 -0.89674,-2.057468 0,-3.466982 4.66107,-4.203835 5.29275,-0.836727 0.52339,2.789902 -2.22678,4.600513 -4.39601,2.894195 z m 2.70036,-1.525454 c 0.50523,-0.792283 0.078,-2.193517 -0.66898,-2.193517 -0.62528,0 -1.56679,0.920288 -1.56679,1.531501 0,0.604561 1.00014,1.595181 1.45681,1.442962 0.19624,-0.06538 0.54677,-0.41683 0.77896,-0.780946 z M 179.27022,287.96539 c -5.16826,-0.56902 -11.62666,-1.21445 -42.54177,-4.25152 -4.67958,-0.45972 -10.03986,-0.99542 -11.91168,-1.19043 -4.51744,-0.47066 -45.724051,-4.55749 -54.793793,-5.43439 -3.930862,-0.38007 -10.822623,-1.06771 -15.315034,-1.52812 -4.492409,-0.46041 -13.221976,-1.31413 -19.399042,-1.89715 -10.276474,-0.96995 -11.336503,-1.12888 -12.472076,-1.8698 -2.481032,-1.61879 -2.274156,4.35196 -2.62138,-75.65273 -0.171657,-39.55225 -0.201178,-72.40301 -0.0656,-73.00164 0.774985,-3.4217 2.272767,-4.47546 7.381509,-5.19328 2.031444,-0.28542 6.67996,-0.96395 10.330048,-1.50783 3.650074,-0.54389 9.622941,-1.39343 13.273029,-1.88787 3.650075,-0.49445 14.064298,-1.94853 23.14271,-3.23132 28.462509,-4.02175 57.087819,-8.05018 73.512159,-10.34535 8.70405,-1.21631 20.22712,-2.829529 25.60683,-3.584918 5.37971,-0.755408 10.43369,-1.370946 11.23102,-1.36787 2.1142,0.0076 4.0089,1.187444 4.91225,3.057421 0.83133,1.720877 0.66385,-9.18278 2.00874,130.788907 0.50652,52.7172 0.5032,54.76968 -0.0905,55.963 -1.42096,2.85663 -3.0463,3.14134 -12.18755,2.13489 z m 9.57612,-2.91783 c 0.53447,-0.8157 0.54656,-3.51909 0.18018,-40.24451 -0.21603,-21.65352 -0.56884,-62.72549 -0.78401,-91.27101 -0.30522,-40.49043 -0.48652,-52.1383 -0.82459,-52.98056 -0.23833,-0.593799 -0.83634,-1.343671 -1.32888,-1.6664 -1.00847,-0.660779 0.26238,-0.789238 -18.90068,1.9105 -5.14755,0.72521 -15.4852,2.17056 -22.97255,3.21189 -7.48736,1.04132 -15.14487,2.11792 -17.01671,2.39241 -1.87184,0.27451 -13.20495,1.87415 -25.18472,3.55477 -11.979757,1.68061 -31.583002,4.43491 -43.562758,6.12064 -11.979768,1.68576 -24.231795,3.38758 -27.226731,3.78182 -5.933866,0.78113 -7.331908,1.21053 -8.186206,2.51435 -0.521274,0.79558 -0.53213,6.1056 -0.149751,73.27037 0.430255,75.57725 0.399808,74.28448 1.749859,74.28448 0.242507,0 0.219392,-0.1854 -0.06599,-0.52926 -0.378687,-0.45631 0.659474,-1.62867 7.530758,-8.50415 4.383512,-4.38617 8.221644,-7.97677 8.529186,-7.97908 0.307543,-0.003 0.651191,0.23559 0.763665,0.52868 0.143358,0.37359 -1.773682,2.53578 -6.412075,7.23211 -3.639115,3.68454 -7.307995,7.23522 -8.153058,7.89036 -0.845048,0.65514 -1.542263,1.28625 -1.549351,1.40248 -0.0064,0.11628 1.250607,0.31396 2.794877,0.43943 1.544258,0.12541 5.105012,0.44995 7.912765,0.72108 2.807753,0.27113 7.555417,0.72974 10.550352,1.01913 2.994937,0.2894 13.715466,1.35571 23.823382,2.36956 10.107929,1.01387 22.513101,2.2362 27.567062,2.71625 11.465314,1.08911 52.335754,5.1381 71.810504,7.11423 18.19065,1.84582 18.35111,1.85171 19.10547,0.70043 z m -74.06943,-15.31968 c -0.84234,-0.0715 -4.21163,-0.29028 -7.48735,-0.48612 -17.972023,-1.07452 -38.878628,-4.58792 -49.686665,-8.34996 -6.631428,-2.30824 -11.195446,-4.97824 -15.065736,-8.81357 -4.532465,-4.49151 -7.02537,-9.21819 -9.074822,-17.20634 -2.781346,-10.84079 -4.438733,-27.08578 -4.44447,-43.56277 -0.0078,-22.63206 2.608389,-40.00164 7.48431,-49.68877 2.931778,-5.82467 5.894106,-8.69838 12.079753,-11.71842 13.636937,-6.65799 36.297849,-11.10116 70.61932,-13.84643 6.93045,-0.55435 26.01506,-0.55971 30.4599,-0.009 16.49242,2.04503 22.93728,4.92152 26.65506,11.8968 5.02453,9.427 7.52788,31.48703 7.53824,66.4284 0.007,22.66164 -1.30619,39.45254 -3.77879,48.32743 -0.77247,2.77265 -2.72818,6.94556 -4.43809,9.46958 -1.57105,2.31906 -5.85637,6.4333 -8.79151,8.44051 -6.97572,4.77038 -14.02193,7.18961 -24.69456,8.47858 -4.17181,0.50383 -23.62151,0.95831 -27.37459,0.63966 z m 27.90739,-3.36419 c 16.34188,-2.04023 27.6057,-8.79679 33.18323,-19.90478 1.2391,-2.46777 2.7024,-8.38617 3.3697,-13.62903 1.35433,-10.64043 1.6265,-15.78906 1.79903,-34.0334 0.39477,-41.7425 -2.58654,-65.48812 -9.11962,-72.63635 -3.26614,-3.57369 -8.40002,-5.46935 -19.19248,-7.08674 -4.57672,-0.68588 -6.37288,-0.76431 -17.35704,-0.75801 -12.09341,0.007 -15.1593,0.1702 -28.92839,1.54054 -30.404748,3.02594 -52.259496,8.4036 -61.350718,15.09618 -6.018787,4.43078 -9.722412,13.47106 -11.794708,28.78996 -1.872625,13.843 -2.244083,32.942 -0.903486,46.45561 1.342166,13.52962 2.687471,21.54482 4.674125,27.84809 1.946935,6.17726 5.157429,10.79874 10.119365,14.56674 6.114566,4.6433 13.153622,7.13223 28.20472,9.97288 11.404928,2.1525 22.84056,3.54047 35.134712,4.26438 7.59977,0.4475 27.03688,0.15374 32.16156,-0.48607 z M 30.61547,130.63951 c -3.330133,-3.22613 -6.048553,-6.11732 -6.040925,-6.42486 0.0078,-0.30755 0.26211,-0.65443 0.56551,-0.77087 0.397673,-0.15259 2.253022,1.47313 6.647017,5.82434 5.739467,5.68359 6.685092,6.93859 5.389786,7.15315 -0.278626,0.0462 -3.231242,-2.55563 -6.561388,-5.78176 z m 142.52537,-10.12537 c -0.33965,-0.54955 11.44023,-18.41559 12.06312,-18.29563 1.44751,0.27877 0.97584,1.15919 -7.38878,13.79171 -3.088,4.6636 -4.02041,5.56202 -4.67434,4.50392 z m 91.53547,180.01006 2.91063,-1.05319 -0.004,-1.5844 c -9.4e-4,-0.87142 -0.53622,-4.16217 -1.18743,-7.31278 -1.44915,-7.01095 -1.86005,-11.21101 -1.85353,-18.94585 0.008,-8.99102 -0.57816,-13.73936 -2.37212,-19.22886 l -0.66732,-2.04201 0.23415,18.71837 c 0.34778,27.8036 0.32632,29.71446 -0.35061,31.22565 -0.71981,1.60693 -0.56405,1.61749 3.28963,0.22307 z m 7.32572,-2.73319 c 1.02441,-0.35941 1.98317,-0.77408 2.13056,-0.92147 0.36351,-0.36351 -0.55276,-5.44639 -1.77983,-9.87336 -2.0689,-7.46417 -2.48583,-10.30574 -3.92769,-26.76939 -0.27867,-3.18212 -0.96308,-9.69101 -1.52093,-14.4642 -0.55783,-4.77318 -1.25027,-11.2055 -1.53877,-14.29403 -0.6416,-6.86854 -1.03897,-9.59311 -1.90092,-13.03358 -0.63312,-2.5271 -2.22746,-6.62433 -2.46423,-6.3327 -0.0613,0.0755 0.009,7.79492 0.15747,17.15411 l 0.26902,17.01671 1.04901,3.06301 c 2.59382,7.57357 3.01762,10.61283 3.40854,24.44455 0.29204,10.33321 0.33068,10.7474 1.48229,15.88503 0.65036,2.90135 1.29109,6.16498 1.42385,7.25249 0.20051,1.64237 0.33521,1.93911 0.79522,1.7518 0.30461,-0.12399 1.39199,-0.51956 2.41641,-0.87897 z m 7.79247,-2.86275 c 1.75378,-0.63048 3.24137,-1.19902 3.30577,-1.2634 0.0644,-0.0644 -0.11526,-0.87569 -0.39927,-1.80287 -2.12663,-6.94302 -2.72353,-11.12818 -3.37116,-23.63734 -0.35116,-6.78231 -0.6864,-10.29624 -1.2176,-12.76253 -2.09527,-9.7282 -2.06062,-9.36413 -2.3309,-24.50407 l -0.25518,-14.29402 -1.44845,-8.16802 c -1.61988,-9.13477 -1.68174,-10.53057 -1.44017,-32.50192 0.11384,-10.35609 0.0817,-10.79853 -1.5241,-20.93053 -0.87094,-5.49548 -0.91295,-6.31903 -0.83749,-16.41874 0.0727,-9.72979 9.5e-4,-11.28808 -0.84165,-18.34395 -0.88537,-7.41156 -0.90774,-8.00951 -0.57654,-15.4025 0.31614,-7.056892 0.16292,-13.749965 -0.42775,-18.686005 -0.2252,-1.881911 -0.37455,-2.031804 -2.54473,-2.553773 l -0.85085,-0.20465 -0.0641,10.252417 c -0.0355,5.688679 -0.23451,11.262841 -0.44695,12.522371 -0.61483,3.64516 -2.12623,5.4318 -3.99839,4.72654 l -0.76575,-0.28847 v 5.87361 5.87361 l 2.18909,2.97036 c 1.20402,1.6337 2.54409,3.8493 2.97793,4.92358 0.75279,1.86398 0.78493,2.2952 0.70358,9.44056 l -0.0853,7.48735 1.4116,5.61552 1.4116,5.61551 0.25627,21.10071 c 0.25681,21.14421 0.56887,28.45642 1.53955,36.07541 0.28617,2.2462 0.66572,8.21907 0.84344,13.27303 0.32695,9.29785 0.49933,10.82534 3.34167,29.61044 1.02456,6.7713 1.95816,18.58302 1.4219,17.98979 -0.14604,-0.16159 -0.59787,-2.9739 -1.00404,-6.24964 -0.76148,-6.14117 -1.92956,-14.34656 -3.10067,-21.78137 -1.12745,-7.15752 -1.35766,-9.70821 -1.7028,-18.8652 -0.18294,-4.85395 -0.5579,-10.82681 -0.83322,-13.27303 -1.34279,-11.93045 -1.63324,-18.67228 -1.70924,-39.67227 -0.0667,-18.43212 -0.11127,-18.98851 -1.964,-24.50405 -0.68112,-2.02775 -0.74552,-2.92151 -0.77231,-10.72054 -0.0266,-7.74165 -0.0921,-8.66552 -0.72666,-10.25258 -0.67963,-1.69977 -3.47952,-6.25345 -3.84522,-6.25377 -0.10071,-9e-5 -0.13854,6.31736 -0.0841,14.03877 0.10947,15.53138 0.19245,16.30655 2.61465,24.41914 1.77337,5.93948 1.90085,7.89069 1.58985,24.33389 -0.2973,15.71937 -0.5527,12.8341 -0.55733,-6.29618 -0.003,-10.92914 -0.11422,-11.85324 -2.22795,-18.46177 l -1.00736,-3.14944 0.21684,24.32438 0.21686,24.32439 1.46077,3.24268 c 2.38246,5.28861 3.06938,8.58267 4.22475,20.25937 0.38895,3.93086 1.00339,9.52084 1.36541,12.4222 0.75228,6.02881 1.79217,16.14709 2.55644,24.87422 0.69114,7.89208 1.2739,11.38571 2.89028,17.3272 0.73838,2.71417 1.5238,6.05251 1.74535,7.41852 0.33243,2.04959 0.49773,2.44606 0.94585,2.26852 0.29868,-0.11834 1.97795,-0.73098 3.73174,-1.36146 z m 112.67881,0.89378 c 0.31096,-0.58101 0.14499,-0.7142 -1.55715,-1.24959 -3.67089,-1.15463 -7.67734,-4.37192 -10.29764,-8.26923 -0.70727,-1.05199 -2.13695,-3.36763 -3.17705,-5.14587 -2.36685,-4.04669 -4.36597,-6.71552 -7.08726,-9.46159 -9.18892,-9.27257 -22.31583,-13.88987 -37.61763,-13.23172 -5.33338,0.2294 -5.93151,0.35964 -5.93151,1.29163 0,0.591 0.17008,0.62479 1.95692,0.38901 3.38223,-0.4463 11.92664,-0.2305 15.91063,0.40185 9.53366,1.51321 18.00928,5.74874 24.52481,12.25584 2.99561,2.99173 4.77529,5.46013 8.99809,12.48038 2.70834,4.50251 5.94475,7.65681 9.87462,9.62412 3.50636,1.75527 3.9088,1.83892 4.40317,0.91517 z m -102.73337,-4.50753 c 0.86113,-0.30902 0.87506,-0.36278 0.58569,-2.25893 -0.16302,-1.06832 -1.05406,-4.77567 -1.98006,-8.23858 -2.37415,-8.87825 -2.81245,-11.73621 -2.81853,-18.37804 -0.007,-6.80828 0.39178,-10.2229 2.30085,-19.73937 1.61361,-8.0437 2.0334,-10.92072 2.55644,-17.52103 0.19257,-2.43 0.60021,-5.81831 0.90587,-7.52959 0.58051,-3.25003 0.45014,-4.89878 -0.38735,-4.89878 -0.45065,0 -0.99928,1.43272 -1.72804,4.51264 -0.40761,1.72261 -0.93697,1.49295 -0.68017,-0.29509 0.52645,-3.66538 1.55179,-5.57355 2.74821,-5.11445 0.2962,0.11371 0.78312,0.78313 1.08203,1.4877 0.46384,1.09328 0.48649,1.65514 0.15455,3.83354 -0.21393,1.40389 -0.62046,5.14923 -0.90342,8.323 -0.64256,7.20708 -1.29898,11.68322 -2.56565,17.49543 -1.85089,8.493 -2.19619,11.55432 -2.17412,19.27584 0.0226,7.89444 0.41683,10.53739 2.6972,18.08106 0.62961,2.08286 1.40923,5.14587 1.73245,6.80668 0.32323,1.66081 0.63085,3.0732 0.68359,3.13865 0.10664,0.1323 1.77509,-0.38166 4.48077,-1.38029 1.64135,-0.60578 1.78692,-0.74747 1.78886,-1.74109 9.5e-4,-0.59488 0.30234,-3.37888 0.6693,-6.18663 2.68524,-20.54648 3.94665,-37.90216 4.66261,-64.15298 l 0.19955,-7.31719 -1.42648,-1.30943 c -1.65536,-1.51955 -1.9203,-2.0959 -2.22409,-4.83872 -0.32619,-2.94491 -0.53857,-3.8917 -0.87302,-3.8917 -0.16349,0 -0.99498,1.35089 -1.84773,3.00198 -0.85275,1.65111 -1.86962,3.34456 -2.25967,3.76325 -1.04547,1.12217 -2.36061,0.85431 -3.13843,-0.63921 -0.78618,-1.50962 -0.61783,-4.96316 0.62215,-12.76254 1.83696,-11.55427 1.92188,-12.88656 2.21296,-34.71407 0.21472,-16.10386 0.39936,-21.60009 0.82314,-24.50406 2.25717,-15.4678 2.99569,-23.47452 3.05306,-33.09996 0.0422,-7.078815 0.004,-7.587921 -0.58114,-7.773684 -0.34444,-0.109336 -0.66623,-0.146494 -0.71505,-0.08261 -0.0489,0.06396 -0.26212,4.021497 -0.474,8.794684 -0.48979,11.03382 -1.83324,23.59222 -2.85858,26.7217 -0.59548,1.81747 -1.48538,1.96092 -2.15926,0.34808 -0.90524,-2.16653 -1.11091,-7.15593 -0.91987,-22.31524 0.17276,-13.706335 0.14293,-14.858457 -0.39873,-15.400113 -0.322,-0.322 -0.70383,-0.585457 -0.84851,-0.585457 -0.14469,0 -0.3585,3.943623 -0.47513,8.763603 -0.11667,4.819967 -0.38764,12.592367 -0.60224,17.271957 -0.65867,14.36314 -0.24112,22.49459 1.90487,37.09642 0.95603,6.50507 1.19281,10.20443 1.19638,18.69128 0.004,9.27647 -0.26053,12.81378 -1.57944,21.1278 -0.4751,2.99495 -1.14295,7.20658 -1.48413,9.3592 -0.74091,4.67478 -1.19559,9.63839 -1.88606,20.58911 -0.72744,11.53743 -1.577,16.33714 -2.8917,16.33714 -1.10484,0 -1.42019,-2.47739 -1.71117,-13.4432 -0.40232,-15.16169 -0.81676,-20.26196 -2.02441,-24.91402 -1.96227,-7.55904 -2.16067,-10.37289 -2.27239,-32.2276 -0.0999,-19.56307 -0.11525,-19.9516 -0.96775,-24.75206 -1.80949,-10.18866 -1.89331,-19.08067 -0.30108,-31.94235 1.0782,-8.70956 1.37286,-15.950549 0.83631,-20.55246 -0.59691,-5.11977 -0.42132,-4.880336 -4.33047,-5.904659 -1.84239,-0.482761 -3.3964,-0.833627 -3.45335,-0.779704 -0.057,0.0539 0.0773,1.761617 0.29848,3.79489 0.27907,2.566206 0.3315,7.079615 0.17139,14.757683 -0.21212,10.17316 -0.17082,11.53887 0.51469,17.01672 0.64246,5.13396 0.73951,7.50086 0.70325,17.15206 -0.0443,11.79345 -0.0224,12.05118 2.20019,25.90019 0.15021,0.93593 0.28187,9.89521 0.29259,19.90956 l 0.0196,18.20787 1.08642,5.95585 c 1.79282,9.82841 1.91398,11.31488 1.95564,23.99355 0.0411,12.47997 0.0226,12.27174 1.91184,21.68946 1.1779,5.87188 1.64801,10.22418 1.6642,15.40696 0.0242,7.73057 1.03145,15.37439 2.78765,21.15391 l 1.05032,3.45652 2.25305,-0.85726 c 1.23918,-0.47149 2.64999,-0.99971 3.13516,-1.17381 z m 1.20479,-12.79475 c -0.2657,-0.51477 -0.83773,-3.00346 -1.27121,-5.53043 -0.65108,-3.7957 -0.78706,-5.80754 -0.78208,-11.57137 0.005,-6.17281 0.1114,-7.51385 0.92037,-11.63661 0.93249,-4.75209 1.45563,-6.40109 2.0307,-6.40109 0.39093,0 0.27772,0.83821 -0.94225,6.97685 -0.81829,4.1175 -0.94888,5.59674 -0.9614,10.89068 -0.0103,4.18051 0.18072,7.47654 0.60015,10.37853 0.53653,3.71215 1.12343,6.31343 1.19054,5.27685 0.0115,-0.18718 0.24408,-1.60197 0.51545,-3.14398 1.10215,-6.26268 1.28063,-11.94216 0.71957,-22.8988 -0.59928,-11.70274 -0.42199,-16.03338 1.00974,-24.66701 1.09052,-6.57603 1.20674,-6.9667 2.3197,-7.79764 0.86042,-0.64241 1.00495,-0.65652 1.85351,-0.18113 1.52704,0.85551 1.87031,2.53135 1.63431,7.97877 -0.11345,2.62058 -0.38074,6.14304 -0.59383,7.82769 -0.22369,1.7684 -0.41415,9.10446 -0.45063,17.35704 -0.0421,9.50549 -0.19171,14.69307 -0.44684,15.48521 -0.31176,0.96793 -0.34746,0.44982 -0.19048,-2.76457 0.10625,-2.17565 0.005,-8.53138 -0.22544,-14.12387 -0.36656,-8.90413 -0.35142,-10.80275 0.12182,-15.27315 1.19869,-11.32241 1.08268,-15.48519 -0.43158,-15.48519 -1.30686,0 -1.6475,1.18705 -2.90145,10.11086 -0.99507,7.08158 -1.04589,9.62501 -0.46937,23.49369 0.43545,10.47505 0.20915,15.79411 -0.95591,22.46898 -0.74069,4.24339 -1.33685,5.08294 -2.29343,3.22969 z m 13.15143,0.47984 c 0.15017,-6.15328 0.35418,-8.26646 1.40171,-14.51864 1.19647,-7.14112 1.22599,-7.53827 1.22701,-16.50619 9.4e-4,-10.36278 0.24196,-13.66265 1.73669,-23.80062 0.93081,-6.31335 1.03705,-7.8065 0.93333,-13.11846 -0.13333,-6.82916 -0.43621,-7.83486 -2.35942,-7.83486 -1.41511,0 -2.23575,-0.50084 -2.94419,-1.79684 -0.49911,-0.91308 -0.59366,-1.91963 -0.56644,-6.03084 0.0354,-5.34847 0.78332,-9.78655 2.86775,-17.0167 4.24047,-14.70882 5.22222,-22.93957 3.87671,-32.50192 -0.28972,-2.05901 -0.59343,-4.43284 -0.6749,-5.27517 l -0.14813,-1.53151 0.49056,1.05268 c 1.43326,3.07559 2.33182,14.68176 1.57849,20.38837 -0.60148,4.55635 -1.20379,7.31523 -3.60359,16.5062 -2.85053,10.91732 -3.32731,13.83346 -3.17737,19.43381 0.1105,4.12775 0.17453,4.49495 0.88365,5.06898 0.43276,0.3503 1.06018,0.54155 1.44582,0.44071 0.96243,-0.25169 2.3546,0.76797 2.93055,2.14637 1.19959,2.87102 0.95398,12.42985 -0.55005,21.40774 -1.06544,6.35977 -1.68647,15.57246 -1.65186,24.50405 0.0296,7.63556 -0.0372,8.57847 -1.02347,14.4642 -0.58032,3.46291 -1.20911,8.05742 -1.39731,10.21003 -0.41894,4.79169 -0.45169,10.89069 -0.0584,10.89069 0.15925,0 0.75799,-0.16329 1.33054,-0.36289 1.13888,-0.39701 1.12462,-0.33721 1.619,-6.78413 0.10767,-1.40388 0.58998,-5.69209 1.07182,-9.52935 0.80759,-6.4314 0.86046,-7.65746 0.67645,-15.68285 -0.24242,-10.57205 0.0661,-12.32488 1.9522,-11.0891 0.50702,0.3322 1.0123,1.27361 1.43146,2.66692 0.57503,1.91145 0.64022,3.162 0.58005,11.12667 -0.0373,4.93525 -0.16047,9.06587 -0.27375,9.17915 -0.70382,0.70384 -0.88517,-1.3247 -0.71075,-7.95059 0.19517,-7.4138 -0.0649,-10.50964 -1.06831,-12.7159 l -0.55918,-1.22951 -0.19162,1.5315 c -0.10535,0.84232 -0.0728,3.82875 0.0724,6.63651 0.30244,5.84732 0.13452,9.66393 -0.76366,17.35704 -0.34964,2.99493 -0.80708,7.20657 -1.01651,9.35918 -0.20943,2.15262 -0.4421,4.41158 -0.51702,5.01993 -0.15037,1.22085 -0.0617,1.2671 1.43038,0.74692 1.18912,-0.41452 1.44239,-1.33155 1.45182,-5.25635 0.008,-3.39869 0.51212,-6.03961 1.69452,-8.87991 0.7173,-1.72299 1.02992,-3.03642 1.02992,-4.32692 0,-1.01912 0.0957,-2.33155 0.21272,-2.91649 0.41614,-2.08078 0.80828,-1.01458 0.80828,2.19766 0,2.87925 -0.1195,3.5335 -1.0203,5.58589 -0.57398,1.30774 -1.15863,3.41703 -1.33648,4.82172 -0.4625,3.65248 -0.68824,7.77222 -0.42589,7.77222 0.54173,0 5.45784,-1.76259 5.96494,-2.13863 0.37774,-0.2801 0.72299,-1.51384 1.06826,-3.8172 0.80934,-5.39937 0.67991,-7.91314 -0.6849,-13.30271 l -1.19904,-4.735 0.0115,-11.57136 c 0.008,-8.38977 -0.13215,-12.72325 -0.50953,-15.76073 -0.47428,-3.81746 -2.27346,-11.55586 -4.46346,-19.19775 -0.46767,-1.63188 -0.80248,-3.54626 -0.74403,-4.25418 0.0894,-1.08208 0.36166,-0.44686 1.70958,3.98808 2.38993,7.86343 4.24209,15.40148 4.72468,19.22888 0.26673,2.11537 0.44431,8.1044 0.46923,15.82552 l 0.0401,12.42221 1.11953,4.08401 c 0.95277,3.47559 1.11897,4.64171 1.11563,7.82768 -0.003,2.05902 -0.22118,4.85401 -0.48677,6.2111 -0.26557,1.35708 -0.36507,2.46742 -0.22112,2.46742 0.63097,0 2.50639,-1.96166 3.07756,-3.2191 0.50404,-1.10962 0.62621,-2.24784 0.63225,-5.89008 l 0.008,-4.51467 -1.19496,-1.79972 c -0.76631,-1.15415 -1.37504,-2.64776 -1.69699,-4.16385 -0.84092,-3.96002 -0.98911,-12.0643 -0.3776,-20.64955 0.59999,-8.42331 0.48531,-11.25591 -0.82235,-20.3154 -0.82925,-5.74493 -1.67109,-8.61678 -3.16794,-10.80705 -0.61726,-0.90324 -1.60525,-2.34637 -2.19553,-3.20699 -1.41956,-2.06966 -2.99834,-6.8882 -3.50168,-10.68729 -0.53013,-4.0014 -0.26281,-7.97471 1.21227,-18.01918 1.74957,-11.91346 2.26444,-18.01733 2.31254,-27.41542 0.044,-8.59283 -0.12938,-10.71004 -1.67204,-20.42005 -1.18516,-7.45973 -1.37364,-12.95634 -0.65937,-19.22888 0.33181,-2.91389 0.53435,-6.7698 0.47189,-8.9838 l -0.10946,-3.878809 -1.65254,-0.481231 c -0.90889,-0.264677 -1.69371,-0.433606 -1.74406,-0.375376 -0.34671,0.400991 -0.86865,12.311426 -0.8995,20.525906 -0.0203,5.42833 -0.0932,9.63996 -0.16203,9.35918 -0.70115,-2.86361 -0.67688,-19.75084 0.04,-27.7989 l 0.21768,-2.44401 -1.30309,-0.361836 c -0.71672,-0.199019 -1.39347,-0.362715 -1.50393,-0.363756 -0.1105,-9.46e-4 -0.30072,3.941733 -0.42281,8.761712 -0.2818,11.12488 -0.98537,19.36962 -2.62381,30.74687 -0.55592,3.86034 -0.66376,6.4521 -0.65144,15.65536 0.0169,12.70281 -0.30353,16.20941 -2.41801,26.45073 -1.43867,6.96811 -2.07334,13.05397 -1.40447,13.46735 0.57421,0.35489 0.97577,-0.69248 2.42101,-6.31484 1.5748,-6.12641 2.14558,-8.96853 3.09818,-15.42708 0.3865,-2.62056 1.17515,-6.67905 1.75253,-9.01885 1.01345,-4.10695 1.04304,-4.43968 0.85496,-9.61443 -0.17849,-4.91119 3.4e-4,-6.32567 0.60242,-4.76469 0.45824,1.18802 0.76377,7.0382 0.5028,9.62692 -0.14701,1.45825 -0.58855,3.79629 -0.9812,5.19562 -0.39266,1.39932 -1.09936,5.12647 -1.57048,8.28251 -1.05497,7.06752 -1.80502,10.75709 -3.50292,17.23117 -1.61769,6.16822 -2.64493,7.58515 -3.99988,5.51723 -0.86826,-1.32511 -0.46977,-6.90615 1.00798,-14.11729 2.34822,-11.45894 2.39288,-11.92852 2.44325,-25.69522 0.0444,-12.1115 0.0867,-12.88479 1.11004,-20.24988 1.43008,-10.29276 2.07842,-18.64905 2.18896,-28.21331 l 0.0921,-7.963415 -2.21217,-0.62869 c -1.21669,-0.345769 -2.28874,-0.628462 -2.38233,-0.628207 -0.0937,2.75e-4 -0.18662,3.636999 -0.20671,8.081622 -0.039,8.62891 -0.33801,12.71252 -1.70057,23.22598 -0.47304,3.65009 -1.09179,8.47432 -1.37498,10.72052 -0.37101,2.94277 -0.59489,9.83785 -0.80116,24.67423 -0.29974,21.55968 -0.35968,22.48939 -2.18569,33.9076 -0.83449,5.21821 -1.12134,9.98613 -0.67133,11.15883 0.26475,0.68994 0.94219,0.6883 1.53851,-0.004 0.25689,-0.29813 1.23574,-1.94449 2.17522,-3.65859 1.24047,-2.26328 1.91013,-3.14556 2.44592,-3.22249 1.05899,-0.15206 1.71746,1.07259 1.97835,3.67943 0.32401,3.2376 0.73647,4.27045 2.29913,5.75731 1.31207,1.24844 1.41137,1.47581 1.54227,3.53144 0.0769,1.20841 -0.10034,6.46625 -0.39391,11.68413 -0.29359,5.21787 -0.62575,12.32032 -0.73814,15.78321 -0.20489,6.31263 -0.87578,16.45667 -1.53058,23.14272 -0.33133,3.38332 -0.75186,6.95945 -2.36466,20.10902 -0.38079,3.10465 -0.69235,5.72534 -0.69235,5.82376 0,0.0984 1.05355,-0.19659 2.34122,-0.65555 l 2.34121,-0.8345 0.17573,-7.20144 z m -250.323844,6.63019 c 0.81711,-1.00304 1.405079,-1.90431 1.3066,-2.00278 -0.19229,-0.19229 -9.975093,-1.41388 -11.496608,-1.43559 l -0.915641,-0.0132 0.832881,2.44878 c 0.458077,1.34682 1.023265,2.57246 1.25597,2.72364 0.232705,0.15117 2.022415,0.23614 3.977117,0.18882 l 3.554028,-0.086 z M 323.96592,247.20902 c -0.1249,-9.31239 -0.39212,-24.89544 -0.59371,-34.62901 l -0.36655,-17.69737 -0.85262,-1.12226 c -1.34949,-1.77625 -3.4188,-6.50494 -3.87669,-8.85885 -0.43179,-2.21975 -0.29782,-7.88823 0.35127,-14.86327 0.55355,-5.94835 0.41004,-15.46938 -0.3309,-21.95155 -0.7791,-6.81609 -0.92611,-20.2678 -0.28454,-26.03556 0.20821,-1.87183 0.3957,-7.88628 0.41665,-13.36545 l 0.038,-9.962095 -1.83151,-0.685303 c -1.00733,-0.376928 -1.86478,-0.641653 -1.90545,-0.588267 -0.18582,0.243851 -0.98768,14.289125 -1.10333,19.325935 -0.11333,4.93211 -0.004,6.44512 0.8982,12.43243 1.4663,9.73153 1.85397,15.46509 1.59857,23.64299 -0.29262,9.36986 -0.6484,13.11774 -2.31001,24.33389 -1.67375,11.29816 -1.81015,15.50547 -0.66697,20.57315 0.81368,3.60704 2.04646,6.33632 4.25968,9.43064 2.00189,2.79887 2.81901,5.1245 3.80375,10.82594 1.31661,7.62305 1.72202,14.2353 1.23664,20.16997 -0.50024,6.11614 -0.52892,17.48729 -0.0517,20.51032 0.37531,2.37779 1.27677,5.44533 1.6002,5.44533 0.10895,0 0.0959,-7.61922 -0.029,-16.93161 z m 8.49547,2.54749 c 5.23545,-4.66512 9.35643,-9.44318 13.29294,-15.41254 5.633,-8.54196 9.53762,-17.62159 11.49199,-26.72291 2.43798,-11.3535 2.80837,-25.00997 1.01488,-37.42206 -0.60094,-4.15891 -1.13801,-5.86168 -1.15605,-3.66518 -0.0207,2.50702 -1.26043,3.78288 -2.69777,2.77611 -1.34112,-0.93933 -1.91447,-5.69801 -0.86679,-7.1938 0.62738,-0.89568 1.72481,-0.97747 2.59151,-0.19314 0.71308,0.64532 0.73441,0.51448 0.25835,-1.58426 -0.91727,-4.04394 -0.98755,-4.19833 -1.64167,-3.60638 -1.46109,1.32228 -2.90785,0.28459 -3.42816,-2.45888 -0.38093,-2.00885 -0.0862,-3.13485 1.02452,-3.91276 0.72573,-0.50832 0.72879,-0.54699 0.17473,-2.21508 -0.83314,-2.5083 -4.61665,-9.99454 -6.82391,-13.50211 -4.86123,-7.72504 -11.56604,-15.14886 -17.93239,-19.85543 -1.81264,-1.34005 -3.37156,-2.43646 -3.46429,-2.43646 -0.0927,0 -0.0819,2.87157 0.024,6.38126 l 0.19259,6.38126 1.11956,0.94008 c 0.61577,0.51703 1.30133,1.4908 1.52348,2.16392 0.77551,2.34983 -0.24269,4.89386 -1.95866,4.89386 -0.73503,0 -0.80785,0.12746 -0.71301,1.24838 0.093,1.09853 0.2182,1.25307 1.04342,1.28757 1.43738,0.0601 2.36397,1.22193 2.55431,3.20286 0.28709,2.98807 -0.4842,4.4712 -2.32526,4.4712 -0.9284,0 -0.99669,0.0892 -0.99669,1.3024 0,1.24364 0.0445,1.29586 0.98733,1.15749 1.23815,-0.18173 2.23398,0.74327 2.73235,2.53795 1.06606,3.83905 -0.42076,7.32772 -2.86186,6.71504 -0.81528,-0.20463 -0.85782,-0.14414 -0.85782,1.21983 0,1.36396 0.0426,1.42444 0.85782,1.21982 1.76308,-0.4425 3.00986,1.06976 3.4179,4.14573 0.48393,3.64809 -1.00911,6.58695 -3.08207,6.06667 -0.82611,-0.20733 -0.85332,-0.15962 -0.85332,1.49687 0,1.57929 0.0485,1.68078 0.62931,1.31803 0.95514,-0.59649 2.34968,-0.0817 2.95622,1.09114 1.21777,2.3549 0.90203,6.87764 -0.59208,8.48139 -0.52621,0.56481 -0.94299,0.70311 -1.67669,0.55636 -0.95807,-0.19161 -0.97642,-0.16679 -0.97642,1.32042 0,1.49324 0.0129,1.50996 0.85084,1.12803 1.80256,-0.82131 3.5735,1.14899 3.5735,3.97576 0,2.7542 -1.77408,4.7958 -3.48842,4.01443 -0.73933,-0.33698 -0.76157,-0.29697 -0.64461,1.15911 0.0993,1.23591 0.22215,1.46879 0.68067,1.29017 0.65112,-0.25363 0.70553,-0.26116 1.50045,-0.20783 1.54669,0.10381 2.57,4.43739 1.56743,6.63782 -0.51254,1.12488 -2.03143,1.75863 -2.98798,1.2467 -0.67253,-0.35993 -0.71155,-0.29737 -0.71155,1.14127 v 1.52209 l 1.14361,-0.18559 c 0.89804,-0.14572 1.29713,-0.0208 1.85847,0.58171 1.37039,1.47095 1.29163,5.63108 -0.12893,6.81003 -0.2899,0.2406 -0.97836,0.43744 -1.52994,0.43744 -0.95849,0 -1.00287,0.0663 -1.00287,1.49908 0,1.36281 0.0486,1.45047 0.53481,0.96429 0.72312,-0.72313 1.58061,-0.67257 2.63302,0.15526 1.07486,0.84549 1.54376,3.24015 0.92632,4.73077 -0.50846,1.22753 -2.03396,1.94199 -3.01991,1.41434 -0.37902,-0.20286 -0.7758,-0.36884 -0.8817,-0.36884 -0.10586,0 -0.19254,1.00416 -0.19254,2.23147 v 2.23148 l 0.75639,-0.52981 c 1.78029,-1.24696 4.00829,-0.15831 4.00829,1.95853 0,1.50394 -1.06216,2.61669 -2.49771,2.61669 -0.6104,0 -1.29362,-0.18379 -1.51824,-0.40841 -0.31764,-0.31764 -0.4084,0.0378 -0.4084,1.59957 0,1.56176 0.0907,1.91722 0.4084,1.59957 0.22462,-0.22461 0.90784,-0.4084 1.51824,-0.4084 1.37727,0 2.49771,1.11275 2.49771,2.48054 0,1.39388 -1.94836,3.30515 -3.36931,3.30515 h -1.05504 l 9.5e-4,5.01991 c 9.5e-4,2.76098 0.10046,6.73588 0.22128,8.83315 l 0.21973,3.8132 1.39531,-1.01047 c 0.76741,-0.55574 2.63887,-2.11853 4.15879,-3.47286 z m -4.63165,0.94536 c -0.96558,-1.16346 1.08821,-4.37634 2.67949,-4.19173 0.73162,0.0849 0.90952,0.30254 0.99786,1.22098 0.0864,0.89904 -0.12322,1.34845 -1.07205,2.29725 -1.28302,1.28303 -1.95522,1.45679 -2.6053,0.6735 z m 5.63937,-5.92984 c -0.56569,-0.62511 -0.59643,-0.87581 -0.24932,-2.03436 0.46469,-1.55094 2.59543,-3.87451 4.00291,-4.36516 2.03591,-0.70972 3.39052,0.85221 2.53351,2.92123 -0.21946,0.5298 -1.05197,1.6041 -1.85002,2.38734 -1.79138,1.75811 -3.46164,2.16878 -4.43708,1.09095 z m 3.3362,-2.75409 c 1.35415,-1.49887 1.64462,-2.3695 0.53013,-1.58888 -0.60224,0.42186 -2.36235,2.54314 -2.36235,2.84715 0,0.4342 0.79873,-0.11435 1.83222,-1.25827 z m -6.37399,-1.98274 c -0.77204,-0.85309 -0.70794,-1.62341 0.27459,-3.29996 0.98081,-1.67364 2.46664,-2.46267 3.54785,-1.88403 1.72137,0.92126 1.57724,2.66148 -0.38931,4.70028 -1.21527,1.25991 -2.55931,1.44928 -3.43313,0.48371 z m 3.18044,-3.23994 c 0,-0.18719 -0.38289,0.0194 -0.85085,0.45898 -0.46795,0.43963 -0.85083,0.95247 -0.85083,1.13965 0,0.18719 0.38288,-0.0194 0.85083,-0.45898 0.46796,-0.43962 0.85085,-0.95247 0.85085,-1.13965 z m 4.22449,-2.43137 c -0.6999,-1.06819 -0.41193,-2.38873 0.79828,-3.66108 1.69341,-1.78029 3.70253,-0.86436 3.37993,1.54081 -0.35446,2.64275 -2.96713,3.96857 -4.17821,2.12027 z m 2.28558,-1.95941 c 0.37002,-0.69435 0.35524,-0.7222 -0.15819,-0.29866 -0.3114,0.2569 -0.56622,0.60149 -0.56622,0.76575 0,0.51986 0.30242,0.32485 0.72441,-0.46709 z m -7.19075,-1.61659 c -1.46965,-1.46964 -0.38537,-4.08401 1.69382,-4.08401 1.99914,0 2.62046,2.49242 1.02022,4.09266 -0.85844,0.85844 -1.85014,0.85527 -2.71404,-0.009 z m 1.70167,-1.89192 c 0,-0.29183 -0.15563,-0.43438 -0.34588,-0.31682 -0.19025,0.11757 -0.25776,0.35633 -0.15009,0.53059 0.29174,0.47206 0.49597,0.38404 0.49597,-0.21377 z m 9.953,1.12618 c -1.12273,-1.40337 -0.43324,-5.0627 1.27599,-6.77192 2.53587,-2.53588 4.75398,0.23903 3.20356,4.00767 -1.07272,2.60747 -3.43751,4.06672 -4.47955,2.76425 z m 2.42387,-2.91444 c 0.67076,-1.33233 0.96778,-2.78616 0.56924,-2.78616 -0.45336,0 -1.71508,2.50854 -1.71508,3.40986 0,0.8829 0.53354,0.59246 1.14584,-0.6237 z m -7.47616,-0.6643 c -1.27098,-0.84865 -1.50846,-3.50216 -0.49175,-5.49505 1.67413,-3.28158 5.06969,-0.80877 4.03504,2.93851 -0.56717,2.05405 -2.3593,3.34712 -3.54329,2.55654 z m 1.84199,-4.26849 c -0.0584,-0.41043 -0.25934,-0.71946 -0.44652,-0.68676 -0.49025,0.0856 -0.98117,2.00476 -0.69816,2.72918 0.2106,0.53911 0.30229,0.4972 0.7455,-0.34076 0.27795,-0.5255 0.45759,-1.29126 0.39918,-1.70166 z m -8.63002,1.31126 c -1.46842,-1.46842 -0.88337,-5.61551 0.93582,-6.63351 0.84948,-0.47535 0.99357,-0.46047 1.87183,0.19345 1.24848,0.92956 1.60985,2.04036 1.31131,4.03105 -0.2706,1.80442 -1.41211,3.24438 -2.57198,3.24438 -0.39138,0 -1.08753,-0.37593 -1.54698,-0.83537 z m 2.02108,-1.74498 c 0.11358,-0.29608 0.20658,-1.15116 0.20658,-1.90019 0,-2.06829 -0.82756,-1.47951 -0.95372,0.67853 -0.0984,1.68492 0.31188,2.35592 0.74714,1.22166 z m 16.61069,-2.25239 c -0.62115,-0.62114 -0.48938,-2.5104 0.30371,-4.35393 0.75951,-1.76557 1.46703,-2.29632 2.22384,-1.66823 0.60216,0.49974 0.58745,1.75634 -0.045,3.84096 -0.74942,2.47028 -1.51813,3.14566 -2.4826,2.1812 z m -6.02078,-0.60916 c -0.33711,-0.37249 -0.68306,-1.4073 -0.76879,-2.29972 -0.43209,-4.49678 2.60266,-7.90934 4.69205,-5.27616 0.64408,0.81172 0.71691,1.21689 0.54888,3.05341 -0.38223,4.17797 -2.68056,6.50217 -4.47214,4.52247 z m 2.48272,-4.41748 c 0.10136,-1.40097 0.0248,-2.05232 -0.24122,-2.05232 -0.58977,0 -1.05348,1.53987 -1.05348,3.49844 0,1.64282 0.0359,1.71659 0.57312,1.17931 0.36529,-0.3653 0.62697,-1.31737 0.72158,-2.62543 z m -8.93972,1.70517 c -1.22625,-1.35502 -0.97785,-5.42273 0.43795,-7.17116 0.70994,-0.87674 2.25398,-1.00461 3.00939,-0.24921 0.65423,0.65423 0.94221,2.85192 0.63882,4.87506 -0.40882,2.72622 -2.65577,4.12586 -4.08616,2.54531 z m 2.05147,-2.6514 c 0.11281,-0.51475 0.26872,-1.13954 0.34649,-1.38838 0.0778,-0.24885 0.0423,-0.84734 -0.0788,-1.32996 -0.20808,-0.82912 -0.24562,-0.8428 -0.68036,-0.24824 -0.52687,0.7205 -0.62983,3.90249 -0.12632,3.90249 0.18365,0 0.42617,-0.42115 0.53897,-0.93591 z m -8.53239,-0.17071 c -1.50718,-1.29643 -1.59371,-5.79309 -0.14144,-7.35192 0.84836,-0.91061 2.3947,-0.94688 3.184,-0.0747 1.48393,1.63971 1.30814,6.02981 -0.29674,7.41026 -1.1375,0.97844 -1.62394,0.98134 -2.74582,0.0164 z m 2.21425,-3.74547 c 0,-1.64578 -0.61026,-2.9539 -1.05238,-2.25582 -0.35979,0.56813 -0.41006,4.17068 -0.063,4.51772 0.44421,0.44422 1.11541,-0.91684 1.11541,-2.2619 z m 18.35405,-0.97838 c -0.8215,-1.53501 -0.14189,-6.52297 1.09121,-8.00876 0.57595,-0.69394 2.25274,-0.56589 2.66448,0.2035 0.83283,1.55615 0.0816,6.45696 -1.20833,7.88224 -0.78552,0.86801 -2.06225,0.82941 -2.54736,-0.0769 z m 2.36982,-5.40055 c 0.0254,-1.92087 -0.59861,-0.42828 -0.79946,1.91195 l -0.17176,2.0019 0.47769,-1.36134 c 0.26275,-0.74874 0.48484,-1.89737 0.49353,-2.55251 z m -8.63315,4.4341 c -1.93575,-2.13895 -0.70919,-9.70878 1.64663,-10.16248 1.27016,-0.24462 2.30008,0.29977 2.79129,1.47539 1.42307,3.4059 -0.40861,9.358 -2.87985,9.358 -0.52302,0 -1.22415,-0.3019 -1.55807,-0.67091 z m 2.39083,-2.55133 c 0.54056,-1.29374 0.65791,-4.83938 0.18487,-5.58624 -0.78711,-1.24281 -2.03964,3.15722 -1.58642,5.57305 0.28396,1.5138 0.77266,1.51841 1.40155,0.0132 z m -8.92688,0.43534 c -1.04858,-0.50694 -1.65025,-2.17408 -1.58389,-4.38876 0.0705,-2.35316 0.79563,-4.15814 1.98303,-4.93614 1.18382,-0.7757 2.54352,-0.32896 3.20604,1.05338 1.18839,2.47945 0.0509,7.61581 -1.84631,8.33714 -0.49032,0.18641 -0.91981,0.32858 -0.95443,0.31591 -0.0346,-0.0129 -0.39661,-0.18435 -0.80444,-0.38153 z m 1.55018,-2.53162 c 0.94647,-2.07731 0.76912,-5.23183 -0.29414,-5.23183 -0.70729,0 -1.33033,4.25367 -0.81844,5.58767 0.298,0.77655 0.64755,0.66474 1.11258,-0.35584 z m -9.42406,-0.29402 c -0.91492,-1.16315 -1.17221,-2.85597 -0.73236,-4.81864 0.45067,-2.01104 1.47035,-3.18218 2.77055,-3.18218 1.92964,0 2.97321,2.19278 2.51089,5.27583 -0.46302,3.08769 -3.04646,4.63522 -4.54908,2.72499 z m 2.32465,-1.885 c 0.45558,-0.85126 0.30117,-4.14559 -0.20204,-4.31112 -0.50861,-0.16731 -1.16474,1.39764 -1.16474,2.77799 0,2.12069 0.6576,2.8583 1.36678,1.53313 z m 20.11029,-5.39916 c -1.30658,-1.30654 -1.31408,-6.36093 -0.0129,-8.50097 0.49869,-0.82006 0.88678,-1.06438 1.69064,-1.06438 0.88376,0 1.12518,0.19527 1.5781,1.27626 0.65793,1.57042 0.45369,5.92294 -0.35092,7.47893 -0.80452,1.55574 -1.86414,1.85124 -2.9052,0.81016 z m 1.81455,-3.89744 c 0.12568,-1.00564 0.11873,-2.26557 -0.0153,-2.79986 -0.21781,-0.86775 -0.2717,-0.90009 -0.50509,-0.30314 -0.36657,0.93755 -0.37393,5.343 -0.009,5.11719 0.1653,-0.10213 0.40336,-1.00855 0.52902,-2.01419 z m -8.57931,3.974 c -0.95502,-0.38424 -1.57593,-2.30595 -1.57582,-4.87723 1.4e-4,-2.93805 0.554,-4.88206 1.59964,-5.61446 3.19393,-2.2371 5.47163,3.58006 3.41465,8.72092 -0.70055,1.75087 -1.92314,2.38047 -3.43847,1.77077 z m 1.85979,-3.20113 c 0.56828,-1.63072 0.54511,-4.47284 -0.043,-5.26964 -0.73259,-0.99264 -1.23945,-0.24164 -1.45712,2.15908 -0.35188,3.88053 0.56743,5.7868 1.50012,3.11056 z m -9.28588,1.39633 c -1.69814,-0.68673 -2.31369,-5.88159 -0.96893,-8.17744 0.60511,-1.03307 0.87102,-1.19117 2.00323,-1.19117 0.99828,0 1.45593,0.2014 1.94441,0.85566 1.45874,1.95386 1.06657,6.81869 -0.65916,8.17613 -0.92356,0.72647 -1.24172,0.77267 -2.31955,0.33682 z m 1.57091,-2.58408 c 0.48315,-1.27081 0.40609,-4.00048 -0.13381,-4.73881 -0.45098,-0.61675 -0.47786,-0.61414 -0.85084,0.0827 -0.40793,0.76221 -0.52674,4.08335 -0.17854,4.99072 0.30476,0.79425 0.78667,0.65561 1.16319,-0.33466 z m -9.50907,0.90171 c -0.38063,-0.38065 -0.77256,-1.07885 -0.87091,-1.55157 -0.0984,-0.47272 -0.25586,-1.23262 -0.35003,-1.68868 -0.25403,-1.23023 0.46206,-4.12553 1.18132,-4.77648 0.94434,-0.85459 2.68389,-0.55539 3.55075,0.61071 0.57367,0.77166 0.71433,1.45365 0.71433,3.46345 0,2.00979 -0.14066,2.6918 -0.71433,3.46347 -0.91775,1.23455 -2.53501,1.45523 -3.51113,0.4791 z m 2.14704,-1.9284 c 0.38354,-0.99951 0.21005,-3.7512 -0.2785,-4.41655 -0.46785,-0.63717 -0.49805,-0.62662 -0.85084,0.29745 -0.65623,1.71895 -0.34812,4.65744 0.48835,4.65744 0.23895,0 0.52738,-0.24225 0.64099,-0.53834 z m 13.39453,-7.65695 c -0.32758,-0.19079 -0.85822,-0.83702 -1.17919,-1.43606 -0.81633,-1.52363 -0.81415,-6.44438 0.004,-7.97086 1.96326,-3.66492 5.10304,-1.34479 5.12585,3.78773 0.0201,4.52982 -1.67659,6.94345 -3.95019,5.61919 z m 1.75346,-2.74618 c 0.75804,-2.17454 0.22184,-6.41557 -0.81115,-6.41557 -0.58789,0 -0.847,1.10515 -0.85257,3.63643 -0.008,3.42483 0.90641,4.95156 1.66372,2.77914 z m 4.55057,2.19293 c -0.78294,-1.19475 -1.0017,-5.52766 -0.37415,-7.40949 0.56924,-1.70694 1.92805,-2.34278 2.97734,-1.39318 1.41517,1.28069 1.70083,6.42035 0.48841,8.78761 -0.66327,1.29501 -2.2478,1.30274 -3.0916,0.0151 z m 1.94385,-3.90107 c 0.007,-2.27439 -0.27703,-3.30389 -0.71763,-2.60888 -0.34289,0.54096 -0.38491,2.82793 -0.0799,4.35271 0.32273,1.61354 0.79131,0.58907 0.79759,-1.74383 z m -16.23887,3.3755 c -1.92969,-2.08893 -1.86557,-7.63675 0.11359,-9.82364 1.56067,-1.72451 3.93421,0.13575 4.3886,3.43948 0.68529,4.98255 -2.12096,8.96188 -4.50215,6.38416 z m 2.32789,-2.21217 c 0.53782,-1.39444 0.23549,-5.40331 -0.46,-6.09878 -0.53381,-0.53381 -0.59333,-0.51057 -0.92484,0.3614 -0.19488,0.51257 -0.35433,1.92751 -0.35433,3.14433 0,3.20403 0.95456,4.62726 1.73917,2.59305 z m -10.00092,1.70104 c -0.94184,-1.04071 -1.34854,-2.56599 -1.34736,-5.05329 9.4e-4,-3.29784 1.05103,-5.24118 2.83046,-5.24118 1.89972,0 3.26674,3.08897 2.90626,6.56712 -0.21342,2.05901 -0.52477,2.88643 -1.42489,3.78653 -0.71418,0.7142 -2.29308,0.68269 -2.96447,-0.0591 z m 2.41593,-5.23065 c -0.21696,-3.83984 -1.54314,-4.13787 -1.88007,-0.42248 -0.13089,1.44359 -0.0218,2.37452 0.39339,3.35761 l 0.57449,1.36023 0.5219,-0.98335 c 0.36984,-0.69685 0.48355,-1.66181 0.39029,-3.31201 z m 12.59376,-6.6639 c -0.92545,-1.05988 -1.24706,-1.94623 -1.46301,-4.0321 -0.41567,-4.01522 1.20813,-7.11043 3.31085,-6.31097 1.31961,0.50171 2.04885,2.19931 2.20652,5.13646 0.11654,2.1712 0.019,2.78129 -0.65303,4.08401 -0.64252,1.24545 -0.98404,1.55048 -1.82848,1.6331 -0.67304,0.0659 -1.22642,-0.11371 -1.57285,-0.5105 z m 1.96223,-2.31868 c 0.33367,-1.32949 -0.004,-5.54867 -0.48202,-6.02692 -0.69489,-0.69491 -1.07007,0.30288 -1.07593,2.86159 -0.008,3.32929 1.00199,5.38052 1.55795,3.16533 z m -9.68663,1.34557 c -1.74769,-2.22183 -1.66395,-7.66751 0.14226,-9.25342 1.14482,-1.00517 1.70729,-0.96603 2.87325,0.19992 1.69502,1.69503 1.89221,7.42542 0.31334,9.10605 -1.02964,1.09601 -2.44296,1.0737 -3.32885,-0.0526 z m 2.46535,-3.12151 c 0.2145,-1.24501 0.16697,-2.1341 -0.17016,-3.18223 -0.85389,-2.65455 -1.64522,-1.87845 -1.6544,1.62267 -0.009,3.5864 1.28469,4.69259 1.82456,1.55956 z m -9.81456,2.84534 c -2.11075,-2.11076 -2.04001,-8.56686 0.10651,-9.71562 1.64763,-0.88176 3.09702,0.0915 3.76036,2.52512 0.83324,3.05708 0.2338,6.32192 -1.36662,7.44287 -1.06881,0.74864 -1.54749,0.70032 -2.5002,-0.25237 z m 2.13421,-4.88228 c -0.12168,-2.55938 -0.6907,-3.78726 -1.30484,-2.81588 -0.43828,0.69322 -0.41524,4.49791 0.0344,5.67559 0.35796,0.93769 0.37661,0.9436 0.87652,0.27743 0.3743,-0.49885 0.47958,-1.33691 0.39394,-3.13714 z m 11.90185,-6.58417 c -1.22401,-0.7134 -2.05544,-5.61213 -1.2929,-7.61776 0.7399,-1.94606 2.87978,-1.86074 3.92287,0.15641 2.02006,3.90633 0.18803,9.10377 -2.62997,7.46135 z m 1.37918,-4.05598 c -0.14866,-2.63066 -0.76388,-3.81316 -1.16091,-2.2313 -0.27946,1.1135 0.43399,4.60738 0.94085,4.60738 0.22451,0 0.30514,-0.87036 0.22006,-2.37608 z m -8.74669,2.8659 c -0.37707,-0.47933 -0.85362,-1.68119 -1.05909,-2.67081 -0.87013,-4.19144 1.50315,-7.54041 3.75079,-5.29277 1.02784,1.02784 1.34776,2.14996 1.34776,4.72735 0,1.82597 -0.14883,2.5035 -0.70537,3.21102 -0.93899,1.19371 -2.40624,1.2048 -3.33409,0.0252 z m 2.1312,-1.70882 c 0.36667,-0.95551 0.22022,-2.85417 -0.31978,-4.14662 -0.41565,-0.99484 -0.59351,-1.15357 -0.84563,-0.75483 -0.17558,0.27772 -0.32161,1.22245 -0.32447,2.09938 -0.008,2.52399 0.92387,4.27707 1.48988,2.80207 z m -9.27159,1.44366 c -2.73851,-2.91501 -1.3088,-9.71904 1.87437,-8.9201 2.47664,0.62159 2.98963,8.59255 0.61171,9.50504 -1.01096,0.38795 -1.73131,0.21845 -2.48608,-0.58494 z m 2.16789,-2.29805 c 0.25768,-1.17321 -0.0272,-3.60989 -0.51313,-4.39011 -0.56057,-0.89987 -1.1225,0.16213 -1.1225,2.1214 0,2.83598 1.15819,4.44246 1.63563,2.26871 z m 10.93466,-8.47858 c -1.84266,-2.18988 -1.37847,-5.96906 0.70254,-5.71953 1.28049,0.15354 2.22544,1.63779 2.40257,3.77383 0.11616,1.40071 0.0184,1.95744 -0.42057,2.39645 -0.84528,0.84531 -1.71715,0.69892 -2.68454,-0.45075 z m 1.31667,-2.35248 c -0.12581,-0.57279 -0.38649,-1.13893 -0.57929,-1.25808 -0.33557,-0.2074 -0.0889,1.68899 0.30685,2.35857 0.33278,0.56311 0.49444,-0.0898 0.27244,-1.10049 z m -7.82211,1.88633 c -1.68026,-1.68029 -1.43869,-6.2763 0.37335,-7.10192 1.67563,-0.76347 3.18696,1.34005 3.18785,4.43706 0,1.46013 -0.15803,1.9608 -0.83482,2.63759 -1.04703,1.04704 -1.70006,1.05357 -2.72638,0.0273 z m 1.84471,-2.53024 c -0.009,-0.5037 -0.22574,-1.37529 -0.48286,-1.93684 l -0.46752,-1.021 -0.0275,1.58875 c -0.0153,0.87382 0.0649,1.83012 0.1782,2.12513 0.30271,0.78894 0.81754,0.30228 0.7998,-0.75604 z m -8.15267,2.55762 c -1.18907,-0.60145 -1.8342,-2.12265 -1.85452,-4.3728 -0.0203,-2.24953 0.71586,-3.35483 2.23434,-3.35483 1.27233,0 2.20522,1.07055 2.68853,3.08534 0.49662,2.07008 0.19116,3.51738 -0.92818,4.39787 -1.02,0.8023 -1.03404,0.80391 -2.14017,0.24442 z m 1.36135,-3.13719 c 0,-1.33363 -0.64447,-2.95134 -1.07076,-2.68784 -0.40927,0.25292 -0.36213,2.77313 0.0669,3.57465 0.49935,0.93305 1.00392,0.48733 1.00392,-0.88681 z m 4.86729,-7.30046 c -1.81839,-1.10583 -2.96355,-4.50675 -2.00836,-5.96453 1.17909,-1.79951 3.30192,-0.69672 4.45109,2.31228 1.11654,2.92365 -0.25898,4.98026 -2.44273,3.65225 z m 0.7314,-2.85137 c -0.29347,-1.16922 -1.17436,-1.93611 -1.17436,-1.02236 0,0.68432 0.98432,2.30953 1.24247,2.05141 0.0836,-0.0836 0.053,-0.54669 -0.0681,-1.02905 z m -7.5402,2.83381 c -1.55064,-0.62429 -3.01324,-5.17481 -2.1698,-6.75077 0.49728,-0.92918 2.39912,-1.00279 3.19475,-0.12361 1.66583,1.84073 2.15925,5.76639 0.84083,6.68985 -0.8539,0.59809 -0.84168,0.59688 -1.86578,0.18455 z m 0.44591,-4.21587 c -0.68884,-1.64858 -1.27784,-1.61164 -0.82393,0.0518 0.19156,0.70194 0.52382,1.49154 0.73832,1.75467 0.63372,0.7773 0.68783,-0.36499 0.0856,-1.80635 z m -6.46101,-7.09533 c -1.05643,-1.66819 -0.93253,-4.35031 0.23529,-5.09288 0.87152,-0.55415 2.23044,-0.26247 2.93193,0.62935 0.93073,1.18321 0.97827,3.85582 0.083,4.66603 -0.92396,0.83619 -2.66094,0.72796 -3.25021,-0.2025 z m 2.17092,-1.91196 c 0,-0.32754 -0.22486,-0.89282 -0.49968,-1.25617 -0.47979,-0.63434 -0.50009,-0.6245 -0.51049,0.24745 -0.014,1.18048 0.32048,2.03051 0.7055,1.79256 0.16757,-0.10355 0.30467,-0.45629 0.30467,-0.78384 z m -42.7244,110.56362 c 0.2787,-2.52698 0.74767,-8.65299 1.04219,-13.61336 0.58328,-9.82434 1.05905,-14.07304 2.36285,-21.10071 1.65287,-8.90927 2.05413,-13.47478 2.034,-23.14272 -0.019,-9.16854 -0.2229,-11.87418 -1.69208,-22.46206 -0.45453,-3.2757 -1.00633,-7.71708 -1.22623,-9.86969 -0.47846,-4.68396 -0.46375,-19.23278 0.028,-27.70657 0.19456,-3.35243 0.45505,-9.81063 0.57889,-14.351568 l 0.22515,-8.256225 -1.49998,-0.384507 c -0.82499,-0.211481 -1.93825,-0.528173 -2.47388,-0.703754 -0.95839,-0.314136 -0.97061,-0.301684 -0.7677,0.782395 0.11346,0.605895 0.29629,3.322294 0.4064,6.03647 0.19734,4.864539 0.078,6.441719 -1.60993,21.270869 -0.4431,3.89283 -0.1769,16.19634 0.55592,25.69524 0.61129,7.92353 0.52225,10.82414 -0.53676,17.48542 -0.36076,2.26917 -0.75405,5.84873 -0.87397,7.95454 -0.21178,3.71875 -0.19773,3.82876 0.48858,3.82876 0.99044,0 2.79942,1.61512 3.38875,3.02558 1.20233,2.8776 0.8271,14.77072 -0.75664,23.98189 -0.44594,2.59357 -0.8967,4.80148 -1.0017,4.90648 -0.39254,0.39254 -0.16887,-3.69084 0.48977,-8.9414 0.77414,-6.17126 0.9417,-16.98659 0.29319,-18.92284 -0.54767,-1.63515 -1.56434,-2.63456 -2.80262,-2.75502 l -1.06409,-0.10355 0.058,-3.91384 c 0.0319,-2.15262 0.40091,-6.28768 0.82004,-9.18902 0.89803,-6.21631 0.97555,-11.73281 0.28935,-20.59023 -0.26105,-3.36929 -0.46834,-10.03134 -0.46071,-14.80453 0.0115,-7.5111 0.14164,-9.63991 0.96353,-15.82554 0.8387,-6.31207 0.92552,-7.80303 0.74331,-12.762519 -0.29402,-8.002249 -0.18049,-7.652923 -2.69309,-8.285851 -1.14616,-0.288722 -2.12266,-0.486208 -2.17001,-0.438859 -0.0473,0.04731 0.0878,1.072582 0.3004,2.278307 0.57635,3.269193 0.47349,14.036242 -0.18349,19.208922 -0.30907,2.4334 -0.7443,5.87928 -0.96717,7.65752 -0.22288,1.77825 -0.4139,7.29167 -0.42453,12.25204 -0.0184,8.58254 0.0289,9.27405 0.97578,14.29403 l 0.99509,5.27517 -0.0737,18.03772 c -0.0769,18.7928 0.079,22.10648 1.39283,29.60906 l 0.77477,4.42434 0.22966,-4.93484 c 0.12631,-2.71417 0.22247,-7.66009 0.2137,-10.99096 -0.009,-3.33087 0.0669,-6.13896 0.16819,-6.24025 0.10124,-0.10123 0.37062,0.16431 0.59855,0.5902 0.31645,0.59129 0.35893,3.67523 0.17968,13.04693 -0.15035,7.86167 -0.10226,14.04624 0.1337,17.20745 0.20262,2.71415 0.50663,9.83565 0.67558,15.82553 0.30687,10.88034 0.54,13.27116 1.09384,11.21802 0.14956,-0.5544 0.49994,-3.07553 0.77863,-5.60251 z m 43.52672,3.33458 c 0.46447,-0.73758 0.12992,-1.07795 -0.77667,-0.79021 -0.85788,0.27227 -0.9946,1.64629 -0.14721,1.47951 0.30751,-0.0606 0.72325,-0.3707 0.92388,-0.6893 z m 0.49889,-7.87222 c 0.0742,-0.38255 -0.11975,-0.56737 -0.59559,-0.56737 -0.38808,0 -0.70562,0.20419 -0.70562,0.45378 0,1.04236 1.10242,1.1386 1.30121,0.11358 z m -0.68084,-9.11754 c -0.0605,-0.63213 -0.26302,-1.11582 -0.45021,-1.07485 -0.41146,0.09 -0.6418,1.64496 -0.35455,2.39349 0.34704,0.90438 0.92651,-0.0451 0.80476,-1.31864 z m -0.62037,-9.31738 c 0,-1.53819 -0.45234,-2.27706 -0.81517,-1.33154 -0.45495,1.18556 -0.0833,3.37811 0.5105,3.01118 0.16757,-0.10354 0.30467,-0.8594 0.30467,-1.67964 z m 0.0568,-10.19868 c 0,-1.72281 -0.14696,-2.07791 -0.71474,-1.727 -0.39554,0.24445 -0.49358,2.51082 -0.14763,3.41238 0.37253,0.97079 0.86237,0.0135 0.86237,-1.68538 z m -5.19407,-25.37594 c -1.03082,-63.25747 -1.17316,-68.45747 -1.92004,-70.14592 -1.30317,-2.946062 -1.42115,-2.441166 -1.2218,5.22949 0.1324,5.09377 0.0255,9.36759 -0.36084,14.41945 -0.75296,9.84755 -0.70619,18.03966 0.14782,25.89195 0.8708,8.00661 0.91002,17.84482 0.10741,26.92965 -0.61813,6.99624 -0.47309,9.55283 0.74942,13.20886 0.56253,1.68229 2.50661,5.37387 2.71845,5.16201 0.0633,-0.0633 -0.0359,-9.37622 -0.22038,-20.69549 z m 5.12693,15.15457 c 0,-1.3645 -0.45548,-2.54036 -0.83647,-2.15938 -0.43937,0.43936 -0.54903,2.55297 -0.18208,3.50919 0.30814,0.80299 0.45194,0.90741 0.70297,0.51052 0.17356,-0.27444 0.31558,-1.11158 0.31558,-1.86033 z m -0.43915,-10.9364 c 0.1995,-2.29275 -0.42826,-4.5706 -0.92534,-3.35763 -0.33471,0.81682 -0.4019,4.10907 -0.10637,5.21259 0.3372,1.25914 0.83931,0.35637 1.03171,-1.85496 z m 27.72599,-11.74516 -0.32863,-1.14182 -0.0307,1.24842 c -0.017,0.68663 0.0827,1.52896 0.22149,1.87183 0.22997,0.56856 0.26158,0.55917 0.35933,-0.10663 0.0589,-0.40152 -0.0408,-1.24385 -0.22149,-1.87185 z m -27.981,-1.54509 c 0.0302,-2.23274 -0.50424,-3.79923 -1.09482,-3.20863 -0.56126,0.56125 -0.50618,4.4206 0.0782,5.47615 0.44456,0.80305 0.47933,0.81117 0.72977,0.17017 0.14463,-0.3702 0.27372,-1.46715 0.28688,-2.43769 z m 26.27933,-9.68594 -0.32863,-1.14181 -0.0262,1.021 c -0.0143,0.56155 0.0837,1.40387 0.21757,1.87185 0.22833,0.79738 0.25062,0.80498 0.3547,0.12077 0.0611,-0.40152 -0.0368,-1.24384 -0.21758,-1.87183 z m -26.60096,-2.3959 c 0.007,-2.02833 -0.57331,-3.71083 -1.03013,-2.98856 -0.4395,0.6949 -0.40491,3.96977 0.0509,4.8215 0.53749,1.00432 0.97259,0.18986 0.97921,-1.83294 z m -0.53319,-11.74945 c -0.17184,-0.68133 -0.50389,-1.30148 -0.73786,-1.37809 -0.57541,-0.18841 -0.57789,3.03215 -0.003,3.60725 0.6652,0.6652 1.12309,-0.71286 0.74065,-2.22916 z m -0.70961,-8.41211 c 0.22683,-0.59109 -0.35272,-2.81568 -0.8066,-3.0962 -0.36858,-0.22779 -0.46532,2.98995 -0.10085,3.3544 0.36259,0.36262 0.7068,0.26466 0.90744,-0.2582 z m -31.44531,-8.70392 c 0.83271,-6.85217 1.42674,-14.98935 1.61727,-22.153941 l 0.20453,-7.689752 -1.56148,-0.393194 c -0.85882,-0.216259 -1.68511,-0.39289 -1.8362,-0.392531 -0.39271,9.46e-4 -0.34609,34.998328 0.0482,36.244928 0.3179,1.0049 0.32973,0.99147 0.74954,-0.85083 0.23459,-1.02952 0.58472,-3.17362 0.77807,-4.76468 z m -32.03137,-12.69736 c 1.19706,-1.27423 1.44708,-3.55365 1.65484,-15.087862 l 0.19703,-10.938694 -1.83124,-0.525982 c -3.80453,-1.092779 -3.82599,-1.094412 -3.37815,-0.257595 0.53355,0.99696 0.65912,3.394396 0.83851,16.012335 0.13821,9.719478 0.20753,10.748818 0.75062,11.145938 0.80081,0.58556 0.91173,0.56372 1.76839,-0.34814 z"
       id="path6074" /></g><metadata
     id="metadata182"><rdf:RDF><cc:Work
         rdf:about=""><cc:license
           rdf:resource="http://creativecommons.org/licenses/by-sa/4.0/" /><dc:creator><cc:Agent><dc:title>Jameela P</dc:title></cc:Agent></dc:creator><dc:publisher><cc:Agent><dc:title>OpenDataKerala.org</dc:title></cc:Agent></dc:publisher><dc:date>April 2026</dc:date><dc:title>Election Symbols of Kerala</dc:title></cc:Work><cc:License
         rdf:about="http://creativecommons.org/licenses/by-sa/4.0/"><cc:permits
           rdf:resource="http://creativecommons.org/ns#Reproduction" /><cc:permits
           rdf:resource="http://creativecommons.org/ns#Distribution" /><cc:requires
           rdf:resource="http://creativecommons.org/ns#Notice" /><cc:requires
           rdf:resource="http://creativecommons.org/ns#Attribution" /><cc:permits
           rdf:resource="http://creativecommons.org/ns#DerivativeWorks" /><cc:requires
           rdf:resource="http://creativecommons.org/ns#ShareAlike" /></cc:License></rdf:RDF></metadata></svg>
