<?xml version="1.0" encoding="UTF-8" standalone="no"?>
<!-- Created with Inkscape (http://www.inkscape.org/) -->

<svg
   width="1500"
   height="1500"
   viewBox="0 0 396.87499 396.875"
   version="1.1"
   id="svg5"
   xml:space="preserve"
   inkscape:version="1.2.2 (b0a8486541, 2022-12-01)"
   sodipodi:docname="indi05.svg"
   inkscape:export-filename="indi04.png"
   inkscape:export-xdpi="96"
   inkscape:export-ydpi="96"
   xmlns:inkscape="http://www.inkscape.org/namespaces/inkscape"
   xmlns:sodipodi="http://sodipodi.sourceforge.net/DTD/sodipodi-0.dtd"
   xmlns="http://www.w3.org/2000/svg"
   xmlns:svg="http://www.w3.org/2000/svg"
   xmlns:rdf="http://www.w3.org/1999/02/22-rdf-syntax-ns#"
   xmlns:cc="http://creativecommons.org/ns#"
   xmlns:dc="http://purl.org/dc/elements/1.1/"><title
     id="title186">Election Symbols of Kerala</title><sodipodi:namedview
     id="namedview7"
     pagecolor="#ffffff"
     bordercolor="#000000"
     borderopacity="0.25"
     inkscape:showpageshadow="2"
     inkscape:pageopacity="0.0"
     inkscape:pagecheckerboard="0"
     inkscape:deskcolor="#d1d1d1"
     inkscape:document-units="mm"
     showgrid="false"
     inkscape:zoom="0.35355339"
     inkscape:cx="-134.35029"
     inkscape:cy="974.39314"
     inkscape:window-width="1854"
     inkscape:window-height="1011"
     inkscape:window-x="0"
     inkscape:window-y="0"
     inkscape:window-maximized="1"
     inkscape:current-layer="layer1" /><defs
     id="defs2"><inkscape:path-effect
       effect="bspline"
       id="path-effect3248"
       is_visible="true"
       lpeversion="1"
       weight="33.333333"
       steps="2"
       helper_size="0"
       apply_no_weight="true"
       apply_with_weight="true"
       only_selected="false" /><inkscape:path-effect
       effect="bspline"
       id="path-effect577"
       is_visible="true"
       lpeversion="1"
       weight="33.333333"
       steps="2"
       helper_size="0"
       apply_no_weight="true"
       apply_with_weight="true"
       only_selected="false" /></defs><g
     inkscape:label="Layer 1"
     inkscape:groupmode="layer"
     id="layer1"><path
       style="fill:#000000;stroke-width:0.288585"
       d="m 50.358593,263.86893 c -10.429666,-1.20169 -22.429767,-5.1623 -29.08901,-9.60079 -7.090414,-4.72585 -12.0942747,-12.07509 -13.7485218,-20.19259 -1.8354805,-9.00689 0.4114731,-16.47321 6.8107108,-22.63096 3.184653,-3.06449 7.228019,-5.52721 12.435734,-7.57432 11.904032,-4.67938 34.117697,-7.28342 53.459688,-6.26695 17.036307,0.8953 34.515346,2.88531 56.201346,6.39861 4.16605,0.67494 7.65472,1.14709 7.75256,1.04926 0.2362,-0.2362 -0.54994,-1.21145 -3.82846,-4.74942 -5.65157,-6.0988 -11.74347,-9.60471 -19.7107,-11.34359 -4.68582,-1.0227 -9.80879,-1.22439 -22.350351,-0.87997 -6.364174,0.17478 -21.246049,0.3144 -33.070841,0.31029 -20.124984,-0.006 -21.659875,-0.043 -24.006017,-0.56175 -3.317841,-0.7337 -5.827495,-1.75339 -9.32561,-3.78907 -10.512528,-6.11758 -17.436465,-16.08221 -16.751451,-24.10794 0.377857,-4.42698 2.188763,-8.84789 5.334185,-13.02217 3.085801,-4.09517 7.460515,-7.49349 12.243037,-9.5105 3.73972,-1.57722 13.740221,-3.36088 24.858338,-4.43367 5.450204,-0.52588 18.931739,-0.47174 23.13581,0.0929 6.964688,0.93544 12.801943,3.55134 16.854866,7.55331 5.006364,4.94342 7.388354,10.5921 8.467954,20.08101 0.53151,4.67159 1.05826,6.35277 2.41579,7.71031 1.55675,1.55673 3.4784,2.26912 9.15138,3.39259 6.08409,1.20488 9.39412,2.0718 13.27741,3.47752 11.70621,4.23747 20.14622,8.90364 28.80756,15.92666 4.99608,4.05106 5.93679,4.66547 8.25823,5.39371 2.91606,0.9148 6.86471,1.40409 9.52734,1.18058 5.44163,-0.45676 23.37718,-2.47446 37.23851,-4.18919 3.88869,-0.48105 10.90132,-1.32919 15.58362,-1.88474 4.6823,-0.55557 10.91574,-1.33624 13.85211,-1.73483 2.93635,-0.3986 8.19582,-1.11132 11.68771,-1.58383 16.3782,-2.21621 20.14566,-2.80565 40.54627,-6.34373 19.22646,-3.33444 25.756,-4.30258 33.94591,-5.03321 14.8103,-1.32123 29.15002,0.35262 41.8078,4.88014 4.04121,1.44549 12.5758,5.56785 15.14089,7.31333 2.18082,1.48398 3.47287,3.24402 3.47287,4.73073 0,2.77451 -2.10786,3.96943 -11.11054,6.29839 -8.25623,2.13586 -19.7602,5.47035 -23.08684,6.69187 -4.03207,1.48054 -9.70744,3.75403 -9.61132,3.85016 0.0509,0.051 5.22127,0.94909 11.48949,1.99581 12.52895,2.09215 18.13798,3.10046 21.20867,3.81256 1.81702,0.42136 10.36443,3.85527 10.88031,4.37114 0.30324,0.30324 -5.80181,6.92159 -7.11686,7.71524 -1.26406,0.7629 -2.5666,1.08802 -10.8338,2.70404 -23.49288,4.59227 -31.58675,5.59432 -49.05954,6.07375 -17.79,0.48814 -101.806,1.21521 -149.19873,1.29117 -16.6228,0.0266 -24.25745,-1.71917 -33.84934,-7.74031 -4.01292,-2.51903 -5.74958,-3.12735 -8.57274,-3.00287 -4.03186,0.17777 -6.72831,2.26014 -9.52155,7.35311 -3.34279,6.09498 -6.08488,9.70198 -9.99587,13.14874 -9.04795,7.97394 -21.048318,12.60018 -38.776867,14.94876 -5.894868,0.78092 -18.209892,1.00924 -23.23114,0.4307 z m 14.347555,-11.84099 c 15.912963,-2.41467 23.182113,-4.63907 29.907507,-9.15188 3.886959,-2.60819 8.403265,-7.44005 10.098865,-10.80447 0.9391,-1.8634 1.70102,-4.93538 2.81662,-11.35649 0.56531,-3.25381 1.04941,-6.03556 1.07579,-6.18167 0.0568,-0.31483 -4.42249,-1.42608 -12.284903,-3.04769 -8.11547,-1.6738 -10.067395,-1.6038 -16.958589,0.60828 -5.436101,1.74499 -8.869701,2.31123 -15.006446,2.47477 -6.344691,0.16909 -9.957004,-0.11849 -15.439329,-1.22914 -5.005585,-1.01404 -9.992846,-1.20564 -15.262842,-0.58633 -10.061865,1.18244 -13.327777,2.69002 -16.710462,7.71377 -2.395531,3.5577 -3.198855,6.15071 -3.20601,10.34849 -0.0066,3.89316 0.462344,5.41133 2.563655,8.29915 2.114332,2.90571 5.067918,4.92584 9.338337,6.38703 4.734335,1.61993 19.687378,5.66084 27.750395,7.49928 1.692161,0.38582 3.237686,0.25294 11.317412,-0.9731 z m 41.205172,-5.65388 c 5.21538,-2.70414 7.68732,-5.65082 12.89016,-15.36579 3.0971,-5.78304 4.91303,-8.41282 7.54688,-10.92918 l 2.29543,-2.19304 -4.24435,-2.03008 c -5.92023,-2.83164 -5.57919,-2.80172 -6.60447,-0.57929 -0.46462,1.00709 -4.27003,8.71379 -8.45646,17.12597 -4.18642,8.41218 -7.65223,15.3841 -7.70178,15.49316 -0.1844,0.40587 2.18077,-0.43614 4.27459,-1.52175 z m 79.64961,-14.69869 c 2.05604,-0.21341 3.18244,-0.50034 4.50467,-1.14748 3.46285,-1.69477 4.17437,-4.03847 4.24938,-13.99729 0.0397,-5.27775 -0.0356,-6.61802 -0.44663,-7.94412 -0.89132,-2.8757 -3.01774,-4.15805 -7.64062,-4.60767 -8.57713,-0.83424 -15.14382,0.0655 -20.33638,2.78672 -5.7503,3.01339 -6.97151,6.6486 -4.15299,12.36234 2.58452,5.23935 8.20034,10.33501 13.15853,11.93972 2.5814,0.83546 6.38304,1.05212 10.66404,0.60778 z m -4.35793,-8.57362 c -3.30446,-3.78671 -3.97448,-4.73013 -4.43848,-6.24972 -0.39686,-1.29972 -0.38892,-1.503 0.10159,-2.59728 1.17172,-2.61417 5.64486,-5.93232 7.45987,-5.53367 1.18706,0.26072 3.43099,2.2072 6.40089,5.55237 l 2.60784,2.93739 -4.9982,4.16888 -4.99822,4.16888 z m 2.61995,-6.075 c 0.62506,-0.50615 0.62691,-0.53011 0.12282,-1.58722 -0.84498,-1.77193 -1.85015,-1.2319 -1.62799,0.87463 0.14238,1.35015 0.50552,1.52206 1.50517,0.71259 z m 66.52544,14.35363 c 33.80578,-0.39915 62.1678,-0.79781 81.95829,-1.15201 18.67975,-0.33432 19.66988,-0.41036 28.0266,-2.15209 6.5367,-1.36239 7.03655,-1.51423 7.03655,-2.13749 0,-0.28918 0.0815,-1.11986 0.18095,-1.84597 l 0.18097,-1.3202 -1.55175,-0.43594 c -0.85343,-0.23978 -5.18791,-1.47275 -9.63212,-2.73998 -8.18094,-2.33267 -16.00363,-4.36649 -18.90236,-4.91439 -4.27346,-0.80772 -24.44308,-2.67652 -45.45222,-4.21134 -5.23784,-0.38266 -10.17265,-0.76692 -10.96626,-0.85394 -0.7936,-0.087 -3.52074,-0.28619 -6.0603,-0.44259 -2.53954,-0.15641 -6.24065,-0.41563 -8.22467,-0.57604 -1.98403,-0.16041 -6.33446,-0.48558 -9.66762,-0.7226 -17.25816,-1.22717 -34.095,-2.50188 -40.83486,-3.0916 -5.02087,-0.43932 -10.79315,-0.44323 -12.26933,-0.008 -3.08938,0.91017 -4.8583,2.92314 -5.58708,6.35797 -0.46987,2.21452 -0.40174,9.93648 0.11823,13.39835 0.70287,4.67967 1.83484,6.05547 5.61758,6.82768 2.60441,0.53166 2.93435,0.54226 12.98636,0.41699 5.31718,-0.0663 20.18655,-0.24468 33.04304,-0.39648 z m -97.47432,-2.24244 0.92231,-1.67765 -4.24658,-2.4168 c -2.3356,-1.32923 -6.23422,-3.57555 -8.66359,-4.99181 -2.42935,-1.41626 -4.46093,-2.52817 -4.51458,-2.47088 -0.36859,0.3934 -1.88881,3.22633 -1.88236,3.50772 0.004,0.19141 1.53029,1.15988 3.39089,2.15215 1.86059,0.99226 5.72043,3.10017 8.57743,4.68424 2.85699,1.58408 5.26196,2.88251 5.34436,2.8854 0.0823,0.003 0.56486,-0.74967 1.07212,-1.67237 z M 323.98175,206.0012 c 14.38864,-0.67248 28.26187,-2.64747 40.6516,-5.78711 9.97494,-2.52772 12.07409,-3.4021 15.57854,-6.48915 l 1.15435,-1.01687 -1.87582,-1.70687 c -1.03169,-0.93878 -2.33032,-1.90588 -2.88585,-2.14911 -0.55552,-0.24322 -3.99691,-0.90861 -7.64752,-1.47864 -3.65061,-0.57004 -8.45556,-1.34911 -10.67766,-1.73126 -4.47648,-0.76986 -11.36667,-1.65996 -16.88226,-2.18095 -4.60652,-0.4351 -14.21683,-0.17316 -21.35532,0.58207 -2.93637,0.31065 -6.70241,0.70997 -8.36899,0.88735 -4.1722,0.44408 -16.84162,2.14063 -23.80831,3.18815 -3.17444,0.47731 -6.61583,0.99275 -7.64752,1.14541 -1.03169,0.15266 -3.95361,0.60606 -6.49318,1.00755 -2.53954,0.4015 -6.24065,0.98305 -8.22467,1.29236 -13.92167,2.17039 -17.44615,2.73295 -21.87539,3.49172 -5.94248,1.01797 -10.11563,2.47889 -8.50244,2.9765 0.28007,0.0863 4.1454,0.74964 8.58962,1.47387 23.06733,3.75913 42.09383,5.89701 58.58286,6.58257 4.97241,0.20672 16.37602,0.16067 21.68796,-0.0876 z m -164.25784,-2.67339 c -0.46113,-2.77757 -1.33384,-5.55824 -2.03148,-6.47288 -1.1744,-1.53973 -3.37742,-3.50248 -6.93068,-6.17476 -6.11112,-4.59596 -12.25963,-7.69483 -21.12259,-10.64585 -4.78974,-1.59481 -7.04849,-2.1237 -17.85849,-4.18167 -6.27534,-1.19468 -8.77343,-2.46426 -10.16342,-5.16527 -0.92917,-1.80556 -1.08688,-4.78936 -0.51712,-9.78399 0.71477,-6.26581 0.21514,-7.26797 -6.443654,-12.92489 -3.097822,-2.63174 -3.110071,-2.63506 -1.938585,-0.52596 2.478567,4.4624 3.644576,8.63821 3.655767,13.09246 0.01832,7.27499 -4.21223,13.86295 -13.785879,21.46806 l -2.401094,1.90737 1.535338,0.36345 c 3.632567,0.85992 5.102537,0.88697 8.74996,0.16107 8.123,-1.61661 15.251127,-2.18921 22.221087,-1.78498 7.6105,0.44136 13.47427,1.89566 19.76155,4.90114 6.64093,3.17457 11.99364,7.19747 17.83763,13.40614 l 2.9689,3.15417 2.22564,0.16864 c 1.22409,0.0927 2.72404,0.19016 3.3332,0.21645 l 1.10757,0.0477 z M 67.996656,180.73788 c 8.040658,-1.3835 16.066078,-5.79235 19.95191,-10.96081 2.227354,-2.96255 3.296039,-5.72489 3.460028,-8.94349 0.38343,-7.52543 -3.99713,-14.00531 -12.191447,-18.03402 -5.308368,-2.60983 -10.343053,-3.81527 -18.785508,-4.4978 -4.275797,-0.34568 -17.585119,2.18869 -23.203686,4.41845 -7.509642,2.98024 -11.964469,9.35786 -11.946843,17.10332 0.02193,9.62149 5.963713,14.85307 21.307071,18.76023 4.121995,1.04966 9.496394,2.14751 11.706514,2.39132 2.551766,0.2815 7.372353,0.16364 9.701961,-0.2372 z"
       id="path6368" /></g><metadata
     id="metadata182"><rdf:RDF><cc:Work
         rdf:about=""><cc:license
           rdf:resource="http://creativecommons.org/licenses/by-sa/4.0/" /><dc:creator><cc:Agent><dc:title>Jameela P</dc:title></cc:Agent></dc:creator><dc:publisher><cc:Agent><dc:title>OpenDataKerala.org</dc:title></cc:Agent></dc:publisher><dc:date>April 2026</dc:date><dc:title>Election Symbols of Kerala</dc:title></cc:Work><cc:License
         rdf:about="http://creativecommons.org/licenses/by-sa/4.0/"><cc:permits
           rdf:resource="http://creativecommons.org/ns#Reproduction" /><cc:permits
           rdf:resource="http://creativecommons.org/ns#Distribution" /><cc:requires
           rdf:resource="http://creativecommons.org/ns#Notice" /><cc:requires
           rdf:resource="http://creativecommons.org/ns#Attribution" /><cc:permits
           rdf:resource="http://creativecommons.org/ns#DerivativeWorks" /><cc:requires
           rdf:resource="http://creativecommons.org/ns#ShareAlike" /></cc:License></rdf:RDF></metadata></svg>
