<?xml version="1.0" encoding="UTF-8" standalone="no"?>
<!-- Created with Inkscape (http://www.inkscape.org/) -->

<svg
   width="1500"
   height="1500"
   viewBox="0 0 396.87499 396.875"
   version="1.1"
   id="svg5"
   xml:space="preserve"
   inkscape:version="1.2.2 (b0a8486541, 2022-12-01)"
   sodipodi:docname="iuml.svg"
   inkscape:export-filename="ncp.png"
   inkscape:export-xdpi="96"
   inkscape:export-ydpi="96"
   xmlns:inkscape="http://www.inkscape.org/namespaces/inkscape"
   xmlns:sodipodi="http://sodipodi.sourceforge.net/DTD/sodipodi-0.dtd"
   xmlns="http://www.w3.org/2000/svg"
   xmlns:svg="http://www.w3.org/2000/svg"
   xmlns:rdf="http://www.w3.org/1999/02/22-rdf-syntax-ns#"
   xmlns:cc="http://creativecommons.org/ns#"
   xmlns:dc="http://purl.org/dc/elements/1.1/"><title
     id="title186">Election Symbols of Kerala</title><sodipodi:namedview
     id="namedview7"
     pagecolor="#ffffff"
     bordercolor="#000000"
     borderopacity="0.25"
     inkscape:showpageshadow="2"
     inkscape:pageopacity="0.0"
     inkscape:pagecheckerboard="0"
     inkscape:deskcolor="#d1d1d1"
     inkscape:document-units="mm"
     showgrid="false"
     inkscape:zoom="0.35355339"
     inkscape:cx="-162.63456"
     inkscape:cy="971.56472"
     inkscape:window-width="1854"
     inkscape:window-height="1011"
     inkscape:window-x="0"
     inkscape:window-y="0"
     inkscape:window-maximized="1"
     inkscape:current-layer="layer1" /><defs
     id="defs2"><inkscape:path-effect
       effect="bspline"
       id="path-effect3248"
       is_visible="true"
       lpeversion="1"
       weight="33.333333"
       steps="2"
       helper_size="0"
       apply_no_weight="true"
       apply_with_weight="true"
       only_selected="false" /><inkscape:path-effect
       effect="bspline"
       id="path-effect577"
       is_visible="true"
       lpeversion="1"
       weight="33.333333"
       steps="2"
       helper_size="0"
       apply_no_weight="true"
       apply_with_weight="true"
       only_selected="false" /></defs><g
     inkscape:label="Layer 1"
     inkscape:groupmode="layer"
     id="layer1"><path
       style="fill:#000000;stroke-width:0.385773"
       d="m 80.271334,372.79526 c -4.176707,-2.73313 -6.333895,-4.9573 -6.333895,-6.53059 0,-1.31451 -0.243435,-0.98814 9.174978,-12.30083 l 7.46869,-8.97082 -1.2743,-1.05928 c -0.700866,-0.58261 -4.317861,-3.66326 -8.037764,-6.84589 -3.719903,-3.18263 -7.763812,-6.63615 -8.986453,-7.67448 l -2.223004,-1.88787 -2.842132,2.75586 c -3.412271,3.30869 -0.755645,2.96025 -21.566572,2.82863 l -11.505411,-0.0727 -2.32581,-2.2182 c -3.791114,-3.61571 -4.249727,-5.34451 -2.1401,-8.06755 0.684259,-0.88322 3.337167,-4.09478 5.895331,-7.13681 2.558179,-3.04204 8.189793,-9.78413 12.514696,-14.98243 4.324903,-5.1983 9.104468,-10.92704 10.62124,-12.73053 1.516786,-1.80348 5.772389,-6.92464 9.456905,-11.38033 10.852514,-13.12395 16.940233,-20.45863 28.162871,-33.93157 5.824766,-6.9927 11.024476,-13.26295 11.554916,-13.93388 0.53043,-0.67093 2.00601,-2.47246 3.27907,-4.00342 1.27305,-1.53096 2.92224,-3.52266 3.66485,-4.426 1.51855,-1.84723 38.65847,-46.40112 59.00312,-70.7815 7.33119,-8.78547 14.19742,-17.03829 15.25831,-18.33962 1.85444,-2.27475 13.99287,-16.86901 24.08155,-28.95369 10.94356,-13.108685 59.28263,-71.06188 64.19428,-76.961847 2.91447,-3.500891 5.93068,-6.799259 6.70269,-7.329695 1.40184,-0.963168 1.41782,-0.964611 12.11122,-1.092409 11.95498,-0.142888 12.09979,-0.118101 14.84029,2.543482 2.27915,2.213483 3.63928,4.636457 3.63928,6.483111 0,1.732052 0.93766,0.509747 -14.185,18.491314 -1.60597,1.909568 -4.99475,5.872571 -7.53064,8.806647 -2.53587,2.934077 -4.45939,5.477136 -4.27448,5.651226 0.18489,0.174105 4.76292,3.574244 10.1734,7.55588 5.41049,3.981622 11.21593,8.273515 12.901,9.537506 2.95547,2.216939 3.08502,2.272067 3.66485,1.559551 3.83229,-4.709243 12.98134,-15.418227 14.48488,-16.95458 2.37733,-2.429259 2.53983,-2.456116 15.29878,-2.529062 l 9.12233,-0.0522 1.72285,1.009665 c 3.56435,2.088835 5.30064,5.359063 5.30064,9.983463 v 2.246113 l -4.13227,4.917116 c -2.27275,2.704421 -6.5703,7.781484 -9.55011,11.282389 -2.9798,3.50089 -7.84722,9.22356 -10.81645,12.71705 -2.96924,3.49346 -8.00259,9.40454 -11.18522,13.13572 -3.18264,3.73117 -10.21337,11.98189 -15.62384,18.33495 -5.41047,6.35304 -14.00358,16.42553 -19.09579,22.38329 -9.73262,11.38693 -21.12048,24.74793 -33.18771,38.93808 -3.96953,4.66787 -8.48436,9.9626 -10.03295,11.7661 -1.5486,1.80349 -4.44656,5.18866 -6.43992,7.52259 -1.99336,2.33393 -7.77984,9.08895 -12.85881,15.01116 -5.07899,5.92221 -9.7515,11.39056 -10.38336,12.15187 -0.63187,0.76132 -4.19063,4.93664 -7.90836,9.27849 -3.71773,4.34184 -7.36711,8.61754 -8.10972,9.50153 -3.25299,3.87234 -8.1646,9.63109 -17.09808,20.04711 -5.26652,6.14051 -10.83126,12.64016 -12.36608,14.44364 -4.75389,5.58606 -34.74363,40.65645 -41.88309,48.97862 -3.72455,4.34156 -7.2927,8.52822 -7.92923,9.30373 -2.693,3.28096 -17.1875,19.97022 -18.62797,21.44861 -1.81471,1.86251 -1.83071,1.86602 -11.070012,2.44094 -9.511217,0.59183 -8.782459,0.70071 -12.768484,-1.90763 z m 13.533446,-2.72937 c 2.970454,-0.21353 5.776865,-0.47287 6.23647,-0.57632 0.48783,-0.10979 4.17076,-4.08203 8.84877,-9.54386 4.40722,-5.14568 8.97874,-10.4693 10.15891,-11.83026 1.18018,-1.36097 3.86047,-4.48574 5.9562,-6.94393 2.09575,-2.4582 8.25847,-9.66873 13.69497,-16.0234 20.00622,-23.38513 55.49479,-65.00351 57.71424,-67.68303 1.36063,-1.64268 10.89841,-12.79778 14.71176,-17.20643 1.46819,-1.69741 9.2524,-10.81131 17.29822,-20.25311 8.04583,-9.44181 17.07947,-20.0313 20.07475,-23.5322 2.99529,-3.50089 8.90198,-10.44482 13.12598,-15.43094 4.22399,-4.98613 10.28997,-12.11257 13.47997,-15.83654 3.18999,-3.72396 12.7439,-14.91309 21.23091,-24.86474 8.48703,-9.95165 17.43845,-20.44541 19.89206,-23.3195 6.95346,-8.14508 24.75398,-29.013304 29.26916,-34.313346 2.24155,-2.631197 4.91917,-5.755971 5.95025,-6.943926 3.65607,-4.212298 5.26211,-6.522187 5.26211,-7.568244 v -1.03053 l -7.04036,0.138951 c -7.36959,0.145367 -8.22021,0.322826 -9.74079,2.03187 -0.75101,0.844104 -16.9817,20.215754 -27.00974,32.236665 -4.75756,5.70303 -23.98935,28.56219 -29.69899,35.30059 -4.73833,5.59209 -13.97363,16.59176 -25.26185,30.08805 -6.03371,7.21396 -12.27923,14.66425 -13.87892,16.55619 -1.59971,1.89194 -6.70061,7.96788 -11.33536,13.50208 -24.00105,28.65891 -24.53636,29.29643 -34.06545,40.56917 -6.90237,8.16537 -20.44864,24.27752 -29.64741,35.26312 -3.60699,4.30761 -8.72813,10.3851 -11.38032,13.5055 -2.6522,3.1204 -7.86758,9.30126 -11.58976,13.73527 -3.72216,4.434 -10.4057,12.39376 -14.85228,17.68835 -4.44659,5.29459 -12.68506,15.1171 -18.30771,21.82782 -17.749682,21.18451 -24.390568,29.08576 -25.197843,29.98011 -0.950206,1.0527 -1.411093,1.0167 6.102053,0.47662 z m -9.302062,-2.54769 c 0.612611,-0.76776 2.757771,-3.32833 4.76704,-5.69014 2.00927,-2.36181 5.426177,-6.37739 7.593119,-8.9235 2.166942,-2.5461 8.434043,-10.01081 13.926893,-16.58826 16.845,-20.1711 37.55503,-44.84184 45.01382,-53.62253 3.49109,-4.10982 10.35468,-12.2729 23.84059,-28.35437 5.42688,-6.47135 12.78571,-15.23806 16.35295,-19.48158 3.56725,-4.2435 11.2127,-13.3574 16.9899,-20.25311 5.7772,-6.8957 12.40604,-14.79441 14.73076,-17.55269 2.32473,-2.75828 8.29544,-9.87582 13.26827,-15.81673 4.97281,-5.94091 11.38856,-13.5977 14.2572,-17.01507 2.86865,-3.41738 9.19988,-10.9689 14.06942,-16.78115 4.86953,-5.81227 10.34738,-12.30373 12.17301,-14.42549 1.82564,-2.12176 5.176,-6.07111 7.44525,-8.77635 2.26926,-2.70523 5.95474,-7.08949 8.18996,-9.7428 2.23522,-2.6533 7.50644,-8.94622 11.71382,-13.98428 4.20739,-5.038063 11.27829,-13.500073 15.71313,-18.804459 4.43484,-5.304387 9.08458,-10.926073 10.33275,-12.492637 l 2.2694,-2.8483 -0.92546,-0.73236 c -1.91886,-1.518507 -3.10025,-1.980837 -3.62254,-1.417669 -1.04525,1.127082 -22.37699,26.407666 -27.94225,33.114791 -3.25698,3.925254 -9.00264,10.782384 -12.76813,15.238074 -15.43497,18.2641 -20.53049,24.31009 -27.14805,32.21208 -3.82027,4.56178 -7.99633,9.52184 -9.28012,11.02235 -1.28379,1.50052 -3.4894,4.10448 -4.90135,5.78661 -1.41195,1.68211 -6.07585,7.22475 -10.36422,12.31697 -4.28835,5.09221 -9.38264,11.15032 -11.32066,13.46246 -1.938,2.31214 -4.73883,5.62032 -6.22405,7.3515 -2.70185,3.14927 -14.91106,17.62205 -31.11445,36.88307 -4.74113,5.63578 -10.43679,12.40611 -12.65701,15.04517 -2.22022,2.63906 -6.56248,7.74947 -9.64949,11.35644 -3.087,3.607 -7.78039,9.15124 -10.42974,12.32058 -2.64937,3.16933 -5.9454,7.09218 -7.32455,8.71743 -1.37913,1.62528 -6.40904,7.62529 -11.17756,13.33338 -4.76851,5.70811 -9.80285,11.69951 -11.18744,13.31423 -1.38457,1.61472 -3.22331,3.7847 -4.08607,4.82217 -0.86279,1.03747 -5.90083,7.00745 -11.19568,13.26662 -5.29484,6.25919 -12.83484,15.27161 -16.75556,20.02761 -3.920719,4.756 -9.324792,11.30183 -12.009033,14.54625 -7.327843,8.85712 -7.039763,8.24327 -4.571006,9.74013 1.895295,1.14915 2.72702,1.02991 4.007137,-0.57444 z m 9.65934,-27.12153 1.080278,-1.12759 -2.068991,-1.91441 C 89.917362,334.34194 76.735086,323.01445 73.410371,320.37242 l -3.011076,-2.39279 -1.54602,1.22447 c -0.850316,0.67346 -2.745727,2.32544 -4.212021,3.67106 -2.602051,2.38791 -3.101635,2.60879 -5.556103,2.45659 -1.565981,-0.0971 -4.380979,-1.78093 -4.906837,-2.93506 -0.494845,-1.08606 0.06459,-1.98563 5.205036,-8.37044 l 3.037626,-3.77294 -0.89636,-0.73502 c -0.685543,-0.56215 -0.997184,-0.62746 -1.324981,-0.2777 -1.29604,1.38285 -10.037819,12.22205 -10.864339,13.47098 l -0.974658,1.47283 0.912268,0.97107 c 1.338745,1.42502 5.250877,3.17687 7.735512,3.46394 1.254587,0.14493 3.120399,0.0523 4.431996,-0.2199 2.043271,-0.42419 2.551821,-0.74917 5.190615,-3.3171 1.608979,-1.56577 3.140331,-2.84685 3.403012,-2.84685 0.262681,0 1.378608,0.83144 2.479838,1.84765 1.101216,1.0162 3.810725,3.40317 6.021117,5.30439 2.210392,1.9012 6.28995,5.40865 9.065683,7.79431 2.775719,2.38568 5.144498,4.33865 5.263926,4.33996 0.119413,0.001 0.703286,-0.50503 1.297453,-1.1252 z m 6.812512,-8.14242 c 1.57317,-1.91585 2.91183,-3.63277 2.97479,-3.81534 0.063,-0.18259 -1.40508,-1.69644 -3.26229,-3.36412 -1.857207,-1.66766 -5.120276,-4.68202 -7.251277,-6.69856 -3.826151,-3.62066 -15.163726,-13.36538 -16.337975,-14.0426 -0.454617,-0.2622 -0.87586,-0.0254 -1.690075,0.94986 -0.596499,0.7145 -1.084535,1.42849 -1.084535,1.58664 0,0.15814 4.036152,3.72346 8.969233,7.92293 13.435713,11.43763 15.583278,13.71951 14.809553,15.73577 -0.419697,1.09373 -1.511304,0.57562 -4.265473,-2.02444 -1.517064,-1.43219 -5.182786,-4.68313 -8.146052,-7.22434 -10.000186,-8.5758 -14.499515,-12.67396 -15.020313,-13.68106 -0.743485,-1.43776 -0.111103,-2.70042 3.831749,-7.6503 1.811297,-2.27393 3.293266,-4.35237 3.293266,-4.61874 0,-0.59898 -1.943323,-0.63107 -4.050631,-0.0669 -1.150818,0.3081 -2.328595,1.2147 -4.633046,3.56626 -1.699479,1.73422 -3.584917,3.80235 -4.189873,4.59586 -1.385651,1.81754 -1.186336,3.05195 0.578872,3.58515 2.945565,0.88974 2.593069,1.86649 -3.331393,9.23096 -3.942153,4.90032 -4.245003,5.58538 -2.476835,5.6026 0.333906,0.003 2.618192,-1.90368 5.076174,-4.23761 2.457982,-2.33394 4.704271,-4.24352 4.991753,-4.24352 1.216138,0 5.646049,3.59011 23.175419,18.78186 2.280247,1.97616 4.378268,3.59302 4.662265,3.59302 0.284012,0 1.803511,-1.56752 3.376694,-3.48339 z m -54.041296,-4.42497 c -0.498316,-0.53043 -1.116205,-0.96443 -1.373083,-0.96443 -0.256877,0 -0.751416,0.434 -1.09897,0.96443 l -0.631915,0.96444 h 2.004997 2.005012 z m -6.883549,-0.70807 c 0.56365,-0.45926 4.04649,-4.48059 7.739638,-8.93628 3.693148,-4.45567 10.540464,-12.70159 15.216274,-18.32423 4.675795,-5.62267 11.782453,-14.22735 15.792564,-19.12153 11.17012,-13.63271 28.933639,-35.23001 33.929279,-41.25206 7.2158,-8.69832 13.93714,-16.85278 25.26376,-30.65045 5.84331,-7.11808 15.3912,-18.74287 21.21756,-25.83287 5.82637,-7.09 12.73674,-15.50951 15.35641,-18.71003 2.61966,-3.2005 7.99581,-9.72507 11.94699,-14.49902 15.27619,-18.45722 27.4129,-33.15904 30.73191,-37.22715 1.90416,-2.33393 7.71933,-9.3802 12.9226,-15.658369 5.20327,-6.278155 10.93609,-13.216554 12.73957,-15.41865 4.09608,-5.001362 14.35883,-17.405961 17.37605,-21.002426 4.27091,-5.090871 19.10166,-23.145734 24.03024,-29.254289 5.36679,-6.651676 5.28706,-6.41403 2.68979,-8.019232 -1.1331,-0.700298 -1.41487,-0.74541 -1.83621,-0.294 -0.27375,0.293285 -3.06189,3.658009 -6.19585,7.477176 -3.13397,3.819152 -9.91106,11.978268 -15.06019,18.131352 -5.14913,6.153098 -17.29253,20.735342 -26.98531,32.404986 -9.6928,11.669659 -19.07738,22.953532 -20.8546,25.075292 -4.01129,4.7889 -30.35114,36.47389 -47.61823,57.28136 -11.16807,13.45796 -47.1357,56.68693 -51.36078,61.72981 -3.2242,3.84826 -39.921038,47.99879 -59.159103,71.17523 -8.252985,9.94254 -14.207527,17.15358 -15.637327,18.93709 -0.525361,0.65531 -2.744429,3.31968 -4.931259,5.92081 -4.225683,5.02625 -4.589654,5.92769 -2.774975,6.87272 1.302659,0.67838 4.156893,0.25755 5.461199,-0.80524 z m 71.623845,-7.5608 c 2.05167,-2.45392 6.20505,-7.38303 9.2297,-10.95359 3.02466,-3.57057 5.49938,-6.63726 5.49938,-6.81486 0,-0.42397 -3.67011,-3.57987 -9.64435,-8.29311 -2.65219,-2.09239 -5.58321,-4.42472 -6.51338,-5.18296 -5.19502,-4.2348 -7.20721,-5.80988 -7.42533,-5.8123 -0.13399,-10e-4 -2.56445,2.71714 -5.400834,6.0414 -2.836388,3.32428 -7.023258,8.18924 -9.304146,10.81103 -2.280889,2.6218 -4.138536,4.8929 -4.128111,5.04687 0.01021,0.15399 2.209823,2.10275 4.887561,4.33059 2.677738,2.22785 6.705361,5.79295 8.950279,7.92243 7.564741,7.17579 8.967591,8.32165 9.572891,7.81928 0.3003,-0.24922 2.22465,-2.46088 4.27634,-4.91478 z M 83.276126,298.02826 c 1.585183,-1.85653 5.84742,-6.82518 9.471617,-11.04145 l 6.589475,-7.66593 -0.739796,-1.41933 c -1.748017,-3.35365 -2.052821,-11.33268 -0.512181,-13.40759 1.042661,-1.40426 3.104089,-2.82273 6.714079,-4.62 3.76704,-1.87543 5.06218,-1.88128 7.84229,-0.0354 l 2.15524,1.431 1.71083,-2.01843 c 0.94094,-1.11014 4.81084,-5.73738 8.59975,-10.28275 3.78891,-4.54538 7.39134,-8.85692 8.00538,-9.58123 l 1.11642,-1.31691 -0.70065,-1.41332 c -0.53414,-1.07742 -0.74105,-2.61838 -0.87059,-6.48373 -0.25394,-7.57689 0.32628,-8.66804 6.35722,-11.95552 4.22449,-2.30276 5.8385,-2.42262 8.39168,-0.62322 0.97843,0.68958 1.84776,1.25377 1.93184,1.25377 0.0841,0 1.70093,-1.86618 3.59297,-4.14707 1.89204,-2.28089 5.7979,-6.95486 8.67968,-10.38661 l 5.23962,-6.23953 -0.57378,-1.86172 c -0.3156,-1.02394 -0.66881,-3.77128 -0.78494,-6.10521 -0.18676,-3.75354 -0.11285,-4.50242 0.63951,-6.48593 0.98749,-2.60314 2.31456,-3.74094 7.14235,-6.12369 3.60904,-1.78123 5.32508,-1.82 7.74597,-0.17496 0.82435,0.56016 1.6843,1.01848 1.911,1.01848 0.22669,0 2.42554,-2.47377 4.88633,-5.49727 2.46078,-3.0235 6.46716,-7.86711 8.90308,-10.76359 l 4.42895,-5.2663 -0.50575,-1.94972 c -0.27816,-1.07235 -0.62706,-4.18133 -0.77533,-6.90885 -0.2439,-4.48655 -0.19536,-5.12693 0.50941,-6.72017 0.86796,-1.96216 2.75013,-3.45397 6.73798,-5.34055 3.05874,-1.44703 4.52633,-1.44665 7.09284,0.001 l 2.03372,1.14777 3.78407,-4.49586 c 13.30039,-15.8023 15.13354,-18.08899 14.93598,-18.63157 -0.94913,-2.60669 -1.26156,-10.55271 -0.51992,-13.22329 0.62318,-2.244061 2.33709,-3.861613 6.1645,-5.817883 4.44043,-2.269618 5.77119,-2.334515 8.29932,-0.404738 1.75439,1.339153 1.83796,1.361914 2.47924,0.675103 0.36502,-0.390916 2.97853,-3.488337 5.80783,-6.88314 2.8293,-3.394818 6.57353,-7.827864 8.32049,-9.851233 l 3.17631,-3.678859 -0.54619,-2.300645 c -0.30041,-1.265347 -0.56675,-4.384668 -0.59186,-6.931809 -0.0661,-6.703436 0.55782,-7.847387 5.6374,-10.335973 5.29924,-2.596205 6.33998,-2.664733 9.32103,-0.613705 0.92401,0.635736 1.85619,1.046991 2.07152,0.913901 0.21532,-0.133119 3.53167,-3.918182 7.36964,-8.411343 3.83796,-4.493146 8.48012,-9.905355 10.31588,-12.027098 5.5006,-6.357545 6.99177,-8.168681 6.99177,-8.492002 0,-0.542363 -15.40641,0.08457 -16.11096,0.655609 -0.55031,0.446015 -7.54662,8.825995 -29.71838,35.595751 -12.59247,15.20391 -14.91821,18.018077 -24.38146,29.501894 -2.86437,3.475958 -8.33271,10.09127 -12.15188,14.7007 -6.92769,8.36117 -16.51832,19.99368 -28.93302,35.09297 -17.59421,21.39885 -21.04946,25.5896 -24.48906,29.70183 -2.04091,2.44002 -5.95888,7.19363 -8.70664,10.56359 -2.74774,3.36996 -6.38466,7.8216 -8.08207,9.89253 -1.69741,2.07093 -4.55491,5.56316 -6.35001,7.76051 -5.39488,6.60378 -11.90698,14.51649 -16.01141,19.45511 -2.12915,2.56188 -5.69396,6.88457 -7.92181,9.60598 -2.22784,2.7214 -8.74423,10.60721 -14.48087,17.52402 -5.73662,6.91679 -13.367341,16.13476 -16.957143,20.48435 -3.589801,4.3496 -8.111977,9.81795 -10.049293,12.15188 -1.937315,2.33393 -4.847202,5.89269 -6.466431,7.90836 l -2.94402,3.66485 2.084737,0.19546 c 2.298735,0.21553 3.960772,1.20064 4.754063,2.81779 0.564758,1.15128 0.2714,1.88904 -1.902628,4.78469 -1.019871,1.35842 -1.13962,1.72299 -0.728613,2.21821 0.270511,0.32594 0.534504,0.59262 0.586673,0.59262 0.0522,0 1.391803,-1.51899 2.977001,-3.37553 z m 47.368854,-1.31758 1.01945,-1.22114 -1.37713,-1.22185 c -0.75741,-0.67201 -4.15469,-3.45693 -7.5495,-6.18869 -3.39481,-2.73177 -9.60034,-7.79516 -13.7901,-11.25197 -4.18973,-3.45683 -7.71371,-6.28514 -7.83106,-6.28514 -0.37206,0 0.29215,4.79801 0.74321,5.36863 0.23757,0.30056 4.77189,4.02348 10.07628,8.27316 5.30439,4.24968 11.28838,9.08152 13.29775,10.73742 2.00938,1.6559 3.81951,3.01072 4.02252,3.01072 0.20302,0 0.82788,-0.5495 1.38858,-1.22114 z m 5.88423,-6.84542 c 1.22001,-1.45814 2.21819,-2.82487 2.21819,-3.03717 0,-0.39732 -2.41388,-2.48044 -11.7661,-10.15385 -12.90906,-10.59179 -17.60997,-14.2336 -18.37295,-14.2336 -1.30774,0 -7.42999,3.51683 -6.88945,3.95754 0.10294,0.0838 4.96108,4.03651 10.7959,8.78356 13.9763,11.37074 18.41017,15.00817 19.84108,16.27706 0.65097,0.57727 1.35718,1.05138 1.56935,1.0536 0.21217,0.003 1.38397,-1.18899 2.60398,-2.64714 z m 14.58861,-17.27345 c 4.9468,-5.87434 9.0045,-10.96331 9.01712,-11.30885 0.0131,-0.34553 -2.14707,-2.4687 -4.79927,-4.71817 -10.15775,-8.61529 -17.48592,-14.57014 -17.93034,-14.57014 -0.25433,0 -2.03158,1.86618 -3.94943,4.14706 -1.91786,2.28089 -6.13407,7.26205 -9.36938,11.06926 l -5.88235,6.92218 0.95668,0.79328 c 0.52618,0.43632 3.62941,2.95128 6.8961,5.58882 8.32992,6.72566 11.84079,9.5865 13.84777,11.28395 0.9548,0.80754 1.84464,1.46936 1.97744,1.47073 0.13283,0.001 4.28886,-4.80379 9.23566,-10.67812 z m 13.63961,-16.29254 c 0.59349,-0.61948 1.01657,-1.30065 0.94017,-1.51371 -0.0764,-0.21305 -2.5693,-2.40265 -5.53976,-4.86578 -2.97045,-2.46313 -6.52921,-5.41454 -7.90836,-6.55871 -17.32278,-14.37143 -16.18345,-13.64369 -15.63507,-9.98677 0.23489,1.56637 0.55929,1.96805 3.99119,4.942 5.80969,5.03444 22.61318,19.07001 22.85558,19.09073 0.11942,0.0102 0.70275,-0.48828 1.29625,-1.10776 z m 7.12172,-8.38162 c 1.08551,-1.30413 1.97366,-2.55307 1.97366,-2.77545 0,-0.48135 -0.52316,-0.92576 -14.6594,-12.45279 -6.047,-4.93087 -11.92877,-9.7282 -13.07059,-10.66075 -1.54911,-1.26518 -2.29807,-1.63979 -2.95082,-1.47596 -1.06546,0.26742 -5.19614,2.60673 -5.19614,2.94272 0,0.23378 9.86968,8.76289 19.64672,16.97816 2.63696,2.21572 6.36932,5.36476 8.29414,6.99785 1.92483,1.6331 3.60973,2.93509 3.74423,2.8933 0.13443,-0.0417 1.13268,-1.14296 2.2182,-2.44708 z m 11.23223,-13.22528 c 2.01565,-2.40806 5.27063,-6.27914 7.23324,-8.60239 1.96263,-2.32325 3.56841,-4.37835 3.56841,-4.56686 0,-0.18852 -1.77938,-1.81982 -3.95418,-3.62514 -2.1748,-1.80532 -7.51212,-6.22774 -11.86073,-9.82761 l -7.90656,-6.54521 -1.5989,1.82777 c -0.8794,1.00529 -4.74597,5.55397 -8.59237,10.1082 l -6.99349,8.28039 1.2361,0.96444 c 0.67986,0.53044 4.806,3.92177 9.16923,7.53629 4.36324,3.61453 9.23513,7.65023 10.82645,8.96822 l 2.89331,2.39638 1.15732,-1.2681 c 0.63652,-0.69745 2.8065,-3.23833 4.82217,-5.64638 z m -45.90564,-7.93426 c -0.49753,-0.52961 -1.00519,-0.86186 -1.12812,-0.73835 -0.12291,0.12349 0.18631,0.55682 0.6872,0.96292 1.28009,1.03777 1.51462,0.91831 0.44092,-0.22457 z m 61.12405,-10.35738 c 0.54124,-0.7096 0.98408,-1.39621 0.98408,-1.52578 0,-0.27497 -3.19665,-2.95069 -18.29713,-15.31541 -6.08934,-4.98612 -11.23249,-9.12308 -11.42926,-9.19323 -0.3858,-0.13764 -0.0729,3.03437 0.43578,4.41814 0.27573,0.75005 4.18595,4.10901 19.03926,16.3552 2.95489,2.43623 5.90605,4.9018 6.55816,5.47907 0.65211,0.57726 1.30702,1.05465 1.45536,1.06087 0.14833,0.006 0.71253,-0.56927 1.25375,-1.27886 z m 8.66588,-10.10095 1.19635,-1.6659 -3.95686,-3.21952 c -4.96728,-4.04165 -22.66355,-18.26546 -24.54298,-19.72703 -2.44499,-1.90139 -2.39953,-1.89976 -5.88641,-0.21326 l -3.23204,1.56326 1.15732,0.96349 c 0.63653,0.52992 2.11211,1.78451 3.27908,2.78798 4.38113,3.7673 22.24825,18.60294 27.38992,22.74273 l 0.96444,0.77649 1.2174,-1.17117 c 0.66958,-0.64415 1.75578,-1.92082 2.41378,-2.83707 z m 14.67455,-17.43294 c 3.82934,-4.60047 6.96244,-8.48477 6.96244,-8.63177 0,-0.14701 -2.03977,-1.91283 -4.53283,-3.92405 -2.49306,-2.01124 -7.57081,-6.1313 -11.28389,-9.15571 -9.2317,-7.51947 -8.18331,-7.01257 -10.07017,-4.86898 -3.9791,4.52051 -15.77666,18.78658 -15.77666,19.07778 0,0.17918 3.68896,3.28764 8.1977,6.90768 4.50871,3.62005 9.93142,8.00704 12.05042,9.74888 l 3.85276,3.16695 1.81889,-1.97814 c 1.0004,-1.08798 4.952,-5.74215 8.78134,-10.34264 z m -48.20319,0.51656 c 0,-0.0803 -0.95479,-0.96173 -2.12175,-1.95871 -1.16697,-0.99696 -2.12175,-1.64913 -2.12175,-1.44925 0,0.19989 0.91139,1.07833 2.0253,1.95212 2.04908,1.60734 2.2182,1.71833 2.2182,1.45584 z m 59.58343,-14.22405 1.00175,-1.25375 -1.84179,-1.69804 c -1.01297,-0.9339 -7.8964,-6.54919 -15.29651,-12.47838 l -13.45472,-10.78037 0.27961,2.25539 c 0.15378,1.24046 0.40064,2.47395 0.54858,2.74108 0.29836,0.53873 4.4742,4.06712 10.07166,8.51008 2.01566,1.59994 3.75165,3.01434 3.85773,3.14313 0.10615,0.12874 2.27607,1.89857 4.82217,3.93283 2.54611,2.03426 5.4941,4.41487 6.55109,5.29023 1.05699,0.87537 2.04258,1.59157 2.19024,1.59157 0.14764,0 0.71922,-0.5642 1.27019,-1.25377 z m 9.08359,-10.91285 c 3.8e-4,-0.22029 -0.7371,-1.0107 -1.63884,-1.75645 -3.05518,-2.52669 -17.4227,-14.03009 -23.7494,-19.01502 l -6.29312,-4.95848 -2.48438,1.26099 c -1.3664,0.69356 -2.66076,1.47356 -2.87636,1.73332 -0.28884,0.34803 0.59028,1.27172 3.34081,3.51012 2.05302,1.67077 4.8919,3.99257 6.3086,5.15953 3.10869,2.5607 7.60625,6.21132 16.59171,13.46731 l 6.75105,5.45163 2.0246,-2.22621 c 1.11355,-1.22442 2.02493,-2.40645 2.02533,-2.62674 z m 6.05078,-6.83273 c 1.46792,-1.75045 5.42347,-6.481 8.79012,-10.51234 3.36665,-4.03132 6.38182,-7.63625 6.70037,-8.01093 0.51584,-0.60672 0.51368,-0.73333 -0.0197,-1.15732 -0.3294,-0.26185 -5.08936,-3.9373 -10.57768,-8.16768 -5.48831,-4.23036 -10.98888,-8.4751 -12.22346,-9.43274 -1.63655,-1.26942 -2.39224,-1.64172 -2.78915,-1.37409 -0.72596,0.48946 -17.92704,20.98695 -17.89343,21.32251 0.0146,0.1442 3.06838,2.69248 6.78653,5.66293 3.71814,2.97046 9.39167,7.52083 12.60784,10.11193 3.21615,2.5911 5.87053,4.71767 5.8986,4.72572 0.0281,0.009 1.25206,-1.41754 2.71997,-3.16799 z m -39.2404,-8.13248 c -2.53937,-2.30817 -5.43134,-4.58591 -5.60372,-4.41354 -0.18758,0.18758 5.55145,4.90142 5.98949,4.91957 0.0986,0.004 -0.0751,-0.22363 -0.38577,-0.50603 z M 268.24604,133.525 c 0.49108,-0.46133 0.89286,-1.05571 0.89286,-1.32082 0,-0.26513 -1.82117,-1.88792 -4.04703,-3.60624 -2.22586,-1.7183 -8.25841,-6.42336 -13.40564,-10.45569 -5.14723,-4.03233 -10.35075,-8.108 -11.56338,-9.05706 -1.21262,-0.94906 -2.26336,-1.72555 -2.33496,-1.72555 -0.0716,0 -0.0261,0.94555 0.10104,2.10121 0.31326,2.84604 -0.24312,2.29577 11.38258,11.2576 2.75828,2.12625 7.8538,6.06629 11.32339,8.75563 3.46959,2.68935 6.40957,4.88971 6.5333,4.88971 0.12379,0 0.62672,-0.37745 1.11779,-0.83879 z m 3.37477,-4.13481 c 0.234,-0.37863 -1.50476,-1.83228 -12.14698,-10.15524 -14.16195,-11.07564 -21.27272,-16.5046 -21.61748,-16.5046 -1.33935,0 0.7489,1.95328 8.42546,7.88085 4.827,3.72724 12.31352,9.55477 16.63671,12.95005 4.32322,3.39529 8.00193,6.17325 8.17493,6.17325 0.17301,0 0.41032,-0.15494 0.52736,-0.34431 z m 4.03711,-4.47078 c 0.87023,-1.05698 1.58222,-2.12046 1.58222,-2.36329 0,-0.24282 -3.51537,-3.15384 -7.81191,-6.46895 -4.29656,-3.31511 -11.45748,-8.88871 -15.91317,-12.38578 -4.45568,-3.49707 -8.44844,-6.356098 -8.87279,-6.353415 -0.42435,0.0029 -1.78604,0.586847 -3.02597,1.298095 l -2.25443,1.293196 2.64021,2.092814 c 16.39116,12.99283 31.86325,25.03679 31.98873,24.901 0.0467,-0.0506 0.79689,-0.95668 1.66711,-2.01367 z m 6.46483,-8.01187 c 0.86421,-0.90176 3.46092,-3.90578 5.77048,-6.67562 2.30956,-2.76984 5.54458,-6.6185 7.18895,-8.5526 1.64435,-1.934076 2.98974,-3.597789 2.98974,-3.697126 0,-0.230327 -25.69986,-19.555582 -26.00618,-19.555582 -0.44437,0 -17.20046,19.610361 -17.20046,20.13043 0,0.166231 1.86617,1.780608 4.14706,3.587498 7.07419,5.60406 21.11027,16.39526 21.33011,16.39899 0.11504,10e-4 0.91609,-0.73425 1.7803,-1.63599 z m 21.26511,-25.622687 c -0.0593,-0.258555 -7.22552,-5.797788 -15.92471,-12.309434 l -15.81673,-11.839317 -0.12612,1.279389 c -0.0694,0.703651 -0.0187,1.852559 0.11286,2.553104 0.26673,1.421781 1.32897,2.286954 19.49491,15.877934 l 9.83722,7.359803 1.26532,-1.225704 c 0.69594,-0.674125 1.21672,-1.437235 1.15732,-1.695775 z m 2.39952,-2.811689 c 0,-0.495938 -2.76834,-2.657719 -19.1211,-14.931503 -14.89274,-11.177964 -15.59851,-11.666743 -15.59851,-10.802999 0,0.544739 33.61974,26.103839 34.33625,26.103839 0.21086,0 0.38336,-0.166202 0.38336,-0.369337 z m 4.20501,-4.44576 c 0.86988,-1.056993 1.5816,-2.040122 1.5816,-2.184716 0,-0.278282 -19.52391,-15.000644 -27.91973,-21.05337 -2.73141,-1.969144 -5.22688,-3.580252 -5.54547,-3.580252 -0.82109,0 -5.11216,1.970427 -5.11216,2.347463 0,0.172282 6.46653,5.1637 14.37007,11.092041 7.90353,5.928341 15.75327,11.841489 17.44383,13.140298 1.69057,1.298824 3.19223,2.316232 3.33702,2.260913 0.14478,-0.05526 0.97496,-0.965384 1.84484,-2.022377 z m 44.40247,-21.274045 c 0,-0.312736 -0.64957,-0.840022 -1.44349,-1.171741 -1.23455,-0.515826 -2.42109,-0.554858 -8.19769,-0.26965 l -6.75419,0.333498 1.3502,0.867957 c 1.27588,0.820164 1.7272,0.866325 8.1977,0.838258 5.76225,-0.02508 6.84747,-0.119851 6.84747,-0.598322 z M 304.35322,22.621317 c 2.25749,-0.149478 3.72174,-0.405962 3.64429,-0.63833 -0.0713,-0.213647 -0.72511,-0.707894 -1.45311,-1.098329 -1.15408,-0.618939 -2.27561,-0.709862 -8.75579,-0.709862 -4.0877,0 -7.42569,0.130203 -7.41776,0.289319 0.007,0.159145 0.6589,0.753531 1.44664,1.320869 1.30358,0.938863 1.76152,1.034 5.09711,1.058889 2.01567,0.01502 5.36304,-0.08515 7.43862,-0.222556 z"
       id="path5383" /></g><metadata
     id="metadata182"><rdf:RDF><cc:Work
         rdf:about=""><cc:license
           rdf:resource="http://creativecommons.org/licenses/by-sa/4.0/" /><dc:creator><cc:Agent><dc:title>Jameela P</dc:title></cc:Agent></dc:creator><dc:publisher><cc:Agent><dc:title>OpenDataKerala.org</dc:title></cc:Agent></dc:publisher><dc:date>April 2026</dc:date><dc:title>Election Symbols of Kerala</dc:title></cc:Work><cc:License
         rdf:about="http://creativecommons.org/licenses/by-sa/4.0/"><cc:permits
           rdf:resource="http://creativecommons.org/ns#Reproduction" /><cc:permits
           rdf:resource="http://creativecommons.org/ns#Distribution" /><cc:requires
           rdf:resource="http://creativecommons.org/ns#Notice" /><cc:requires
           rdf:resource="http://creativecommons.org/ns#Attribution" /><cc:permits
           rdf:resource="http://creativecommons.org/ns#DerivativeWorks" /><cc:requires
           rdf:resource="http://creativecommons.org/ns#ShareAlike" /></cc:License></rdf:RDF></metadata></svg>
