<?xml version="1.0" encoding="UTF-8" standalone="no"?>
<!-- Created with Inkscape (http://www.inkscape.org/) -->

<svg
   width="1500"
   height="1500"
   viewBox="0 0 396.87499 396.875"
   version="1.1"
   id="svg5"
   xml:space="preserve"
   inkscape:version="1.2.2 (b0a8486541, 2022-12-01)"
   sodipodi:docname="bjp.svg"
   inkscape:export-filename="inc.png"
   inkscape:export-xdpi="96"
   inkscape:export-ydpi="96"
   xmlns:inkscape="http://www.inkscape.org/namespaces/inkscape"
   xmlns:sodipodi="http://sodipodi.sourceforge.net/DTD/sodipodi-0.dtd"
   xmlns="http://www.w3.org/2000/svg"
   xmlns:svg="http://www.w3.org/2000/svg"
   xmlns:rdf="http://www.w3.org/1999/02/22-rdf-syntax-ns#"
   xmlns:cc="http://creativecommons.org/ns#"
   xmlns:dc="http://purl.org/dc/elements/1.1/"><title
     id="title186">Election Symbols of Kerala</title><sodipodi:namedview
     id="namedview7"
     pagecolor="#ffffff"
     bordercolor="#000000"
     borderopacity="0.25"
     inkscape:showpageshadow="2"
     inkscape:pageopacity="0.0"
     inkscape:pagecheckerboard="0"
     inkscape:deskcolor="#d1d1d1"
     inkscape:document-units="mm"
     showgrid="false"
     inkscape:zoom="0.20783333"
     inkscape:cx="1472.3336"
     inkscape:cy="1147.5541"
     inkscape:window-width="1854"
     inkscape:window-height="1011"
     inkscape:window-x="0"
     inkscape:window-y="0"
     inkscape:window-maximized="1"
     inkscape:current-layer="layer1" /><defs
     id="defs2"><inkscape:path-effect
       effect="bspline"
       id="path-effect3248"
       is_visible="true"
       lpeversion="1"
       weight="33.333333"
       steps="2"
       helper_size="0"
       apply_no_weight="true"
       apply_with_weight="true"
       only_selected="false" /><inkscape:path-effect
       effect="bspline"
       id="path-effect577"
       is_visible="true"
       lpeversion="1"
       weight="33.333333"
       steps="2"
       helper_size="0"
       apply_no_weight="true"
       apply_with_weight="true"
       only_selected="false" /></defs><g
     inkscape:label="Layer 1"
     inkscape:groupmode="layer"
     id="layer1"><path
       style="fill:#000000;stroke-width:1.23995"
       d="m 142.20291,360.62294 c -0.68202,-0.2765 -2.77441,-0.84088 -4.64982,-1.25451 -2.50344,-0.55215 -3.40988,-1.50392 -3.40988,-3.58033 0,-5.05467 2.146,-5.80328 16.67731,-5.81776 20.84954,-0.0188 21.95699,-0.35055 26.44231,-7.86882 8.45805,-14.17787 11.98697,-36.21284 8.46194,-52.83771 -2.92779,-13.80811 -6.83186,-19.19046 -19.56017,-26.96672 l -10.68714,-6.52921 -4.77738,2.00025 c -3.48482,1.45907 -6.97151,1.81726 -12.88717,1.32392 -9.97668,-0.83203 -16.44755,-3.29812 -28.46863,-10.84953 -5.1148,-3.213 -11.423561,-6.51918 -14.019461,-7.34713 -4.618511,-1.47299 -12.40218,-1.22348 -17.852952,0.57231 -2.271037,0.74818 -2.875632,0.33508 -3.572502,-2.44148 -0.461144,-1.83816 -0.194486,-5.493 0.593253,-8.12194 1.54544,-5.1581 11.521181,-16.93057 16.691424,-19.69757 l 3.181468,-1.70272 -4.600093,-2.43768 C 72.460916,197.89625 58.821897,175.8326 53.088534,147.73453 52.060381,142.69565 50.872843,131.0402 50.449613,121.8336 49.149085,93.543906 44.562067,76.106734 34.317701,60.509354 l -5.358543,-8.158536 3.552538,-1.837075 c 4.191532,-2.167515 14.557276,-2.379247 23.763789,-0.48542 15.697669,3.229129 37.017397,16.996463 47.396635,30.606661 2.6699,3.501034 5.3174,6.07936 5.88324,5.729613 0.56588,-0.349607 1.01559,-3.532293 0.99942,-7.072412 -0.0328,-7.443811 -3.74276,-17.340774 -9.79405,-26.136006 -4.871619,-7.080661 -4.130556,-8.151226 5.66302,-8.180375 8.32172,-0.02343 20.2815,3.73798 29.5794,9.306099 9.20295,5.511273 21.55719,17.522887 27.60464,26.838969 l 4.5603,7.02522 5.99121,-11.365077 c 6.33449,-12.016254 23.35659,-39.263878 24.52889,-39.263878 1.38723,0 12.55656,18.299661 18.71634,30.664631 l 6.31939,12.685334 3.3903,-4.625681 c 14.3141,-19.529939 41.35261,-35.635185 54.76664,-32.621257 2.73297,0.614061 5.24349,1.390928 5.57899,1.726382 0.33555,0.335548 -0.4834,2.75641 -1.81974,5.379866 -5.47514,10.749141 -8.03636,27.141524 -5.63874,36.089065 0.6845,2.554379 1.07858,2.282098 4.48687,-3.09983 8.16819,-12.89805 24.95198,-26.091392 40.07111,-31.499001 17.29644,-6.186352 40.78768,-3.201948 31.94066,4.057874 -4.01439,3.294083 -11.63076,16.49286 -14.16756,24.551342 -2.39696,7.614302 -2.51117,9.980099 -1.74002,36.047918 0.92439,31.24912 0.0839,38.13965 -6.72965,55.15514 -4.5043,11.24899 -10.69112,20.91885 -19.28367,30.14013 l -6.22323,6.67852 5.01034,5.22198 c 6.69694,6.97976 9.82671,13.68714 9.75056,20.89621 -0.0328,3.23222 -0.44615,6.26082 -0.91563,6.73026 -0.46944,0.46944 -3.09744,-0.40772 -5.84003,-1.94899 -8.24622,-4.63463 -15.38794,-2.05626 -33.86119,12.22494 -7.64504,5.91018 -16.79682,8.73577 -28.29443,8.73577 -5.52153,0 -12.1979,-0.64678 -14.8363,-1.43728 -6.79723,-2.03648 -13.85113,0.52656 -20.94383,7.61004 -6.83397,6.82501 -8.64532,12.3233 -8.64532,26.24224 0,19.98785 -3.6876,41.0802 -9.12342,52.18424 l -2.86996,5.86257 22.41002,0.33695 c 19.85251,0.29852 22.45577,0.5753 22.81081,2.42344 0.71655,3.7302 -3.94282,4.5984 -26.72026,4.97894 -22.25444,0.37163 -22.4388,0.35289 -25.62097,-2.63151 -3.5815,-3.35885 -4.00961,-5.77414 -1.53771,-8.67587 4.80461,-5.64006 8.80137,-22.81803 10.18771,-43.78637 0.6583,-9.95676 0.48706,-13.78355 -0.67967,-15.18938 -0.8578,-1.03359 -1.90986,-1.87438 -2.33782,-1.86843 -0.42787,0.005 -0.85958,6.41824 -0.95908,14.24938 -0.31211,24.56653 -4.19982,39.48873 -12.84725,49.31273 -6.89058,7.82805 -11.15779,9.48756 -26.22795,10.1998 -7.05193,0.3332 -13.37963,0.38007 -14.06159,0.10357 z m 61.98062,-91.04625 c 4.85382,-8.06912 10.69825,-13.61133 18.38365,-17.43305 9.00832,-4.47961 12.0118,-8.60595 12.0118,-16.50238 0,-6.65171 -3.73095,-11.54049 -7.89685,-10.34742 -12.54469,3.59275 -17.66095,4.41522 -27.4661,4.41522 -7.39405,0 -14.85946,-0.90448 -21.65973,-2.62412 -11.84909,-2.9964 -12.45167,-2.72716 -14.98918,6.69633 -2.25876,8.38855 1.29083,14.61478 12.49436,21.91598 2.38694,1.55552 7.79408,6.42836 12.01598,10.82853 9.06493,9.44772 12.85189,10.12313 17.10607,3.05091 z m 66.53077,-22.30257 c 2.97161,-1.44337 8.05459,-4.82087 11.29548,-7.50553 7.21652,-5.97799 15.46485,-10.08339 22.02738,-10.96359 2.71629,-0.36414 4.93868,-1.20272 4.93868,-1.86313 0,-2.16241 -8.375,-9.63232 -10.79942,-9.63232 -1.30231,0 -7.07738,1.19161 -12.83347,2.64801 -8.73989,2.21133 -12.5402,2.52129 -23.04649,1.87958 -7.6957,-0.47005 -14.03661,-0.26103 -16.32986,0.53852 l -3.749,1.3069 1.88572,4.51316 c 1.9556,4.68037 1.48133,14.52639 -0.91539,19.00473 -0.96241,1.79827 -0.56734,2.28683 2.24104,2.7715 7.30594,1.26088 19.90195,-0.083 25.28533,-2.69783 z m -120.2394,-8.26548 c -0.35523,-7.65559 -0.0281,-9.23472 2.79217,-13.3845 1.75736,-2.58765 3.1952,-4.88934 3.1952,-5.1148 0,-0.22542 -1.74363,-0.75864 -3.87473,-1.18482 -2.1311,-0.42647 -7.12303,-2.23275 -11.09322,-4.01443 -6.75983,-3.03366 -7.627,-3.1415 -13.64792,-1.69709 -3.94606,0.94665 -9.65107,1.24297 -14.77018,0.76721 -7.91189,-0.73535 -8.62081,-0.57812 -13.78604,3.05732 -5.416322,3.81217 -11.007124,9.56667 -11.01884,11.34155 -0.0037,0.51148 2.421612,0.92998 5.388911,0.92998 5.867769,0 13.962009,3.70259 21.715359,9.93333 7.11918,5.72113 16.63354,8.67797 26.825,8.33657 l 8.67732,-0.29056 z m 56.52503,-20.8897 c 12.83647,-3.32975 22.85575,-13.61432 28.30554,-29.05504 7.53444,-21.34705 1.33745,-58.70946 -15.64153,-94.304946 -6.98229,-14.63793 -19.53486,-36.162689 -21.08897,-36.162689 -1.60285,0 -14.45661,21.211707 -22.91691,37.8184 -24.93558,48.945635 -27.2098,86.825755 -6.55784,109.230435 6.12698,6.64698 12.08529,10.44518 19.53941,12.45556 7.46087,2.01221 10.66122,2.01539 18.3603,0.0188 z m 43.50059,-7.67617 c 8.26177,-3.76577 19.47862,-15.05825 24.10088,-24.2634 8.88545,-17.69516 8.93315,-43.2665 0.142,-76.12526 -3.97155,-14.844464 -4.6575,-19.335269 -4.73516,-30.99873 -0.0736,-11.049493 0.34492,-14.438803 2.20402,-17.849203 l 2.29485,-4.209808 -4.07709,0.81539 c -12.16289,2.432578 -26.38261,12.498674 -35.29059,24.982116 l -5.83225,8.173158 5.59057,12.023427 c 9.29626,19.99319 12.30194,31.55945 13.91884,53.56166 1.58392,21.55316 -2.08423,37.73648 -12.26557,54.11373 l -3.19281,5.13584 5.26018,-1.17034 c 2.89311,-0.64368 8.24003,-2.52851 11.88208,-4.18858 z m -96.75159,-8.94252 c -6.84733,-13.94706 -8.86928,-23.16145 -8.77466,-39.98835 0.0914,-16.24425 3.05765,-29.76437 10.83162,-49.36929 l 4.58027,-11.55094 -4.13183,-6.850793 c -5.96515,-9.890496 -16.17507,-21.911436 -23.67104,-27.869746 -6.15397,-4.891589 -16.68398,-10.52335 -17.72666,-9.480715 -0.26478,0.264782 0.73104,2.931447 2.21269,5.926161 4.20166,8.492209 4.5171,24.087105 0.79646,39.372083 -2.52766,10.38412 -2.9321,15.05244 -2.87343,33.16437 0.0628,19.40621 0.32993,21.8664 3.36593,30.99872 6.16948,18.55864 17.95572,33.92066 31.78239,41.42465 3.81788,2.07205 7.25312,3.78222 7.63384,3.8004 0.38054,0.0187 -1.43076,-4.29131 -4.02558,-9.57655 z m 140.68857,4.25887 c 11.57512,-6.78349 24.21242,-23.69625 30.43547,-40.73246 3.3072,-9.05373 3.3221,-9.25028 3.3221,-43.81303 0,-39.044969 0.36414,-41.202596 9.28675,-55.007421 l 4.79964,-7.425955 -4.56331,0.685857 c -13.54177,2.035358 -27.20703,9.802578 -37.75714,21.460837 -8.33901,9.214901 -16.02328,22.080422 -15.03946,25.180072 2.51501,7.92416 5.59539,26.99277 6.24605,38.6656 1.31524,23.59522 -4.94159,45.14941 -16.85929,58.07863 -6.01103,6.52115 -5.39664,7.15316 6.36594,6.54852 6.13109,-0.3154 9.69924,-1.25901 13.76325,-3.64065 z m -171.13458,-4.06143 c 0.40303,-0.40304 -1.03856,-3.05812 -3.20322,-5.90053 -14.67223,-19.26595 -21.20983,-53.1487 -16.41563,-85.07847 l 1.762,-11.734838 -4.19017,-5.708149 C 92.314593,81.09519 76.683987,69.119052 63.832895,64.602236 56.000814,61.849482 45.532671,60.18496 46.30204,61.814662 c 0.291027,0.616779 2.593229,5.306242 5.115693,10.420997 6.22553,12.623473 9.445145,28.447021 10.827216,53.213271 0.631167,11.31002 1.733131,22.9716 2.44884,25.91467 4.946513,20.34036 22.938652,43.6155 37.976331,49.12729 4.79332,1.75689 19.23784,2.60176 20.6328,1.2068 z"
       id="path4304"
       sodipodi:nodetypes="ssscssscsssssssscsssscsssscscsscssscsssssssssssscscsssssssscssssssscssssssssssssssssssssssscssssscsssssssssscssssssssssssssscsscssscsssssscsssssssssssssscsssssssssscssssssss" /></g><metadata
     id="metadata182"><rdf:RDF><cc:Work
         rdf:about=""><cc:license
           rdf:resource="http://creativecommons.org/licenses/by-sa/4.0/" /><dc:creator><cc:Agent><dc:title>Jameela P</dc:title></cc:Agent></dc:creator><dc:publisher><cc:Agent><dc:title>OpenDataKerala.org</dc:title></cc:Agent></dc:publisher><dc:date>April 2026</dc:date><dc:title>Election Symbols of Kerala</dc:title></cc:Work><cc:License
         rdf:about="http://creativecommons.org/licenses/by-sa/4.0/"><cc:permits
           rdf:resource="http://creativecommons.org/ns#Reproduction" /><cc:permits
           rdf:resource="http://creativecommons.org/ns#Distribution" /><cc:requires
           rdf:resource="http://creativecommons.org/ns#Notice" /><cc:requires
           rdf:resource="http://creativecommons.org/ns#Attribution" /><cc:permits
           rdf:resource="http://creativecommons.org/ns#DerivativeWorks" /><cc:requires
           rdf:resource="http://creativecommons.org/ns#ShareAlike" /></cc:License></rdf:RDF></metadata></svg>
