<?xml version="1.0" encoding="UTF-8" standalone="no"?>
<!-- Created with Inkscape (http://www.inkscape.org/) -->

<svg
   width="1500"
   height="1500"
   viewBox="0 0 396.87499 396.875"
   version="1.1"
   id="svg5"
   xml:space="preserve"
   inkscape:version="1.3 (0e150ed6c4, 2023-07-21)"
   sodipodi:docname="Refrigerator.svg"
   inkscape:export-filename="Ship.png"
   inkscape:export-xdpi="96"
   inkscape:export-ydpi="96"
   xmlns:inkscape="http://www.inkscape.org/namespaces/inkscape"
   xmlns:sodipodi="http://sodipodi.sourceforge.net/DTD/sodipodi-0.dtd"
   xmlns="http://www.w3.org/2000/svg"
   xmlns:svg="http://www.w3.org/2000/svg"
   xmlns:rdf="http://www.w3.org/1999/02/22-rdf-syntax-ns#"
   xmlns:cc="http://creativecommons.org/ns#"
   xmlns:dc="http://purl.org/dc/elements/1.1/"><title
     id="title186">Election Symbols of Kerala</title><sodipodi:namedview
     id="namedview7"
     pagecolor="#ffffff"
     bordercolor="#000000"
     borderopacity="0.25"
     inkscape:showpageshadow="2"
     inkscape:pageopacity="0.0"
     inkscape:pagecheckerboard="0"
     inkscape:deskcolor="#d1d1d1"
     inkscape:document-units="mm"
     showgrid="false"
     inkscape:zoom="0.25"
     inkscape:cx="230"
     inkscape:cy="1082"
     inkscape:window-width="1920"
     inkscape:window-height="991"
     inkscape:window-x="-9"
     inkscape:window-y="-9"
     inkscape:window-maximized="1"
     inkscape:current-layer="layer1" /><defs
     id="defs2"><inkscape:path-effect
       effect="bspline"
       id="path-effect3248"
       is_visible="true"
       lpeversion="1"
       weight="33.333333"
       steps="2"
       helper_size="0"
       apply_no_weight="true"
       apply_with_weight="true"
       only_selected="false" /><inkscape:path-effect
       effect="bspline"
       id="path-effect577"
       is_visible="true"
       lpeversion="1"
       weight="33.333333"
       steps="2"
       helper_size="0"
       apply_no_weight="true"
       apply_with_weight="true"
       only_selected="false" /></defs><g
     inkscape:label="Layer 1"
     inkscape:groupmode="layer"
     id="layer1"><path
       style="fill:#000000;stroke-width:1.59525"
       d="m 73.073163,390.54709 c -0.144179,-0.14421 -1.630645,-0.24926 -3.303276,-0.23352 -1.67263,0.016 -3.640888,-0.22198 -4.373908,-0.52825 -0.733019,-0.30627 -3.599223,-2.43724 -6.369341,-4.73548 -8.422954,-6.98816 -25.147697,-20.55546 -27.702606,-22.47269 -1.497021,-1.12338 -2.727241,-2.47026 -3.25564,-3.5644 -0.843836,-1.74732 -0.846838,-2.11191 -0.462902,-56.20676 0.212546,-29.9464 0.5995,-105.73047 0.8599,-168.40902 0.325604,-78.373659 0.613591,-114.328497 0.922215,-115.137833 0.246818,-0.647275 0.791099,-1.360066 1.209514,-1.583992 0.418416,-0.223926 4.61842,-0.976551 9.333343,-1.672481 10.858833,-1.602816 10.049939,-1.427338 17.014142,-3.690909 3.69156,-1.199871 6.621867,-1.907813 7.80844,-1.886468 1.044643,0.01882 9.781651,0.225553 19.415569,0.459497 9.633934,0.233928 31.571427,0.627701 48.749997,0.875045 48.11179,0.692739 77.54625,1.265452 78.81924,1.533598 0.63632,0.134001 1.68097,0.872955 2.32144,1.642043 l 1.16447,1.398369 23.84739,0.258335 c 22.44624,0.243149 50.23971,0.682578 95.17854,1.504804 19.22623,0.35177 19.45035,0.365935 22.98156,1.452639 1.9613,0.603564 3.96756,1.097407 4.45837,1.097407 0.49081,0 1.40883,0.539053 2.04006,1.197893 l 1.14766,1.197909 -0.01,62.430321 c -0.006,34.336673 -0.10689,86.552053 -0.22495,116.034193 -0.11805,29.48213 -0.31326,81.29537 -0.43362,115.14053 -0.16473,46.32389 -0.34231,61.7344 -0.71833,62.33649 -0.61646,0.98711 -0.93905,1.13689 -7.63934,3.54705 -2.97643,1.07066 -6.11035,1.94589 -6.96428,1.94498 -1.51214,-0.002 -17.83228,-4.69271 -36.58504,-10.51606 -5.10714,-1.58592 -11.28003,-3.486 -13.71753,-4.22238 -2.4375,-0.73639 -10.98457,-3.34774 -18.9935,-5.80301 -24.75881,-7.59024 -49.14353,-14.86961 -49.29691,-14.71623 -0.0804,0.0804 0.17572,5.37469 0.56925,11.76494 0.39355,6.39027 0.58994,12.28817 0.43643,13.10644 -0.33559,1.78892 -1.80551,3.05054 -3.95331,3.39309 -2.19997,0.35088 -17.3948,1.76186 -32.38204,3.00699 -6.96429,0.57858 -20.92451,1.80564 -31.02273,2.7268 -18.03692,1.64533 -28.15311,2.51551 -68.568332,5.89817 -21.68819,1.81526 -21.902739,1.82902 -22.299817,1.43195 z m -1.777588,-6.74239 c 0.597353,-0.64457 1.104792,-1.81722 1.232853,-2.84903 0.119708,-0.96448 0.31955,-25.02063 0.444108,-53.45812 0.124557,-28.43749 0.332339,-65.1899 0.46174,-81.67204 0.659674,-84.02497 0.89742,-145.39323 0.704483,-181.845404 L 73.924667,23.53075 72.888996,22.299915 c -1.203791,-1.430624 -3.290092,-1.711117 -3.66093,-0.492183 -0.1236,0.406247 -0.414239,67.405824 -0.645877,148.887938 -0.231639,81.48211 -0.475701,162.69657 -0.542361,180.47659 -0.1009,26.91078 -0.02414,32.44466 0.458078,33.0276 0.816025,0.98645 1.622833,0.8725 2.797669,-0.39516 z m 23.316564,-0.17567 c 12.117391,-1.08103 48.368291,-4.25491 74.816181,-6.55041 12.85828,-1.11599 50.29906,-4.413 53.81493,-4.73889 l 3.37661,-0.31297 -0.0266,-2.1104 c -0.0144,-1.16071 -0.18343,-6.25421 -0.37503,-11.3189 -0.28123,-7.43403 -0.47481,-9.33497 -1.00458,-9.86472 -0.53489,-0.53491 -1.2849,-0.60572 -4.05678,-0.38302 -1.87031,0.15027 -7.6741,0.5486 -12.89732,0.8852 -37.43523,2.41251 -56.58208,3.62932 -66.2662,4.21128 -16.34288,0.98214 -35.3434,2.23556 -48.288568,3.18549 -6.246219,0.45836 -12.54051,0.83337 -13.987324,0.83337 -4.506655,0 -4.304974,-0.59653 -4.645841,13.74145 -0.335535,14.11361 -0.434151,13.69362 3.215232,13.69362 1.142537,0 8.488945,-0.572 16.325362,-1.2711 z M 63.641876,356.09332 c 0.22754,-21.47564 0.443635,-98.59597 0.79197,-282.640576 0.0982,-51.886805 0.04631,-57.18455 -0.564004,-57.569533 -0.493406,-0.311234 -2.51981,0.144371 -7.619737,1.713048 -4.61499,1.419554 -8.994851,2.439894 -13.045365,3.039056 -3.353783,0.496108 -6.85753,1.034858 -7.786101,1.197223 l -1.688311,0.295218 -0.282034,61.410586 c -0.155123,33.775818 -0.487202,99.397568 -0.737967,145.826138 -0.250763,46.42854 -0.456233,93.8914 -0.456601,105.473 l -6.7e-4,21.05744 1.371753,1.19382 c 3.818441,3.32316 28.872097,23.12472 29.283924,23.14501 0.346662,0.0171 0.547123,-6.58362 0.733143,-24.14043 z m 290.763934,21.87045 2.32285,-1.02728 0.24917,-27.99058 c 0.30724,-34.51333 1.14324,-252.230015 1.12937,-294.12507 l -0.01,-30.615122 -1.97569,-0.732237 c -1.08662,-0.402723 -2.10805,-0.586145 -2.26982,-0.407604 -0.16179,0.178557 -0.50798,47.903358 -0.7693,106.055123 -0.57526,128.01273 -0.82077,174.93094 -1.13797,217.47556 -0.13289,17.81697 -0.15602,32.39447 -0.0514,32.39447 0.10449,0 1.23536,-0.46227 2.51294,-1.02726 z m -6.43859,-1.71624 c 0,-0.75564 -0.23742,-1.56182 -0.5276,-1.79149 -0.95082,-0.75254 -5.99514,-2.21054 -6.85876,-1.98245 -0.46428,0.12267 -4.07305,-0.75245 -8.01947,-1.94464 -3.94644,-1.19216 -10.68912,-3.17517 -14.98377,-4.40668 -4.29465,-1.2315 -16.3555,-4.80974 -26.80193,-7.95164 -10.44643,-3.14189 -25.83116,-7.73531 -34.1883,-10.20757 -8.35714,-2.47228 -17.56899,-5.23545 -20.47077,-6.14038 -2.90179,-0.90494 -7.46023,-2.22016 -10.12987,-2.92271 l -4.8539,-1.27738 -0.73863,0.89332 c -1.4993,1.81331 -1.9548,1.59883 11.9237,5.61445 11.02888,3.19112 33.79084,9.97452 52.54867,15.66033 5.80357,1.75915 19.7638,5.95947 31.02273,9.33403 11.25892,3.37457 22.84495,6.84842 25.74674,7.71967 5.75914,1.72919 6.33116,1.67526 6.33116,-0.59686 z m -0.56812,-4.75483 c 0.36211,-0.23055 0.60531,-19.26014 0.94791,-74.17371 0.6931,-111.09487 1.09748,-197.485712 1.09748,-234.464193 V 29.721694 l -0.99836,-0.14118 c -0.54908,-0.07769 -1.15405,0.01723 -1.34436,0.211036 -0.33625,0.342342 -0.74585,23.981702 -1.01901,58.810067 -0.0737,9.401776 -0.16234,17.189123 -0.1969,17.305193 -0.0346,0.11614 -0.34618,-0.31128 -0.69253,-0.94969 -1.65252,-3.04609 -1.86897,-1.2221 -1.86897,15.75026 0,13.00035 0.19576,15.7134 1.03572,14.3543 0.13751,-0.22239 0.38439,-2.26728 0.54877,-4.54422 l 0.29887,-4.13988 0.27875,2.53247 c 0.38409,3.48954 0.42465,25.00139 0.0895,47.41889 l -0.27991,18.7176 -0.9788,0.44597 c -0.61026,0.27806 -1.06661,0.93814 -1.21207,1.75316 -0.12826,0.71896 -0.17894,11.65866 -0.11247,24.31045 0.11295,21.52092 0.16462,22.9114 0.80149,21.57811 0.43394,-0.90845 0.79193,-1.2452 0.98743,-0.92888 0.16869,0.27293 0.19505,10.88583 0.0586,23.5842 -0.1364,12.69838 -0.35898,36.3656 -0.49451,52.59382 -0.23857,28.56635 -0.27257,29.52728 -1.06804,30.17856 -0.77571,0.63512 -0.81505,1.19156 -0.70397,9.95841 0.11326,8.93512 0.14437,9.23791 0.82375,8.01949 0.61405,-1.10119 0.74489,-1.1669 1.00383,-0.50415 0.16376,0.41914 0.18306,1.59873 0.0429,2.62131 -0.21908,1.59839 -0.12475,1.95037 0.67288,2.50901 1.02377,0.71707 1.5506,0.79251 2.28215,0.32678 z m -8.17914,-2.52692 c 0.60346,-0.66682 0.69313,-7.81711 0.91169,-72.7029 0.13336,-39.57983 0.34706,-77.95958 0.47499,-85.28832 0.21718,-12.44199 0.18184,-13.38767 -0.53323,-14.27074 -0.84954,-1.04913 4.38913,-0.10082 -56.05096,-10.14583 -16.71428,-2.77787 -35.13799,-5.91577 -40.94156,-6.97312 -19.52296,-3.55689 -20.23714,-3.58836 -20.66619,-0.9107 -0.11517,0.71897 -0.26081,35.99728 -0.32356,78.39624 -0.11135,75.25941 -0.0951,77.11013 0.68872,77.97755 0.44158,0.48867 1.77111,1.17522 2.95455,1.52565 1.18343,0.35043 6.42522,1.86382 11.64844,3.36307 12.21657,3.50661 22.9773,6.66596 33.55517,9.85181 4.64287,1.39832 14.04464,4.18719 20.89286,6.19749 6.84821,2.01029 15.58523,4.58305 19.41558,5.71726 3.83035,1.13419 11.03163,3.21677 16.00282,4.62791 4.9712,1.41117 9.33971,2.74186 9.7078,2.95713 0.98778,0.57766 1.51642,0.50233 2.26288,-0.3225 z m -22.90857,-24.37297 c -6.05758,-1.5976 -22.40036,-6.1427 -45.79544,-12.73619 -15.5824,-4.39163 -19.01636,-5.34991 -27.85713,-7.77387 -10.34939,-2.83759 -12.02245,-3.49844 -12.72603,-5.02676 -0.36463,-0.79201 -0.38231,-10.10857 -0.0708,-37.35387 l 0.41489,-36.2987 1.01087,-1.03589 1.01085,-1.03591 10.03403,1.99598 c 18.77452,3.73463 46.28731,9.427 67.85871,14.03988 6.7384,1.44095 15.65066,3.51065 16.46843,3.82446 0.36133,0.13863 0.95419,0.82691 1.31749,1.52947 0.59562,1.15178 0.61116,4.60169 0.15809,35.08681 -0.27639,18.5952 -0.63984,36.35235 -0.80766,39.46032 -0.28056,5.19606 -0.38321,5.71409 -1.27557,6.43667 -1.30089,1.0534 -1.70234,1.00755 -9.74057,-1.1124 z m 5.81076,-3.27222 c 0.48075,-0.59385 1.33306,-70.75366 0.88589,-72.92403 -0.14724,-0.71444 -0.3725,-1.40384 -0.50068,-1.53202 -0.23176,-0.23176 -4.32364,-1.14756 -18.43623,-4.12627 -4.06249,-0.85746 -8.90583,-1.91663 -10.76298,-2.35373 -3.43188,-0.80771 -20.06765,-4.37081 -32.71103,-7.00615 -9.59388,-1.9997 -16.00027,-3.39739 -20.39989,-4.45064 -3.24952,-0.77791 -3.80604,-0.8142 -4.33737,-0.28288 -0.48845,0.48845 -0.68658,3.28737 -0.99743,14.08988 -0.43903,15.25773 -1.08065,46.64385 -1.041,50.92443 0.0292,3.14631 0.65979,4.27315 2.63332,4.70509 0.62652,0.13719 1.55746,0.36865 2.06875,0.5145 0.86895,0.24789 0.90006,0.18659 0.4767,-0.93951 -0.33378,-0.88777 -0.21688,-5.42407 0.44437,-17.24364 0.49351,-8.82143 0.89815,-17.55845 0.89918,-19.41558 0.002,-4.14715 1.08596,-6.77265 4.14122,-10.03364 2.50173,-2.67015 2.85804,-3.31883 3.24666,-5.91056 0.47829,-3.18974 2.14355,-3.82515 7.42639,-2.83364 2.99953,0.56295 3.45408,1.21562 3.19847,4.59246 -0.2036,2.68966 -0.19846,2.7048 1.71917,5.05912 3.57674,4.39129 3.59411,4.48171 3.28181,17.08512 -0.15043,6.06905 -0.45442,15.55756 -0.67564,21.08556 -0.43008,10.74739 -0.65879,11.85035 -2.68181,12.93305 -0.60017,0.32119 -1.0912,0.70714 -1.0912,0.85766 0,0.29354 4.15849,1.69408 5.03004,1.69408 0.35501,0 0.43988,-0.3832 0.26311,-1.18802 -0.14358,-0.6534 -0.0668,-4.78449 0.17027,-9.1802 0.23715,-4.39569 0.63134,-13.28561 0.87596,-19.75536 0.31788,-8.40768 0.61778,-12.1773 1.05132,-13.2149 0.33361,-0.79844 1.74664,-2.63898 3.14007,-4.09009 2.2776,-2.3719 2.58779,-2.91247 3.07116,-5.35232 0.70019,-3.53433 1.33688,-3.88372 6.02467,-3.30618 1.85715,0.22881 3.64371,0.68016 3.97015,1.003 0.39055,0.38623 0.5673,1.38934 0.51686,2.93312 -0.0818,2.50659 0.52088,4.12281 2.05574,5.51183 1.14161,1.03315 2.86698,3.92241 3.35179,5.61285 0.3579,1.24789 -0.01,16.54265 -0.81318,33.85084 -0.46286,9.96867 -0.60816,10.49147 -3.2975,11.86536 l -1.33148,0.6802 3.04979,0.90392 c 1.67738,0.49716 3.14476,0.90218 3.26083,0.90005 0.11613,-0.002 0.23976,-3.28489 0.27489,-7.29501 0.0351,-4.0101 0.27714,-10.0394 0.53784,-13.39841 0.2607,-3.35902 0.64683,-9.46033 0.85807,-13.55846 0.35172,-6.82341 0.47893,-7.63833 1.50993,-9.67289 0.61921,-1.22196 2.06111,-3.21067 3.20424,-4.41935 1.79465,-1.89757 2.16018,-2.58849 2.67741,-5.06059 0.32947,-1.57464 0.84688,-3.034 1.14981,-3.24303 0.77437,-0.53434 6.76577,-0.11198 8.21261,0.57899 1.12914,0.53921 1.21457,0.7651 1.41284,3.73591 0.23018,3.44876 0.23283,3.45546 2.58597,6.56626 2.95563,3.90724 3.00323,4.25614 2.50101,18.33274 -0.65694,18.41315 -1.32459,28.72141 -1.96237,30.29781 -0.35885,0.887 -1.05647,1.59401 -1.93895,1.96505 l -1.3784,0.57959 2.31228,0.65669 c 1.27175,0.36116 3.92673,1.11913 5.89995,1.68435 4.33086,1.24055 4.42865,1.25211 4.9666,0.58759 z m -13.40736,-6.47947 c 0.71472,-0.73165 0.82342,-2.1416 1.2494,-16.2072 0.25663,-8.47321 0.6456,-17.3375 0.86439,-19.69841 0.45281,-4.88609 0.006,-7.16957 -1.88741,-9.65235 -0.61062,-0.80056 -1.47008,-2.25934 -1.9099,-3.24175 -0.78251,-1.74776 -0.85994,-1.79604 -3.59869,-2.24425 l -2.79899,-0.45804 -0.66343,1.29188 c -0.3649,0.71054 -1.58125,2.2994 -2.703,3.53083 -1.13067,1.24119 -2.22334,2.93401 -2.45197,3.7987 -0.22681,0.85786 -0.82097,8.87226 -1.32033,17.80975 -0.49936,8.9375 -1.00278,17.49406 -1.1187,19.01459 -0.19363,2.53954 -0.11869,2.87414 0.92142,4.11015 1.768,2.10115 5.33473,3.08697 10.48806,2.89884 3.38673,-0.12363 4.28974,-0.29818 4.92915,-0.95274 z m -26.46571,-6.88916 c 0.56381,-0.21435 1.14327,-0.69765 1.28768,-1.07397 0.14437,-0.37634 0.45885,-7.371 0.69875,-15.5437 0.23991,-8.1727 0.62094,-16.85377 0.84671,-19.29127 0.49526,-5.34664 0.21192,-6.61131 -2.30495,-10.28758 -1.01007,-1.47533 -1.90507,-3.03854 -1.98888,-3.47376 -0.11438,-0.59429 -0.67519,-0.86611 -2.2521,-1.09166 -1.15484,-0.16521 -2.51674,-0.40502 -3.02644,-0.53296 -0.68046,-0.17077 -0.99877,-0.006 -1.19778,0.62137 -0.149,0.46967 -1.30615,2.03701 -2.57127,3.48298 -1.26513,1.44595 -2.47929,3.29379 -2.69813,4.10628 -0.21884,0.81251 -0.60406,7.55519 -0.85603,14.98376 -0.25199,7.42858 -0.63378,15.83244 -0.84843,18.67528 -0.22063,2.92174 -0.23213,5.58237 -0.0265,6.12013 0.53402,1.39633 1.84206,2.42304 3.9086,3.0679 2.10266,0.65616 9.50793,0.81542 11.02875,0.2372 z m -25.45701,-6.73966 c 0.57688,-0.16061 1.27975,-0.75896 1.56195,-1.32968 0.34508,-0.69789 0.66195,-6.01309 0.96771,-16.23247 0.25004,-8.35714 0.63276,-17.1891 0.85048,-19.6266 0.38323,-4.29039 0.36148,-4.50288 -0.68113,-6.6585 -0.59233,-1.22468 -1.55168,-2.79085 -2.13188,-3.48037 -0.58021,-0.68953 -1.1928,-1.76926 -1.36132,-2.39939 -0.27208,-1.01731 -0.61096,-1.20296 -3.02403,-1.65661 -2.38432,-0.44823 -2.7694,-0.42877 -3.1397,0.15873 -0.23215,0.3683 -1.27945,1.6353 -2.32734,2.81555 -2.63528,2.96817 -3.84667,5.05215 -3.88017,6.67518 -0.0413,1.999 -0.65413,15.84171 -1.21518,27.44715 -0.36734,7.59823 -0.36621,10.31476 0.005,11.21014 0.56444,1.36269 2.19448,2.43851 4.52389,2.98578 1.9181,0.45064 8.34715,0.51008 9.85205,0.0911 z m 49.61398,-40.60786 c 0.39531,-1.24551 -0.10129,-1.57436 -2.8682,-1.89957 -2.41344,-0.28365 -2.42126,-0.28092 -2.42126,0.84234 0,1.29947 1.03778,1.87553 3.45369,1.91712 1.22163,0.0211 1.61459,-0.16305 1.83577,-0.85989 z m -26.05218,-6.99108 c 0.14724,-1.0338 -0.40901,-1.28546 -3.28664,-1.48679 -1.5904,-0.11119 -1.91572,-0.003 -2.05076,0.68401 -0.24023,1.22176 1.12762,1.98273 3.30792,1.84029 1.57879,-0.10322 1.92131,-0.27825 2.02948,-1.03751 z m -24.46554,-7.093 c 0.2137,-1.0837 -0.30709,-1.38667 -2.93323,-1.70639 -1.99006,-0.24227 -2.40901,-0.17607 -2.63647,0.41666 -0.473,1.23264 0.45225,2.27064 2.15475,2.41732 2.0563,0.17717 3.23437,-0.21181 3.41495,-1.12759 z m 58.10163,-39.52473 c -6.26785,-1.14673 -17.66395,-3.21349 -25.32467,-4.59281 -7.6607,-1.37933 -19.81654,-3.56876 -27.01297,-4.86543 -19.10418,-3.44221 -30.02108,-5.61201 -31.64089,-6.28882 -2.72405,-1.13818 -2.72734,-1.1586 -2.45168,-15.20828 0.24462,-12.46685 0.26151,-12.65584 1.21769,-13.612 0.5983,-0.59832 1.47543,-0.96965 2.29039,-0.96965 1.56502,0 14.28703,2.10631 31.85072,5.27334 6.96429,1.25579 19.40503,3.43004 27.6461,4.83168 21.72994,3.69583 37.63059,6.68289 38.76164,7.28163 2.04737,1.08385 2.18007,1.97143 2.17754,14.56479 -10e-4,6.80759 -0.18631,12.39602 -0.44055,13.31144 -0.84875,3.05619 -1.78475,3.07122 -17.07332,0.27411 z m 11.93726,-12.40388 c 0.0656,-5.33929 0.016,-10.12966 -0.11055,-10.64528 -0.12619,-0.51562 -0.56185,-1.11532 -0.96796,-1.33266 -0.70389,-0.3767 -11.52129,-2.40091 -35.12827,-6.57336 -10.70582,-1.89221 -39.46216,-7.16116 -50.99345,-9.34337 -5.17202,-0.97877 -6.12531,-1.05841 -6.61955,-0.55295 -0.44565,0.45575 -0.60792,2.77743 -0.71109,10.17452 -0.11773,8.43696 -0.0507,9.66734 0.55908,10.27996 0.48779,0.49002 5.60794,1.60709 17.30519,3.77552 9.13684,1.69378 20.12623,3.76283 24.42086,4.59785 4.29465,0.83503 12.93669,2.453 19.20455,3.59548 16.2065,2.95404 29.4887,5.53464 29.73038,5.77632 0.11374,0.1139 0.87852,0.15043 1.69933,0.0814 l 1.49234,-0.12555 z M 90.077708,354.07687 c 15.003972,-0.7905 54.917792,-3.3367 86.314902,-5.50623 3.25,-0.22458 11.77708,-0.77014 18.94906,-1.21236 9.6585,-0.59552 13.13191,-0.94903 13.39451,-1.36322 0.54498,-0.85959 0.4326,-3.99175 -0.16014,-4.46276 -0.53756,-0.42718 -2.04443,-0.35579 -20.36526,0.96471 -22.3617,1.61175 -70.8592,4.89908 -86.52594,5.86502 -9.517843,0.58683 -19.157042,1.18617 -21.420438,1.33183 l -4.11526,0.26488 v 2.20555 c 0,1.21305 0.137224,2.34276 0.304927,2.51047 0.167709,0.16771 1.449771,0.19936 2.849024,0.0704 1.399255,-0.12906 6.247824,-0.42972 10.774615,-0.66822 z m -5.487006,-9.04891 c 2.669642,-0.13575 8.557616,-0.5219 13.084406,-0.85816 11.491032,-0.85358 43.629082,-2.99521 66.477242,-4.42995 3.7143,-0.23322 15.1104,-1.01037 25.32467,-1.72695 21.17301,-1.48541 20.04785,-1.20048 20.3762,-5.15987 0.10449,-1.26065 0.0204,-2.39692 -0.18685,-2.52505 -0.20732,-0.1281 -10.1529,0.4122 -22.10131,1.20072 -11.94843,0.78853 -29.79663,1.91821 -39.66269,2.51042 -9.86608,0.59219 -23.06655,1.43829 -29.33442,1.88021 -11.65696,0.82188 -20.185379,1.39095 -33.977248,2.26719 l -7.808443,0.4961 -0.126982,2.9445 c -0.138277,3.20641 0.422645,4.18151 2.200095,3.82461 0.484787,-0.0973 3.065682,-0.28804 5.73533,-0.42377 z m 135.909038,0.24609 c 0,-0.20507 -0.33238,-0.47126 -0.73863,-0.59151 -0.40627,-0.12028 -2.33485,-0.80718 -4.28575,-1.5265 -1.9509,-0.71931 -3.7078,-1.30785 -3.90421,-1.30785 -0.49971,0 -0.44619,1.99945 0.0798,2.9823 0.38711,0.7233 0.91656,0.8164 4.64285,0.8164 2.31326,0 4.20594,-0.16777 4.20594,-0.37284 z m -2.75988,-5.64176 c 0.0925,-0.29018 0.27555,-27.78328 0.40677,-61.09577 0.42769,-108.57657 0.66091,-162.79155 0.89352,-207.704237 l 0.22866,-44.149118 -1.24219,-1.329757 c -0.6832,-0.731376 -1.43216,-1.329772 -1.66433,-1.329772 -0.74809,0 -0.90382,8.454722 -1.13512,61.623362 -0.21488,49.396932 -0.53398,89.128402 -1.48716,185.170052 -0.22858,23.03106 -0.41559,47.77925 -0.41559,54.99601 v 13.12133 l 1.37175,0.59623 c 1.71929,0.74728 2.82611,0.78424 3.04369,0.10162 z M 94.362657,333.00443 c 6.348633,-0.45335 19.235343,-1.31176 28.637113,-1.90757 9.40178,-0.59581 21.08279,-1.35777 25.95778,-1.69325 4.875,-0.33548 12.37744,-0.81604 16.67207,-1.06791 4.29465,-0.25188 11.60715,-0.72567 16.25,-1.0529 4.64286,-0.32722 12.33522,-0.82054 17.09416,-1.09624 4.75891,-0.27571 8.89,-0.6866 9.18018,-0.91306 0.70459,-0.54992 0.77197,-33.66144 0.0699,-34.36348 -0.41035,-0.41035 -2.07479,-0.29654 -2.07479,0.14182 0,0.0971 0.2964,0.62902 0.65866,1.18191 0.57235,0.87349 0.6397,2.93198 0.51404,15.70754 -0.0796,8.08627 -0.3019,15.03633 -0.49416,15.44459 -0.45415,0.96431 -0.69872,1.00121 -10.38633,1.56659 -14.27099,0.83286 -27.55045,1.65764 -44.10712,2.73946 -8.82144,0.57639 -17.9383,1.15296 -20.25973,1.28126 -2.32143,0.12826 -7.92453,0.50744 -12.4513,0.84254 -4.52679,0.3351 -12.9789,0.91028 -18.78247,1.2782 -12.257453,0.77704 -19.613778,1.41074 -20.138017,1.73474 -0.203428,0.12571 -0.837465,-0.0779 -1.40897,-0.45226 l -1.039103,-0.68083 0.08485,-16.48135 c 0.05555,-10.7899 0.242332,-16.79836 0.540893,-17.39936 0.409352,-0.82403 0.887104,-0.94206 4.666004,-1.15284 l 4.20994,-0.23482 -4.642861,-0.0753 c -2.553564,-0.0415 -4.922311,0.10146 -5.263877,0.31746 -0.526949,0.33326 -0.645742,3.17762 -0.784154,18.776 l -0.163126,18.38325 h 2.95872 c 1.627297,0 8.15306,-0.37093 14.501678,-0.82428 z m -1.752483,-2.75336 c 15.952836,-1.14325 15.259586,-1.06071 14.583976,-1.73634 -1.05398,-1.05396 -1.18274,-2.30812 -0.43734,-4.25992 0.43753,-1.14563 0.57066,-2.04647 0.33697,-2.28014 -0.23369,-0.23369 -1.87872,-0.0563 -4.16386,0.44876 -2.07764,0.45929 -4.204895,0.83918 -4.727214,0.84421 -1.364836,0.0128 -1.17106,-0.71933 0.274288,-1.03677 0.673182,-0.14788 1.955256,-0.91697 2.849026,-1.70914 2.2462,-1.9908 1.53295,-2.43403 -3.356364,-2.08569 -2.619169,0.1866 -3.895485,0.11502 -4.326299,-0.24248 -1.253264,-1.0401 -0.443736,-4.08404 1.408961,-5.29798 1.346235,-0.88208 0.72742,-1.30538 -2.438506,-1.66805 -5.016869,-0.57467 -6.695715,-1.49912 -5.145622,-2.83338 0.390598,-0.3362 1.824174,-0.82691 3.18574,-1.09046 1.361565,-0.26357 3.070976,-0.83665 3.7987,-1.27351 0.727723,-0.43688 1.838467,-0.91555 2.468305,-1.06372 l 1.145186,-0.26939 -1.03966,-1.53203 c -1.127031,-1.66077 -1.281212,-2.83434 -0.605782,-4.61088 0.23865,-0.62767 0.364819,-1.21029 0.280382,-1.29471 -0.370689,-0.37069 -15.73837,0.83914 -16.176207,1.27348 -0.523352,0.51917 -1.149829,32.04981 -0.646788,32.55284 0.151501,0.15155 1.036415,0.17202 1.966454,0.0456 0.930048,-0.12651 5.774581,-0.52259 10.765654,-0.88026 z m 20.270586,-3.12151 c 2.27524,-2.27525 2.0777,-4.285 -0.48281,-4.912 -0.88363,-0.21638 -1.28949,-0.0362 -2.02541,0.89942 -1.22391,1.55595 -1.06916,3.69051 0.28146,3.88233 1.0341,0.14692 1.26309,0.72351 0.42208,1.06287 -0.40107,0.16182 -0.39328,0.22088 0.0325,0.24621 0.30804,0.0183 1.10554,-0.51216 1.77221,-1.17883 z m 14.44531,0.72211 c 4.35267,-0.27654 7.9116,-0.61178 7.90873,-0.745 -0.0112,-0.47837 -2.95541,-2.14158 -3.79216,-2.14158 -0.95397,0 -4.52695,-1.57927 -4.8855,-2.15941 -0.29585,-0.4787 1.76244,-0.48666 2.69603,-0.0112 0.39098,0.19944 1.37565,0.47936 2.18817,0.62204 l 1.47727,0.2594 -1.89936,-1.73159 c -2.03272,-1.85317 -4.48059,-3.08207 -7.47674,-3.75352 -2.28614,-0.51233 -4.48124,0.36047 -5.40648,2.14969 -0.58303,1.12748 -0.5348,1.25768 1.28482,3.46795 1.8795,2.28302 2.3908,3.68833 1.34192,3.68833 -0.3018,0 -0.74314,-0.19443 -0.98077,-0.43206 -0.29467,-0.29468 -0.67781,-0.16048 -1.20502,0.42209 -0.95449,1.0547 -1.65975,1.02535 8.74909,0.36408 z m 27.75161,-1.61043 c 8.04276,-0.66077 27.96885,-2.04352 36.50973,-2.53357 12.4926,-0.71676 13.24269,-0.80988 13.72085,-1.70333 0.25304,-0.47283 0.41876,-6.37673 0.41876,-14.91967 0,-16.05244 0.12538,-15.46497 -3.30126,-15.46205 -1.08609,9.1e-4 -9.95199,0.3817 -19.70198,0.84619 -25.13775,1.19754 -56.75104,2.47727 -62.15095,2.51592 -0.98661,0.006 -1.79383,0.20277 -1.79383,0.43492 0,0.23214 0.2518,0.42207 0.55954,0.42207 0.30775,0 1.02,0.49331 1.58279,1.09627 0.56279,0.60295 1.70072,1.44377 2.52875,1.86849 0.82804,0.42474 1.74537,1.06125 2.03853,1.41448 0.46816,0.5641 0.74714,0.4864 2.29318,-0.63872 1.56475,-1.13873 1.98279,-1.25186 3.76506,-1.01892 1.62669,0.2126 2.00486,0.14118 2.00486,-0.37897 0,-0.35255 0.52232,-1.20116 1.16073,-1.88578 1.13828,-1.22072 1.21847,-1.23902 4.14865,-0.94661 1.73482,0.17312 3.48293,0.6225 4.16816,1.07147 1.1189,0.73313 1.16631,0.89157 0.91258,3.05033 l -0.26762,2.27705 h 2.10741 c 1.72702,0 2.35364,0.21999 3.47142,1.21873 1.12577,1.00587 1.27309,1.32826 0.84354,1.84585 -0.69606,0.83868 -0.24262,1.93573 1.4609,3.53454 1.15562,1.08459 1.40982,1.63635 1.40982,3.06007 0,1.95079 0.21217,2.02564 3.78693,1.33598 1.69882,-0.32775 1.98172,-0.2626 2.82886,0.6515 0.85832,0.92612 1.27219,1.01567 4.69473,1.01567 3.21388,0 3.86295,-0.12108 4.51525,-0.8418 1.014,-1.12046 3.38365,-1.73362 5.43323,-1.40587 l 1.66449,0.26615 -0.26923,-1.43619 c -0.25487,-1.3596 -0.23445,-1.39117 0.38315,-0.59205 0.35882,0.4643 0.5812,1.34669 0.49418,1.96087 -0.20335,1.43543 1.68015,2.69313 3.40188,2.2716 1.80101,-0.44094 3.87213,-2.03242 3.87532,-2.97783 0.003,-0.91765 -1.02451,-2.61895 -2.08814,-3.45711 -0.94462,-0.74439 -4.44267,-0.68103 -5.0843,0.0921 -0.69502,0.83744 -1.13297,0.7992 -2.41729,-0.21104 -0.64367,-0.5063 -1.71228,-0.84416 -2.67004,-0.84416 -2.33668,0 -2.93214,-0.34903 -2.93214,-1.71862 0,-1.3563 -0.97014,-2.08008 -2.78805,-2.08008 -1.25213,0 -2.69898,1.05325 -2.69898,1.96476 0,0.31224 -0.36529,0.56771 -0.81176,0.56771 -0.44648,0 -1.38128,0.4792 -2.07734,1.06489 l -1.26556,1.06492 -1.53701,-1.04305 c -1.68482,-1.14335 -4.61378,-1.75232 -6.43765,-1.33848 l -1.16612,0.26461 0.91941,-0.78823 c 0.50702,-0.43468 1.91517,-0.90616 3.13948,-1.05115 1.95216,-0.23122 2.38955,-0.13368 3.62438,0.80817 1.67534,1.27785 2.59615,1.10735 4.82689,-0.89379 1.947,-1.74659 2.79932,-2.00734 4.96852,-1.51994 0.96133,0.216 2.17028,0.28249 2.68654,0.14772 0.8941,-0.23334 0.9036,-0.20984 0.20004,0.49463 -1.44011,1.44195 -0.64247,2.68443 1.83024,2.85095 1.67706,0.11295 2.64507,-0.33037 2.35753,-1.0797 -0.10784,-0.281 0.15991,-0.97404 0.59496,-1.54009 0.43506,-0.56604 0.79525,-1.20685 0.80041,-1.42403 0.0231,-0.97609 1.90709,-2.34863 3.22362,-2.34863 2.06849,0 2.07612,0.6485 0.0243,2.06024 -1.0141,0.69773 -2.18274,1.78584 -2.59698,2.41804 -0.71107,1.08523 -0.71258,1.1791 -0.0271,1.68037 1.34206,0.98133 5.64261,-0.98739 8.96257,-4.10291 1.34747,-1.26448 2.57548,-2.05574 3.19043,-2.05574 2.58966,0 3.53131,2.67617 1.8259,5.1892 -0.59776,0.88084 -1.08683,1.78303 -1.08683,2.00487 0,0.22182 -0.35337,0.40333 -0.78525,0.40333 -0.43188,0 -1.71394,0.12172 -2.84903,0.27049 -2.55445,0.33483 -2.15176,-0.2516 0.7708,-1.12245 2.57281,-0.76663 3.95744,-2.31603 3.54354,-3.9652 -0.21587,-0.86007 -0.53362,-1.09194 -1.49638,-1.09194 -0.92511,0 -1.64158,0.4763 -2.94652,1.95879 -0.9483,1.07732 -1.72418,2.20572 -1.72418,2.50754 0,0.30184 -0.21747,0.6832 -0.48327,0.84747 -0.3298,0.20384 -0.41997,-0.0326 -0.28391,-0.74427 l 0.19938,-1.04294 -1.60063,0.87469 -1.60063,0.87469 1.30843,0.44342 c 2.59059,0.8779 4.18714,4.482 2.88865,6.52088 -0.33918,0.53257 0.0472,0.67322 2.43342,0.88573 2.79539,0.24894 2.85654,0.23216 4.20838,-1.15452 1.65713,-1.69989 1.69534,-2.23642 0.27902,-3.9196 -1.25175,-1.48764 -0.81377,-1.7127 0.82476,-0.42383 1.23472,0.97122 1.3881,2.17776 0.479,3.76805 -0.68067,1.19072 -0.78134,1.71173 -0.31657,1.63833 1.72157,-0.27181 2.92241,0.22332 4.59288,1.89381 1.40814,1.40813 1.84382,2.16268 1.84382,3.19333 0,1.82389 -0.68698,2.98233 -1.76858,2.98233 -0.84006,0 -0.85204,-0.0472 -0.19619,-0.77188 0.38419,-0.42453 0.69853,-1.31176 0.69853,-1.97162 0,-1.60994 -1.1106,-2.74126 -2.7034,-2.75383 -0.71848,-0.006 -2.16104,-0.21206 -3.20569,-0.45863 -2.09672,-0.4949 -2.6647,-0.59615 -5.58269,-0.99527 -1.09727,-0.15011 -2.09585,-0.436 -2.21906,-0.63537 -0.12316,-0.19936 -1.00123,-0.0571 -1.95114,0.31594 -1.54898,0.60844 -1.65148,0.73374 -0.99374,1.21467 0.53842,0.39371 0.95649,0.41686 1.57262,0.0871 0.60012,-0.32117 1.1385,-0.31279 1.88955,0.0294 0.57766,0.2632 1.45583,0.36526 1.95147,0.22681 0.71615,-0.20004 0.77118,-0.16072 0.26805,0.19153 -0.5573,0.39018 -0.55364,0.44404 0.0305,0.44973 0.36498,0.003 1.88446,0.85913 3.37662,1.90126 1.49215,1.04213 3.00909,1.89685 3.37096,1.89936 0.36188,0.003 1.02666,0.29046 1.47727,0.63993 0.7583,0.58806 0.64644,0.63531 -1.50211,0.63448 -1.27679,-4.9e-4 -3.53503,0.11821 -5.01832,0.26376 -3.55467,0.34884 -3.14163,-0.49231 0.44624,-0.90874 l 2.60475,-0.3023 -1.0212,-0.79199 c -1.85918,-1.44186 -5.17592,-2.90723 -6.58025,-2.90723 -1.0827,0 -2.02341,0.5507 -4.326,2.53247 -2.95666,2.54472 -4.15862,3.14698 -3.65348,1.83064 0.37696,-0.98235 -1.67566,-3.06797 -2.74435,-2.78849 -0.55698,0.14564 -0.81128,-0.005 -0.81128,-0.48064 0,-0.96734 -1.71627,-1.51605 -4.74206,-1.51605 h -2.57672 l -2.84178,2.7435 c -2.96094,2.85856 -3.79613,3.18353 -5.3624,2.08645 -1.48814,-1.04232 -1.14493,-1.53607 0.85885,-1.23558 1.7551,0.26318 1.84924,0.21465 4.04359,-2.08454 l 2.24666,-2.35399 h 3.41777 c 3.32243,0 9.59895,-1.1355 9.59895,-1.73656 0,-0.33944 -3.41182,-2.06214 -4.08411,-2.06214 -0.24253,0 -1.12693,0.46553 -1.96535,1.03449 -1.43072,0.97091 -5.23821,1.93744 -7.93424,2.01409 -1.05936,0.0301 -1.16875,0.15857 -0.9633,1.13068 0.22414,1.06055 0.21055,1.06887 -0.41226,0.25257 -1.26286,-1.65526 -3.01516,-3.19185 -3.90164,-3.42136 -0.49528,-0.12826 -1.61566,-0.0357 -2.48974,0.20567 -0.87409,0.24135 -2.39498,0.32837 -3.37976,0.1934 -1.31707,-0.18054 -2.13746,-0.0405 -3.10277,0.52976 -0.72176,0.42635 -1.31227,0.90609 -1.31227,1.0661 0,0.33084 2.3231,0.13639 6.33117,-0.52987 4.17189,-0.69352 5.49093,-0.28606 1.89934,0.58674 -3.18153,0.77314 -8.69993,1.16471 -16.96498,1.20376 -2.85675,0.0128 -5.1941,0.18074 -5.1941,0.37163 0,0.64871 3.7321,2.53767 5.01379,2.53767 2.31668,0 5.73371,0.92226 6.69886,1.80804 1.13437,1.04107 1.25604,3.06294 0.25114,4.17333 -0.67036,0.74074 -0.58099,0.7716 2.21592,0.76518 1.60294,-0.003 5.09869,-0.18613 7.76833,-0.40546 z m -8.57078,-2.81231 c -0.56403,-0.56403 0.24125,-0.99631 1.856,-0.99631 0.92233,0 2.35883,-0.2849 3.19222,-0.63313 2.02176,-0.84473 3.39242,-0.86033 2.70394,-0.0308 -1.0641,1.28215 -6.88383,2.52852 -7.75216,1.66019 z m 11.02288,-13.72032 -1.13557,-1.25578 1.09299,0.13113 c 1.25478,0.15059 2.23028,1.36645 1.59074,1.98279 -0.26202,0.25251 -0.82703,-0.0606 -1.54816,-0.85814 z m -39.6014,16.20615 c -0.003,-0.17411 -0.19349,-0.60146 -0.42209,-0.94967 -0.36169,-0.55099 -0.46675,-0.55361 -0.80983,-0.0201 -0.21683,0.33712 -0.30059,0.76447 -0.18613,0.94967 0.26364,0.4266 1.42668,0.44313 1.41805,0.0201 z m 24.42868,-0.99398 c 1.21001,-0.75217 2.02128,-1.53702 1.90417,-1.84216 -0.35933,-0.93643 -2.38867,-1.61252 -5.85562,-1.95082 -4.25539,-0.41525 -6.1603,-0.78894 -6.96427,-1.3662 -0.34823,-0.25002 0.12522,0.35142 1.05218,1.33651 1.16559,1.23876 1.5286,1.88793 1.1772,2.10511 -0.61964,0.38297 4.30211,3.01208 5.65652,3.02161 0.50691,0.003 1.87032,-0.58325 3.02982,-1.30405 z m -5.74748,-1.45032 c -1.0645,-0.74559 -1.2436,-1.45991 -0.36603,-1.45991 0.71984,0 1.66064,1.08217 1.46114,1.68069 -0.0913,0.27367 -0.50964,0.18931 -1.09511,-0.22078 z m -21.62928,-2.51511 c -0.57986,-0.69869 -1.68832,-0.85756 -1.68832,-0.24199 0,0.34603 0.74591,0.67993 1.84552,0.82614 0.20253,0.027 0.13177,-0.23594 -0.15713,-0.58415 z m -7.0698,-1.22075 c 1.33481,-0.3862 2.42694,-0.91319 2.42694,-1.1711 0,-0.67252 -5.08403,-0.15553 -5.53974,0.56335 -0.53453,0.84321 -0.44101,1.73479 0.15825,1.50886 0.29017,-0.10944 1.61972,-0.5149 2.95455,-0.90111 z m 71.19323,-0.92717 c 0.71424,-0.60099 1.29862,-1.24718 1.29862,-1.43598 0,-0.7725 -2.72857,-1.24266 -5.73631,-0.9884 -3.13272,0.26481 -4.14492,0.81147 -1.9666,1.06212 0.77149,0.0888 1.12539,0.35394 1.05537,0.79078 -0.11071,0.69122 1.53338,1.541 3.13302,1.6193 0.5045,0.0247 1.50166,-0.44682 2.2159,-1.04782 z m -62.6288,0.22048 c 0.45426,-0.73503 -0.0632,-0.89069 -0.64201,-0.19315 -0.33292,0.40113 -0.36493,0.64332 -0.085,0.64332 0.24687,0 0.57405,-0.20258 0.72707,-0.45017 z m 14.96641,-0.36336 c 0,-0.51911 -2.08229,-2.14103 -2.74876,-2.14103 -0.9293,0 -1.51464,-1.04983 -0.93438,-1.67586 0.41505,-0.44779 0.39757,-0.48979 -0.0884,-0.2121 -0.92689,0.5297 -5.18614,0.21654 -6.23086,-0.45811 -0.54385,-0.35121 -1.02966,-0.43407 -1.17415,-0.20024 -0.40472,0.65484 1.58988,1.67866 3.81755,1.95953 1.14563,0.14453 2.74775,0.69303 3.56024,1.21906 2.9101,1.88411 3.7987,2.23704 3.7987,1.50875 z m -15.912,-1.0779 c 1.08792,-0.45457 1.54076,-0.49177 1.65924,-0.13639 0.0898,0.26953 0.3957,0.34503 0.68169,0.16829 0.72199,-0.44622 -1.39624,-2.55508 -3.41269,-3.3976 -2.20212,-0.92011 -3.58096,-0.84177 -3.91879,0.22263 -0.19525,0.61523 -0.4854,0.78669 -0.97811,0.57803 -0.38529,-0.16316 -1.65018,-0.38337 -2.8109,-0.48935 -1.75982,-0.16067 -2.27501,-0.0372 -3.10147,0.74323 -1.32015,1.24666 -0.61975,1.6318 2.1665,1.19135 2.31261,-0.36556 4.89405,0.0997 6.39811,1.15318 1.06276,0.7444 1.46447,0.74034 3.31642,-0.0335 z m 5.66781,-1.31813 c -0.14022,-0.14022 -0.50429,-0.15522 -0.80898,-0.0333 -0.33671,0.1348 -0.23669,0.23476 0.255,0.255 0.44495,0.0183 0.69424,-0.0813 0.55398,-0.22167 z m 22.90652,-0.6143 c 1.04464,-0.23463 2.44213,-0.82061 3.10555,-1.30217 0.6634,-0.48158 1.96186,-0.97695 2.88546,-1.10084 1.97295,-0.26462 2.31901,-0.85317 1.46599,-2.49316 -1.70807,-3.28385 -6.31548,-5.34803 -8.66379,-3.88149 -0.62367,0.38949 -1.01227,0.30619 -2.00885,-0.43061 -0.68717,-0.50806 -2.189,-1.02643 -3.38359,-1.16792 -1.8207,-0.21563 -2.43023,-0.0893 -4.00004,0.82853 -1.4918,0.87228 -2.20094,1.03577 -3.64586,0.84048 -0.98662,-0.13337 -1.79383,-0.12523 -1.79383,0.018 0,0.14326 1.10634,0.81902 2.45854,1.50161 1.3522,0.68258 2.97632,1.91989 3.60914,2.74959 0.82361,1.07979 1.47767,1.5085 2.30144,1.5085 1.59543,0 3.15246,-1.16288 2.89176,-2.15975 -0.27964,-1.06941 0.64552,-1.01913 1.64892,0.0897 0.78879,0.8716 0.786,0.89607 -0.19238,1.68832 -0.54601,0.44214 -1.23073,0.8039 -1.52156,0.8039 -0.72785,0 -2.79463,2.12574 -2.51177,2.58342 0.30959,0.50094 5.00185,0.45238 7.35487,-0.0761 z m 50.64932,0.0252 c 0,-0.23216 -0.55427,-0.42209 -1.23171,-0.42209 -0.67745,0 -1.57963,-0.12284 -2.00487,-0.27316 -0.53606,-0.18939 -0.64372,-0.13559 -0.35107,0.17531 0.37436,0.39776 1.45242,0.70939 3.06005,0.88453 0.29019,0.0316 0.5276,-0.1324 0.5276,-0.36459 z m -94.35424,-0.91196 c 0.59128,-0.26941 1.07506,-0.65897 1.07506,-0.8657 0,-0.63536 2.82754,-1.59828 4.73481,-1.61245 1.68087,-0.0128 1.75004,-0.0568 0.98808,-0.63311 -1.20218,-0.90928 -3.61845,-0.75728 -6.21487,0.39098 -2.449608,1.08334 -3.545516,2.06018 -3.107108,2.76954 0.35488,0.57421 1.19148,0.55789 2.524028,-0.0493 z m 17.41121,-1.75928 c -0.64646,-1.68462 -7.89459,-3.36821 -7.89459,-1.83373 0,0.38377 0.40374,0.50075 1.28287,0.37173 0.78394,-0.11502 1.56368,0.0606 2.00487,0.45179 0.74265,0.65841 4.39681,2.03334 4.67835,1.7603 0.0868,-0.0841 0.0546,-0.42163 -0.0715,-0.75009 z m 15.86425,0.45527 c 0.79251,-0.59232 0.56903,-1.09186 -0.95504,-2.13485 -1.40699,-0.96286 -1.57155,-0.92049 -2.362,0.60808 -0.56435,1.09134 -0.58468,1.38503 -0.1163,1.68184 0.83589,0.52976 2.62525,0.44894 3.43341,-0.15506 z m -5.56145,-1.6605 c 0.90215,-0.50704 1.64025,-1.06718 1.64025,-1.24476 0,-0.17759 -0.67278,-0.83603 -1.49505,-1.46322 -2.06265,-1.57325 -5.22547,-1.88988 -6.46785,-0.6475 -0.74163,0.74164 -0.81423,1.07324 -0.44667,2.04003 0.24141,0.63496 0.64113,1.3981 0.88827,1.69588 0.72046,0.86811 4.04186,0.65325 5.88105,-0.38043 z m -8.55285,-0.76644 c -0.24278,-0.69643 -0.61277,-1.26624 -0.82221,-1.26624 -0.55898,0 -0.46644,0.53403 0.27627,1.5944 0.89738,1.28118 1.07065,1.17702 0.54594,-0.32816 z m -4.03231,-1.46401 c -0.41709,-0.57307 -0.912,-1.0479 -1.09981,-1.0552 -0.18781,-0.008 -0.20413,-0.23548 -0.0362,-0.50707 0.20806,-0.33666 0.0707,-0.40382 -0.4317,-0.21104 -0.40527,0.15554 -0.91127,0.28278 -1.12443,0.28278 -0.55706,0 -0.47825,1.16034 0.10322,1.5197 0.26991,0.16682 1.07713,0.4435 1.79383,0.61483 0.71668,0.17133 1.35942,0.33097 1.42829,0.35472 0.0689,0.0238 -0.21603,-0.42566 -0.63311,-0.99872 z m -11.57,0.11294 c 2.7842,-0.50541 4.29264,-1.48016 3.2838,-2.12199 -0.78657,-0.5004 -10.743143,-0.38969 -11.059993,0.12299 -0.406933,0.65844 0.986075,2.00958 2.276221,2.2078 2.092222,0.32146 2.707672,0.29811 5.499972,-0.20878 z m 6.80191,-1.18145 c 0.49591,-0.69642 0.71171,-1.26623 0.47957,-1.26623 -0.23214,0 -0.82781,0.56981 -1.32371,1.26623 -0.4959,0.69643 -0.71171,1.26624 -0.47957,1.26624 0.23214,0 0.82781,-0.56981 1.32371,-1.26624 z m -19.732131,0.56463 c -0.290177,-0.11709 -0.765005,-0.11709 -1.055181,0 -0.290193,0.11709 -0.0528,0.21288 0.527582,0.21288 0.58037,0 0.817776,-0.0959 0.527599,-0.21288 z m 2.849029,-1.40879 c 0,-0.23214 -0.201146,-0.42207 -0.446991,-0.42207 -0.245844,0 -0.329595,0.18993 -0.186118,0.42207 0.143413,0.23214 0.344607,0.42209 0.446974,0.42209 0.102416,0 0.186135,-0.18995 0.186135,-0.42209 z m 82.938272,-0.84414 c -0.14341,-0.23214 -0.62952,-0.42209 -1.08009,-0.42209 -0.45058,0 -0.81925,0.18995 -0.81925,0.42209 0,0.23214 0.48604,0.42207 1.0801,0.42207 0.61259,0 0.9672,-0.18269 0.81924,-0.42207 z m -50.44531,-1.89936 c 0.11214,-0.23214 -0.48126,-0.80195 -1.3188,-1.26623 -1.51772,-0.84136 -2.71922,-1.68027 -4.98712,-3.48214 -0.6574,-0.52232 -1.4009,-0.94967 -1.65222,-0.94967 -0.75853,0 -1.65795,1.7707 -2.06837,4.07211 l -0.38749,2.17278 5.10499,-0.0624 c 2.92141,-0.0357 5.19225,-0.24293 5.30901,-0.48446 z m 21.533,0.29546 c 0,-1.16894 -2.46141,-1.78305 -3.78688,-0.94482 -0.547,0.34593 -0.547,0.41869 0,0.60851 0.3417,0.11852 1.1911,0.29027 1.88752,0.38155 0.69643,0.0913 1.40869,0.1944 1.5828,0.22917 0.1741,0.0348 0.31656,-0.0887 0.31656,-0.27441 z m -45.13215,-0.75424 c -1.02803,-0.32251 -1.95779,-0.49775 -2.06614,-0.3894 -0.31063,0.31061 1.71465,1.00732 2.88012,0.99078 0.75716,-0.0112 0.52727,-0.1806 -0.81398,-0.60138 z m 9.60178,-1.8421 c 0.1888,-1.90705 -0.88264,-2.97504 -2.98469,-2.97504 -0.9149,0 -2.70297,-0.30221 -3.97349,-0.67156 -1.27054,-0.36935 -2.78837,-0.55149 -3.37298,-0.40476 l -1.0629,0.26677 1.14905,1.50648 1.14906,1.5065 -1.00664,-0.31103 c -0.55365,-0.17107 -1.51953,-0.57187 -2.1464,-0.89068 -0.626855,-0.31881 -1.33912,-0.57965 -1.58278,-0.57965 -0.802126,0 -0.461906,1.23501 0.506637,1.83912 1.157103,0.72171 5.121243,1.29669 4.745233,0.68826 -0.40257,-0.65134 1.64568,-0.48919 2.56044,0.20271 1.0544,0.7975 1.45244,0.80117 1.45244,0.0128 0,-0.97567 0.68077,-0.7548 1.76173,0.5716 1.28413,1.57572 2.60949,1.21566 2.80529,-0.76214 z m 19.78171,0.72812 c 0.35302,-0.79115 0.25551,-1.0247 -0.61687,-1.47729 -1.47832,-0.76696 -2.2059,-0.66584 -2.2059,0.30659 0,0.46898 0.28139,0.84417 0.63311,0.84417 0.34823,0 0.61063,0.14245 0.58315,0.31654 -0.20278,1.28423 1.0345,1.29192 1.60651,0.01 z m -4.089,-0.32653 c 0,-0.23215 -0.0795,-0.42209 -0.17652,-0.42209 -0.0971,0 -0.47912,-0.11614 -0.84894,-0.25804 -0.49217,-0.18886 -0.60247,-0.0758 -0.41145,0.42209 0.28338,0.73845 1.43691,0.94559 1.43691,0.25804 z m 8.67509,-1.92299 c 1.197,0.22457 1.89613,0.0562 3.38124,-0.8141 1.02973,-0.60346 1.87224,-1.29162 1.87224,-1.52923 0,-0.85091 -0.8855,-2.06485 -1.50616,-2.06485 -1.12177,0 -4.71534,2.04885 -5.62754,3.2085 -1.02117,1.29822 -1.18377,2.2071 -0.2573,1.43819 0.40257,-0.3341 1.17095,-0.41984 2.13752,-0.23851 z m -28.09066,-4.19714 0.99129,-1.0552 h -2.81708 c -1.54939,0 -2.8161,0.14245 -2.81492,0.31656 0.002,0.2667 2.64241,1.62582 3.40641,1.75328 0.13368,0.0223 0.68907,-0.43429 1.2343,-1.01464 z m 6.45345,0.21103 c 0.12954,-0.49523 0.57573,-0.84416 1.07951,-0.84416 0.47233,0 0.97616,-0.18993 1.11962,-0.42207 0.29381,-0.4754 -4.9496,-0.60776 -5.42052,-0.13687 -0.41859,0.41859 1.43611,2.24721 2.27929,2.24721 0.39675,0 0.82069,-0.37987 0.9421,-0.84416 z m -14.52844,-0.77844 c -0.21694,-0.0799 -0.715218,-0.0222 -1.1073,0.12826 -0.578774,0.22209 -0.604075,0.34081 -0.13448,0.63105 0.343379,0.21222 0.79334,0.16011 1.1073,-0.12826 0.29088,-0.26714 0.35139,-0.55111 0.13448,-0.63105 z m -1.843845,-4.9172 c 15.619075,-0.63071 28.408185,-1.19441 62.467505,-2.75339 9.98215,-0.45691 24.7021,-1.12765 32.71103,-1.49056 8.00893,-0.36289 14.7991,-0.73814 15.08928,-0.83387 0.40915,-0.13496 0.5276,-3.60132 0.5276,-15.43926 v -15.26521 l -5.17046,0.27524 c -2.84375,0.15139 -15.42695,0.64953 -27.96265,1.10697 -12.53572,0.45745 -30.6745,1.12173 -40.30843,1.4762 -9.63392,0.35445 -25.2086,0.92346 -34.61037,1.26446 -9.401779,0.341 -18.631092,0.73273 -20.509564,0.87053 l -3.415413,0.25052 -0.276853,10.41409 c -0.353721,13.30556 -0.352821,20.11809 0.0027,20.47361 0.412072,0.41207 4.07768,0.35239 21.455613,-0.34933 z m -13.928567,-36.35804 3.376628,-0.26293 v -7.28763 c 0,-6.48426 0.08567,-7.38223 0.776665,-8.14585 0.493109,-0.54487 0.678079,-1.16889 0.506621,-1.70914 -0.44171,-1.39167 1.220083,-2.05175 6.640503,-2.63767 3.874331,-0.41879 6.461225,-0.43246 11.740615,-0.0621 7.90475,0.55467 8.63,0.84447 8.95043,3.57653 0.11693,0.99713 0.44148,2.73602 0.72121,3.86424 0.3043,1.2273 0.44704,3.99009 0.35536,6.87805 l -0.15314,4.82676 1.62403,-0.12475 1.62403,-0.12475 0.10513,-4.41405 c 0.0981,-4.11978 0.17299,-4.46338 1.12311,-5.15389 1.51504,-1.10109 7.74682,-1.77352 13.68029,-1.47615 7.87405,0.39462 9.79874,1.3218 9.15316,4.40927 -0.15921,0.76156 -0.2237,2.32851 -0.14325,3.48214 l 0.14628,2.09748 3.86348,-0.005 c 2.12493,-0.003 4.54661,-0.11773 5.38152,-0.25575 l 1.51801,-0.25111 -0.61473,-1.74912 c -0.46216,-1.315 -0.56029,-2.98938 -0.39535,-6.74635 0.18913,-4.30814 0.34105,-5.12673 1.10158,-5.93629 0.51096,-0.54389 0.88221,-1.50078 0.88221,-2.27388 0,-0.92043 0.29482,-1.52598 0.94967,-1.95059 1.36889,-0.88759 10.61484,-1.6368 15.93344,-1.29111 8.33008,0.54145 10.12986,1.22144 10.12986,3.82727 0,0.76282 0.18993,1.50435 0.42208,1.64781 0.23214,0.14341 0.42499,1.34178 0.42854,2.66289 0.003,1.32113 0.14597,2.60993 0.31655,2.86403 0.2115,0.31507 1.24953,0.35695 3.26464,0.13176 2.7142,-0.30341 6.20778,-0.18787 8.5354,0.28228 1.63148,0.32955 2.71399,1.88572 2.62035,3.76691 -0.17344,3.48396 -0.53237,3.25475 4.84919,3.09639 2.65093,-0.078 4.97762,-0.29988 5.17046,-0.49303 0.45085,-0.45163 0.70518,-27.33737 0.26213,-27.71077 -0.1835,-0.15458 -2.80278,-0.14341 -5.82064,0.025 -3.01785,0.16844 -12.03977,0.51992 -20.0487,0.78105 -8.00892,0.26114 -25.95779,0.85624 -39.88636,1.32245 -43.28141,1.4487 -49.995291,1.64048 -57.845746,1.65236 -5.349029,0.008 -7.769382,0.16243 -8.124996,0.51805 -0.373658,0.37365 -0.506493,4.19265 -0.506493,14.56169 v 14.05518 l 2.00487,-0.003 c 1.102678,-0.001 3.524343,-0.12092 5.381491,-0.26547 z m 19.415572,-0.62487 c 7.59643,-0.36157 10.28821,-0.63066 10.76299,-1.07595 0.80726,-0.75714 0.9271,-10.35732 0.13911,-11.14531 -0.37463,-0.37463 -1.4629,-0.37974 -4.50376,-0.0211 -4.93396,0.5819 -13.13427,0.60907 -16.519496,0.0547 -3.572987,-0.58508 -3.725621,-0.35905 -3.770927,5.58407 -0.02983,3.91346 0.100023,4.99533 0.711883,5.9305 0.882734,1.34919 -0.03781,1.30218 13.1802,0.67304 z m 37.1422,-1.60408 c 0.735,-0.17417 1.32761,-0.62196 1.41354,-1.0681 0.12603,-0.65417 -0.0306,-0.72029 -1.05456,-0.4454 -3.09996,0.83222 -4.98504,1.01913 -10.27715,1.01899 -3.68868,-1e-4 -6.25623,-0.19933 -7.28086,-0.56499 -1.25519,-0.44795 -1.58278,-0.45481 -1.58278,-0.0332 0,0.72805 0.84678,1.36232 2.11038,1.58076 1.53256,0.26492 15.17968,-0.13464 16.67143,-0.48809 z m 38.93198,-1.12301 c 1.83083,-0.37254 2.43277,-2.05845 2.42722,-6.79837 -0.006,-5.65613 -0.0541,-5.70473 -4.84883,-4.95866 -4.55233,0.70834 -9.99539,0.74668 -15.5063,0.10912 -2.37668,-0.27493 -4.42422,-0.3969 -4.55009,-0.27104 -0.12586,0.12587 -0.41699,1.34689 -0.64695,2.71339 -0.56041,3.33036 -0.10896,7.48082 0.96186,8.84211 l 0.8406,1.06865 10.18908,-0.25655 c 5.60399,-0.14118 10.61403,-0.34303 11.13341,-0.44871 z m 16.48426,-1.14525 c 1.0325,-0.81918 -0.13384,-1.00233 -4.34418,-0.68221 -2.32143,0.1765 -4.56688,0.22263 -4.98987,0.10257 -1.13394,-0.32193 -2.81858,0.20747 -2.81858,0.88575 0,0.48754 1.00557,0.54962 5.80357,0.35822 3.19198,-0.1273 6.04904,-0.42627 6.34906,-0.6643 z m -62.89332,-1.87564 c -1.09491,-0.0866 -2.99425,-0.0876 -4.22078,-0.002 -1.22654,0.0855 -0.33071,0.15649 1.99072,0.15745 2.32143,0.001 3.32494,-0.0689 2.23006,-0.15554 z m 7.83839,-1.27928 c 0.10976,-0.1775 -3.98011,-0.37748 -9.08847,-0.44442 -6.42455,-0.0842 -9.20326,0.016 -9.01327,0.32272 0.3203,0.51827 17.78409,0.63566 18.10174,0.12172 z m -46.04254,-6.70737 c -0.285774,-0.11566 -0.855567,-0.12268 -1.266234,-0.016 -0.410682,0.10704 -0.176866,0.20163 0.519559,0.21023 0.696424,0.008 1.032433,-0.079 0.746675,-0.19458 z m 15.18676,-1.49312 c 1.33481,-0.24764 2.42694,-0.58273 2.42694,-0.74463 0,-0.1619 -4.74813,-0.27965 -10.55141,-0.26164 -5.803283,0.018 -10.551655,0.16398 -10.551942,0.32438 -0.0032,1.47274 12.043012,1.91254 18.676412,0.68189 z m 54.87011,-0.21622 c -0.52232,-0.10066 -1.37703,-0.10066 -1.89935,0 -0.52233,0.10066 -0.0949,0.18292 0.94968,0.18292 1.04463,0 1.47198,-0.0823 0.94967,-0.18292 z m 5.487,0 c -0.52232,-0.10066 -1.37702,-0.10066 -1.89934,0 -0.52232,0.10066 -0.0949,0.18292 0.94967,0.18292 1.04464,0 1.47201,-0.0823 0.94967,-0.18292 z m 5.66751,-1.84424 c 6.33385,-0.87056 4.34575,-1.2345 -6.74379,-1.2345 -6.60699,0 -10.84742,0.15745 -10.84742,0.40294 0,0.36664 0.52781,0.50677 3.7987,1.00854 2.32788,0.3571 10.6872,0.24985 13.79251,-0.17698 z M 92.821211,221.55054 c 6.267851,-0.23883 22.127429,-0.80948 35.243499,-1.26812 73.07397,-2.55523 78.46867,-2.76869 78.81863,-3.11864 0.13783,-0.13783 -0.20841,-0.25323 -0.76943,-0.25646 -1.62569,-0.01 -9.61037,-1.79456 -18.74727,-4.19151 l -8.44156,-2.21453 -9.7078,0.4668 c -5.33928,0.25674 -14.74106,0.65544 -20.89284,0.88602 -14.04145,0.52629 -29.566,1.15142 -41.57466,1.67409 -5.10715,0.22228 -13.701692,0.53339 -19.099013,0.69134 l -9.813312,0.28719 v 3.29264 c 0,2.69059 0.135054,3.37131 0.738636,3.72286 0.93584,0.54508 0.695298,0.5446 14.24512,0.0284 z M 210.09056,200.80532 c 0.37385,-18.73523 0.35418,-39.93479 -0.0372,-40.16414 -0.1741,-0.10194 -6.77231,0.0292 -14.66272,0.29164 l -14.34615,0.47713 -0.36504,2.11039 c -0.20077,1.16071 -0.38488,10.94236 -0.40914,21.737 -0.0506,22.49635 -0.0526,22.47894 2.80012,23.25674 7.36519,2.00814 24.76459,6.2656 25.64844,6.27594 l 1.09245,0.0128 z m -108.54463,10.41234 c 22.24176,-0.78501 44.24069,-1.70576 61.55122,-2.57616 10.19126,-0.51243 13.40293,-0.80476 13.75579,-1.25204 0.94313,-1.1955 1.51273,-45.41224 0.59233,-45.98108 -0.41191,-0.25457 -26.75668,0.12922 -75.33834,1.09738 -12.999999,0.25907 -23.662467,0.49837 -23.694375,0.53178 -0.0319,0.0333 -0.197075,11.02946 -0.367036,24.43571 l -0.309023,24.37499 h 2.971627 c 1.634396,0 11.011405,-0.28376 20.837807,-0.63058 z m 238.0385,-18.74705 0.99643,-0.80623 0.26567,-16.18241 c 0.14613,-8.90032 0.28857,-29.24907 0.31655,-45.21943 l 0.0509,-29.03704 -1.03602,-1.03602 c -0.60019,-0.60018 -1.53236,-1.038636 -2.21591,-1.042257 -1.25371,-0.0064 -7.62645,-0.428581 -21.93059,-1.451969 -13.84288,-0.990398 -26.29475,-1.841993 -40.45058,-2.766443 -7.19643,-0.469978 -16.50324,-1.123745 -20.68181,-1.45283 -18.76659,-1.478003 -31.03063,-2.080802 -31.56045,-1.551242 -0.39814,0.397969 -0.56612,9.636281 -0.7285,40.066161 -0.11614,21.7519 -0.0777,39.96472 0.0853,40.47293 0.163,0.5082 0.64337,1.10973 1.0675,1.33671 0.42413,0.22699 8.26804,1.67303 17.43091,3.21342 9.16288,1.5404 19.69873,3.3476 23.41301,4.01599 3.7143,0.66841 17.76948,3.02178 31.23377,5.22972 13.46428,2.20795 28.37417,4.66573 33.1331,5.46173 4.75893,0.796 8.86898,1.4716 9.13344,1.50134 0.26446,0.0297 0.92922,-0.30872 1.47727,-0.75213 z m -12.29901,-12.13418 c -0.58037,-0.0897 -3.61933,-0.5462 -6.75326,-1.01442 -12.51598,-1.86998 -20.90287,-3.22835 -51.0714,-8.27178 -17.29464,-2.89124 -33.15421,-5.52256 -35.2435,-5.84739 -3.15899,-0.49115 -3.95882,-0.77558 -4.74947,-1.68898 l -0.95079,-1.09836 0.23905,-28.78198 c 0.13145,-15.8301 0.32492,-29.20695 0.42987,-29.72633 0.10497,-0.51938 0.62689,-1.23004 1.15981,-1.57922 1.12061,-0.73425 6.10651,-0.36855 54.52086,3.99894 36.07807,3.2546 45.38141,4.19727 46.30574,4.69196 2.16193,1.15702 2.10357,-0.0657 1.61247,33.78519 -0.27362,18.86129 -0.63011,32.02305 -0.89366,32.99411 -0.33934,1.25038 -0.76322,1.75121 -1.87541,2.21591 -0.79034,0.33023 -1.49056,0.57454 -1.55605,0.54293 -0.0656,-0.0316 -0.59391,-0.13081 -1.17426,-0.22058 z m -0.84416,-4.35528 c 0.74638,-0.47115 1.13687,-14.15797 1.21769,-42.67948 0.045,-15.85684 -0.006,-17.18437 -0.69445,-17.80664 -0.51897,-0.46966 -2.26882,-0.80771 -5.80357,-1.12118 -2.78332,-0.24682 -8.95424,-0.82834 -13.71317,-1.29225 -4.75894,-0.46392 -17.10471,-1.60615 -27.43507,-2.53829 -10.33034,-0.93216 -24.75811,-2.27522 -32.06168,-2.9846 -11.9038,-1.15616 -13.32861,-1.22223 -13.75585,-0.63796 -0.53549,0.73235 -0.87373,10.19317 -1.2992,36.33986 -0.26389,16.217 -0.24325,16.91059 0.52329,17.5797 0.52196,0.45566 2.91505,1.01301 6.91814,1.61127 3.36607,0.50305 15.14204,2.41353 26.16883,4.24547 11.02678,1.83196 24.987,4.10325 31.02271,5.04731 6.0357,0.94405 14.77272,2.36109 19.41558,3.14895 4.64285,0.78786 8.53651,1.44485 8.65259,1.45998 0.11613,0.0144 0.49594,-0.15235 0.84416,-0.37214 z m 16.75352,14.87675 c -0.10704,-0.41067 -0.20161,-0.17685 -0.21021,0.51957 -0.008,0.69643 0.079,1.03244 0.19458,0.74666 0.11565,-0.28575 0.12267,-0.85555 0.016,-1.26623 z m -217.4515,-33.89174 c 56.12847,-0.83965 80.15159,-1.28142 80.34771,-1.47754 0.10927,-0.10928 -0.28882,-0.1988 -0.88481,-0.1988 -1.08496,0 -4.60596,-0.58655 -17.6285,-2.93669 -6.42197,-1.15894 -7.50662,-1.24014 -13.92857,-1.0426 -11.9141,0.36645 -59.71617,1.41932 -77.97887,1.7175 l -17.410708,0.28429 v 2.01459 c 0,1.75701 0.121415,2.03651 0.949676,2.18605 0.52232,0.0943 4.748369,0.10641 9.39123,0.027 4.642861,-0.0794 21.357142,-0.33768 37.142842,-0.57381 z m 84.76924,-13.60003 c 0.40234,-14.22879 0.33014,-44.323173 -0.10799,-45.015163 -0.31827,-0.502696 -2.54125,-0.524567 -14.81046,-0.145806 -9.70797,0.299748 -14.5943,0.603724 -14.91938,0.928087 -0.65981,0.658394 -0.79782,11.971762 -0.39006,31.977502 0.27483,13.48422 0.43257,16.22876 0.96186,16.73507 0.35145,0.33618 3.07425,1.00421 6.12013,1.50156 3.01786,0.49278 8.81088,1.54055 12.87337,2.32842 4.06249,0.78785 7.97331,1.44846 8.69071,1.468 l 1.30433,0.0356 z m -90.04521,6.86292 c 9.63392,-0.21294 23.68911,-0.5138 31.23376,-0.66861 7.54463,-0.15474 16.27959,-0.401 19.41103,-0.54712 5.55265,-0.25913 5.70515,-0.29181 6.16478,-1.3209 0.34296,-0.76788 0.37215,-7.43108 0.1072,-24.47162 -0.33598,-21.60999 -0.42207,-23.474447 -1.11595,-24.168319 -0.71566,-0.715664 -3.0621,-0.738157 -48.72922,-0.466931 -26.38755,0.156654 -48.147395,0.396101 -48.355225,0.531953 -0.21107,0.13799 -0.486007,11.565707 -0.622841,25.888237 l -0.244969,25.64123 12.317587,-0.016 c 6.77468,-0.008 20.199908,-0.18904 29.833828,-0.40197 z m -18.01922,-5.49523 c -1.47148,-0.59271 -2.33756,-2.21823 -1.8563,-3.48403 0.92879,-2.44286 3.96625,-3.17384 5.75511,-1.38499 1.73965,1.73966 1.20811,4.01414 -1.12847,4.82868 -1.53837,0.53628 -1.5391,0.53629 -2.77034,0.0404 z m 56.74473,-1.25468 c -1.45642,-1.14561 -1.5031,-2.6579 -0.12459,-4.03642 1.45238,-1.45239 3.6675,-1.41758 4.84244,0.0761 1.06866,1.35858 1.10572,2.3105 0.13607,3.49681 -1.11444,1.36358 -3.42882,1.58457 -4.85402,0.46351 z M 340.29126,95.457399 c 0.0823,-0.854004 -0.0775,-1.450119 -0.42208,-1.573894 -0.7636,-0.274336 -26.14992,-2.028989 -55.00259,-3.801683 -26.81015,-1.647213 -40.57174,-2.514887 -53.35267,-3.363962 -4.73683,-0.314664 -8.86792,-0.474093 -9.18019,-0.354258 -0.94918,0.364229 -0.6814,2.210832 0.38192,2.633781 0.52232,0.207766 7.31248,0.779729 15.08927,1.271035 16.61447,1.049646 21.75747,1.393934 41.7857,2.797263 8.24107,0.577435 22.39124,1.526228 31.4448,2.108417 9.05356,0.582188 18.26541,1.218806 20.47077,1.414687 2.20536,0.195898 5.05437,0.330776 6.33117,0.299717 2.29812,-0.05583 2.32275,-0.07019 2.4539,-1.431103 z m 3.79849,-5.58e-4 c 0.0944,-0.977206 -0.0434,-1.368298 -0.48244,-1.368298 -0.67506,0 -1.12709,0.872668 -1.12709,2.175863 0,1.484624 1.4587,0.752721 1.60953,-0.807565 z m -144.27183,-1.57935 c 5.22322,-0.09077 9.59172,-0.188767 9.7078,-0.217721 0.11613,-0.02887 -0.16883,-0.215184 -0.63313,-0.413857 -1.26572,-0.541621 -128.606825,-0.45712 -129.260973,0.08582 -0.290361,0.240979 -0.527929,0.62073 -0.527929,0.843906 0,0.373752 95.653952,0.137511 120.714232,-0.298106 z m 11.11819,-11.463963 c 0.15283,-4.564103 0.27791,-20.869073 0.27791,-36.233257 0,-26.077149 -0.0491,-27.977847 -0.73863,-28.580933 -0.85002,-0.743468 -3.47976,-0.81023 -70.80355,-1.797453 -22.74999,-0.3336 -46.919209,-0.729462 -53.709395,-0.879703 -13.236582,-0.292841 -13.182836,-0.300929 -11.735573,1.765325 0.335608,0.47915 0.833806,1.759215 1.107108,2.844594 0.273302,1.085379 0.621195,2.050237 0.773096,2.144118 0.789855,0.488148 32.930874,0.986218 85.090734,1.318605 23.53286,0.149954 42.04471,0.435202 42.9436,0.661712 2.92149,0.736162 2.81065,-0.610935 2.60204,31.624647 -0.1029,15.888704 -0.26067,30.360534 -0.35075,32.159647 l -0.16379,3.271101 h 2.21463 2.21465 z m -8.69123,5.052028 c 0.41004,-0.55467 0.5276,-7.182283 0.5276,-29.746633 V 28.685959 l -0.94969,-0.595923 c -1.00581,-0.631147 -7.52751,-0.73286 -88.62761,-1.382272 -26.788807,-0.214514 -33.782896,-0.160834 -34.293823,0.263185 -0.563404,0.467585 -0.641825,4.211137 -0.641825,30.638587 0,25.655428 0.08914,30.1558 0.603076,30.443425 0.331692,0.185655 28.109692,0.290001 61.728872,0.231918 56.83826,-0.09827 61.16281,-0.155697 61.6534,-0.819323 z M 84.858657,78.018953 83.746541,77.144163 V 55.089289 33.034416 l 1.007914,-0.94688 1.007913,-0.946879 21.467722,0.06636 c 11.80726,0.03653 36.29674,0.195849 54.42108,0.35405 36.84197,0.321588 34.87249,0.14118 35.45503,3.246407 0.15521,0.827507 0.17149,10.563106 0.0362,21.634684 l -0.24612,20.130135 -1.28931,1.160707 -1.28931,1.160708 h -54.17342 c -54.166682,0 -54.173557,-9.6e-5 -55.285529,-0.87479 z M 186.44948,74.87201 c 3.67414,-0.06796 6.79644,-0.239591 6.93845,-0.381601 0.14198,-0.141978 0.34153,-8.757708 0.44337,-19.146007 0.1737,-17.718588 0.13862,-18.926451 -0.56549,-19.511766 -0.9597,-0.797691 -12.60813,-1.064051 -65.30723,-1.493366 -37.01626,-0.301567 -38.763495,-0.281786 -39.569784,0.4479 -0.819626,0.741745 -0.843555,1.304025 -0.843555,19.821852 0,14.587742 0.123792,19.224541 0.527599,19.766513 0.450787,0.604968 1.603023,0.72951 7.913962,0.855407 7.471578,0.148997 78.142818,-0.131289 90.462678,-0.358932 z M 136.5477,69.074217 c -0.55758,-0.286747 -1.21506,-0.843731 -1.46108,-1.237743 -0.65383,-1.047141 0.15362,-2.969901 1.52275,-3.626109 0.95567,-0.458045 1.3393,-0.441997 2.3872,0.09986 2.12909,1.100981 2.10504,3.130033 -0.055,4.643004 -1.11604,0.781707 -1.10968,0.781388 -2.39386,0.120921 z m 5.83518,-1.122023 c -0.67857,-0.678573 -1.23377,-1.438313 -1.23377,-1.688306 0,-0.730403 1.57409,-2.09811 2.75614,-2.39478 2.33555,-0.586192 4.17966,2.990624 2.38108,4.618326 -1.14716,1.038176 -2.518,0.850207 -3.90345,-0.53524 z M 342.5364,82.692443 c 0.14692,-1.50892 0.28941,-13.802829 0.31655,-27.319805 l 0.0493,-24.576301 -0.94967,-0.586974 c -0.77193,-0.477124 -7.23041,-0.678158 -34.50486,-1.074037 -18.45536,-0.267891 -44.58716,-0.696568 -58.07068,-0.952622 -18.55743,-0.352424 -24.73779,-0.346601 -25.43018,0.02393 -0.90392,0.483761 -0.91469,0.625292 -0.91469,12.013065 0,6.337946 -0.12491,17.222544 -0.27765,24.188016 -0.33874,15.451413 -0.86155,14.22211 6.22813,14.644389 2.64688,0.157612 10.70049,0.659255 17.8969,1.114685 15.64369,0.990015 58.80319,3.600569 70.06493,4.237953 4.4107,0.249641 10.29869,0.607617 13.0844,0.795474 2.78572,0.187873 6.67938,0.317759 8.6526,0.288645 l 3.58765,-0.05296 z m -23.69254,-5.303887 c -5.45536,-0.300498 -13.33766,-0.747839 -17.51623,-0.994067 -28.44643,-1.676262 -51.16494,-2.955544 -65.97399,-3.714997 -3.81737,-0.195754 -4.97906,-0.407061 -5.80357,-1.055628 l -1.03085,-0.810868 0.0472,-13.792412 c 0.026,-7.585818 0.16843,-15.57739 0.31657,-17.759044 0.24479,-3.605483 0.36539,-4.032804 1.32451,-4.693127 1.13741,-0.783095 9.1583,-0.744155 78.42619,0.380771 27.14662,0.440864 26.60057,0.385956 27.50524,2.765422 0.21317,0.5607 0.25048,9.107101 0.0866,19.853278 l -0.28763,18.868768 -0.99642,0.806481 c -1.16451,0.942492 -1.56289,0.946081 -16.09772,0.145487 z m 12.40028,-20.244978 c 0.33527,-15.181065 0.30597,-16.849159 -0.30382,-17.295048 -0.46151,-0.33746 -4.91598,-0.5797 -14.0886,-0.766169 -12.98689,-0.263999 -50.07131,-1.249531 -71.66043,-1.904415 -5.80357,-0.176036 -10.86118,-0.247679 -11.23913,-0.159206 -1.47927,0.346266 -1.63424,1.932826 -1.63424,16.729562 0,11.832195 0.1072,14.57916 0.58472,14.975421 0.59454,0.493428 16.07908,1.470219 43.94448,2.77209 7.66071,0.357911 16.87256,0.829293 20.47077,1.047508 3.59821,0.218215 11.86038,0.698004 18.36039,1.066188 6.49999,0.368185 12.19804,0.719381 12.66232,0.780399 0.4643,0.0611 1.22404,-0.01436 1.68832,-0.166911 0.8169,-0.268897 0.85613,-0.820217 1.21522,-17.079419 z m 18.64514,-32.037354 c 0.14964,-0.797436 0.14708,-1.652142 -0.006,-1.899358 -0.70879,-1.146861 -4.45036,0.191366 -5.21264,1.86439 -0.56524,1.240581 -0.2519,1.405993 2.74965,1.451522 2.17714,0.03302 2.19922,0.02042 2.46878,-1.416554 z m -7.08464,-0.854961 0.91472,-1.882768 -1.35821,-0.205452 c -0.74701,-0.112944 -9.62038,-0.31409 -19.71859,-0.446879 -17.9336,-0.235827 -49.63788,-0.776841 -84.83764,-1.447741 -15.28275,-0.291278 -17.6104,-0.253167 -18.25486,0.298823 -0.96046,0.822688 -0.93162,1.408913 0.13607,2.766363 l 0.87479,1.112115 8.09437,-0.0032 c 7.61173,-0.0032 38.13584,0.4881 76.47096,1.230228 9.28572,0.179754 21.35621,0.357082 26.82336,0.394028 l 9.94024,0.06716 z M 217.12312,21.305051 c 0,-0.445507 -0.81003,-0.632662 -1.05094,-0.242846 -0.14581,0.235938 0.0309,0.428964 0.39291,0.428964 0.36191,0 0.65803,-0.08375 0.65803,-0.186118 z M 72.561482,18.127974 c 0,-0.774018 -0.428616,-1.282186 -1.667756,-1.977271 -0.917267,-0.514517 -1.787789,-0.861309 -1.934497,-0.770635 -0.380264,0.235013 0.03669,2.840399 0.559266,3.494676 0.241241,0.30203 1.024602,0.491961 1.740803,0.422073 1.068812,-0.10433 1.302184,-0.313771 1.302184,-1.168843 z"
       id="path8" /></g><metadata
     id="metadata182"><rdf:RDF><cc:Work
         rdf:about=""><cc:license
           rdf:resource="http://creativecommons.org/licenses/by-sa/4.0/" /><dc:publisher><cc:Agent><dc:title>OpenDataKerala.org</dc:title></cc:Agent></dc:publisher><dc:date>April 2026</dc:date><dc:title>Election Symbols of Kerala</dc:title><dc:creator><cc:Agent><dc:title>Manoj Karingamadathil</dc:title></cc:Agent></dc:creator></cc:Work><cc:License
         rdf:about="http://creativecommons.org/licenses/by-sa/4.0/"><cc:permits
           rdf:resource="http://creativecommons.org/ns#Reproduction" /><cc:permits
           rdf:resource="http://creativecommons.org/ns#Distribution" /><cc:requires
           rdf:resource="http://creativecommons.org/ns#Notice" /><cc:requires
           rdf:resource="http://creativecommons.org/ns#Attribution" /><cc:permits
           rdf:resource="http://creativecommons.org/ns#DerivativeWorks" /><cc:requires
           rdf:resource="http://creativecommons.org/ns#ShareAlike" /></cc:License></rdf:RDF></metadata></svg>
