<?xml version="1.0" encoding="UTF-8" standalone="no"?>
<!-- Created with Inkscape (http://www.inkscape.org/) -->

<svg
   width="1500"
   height="1500"
   viewBox="0 0 396.87499 396.875"
   version="1.1"
   id="svg5"
   xml:space="preserve"
   inkscape:version="1.2.2 (b0a8486541, 2022-12-01)"
   sodipodi:docname="rjd.svg"
   inkscape:export-filename="ncpsp.png"
   inkscape:export-xdpi="96"
   inkscape:export-ydpi="96"
   xmlns:inkscape="http://www.inkscape.org/namespaces/inkscape"
   xmlns:sodipodi="http://sodipodi.sourceforge.net/DTD/sodipodi-0.dtd"
   xmlns="http://www.w3.org/2000/svg"
   xmlns:svg="http://www.w3.org/2000/svg"
   xmlns:rdf="http://www.w3.org/1999/02/22-rdf-syntax-ns#"
   xmlns:cc="http://creativecommons.org/ns#"
   xmlns:dc="http://purl.org/dc/elements/1.1/"><title
     id="title186">Election Symbols of Kerala</title><sodipodi:namedview
     id="namedview7"
     pagecolor="#ffffff"
     bordercolor="#000000"
     borderopacity="0.25"
     inkscape:showpageshadow="2"
     inkscape:pageopacity="0.0"
     inkscape:pagecheckerboard="0"
     inkscape:deskcolor="#d1d1d1"
     inkscape:document-units="mm"
     showgrid="false"
     inkscape:zoom="0.35355339"
     inkscape:cx="-165.46299"
     inkscape:cy="974.39314"
     inkscape:window-width="1854"
     inkscape:window-height="1011"
     inkscape:window-x="0"
     inkscape:window-y="0"
     inkscape:window-maximized="1"
     inkscape:current-layer="layer1" /><defs
     id="defs2"><inkscape:path-effect
       effect="bspline"
       id="path-effect3248"
       is_visible="true"
       lpeversion="1"
       weight="33.333333"
       steps="2"
       helper_size="0"
       apply_no_weight="true"
       apply_with_weight="true"
       only_selected="false" /><inkscape:path-effect
       effect="bspline"
       id="path-effect577"
       is_visible="true"
       lpeversion="1"
       weight="33.333333"
       steps="2"
       helper_size="0"
       apply_no_weight="true"
       apply_with_weight="true"
       only_selected="false" /></defs><g
     inkscape:label="Layer 1"
     inkscape:groupmode="layer"
     id="layer1"><path
       style="fill:#000000;stroke-width:0.330362"
       d="m 189.54701,385.0585 c -0.81764,-0.0689 -4.53424,-0.3558 -8.25907,-0.6374 -27.01965,-2.04293 -50.76911,-8.26726 -62.18373,-16.29726 -1.95165,-1.37295 -2.68075,-3.45559 -1.91491,-5.46992 0.33135,-0.87152 2.93294,-2.876 11.78265,-9.07823 2.69991,-1.89222 5.9124,-4.17337 7.13888,-5.06932 l 2.22994,-1.62892 v -13.11514 -13.11516 l -2.75818,-0.89824 c -3.34522,-1.08942 -8.09061,-3.36486 -11.06581,-5.30612 -7.72976,-5.0435 -12.70076,-12.83857 -14.44935,-22.65816 -1.10471,-6.20377 -0.76193,-11.43934 3.00747,-45.93566 0.26804,-2.45296 0.8556,-8.02782 1.30571,-12.38861 0.765,-7.41156 1.42246,-13.68412 2.64897,-25.27275 0.27885,-2.63466 0.94679,-8.80418 1.48433,-13.71006 0.53755,-4.90589 1.35774,-12.63638 1.82265,-17.17887 0.4649,-4.54248 1.21486,-11.67832 1.66657,-15.85741 0.4517,-4.17909 1.04592,-9.67963 1.32048,-12.22343 2.20788,-20.45616 3.14571,-24.55933 7.81507,-34.19255 l 2.3219,-4.79026 0.27721,-4.12954 c 0.15246,-2.27124 0.28419,-5.78557 0.29273,-7.809617 0.0659,-15.624241 9.14902,-27.486549 24.00965,-31.356027 6.92249,-1.802501 7.05998,-1.897583 7.05998,-4.881849 0,-1.752245 0.92879,-3.512455 2.26846,-4.299133 0.5706,-0.335066 2.11475,-0.743613 3.43145,-0.907881 1.63149,-0.203537 2.53418,-0.483002 2.83414,-0.877427 0.34031,-0.447454 0.40828,-1.852783 0.29957,-6.194918 -0.0773,-3.088887 -0.24485,-5.85216 -0.3723,-6.140603 -0.12744,-0.288443 -1.1297,-0.95363 -2.22722,-1.478198 -1.09753,-0.524569 -2.13153,-1.207948 -2.2978,-1.518616 -0.58171,-1.086933 -0.33488,-2.436461 0.60619,-3.314188 1.19517,-1.114714 1.15316,-1.094848 9.70847,-4.592832 8.23085,-3.365331 10.52626,-4.44386 10.52626,-4.94594 0,-0.187268 -0.5315,-2.154549 -1.18112,-4.37174 -1.09076,-3.722909 -1.1716,-4.296586 -1.05673,-7.500071 0.10676,-2.976599 0.2508,-3.713182 1.01532,-5.191018 1.26976,-2.454479 2.56696,-3.803246 4.8052,-4.9962231 6.36995,-3.3951352 14.76405,-1.1392742 17.51174,4.7061941 1.75296,3.729265 1.6728,7.904485 -0.27215,14.176243 -0.70872,2.285341 -0.8461,3.121701 -0.55753,3.393899 0.21062,0.198667 1.57225,0.780497 3.02585,1.292966 4.5678,1.610389 15.86841,6.017253 17.29029,6.742648 1.37159,0.699737 2.3663,2.083015 2.3663,3.290676 0,0.959149 -1.44311,1.932382 -3.49783,2.358947 -2.81091,0.58354 -2.96046,0.976892 -2.86756,7.542099 0.0439,3.103246 0.22173,5.594047 0.41608,5.828212 0.18667,0.224913 1.29747,0.485849 2.46847,0.579845 4.05562,0.325539 5.49706,1.833342 5.77655,6.042512 0.18728,2.820372 0.47929,3.439248 1.62887,3.452009 0.25067,0.0025 2.18329,0.388507 4.29471,0.857175 15.15664,3.364238 24.13159,12.267877 26.63594,26.424254 0.2872,1.6235 0.64293,6.184305 0.79052,10.135112 l 0.26833,7.18329 2.5163,5.20532 c 3.02236,6.25219 4.17382,10.06878 5.50741,18.25463 0.54762,3.36145 2.18498,13.39622 3.63856,22.2995 1.45358,8.90327 3.98394,24.43859 5.623,34.5229 4.08178,25.11311 5.37746,32.93361 6.92377,41.7909 4.96694,28.45063 5.07407,29.38654 5.06734,44.26862 -0.005,12.10468 -0.014,12.2582 -0.88357,15.80298 -1.61339,6.57734 -4.75686,12.30976 -9.25445,16.87637 -4.25171,4.31695 -8.59799,7.16303 -15.4645,10.12664 -2.18813,0.9444 -3.82428,1.85185 -3.96053,2.19662 -0.12768,0.32311 -0.24259,6.04505 -0.25537,12.71541 -0.0221,11.55226 0.007,12.15602 0.61135,12.71896 0.34901,0.32508 1.91747,1.48301 3.48547,2.5732 1.568,1.0902 3.69823,2.58807 4.73383,3.32861 1.03561,0.7405 4.11287,2.88017 6.83838,4.75474 7.00711,4.81954 7.76351,5.61922 7.76351,8.20777 0,2.74099 -3.75942,5.86829 -11.06715,9.20628 -9.61115,4.39017 -27.31595,7.89968 -49.88478,9.88836 -4.2224,0.37205 -10.8316,0.55104 -22.79504,0.61735 -9.26668,0.0513 -17.5175,0.037 -18.33514,-0.0321 z m 38.65245,-9.20975 c 15.76909,-1.18842 31.97366,-3.76053 40.79982,-6.476 3.88211,-1.19443 9.41533,-3.32296 9.41533,-3.6219 0,-0.216 -7.68883,-6.09312 -12.98455,-9.92506 l -3.01462,-2.18135 -1.66353,0.44988 c -0.91493,0.24741 -4.58992,1.11755 -8.16662,1.93361 -27.66652,6.31238 -53.98708,7.31057 -81.70378,3.09851 -7.71732,-1.17278 -10.92169,-1.79298 -19.594,-3.79233 -3.50872,-0.80893 -6.55632,-1.36371 -6.77244,-1.23282 -1.27494,0.77203 -13.59053,10.47009 -13.51041,10.63894 0.0534,0.1125 1.76301,0.856 3.79918,1.65224 13.27936,5.19285 30.32988,8.30929 53.5869,9.79447 8.74253,0.55828 30.34877,0.37473 39.80872,-0.33819 z m -16.83684,-22.63616 c 15.48071,-0.78082 29.98185,-2.9186 43.67882,-6.43913 l 4.87285,-1.25248 v -11.20581 c 0,-10.51595 -0.0356,-11.1955 -0.57813,-11.03791 -1.71307,0.49755 -11.30118,2.30492 -16.76591,3.16038 -14.62701,2.28978 -28.22691,3.1701 -44.76143,2.89745 -16.34715,-0.26956 -30.1838,-1.80849 -45.25408,-5.03319 -2.95085,-0.63143 -5.46072,-1.14804 -5.57746,-1.14804 -0.11675,0 -0.20647,5.08586 -0.19941,11.30192 l 0.0129,11.3019 6.75958,1.56239 c 14.24341,3.29213 28.24919,5.26981 41.61287,5.8759 8.1408,0.36922 9.18745,0.3703 16.19944,0.0165 z m -18.19967,-33.61013 c -1.60647,-1.80623 -3.26953,-5.11038 -3.52287,-6.99915 l -0.17418,-1.2986 -2.06949,-0.22163 c -1.96494,-0.21043 -2.20908,-0.15295 -4.8323,1.13767 -4.41856,2.1739 -7.51748,2.80297 -12.67369,2.57274 -5.43931,-0.24287 -8.52887,-1.02792 -13.19041,-3.35169 -1.98544,-0.98973 -3.71814,-1.73261 -3.85046,-1.65084 -0.41491,0.25645 -2.00552,3.13704 -2.3009,4.16693 -0.25926,0.90401 -0.19534,1.02054 0.78436,1.42988 3.60329,1.50556 25.71747,4.73491 37.05773,5.41159 2.54379,0.15179 4.9722,0.29766 5.39648,0.32415 0.70971,0.0443 0.6598,-0.0773 -0.62427,-1.52105 z m 25.95153,1.08431 c 1.817,-0.10214 5.70935,-0.42769 8.64966,-0.72349 l 5.34604,-0.53781 -0.97934,-1.21865 c -1.34094,-1.66862 -2.27956,-4.29497 -2.27956,-6.37841 v -1.73785 l -5.35608,0.59674 c -3.0526,0.34009 -5.45706,0.76012 -5.59087,0.97664 -0.12914,0.20895 -0.33418,0.90988 -0.45565,1.55761 -0.34408,1.83489 -1.82857,4.59357 -3.43087,6.3757 l -1.46034,1.62426 1.12669,-0.17453 c 0.61969,-0.096 2.61333,-0.2581 4.43032,-0.36021 z m 37.30226,-5.46591 c 0.18634,-0.18633 0.0719,-1.07462 -0.29424,-2.28391 -0.47006,-1.55244 -1.09233,-2.53378 -2.88718,-4.55306 -3.49309,-3.92988 -3.07631,-3.67268 -4.20271,-2.59351 -0.96107,0.92076 -0.96969,0.9587 -0.44686,1.96579 1.09388,2.10709 0.9405,5.75624 -0.37085,8.82263 -0.19724,0.46124 0.28613,0.42814 3.83561,-0.26263 2.23372,-0.43471 4.19852,-0.9276 4.36623,-1.09531 z m -49.15049,0.43685 c 2.73654,-1.42014 4.24509,-4.72623 3.47328,-7.61196 -0.87459,-3.27 -3.19799,-5.04402 -6.60606,-5.04402 -1.66309,0 -2.19714,0.16171 -3.54573,1.07369 -6.98809,4.72559 -0.79739,15.46192 6.67851,11.58229 z m 34.2176,-1.38983 c 1.37497,-1.22854 1.50311,-3.171 0.29409,-4.45795 -2.08772,-2.22227 -5.38548,-0.82045 -5.38548,2.28929 0,2.72922 3.02292,4.01682 5.09139,2.16866 z m 26.19177,-1.17729 c 9.14781,-3.44323 16.56254,-9.63328 20.26754,-16.91998 2.24973,-4.42461 3.2475,-12.04103 2.91359,-22.2408 -0.33309,-10.17507 -0.55333,-11.86797 -3.80373,-29.23712 -0.91807,-4.90589 -2.12616,-11.74439 -2.68466,-15.19669 -0.55849,-3.45228 -1.96822,-11.70309 -3.13272,-18.33513 -1.1645,-6.63203 -2.94656,-17.1128 -3.96015,-23.29058 -1.01358,-6.17779 -2.28544,-13.83394 -2.82634,-17.01369 -0.54091,-3.17973 -2.3269,-14.35309 -3.96885,-24.82966 -1.64195,-10.47657 -3.21156,-19.84235 -3.48803,-20.81286 -0.27646,-0.9705 -1.68613,-4.21749 -3.13263,-7.21552 -2.97334,-6.16271 -3.25629,-7.40437 -3.27469,-14.37079 -0.0129,-4.852117 -0.50317,-10.26538 -1.16832,-12.898011 -0.73472,-2.907975 -3.23019,-7.745274 -5.02841,-9.747266 -1.85176,-2.061602 -5.61716,-4.611961 -8.28069,-5.608643 -2.62419,-0.981949 -8.61773,-2.361919 -9.30754,-2.142974 -1.23622,0.392365 -1.78188,3.306159 -0.80253,4.28551 0.2915,0.291502 1.14632,0.842004 1.89958,1.223344 4.46382,2.259744 7.97954,5.243585 10.44577,8.865444 3.06469,4.500784 4.07998,7.643487 6.76544,20.941746 2.04596,10.13159 3.08021,15.59134 7.98587,42.15755 1.1911,6.45034 2.66096,14.40382 3.26634,17.67442 0.60539,3.27058 1.93524,10.48075 2.95524,16.02259 1.02,5.54183 2.30809,12.45468 2.86243,15.36187 0.55432,2.9072 1.65555,8.85372 2.44715,13.21451 2.09378,11.53414 5.22148,28.2698 6.91504,37.00064 3.38102,17.43034 4.06398,23.16684 3.52021,29.56747 -0.6893,8.11352 -2.68751,13.7113 -6.90343,19.33928 -3.1548,4.21146 -6.74137,7.18157 -11.87194,9.83141 -1.7312,0.89413 -3.1097,1.82713 -3.22191,2.18067 -0.3652,1.15062 0.90355,2.86225 2.2119,2.98401 0.13213,0.0125 1.21234,-0.34353 2.40047,-0.79075 z m -126.52677,-0.59927 c 1.57717,-0.88414 2.77721,-2.94933 2.15174,-3.70297 -0.21455,-0.25851 -1.23245,-0.71121 -2.262,-1.006 -3.896,-1.11553 -8.70941,-4.38201 -11.82773,-8.02652 -4.64508,-5.4289 -7.05567,-12.72819 -7.05616,-21.36613 -3e-4,-5.31271 1.28842,-16.88056 3.82764,-34.35773 0.63358,-4.36079 1.51047,-10.45599 1.94867,-13.54488 0.43819,-3.08889 1.55107,-10.67072 2.47307,-16.8485 0.922,-6.17779 1.96717,-13.2393 2.32259,-15.69224 0.35541,-2.45294 1.02116,-6.91283 1.47943,-9.91088 0.45827,-2.99804 1.1984,-7.90393 1.64473,-10.90198 0.44634,-2.99804 1.55028,-10.2082 2.4532,-16.02259 0.90291,-5.81438 2.10412,-13.6192 2.66932,-17.34404 1.80357,-11.88594 6.61663,-40.0206 7.43434,-43.45728 2.25572,-9.480344 5.97861,-15.363432 12.3695,-19.546831 1.55998,-1.021155 3.02217,-2.083377 3.24929,-2.360507 0.49026,-0.598187 0.56056,-4.542076 0.0862,-4.835251 -0.54552,-0.337151 -7.06951,1.389759 -9.38711,2.484769 -4.7331,2.236283 -8.22681,5.699518 -10.48862,10.397146 -1.91085,3.968712 -2.2695,6.137881 -2.59462,15.692234 -0.15766,4.63334 -0.46051,9.0189 -0.673,9.74571 -0.21249,0.72679 -1.12949,2.88241 -2.03778,4.79026 -3.31868,6.97079 -4.87755,11.75248 -5.86973,18.00477 -0.44959,2.83308 -2.06513,16.90135 -3.81273,33.20146 -0.82792,7.72223 -2.178,20.06128 -3.00018,27.42012 -1.66148,14.87122 -2.02235,18.17221 -3.44906,31.54964 -0.54258,5.08759 -1.13842,10.5138 -1.32408,12.05825 -0.18564,1.54444 -1.07889,9.62887 -1.98499,17.96542 -0.90609,8.33653 -1.79045,16.14135 -1.96524,17.34404 -0.98445,6.77389 -0.70788,14.50328 0.70085,19.58683 1.53049,5.52299 5.3657,10.99271 10.05304,14.33752 2.82604,2.01663 9.41361,5.04244 11.05243,5.07661 0.27254,0.006 1.0902,-0.32301 1.81699,-0.73045 z m 34.37093,-4.38454 c 7.42967,-1.9286 10.69,-6.78948 6.46262,-9.6352 -1.58098,-1.06426 -2.56136,-0.94997 -5.12745,0.59771 -3.35769,2.02512 -4.67787,2.37997 -8.26978,2.22289 -2.72952,-0.11937 -3.35513,-0.27123 -5.51435,-1.33837 -1.33954,-0.66204 -3.34015,-2.02234 -4.4458,-3.0229 -2.37888,-2.15276 -3.26635,-2.4564 -4.90581,-1.67842 -1.48493,0.70464 -2.16392,1.64159 -2.16392,2.98597 0,2.13034 4.93478,6.37321 9.73841,8.37296 4.43974,1.84827 10.43774,2.47875 14.22608,1.49536 z m 15.48345,-5.29332 c 2.01734,-3.86071 5.2955,-6.43734 9.62467,-7.56496 6.5448,-1.70469 13.78481,1.53727 16.5712,7.42035 l 0.9243,1.95152 2.23843,0.0166 2.23843,0.0166 -0.5779,-1.07368 c -0.93152,-1.73066 -0.7877,-5.2897 0.29787,-7.37132 0.47974,-0.91991 1.10685,-1.86726 1.39357,-2.10522 0.28672,-0.23796 0.52131,-0.56311 0.52131,-0.72256 0,-0.16298 -8.39451,-0.28991 -19.17254,-0.28991 h -19.17254 l 1.15452,1.01368 c 2.25763,1.98223 3.57808,6.1549 2.89395,9.14498 -0.17669,0.77221 -0.22556,1.40368 -0.10863,1.40325 0.117,-3.3e-4 0.64496,-0.82812 1.17334,-1.8393 z m 44.514,0.0263 c 1.8855,-0.87774 4.49612,-1.08995 6.46436,-0.52547 0.91286,0.2618 1.24267,0.17045 2.39295,-0.6628 1.60535,-1.16291 1.67646,-1.89063 0.31754,-3.24955 -1.34769,-1.34769 -2.34983,-1.55175 -4.4184,-0.8997 -2.94985,0.92987 -4.59327,1.00761 -7.75055,0.36667 -2.76725,-0.56176 -2.99479,-0.56421 -3.79367,-0.0408 -1.58251,1.0369 -1.51656,3.33923 0.13073,4.56376 0.45425,0.33768 1.71788,0.74356 2.80809,0.90197 1.09019,0.1584 2.00457,0.30613 2.03195,0.32828 0.0273,0.0222 0.84504,-0.32991 1.817,-0.78239 z m 28.12648,-1.57246 c 5.03562,-2.66645 9.22783,-7.71139 11.13278,-13.39729 0.54738,-1.6338 0.99522,-3.13444 0.99522,-3.33476 0,-0.24111 -1.1167,-0.36423 -3.30363,-0.36423 -2.17814,0 -3.30362,0.12349 -3.30362,0.36264 0,0.19944 -0.62282,1.63743 -1.38403,3.19554 -1.77384,3.63084 -4.45681,6.99372 -8.013,10.04373 -3.02212,2.59195 -3.43015,3.44698 -2.09217,4.38414 1.29141,0.90453 3.08478,0.63718 5.96845,-0.88977 z m -118.82956,-1.94344 c -0.16865,-1.05471 -0.67623,-1.86264 -2.23114,-3.5514 -5.31699,-5.77471 -8.78734,-12.60181 -11.17783,-21.98974 -0.51147,-2.00866 -1.04694,-4.09811 -1.18992,-4.6432 -0.23263,-0.88687 -0.28429,-0.78265 -0.49128,0.99109 -0.12721,1.09019 -0.24743,4.59716 -0.26715,7.79327 -0.0293,4.76023 0.0804,6.26564 0.607,8.32463 1.30879,5.11735 4.31121,10.00651 7.50076,12.21434 1.69933,1.17627 4.55737,2.19924 6.1868,2.2144 l 1.28108,0.0125 -0.21832,-1.3653 z m 107.99734,-3.41876 c 2.41686,-1.86327 5.60291,-4.81943 6.97341,-6.47024 1.2156,-1.46424 4.42412,-7.23855 4.42412,-7.96201 0,-0.10451 -1.47562,-0.29459 -3.27913,-0.42245 -3.77877,-0.26791 -3.77701,-0.26852 -7.12731,2.47204 -1.27189,1.04043 -3.26578,2.46679 -4.43086,3.16971 -1.16507,0.70292 -2.40857,1.67079 -2.76331,2.15082 -0.79578,1.07678 -1.17735,3.05937 -0.87104,4.52581 0.26139,1.25137 2.03273,3.2493 3.07591,3.46939 1.23062,0.25963 2.981,-0.14886 3.99821,-0.93307 z m -80.93889,-1.45338 c 0.7268,-0.33374 1.58468,-0.90306 1.90639,-1.26514 0.57725,-0.64967 0.5516,-0.66114 -1.94942,-0.87256 -3.47486,-0.29374 -7.4666,-0.2604 -7.98213,0.0667 -0.30874,0.19587 -0.0803,0.50973 0.82591,1.1346 0.68899,0.47511 1.62438,1.01055 2.07862,1.18987 1.3198,0.52098 3.68961,0.40371 5.12063,-0.25342 z m -19.77937,-3.16612 c 3.55464,-0.75289 5.07822,-1.43145 5.07822,-2.26171 0,-0.18182 -1.38261,-1.75691 -3.07246,-3.5002 -7.40838,-7.64264 -10.25148,-14.76351 -11.13042,-27.87735 -0.30174,-4.50204 0.0152,-13.92047 0.67052,-19.92207 0.76403,-6.99768 3.37275,-23.83979 5.59845,-36.1439 0.54232,-2.99804 1.44478,-8.12692 2.00547,-11.39751 0.5607,-3.2706 1.51803,-8.69681 2.1274,-12.05825 1.46287,-8.06954 2.55908,-14.26801 4.29423,-24.28167 5.92508,-34.19387 5.70498,-33.0383 6.66993,-35.01845 0.26563,-0.5451 1.37979,-1.81277 2.47591,-2.81704 l 1.99296,-1.82594 0.32101,-3.1295 c 0.17657,-1.72122 0.27224,-4.88962 0.21261,-7.04088 -0.13301,-4.798167 -0.27249,-4.978277 -4.07816,-5.266097 -2.86225,-0.21647 -3.66358,-0.7001 -3.98324,-2.40401 -0.16553,-0.882358 0.0729,-1.59699 1.28039,-3.836394 0.8161,-1.513635 1.58933,-3.104183 1.71828,-3.534556 l 0.23449,-0.782495 -1.06242,0.617316 c -2.57421,1.495716 -4.89296,5.236068 -6.21954,10.032649 -1.06182,3.839307 -5.01116,25.799687 -7.48592,41.625717 -0.46881,2.99803 -1.21687,7.68093 -1.66234,10.40642 -0.44546,2.72549 -1.4077,8.74635 -2.13829,13.37969 -0.73059,4.63335 -1.84454,11.69484 -2.47543,15.69223 -3.44977,21.85805 -9.14624,59.83939 -9.74643,64.98453 -0.27047,2.31874 -0.27816,4.40261 -0.0277,7.52561 0.97441,12.15168 3.48887,22.47278 7.36058,30.21297 2.19711,4.39238 5.8012,9.43507 6.74341,9.43507 0.24999,0 2.18433,-0.36638 4.29853,-0.81418 z m 18.07155,-6.87211 c 1.4432,-0.41391 3.67669,-2.68135 11.30296,-11.47475 2.60013,-2.99805 8.82193,-10.11905 13.82625,-15.82445 l 9.09874,-10.37346 -1.60806,-1.84996 c -0.88443,-1.01748 -2.70092,-3.01298 -4.03664,-4.43446 l -2.42858,-2.58448 -3.17956,4.2363 c -9.40314,12.52827 -20.16592,29.07349 -25.50604,39.20947 -1.9558,3.71223 -1.96548,3.96937 -0.13856,3.68063 0.77223,-0.12211 1.97348,-0.38523 2.66949,-0.58484 z m 18.13707,-0.23878 4.20584,-0.004 0.18312,-0.90849 c 0.32262,-1.60046 1.62079,-3.85459 2.47237,-4.29298 0.45425,-0.23385 1.23883,-0.56937 1.74352,-0.74558 l 0.91762,-0.32041 -0.66985,-1.31301 c -1.67623,-3.28568 0.19388,-7.0344 4.22793,-8.47511 2.72866,-0.97452 6.49865,-0.38786 8.80319,1.36989 2.88644,2.20161 6.66264,7.69418 7.97118,11.5943 l 0.95771,2.85447 8.24004,-0.2204 c 4.53203,-0.12124 8.30592,-0.28627 8.38641,-0.36678 0.0805,-0.0805 -0.0774,-0.4855 -0.35099,-0.89999 -1.67108,-2.53206 -24.85723,-29.16483 -25.39052,-29.16483 -0.15096,0 -1.63661,1.56097 -3.30144,3.4688 -7.45194,8.53965 -16.38827,18.39221 -21.27452,23.45577 -4.22985,4.38334 -4.27707,4.45882 -2.61766,4.18473 0.70962,-0.11724 3.18285,-0.21475 5.49605,-0.21674 z m -27.26541,-7.27161 c 5.30579,-10.98647 17.88079,-30.73065 28.04533,-44.03435 l 1.20928,-1.58273 -7.39223,-7.30696 c -9.8122,-9.69901 -24.32075,-22.72905 -25.30811,-22.72905 -0.1812,0 -0.42256,0.63181 -0.53636,1.40405 -0.19403,1.31666 -1.6096,9.45136 -3.14747,18.08735 -1.04102,5.84584 -2.60037,17.18569 -3.03455,22.06781 -0.52741,5.93043 -0.22816,18.83587 0.51482,22.20081 1.20651,5.46436 3.41969,10.1691 6.37052,13.54233 1.6937,1.93615 1.50024,2.03345 3.27877,-1.64926 z m 87.32434,2.30785 c 1.36,-0.69383 3.57798,-3.23242 4.59412,-5.25823 2.544,-5.07179 3.62782,-13.22271 3.03432,-22.81962 -0.57756,-9.33905 -2.02086,-17.19218 -6.83025,-37.16413 -1.18138,-4.90588 -2.22608,-9.27526 -2.32158,-9.70974 -0.14414,-0.65586 -0.60686,-0.039 -2.72588,3.63399 -4.84627,8.40025 -10.34781,16.03965 -21.34506,29.63968 -3.28048,4.05688 -6.10352,7.57356 -6.27345,7.81484 -0.31787,0.45137 1.2952,2.39122 10.71856,12.88985 6.89509,7.68189 13.807,15.62857 16.2815,18.719 1.42772,1.78308 2.57643,2.91977 2.95064,2.91977 0.33702,0 1.19971,-0.29944 1.91708,-0.66541 z m -38.3708,-1.39063 c -0.21623,-0.40403 -1.13191,-1.51572 -2.03485,-2.47045 -1.68182,-1.77828 -3.0813,-2.3763 -4.50416,-1.9247 -0.97741,0.31021 -0.8609,1.07714 0.49229,3.24049 l 1.18172,1.88924 h 2.62908 c 2.6148,0 2.62692,-0.004 2.23592,-0.73458 z m 66.23434,-1.34426 c 0.53231,-0.62833 0.59404,-1.11779 0.44618,-3.53732 -0.24235,-3.96574 -4.56473,-31.52654 -5.01493,-31.97674 -0.0983,-0.0983 -0.28569,-0.0714 -0.41662,0.0594 -0.13092,0.13091 -0.29667,8.23863 -0.36835,18.01715 l -0.13029,17.77911 1.60721,0.34021 c 2.02952,0.4296 3.09374,0.24242 3.8768,-0.68189 z m -11.34717,-16.09111 c 0.0949,-8.26733 0.0949,-16.59248 0,-18.50031 l -0.1726,-3.46882 h -0.99108 c -0.5451,0 -0.98838,0.14866 -0.98509,0.33036 0.004,0.1817 0.2263,2.48598 0.49554,5.12064 0.27943,2.73422 0.47836,7.76797 0.46347,11.72787 -0.0232,6.18975 -0.12124,7.39111 -0.90932,11.14441 -0.48579,2.31374 -1.24293,5.16234 -1.68253,6.33024 -0.43958,1.1679 -0.70548,2.21722 -0.59085,2.33185 0.11462,0.11462 1.10648,0.16494 2.20413,0.11187 l 1.99573,-0.0965 z m -53.1587,-22.54726 c 10.75587,-12.92814 22.80592,-29.1816 27.19468,-36.68099 1.94469,-3.32302 3.95915,-7.4783 3.73441,-7.70305 -0.2836,-0.2836 -7.91063,5.20416 -12.13553,8.73171 -8.3964,7.0105 -22.79286,21.4339 -27.33323,27.38435 l -0.81244,1.06476 3.91418,4.29763 c 2.15278,2.36369 3.99418,4.30033 4.09198,4.30363 0.0978,0.004 0.70347,-0.62582 1.34595,-1.39804 z m 53.70287,-6.57324 c 0.91906,-0.23141 1.993,-0.84326 2.75871,-1.57165 1.04266,-0.99188 1.22611,-1.35922 1.08936,-2.18138 -0.23393,-1.40632 -2.49539,-13.39602 -4.39255,-23.28814 -0.8886,-4.63334 -2.15649,-11.3232 -2.81751,-14.86633 -0.66103,-3.54315 -1.85283,-9.86134 -2.64842,-14.04042 -0.7956,-4.17909 -2.87285,-15.25451 -4.61612,-24.61203 -9.29563,-49.89723 -10.14606,-53.830477 -12.49068,-57.769411 -1.08948,-1.830333 -3.98849,-4.692135 -5.86631,-5.791029 l -1.07028,-0.62633 0.18913,1.410124 c 0.1254,0.934913 0.72456,2.186662 1.77794,3.714431 1.28654,1.865931 1.5822,2.555641 1.55414,3.625417 -0.0554,2.113191 -0.86966,2.667221 -4.24994,2.891681 -1.99259,0.1323 -2.92524,0.33427 -3.14438,0.68091 -0.17136,0.27103 -0.31384,3.178907 -0.31663,6.461957 -0.006,7.27019 0.29938,8.60237 2.43283,10.6073 1.19361,1.12169 1.53384,1.70871 1.81897,3.13844 0.19292,0.96727 0.58992,2.94798 0.88223,4.40157 0.2923,1.4536 3.11034,13.64399 6.2623,27.08976 3.15195,13.44577 6.57541,28.08909 7.60766,32.54073 1.03226,4.45164 3.63358,15.52706 5.78075,24.61203 2.14716,9.08498 4.23231,18.0791 4.63367,19.98695 0.40135,1.90785 0.89528,3.57803 1.0976,3.71152 0.53849,0.3553 2.01397,0.30538 3.72753,-0.1261 z m -67.11812,-9.77971 c 12.96608,-15.25037 28.12988,-28.50325 40.97552,-35.81187 1.35609,-0.77155 2.46562,-1.51075 2.46562,-1.64266 0,-0.13191 -1.04949,-4.59939 -2.33219,-9.92774 -1.28269,-5.32836 -4.45887,-18.67244 -7.05815,-29.65351 -4.36134,-18.42519 -4.79454,-20.02459 -5.61493,-20.73027 -1.06209,-0.91357 -0.7374,-0.9091 -32.16999,-0.44324 -18.49985,0.27419 -20.35643,0.35181 -21.47359,0.89786 -0.67259,0.32873 -1.39765,0.96936 -1.61125,1.42362 -0.34397,0.73152 -1.57574,7.21861 -4.73608,24.94239 -0.51838,2.90719 -1.92932,10.63768 -3.13542,17.17886 -2.693,14.60533 -3.8687,21.56233 -3.73499,22.1012 0.0559,0.22562 2.25741,2.25432 4.89205,4.50821 8.18327,7.00062 14.38332,12.72622 22.95706,21.2003 4.54423,4.49138 8.35631,8.1708 8.47131,8.17647 0.115,0.006 1.06227,-0.99316 2.10503,-2.21962 z m 21.52731,-106.65923 3.02858,-0.18813 -0.18233,-6.99142 c -0.10027,-3.84529 -0.20251,-7.01922 -0.22719,-7.05318 -0.0627,-0.0863 -44.58383,0.56249 -44.6546,0.65071 -0.0317,0.0395 -0.13065,3.24708 -0.21992,7.12802 l -0.16231,7.05625 19.6946,-0.20705 c 10.83204,-0.11387 21.05746,-0.29171 22.72317,-0.3952 z m -32.29431,-4.84873 c -1.51556,-1.16361 -1.65024,-2.90393 -0.32714,-4.22704 1.58152,-1.58152 3.6552,-1.18635 4.50999,0.85945 0.51502,1.2326 0.36932,1.94084 -0.62704,3.04773 -0.74946,0.8326 -2.6637,1.0048 -3.55581,0.31986 z m 12.35084,-0.40348 c -0.96349,-0.67487 -1.53084,-2.47313 -1.12064,-3.55204 0.74801,-1.96742 3.67101,-2.58242 5.16641,-1.08703 1.11678,1.11679 1.14059,3.38928 0.0463,4.41733 -0.9125,0.85725 -3.02156,0.97153 -4.09205,0.22174 z m 12.00402,-0.84886 c -0.67941,-0.53442 -0.87046,-0.97277 -0.87046,-1.99719 0,-1.74643 1.13947,-2.93427 2.81479,-2.93427 1.57156,0 2.29146,0.42077 2.79349,1.63278 1.20726,2.91458 -2.20544,5.29066 -4.73782,3.29868 z m 8.16067,-18.031665 8.20522,-0.209967 -0.11138,-5.102442 c -0.10763,-4.933554 -0.13777,-5.123831 -0.90974,-5.748488 -0.77733,-0.62899 -1.24819,-0.640277 -17.83959,-0.427439 -9.37266,0.120242 -21.31125,0.312804 -26.53021,0.427926 -11.94075,0.263395 -10.94956,-0.33554 -11.10062,6.707649 l -0.10713,4.995211 20.09408,-0.216235 c 11.05175,-0.118993 23.78644,-0.310718 28.29932,-0.426215 z m 6.15122,-16.689793 c 0.45473,-0.172895 0.93904,-0.49088 1.07623,-0.706641 0.1372,-0.215748 0.25172,-2.119025 0.25451,-4.229498 0.005,-3.440978 -0.0689,-3.931259 -0.7115,-4.748141 l -0.71655,-0.910952 -25.29953,0.231344 c -13.91473,0.127246 -25.83124,0.367242 -26.48112,0.533346 -1.77412,0.453447 -2.03418,1.237053 -1.90389,5.736682 0.0988,3.412491 0.19115,3.935136 0.77295,4.375685 0.58321,0.441598 3.6832,0.472851 26.42141,0.266405 14.87043,-0.135013 26.11021,-0.366768 26.58749,-0.54823 z M 204.00947,56.697553 c 0.71955,-0.503991 0.73424,-0.654574 0.73424,-7.532272 0,-5.017961 -0.113,-7.130968 -0.39644,-7.414428 -0.25924,-0.259238 -1.62721,-0.396436 -3.95274,-0.396436 -3.09031,0 -3.59811,0.07816 -3.87547,0.596389 -0.42119,0.787002 -0.45339,12.672448 -0.0373,13.766847 0.43245,1.137388 1.34121,1.448269 4.30668,1.473241 1.74392,0.01473 2.70613,-0.13269 3.22104,-0.493341 z m -12.00833,-7.272847 c 0.67326,-0.673266 0.76032,-7.128508 0.10351,-7.673629 -0.64646,-0.536517 -7.13236,-0.01848 -7.52403,0.600897 -0.46961,0.742664 -0.39512,6.048642 0.0936,6.664822 0.60307,0.760406 1.11197,0.87207 4.10594,0.900975 2.04191,0.01973 2.8287,-0.100763 3.22104,-0.493065 z m 24.15953,-0.281426 c 0.55678,-0.408259 0.64079,-0.880923 0.63758,-3.587671 -0.002,-2.017326 -0.15067,-3.294547 -0.42016,-3.619262 -0.48762,-0.587548 -6.14526,-1.004461 -7.0919,-0.522608 -0.49322,0.251072 -0.57813,0.786091 -0.57813,3.642873 0,4.420186 0.11862,4.556872 3.95241,4.556872 1.95218,0 3.06231,-0.149135 3.5002,-0.470204 z M 203.69961,22.523736 c 1.07194,-2.965349 1.30284,-7.023524 0.48834,-8.582845 -1.28454,-2.459223 -3.87854,-3.24655 -6.61026,-2.006338 -3.14406,1.427417 -3.56932,5.894027 -1.09394,11.490047 l 0.636,1.437768 2.90182,-0.09564 2.90181,-0.09564 z"
       id="path5888" /></g><metadata
     id="metadata182"><rdf:RDF><cc:Work
         rdf:about=""><cc:license
           rdf:resource="http://creativecommons.org/licenses/by-sa/4.0/" /><dc:creator><cc:Agent><dc:title>Jameela P</dc:title></cc:Agent></dc:creator><dc:publisher><cc:Agent><dc:title>OpenDataKerala.org</dc:title></cc:Agent></dc:publisher><dc:date>April 2026</dc:date><dc:title>Election Symbols of Kerala</dc:title></cc:Work><cc:License
         rdf:about="http://creativecommons.org/licenses/by-sa/4.0/"><cc:permits
           rdf:resource="http://creativecommons.org/ns#Reproduction" /><cc:permits
           rdf:resource="http://creativecommons.org/ns#Distribution" /><cc:requires
           rdf:resource="http://creativecommons.org/ns#Notice" /><cc:requires
           rdf:resource="http://creativecommons.org/ns#Attribution" /><cc:permits
           rdf:resource="http://creativecommons.org/ns#DerivativeWorks" /><cc:requires
           rdf:resource="http://creativecommons.org/ns#ShareAlike" /></cc:License></rdf:RDF></metadata></svg>
