<?xml version="1.0" encoding="UTF-8" standalone="no"?>
<svg
   viewBox="0 0 263 345"
   version="1.1"
   id="svg1139"
   sodipodi:docname="kla2026.svg"
   width="263"
   height="345"
   inkscape:version="1.2.2 (b0a8486541, 2022-12-01)"
   xmlns:inkscape="http://www.inkscape.org/namespaces/inkscape"
   xmlns:sodipodi="http://sodipodi.sourceforge.net/DTD/sodipodi-0.dtd"
   xmlns="http://www.w3.org/2000/svg"
   xmlns:svg="http://www.w3.org/2000/svg">
  <defs
     id="defs1143" />
  <sodipodi:namedview
     id="namedview1141"
     pagecolor="#ffffff"
     bordercolor="#000000"
     borderopacity="0.25"
     inkscape:showpageshadow="2"
     inkscape:pageopacity="0.0"
     inkscape:pagecheckerboard="0"
     inkscape:deskcolor="#d1d1d1"
     showgrid="false"
     inkscape:zoom="2.2753623"
     inkscape:cx="231.17197"
     inkscape:cy="173.81847"
     inkscape:window-width="1854"
     inkscape:window-height="1011"
     inkscape:window-x="0"
     inkscape:window-y="0"
     inkscape:window-maximized="1"
     inkscape:current-layer="qgisviewbox" />
  <!-- svg generated using QGIS www.qgis.org -->
  <g
     id="kla_map_—_collection"
     inkscape:groupmode="layer"
     inkscape:label="kla_map_—_collection">
    <!-- start of layer g-element -->
    <g
       stroke="#232323"
       fill="#b7484b"
       stroke-linejoin="round"
       stroke-width="0.98254"
       id="g1133">
      <!-- start of symbol -->
      <g
         id="kla_map_—_collection_1"
         inkscape:label="NULL"
         transform="translate(-194.78697,4.1751592)">
        <path
           d="m 247,17 v 1 h 1 v 1 l -1,1 h -1 v -1 h -1 v -1 h -1 -1 -2 -1 v 1 h -1 l -1,1 -2,3 -1,-1 h -1 l -1,1 v 1 l -1,-4 v 1 -1 l 1,-1 h -1 v 1 -1 -2 h 1 l -2,2 -2,-7 v 1 h 1 -1 v -1 h -1 1 -1 L 227,9 V 8 l 1,1 4,-2 2,-1 v 1 h 2 V 6 h 1 v 1 1 l -1,2 v -1 1 l 2,1 h -1 l 1,1 v -1 h 2 1 l -1,1 h 1 -1 l 1,1 h -1 v 1 1 h 1 1 l 1,-1 v -1 -1 l 1,1 1,1 h 1 2 v 1 1 l -1,1"
           id="path711" />
      </g>
      <!-- end feature g -->
      <g
         id="kla_map_—_collection_2"
         inkscape:label="NULL"
         transform="translate(-194.78697,4.1751592)">
        <path
           d="m 247,17 1,1 h 1 l 1,-1 1,1 v 1 h 1 v 1 h -1 v 1 l 1,-1 v 1 l 1,1 h -1 l 1,1 h -1 v 1 h -1 -1 v -1 h -1 v 1 h -1 v 1 h -1 v 1 l -1,-1 -1,-1 -1,1 h -1 v 1 l -2,-1 v 1 l 1,1 -1,1 h -2 v -1 h -1 -1 v 1 1 h -1 l -2,-5 v 1 l -1,-2 1,-1 h 1 l 1,1 2,-3 1,-1 h 1 v -1 h 1 2 1 1 v 1 h 1 v 1 h 1 l 1,-1 v -1 h -1 v -1"
           id="path714" />
      </g>
      <!-- end feature g -->
      <g
         id="kla_map_—_collection_3"
         inkscape:label="NULL"
         transform="translate(-194.78697,4.1751592)">
        <path
           d="m 260,27 -1,1 -1,1 h -1 l -1,1 h -1 v -1 l -1,1 v -1 h -1 v 1 1 1 h -1 -1 -1 -1 v 1 l -1,1 h 1 v 1 h -1 -1 l -1,2 h -1 v 1 h -1 -2 1 v -1 -2 h -1 l -1,1 -1,1 v -2 h -1 l -1,-2 -2,-4 h 1 v -1 -1 h 1 1 v 1 h 2 l 1,-1 -1,-1 v -1 l 2,1 v -1 h 1 l 1,-1 1,1 1,1 v -1 h 1 v -1 h 1 v -1 h 1 v 1 h 1 1 v -1 h 1 l -1,-1 h 1 1 v -1 h 1 l 1,-1 v -1 h 1 1 v 1 l 1,-1 v 2 l 1,-1 1,1 -1,1 -2,-1 -1,1 -1,1 1,2 h 2 v 2 h 1"
           id="path717" />
      </g>
      <!-- end feature g -->
      <g
         id="kla_map_—_collection_4"
         inkscape:label="NULL"
         transform="translate(-194.78697,4.1751592)">
        <path
           d="m 266,38 h -1 l -1,-1 h -1 -1 -3 -1 v 1 h -1 l 1,1 v 1 h -1 l -1,3 -1,1 h -2 v -1 h -1 l -2,1 -1,-1 h -1 -1 l -1,1 h -1 v 1 l -1,1 -4,-9 1,-1 1,-1 h 1 v 2 1 h -1 2 1 v -1 h 1 l 1,-2 h 1 1 v -1 h -1 l 1,-1 v -1 h 1 1 1 1 v -1 -1 -1 h 1 v 1 l 1,-1 v 1 h 1 l 1,-1 h 1 l 1,-1 1,-1 h 1 v 1 1 h 1 l -1,1 h 1 1 l 1,-1 -1,-1 1,-1 h 1 1 1 v 2 1 l -2,1 v -1 h -2 l 1,2 -1,1 1,1 v 1 h 1 l 1,1 h 1 v 2 h -1"
           id="path720" />
      </g>
      <!-- end feature g -->
      <g
         id="kla_map_—_collection_5"
         inkscape:label="NULL"
         transform="translate(-194.78697,4.1751592)">
        <path
           d="m 266,38 1,2 1,1 -1,1 h -1 -1 l -1,1 h -1 l -1,1 h -1 l -1,-1 -2,1 v 2 l -3,1 -1,1 -1,-1 -1,2 -3,1 1,1 1,2 -1,1 1,1 v 1 h -1 -1 v 1 l -3,-8 -1,-1 -1,-2 1,-1 v -1 h 1 l 1,-1 h 1 1 l 1,1 2,-1 h 1 v 1 h 2 l 1,-1 1,-3 h 1 v -1 l -1,-1 h 1 v -1 h 1 3 1 1 l 1,1 h 1"
           id="path723" />
      </g>
      <!-- end feature g -->
      <g
         id="kla_map_—_collection_6"
         inkscape:label="NULL"
         transform="translate(-194.78697,4.1751592)">
        <path
           d="m 267,42 h 1 2 1 1 v 1 h -1 v 1 h -1 l -1,1 v 1 h -2 v 1 -1 h -1 -1 v -1 h -1 v 1 1 2 1 1 l 1,-1 v 1 1 h -1 l -1,1 h -1 -1 v -1 l -1,1 h -1 v 1 l -2,1 v 1 l -1,-1 -2,1 v -1 h -1 v 1 1 1 2 1 1 l -2,1 -2,-6 v -1 h 1 1 v -1 l -1,-1 1,-1 -1,-2 -1,-1 3,-1 1,-2 1,1 1,-1 3,-1 v -2 l 2,-1 1,1 h 1 l 1,-1 h 1 l 1,-1 h 1 1"
           id="path726" />
      </g>
      <!-- end feature g -->
      <g
         id="kla_map_—_collection_7"
         inkscape:label="NULL"
         transform="translate(-194.78697,4.1751592)">
        <path
           d="m 272,43 1,1 h 1 v 1 1 l 1,1 1,1 -1,1 h 1 1 v 1 l 1,1 1,1 1,1 v -1 h 1 1 l 1,1 1,2 1,1 h 1 l 1,-1 h 1 v 2 h 1 v 1 l -3,2 v 1 l -1,1 -1,-1 v 1 h -2 l -1,-1 h 1 -1 l -1,-1 h -1 l -1,1 v 1 h -1 l 1,3 -1,1 -1,-1 v -1 h -1 -1 v -1 h 1 v -1 h -1 -1 v -1 l -1,-1 -1,2 v 1 h -1 l -1,-1 h -1 v -1 -1 h -1 v -1 h 1 v -1 -2 -1 h 1 v -1 l 1,-1 h -1 l -1,-1 v 1 -1 1 l -1,-1 h -2 v -1 -1 l -1,1 v -1 -1 -2 -1 -1 h 1 v 1 h 1 1 v 1 -1 h 2 v -1 l 1,-1 h 1 v -1 h 1"
           id="path729" />
      </g>
      <!-- end feature g -->
      <g
         id="kla_map_—_collection_8"
         inkscape:label="NULL"
         transform="translate(-194.78697,4.1751592)">
        <path
           d="m 265,52 h 2 l 1,1 v -1 1 -1 l 1,1 h 1 l -1,1 v 1 h -1 v 1 2 1 h -1 v 1 h 1 v 1 1 h 1 l 1,1 h 1 v -1 l 1,-2 1,1 v 1 h 1 1 v 1 h -1 v 1 h -1 l 1,1 -1,1 v 1 1 h -2 -1 -1 v -1 h -1 v 1 1 h -1 -1 l 1,-2 h -1 l -1,-2 v 1 h -1 l 1,-1 h -1 v -1 l -3,1 v -1 -1 h 1 v -1 -1 h -1 v -1 -1 h -1 -2 l 2,-2 -1,-1 v -1 h 1 l 1,1 2,-2 3,-1 -1,-1"
           id="path732" />
      </g>
      <!-- end feature g -->
      <g
         id="kla_map_—_collection_9"
         inkscape:label="8"
         transform="translate(-194.78697,4.1751592)">
        <path
           d="m 265,52 1,1 -3,1 -2,2 -1,-1 h -1 v 1 l 1,1 -2,2 h 2 1 v 1 1 h 1 v 1 1 h -1 v 1 1 l 3,-1 v 1 1 h -1 l -1,1 -1,-1 v 1 h -2 -1 l -3,-4 -2,-1 v -1 -1 -2 -1 -1 -1 h 1 v 1 l 2,-1 1,1 v -1 l 2,-1 v -1 h 1 l 1,-1 v 1 h 1 1 l 1,-1 h 1"
           id="path735" />
      </g>
      <!-- end feature g -->
      <g
         id="kla_map_—_collection_10"
         inkscape:label="NULL"
         transform="translate(-194.78697,4.1751592)">
        <path
           d="m 289,58 h 1 1 v -1 h 3 l 1,1 v 1 h -1 l 1,1 v 1 h 1 l -1,1 h 1 v 1 h 1 v 2 h 1 l 1,1 1,1 h 1 1 1 l 1,1 1,-1 v 1 h -1 v 1 l 1,1 v 1 l -1,1 h -1 l 1,2 v 1 -1 l -1,1 h -2 l -1,-1 h -1 -1 -1 -1 -1 -1 1 -1 v 1 h -1 l -1,-1 h -1 l 1,-1 h -1 v -1 l -1,1 -1,-1 h -1 v -1 h -1 v -1 h -2 l 1,-1 v -2 h -2 -1 v 1 h -1 -1 -1 -1 v -1 l 1,-1 v -1 h 2 v -1 h 1 l 2,-2 1,-1 v -1 l 3,-2"
           id="path738" />
      </g>
      <!-- end feature g -->
      <g
         id="kla_map_—_collection_11"
         inkscape:label="NULL"
         transform="translate(-194.78697,4.1751592)">
        <path
           d="m 285,62 -2,2 h -1 v 1 h -2 v 1 l -1,1 v 1 h 1 1 1 1 v -1 h 1 2 v 2 l -1,1 h 2 v 1 h 1 v 1 h 1 l 1,1 1,-1 v 1 h 1 l -1,1 h -1 v 1 l -1,-1 h -1 -1 1 -1 l -1,1 h -1 1 -1 -1 -1 l -3,1 v -1 1 -1 l -1,1 v -1 -1 h -1 -1 v 1 h -2 v -2 h 1 v -1 -1 h -1 l -1,-1 h -2 -1 l -1,-2 h 1 2 v -1 -1 l 1,-1 -1,-1 h 1 1 1 v 1 l 1,1 1,-1 -1,-3 h 1 v -1 l 1,-1 h 1 l 1,1 h 1 -1 l 1,1 h 2 v -1 l 1,1"
           id="path741" />
      </g>
      <!-- end feature g -->
      <g
         id="kla_map_—_collection_12"
         inkscape:label="NULL"
         transform="translate(-194.78697,4.1751592)">
        <path
           d="m 267,69 h -1 l -1,2 v 1 h -1 v -1 l -2,2 -2,-3 v -1 l -1,-1 v -1 h 2 v -1 l 1,1 1,-1 h 1 v -1 h 1 l -1,1 h 1 v -1 l 1,2 h 1 l -1,2 h 1"
           id="path744" />
      </g>
      <!-- end feature g -->
      <g
         id="kla_map_—_collection_13"
         inkscape:label="NULL">
        <path
           d="m 110.21303,71.175159 1,1 h 2 1 1 l 1,-1 1,1 2,-2 h 2 l 1,-1 v 9 h 1 l -1,1 h -1 v 2 h -1 v 1 h 1 v 1 h 2 v 1 l -1,1 h 1 v 1 h -1 -1 -1 v 2 1 h -1 l -1,2 v -1 l -2,-1 v 1 -1 h -1 l 1,-1 h -1 l 1,1 v -1 l 1,-1 h -1 l -1,1 h -1 -1 v 1 h -1 l -1,1 v -1 l -2,1 h -1 l -1,-1 h -1 -1 -2 v -1 h -1 l -2,-2 h -1.000003 1.000003 v -1 h -1.000003 v -1 -1 l -1,-1 2.000003,-2 -1.000003,-1 1.000003,-1 h 1 1 1 1 1 l 1,1 h 2 l 1,-1 v 1 -1 l -1,-2 h 1 l 1,-1 v -1 l -1,-1 v -1 h 1 v -1"
           id="path747" />
      </g>
      <!-- end feature g -->
      <g
         id="kla_map_—_collection_14"
         inkscape:label="NULL"
         transform="translate(-194.78697,4.1751592)">
        <path
           d="m 270,68 1,2 h 1 l -1,1 h -1 l -1,1 h -1 v 4 -1 h 1 v 1 1 h -1 l -3,-3 h -1 -1 v -1 h -1 l 2,-2 v 1 h 1 v -1 l 1,-2 h 1 1 v -1 -1 h 1 v 1 h 1"
           id="path750" />
      </g>
      <!-- end feature g -->
      <g
         id="kla_map_—_collection_15"
         inkscape:label="14"
         transform="translate(-194.78697,4.1751592)">
        <path
           d="m 272,70 h 2 l 1,1 h 1 v 1 1 h -1 v 2 1 h 1 v 1 l -1,1 h -1 -1 -1 v 1 l -1,1 h -1 v -1 h -1 l -1,-2 h 1 v -1 -1 h -1 v 1 -4 h 1 l 1,-1 h 1 l 1,-1"
           id="path753" />
      </g>
      <!-- end feature g -->
      <g
         id="kla_map_—_collection_16"
         inkscape:label="NULL"
         transform="translate(-194.78697,4.1751592)">
        <path
           d="m 275,75 h 2 v -1 h 1 1 v 1 1 l 1,-1 v 1 -1 1 l 3,-1 h 1 1 1 -1 1 l 1,-1 h 1 -1 1 1 l 1,1 v -1 h 1 1 l 1,1 h 1 v -1 h 1 -1 1 l -1,1 1,1 -2,2 h -2 l 1,1 h -1 -1 l -1,-1 h -2 l -1,1 -1,1 v 1 h -1 l -1,1 h -1 l -1,2 v -1 l -1,1 h -1 1 v 1 1 h -1 l -1,1 -1,-1 h 1 v -1 l 1,-2 h -1 v -1 -1 l -1,-1 v -1 h -1 v -1 h -1 l 1,-1 v -1 h -1 v -1"
           id="path756" />
      </g>
      <!-- end feature g -->
      <g
         id="kla_map_—_collection_17"
         inkscape:label="NULL"
         transform="translate(-194.78697,4.1751592)">
        <path
           d="m 326,95 -1,1 -2,-1 h -1 v -1 l -1,-1 v -1 h 1 v -1 l -1,-2 h -1 -1 v -1 -1 l 1,-1 h -1 l -2,-1 h -1 l 1,-1 1,-2 v -1 h -1 l 1,-1 v -1 h -2 v -1 h -1 v -1 h 1 v -2 h 1 l 1,-1 3,-1 h 2 1 l 1,2 -1,1 1,1 2,1 3,-1 v 1 l 2,1 v 2 l 1,1 h 1 1 1 1 l 1,-1 h 1 v 1 h 1 v 1 l -1,1 v 1 1 1 l 2,1 v 1 1 h -2 -2 v 2 l -2,1 h -1 -1 l -1,1 h -1 v -1 h -1 l -1,-1 v 1 h -1 l -2,2"
           id="path759" />
      </g>
      <!-- end feature g -->
      <g
         id="kla_map_—_collection_18"
         inkscape:label="17"
         transform="translate(-194.78697,4.1751592)">
        <path
           d="m 275,78 h 1 v 1 h 1 v 1 l 1,1 v 1 1 h 1 l -1,2 v 1 l -1,-1 h -1 v -1 l -1,1 -1,-1 v -1 h -1 l -1,-1 -1,-2 1,-1 v -1 h 1 1 1"
           id="path762" />
        <path
           d="m 275,84 h 1 -1 1 1 v -1 h -1 v -2 h -1 l 1,1 v 1 h -1 v 1"
           id="path764" />
      </g>
      <!-- end feature g -->
      <g
         id="kla_map_—_collection_19"
         inkscape:label="NULL"
         transform="translate(-194.78697,4.1751592)">
        <path
           d="m 293,78 1,1 v 1 1 h 1 v 1 h -1 1 l 2,2 h 1 v 1 h 2 1 1 l 1,1 -1,1 -4,1 -1,2 -1,-1 -1,1 v 1 h -1 l -1,-2 h -1 l -1,-1 h -1 v -1 -1 h -1 l 1,-1 h -1 l -1,1 h -2 l 1,1 -1,1 h -2 l -1,-1 v -1 h -1 v 2 h 1 -1 v 1 l -1,-1 v -1 h -1 v -1 -1 -1 h -1 1 l 1,-1 v 1 l 1,-2 h 1 l 1,-1 h 1 v -1 l 1,-1 1,-1 h 2 l 1,1 h 1 1 l -1,-1 h 2"
           id="path767" />
      </g>
      <!-- end feature g -->
      <g
         id="kla_map_—_collection_20"
         inkscape:label="NULL"
         transform="translate(-194.78697,4.1751592)">
        <path
           d="m 318,82 -1,2 -1,1 h 1 l 2,1 h 1 l -1,1 v 1 1 h 1 1 l 1,2 v 1 h -1 v 1 l 1,1 v 1 h 1 l 2,1 1,-1 1,1 v 1 1 h -1 v 1 h -2 l -1,1 -1,1 h 1 v 1 h -1 l -1,1 h -1 l -2,-1 -1,-1 h -1 v -1 -1 l -1,-1 -2,1 h -1 -1 l -3,-2 -2,-2 v -1 l -3,-2 -1,-1 v -2 -1 -1 l 1,-1 h 1 l 2,-1 v 1 l 1,-1 h 1 v -1 h 1 1 l 1,-1 h 1 l -1,1 v 1 l -1,-1 h 1 l -1,1 h 1 v 1 -1 l 2,1 v 1 l 1,-2 h 1 v -1 -2 h 1 1 1"
           id="path770" />
      </g>
      <!-- end feature g -->
      <g
         id="kla_map_—_collection_21"
         inkscape:label="NULL"
         transform="translate(-194.78697,4.1751592)">
        <path
           d="m 276,85 h 1 l 1,1 h -1 l 1,1 1,-1 h 1 v 1 h 1 v 1 l 1,1 v 1 l -1,1 v 1 h 1 l -1,2 h 1 v -1 1 l -1,1 -1,-1 v 1 l -2,-5 -2,-4 v -1"
           id="path773" />
      </g>
      <!-- end feature g -->
      <g
         id="kla_map_—_collection_22"
         inkscape:label="NULL"
         transform="translate(-194.78697,4.1751592)">
        <path
           d="m 282,89 v -1 h 1 -1 v -2 h 1 v 1 l 1,1 h 2 l 1,-1 -1,-1 h 2 l 1,-1 h 1 l -1,1 h 1 v 1 1 h 1 l 1,1 -1,1 -1,1 1,2 -3,-1 -1,2 -1,1 v 1 1 h -1 l -1,1 -2,-1 v -1 -1 h -1 l 1,-1 v -1 1 h -1 l 1,-2 h -1 v -1 l 1,-1 v -1"
           id="path776" />
      </g>
      <!-- end feature g -->
      <g
         id="kla_map_—_collection_23"
         inkscape:label="NULL"
         transform="translate(-194.78697,4.1751592)">
        <path
           d="m 302,87 v 1 1 2 h -1 v 2 1 l -2,2 -1,-1 v 1 h -1 l -1,-1 -1,1 h -1 v 1 1 l -1,1 h -1 -1 -1 v 1 1 l 1,1 -1,2 -1,-1 -1,-1 h -1 v -1 h -1 l -1,-2 h -1 v -1 l 1,-1 h 1 v -1 -1 l 1,-1 1,-2 3,1 -1,-2 1,-1 1,-1 h 1 l 1,2 h 1 v -1 l 1,-1 1,1 1,-2 4,-1"
           id="path779" />
      </g>
      <!-- end feature g -->
      <g
         id="kla_map_—_collection_24"
         inkscape:label="NULL"
         transform="translate(-194.78697,4.1751592)">
        <path
           d="m 308,97 -3,2 h -2 -2 l 2,1 -1,2 1,1 h -1 v 1 l 1,2 h -1 l -1,1 -2,-1 h -1 l 1,-1 h -2 l 1,-1 -1,-1 v 1 l -1,1 h -1 v 1 -1 l -1,1 v -1 h -1 l 1,1 -1,1 v 1 h -1 v 1 h -1 v -3 -1 h -1 v -1 l 1,-2 -1,-1 v -1 -1 h 1 1 1 l 1,-1 v -1 -1 h 1 l 1,-1 1,1 h 1 v -1 l 1,1 2,-2 v -1 -2 h 1 l 1,1 3,2 v 1 l 2,2"
           id="path782" />
      </g>
      <!-- end feature g -->
      <g
         id="kla_map_—_collection_25"
         inkscape:label="NULL"
         transform="translate(-194.78697,4.1751592)">
        <path
           d="m 281,95 h 1 v 1 1 l 2,1 v 1 h 1 l 1,2 h 1 v 1 h 1 l 1,1 1,1 v 1 h 1 v 1 3 1 h -1 l -1,-3 -3,-4 -1,-1 h -1 -1 -1 v -1 l -2,-6 v -1 l 1,1"
           id="path785" />
      </g>
      <!-- end feature g -->
      <g
         id="kla_map_—_collection_26"
         inkscape:label="NULL"
         transform="translate(-194.78697,4.1751592)">
        <path
           d="m 308,97 -3,3 v 1 l -1,1 v 1 h 1 v 1 h 1 l 1,1 1,-2 1,1 v 1 h -1 l 1,1 v 1 h -1 v 1 h 1 l -1,1 h -1 v 1 h -1 1 l -1,1 v -1 l -1,1 h -1 v 1 l -1,-1 h -2 v 1 h -1 -1 v -1 h -1 -1 v -1 h -1 l 1,-1 v 1 l 1,-1 h 1 v -2 -1 l 2,1 1,-1 h 1 l -1,-2 v -1 h 1 l -1,-1 1,-2 -2,-1 h 2 2 l 3,-2"
           id="path788" />
      </g>
      <!-- end feature g -->
      <g
         id="kla_map_—_collection_27"
         inkscape:label="NULL"
         transform="translate(-194.78697,4.1751592)">
        <path
           d="m 308,97 3,2 h 1 1 l 2,-1 1,1 v 1 1 h 1 l 1,1 2,1 -1,1 1,1 h -1 l -1,1 h -1 v 1 h -1 v 1 l 1,1 -1,1 1,1 h 1 v 1 1 h -3 l -1,2 h 1 -1 l -1,2 -3,-1 v 1 h -1 l -1,-1 v -1 l -1,-1 -1,-1 v -1 -1 l 1,-1 h -1 1 v -1 h 1 l 1,-1 h -1 v -1 h 1 v -1 l -1,-1 h 1 v -1 l -1,-1 -1,2 -1,-1 h -1 v -1 h -1 v -1 l 1,-1 v -1 l 3,-3"
           id="path791" />
      </g>
      <!-- end feature g -->
      <g
         id="kla_map_—_collection_28"
         inkscape:label="NULL"
         transform="translate(-194.78697,4.1751592)">
        <path
           d="m 327,98 v 1 3 l 1,-1 h 1 1 l 1,1 h -1 1 l 2,1 1,-1 2,1 2,1 h 2 l -1,1 4,3 4,1 -1,1 h 3 v 2 l -1,1 v 1 h 1 l -2,1 v 1 l -5,3 v 1 l -5,-1 -2,-1 v 1 -1 l -2,1 -1,-1 v 1 h -1 l -2,1 -1,-1 h -2 v -2 h -1 -1 v -1 h -1 l 1,-1 v -1 h -1 l 1,-1 -1,-1 1,-1 v -1 h -1 l -1,-1 h -1 l -1,-1 h -1 v 1 h -1 v 2 h -1 l -1,-1 1,-1 -1,-1 v -1 h 1 v -1 h 1 l 1,-1 h 1 l -1,-1 1,-1 h 1 l 1,-1 h 1 v -1 h -1 l 1,-1 1,-1 h 2 v -1 h 1"
           id="path794" />
      </g>
      <!-- end feature g -->
      <g
         id="kla_map_—_collection_29"
         inkscape:label="NULL"
         transform="translate(-194.78697,4.1751592)">
        <path
           d="m 299,106 v 1 2 h -1 l -1,1 v -1 l -1,1 h 1 v 1 h 1 1 v 1 h 1 v 1 l -1,1 h -1 -1 -1 l -1,-1 h -1 -1 -1 v 1 l -1,-1 -1,-1 v -2 h 1 v -1 h 1 v -1 h 1 v -1 l 1,-1 -1,-1 h 1 v 1 l 1,-1 v 1 -1 h 1 l 1,-1 v -1 l 1,1 -1,1 h 2 l -1,1 h 1"
           id="path797" />
      </g>
      <!-- end feature g -->
      <g
         id="kla_map_—_collection_30"
         inkscape:label="NULL"
         transform="translate(-194.78697,4.1751592)">
        <path
           d="m 318,111 v -2 h 1 v -1 h 1 l 1,1 h 1 l 1,1 h 1 v 1 l -1,1 1,1 -1,1 h 1 v 1 l -1,1 h 1 v 1 h -1 v -1 h -1 -1 l -1,1 v -1 l -1,1 1,1 1,1 h 1 v 1 l -1,1 -1,2 h -1 l -1,-1 h -1 v 1 l -1,-1 v 1 1 h -1 -1 l -1,-1 h -1 l 1,-1 h -1 v 1 1 l -1,-1 -1,1 h -1 v 1 -1 l -1,1 -1,-1 h 1 v -1 -1 l 1,1 v -1 h 1 1 v -1 -1 l -1,-1 h 1 l -2,-1 v -1 h 1 v -1 l 3,1 1,-2 h 1 -1 l 1,-2 h 3 v -1 -1"
           id="path800" />
      </g>
      <!-- end feature g -->
      <g
         id="kla_map_—_collection_31"
         inkscape:label="NULL"
         transform="translate(-194.78697,4.1751592)">
        <path
           d="m 306,111 v 1 1 l 1,1 1,1 v 1 l -1,1 -1,1 h -2 l -1,1 -1,-1 v 1 l -2,1 v 1 h -1 -1 l -1,1 1,-1 h -1 -1 v -1 h -1 v -1 l 1,1 v -1 -1 h 1 v -1 h 2 l -1,-1 h 1 l 1,-1 -1,-1 1,-1 v -1 h 1 v -1 h 2 l 1,1 v -1 h 1 l 1,-1 v 1"
           id="path803" />
      </g>
      <!-- end feature g -->
      <g
         id="kla_map_—_collection_32"
         inkscape:label="NULL"
         transform="translate(-194.78697,4.1751592)">
        <path
           d="m 299,114 1,1 -1,1 h -1 -1 -2 v 1 l -1,2 v -1 h -1 l -2,-5 1,1 v -1 h 1 1 1 l 1,1 h 1 1 1"
           id="path806" />
      </g>
      <!-- end feature g -->
      <g
         id="kla_map_—_collection_33"
         inkscape:label="NULL"
         transform="translate(-194.78697,4.1751592)">
        <path
           d="m 298,116 1,1 h -2 v 1 h -1 v 1 1 l -1,-1 v 1 1 h -1 l -1,-3 h 1 v 1 l 1,-2 v -1 h 2 1"
           id="path809" />
      </g>
      <!-- end feature g -->
      <g
         id="kla_map_—_collection_34"
         inkscape:label="NULL"
         transform="translate(-194.78697,4.1751592)">
        <path
           d="m 309,117 v 1 l 2,1 h -1 l 1,1 v 1 1 h -1 -1 v 1 l -1,-1 v 1 1 h -1 l 1,1 2,1 v 1 1 1 l -1,-1 h -2 v -1 -1 h -1 l -1,-2 h -1 v 1 h -1 l -1,-2 h -1 v -1 l -1,1 v -1 h -1 v -1 h 1 v -1 l 2,-1 v -1 l 1,1 1,-1 h 2 l 1,-1 1,-1 1,1"
           id="path812" />
      </g>
      <!-- end feature g -->
      <g
         id="kla_map_—_collection_35"
         inkscape:label="NULL"
         transform="translate(-194.78697,4.1751592)">
        <path
           d="m 342,120 v 1 h -1 -2 v 2 2 1 1 l -1,1 -2,1 h -1 -1 -1 l -1,1 -1,-1 h -1 -1 v -1 -1 l 1,-1 -1,-1 v 1 -2 l -2,1 -1,1 h -1 -1 l -1,-1 1,-2 h -1 v -1 h -1 l -1,1 v 1 l -1,-1 1,-2 1,-1 v -1 h -1 l -1,-1 -1,-1 1,-1 v 1 l 1,-1 h 1 1 v 1 h 1 1 1 v 2 h 2 l 1,1 2,-1 h 1 v -1 l 1,1 2,-1 v 1 -1 l 2,1 5,1"
           id="path815" />
      </g>
      <!-- end feature g -->
      <g
         id="kla_map_—_collection_36"
         inkscape:label="NULL"
         transform="translate(-194.78697,4.1751592)">
        <path
           d="m 295,120 h 1 v 1 h 1 1 l -1,1 1,-1 h 1 v 1 h 1 v 1 l 1,-1 v 1 1 -1 l -1,1 v -1 h -1 v 1 1 1 h -1 l -1,1 -1,-2 h -1 v -1 l -1,-3 h 1 v -1"
           id="path818" />
      </g>
      <!-- end feature g -->
      <g
         id="kla_map_—_collection_37"
         inkscape:label="NULL"
         transform="translate(-194.78697,4.1751592)">
        <path
           d="m 341,121 h 1 l 1,1 h 1 v -1 h 1 1 1 l 1,1 5,-1 2,1 3,-2 1,-1 h 1 1 l 1,1 v 1 1 h -1 v 1 h -1 -1 v 1 l 1,2 h 1 v -1 l 1,1 h 1 v 1 1 1 h 1 v 1 l -1,1 v 1 h 1 l 1,1 h 1 l 1,-1 v 1 l -2,1 -2,-1 h -2 l -1,1 -1,3 -1,1 -1,2 v 1 h -2 -2 v 1 h -2 l -1,-1 h -1 l -1,-2 h -1 v -1 l 1,-1 h 1 1 v -1 h -1 l -1,-1 h -1 -1 3 l -2,-1 v 1 h -1 l -1,1 h -1 v 2 l 1,-1 v 1 1 l -1,1 h -1 l -1,-1 -1,1 -1,-1 h -1 v -1 1 l -1,-1 -1,1 v -1 h -1 v -2 h -1 -2 v -1 -1 h -1 -1 -1 v -1 l 1,-1 h 1 1 l 1,-1 h -1 l 1,-1 v -1 h 1 1 l 2,-1 1,-1 v -1 -1 -2 -2 h 2"
           id="path821" />
      </g>
      <!-- end feature g -->
      <g
         id="kla_map_—_collection_38"
         inkscape:label="NULL"
         transform="translate(-194.78697,4.1751592)">
        <path
           d="m 320,123 1,1 v -1 l 1,-1 h 1 v 1 h 1 l -1,2 1,1 h 1 1 l 1,-1 2,-1 v 2 -1 l 1,1 -1,1 v 1 1 h 1 1 l 1,1 1,-1 h 1 v 1 l -1,1 h 1 l -1,1 h -1 -1 -1 -1 -1 l -1,1 v 1 1 l -1,-1 -1,1 -1,-1 1,-1 -2,-1 v -1 h 1 v -1 -1 h -1 -1 -1 -1 -1 -2 l -1,-1 -1,1 v -1 l -1,-1 h 1 v -1 h 1 l -1,-1 h 1 1 v -1 h -1 v -1 -1 l 1,1 v -1 h 1 l 1,1 h 1"
           id="path824" />
      </g>
      <!-- end feature g -->
      <g
         id="kla_map_—_collection_39"
         inkscape:label="NULL"
         transform="translate(-194.78697,4.1751592)">
        <path
           d="m 316,124 h 1 v 1 h -1 -1 l 1,1 h -1 v 1 h -1 l 1,1 v 1 l 1,-1 1,1 h 2 1 1 1 1 1 v 1 1 h -1 v 1 h -1 l -1,-1 h -1 l -1,-1 h -1 v 1 h -1 -1 l 1,1 -1,1 1,1 h -1 v 2 h -2 l -1,-1 v -1 -1 h -1 1 -1 v -1 -2 h -1 l -1,-2 v -1 -1 l -2,-1 1,-1 v 1 -1 h 1 l 1,-1 1,1 v -1 -1 h 1 l -1,1 h 1 l 1,1 h 1 1"
           id="path827" />
      </g>
      <!-- end feature g -->
      <g
         id="kla_map_—_collection_40"
         inkscape:label="NULL"
         transform="translate(-194.78697,4.1751592)">
        <path
           d="m 301,123 h 1 l 1,2 h 1 v -1 h 1 l 1,2 h 1 v 1 l -1,2 -1,1 h -1 -1 l -1,1 h 1 v 1 h -2 l -1,1 1,-1 h -1 l 1,-1 h -1 l -1,-1 h -1 l -1,-3 1,-1 h 1 v -1 -1 -1 h 1 v 1 l 1,-1 v 1 -1"
           id="path830" />
      </g>
      <!-- end feature g -->
      <g
         id="kla_map_—_collection_41"
         inkscape:label="NULL"
         transform="translate(-194.78697,4.1751592)">
        <path
           d="m 310,128 1,2 h 1 v 2 1 h 1 -1 l -1,1 1,1 v 1 l -1,-1 v 1 h -1 l -1,-1 v 1 h -1 v -2 l -1,-1 -1,1 -1,-1 h -1 v -1 1 h -1 v -1 -1 h -1 l 1,-1 h 1 1 l 1,-1 1,-2 v 1 h 2 l 1,1 v -1"
           id="path833" />
      </g>
      <!-- end feature g -->
      <g
         id="kla_map_—_collection_42"
         inkscape:label="NULL"
         transform="translate(-194.78697,4.1751592)">
        <path
           d="m 303,132 v 1 h 1 v -1 1 h 1 l 1,1 1,-1 1,1 v 2 l 1,1 h 1 v 1 h -2 v 1 h -1 l -1,-1 -1,-1 h 1 -1 l -1,-1 -2,1 v -1 l -1,-1 v -1 l -2,1 v -1 1 l -1,-5 h 1 l 1,1 h 1 l -1,1 h 1 l -1,1 1,-1 h 2"
           id="path836" />
      </g>
      <!-- end feature g -->
      <g
         id="kla_map_—_collection_43"
         inkscape:label="NULL"
         transform="translate(-194.78697,4.1751592)">
        <path
           d="m 325,135 1,1 h -1 l -1,1 h 1 v 1 h -1 l 1,1 -1,1 h -1 l -2,-1 h -1 v 1 h 1 l -1,1 1,1 -1,2 -1,-1 h -1 v -2 -1 h -1 l -2,-1 h -1 v -1 h 1 l 1,-2 v -2 h 1 l -1,-1 1,-1 -1,-1 h 1 1 v -1 h 1 l 1,1 h 1 l 1,1 h 1 l 2,1 -1,1 1,1"
           id="path839" />
      </g>
      <!-- end feature g -->
      <g
         id="kla_map_—_collection_44"
         inkscape:label="NULL"
         transform="translate(-194.78697,4.1751592)">
        <path
           d="m 331,132 -1,1 v 1 h 1 1 1 v 1 1 h 2 1 v 2 l -3,-1 v 1 l -1,1 1,2 v 1 l 1,1 h -1 l -1,-1 h -1 -1 -1 l -1,2 h -2 l -1,-2 -1,1 h -1 v -1 l -1,1 v -1 h -1 l -1,-1 1,-1 h -1 v -1 h 1 l 2,1 h 1 l 1,-1 -1,-1 h 1 v -1 h -1 l 1,-1 h 1 l -1,-1 1,-1 1,1 v -1 -1 l 1,-1 h 1 1 1"
           id="path842" />
      </g>
      <!-- end feature g -->
      <g
         id="kla_map_—_collection_45"
         inkscape:label="NULL"
         transform="translate(-194.78697,4.1751592)">
        <path
           d="m 316,136 -1,2 h -1 v 1 h 1 l 2,1 h 1 v 1 2 h 1 v 2 l -1,-1 -1,2 v -1 1 1 h -1 l -2,1 -2,-1 v 1 h -1 v -2 h -1 -1 v -1 h -1 l 1,-1 h 1 l 1,1 1,-1 v -1 -2 h -1 v -1 h -1 v -2 -1 h -1 l -1,-1 h 1 v -1 l 1,1 h 1 v -1 l 1,1 v -1 l -1,-1 1,-1 h 1 v 1 1 l 1,1 h 2"
           id="path845" />
      </g>
      <!-- end feature g -->
      <g
         id="kla_map_—_collection_46"
         inkscape:label="NULL"
         transform="translate(-194.78697,4.1751592)">
        <path
           d="m 307,139 v 1 l -1,1 1,1 h -1 -1 v -1 l -1,-1 h -1 l -1,1 v 1 1 l -1,-1 -2,-7 v -1 1 l 2,-1 v 1 l 1,1 v 1 l 2,-1 1,1 h 1 -1 l 1,1 1,1"
           id="path848" />
      </g>
      <!-- end feature g -->
      <g
         id="kla_map_—_collection_47"
         inkscape:label="NULL"
         transform="translate(-194.78697,4.1751592)">
        <path
           d="m 343,140 h 1 l 1,-1 v -1 -1 l -1,1 v -2 h 1 l 1,-1 h 1 v -1 l 2,1 h -3 1 1 l 1,1 h 1 v 1 h -1 -1 l -1,1 v 1 h 1 l 1,2 h 1 l 1,1 -1,3 v -1 h -1 -1 v 1 h 1 v 1 h -1 v 1 h 1 l -1,1 1,1 1,-1 2,1 v 1 1 l -1,1 h -1 -1 v -1 h -2 v 1 l -1,1 h -1 -1 v -1 h -1 -1 v -1 -2 l 1,1 v -4 l 1,-1 v -1 h 3 l -1,-2 h -2 v -1 l -1,-1"
           id="path851" />
      </g>
      <!-- end feature g -->
      <g
         id="kla_map_—_collection_48"
         inkscape:label="NULL"
         transform="translate(-194.78697,4.1751592)">
        <path
           d="m 310,138 v 2 h 1 v 1 h 1 v 2 1 l -1,1 -1,-1 h -1 l -1,1 h 1 v 1 l -2,1 v -1 h -1 v -1 h -1 -1 -1 l 1,1 h -1 -1 v -1 l -1,-3 1,1 v -1 -1 l 1,-1 h 1 l 1,1 v 1 h 1 1 l -1,-1 1,-1 v -1 h 1 v -1 h 2"
           id="path854" />
      </g>
      <!-- end feature g -->
      <g
         id="kla_map_—_collection_49"
         inkscape:label="NULL"
         transform="translate(-194.78697,4.1751592)">
        <path
           d="m 336,138 h 1 v 1 l 1,-1 1,1 v -1 1 h 1 l 1,1 1,-1 1,1 1,1 v 1 h 2 l 1,2 h -3 v 1 l -1,1 v 4 l -1,-1 v 2 1 h 1 1 v 1 h 1 l -1,1 h -1 -2 -3 l -1,-1 h -1 -1 v -2 h -1 v -1 h 1 l 1,1 v -1 -2 h 1 v -1 -1 h 1 v -1 h -1 v -1 h 1 -1 1 v -2 h -1 l -2,-1 v 1 h -1 v 1 l -1,-1 v -1 l -1,-2 1,-1 v -1 l 3,1"
           id="path857" />
      </g>
      <!-- end feature g -->
      <g
         id="kla_map_—_collection_50"
         inkscape:label="NULL"
         transform="translate(-194.78697,4.1751592)">
        <path
           d="m 334,143 v -1 h 1 v -1 l 2,1 h 1 v 2 h -1 1 -1 v 1 h 1 v 1 h -1 v 1 1 h -1 v 2 1 l -1,-1 h -1 v 1 h 1 v 2 h 1 l -1,2 -1,-1 h -1 -3 -3 v -1 -1 h 1 1 l -1,-1 -1,-1 h 1 -1 1 l 1,-1 v -1 l -1,-1 v -2 -1 l 1,-2 h 1 1 1 l 1,1 h 1"
           id="path860" />
      </g>
      <!-- end feature g -->
      <g
         id="kla_map_—_collection_51"
         inkscape:label="NULL"
         transform="translate(-194.78697,4.1751592)">
        <path
           d="m 321,142 h 1 v 1 l 1,-1 v 1 h 1 l 1,-1 1,2 h 2 v 1 2 l 1,1 v 1 l -1,1 h -1 1 -1 l 1,1 1,1 h -1 -1 -1 -1 -1 -1 v -1 l -1,-1 -1,1 -2,-1 v -3 h -1 l -1,-1 v -1 1 l 1,-2 1,1 v -2 l 1,1 1,-2"
           id="path863" />
      </g>
      <!-- end feature g -->
      <g
         id="kla_map_—_collection_52"
         inkscape:label="NULL"
         transform="translate(-194.78697,4.1751592)">
        <path
           d="m 357,141 3,1 1,1 2,1 1,-1 1,1 h 1 1 l 1,1 h 1 l 1,1 1,1 v 1 1 h -2 v 1 l -1,1 h 2 l -1,1 h -1 v 1 1 h -1 -1 v 1 h -1 v 1 l -1,-1 h -1 -1 v -1 l -1,1 v -1 1 2 l -1,-1 h -1 v -1 h -1 v -1 -2 -2 h -1 l -1,1 v -1 1 l -1,1 -3,-2 v -1 l -2,-1 -1,1 -1,-1 1,-1 h -1 v -1 h 1 v -1 h -1 v -1 h 1 1 v 1 l 1,-3 h 2 v -1 h 2 2"
           id="path866" />
      </g>
      <!-- end feature g -->
      <g
         id="kla_map_—_collection_53"
         inkscape:label="NULL"
         transform="translate(-194.78697,4.1751592)">
        <path
           d="m 309,146 h 1 1 v 2 h 1 l -1,1 h 1 v 1 h 1 l -1,1 v 2 h -1 -1 v 1 l -1,1 h -1 v -1 l -1,-3 v -1 -1 h -1 l -2,2 h -1 l -1,-6 v 1 h 1 1 l -1,-1 h 1 1 1 v 1 h 1 v 1 l 2,-1"
           id="path869" />
      </g>
      <!-- end feature g -->
      <g
         id="kla_map_—_collection_54"
         inkscape:label="NULL"
         transform="translate(-194.78697,4.1751592)">
        <path
           d="m 317,146 1,1 h 1 v 3 l 2,1 1,-1 1,1 v 1 l 1,1 v 1 h -1 l -1,3 h -1 v -1 l -1,1 v -1 h -1 l -1,1 -2,-1 h -1 l -1,-1 v -1 l -1,1 v -1 h -1 v -1 -2 l 1,-1 h -1 v -1 h -1 l 1,-1 v -1 l 2,1 2,-1 h 1 v -1"
           id="path872" />
      </g>
      <!-- end feature g -->
      <g
         id="kla_map_—_collection_55"
         inkscape:label="NULL"
         transform="translate(-194.78697,4.1751592)">
        <path
           d="m 312,153 v 1 h 1 v 1 l 1,-1 v 1 1 l -1,1 h -1 v 1 h -2 -1 l -1,1 v -1 h -1 l -1,1 -3,-8 h 1 l 2,-2 h 1 v 1 1 l 1,3 v 1 h 1 l 1,-1 v -1 h 1 1"
           id="path875" />
      </g>
      <!-- end feature g -->
      <g
         id="kla_map_—_collection_56"
         inkscape:label="NULL"
         transform="translate(-194.78697,4.1751592)">
        <path
           d="m 371,149 h 1 v 1 h 3 v 2 1 l -1,2 v 1 h -1 l -1,2 v 1 h 1 v 1 1 1 l -1,1 -3,-1 h -1 -1 l -1,1 h -1 l -2,-1 h -1 -1 v -1 h -1 l -1,-1 h 1 -1 v -1 h 1 -1 -1 v -1 h -1 l -1,-1 h 1 v -1 h 1 2 l 1,1 v -2 -1 1 l 1,-1 v 1 h 1 1 l 1,1 v -1 h 1 v -1 h 1 1 v -1 -1 h 1 l 1,-1 h -2 l 1,-1 v -1 h 2"
           id="path878" />
      </g>
      <!-- end feature g -->
      <g
         id="kla_map_—_collection_57"
         inkscape:label="NULL"
         transform="translate(-194.78697,4.1751592)">
        <path
           d="m 360,156 h -2 -1 -1 -1 l -1,1 v -2 l -1,-1 v 1 l -1,1 h -1 l -2,-1 v -1 h 1 v -1 -1 h 1 l 1,-1 v -1 l 3,2 1,-1 v -1 1 l 1,-1 h 1 v 2 2 1 h 1 v 1 h 1"
           id="path881" />
      </g>
      <!-- end feature g -->
      <g
         id="kla_map_—_collection_58"
         inkscape:label="NULL"
         transform="translate(-194.78697,4.1751592)">
        <path
           d="m 323,152 h 1 1 1 1 v 1 1 h 3 3 1 l 1,1 1,-2 h 1 l 1,1 h 3 2 1 l -1,1 h 1 l -1,1 -1,2 v -1 l -1,1 1,1 v 1 h -1 v 1 l -1,1 v 1 1 h -1 v 1 l -1,1 -1,-1 v -1 h -1 l -1,-1 h -1 l -1,2 h -2 v -1 h 1 v -1 h 1 v -1 h -2 v -1 1 l -1,-1 h -1 v -1 h 1 -1 v -1 h -1 l -1,-1 v 1 -2 h -1 1 -1 -1 v 1 h -1 1 -1 l -1,-1 h -1 v 1 l -1,-1 h 1 l 1,-3 h 1 v -1 l -1,-1"
           id="path884" />
      </g>
      <!-- end feature g -->
      <g
         id="kla_map_—_collection_59"
         inkscape:label="NULL"
         transform="translate(-194.78697,4.1751592)">
        <path
           d="m 350,152 v 1 1 h -1 v 1 l 2,1 -1,1 v 1 h -1 v 1 1 h -1 l -1,1 1,1 h -1 l -1,1 h 2 v 1 h -2 v 1 -1 1 1 l -1,-1 v 1 1 h -1 -1 v 1 h -1 -1 -1 v -2 h -1 -1 l 1,-1 v -1 h 1 v -1 -1 l 1,-1 v -1 h 1 v -1 l -1,-1 1,-1 v 1 l 1,-2 1,-1 h -1 l 1,-1 1,-1 h 1 l 1,-1 v -1 h 2 v 1 h 1"
           id="path887" />
      </g>
      <!-- end feature g -->
      <g
         id="kla_map_—_collection_60"
         inkscape:label="NULL"
         transform="translate(-194.78697,4.1751592)">
        <path
           d="m 314,155 1,1 h 1 l 2,1 1,-1 h 1 v 1 l 1,-1 v 1 l 1,1 v -1 h 1 l 1,1 h 1 -1 1 v -1 h 1 1 -1 1 v 2 l -1,1 h -2 -1 l -1,1 v 1 1 1 h -1 l -1,-1 -1,-1 h 1 l -1,-1 -1,1 h -1 v 1 h -2 v 1 l -1,-1 v 1 h -1 v -1 h -1 l -1,-2 v -1 h 1 l -1,-1 -1,-1 h 2 v -1 h 1 l 1,-1 v -1"
           id="path890" />
      </g>
      <!-- end feature g -->
      <g
         id="kla_map_—_collection_61"
         inkscape:label="NULL"
         transform="translate(-194.78697,4.1751592)">
        <path
           d="m 357,156 v 1 h -1 v 1 l -1,1 v 1 1 1 h -2 v 1 l 1,1 -2,1 -1,1 v -1 l -1,1 -1,1 -1,2 2,3 2,1 v 1 h 1 l -1,1 -1,1 1,1 h -2 v -1 h -2 l -1,-2 h -1 -1 v -1 h -1 l -1,-1 -1,-1 -1,-1 v -2 h 1 1 v -1 h 1 1 v -1 -1 l 1,1 v -1 -1 1 -1 h 2 v -1 h -2 l 1,-1 h 1 l -1,-1 1,-1 h 1 v -1 -1 h 1 v -1 l 1,-1 h 1 l 1,-1 v -1 l 1,1 v 2 l 1,-1 h 1 1"
           id="path893" />
      </g>
      <!-- end feature g -->
      <g
         id="kla_map_—_collection_62"
         inkscape:label="NULL"
         transform="translate(-194.78697,4.1751592)">
        <path
           d="m 310,158 1,1 1,1 h -1 v 1 l 1,2 h 1 v 1 h 1 l -1,1 v 1 h -1 v 1 l 2,4 1,1 v 1 h -1 v -1 l -1,1 h 1 -1 l -1,-2 -6,-12 1,-1 h 1 v 1 l 1,-1 h 1"
           id="path896" />
      </g>
      <!-- end feature g -->
      <g
         id="kla_map_—_collection_63"
         inkscape:label="NULL"
         transform="translate(-194.78697,4.1751592)">
        <path
           d="m 331,165 h -1 -1 l -1,1 h -1 v 1 h -1 -2 v 1 l -2,1 v 1 h -2 v 1 h -1 l -1,-1 v -1 l -1,-1 h 1 l -1,-1 h 1 v -1 h -1 l 1,-1 v -1 h 1 v -1 h 1 l 1,1 h 1 v -1 -1 -1 l 1,-1 h 1 2 l 1,-1 v -1 l 1,1 h 1 v 1 h 1 -1 v 1 h 1 l 1,1 v -1 1 h 2 v 1 h -1 v 1 h -1 v 1"
           id="path899" />
      </g>
      <!-- end feature g -->
      <g
         id="kla_map_—_collection_64"
         inkscape:label="NULL"
         transform="translate(-194.78697,4.1751592)">
        <path
           d="m 368,162 v 1 l 1,1 v 1 h 1 v 2 2 l -1,3 v 4 l -1,2 1,1 h 1 l -1,1 1,1 1,1 -1,1 v 1 h -1 l -1,-1 v 1 h -2 -1 -1 v -1 h 1 v -1 h -1 l -3,-1 -1,1 h -1 l -1,-1 -1,-1 v 1 h -1 -1 -1 v -1 l -1,-1 v -1 l -1,-1 -1,-1 1,-1 1,-1 h -1 v -1 l -2,-1 -2,-3 1,-2 1,-1 1,-1 v 1 l 1,-1 2,-1 -1,-1 v -1 h 2 v -1 -1 -1 l 1,-1 v -1 l 1,1 h 1 v 1 h 1 1 -1 v 1 h 1 -1 l 1,1 h 1 v 1 h 1 1 l 2,1 h 1 l 1,-1 h 1"
           id="path902" />
      </g>
      <!-- end feature g -->
      <g
         id="kla_map_—_collection_65"
         inkscape:label="NULL"
         transform="translate(-194.78697,4.1751592)">
        <path
           d="m 320,163 h -1 v 1 h -1 v 1 l -1,1 h 1 v 1 h -1 l 1,1 h -1 l 1,1 v 1 l 1,1 h 1 1 v 1 h 1 v 1 1 l -1,1 -1,-1 h -1 -1 l -1,1 v -1 1 h -1 -2 l -1,-2 h 1 -1 l 1,-1 v 1 h 1 v -1 l -1,-1 -2,-4 v -1 h 1 v -1 l 1,-1 v -1 l 1,1 v -1 h 2 v -1 h 1 l 1,-1 1,1 h -1 l 1,1"
           id="path905" />
      </g>
      <!-- end feature g -->
      <g
         id="kla_map_—_collection_66"
         inkscape:label="NULL"
         transform="translate(-194.78697,4.1751592)">
        <path
           d="m 338,166 h 1 1 v 2 h 1 v 2 l 1,1 1,1 1,1 -1,1 h -1 -1 -1 -2 l -1,1 h -1 l -1,1 -2,-2 h -2 -1 -1 l -1,1 h -1 v 1 1 l -1,-1 1,-1 h -1 v -1 -1 -1 -1 h 1 -1 l 1,-1 h 1 v -1 h -1 v -1 l 1,-1 h 1 l -1,-1 1,-1 h 1 1 2 l 1,-2 h 1 l 1,1 h 1 v 1 l 1,1"
           id="path908" />
      </g>
      <!-- end feature g -->
      <g
         id="kla_map_—_collection_67"
         inkscape:label="NULL"
         transform="translate(-194.78697,4.1751592)">
        <path
           d="m 328,166 1,1 h -1 l -1,1 v 1 h 1 v 1 h -1 l -1,1 h 1 -1 v 1 1 1 h -1 -1 -1 -1 v -1 -1 h -1 v -1 h -1 v -1 h 2 v -1 l 2,-1 v -1 h 2 1 v -1 h 1"
           id="path911" />
      </g>
      <!-- end feature g -->
      <g
         id="kla_map_—_collection_68"
         inkscape:label="NULL"
         transform="translate(-194.78697,4.1751592)">
        <path
           d="m 326,174 v 1 l -1,1 1,1 h -1 v 1 1 -1 1 h -1 l -1,-1 -1,1 h -2 v 1 h -1 l -1,-1 v 1 l 1,2 h -1 v 1 h -1 v -2 l -3,-6 h 2 1 v -1 1 l 1,-1 h 1 1 l 1,1 1,-1 h 1 1 1 1"
           id="path914" />
      </g>
      <!-- end feature g -->
      <g
         id="kla_map_—_collection_69"
         inkscape:label="NULL"
         transform="translate(-194.78697,4.1751592)">
        <path
           d="m 344,173 h 1 v 1 h 1 1 l 1,2 h 2 v 1 h 2 -1 l -2,1 -3,3 h -2 -1 -1 l -2,1 h -1 -1 -1 -1 -1 l -1,-1 h -1 l 1,1 h -1 v -1 h -1 -1 -1 l -1,1 v -2 h -1 l -1,1 -2,-2 v -1 1 -1 -1 h 1 l -1,-1 1,-1 h 1 l -1,1 1,1 v -1 -1 h 1 l 1,-1 h 1 1 2 l 2,2 1,-1 h 1 l 1,-1 h 2 1 1 1 l 1,-1"
           id="path917" />
      </g>
      <!-- end feature g -->
      <g
         id="kla_map_—_collection_70"
         inkscape:label="NULL"
         transform="translate(-194.78697,4.1751592)">
        <path
           d="m 352,177 1,1 v 1 l 1,1 v 1 h 1 1 1 v -1 l 1,1 1,1 h 1 l 1,-1 3,1 h 1 v 1 h -1 v 1 h 1 1 2 v -1 l 1,1 h 1 l -1,2 1,1 h 1 -1 l 1,1 v -1 h 1 1 v 1 l 1,1 1,1 h -1 -1 v -1 h -1 l -2,-1 h -1 -1 -1 -2 v 1 h -1 v -1 l -2,1 h -2 -1 -1 l -1,-1 h -1 l -2,1 v -1 h -1 l -1,-1 -1,-1 -1,1 1,1 h -2 v -1 l -2,1 h -1 l -1,-1 h -1 -2 -2 -1 v 1 h -1 v 1 1 h -1 v 1 h -2 v -1 h -1 -1 v 1 h -1 v -1 h -2 l 1,-1 v -1 1 -1 -1 h 1 v -2 -2 h -1 -1 v -1 -1 h 1 1 1 v 1 h 1 l -1,-1 h 1 l 1,1 h 1 1 1 1 1 l 2,-1 h 1 1 2 l 3,-3 2,-1 h 1"
           id="path920" />
      </g>
      <!-- end feature g -->
      <g
         id="kla_map_—_collection_71"
         inkscape:label="NULL"
         transform="translate(-194.78697,4.1751592)">
        <path
           d="m 325,179 2,2 1,-1 h 1 v 2 l 1,-1 v 1 1 h 1 1 v 2 2 h -1 -1 l -1,1 v -1 1 l -1,-1 -1,1 h -1 v -1 -1 l -2,-1 v 1 1 h -1 1 -1 v 1 h -1 l -1,-1 v -2 l -1,-1 1,-1 h -1 l 1,-1 -1,-2 v -1 h 2 l 1,-1 1,1 h 1"
           id="path923" />
      </g>
      <!-- end feature g -->
      <g
         id="kla_map_—_collection_72"
         inkscape:label="NULL"
         transform="translate(-194.78697,4.1751592)">
        <path
           d="m 320,180 1,2 -1,1 h 1 l -1,1 1,1 v 2 l 1,1 v 1 l 2,1 v 1 h -2 l 1,2 h -1 v 2 h -1 l -1,-2 -3,-10 h 1 v -1 h 1 l -1,-2 v -1 l 1,1 h 1"
           id="path926" />
      </g>
      <!-- end feature g -->
      <g
         id="kla_map_—_collection_73"
         inkscape:label="NULL"
         transform="translate(-194.78697,4.1751592)">
        <path
           d="m 385,189 h 1 l -1,-1 h 1 l 1,-1 1,-1 h 1 l 2,-1 4,-3 4,1 v 1 h -1 v 1 l 3,4 -1,1 1,2 v -1 l 2,1 v 1 h -1 v 1 1 l -1,3 1,1 -1,1 -2,-1 -1,1 h -1 l -1,1 1,1 2,2 2,2 v 1 l -4,1 -1,-1 h -1 l -1,-1 -1,2 h -1 v 1 l -1,1 v -1 h -1 l -1,1 h -1 -1 v -1 l -1,1 h -3 -1 l -1,1 v 1 l -3,-1 -1,-1 -7,-3 -3,-2 h -1 v -1 h -1 3 -1 1 1 l -1,-1 1,-1 3,1 v -1 l 2,-3 1,-1 v -2 l 1,-1 2,1 1,1 2,-1 v 1 h 1 v -1 l 1,-1 1,1 h 2 1 1 v -1 l -1,-1 -1,-1 -1,1 -2,-1 v -1 l 2,-1 v 1 l 1,-1 v -1 l -1,-1"
           id="path929" />
      </g>
      <!-- end feature g -->
      <g
         id="kla_map_—_collection_74"
         inkscape:label="NULL"
         transform="translate(-194.78697,4.1751592)">
        <path
           d="m 331,187 v 1 1 -1 1 l -1,1 h 2 v 1 h 1 v -1 h 1 1 v 1 l -1,1 -1,1 -1,1 v 1 h -1 v 1 h -2 v -1 h -1 v -1 l -3,-1 v 1 l -3,1 v -2 h 1 l -1,-2 h 2 v -1 l -2,-1 v -1 h 1 v -1 h 1 -1 1 v -1 -1 l 2,1 v 1 1 h 1 l 1,-1 1,1 v -1 1 l 1,-1 h 1"
           id="path932" />
      </g>
      <!-- end feature g -->
      <g
         id="kla_map_—_collection_75"
         inkscape:label="NULL"
         transform="translate(-194.78697,4.1751592)">
        <path
           d="m 359,189 v 1 l -1,3 -1,2 -1,2 -1,-1 h -1 -1 -1 l -2,-2 h -3 l -1,1 h -3 v 1 l -2,1 -1,-1 v 1 h -1 -1 v -1 h -2 l -2,-1 v 1 h -1 -1 l 1,-1 h -1 v -1 l 1,-1 1,-1 1,-1 h 2 v -1 h 1 v -1 -1 h 1 v -1 h 1 2 2 1 l 1,1 h 1 l 2,-1 v 1 h 2 l -1,-1 1,-1 1,1 1,1 h 1 v 1 l 2,-1 h 1 l 1,1 h 1"
           id="path935" />
      </g>
      <!-- end feature g -->
      <g
         id="kla_map_—_collection_76"
         inkscape:label="NULL"
         transform="translate(-194.78697,4.1751592)">
        <path
           d="m 322,195 3,-1 v -1 l 3,1 v 1 h 1 v 1 h 2 v -1 h 1 l -1,1 -1,1 -1,1 -1,-1 v -1 1 1 l 1,1 v 1 h -1 l 1,1 h -1 l 1,1 h 1 v 1 1 h -2 v -1 h -2 l -1,-1 -2,-5 -1,-1 v -1"
           id="path938" />
      </g>
      <!-- end feature g -->
      <g
         id="kla_map_—_collection_77"
         inkscape:label="NULL"
         transform="translate(-194.78697,4.1751592)">
        <path
           d="m 322,195 v 1 l 1,1 2,5 1,1 h 2 v 1 h 2 v 1 h -1 v 1 l -1,1 h 1 v 1 2 h -1 v -1 l -1,1 v -1 1 l -1,-1 h -1 l -4,-13 v -1 h 1"
           id="path941" />
      </g>
      <!-- end feature g -->
      <g
         id="kla_map_—_collection_78"
         inkscape:label="NULL"
         transform="translate(-194.78697,4.1751592)">
        <path
           d="m 341,197 -1,1 h 2 v 1 1 h -1 -2 v 2 l -1,1 v 1 l -1,2 -1,-1 -2,-2 -1,1 1,-1 v -1 -1 -1 h -1 v -1 -1 -2 h 1 v -1 l 2,1 h 2 v 1 h 1 1 v -1 l 1,1"
           id="path944" />
      </g>
      <!-- end feature g -->
      <g
         id="kla_map_—_collection_79"
         inkscape:label="NULL"
         transform="translate(-194.78697,4.1751592)">
        <path
           d="m 341,197 2,-1 v -1 h 3 l 1,-1 h 3 l 2,2 h 1 1 1 l 1,1 -1,1 -2,-1 v 1 h -1 -1 v 3 1 h -1 v 1 1 h -1 v 1 h -1 l -1,-1 v 1 l -1,-1 h -1 l -1,1 h -1 -1 l -1,-1 v -2 -1 h 1 1 v -1 h -1 v -1 -1 h -2 l 1,-1"
           id="path947" />
      </g>
      <!-- end feature g -->
      <g
         id="kla_map_—_collection_80"
         inkscape:label="NULL"
         transform="translate(-194.78697,4.1751592)">
        <path
           d="m 333,196 v 2 1 1 h 1 v 1 1 1 l -1,1 1,-1 2,2 1,1 v 1 l -1,1 v 1 h -1 v -2 -1 h -1 -1 l -1,1 -1,-2 -1,-1 h 1 l -1,-1 v -1 h -1 l -1,-1 h 1 l -1,-1 h 1 v -1 l -1,-1 v -1 -1 1 l 1,1 1,-1 1,-1 1,-1 h 1 l -1,1 h 1"
           id="path950" />
      </g>
      <!-- end feature g -->
      <g
         id="kla_map_—_collection_81"
         inkscape:label="NULL"
         transform="translate(-194.78697,4.1751592)">
        <path
           d="m 342,200 h 1 v 1 h -1 -1 v 1 2 l 1,1 h 1 1 l 1,-1 h 1 l 1,1 v -1 l 1,1 h 1 -1 v 2 l 1,1 h -1 -2 v 1 1 l -1,1 h 1 v 1 h -1 l -2,1 v -1 l -1,1 v -1 l -1,1 v 1 l -1,1 -1,-1 -2,-1 -1,-1 v -1 l -1,-1 v -1 h 1 v -1 l 1,-1 v -1 l 1,-2 v -1 l 1,-1 v -2 h 2 1"
           id="path953" />
      </g>
      <!-- end feature g -->
      <g
         id="kla_map_—_collection_82"
         inkscape:label="NULL"
         transform="translate(-194.78697,4.1751592)">
        <path
           d="m 331,205 -1,1 v 1 2 1 h 1 v 2 l -1,1 -1,-3 v -2 -1 h -1 l 1,-1 v -1 h 1 v -1 -1 l 1,1 h -1 l 1,1"
           id="path956" />
      </g>
      <!-- end feature g -->
      <g
         id="kla_map_—_collection_83"
         inkscape:label="NULL"
         transform="translate(-194.78697,4.1751592)">
        <path
           d="m 350,204 1,1 v 1 h 1 1 v 2 h -1 1 1 1 l 1,-1 h 1 v -1 l 1,1 4,-1 3,1 v 1 1 h -1 l 1,1 -2,-1 -1,1 -1,-1 v 1 l 1,2 h -1 -1 v 2 -1 l -1,1 h 1 v 1 h -1 v -1 h -2 -1 l -1,1 v 1 2 1 h -1 -1 1 l -2,-3 v -1 l -2,-1 -2,-1 1,-1 v -1 h -1 l -1,-1 h -1 v -1 -1 h 2 1 l -1,-1 v -2 h 1 v -1 h 1"
           id="path959" />
      </g>
      <!-- end feature g -->
      <g
         id="kla_map_—_collection_84"
         inkscape:label="NULL"
         transform="translate(-194.78697,4.1751592)">
        <path
           d="m 335,209 -1,1 v -1 h -1 v 1 l -1,1 h 1 l -1,1 h -1 v 1 l 1,1 h -1 l -1,-1 1,-1 v -2 h -1 v -1 -2 -1 l 1,-1 1,2 1,-1 h 1 1 v 1 2"
           id="path962" />
      </g>
      <!-- end feature g -->
      <g
         id="kla_map_—_collection_85"
         inkscape:label="NULL"
         transform="translate(-194.78697,4.1751592)">
        <path
           d="m 370,207 7,3 1,1 3,1 -1,1 v 1 1 1 1 l -1,1 1,1 h -1 l -2,-2 -4,3 v 1 h -2 -2 l -1,1 -1,-1 -2,-1 -1,1 h 1 v 1 h -1 l -1,1 -3,-2 h -1 v -1 h -1 -1 -1 -1 v -1 -1 -2 -1 l 1,-1 h 1 2 v 1 h 1 v -1 h -1 l 1,-1 v 1 -2 h 1 1 l -1,-2 v -1 l 1,1 1,-1 2,1 -1,-1 h 1 v -1 -1 l 1,-1 3,1 1,1 v -1"
           id="path965" />
      </g>
      <!-- end feature g -->
      <g
         id="kla_map_—_collection_86"
         inkscape:label="NULL"
         transform="translate(-194.78697,4.1751592)">
        <path
           d="m 401,207 -1,1 h 1 v 1 l 1,1 v 1 l -1,1 h -1 l -1,1 v 2 h -1 v 2 h -1 l 1,1 1,1 -1,1 v 1 h 1 v 1 h 1 v 1 h -1 v 1 h -1 v 1 h 1 l -1,2 v 1 l -1,1 -1,1 1,1 -1,1 -1,1 h -1 -1 l -1,-1 1,-1 v -1 l -2,-1 v -1 h 1 l 1,-1 v -1 h 1 l -1,-1 -2,-1 h -1 -1 v -1 l -3,-1 2,-1 v -1 -1 h 1 l 1,-1 -1,-1 v -1 h -1 l 1,-1 v -1 -1 h -1 l -1,-1 -1,-1 v -1 l 1,-1 v 1 h 1 1 l 1,-1 h 1 v 1 l 1,-1 v -1 h 1 l 1,-2 1,1 h 1 l 1,1 4,-1"
           id="path968" />
      </g>
      <!-- end feature g -->
      <g
         id="kla_map_—_collection_87"
         inkscape:label="NULL"
         transform="translate(-194.78697,4.1751592)">
        <path
           d="m 334,210 1,1 1,3 h 1 v 1 l -1,1 1,2 1,1 -1,1 h -1 v -1 l -1,-2 h -2 -1 l -1,-1 v -2 h 1 l -1,-1 v -1 h 1 l 1,-1 h -1 l 1,-1 v -1 h 1 v 1"
           id="path971" />
      </g>
      <!-- end feature g -->
      <g
         id="kla_map_—_collection_88"
         inkscape:label="NULL"
         transform="translate(-194.78697,4.1751592)">
        <path
           d="m 335,209 v 1 l 1,1 v 1 l 1,1 2,1 1,1 1,-1 v -1 l 1,-1 v 1 l 1,-1 v 1 l 2,-1 h 1 v -1 h -1 l 1,-1 h 1 l 1,1 h 1 v 1 l -1,1 2,1 2,1 v 1 l 2,3 h -1 l 1,1 h -1 -2 v 1 1 l -1,-1 v 2 h -1 v -1 h -1 v -1 h -1 v -2 h -2 -1 v -1 l -1,1 -1,1 -2,1 h -1 -1 l -1,-1 1,-1 -1,-1 -1,-2 1,-1 v -1 h -1 l -1,-3 -1,-1 1,-1"
           id="path974" />
      </g>
      <!-- end feature g -->
      <g
         id="kla_map_—_collection_89"
         inkscape:label="NULL"
         transform="translate(-194.78697,4.1751592)">
        <path
           d="m 329,210 1,3 1,1 v 2 h -1 l 1,3 h -1 v 1 1 1 1 1 h -1 l -1,-7 -1,-5 v -2 -1 1 l 1,-1 v 1 h 1"
           id="path977" />
      </g>
      <!-- end feature g -->
      <g
         id="kla_map_—_collection_90"
         inkscape:label="NULL"
         transform="translate(-194.78697,4.1751592)">
        <path
           d="m 386,210 v 1 l 1,1 1,1 h 1 v 1 1 l -1,1 h 1 v 1 l 1,1 -1,1 h -1 v 1 1 l -2,1 3,1 v 1 h 1 1 l 2,1 1,1 h -1 v 1 l -1,1 h -1 v 1 l 2,1 v 1 h -1 -2 l -2,-1 v 2 l -4,-3 h -6 l -4,-3 -1,1 -1,1 -4,-4 -3,-2 v -1 h -1 l 1,-1 2,1 1,1 1,-1 h 2 2 v -1 l 4,-3 2,2 h 1 l -1,-1 1,-1 v -1 -1 -1 -1 l 1,-1 v -1 l 1,-1 h 1 3"
           id="path980" />
      </g>
      <!-- end feature g -->
      <g
         id="kla_map_—_collection_91"
         inkscape:label="NULL"
         transform="translate(-194.78697,4.1751592)">
        <path
           d="m 331,216 1,1 h 1 2 l 1,2 v 1 l 1,2 -1,1 1,3 v 4 l -3,-1 v -3 1 h -1 -1 v -1 l -2,1 v -1 -2 -1 -1 -1 -1 -1 h 1 l -1,-3 h 1"
           id="path983" />
      </g>
      <!-- end feature g -->
      <g
         id="kla_map_—_collection_92"
         inkscape:label="NULL"
         transform="translate(-194.78697,4.1751592)">
        <path
           d="m 355,219 v 1 1 h -1 l 1,1 -1,1 2,1 -1,1 h -1 l 1,2 v 1 1 h 1 l -1,1 1,1 -1,1 v 1 h -1 l -1,-1 -1,1 1,-1 -1,-1 -1,1 v -1 h -1 -1 -1 v 1 h -1 l -1,-1 1,-1 h -1 l -1,1 -1,-3 h -1 v -1 l -1,-1 h 1 v -2 h 1 v -2 -2 l -1,-1 1,-1 v 1 h 1 2 v 2 h 1 v 1 h 1 v 1 h 1 v -2 l 1,1 v -1 -1 h 2 1 l -1,-1 h 1 1"
           id="path986" />
      </g>
      <!-- end feature g -->
      <g
         id="kla_map_—_collection_93"
         inkscape:label="NULL"
         transform="translate(-194.78697,4.1751592)">
        <path
           d="m 345,231 h -1 v 1 h -2 v 1 l -2,1 h -2 v -3 l -1,-1 v -4 l -1,-3 1,-1 -1,-2 h 1 l 1,1 h 1 1 l 2,-1 1,-1 1,1 v 2 2 h -1 v 2 h -1 l 1,1 v 1 h 1 l 1,3"
           id="path989" />
      </g>
      <!-- end feature g -->
      <g
         id="kla_map_—_collection_94"
         inkscape:label="NULL"
         transform="translate(-194.78697,4.1751592)">
        <path
           d="m 355,220 h 1 1 1 1 v 1 h 1 l 3,2 1,-1 h 1 l 3,2 4,4 1,1 v 1 h -1 l -2,-1 h -1 v 1 h -1 l -3,-1 v 1 h -2 -1 l 1,1 1,1 v 2 1 l 1,1 h -1 l 1,1 h -1 v 1 1 l -1,-1 v 1 h -1 l -1,-2 v -1 l -1,-1 1,-1 h -1 -1 v 1 l -1,-1 v 1 l -1,-2 h -1 v -1 l -1,1 v -1 l 1,-1 -1,-1 1,-1 h -1 v -1 -1 l -1,-2 h 1 l 1,-1 -2,-1 1,-1 -1,-1 h 1 v -1"
           id="path992" />
      </g>
      <!-- end feature g -->
      <g
         id="kla_map_—_collection_95"
         inkscape:label="NULL"
         transform="translate(-194.78697,4.1751592)">
        <path
           d="m 329,224 h 1 v 2 1 l 2,-1 v 1 h 1 1 v -1 3 l 3,1 1,1 v 3 4 h -2 -3 l 1,-3 -2,-1 -1,1 -2,-11"
           id="path995" />
      </g>
      <!-- end feature g -->
      <g
         id="kla_map_—_collection_96"
         inkscape:label="NULL"
         transform="translate(-194.78697,4.1751592)">
        <path
           d="m 372,228 1,-1 1,-1 4,3 h 6 l 4,3 v -2 l 2,1 h 2 1 l -1,1 1,1 h 1 1 v 1 l -1,1 h 1 l -1,1 v 1 h 1 l 1,-1 h 1 v 1 h 1 l 1,2 h 1 1 2 v -1 h 1 l 1,-1 v 1 h 1 -1 v 1 h 1 l 2,-2 v 1 1 l -1,1 h 1 v 1 1 l 2,1 h 1 v 1 h 1 l -1,1 v 1 l -1,1 v 1 h -1 -1 l -1,1 v 1 h -1 v 1 l 1,1 v 1 h -1 v 2 l -1,1 v 1 h -1 -1 l 1,1 -1,1 h -1 l 1,2 h -1 l -2,-1 h -1 -1 v -2 l 1,-1 v -1 l 1,-2 v -1 l -2,-2 v -1 -1 h -1 v -1 h -1 -1 v -1 h -1 -1 l -1,1 v -2 l -1,-1 -1,1 h -1 l -1,1 -1,1 h -1 -1 l 2,3 h -1 -2 -1 -1 1 l -1,-1 h 1 v -1 l -2,-1 -1,-1 h 1 v -1 l -1,-1 -1,-1 v 1 h -1 l -1,-1 v 1 l -2,-2 v -1 h -1 v -1 l -1,-2 1,-1 v -1 -1 -1 h 1 l 2,1 -1,-2 -1,-2 -1,-2 v -1 h -1 l -1,-1"
           id="path998" />
      </g>
      <!-- end feature g -->
      <g
         id="kla_map_—_collection_97"
         inkscape:label="NULL"
         transform="translate(-194.78697,4.1751592)">
        <path
           d="m 373,229 h 1 v 1 l 1,2 1,2 1,2 -2,-1 h -1 v 1 1 1 l -1,1 1,2 v 1 h 1 v 1 l 2,2 v -1 l 1,1 h 1 v -1 l 1,1 1,1 v 1 h -1 -1 l -1,1 v 1 l -1,1 h 1 l -1,1 h -1 v -1 h -1 l -2,-1 -2,-1 v 1 l -2,-1 v -1 h -2 v -2 h -1 l 1,-1 h 1 l 1,1 v 1 -1 l 1,1 v -1 h 1 v -1 h -1 l -1,-1 h 1 -1 l 1,-1 -2,-2 1,-1 h -1 v -2 l -1,1 -2,-2 -1,-1 v -1 -2 l -1,-1 -1,-1 h 1 2 v -1 l 3,1 h 1 v -1 h 1 l 2,1 h 1 v -1"
           id="path1001" />
      </g>
      <!-- end feature g -->
      <g
         id="kla_map_—_collection_98"
         inkscape:label="NULL"
         transform="translate(-194.78697,4.1751592)">
        <path
           d="m 352,233 v 1 l -1,1 h -1 -1 -1 -1 v 1 l -1,1 v 1 h -1 v 2 h -2 l -3,1 -1,-1 v 1 h -1 v -3 -4 h 2 l 2,-1 v -1 h 2 v -1 h 1 l 1,-1 h 1 l -1,1 1,1 h 1 v -1 h 1 1 1 v 1 l 1,-1 1,1 -1,1"
           id="path1004" />
      </g>
      <!-- end feature g -->
      <g
         id="kla_map_—_collection_99"
         inkscape:label="NULL"
         transform="translate(-194.78697,4.1751592)">
        <path
           d="m 355,233 1,-1 v 1 h 1 l 1,2 v -1 l 1,1 v -1 h 1 1 l -1,1 1,1 v 1 h -1 v -1 l -2,1 -1,-1 v 1 l 1,1 v 1 1 -1 l 1,1 -1,1 v 1 h -1 l -1,1 h -1 l -1,-1 v 1 1 h -1 l -2,1 v 1 l -2,-1 1,-1 v -1 -1 h -1 v -1 -1 h 1 v -1 l 1,-1 v -1 h -1 v -1 -1 h 1 l 1,-1 v -1 l 1,-1 1,1 h 1"
           id="path1007" />
      </g>
      <!-- end feature g -->
      <g
         id="kla_map_—_collection_100"
         inkscape:label="NULL"
         transform="translate(-194.78697,4.1751592)">
        <path
           d="m 338,238 v 3 l -1,2 -1,1 v 1 h -2 -2 l -1,-4 v -6 l 1,-1 2,1 -1,3 h 3 2"
           id="path1010" />
      </g>
      <!-- end feature g -->
      <g
         id="kla_map_—_collection_101"
         inkscape:label="NULL"
         transform="translate(-194.78697,4.1751592)">
        <path
           d="m 350,235 v 1 1 h 1 v 1 l -1,1 v 1 h -1 v 1 1 h 1 v 1 1 l -1,1 -1,-1 h -1 l -1,-1 -1,1 h -1 v -2 h -1 v -2 h 2 v -2 h 1 v -1 l 1,-1 v -1 h 1 1 1"
           id="path1013" />
      </g>
      <!-- end feature g -->
      <g
         id="kla_map_—_collection_102"
         inkscape:label="NULL"
         transform="translate(-194.78697,4.1751592)">
        <path
           d="m 365,236 2,2 1,-1 v 2 h 1 l -1,1 2,2 -1,1 h 1 -1 l 1,1 h 1 v 1 h -1 v 1 l -1,-1 v 1 -1 l -1,-1 h -1 l -1,1 h 1 v 2 h 2 v 1 1 -1 h -1 -1 v 1 l -1,-1 -1,1 -1,-1 v -1 h -1 -1 l -1,1 -1,-1 v -1 h -1 -3 v 1 h -1 v 1 l -1,-1 v -2 -1 -1 -1 l 1,1 h 1 l 1,-1 h 1 v -1 l 1,-1 -1,-1 v 1 -1 -1 l -1,-1 v -1 l 1,1 2,-1 v 1 h 1 l 1,2 h 1 v -1 l 1,1 v -1 -1 h 1 l -1,-1 h 1"
           id="path1016" />
      </g>
      <!-- end feature g -->
      <g
         id="kla_map_—_collection_103"
         inkscape:label="NULL"
         transform="translate(-194.78697,4.1751592)">
        <path
           d="m 338,241 h 1 v -1 l 1,1 3,-1 v 2 h 1 v 2 h 1 l 1,1 h 1 l -1,1 -1,3 h 1 v 1 1 1 h 1 l -1,2 h 1 l -1,1 -2,1 v 1 h 1 v 1 1 h -1 v -1 h -1 v 1 h -1 v -2 h 1 v -1 l -1,-1 v 1 l -1,-1 -1,1 h -1 -1 l -1,-1 2,-1 v -2 h -2 v -1 l -1,-2 -1,-1 1,-3 v -1 l 1,-1 1,-2"
           id="path1019" />
      </g>
      <!-- end feature g -->
      <g
         id="kla_map_—_collection_104"
         inkscape:label="NULL"
         transform="translate(-194.78697,4.1751592)">
        <path
           d="m 349,245 2,1 v -1 l 2,-1 h 1 v 1 2 l -1,1 -1,1 v 1 l 1,1 h -1 l -1,-1 -1,1 -1,-1 -1,1 h -1 v 1 h -1 v -1 -1 -1 h -1 l 1,-3 1,-1 h -1 l -1,-1 1,-1 1,1 h 1 l 1,1"
           id="path1022" />
      </g>
      <!-- end feature g -->
      <g
         id="kla_map_—_collection_105"
         inkscape:label="NULL"
         transform="translate(-194.78697,4.1751592)">
        <path
           d="m 336,245 -1,3 1,1 1,2 v 1 h 2 v 2 l -2,1 1,1 h 1 -1 v 2 1 h -1 l -3,-7 -2,-7 h 2 2"
           id="path1025" />
      </g>
      <!-- end feature g -->
      <g
         id="kla_map_—_collection_106"
         inkscape:label="NULL"
         transform="translate(-194.78697,4.1751592)">
        <path
           d="m 354,247 1,1 v -1 h 1 v -1 h 3 1 v 1 l 1,1 h -1 -1 v 1 h 1 l -1,1 h 1 l -1,1 -1,1 1,1 -3,1 v -1 h -1 v -1 l -1,1 h -1 v 1 1 h 1 v 1 h -1 l -1,-1 -1,1 v -1 h -1 l -1,1 h 1 l -1,1 -1,1 v -1 h -3 -1 v -1 l 2,-1 1,-1 h -1 l 1,-2 v -1 h 1 l 1,-1 1,1 1,-1 1,1 h 1 l -1,-1 v -1 l 1,-1 1,-1"
           id="path1028" />
      </g>
      <!-- end feature g -->
      <g
         id="kla_map_—_collection_107"
         inkscape:label="NULL"
         transform="translate(-194.78697,4.1751592)">
        <path
           d="m 402,261 v 3 1 l -1,1 -1,1 1,1 v 2 l -1,1 v 1 l -2,1 -1,1 v 1 1 l -4,-1 h -1 l -1,-1 h -1 l -2,-1 h -1 l -1,-1 h -1 -2 l -1,-1 h -1 v -1 h -2 l -2,-2 -1,3 h 1 1 l 1,1 h -1 -2 -1 -1 -1 v -1 l -1,2 v -1 l -1,1 v 1 h -1 -1 l -1,-1 h -1 -1 l 1,-1 h 1 -1 v -1 h -1 v -1 h 1 1 l -1,-1 1,1 -1,-1 v -1 l 1,1 -1,-1 h -1 1 l -1,-1 -1,-1 h -1 l -2,-2 h 1 1 1 1 v -1 -1 l 1,1 v -1 h 1 l 1,1 v -1 -1 -1 h -3 v -1 -1 l 1,-1 h 1 v 1 h 1 l 1,1 h 2 v 1 h 2 v -1 l -1,-1 v -1 h 1 v -1 h 4 l 1,-1 h 1 l 1,-1 1,1 v -2 l 1,-1 v -1 h 1 2 1 l -2,-3 h 1 1 l 1,-1 1,-1 h 1 l 1,-1 1,1 v 2 l 1,-1 h 1 1 v 1 h 1 1 v 1 h 1 v 1 1 l 2,2 v 1 l -1,2 v 1 l -1,1 v 2 h 1 1 l 2,1"
           id="path1031" />
      </g>
      <!-- end feature g -->
      <g
         id="kla_map_—_collection_108"
         inkscape:label="NULL"
         transform="translate(-194.78697,4.1751592)">
        <path
           d="m 369,248 2,1 v -1 l 2,1 2,1 h 1 v 1 h 1 l 1,-1 h -1 l 1,-1 v -1 l 1,-1 h 1 l 1,1 2,1 v 1 h -1 l 1,1 h -1 1 v 1 l -1,1 v 2 l -1,-1 -1,1 h -1 l -1,1 h -4 v 1 h -1 v 1 l 1,1 v 1 h -2 v -1 h -2 l -1,-1 h -1 v -1 h -1 l -1,1 -1,-1 h -1 -1 -1 v -1 l -1,-1 v -1 -1 l -2,1 v -1 l -1,-1 1,-1 1,-1 h -1 l 1,-1 h -1 v -1 h 1 1 l 1,-1 h 1 1 v 1 l 1,1 1,-1 1,1 v -1 h 1 1 v 1 -1"
           id="path1034" />
      </g>
      <!-- end feature g -->
      <g
         id="kla_map_—_collection_109"
         inkscape:label="NULL"
         transform="translate(-194.78697,4.1751592)">
        <path
           d="m 366,258 v 1 1 h 3 v 1 1 1 l -1,-1 h -1 v 1 l -1,-1 v 1 1 h -1 -1 -1 -1 l -1,1 v -1 1 h -1 l -1,-1 h -1 -1 v -1 -1 -1 h 1 v -1 h -1 v -1 l -1,-1 -1,-1 h 1 v -1 h -1 v 1 l -1,-1 v -1 h -1 v -1 -1 h 1 l 1,-1 v 1 h 1 v 1 l 3,-1 v 1 l 2,-1 v 1 1 l 1,1 v 1 h 1 1 1 l 1,1"
           id="path1037" />
      </g>
      <!-- end feature g -->
      <g
         id="kla_map_—_collection_110"
         inkscape:label="NULL"
         transform="translate(-194.78697,4.1751592)">
        <path
           d="m 345,259 v 1 h 1 l -1,2 h 1 l -1,3 -1,-1 -1,1 1,1 h -1 l -1,1 1,2 v 1 2 l -6,-13 h 1 v -1 -2 h 1 1 l 1,-1 1,1 v -1 l 1,1 v 1 h -1 v 2 h 1 v -1 h 1 v 1 h 1"
           id="path1040" />
      </g>
      <!-- end feature g -->
      <g
         id="kla_map_—_collection_111"
         inkscape:label="NULL"
         transform="translate(-194.78697,4.1751592)">
        <path
           d="m 354,256 1,1 v -1 h 1 v 1 h -1 l 1,1 1,1 v 1 h 1 v 1 h -1 v 1 1 l -1,1 -1,-1 v 1 h -1 -1 l -1,-1 -1,-1 -1,-1 h -1 v 1 h -1 -1 -1 -1 l 1,-2 h -1 v -1 -1 -1 h 3 v 1 l 1,-1 1,-1 h -1 l 1,-1 h 1 v 1 l 1,-1 1,1 h 1"
           id="path1043" />
      </g>
      <!-- end feature g -->
      <g
         id="kla_map_—_collection_112"
         inkscape:label="NULL"
         transform="translate(-194.78697,4.1751592)">
        <path
           d="m 347,262 h 1 1 v -1 h 1 l 1,1 1,1 1,1 h 1 1 v -1 l 1,1 v 2 h 1 l 1,1 1,1 -1,1 v 1 h -1 -1 l -1,1 -1,1 h -1 l -1,-1 v 1 h -1 l -1,1 h -1 v -2 h 1 v -1 l 1,-1 h 1 v -1 l -1,-1 h -1 v -1 1 h -2 v -1 -1 l -1,-3"
           id="path1046" />
      </g>
      <!-- end feature g -->
      <g
         id="kla_map_—_collection_113"
         inkscape:label="NULL"
         transform="translate(-194.78697,4.1751592)">
        <path
           d="m 346,262 h 1 l 1,3 v 1 1 h 2 v -1 1 h 1 l 1,1 v 1 h -1 l -1,1 v 1 h -1 -3 v 1 h -2 l 1,2 h -1 l -1,-2 v -2 -1 l -1,-2 1,-1 h 1 l -1,-1 1,-1 1,1 1,-3"
           id="path1049" />
      </g>
      <!-- end feature g -->
      <g
         id="kla_map_—_collection_114"
         inkscape:label="NULL"
         transform="translate(-194.78697,4.1751592)">
        <path
           d="m 357,263 v 1 h 1 1 l 1,1 h 1 v -1 1 l 1,-1 2,2 h 1 l 1,1 1,1 h -1 1 l 1,1 -1,-1 v 1 l 1,1 -1,-1 1,1 h -1 -1 v 1 h 1 v 1 h 1 -1 l -1,1 -1,1 v 2 h -1 v -1 h -1 -2 l -1,-1 -1,1 h -1 v -1 -1 -1 l -1,1 -1,-1 h -1 v -1 l 1,-1 h 1 1 v -1 l 1,-1 -1,-1 -1,-1 h -1 v -2 l 1,-1"
           id="path1052" />
      </g>
      <!-- end feature g -->
      <g
         id="kla_map_—_collection_115"
         inkscape:label="NULL"
         transform="translate(-194.78697,4.1751592)">
        <path
           d="m 385,272 h -1 v 1 l -1,1 v 1 1 h -2 v 1 h -1 -1 l -1,-1 v 1 1 h 1 v 1 l -1,-1 h -1 -1 -1 l -1,1 v -1 l -1,1 h 1 l 1,1 h -1 v 1 l -1,1 v 1 h -1 l -2,1 v -1 l -1,1 -1,-1 h -1 v -1 h -1 l 1,-1 1,-1 -1,1 v -1 -1 h 1 v -1 h -1 1 v -1 h -1 l -1,-1 v 1 l -1,-1 v -2 l 1,-1 h 1 1 l 1,1 h 1 1 v -1 l 1,-1 v 1 l 1,-2 v 1 h 1 1 1 2 1 l -1,-1 h -1 -1 l 1,-3 2,2 h 2 v 1 h 1 l 1,1 h 2"
           id="path1055" />
      </g>
      <!-- end feature g -->
      <g
         id="kla_map_—_collection_116"
         inkscape:label="NULL"
         transform="translate(-194.78697,4.1751592)">
        <path
           d="m 353,272 v 3 l -2,1 h -1 l 1,1 -1,1 v 1 h -1 v -1 -1 l -1,1 v 1 1 h -1 l -3,-6 h 1 l -1,-2 h 2 v -1 h 3 v 2 h 1 l 1,-1 h 1 v -1 l 1,1"
           id="path1058" />
      </g>
      <!-- end feature g -->
      <g
         id="kla_map_—_collection_117"
         inkscape:label="NULL"
         transform="translate(-194.78697,4.1751592)">
        <path
           d="m 361,275 1,1 h -1 v 1 h -1 v 2 l 1,1 1,1 -1,-1 -2,1 h -1 -1 l -1,1 v -1 h -1 l -1,1 v 1 h -1 -1 v -2 l 1,-1 v -1 l -1,1 h -1 l -1,-1 v -1 l 1,-1 -1,-1 h 1 l 2,-1 v -3 h 1 l 1,-1 v 1 h 1 l 1,1 1,-1 v 1 1 1 h 1 l 1,-1 1,1"
           id="path1061" />
      </g>
      <!-- end feature g -->
      <g
         id="kla_map_—_collection_118"
         inkscape:label="NULL"
         transform="translate(-194.78697,4.1751592)">
        <path
           d="m 385,272 h 1 l 1,1 h 1 l 2,1 h 1 l 1,1 h 1 l 4,1 -1,1 v 1 h -1 -1 -1 v 1 h -1 l 1,1 1,1 v 1 l 1,1 1,1 v 1 1 l 2,1 v 1 h 1 v 1 l 1,1 1,1 h -1 1 v 1 l -1,2 -1,1 -1,2 h -1 l 1,1 h -1 -1 l -3,-2 -1,-1 h -1 l -1,-2 h -1 -1 l -3,-1 v -1 l -2,-1 -1,-1 -1,-2 h -1 1 -1 l -1,-1 -1,1 h 1 l -1,1 h -1 v -1 -1 h -2 v 1 h 1 l -3,1 h -1 1 l -1,1 v 1 l -1,-1 v -1 -2 l -1,-2 2,-1 h 1 v -1 l 1,-1 v -1 h 1 l -1,-1 h -1 l 1,-1 v 1 l 1,-1 h 1 1 1 l 1,1 v -1 h -1 v -1 -1 l 1,1 h 1 1 v -1 h 2 v -1 -1 l 1,-1 v -1 h 1"
           id="path1064" />
      </g>
      <!-- end feature g -->
      <g
         id="kla_map_—_collection_119"
         inkscape:label="NULL"
         transform="translate(-194.78697,4.1751592)">
        <path
           d="m 361,275 h 2 1 v 1 h 1 l 1,1 v -1 l 1,1 h 1 v 1 h -1 1 v 1 h -1 v 1 1 l 1,-1 -1,1 -1,1 h 1 v 1 h 1 l 1,1 1,-1 v 1 l 1,2 v 2 h -1 v -1 l -2,-2 -1,1 v 1 h -1 v 1 h -1 l -1,-1 h -1 l -1,1 v -1 l -1,-1 -1,-1 v -1 -1 l 1,-1 h -1 l -1,-1 2,-1 1,1 -1,-1 -1,-1 v -2 h 1 v -1 h 1 l -1,-1"
           id="path1067" />
      </g>
      <!-- end feature g -->
      <g
         id="kla_map_—_collection_120"
         inkscape:label="NULL"
         transform="translate(-194.78697,4.1751592)">
        <path
           d="m 350,279 1,1 h 1 l 1,-1 v 1 l -1,1 v 2 1 l -2,1 1,1 h -1 v 1 l 1,2 h -2 v -2 l -1,-1 h 1 l -1,-1 v 1 l -1,-6 h 1 v -1 -1 l 1,-1 v 1 1 h 1"
           id="path1070" />
      </g>
      <!-- end feature g -->
      <g
         id="kla_map_—_collection_121"
         inkscape:label="NULL"
         transform="translate(-194.78697,4.1751592)">
        <path
           d="m 359,281 1,1 h 1 l -1,1 v 1 1 l 1,1 1,1 v 1 h 1 1 l -1,1 h -1 -2 v 1 h -1 1 -2 -2 v -1 -1 h -1 v -1 l 1,-1 -1,-1 v -2 l -1,-1 1,-1 h 1 v 1 l 1,-1 h 1 1"
           id="path1073" />
      </g>
      <!-- end feature g -->
      <g
         id="kla_map_—_collection_122"
         inkscape:label="NULL"
         transform="translate(-194.78697,4.1751592)">
        <path
           d="m 355,287 -1,1 -2,1 v 1 l -1,-1 -1,1 -1,-1 h 2 l -1,-2 v -1 h 1 l -1,-1 2,-1 v -1 h 1 1 v -1 l 1,1 v 2 l 1,1 -1,1"
           id="path1076" />
      </g>
      <!-- end feature g -->
      <g
         id="kla_map_—_collection_123"
         inkscape:label="NULL"
         transform="translate(-194.78697,4.1751592)">
        <path
           d="m 371,288 v 1 l 1,1 v -1 l 1,-1 h -1 1 l 3,-1 h -1 v -1 h 2 v 1 1 h 1 l 1,-1 h -1 l 1,-1 1,1 h 1 -1 1 l 1,2 1,1 2,1 v 1 h -1 l -1,1 v 1 l -1,1 1,1 1,1 -2,1 v -1 l -1,-1 h -1 v 1 l -1,1 h -1 -1 l -1,-1 v -1 l -1,-1 h -1 -1 l -2,-1 v -1 l -1,-1 h -1 l -1,-1 -1,1 v -1 1 l -1,-1 -1,1 v -1 l 1,-2 v -1 -1 h 1 v -1 l 1,-1 2,2 v 1 h 1"
           id="path1079" />
      </g>
      <!-- end feature g -->
      <g
         id="kla_map_—_collection_124"
         inkscape:label="NULL"
         transform="translate(-194.78697,4.1751592)">
        <path
           d="m 358,290 v 2 l -1,1 v 1 h -1 l -2,-2 -2,-2 v -1 l 2,-1 1,-1 v 1 h 1 v 1 1 h 2"
           id="path1082" />
      </g>
      <!-- end feature g -->
      <g
         id="kla_map_—_collection_125"
         inkscape:label="NULL"
         transform="translate(-194.78697,4.1751592)">
        <path
           d="m 366,288 v 1 l -1,2 v 1 l 1,-1 v 1 h -1 1 l 1,1 v 1 h -1 l 1,1 h -2 -1 v 1 h -1 l -1,-1 -1,1 h -2 v 1 l -1,-1 v 1 l -2,-3 h 1 v -1 l 1,-1 v -2 h 2 -1 1 v -1 h 2 1 l 1,-1 h -1 -1 l 1,-1 h 1 l 1,1 h 1"
           id="path1085" />
      </g>
      <!-- end feature g -->
      <g
         id="kla_map_—_collection_126"
         inkscape:label="NULL"
         transform="translate(-194.78697,4.1751592)">
        <path
           d="m 366,291 1,1 v -1 1 l 1,-1 1,1 h 1 l 1,1 v 1 l -1,1 v 1 h -1 v 1 h -1 v 1 h -1 -1 l -3,2 v 3 l -3,-3 -2,-3 v -1 l 1,1 v -1 h 2 l 1,-1 1,1 h 1 v -1 h 1 2 l -1,-1 h 1 v -1 l -1,-1 h -1 1 v -1"
           id="path1088" />
      </g>
      <!-- end feature g -->
      <g
         id="kla_map_—_collection_127"
         inkscape:label="NULL"
         transform="translate(-194.78697,4.1751592)">
        <path
           d="m 385,292 3,1 h 1 1 l 1,2 h 1 l 1,1 3,2 v 1 1 h -1 l -1,-1 1,3 h -4 l -2,1 h -1 -1 v 1 h -1 l -1,1 1,2 h -1 -2 v 1 h -3 -1 v -1 h 1 v -1 l -2,-2 -1,1 h -1 -1 l -2,-1 1,-1 -1,-1 -1,-1 h 1 1 l 3,-2 v -1 h 1 1 l 1,-1 v -1 h 1 l 1,1 v 1 l 2,-1 -1,-1 -1,-1 1,-1 v -1 l 1,-1 h 1"
           id="path1091" />
      </g>
      <!-- end feature g -->
      <g
         id="kla_map_—_collection_128"
         inkscape:label="NULL"
         transform="translate(-194.78697,4.1751592)">
        <path
           d="m 371,294 2,1 h 1 1 l 1,1 v 1 l 1,1 v 1 l -3,2 h -1 -1 -1 l -1,1 1,1 -2,1 h -1 -2 v -1 l -2,1 h -1 v -1 -3 l 3,-2 h 1 1 v -1 h 1 v -1 h 1 v -1 l 1,-1"
           id="path1094" />
      </g>
      <!-- end feature g -->
      <g
         id="kla_map_—_collection_129"
         inkscape:label="NULL"
         transform="translate(-194.78697,4.1751592)">
        <path
           d="m 372,301 1,1 1,1 -1,1 v 2 l -1,-1 v 1 l -1,1 1,1 -1,1 -1,1 1,1 2,2 h -1 l -1,1 -8,-11 v 1 h 1 l 2,-1 v 1 h 2 1 l 2,-1 -1,-1 1,-1 h 1"
           id="path1097" />
      </g>
      <!-- end feature g -->
      <g
         id="kla_map_—_collection_130"
         inkscape:label="NULL"
         transform="translate(-194.78697,4.1751592)">
        <path
           d="m 395,302 h 1 l 1,2 -1,1 h 1 v 1 l 1,1 1,1 h 1 v 1 h -1 -1 -1 v 1 1 l -1,1 h -1 -1 -1 l 1,1 h -1 v 1 l -2,-1 v 1 l -1,-1 v 1 l 1,1 v 1 l -1,1 h -2 l -2,-2 v -1 h -1 -1 -1 l -2,-1 v -1 h 1 l -1,-1 2,-1 -1,-1 h -1 l -1,-1 h 3 v -1 h 2 1 l -1,-2 1,-1 h 1 v -1 h 1 1 l 2,-1 h 4"
           id="path1100" />
      </g>
      <!-- end feature g -->
      <g
         id="kla_map_—_collection_131"
         inkscape:label="NULL"
         transform="translate(-194.78697,4.1751592)">
        <path
           d="m 373,304 2,1 h 1 1 l 1,-1 2,2 v 1 h -1 v 1 h 1 l 1,1 h 1 l 1,1 -2,1 1,1 h -1 v 1 l -1,1 -1,-1 h -1 l -1,-1 1,-1 h -1 l -1,-1 v -1 1 l -1,1 v -1 h -2 -1 v 1 h -1 l -1,-1 1,-1 1,-1 -1,-1 1,-1 v -1 l 1,1 v -2"
           id="path1103" />
      </g>
      <!-- end feature g -->
      <g
         id="kla_map_—_collection_132"
         inkscape:label="NULL"
         transform="translate(-194.78697,4.1751592)">
        <path
           d="m 378,313 v 4 l -3,2 -4,-5 1,-1 h 1 l -2,-2 h 1 v -1 h 1 2 v 1 l 1,-1 v -1 1 l 1,1 h 1 l -1,1 1,1"
           id="path1106" />
      </g>
      <!-- end feature g -->
      <g
         id="kla_map_—_collection_133"
         inkscape:label="NULL"
         transform="translate(-194.78697,4.1751592)">
        <path
           d="m 400,309 v 1 l 1,1 v 1 l 1,1 v 1 1 l -1,2 h -1 -1 -1 l -1,-1 -1,1 1,1 v 1 l 1,1 v 1 h -1 l -1,1 v 1 l -1,1 v 1 l -1,1 -1,-1 v 1 2 l 1,-1 v 1 1 l 1,1 h -1 v -1 l -1,1 v -1 h -1 v -1 h -1 v -1 -1 l -1,-1 h -1 v -1 h -1 v -1 l 1,-1 v -1 -1 h -1 l 3,-1 -1,-1 h 1 -1 v -1 l 1,-1 v -1 l -1,-1 v -1 l 1,1 v -1 l 2,1 v -1 h 1 l -1,-1 h 1 1 1 l 1,-1 v -1 -1 h 1 1 1"
           id="path1109" />
      </g>
      <!-- end feature g -->
      <g
         id="kla_map_—_collection_134"
         inkscape:label="NULL"
         transform="translate(-194.78697,4.1751592)">
        <path
           d="m 381,313 2,1 h -1 l 1,2 h -1 v 1 l -2,-1 h -1 v 1 h -1 v -4 h 1 l 1,1 1,-1"
           id="path1112" />
      </g>
      <!-- end feature g -->
      <g
         id="kla_map_—_collection_135"
         inkscape:label="NULL"
         transform="translate(-194.78697,4.1751592)">
        <path
           d="m 390,317 v 1 h 1 -1 l 1,1 -3,1 h 1 l -1,1 -1,1 h -1 v -1 l -1,1 v 1 l -1,-1 -1,-1 h -1 1 -1 v -2 -2 -1 h 1 l -1,-2 h 1 1 1 1 v 1 l 2,2 h 2"
           id="path1115" />
      </g>
      <!-- end feature g -->
      <g
         id="kla_map_—_collection_136"
         inkscape:label="NULL"
         transform="translate(-194.78697,4.1751592)">
        <path
           d="m 382,317 v 2 l -1,-1 v 1 h -1 -1 -1 l -1,1 -2,-1 3,-2 h 1 v -1 h 1 l 2,1"
           id="path1118" />
      </g>
      <!-- end feature g -->
      <g
         id="kla_map_—_collection_137"
         inkscape:label="NULL"
         transform="translate(-194.78697,4.1751592)">
        <path
           d="m 382,319 v 2 h 1 -2 l -1,1 v 1 h 1 l -1,2 v -1 l -3,-4 1,-1 h 1 1 1 v -1 l 1,1"
           id="path1121" />
      </g>
      <!-- end feature g -->
      <g
         id="kla_map_—_collection_138"
         inkscape:label="NULL"
         transform="translate(-194.78697,4.1751592)">
        <path
           d="m 389,320 v 1 1 l -1,1 v 1 h 1 v 1 h 1 l 1,1 v 1 1 h 1 v 1 h 1 l -2,1 h -1 l 1,1 h -1 -1 v 1 l -1,-1 h -1 l 1,-2 v -1 h -2 v -1 l -1,-1 1,-1 -1,-1 1,-1 h -1 v -1 l 1,-1 v 1 h 1 l 1,-1 1,-1"
           id="path1124" />
      </g>
      <!-- end feature g -->
      <g
         id="kla_map_—_collection_139"
         inkscape:label="NULL"
         transform="translate(-194.78697,4.1751592)">
        <path
           d="m 385,323 h 1 l -1,1 1,1 -1,1 1,1 v 1 h 2 v 1 l -1,2 h 1 l -4,-3 h -1 l -1,-2 h -1 l -1,-1 v -1 1 l 1,-2 h -1 v -1 l 1,-1 h 2 -1 1 l 1,1 1,1"
           id="path1127" />
      </g>
      <!-- end feature g -->
      <g
         id="kla_map_—_collection_140"
         inkscape:label="NULL"
         transform="translate(-194.78697,4.1751592)">
        <path
           d="m 359,189 h 1 2 l 2,-1 v 1 h 1 v -1 h 2 1 1 1 l 2,1 h 1 v 1 h 1 1 v 1 l 1,1 1,-1 1,1 h 2 1 l 2,-1 2,-1 v -1 l 1,1 v 1 l -1,1 v -1 l -2,1 v 1 l 2,1 1,-1 1,1 1,1 v 1 h -1 -1 -2 l -1,-1 -1,1 v 1 h -1 v -1 l -2,1 -1,-1 -2,-1 -1,1 v 2 l -1,1 -2,3 v 1 l -3,-1 -1,1 1,1 h -1 -1 1 -3 1 v 1 h 1 l 3,2 v 1 l -1,-1 -3,-1 -1,1 -3,-1 -4,1 -1,-1 v 1 h -1 l -1,1 h -1 -1 -1 1 v -2 h -1 -1 v -1 l -1,-1 v -1 -1 h 1 v -1 -3 h 1 1 v -1 l 2,1 1,-1 1,-2 1,-2 1,-3 v -1"
           id="path1130" />
      </g>
      <!-- end feature g -->
    </g>
    <!-- end of symbol g -->
  </g>
  <!-- end of layer g -->
  <!-- QGIS extent for clipping, eg in Inkscape -->
  <g
     id="qgisviewbox"
     inkscape:groupmode="layer"
     inkscape:label="qgisviewbox"
     stroke="#ff0000"
     stroke-width="1"
     fill="none" />
  <!-- end of viewbox g -->
</svg>
